<?xml version="1.0" encoding="UTF-8"?>
<svg xmlns="http://www.w3.org/2000/svg" xmlns:xlink="http://www.w3.org/1999/xlink" width="720pt" height="331pt" viewBox="0 0 720 331" version="1.1">
<defs>
<g>
<symbol overflow="visible" id="glyph0-0">
<path style="stroke:none;" d=""/>
</symbol>
<symbol overflow="visible" id="glyph0-1">
<path style="stroke:none;" d="M 1.0625 3.140625 C 0.890625 3.890625 0.796875 4.09375 -0.21875 4.09375 C -0.515625 4.09375 -0.765625 4.09375 -0.765625 4.5625 C -0.765625 4.609375 -0.75 4.8125 -0.46875 4.8125 C -0.15625 4.8125 0.203125 4.765625 0.515625 4.765625 L 1.59375 4.765625 C 2.109375 4.765625 3.375 4.8125 3.890625 4.8125 C 4.046875 4.8125 4.34375 4.8125 4.34375 4.359375 C 4.34375 4.09375 4.15625 4.09375 3.734375 4.09375 C 2.609375 4.09375 2.53125 3.921875 2.53125 3.71875 C 2.53125 3.421875 3.640625 -0.84375 3.796875 -1.40625 C 4.0625 -0.71875 4.734375 0.25 6.015625 0.25 C 8.828125 0.25 11.84375 -3.390625 11.84375 -7.03125 C 11.84375 -9.3125 10.5625 -10.921875 8.703125 -10.921875 C 7.109375 -10.921875 5.78125 -9.390625 5.5 -9.046875 C 5.296875 -10.28125 4.34375 -10.921875 3.34375 -10.921875 C 2.625 -10.921875 2.0625 -10.578125 1.59375 -9.640625 C 1.140625 -8.75 0.796875 -7.234375 0.796875 -7.140625 C 0.796875 -7.03125 0.890625 -6.90625 1.0625 -6.90625 C 1.265625 -6.90625 1.28125 -6.9375 1.4375 -7.515625 C 1.8125 -8.96875 2.28125 -10.4375 3.265625 -10.4375 C 3.84375 -10.4375 4.046875 -10.03125 4.046875 -9.296875 C 4.046875 -8.703125 3.96875 -8.453125 3.859375 -8 Z M 5.359375 -7.734375 C 5.53125 -8.421875 6.21875 -9.140625 6.609375 -9.484375 C 6.890625 -9.734375 7.703125 -10.4375 8.65625 -10.4375 C 9.734375 -10.4375 10.234375 -9.34375 10.234375 -8.046875 C 10.234375 -6.859375 9.546875 -4.0625 8.921875 -2.78125 C 8.296875 -1.4375 7.15625 -0.25 6.015625 -0.25 C 4.34375 -0.25 4.0625 -2.375 4.0625 -2.484375 C 4.0625 -2.546875 4.109375 -2.75 4.140625 -2.875 Z M 5.359375 -7.734375 "/>
</symbol>
<symbol overflow="visible" id="glyph0-2">
<path style="stroke:none;" d="M 10.921875 -10.6875 C 10.921875 -10.796875 10.828125 -10.90625 10.703125 -10.90625 C 10.5 -10.90625 9.546875 -10.015625 9.0625 -9.140625 C 8.625 -10.265625 7.859375 -10.921875 6.796875 -10.921875 C 3.984375 -10.921875 0.96875 -7.3125 0.96875 -3.640625 C 0.96875 -1.1875 2.40625 0.25 4.09375 0.25 C 5.40625 0.25 6.5 -0.75 7.015625 -1.3125 L 7.03125 -1.28125 L 6.09375 2.421875 L 5.875 3.328125 C 5.65625 4.0625 5.28125 4.0625 4.109375 4.09375 C 3.84375 4.09375 3.59375 4.09375 3.59375 4.5625 C 3.59375 4.734375 3.734375 4.8125 3.921875 4.8125 C 4.265625 4.8125 4.703125 4.765625 5.0625 4.765625 L 7.578125 4.765625 C 7.953125 4.765625 8.375 4.8125 8.75 4.8125 C 8.890625 4.8125 9.1875 4.8125 9.1875 4.34375 C 9.1875 4.09375 9 4.09375 8.625 4.09375 C 7.453125 4.09375 7.390625 3.921875 7.390625 3.71875 C 7.390625 3.59375 7.40625 3.5625 7.484375 3.25 Z M 7.4375 -2.953125 C 7.3125 -2.53125 7.3125 -2.484375 6.96875 -2 C 6.421875 -1.3125 5.328125 -0.25 4.15625 -0.25 C 3.140625 -0.25 2.578125 -1.171875 2.578125 -2.625 C 2.578125 -3.984375 3.34375 -6.765625 3.8125 -7.8125 C 4.65625 -9.546875 5.828125 -10.4375 6.796875 -10.4375 C 8.421875 -10.4375 8.75 -8.40625 8.75 -8.203125 C 8.75 -8.171875 8.671875 -7.859375 8.65625 -7.8125 Z M 7.4375 -2.953125 "/>
</symbol>
<symbol overflow="visible" id="glyph0-3">
<path style="stroke:none;" d="M 9.640625 -10.140625 C 8.875 -9.984375 8.46875 -9.4375 8.46875 -8.890625 C 8.46875 -8.296875 8.953125 -8.109375 9.296875 -8.109375 C 9.984375 -8.109375 10.5625 -8.703125 10.5625 -9.4375 C 10.5625 -10.234375 9.78125 -10.921875 8.546875 -10.921875 C 7.5625 -10.921875 6.421875 -10.484375 5.375 -8.96875 C 5.203125 -10.28125 4.21875 -10.921875 3.21875 -10.921875 C 2.25 -10.921875 1.765625 -10.1875 1.46875 -9.640625 C 1.046875 -8.75 0.671875 -7.265625 0.671875 -7.140625 C 0.671875 -7.03125 0.765625 -6.90625 0.9375 -6.90625 C 1.140625 -6.90625 1.171875 -6.9375 1.3125 -7.515625 C 1.6875 -9 2.15625 -10.4375 3.140625 -10.4375 C 3.734375 -10.4375 3.921875 -10.015625 3.921875 -9.296875 C 3.921875 -8.75 3.671875 -7.78125 3.5 -7.015625 L 2.796875 -4.34375 C 2.703125 -3.859375 2.421875 -2.75 2.296875 -2.296875 C 2.125 -1.65625 1.859375 -0.5 1.859375 -0.375 C 1.859375 -0.03125 2.125 0.25 2.5 0.25 C 2.78125 0.25 3.25 0.078125 3.390625 -0.421875 C 3.46875 -0.625 4.390625 -4.359375 4.53125 -4.9375 C 4.65625 -5.484375 4.8125 -6 4.9375 -6.546875 C 5.03125 -6.890625 5.125 -7.28125 5.203125 -7.609375 C 5.28125 -7.828125 5.953125 -9.046875 6.5625 -9.59375 C 6.859375 -9.859375 7.515625 -10.4375 8.53125 -10.4375 C 8.921875 -10.4375 9.3125 -10.359375 9.640625 -10.140625 Z M 9.640625 -10.140625 "/>
</symbol>
<symbol overflow="visible" id="glyph1-0">
<path style="stroke:none;" d=""/>
</symbol>
<symbol overflow="visible" id="glyph1-1">
<path style="stroke:none;" d="M 5.265625 4.203125 C 5.265625 4.1875 5.265625 4.15625 5.21875 4.09375 C 4.421875 3.28125 2.3125 1.078125 2.3125 -4.28125 C 2.3125 -9.65625 4.390625 -11.84375 5.234375 -12.703125 C 5.234375 -12.71875 5.265625 -12.765625 5.265625 -12.8125 C 5.265625 -12.859375 5.21875 -12.890625 5.140625 -12.890625 C 4.953125 -12.890625 3.5 -11.625 2.65625 -9.734375 C 1.796875 -7.8125 1.546875 -5.953125 1.546875 -4.3125 C 1.546875 -3.0625 1.671875 -0.96875 2.703125 1.25 C 3.53125 3.046875 4.9375 4.3125 5.140625 4.3125 C 5.234375 4.3125 5.265625 4.265625 5.265625 4.203125 Z M 5.265625 4.203125 "/>
</symbol>
<symbol overflow="visible" id="glyph2-0">
<path style="stroke:none;" d=""/>
</symbol>
<symbol overflow="visible" id="glyph2-1">
<path style="stroke:none;" d="M 0.734375 2.1875 C 0.625 2.703125 0.546875 2.84375 -0.15625 2.84375 C -0.359375 2.84375 -0.53125 2.84375 -0.53125 3.171875 C -0.53125 3.203125 -0.515625 3.34375 -0.328125 3.34375 C -0.109375 3.34375 0.140625 3.3125 0.359375 3.3125 L 1.109375 3.3125 C 1.46875 3.3125 2.34375 3.34375 2.703125 3.34375 C 2.8125 3.34375 3.015625 3.34375 3.015625 3.03125 C 3.015625 2.84375 2.890625 2.84375 2.59375 2.84375 C 1.8125 2.84375 1.75 2.71875 1.75 2.578125 C 1.75 2.375 2.53125 -0.578125 2.640625 -0.984375 C 2.828125 -0.5 3.28125 0.171875 4.1875 0.171875 C 6.125 0.171875 8.234375 -2.359375 8.234375 -4.890625 C 8.234375 -6.46875 7.328125 -7.59375 6.046875 -7.59375 C 4.9375 -7.59375 4.015625 -6.53125 3.828125 -6.28125 C 3.6875 -7.140625 3.015625 -7.59375 2.328125 -7.59375 C 1.828125 -7.59375 1.421875 -7.359375 1.109375 -6.703125 C 0.796875 -6.078125 0.546875 -5.03125 0.546875 -4.953125 C 0.546875 -4.890625 0.625 -4.796875 0.734375 -4.796875 C 0.875 -4.796875 0.890625 -4.828125 1 -5.21875 C 1.25 -6.234375 1.578125 -7.25 2.265625 -7.25 C 2.671875 -7.25 2.8125 -6.96875 2.8125 -6.453125 C 2.8125 -6.046875 2.75 -5.875 2.6875 -5.5625 Z M 3.71875 -5.375 C 3.84375 -5.859375 4.328125 -6.359375 4.59375 -6.59375 C 4.78125 -6.765625 5.359375 -7.25 6.015625 -7.25 C 6.765625 -7.25 7.109375 -6.484375 7.109375 -5.59375 C 7.109375 -4.765625 6.625 -2.828125 6.203125 -1.921875 C 5.765625 -1 4.96875 -0.171875 4.1875 -0.171875 C 3.015625 -0.171875 2.828125 -1.65625 2.828125 -1.71875 C 2.828125 -1.78125 2.859375 -1.90625 2.875 -2 Z M 3.71875 -5.375 "/>
</symbol>
<symbol overflow="visible" id="glyph3-0">
<path style="stroke:none;" d=""/>
</symbol>
<symbol overflow="visible" id="glyph3-1">
<path style="stroke:none;" d="M 6.125 -9.9375 C 5.984375 -10.234375 5.890625 -10.296875 5.734375 -10.296875 C 5.515625 -10.296875 5.453125 -10.171875 5.359375 -9.9375 L 1.0625 -0.3125 C 0.96875 -0.09375 0.953125 -0.046875 0.953125 0.03125 C 0.953125 0.21875 1.109375 0.375 1.296875 0.375 C 1.40625 0.375 1.546875 0.34375 1.6875 0.015625 L 5.734375 -9.109375 L 9.78125 0.015625 C 9.9375 0.375 10.109375 0.375 10.171875 0.375 C 10.359375 0.375 10.515625 0.21875 10.515625 0.03125 C 10.515625 0 10.515625 -0.03125 10.421875 -0.234375 Z M 6.125 -9.9375 "/>
</symbol>
<symbol overflow="visible" id="glyph3-2">
<path style="stroke:none;" d="M 10.40625 -9.609375 C 10.5 -9.828125 10.515625 -9.859375 10.515625 -9.953125 C 10.515625 -10.140625 10.359375 -10.296875 10.171875 -10.296875 C 10 -10.296875 9.90625 -10.171875 9.78125 -9.921875 L 5.734375 -0.8125 L 1.6875 -9.9375 C 1.546875 -10.265625 1.40625 -10.296875 1.296875 -10.296875 C 1.109375 -10.296875 0.953125 -10.140625 0.953125 -9.953125 C 0.953125 -9.921875 0.953125 -9.890625 1.046875 -9.671875 L 5.34375 0.015625 C 5.46875 0.3125 5.578125 0.375 5.734375 0.375 C 5.953125 0.375 6.015625 0.265625 6.109375 0.015625 Z M 10.40625 -9.609375 "/>
</symbol>
<symbol overflow="visible" id="glyph3-3">
<path style="stroke:none;" d="M 10.515625 -5.515625 C 10.515625 -6.078125 10.46875 -6.125 9.921875 -6.125 L 1.546875 -6.125 C 1.25 -6.125 0.953125 -6.125 0.953125 -5.78125 C 0.953125 -5.4375 1.25 -5.4375 1.546875 -5.4375 L 9.828125 -5.4375 L 9.828125 -2.15625 C 9.828125 -1.84375 9.828125 -1.53125 10.171875 -1.53125 C 10.515625 -1.53125 10.515625 -1.84375 10.515625 -2.15625 Z M 10.515625 -5.515625 "/>
</symbol>
<symbol overflow="visible" id="glyph4-0">
<path style="stroke:none;" d=""/>
</symbol>
<symbol overflow="visible" id="glyph4-1">
<path style="stroke:none;" d="M 7.59375 -7.421875 C 7.59375 -7.5 7.53125 -7.578125 7.4375 -7.578125 C 7.296875 -7.578125 6.625 -6.953125 6.296875 -6.359375 C 5.984375 -7.125 5.453125 -7.59375 4.71875 -7.59375 C 2.765625 -7.59375 0.671875 -5.078125 0.671875 -2.53125 C 0.671875 -0.828125 1.671875 0.171875 2.84375 0.171875 C 3.75 0.171875 4.515625 -0.515625 4.875 -0.90625 L 4.890625 -0.890625 L 4.234375 1.6875 L 4.078125 2.3125 C 3.921875 2.828125 3.671875 2.828125 2.859375 2.84375 C 2.671875 2.84375 2.5 2.84375 2.5 3.171875 C 2.5 3.28125 2.59375 3.34375 2.71875 3.34375 C 2.96875 3.34375 3.265625 3.3125 3.515625 3.3125 L 5.265625 3.3125 C 5.53125 3.3125 5.8125 3.34375 6.078125 3.34375 C 6.1875 3.34375 6.390625 3.34375 6.390625 3.015625 C 6.390625 2.84375 6.25 2.84375 5.984375 2.84375 C 5.1875 2.84375 5.125 2.71875 5.125 2.578125 C 5.125 2.5 5.140625 2.484375 5.203125 2.25 Z M 5.171875 -2.046875 C 5.078125 -1.75 5.078125 -1.71875 4.84375 -1.390625 C 4.453125 -0.90625 3.703125 -0.171875 2.890625 -0.171875 C 2.1875 -0.171875 1.796875 -0.8125 1.796875 -1.828125 C 1.796875 -2.765625 2.328125 -4.703125 2.65625 -5.421875 C 3.234375 -6.625 4.046875 -7.25 4.71875 -7.25 C 5.859375 -7.25 6.078125 -5.84375 6.078125 -5.703125 C 6.078125 -5.6875 6.03125 -5.453125 6.015625 -5.421875 Z M 5.171875 -2.046875 "/>
</symbol>
<symbol overflow="visible" id="glyph5-0">
<path style="stroke:none;" d=""/>
</symbol>
<symbol overflow="visible" id="glyph5-1">
<path style="stroke:none;" d="M 4.53125 -4.28125 C 4.53125 -5.53125 4.40625 -7.625 3.375 -9.84375 C 2.546875 -11.640625 1.140625 -12.890625 0.9375 -12.890625 C 0.875 -12.890625 0.8125 -12.875 0.8125 -12.796875 C 0.8125 -12.765625 0.828125 -12.734375 0.84375 -12.703125 C 1.671875 -11.84375 3.765625 -9.65625 3.765625 -4.3125 C 3.765625 1.0625 1.6875 3.25 0.84375 4.109375 C 0.828125 4.15625 0.8125 4.171875 0.8125 4.203125 C 0.8125 4.28125 0.875 4.3125 0.9375 4.3125 C 1.125 4.3125 2.578125 3.03125 3.421875 1.140625 C 4.28125 -0.78125 4.53125 -2.640625 4.53125 -4.28125 Z M 4.53125 -4.28125 "/>
</symbol>
<symbol overflow="visible" id="glyph6-0">
<path style="stroke:none;" d=""/>
</symbol>
<symbol overflow="visible" id="glyph6-1">
<path style="stroke:none;" d="M 10.40625 -9.609375 C 10.5 -9.828125 10.515625 -9.859375 10.515625 -9.953125 C 10.515625 -10.140625 10.359375 -10.296875 10.171875 -10.296875 C 10 -10.296875 9.90625 -10.171875 9.78125 -9.921875 L 5.734375 -0.8125 L 1.6875 -9.9375 C 1.546875 -10.265625 1.40625 -10.296875 1.296875 -10.296875 C 1.109375 -10.296875 0.953125 -10.140625 0.953125 -9.953125 C 0.953125 -9.921875 0.953125 -9.890625 1.046875 -9.671875 L 5.34375 0.015625 C 5.46875 0.3125 5.578125 0.375 5.734375 0.375 C 5.953125 0.375 6.015625 0.265625 6.109375 0.015625 Z M 10.40625 -9.609375 "/>
</symbol>
<symbol overflow="visible" id="glyph7-0">
<path style="stroke:none;" d=""/>
</symbol>
<symbol overflow="visible" id="glyph7-1">
<path style="stroke:none;" d="M 5.265625 4.203125 C 5.265625 4.1875 5.265625 4.15625 5.21875 4.09375 C 4.421875 3.28125 2.3125 1.078125 2.3125 -4.28125 C 2.3125 -9.65625 4.390625 -11.84375 5.234375 -12.703125 C 5.234375 -12.71875 5.265625 -12.765625 5.265625 -12.8125 C 5.265625 -12.859375 5.21875 -12.890625 5.140625 -12.890625 C 4.953125 -12.890625 3.5 -11.625 2.65625 -9.734375 C 1.796875 -7.8125 1.546875 -5.953125 1.546875 -4.3125 C 1.546875 -3.0625 1.671875 -0.96875 2.703125 1.25 C 3.53125 3.046875 4.9375 4.3125 5.140625 4.3125 C 5.234375 4.3125 5.265625 4.265625 5.265625 4.203125 Z M 5.265625 4.203125 "/>
</symbol>
<symbol overflow="visible" id="glyph8-0">
<path style="stroke:none;" d=""/>
</symbol>
<symbol overflow="visible" id="glyph8-1">
<path style="stroke:none;" d="M 10.515625 -5.515625 C 10.515625 -6.078125 10.46875 -6.125 9.921875 -6.125 L 1.546875 -6.125 C 1.25 -6.125 0.953125 -6.125 0.953125 -5.78125 C 0.953125 -5.4375 1.25 -5.4375 1.546875 -5.4375 L 9.828125 -5.4375 L 9.828125 -2.15625 C 9.828125 -1.84375 9.828125 -1.53125 10.171875 -1.53125 C 10.515625 -1.53125 10.515625 -1.84375 10.515625 -2.15625 Z M 10.515625 -5.515625 "/>
</symbol>
<symbol overflow="visible" id="glyph9-0">
<path style="stroke:none;" d=""/>
</symbol>
<symbol overflow="visible" id="glyph9-1">
<path style="stroke:none;" d="M 0.734375 2.1875 C 0.625 2.703125 0.546875 2.84375 -0.15625 2.84375 C -0.359375 2.84375 -0.53125 2.84375 -0.53125 3.171875 C -0.53125 3.203125 -0.515625 3.34375 -0.328125 3.34375 C -0.109375 3.34375 0.140625 3.3125 0.359375 3.3125 L 1.109375 3.3125 C 1.46875 3.3125 2.34375 3.34375 2.703125 3.34375 C 2.8125 3.34375 3.015625 3.34375 3.015625 3.03125 C 3.015625 2.84375 2.890625 2.84375 2.59375 2.84375 C 1.8125 2.84375 1.75 2.71875 1.75 2.578125 C 1.75 2.375 2.53125 -0.578125 2.640625 -0.984375 C 2.828125 -0.5 3.28125 0.171875 4.1875 0.171875 C 6.125 0.171875 8.234375 -2.359375 8.234375 -4.890625 C 8.234375 -6.46875 7.328125 -7.59375 6.046875 -7.59375 C 4.9375 -7.59375 4.015625 -6.53125 3.828125 -6.28125 C 3.6875 -7.140625 3.015625 -7.59375 2.328125 -7.59375 C 1.828125 -7.59375 1.421875 -7.359375 1.109375 -6.703125 C 0.796875 -6.078125 0.546875 -5.03125 0.546875 -4.953125 C 0.546875 -4.890625 0.625 -4.796875 0.734375 -4.796875 C 0.875 -4.796875 0.890625 -4.828125 1 -5.21875 C 1.25 -6.234375 1.578125 -7.25 2.265625 -7.25 C 2.671875 -7.25 2.8125 -6.96875 2.8125 -6.453125 C 2.8125 -6.046875 2.75 -5.875 2.6875 -5.5625 Z M 3.71875 -5.375 C 3.84375 -5.859375 4.328125 -6.359375 4.59375 -6.59375 C 4.78125 -6.765625 5.359375 -7.25 6.015625 -7.25 C 6.765625 -7.25 7.109375 -6.484375 7.109375 -5.59375 C 7.109375 -4.765625 6.625 -2.828125 6.203125 -1.921875 C 5.765625 -1 4.96875 -0.171875 4.1875 -0.171875 C 3.015625 -0.171875 2.828125 -1.65625 2.828125 -1.71875 C 2.828125 -1.78125 2.859375 -1.90625 2.875 -2 Z M 3.71875 -5.375 "/>
</symbol>
<symbol overflow="visible" id="glyph10-0">
<path style="stroke:none;" d=""/>
</symbol>
<symbol overflow="visible" id="glyph10-1">
<path style="stroke:none;" d="M 6.125 -9.9375 C 5.984375 -10.234375 5.890625 -10.296875 5.734375 -10.296875 C 5.515625 -10.296875 5.453125 -10.171875 5.359375 -9.9375 L 1.0625 -0.3125 C 0.96875 -0.09375 0.953125 -0.046875 0.953125 0.03125 C 0.953125 0.21875 1.109375 0.375 1.296875 0.375 C 1.40625 0.375 1.546875 0.34375 1.6875 0.015625 L 5.734375 -9.109375 L 9.78125 0.015625 C 9.9375 0.375 10.109375 0.375 10.171875 0.375 C 10.359375 0.375 10.515625 0.21875 10.515625 0.03125 C 10.515625 0 10.515625 -0.03125 10.421875 -0.234375 Z M 6.125 -9.9375 "/>
</symbol>
<symbol overflow="visible" id="glyph11-0">
<path style="stroke:none;" d=""/>
</symbol>
<symbol overflow="visible" id="glyph11-1">
<path style="stroke:none;" d="M 6.703125 -7.046875 C 6.171875 -6.9375 5.890625 -6.5625 5.890625 -6.1875 C 5.890625 -5.765625 6.21875 -5.625 6.453125 -5.625 C 6.9375 -5.625 7.328125 -6.046875 7.328125 -6.5625 C 7.328125 -7.109375 6.796875 -7.59375 5.9375 -7.59375 C 5.25 -7.59375 4.453125 -7.28125 3.734375 -6.234375 C 3.609375 -7.140625 2.921875 -7.59375 2.234375 -7.59375 C 1.5625 -7.59375 1.21875 -7.078125 1.015625 -6.703125 C 0.71875 -6.078125 0.46875 -5.046875 0.46875 -4.953125 C 0.46875 -4.890625 0.53125 -4.796875 0.65625 -4.796875 C 0.796875 -4.796875 0.8125 -4.828125 0.90625 -5.21875 C 1.171875 -6.25 1.5 -7.25 2.1875 -7.25 C 2.59375 -7.25 2.71875 -6.953125 2.71875 -6.453125 C 2.71875 -6.078125 2.546875 -5.40625 2.421875 -4.875 L 1.953125 -3.015625 C 1.875 -2.6875 1.6875 -1.90625 1.59375 -1.59375 C 1.484375 -1.15625 1.296875 -0.34375 1.296875 -0.265625 C 1.296875 -0.015625 1.484375 0.171875 1.734375 0.171875 C 1.921875 0.171875 2.25 0.046875 2.359375 -0.296875 C 2.40625 -0.4375 3.046875 -3.03125 3.15625 -3.421875 C 3.234375 -3.8125 3.34375 -4.171875 3.421875 -4.546875 C 3.5 -4.78125 3.5625 -5.0625 3.609375 -5.28125 C 3.671875 -5.4375 4.125 -6.28125 4.5625 -6.65625 C 4.765625 -6.859375 5.21875 -7.25 5.921875 -7.25 C 6.203125 -7.25 6.46875 -7.203125 6.703125 -7.046875 Z M 6.703125 -7.046875 "/>
</symbol>
<symbol overflow="visible" id="glyph12-0">
<path style="stroke:none;" d=""/>
</symbol>
<symbol overflow="visible" id="glyph12-1">
<path style="stroke:none;" d="M 4.53125 -4.28125 C 4.53125 -5.53125 4.40625 -7.625 3.375 -9.84375 C 2.546875 -11.640625 1.140625 -12.890625 0.9375 -12.890625 C 0.875 -12.890625 0.8125 -12.875 0.8125 -12.796875 C 0.8125 -12.765625 0.828125 -12.734375 0.84375 -12.703125 C 1.671875 -11.84375 3.765625 -9.65625 3.765625 -4.3125 C 3.765625 1.0625 1.6875 3.25 0.84375 4.109375 C 0.828125 4.15625 0.8125 4.171875 0.8125 4.203125 C 0.8125 4.28125 0.875 4.3125 0.9375 4.3125 C 1.125 4.3125 2.578125 3.03125 3.421875 1.140625 C 4.28125 -0.78125 4.53125 -2.640625 4.53125 -4.28125 Z M 4.53125 -4.28125 "/>
</symbol>
<symbol overflow="visible" id="glyph13-0">
<path style="stroke:none;" d=""/>
</symbol>
<symbol overflow="visible" id="glyph13-1">
<path style="stroke:none;" d="M 10.40625 -7.953125 C 10.40625 -9.46875 10.390625 -12.046875 9.34375 -14.03125 C 8.421875 -15.765625 6.96875 -16.375 5.671875 -16.375 C 4.484375 -16.375 2.96875 -15.828125 2.03125 -14.046875 C 1.046875 -12.1875 0.9375 -9.890625 0.9375 -7.953125 C 0.9375 -6.546875 0.96875 -4.390625 1.734375 -2.5 C 2.796875 0.046875 4.703125 0.390625 5.671875 0.390625 C 6.8125 0.390625 8.546875 -0.078125 9.5625 -2.421875 C 10.3125 -4.140625 10.40625 -6.140625 10.40625 -7.953125 Z M 5.671875 0 C 4.09375 0 3.140625 -1.359375 2.796875 -3.25 C 2.53125 -4.703125 2.53125 -6.84375 2.53125 -8.234375 C 2.53125 -10.140625 2.53125 -11.71875 2.84375 -13.234375 C 3.328125 -15.34375 4.703125 -15.984375 5.671875 -15.984375 C 6.6875 -15.984375 8 -15.3125 8.46875 -13.28125 C 8.796875 -11.875 8.828125 -10.203125 8.828125 -8.234375 C 8.828125 -6.609375 8.828125 -4.640625 8.53125 -3.171875 C 8 -0.46875 6.546875 0 5.671875 0 Z M 5.671875 0 "/>
</symbol>
<symbol overflow="visible" id="glyph13-2">
<path style="stroke:none;" d="M 6.59375 -15.828125 C 6.59375 -16.359375 6.5625 -16.375 6.21875 -16.375 C 5.25 -15.21875 3.796875 -14.84375 2.40625 -14.796875 C 2.328125 -14.796875 2.203125 -14.796875 2.1875 -14.75 C 2.15625 -14.6875 2.15625 -14.640625 2.15625 -14.125 C 2.921875 -14.125 4.21875 -14.28125 5.203125 -14.875 L 5.203125 -1.8125 C 5.203125 -0.9375 5.15625 -0.640625 3.015625 -0.640625 L 2.28125 -0.640625 L 2.28125 0 C 3.46875 -0.03125 4.703125 -0.046875 5.890625 -0.046875 C 7.09375 -0.046875 8.328125 -0.03125 9.515625 0 L 9.515625 -0.640625 L 8.765625 -0.640625 C 6.640625 -0.640625 6.59375 -0.921875 6.59375 -1.8125 Z M 6.59375 -15.828125 "/>
</symbol>
<symbol overflow="visible" id="glyph14-0">
<path style="stroke:none;" d=""/>
</symbol>
<symbol overflow="visible" id="glyph14-1">
<path style="stroke:none;" d="M 2.078125 -4.671875 C 2.1875 -7.421875 3.734375 -7.890625 4.375 -7.890625 C 6.28125 -7.890625 6.46875 -5.390625 6.46875 -4.671875 Z M 2.0625 -4.28125 L 7.21875 -4.28125 C 7.625 -4.28125 7.6875 -4.28125 7.6875 -4.671875 C 7.6875 -6.5 6.6875 -8.296875 4.375 -8.296875 C 2.21875 -8.296875 0.515625 -6.390625 0.515625 -4.078125 C 0.515625 -1.59375 2.46875 0.203125 4.59375 0.203125 C 6.84375 0.203125 7.6875 -1.84375 7.6875 -2.203125 C 7.6875 -2.390625 7.53125 -2.421875 7.4375 -2.421875 C 7.28125 -2.421875 7.234375 -2.3125 7.203125 -2.171875 C 6.546875 -0.265625 4.890625 -0.265625 4.703125 -0.265625 C 3.78125 -0.265625 3.03125 -0.8125 2.609375 -1.5 C 2.0625 -2.390625 2.0625 -3.609375 2.0625 -4.28125 Z M 2.0625 -4.28125 "/>
</symbol>
<symbol overflow="visible" id="glyph14-2">
<path style="stroke:none;" d="M 3.09375 -6.140625 L 3.09375 -8.1875 L 0.515625 -7.984375 L 0.515625 -7.40625 C 1.8125 -7.40625 1.96875 -7.28125 1.96875 -6.375 L 1.96875 -1.40625 C 1.96875 -0.578125 1.765625 -0.578125 0.515625 -0.578125 L 0.515625 0 C 1.234375 -0.015625 2.109375 -0.0625 2.625 -0.0625 C 3.375 -0.0625 4.234375 -0.0625 4.984375 0 L 4.984375 -0.578125 L 4.59375 -0.578125 C 3.21875 -0.578125 3.1875 -0.78125 3.1875 -1.4375 L 3.1875 -4.296875 C 3.1875 -6.125 3.96875 -7.78125 5.375 -7.78125 C 5.5 -7.78125 5.53125 -7.78125 5.578125 -7.765625 C 5.515625 -7.734375 5.140625 -7.515625 5.140625 -7.03125 C 5.140625 -6.515625 5.53125 -6.234375 5.9375 -6.234375 C 6.28125 -6.234375 6.734375 -6.46875 6.734375 -7.046875 C 6.734375 -7.640625 6.171875 -8.1875 5.375 -8.1875 C 4.015625 -8.1875 3.34375 -6.9375 3.09375 -6.140625 Z M 3.09375 -6.140625 "/>
</symbol>
<symbol overflow="visible" id="glyph14-3">
<path style="stroke:none;" d="M 3.234375 -7.984375 L 3.234375 -10.125 C 3.234375 -11.75 4.125 -12.640625 4.9375 -12.640625 C 5 -12.640625 5.28125 -12.640625 5.546875 -12.515625 C 5.328125 -12.4375 5 -12.203125 5 -11.734375 C 5 -11.3125 5.296875 -10.9375 5.796875 -10.9375 C 6.328125 -10.9375 6.609375 -11.3125 6.609375 -11.75 C 6.609375 -12.4375 5.921875 -13.046875 4.9375 -13.046875 C 3.640625 -13.046875 2.078125 -12.078125 2.078125 -10.109375 L 2.078125 -7.984375 L 0.609375 -7.984375 L 0.609375 -7.40625 L 2.078125 -7.40625 L 2.078125 -1.40625 C 2.078125 -0.578125 1.875 -0.578125 0.625 -0.578125 L 0.625 0 C 1.359375 -0.015625 2.21875 -0.0625 2.734375 -0.0625 C 3.484375 -0.0625 4.34375 -0.0625 5.09375 0 L 5.09375 -0.578125 L 4.703125 -0.578125 C 3.328125 -0.578125 3.296875 -0.78125 3.296875 -1.4375 L 3.296875 -7.40625 L 5.40625 -7.40625 L 5.40625 -7.984375 Z M 3.234375 -7.984375 "/>
</symbol>
<symbol overflow="visible" id="glyph14-4">
<path style="stroke:none;" d="M 3.765625 -11.46875 C 3.765625 -11.90625 3.390625 -12.390625 2.828125 -12.390625 C 2.3125 -12.390625 1.90625 -11.984375 1.90625 -11.46875 C 1.90625 -10.9375 2.3125 -10.53125 2.828125 -10.53125 C 3.390625 -10.53125 3.765625 -11.015625 3.765625 -11.46875 Z M 7.328125 -11.46875 C 7.328125 -11.984375 6.921875 -12.390625 6.40625 -12.390625 C 5.84375 -12.390625 5.484375 -11.90625 5.484375 -11.46875 C 5.484375 -11.015625 5.84375 -10.53125 6.40625 -10.53125 C 6.921875 -10.53125 7.328125 -10.9375 7.328125 -11.46875 Z M 7.328125 -11.46875 "/>
</symbol>
<symbol overflow="visible" id="glyph14-5">
<path style="stroke:none;" d="M 7.234375 -1.46875 L 7.234375 0.203125 L 9.90625 0 L 9.90625 -0.578125 C 8.609375 -0.578125 8.46875 -0.703125 8.46875 -1.609375 L 8.46875 -8.1875 L 5.734375 -7.984375 L 5.734375 -7.40625 C 7.03125 -7.40625 7.1875 -7.28125 7.1875 -6.375 L 7.1875 -3.078125 C 7.1875 -1.46875 6.296875 -0.203125 4.9375 -0.203125 C 3.390625 -0.203125 3.3125 -1.078125 3.3125 -2.03125 L 3.3125 -8.1875 L 0.59375 -7.984375 L 0.59375 -7.40625 C 2.03125 -7.40625 2.03125 -7.34375 2.03125 -5.703125 L 2.03125 -2.921875 C 2.03125 -1.484375 2.03125 0.203125 4.84375 0.203125 C 5.890625 0.203125 6.703125 -0.3125 7.234375 -1.46875 Z M 7.234375 -1.46875 "/>
</symbol>
<symbol overflow="visible" id="glyph14-6">
<path style="stroke:none;" d="M 3.28125 -12.84375 L 0.609375 -12.640625 L 0.609375 -12.078125 C 1.90625 -12.078125 2.0625 -11.9375 2.0625 -11.03125 L 2.0625 -1.40625 C 2.0625 -0.578125 1.84375 -0.578125 0.609375 -0.578125 L 0.609375 0 C 1.21875 -0.015625 2.203125 -0.0625 2.671875 -0.0625 C 3.125 -0.0625 4.03125 -0.015625 4.71875 0 L 4.71875 -0.578125 C 3.484375 -0.578125 3.28125 -0.578125 3.28125 -1.40625 Z M 3.28125 -12.84375 "/>
</symbol>
<symbol overflow="visible" id="glyph14-7">
<path style="stroke:none;" d="M 3.1875 -6.984375 L 3.1875 -12.84375 L 0.515625 -12.640625 L 0.515625 -12.078125 C 1.8125 -12.078125 1.96875 -11.9375 1.96875 -11.03125 L 1.96875 0 L 2.421875 0 C 2.4375 -0.015625 2.59375 -0.28125 3.09375 -1.140625 C 3.375 -0.71875 4.140625 0.203125 5.515625 0.203125 C 7.71875 0.203125 9.640625 -1.609375 9.640625 -4 C 9.640625 -6.34375 7.828125 -8.1875 5.71875 -8.1875 C 4.28125 -8.1875 3.484375 -7.3125 3.1875 -6.984375 Z M 3.234375 -2.109375 L 3.234375 -5.921875 C 3.234375 -6.28125 3.234375 -6.296875 3.4375 -6.59375 C 4.171875 -7.625 5.1875 -7.78125 5.625 -7.78125 C 6.46875 -7.78125 7.125 -7.296875 7.578125 -6.59375 C 8.046875 -5.828125 8.109375 -4.78125 8.109375 -4.015625 C 8.109375 -3.328125 8.078125 -2.21875 7.53125 -1.390625 C 7.140625 -0.8125 6.4375 -0.203125 5.4375 -0.203125 C 4.609375 -0.203125 3.9375 -0.640625 3.5 -1.328125 C 3.234375 -1.71875 3.234375 -1.78125 3.234375 -2.109375 Z M 3.234375 -2.109375 "/>
</symbol>
<symbol overflow="visible" id="glyph14-8">
<path style="stroke:none;" d="M 6.171875 -1.40625 C 6.234375 -0.671875 6.734375 0.109375 7.609375 0.109375 C 8 0.109375 9.125 -0.140625 9.125 -1.640625 L 9.125 -2.6875 L 8.671875 -2.6875 L 8.671875 -1.640625 C 8.671875 -0.578125 8.203125 -0.46875 8 -0.46875 C 7.390625 -0.46875 7.3125 -1.296875 7.3125 -1.390625 L 7.3125 -5.09375 C 7.3125 -5.875 7.3125 -6.59375 6.640625 -7.28125 C 5.921875 -8 5 -8.296875 4.109375 -8.296875 C 2.59375 -8.296875 1.3125 -7.421875 1.3125 -6.203125 C 1.3125 -5.640625 1.6875 -5.328125 2.171875 -5.328125 C 2.6875 -5.328125 3.015625 -5.703125 3.015625 -6.1875 C 3.015625 -6.40625 2.921875 -7.015625 2.078125 -7.03125 C 2.578125 -7.6875 3.484375 -7.890625 4.078125 -7.890625 C 4.984375 -7.890625 6.03125 -7.171875 6.03125 -5.515625 L 6.03125 -4.828125 C 5.09375 -4.78125 3.796875 -4.71875 2.625 -4.171875 C 1.234375 -3.53125 0.78125 -2.578125 0.78125 -1.765625 C 0.78125 -0.265625 2.578125 0.203125 3.734375 0.203125 C 4.96875 0.203125 5.8125 -0.53125 6.171875 -1.40625 Z M 6.03125 -4.4375 L 6.03125 -2.59375 C 6.03125 -0.828125 4.703125 -0.203125 3.875 -0.203125 C 2.96875 -0.203125 2.203125 -0.859375 2.203125 -1.78125 C 2.203125 -2.796875 2.984375 -4.328125 6.03125 -4.4375 Z M 6.03125 -4.4375 "/>
</symbol>
<symbol overflow="visible" id="glyph14-9">
<path style="stroke:none;" d="M 2.03125 -6.375 L 2.03125 -1.40625 C 2.03125 -0.578125 1.828125 -0.578125 0.59375 -0.578125 L 0.59375 0 C 1.234375 -0.015625 2.1875 -0.0625 2.6875 -0.0625 C 3.171875 -0.0625 4.125 -0.015625 4.765625 0 L 4.765625 -0.578125 C 3.515625 -0.578125 3.3125 -0.578125 3.3125 -1.40625 L 3.3125 -4.8125 C 3.3125 -6.734375 4.625 -7.78125 5.8125 -7.78125 C 6.984375 -7.78125 7.1875 -6.78125 7.1875 -5.71875 L 7.1875 -1.40625 C 7.1875 -0.578125 6.984375 -0.578125 5.734375 -0.578125 L 5.734375 0 C 6.390625 -0.015625 7.328125 -0.0625 7.828125 -0.0625 C 8.3125 -0.0625 9.28125 -0.015625 9.90625 0 L 9.90625 -0.578125 C 8.9375 -0.578125 8.484375 -0.578125 8.46875 -1.125 L 8.46875 -4.671875 C 8.46875 -6.265625 8.46875 -6.828125 7.890625 -7.5 C 7.625 -7.8125 7.015625 -8.1875 5.9375 -8.1875 C 4.59375 -8.1875 3.71875 -7.390625 3.203125 -6.234375 L 3.203125 -8.1875 L 0.59375 -7.984375 L 0.59375 -7.40625 C 1.890625 -7.40625 2.03125 -7.28125 2.03125 -6.375 Z M 2.03125 -6.375 "/>
</symbol>
<symbol overflow="visible" id="glyph14-10">
<path style="stroke:none;" d="M 3.28125 -8.1875 L 0.6875 -7.984375 L 0.6875 -7.40625 C 1.890625 -7.40625 2.0625 -7.296875 2.0625 -6.390625 L 2.0625 -1.40625 C 2.0625 -0.578125 1.84375 -0.578125 0.609375 -0.578125 L 0.609375 0 C 1.203125 -0.015625 2.203125 -0.0625 2.640625 -0.0625 C 3.296875 -0.0625 3.9375 -0.015625 4.578125 0 L 4.578125 -0.578125 C 3.34375 -0.578125 3.28125 -0.671875 3.28125 -1.390625 Z M 3.34375 -11.40625 C 3.34375 -12 2.890625 -12.390625 2.375 -12.390625 C 1.796875 -12.390625 1.390625 -11.890625 1.390625 -11.40625 C 1.390625 -10.90625 1.796875 -10.421875 2.375 -10.421875 C 2.890625 -10.421875 3.34375 -10.8125 3.34375 -11.40625 Z M 3.34375 -11.40625 "/>
</symbol>
<symbol overflow="visible" id="glyph14-11">
<path style="stroke:none;" d="M 2.171875 -4.03125 C 2.171875 -7.046875 3.6875 -7.828125 4.671875 -7.828125 C 4.828125 -7.828125 6 -7.8125 6.640625 -7.140625 C 5.890625 -7.09375 5.78125 -6.53125 5.78125 -6.296875 C 5.78125 -5.8125 6.109375 -5.4375 6.625 -5.4375 C 7.109375 -5.4375 7.484375 -5.765625 7.484375 -6.3125 C 7.484375 -7.578125 6.078125 -8.296875 4.640625 -8.296875 C 2.328125 -8.296875 0.625 -6.296875 0.625 -4 C 0.625 -1.625 2.46875 0.203125 4.609375 0.203125 C 7.09375 0.203125 7.6875 -2.015625 7.6875 -2.203125 C 7.6875 -2.390625 7.5 -2.390625 7.4375 -2.390625 C 7.28125 -2.390625 7.234375 -2.3125 7.203125 -2.203125 C 6.671875 -0.484375 5.46875 -0.265625 4.78125 -0.265625 C 3.796875 -0.265625 2.171875 -1.0625 2.171875 -4.03125 Z M 2.171875 -4.03125 "/>
</symbol>
<symbol overflow="visible" id="glyph14-12">
<path style="stroke:none;" d="M 2.03125 -1.40625 C 2.03125 -0.578125 1.828125 -0.578125 0.59375 -0.578125 L 0.59375 0 C 1.234375 -0.015625 2.1875 -0.0625 2.6875 -0.0625 C 3.171875 -0.0625 4.125 -0.015625 4.765625 0 L 4.765625 -0.578125 C 3.515625 -0.578125 3.3125 -0.578125 3.3125 -1.40625 L 3.3125 -4.8125 C 3.3125 -6.734375 4.625 -7.78125 5.8125 -7.78125 C 6.984375 -7.78125 7.1875 -6.78125 7.1875 -5.71875 L 7.1875 -1.40625 C 7.1875 -0.578125 6.984375 -0.578125 5.734375 -0.578125 L 5.734375 0 C 6.390625 -0.015625 7.328125 -0.0625 7.828125 -0.0625 C 8.3125 -0.0625 9.28125 -0.015625 9.90625 0 L 9.90625 -0.578125 C 8.9375 -0.578125 8.484375 -0.578125 8.46875 -1.125 L 8.46875 -4.671875 C 8.46875 -6.265625 8.46875 -6.828125 7.890625 -7.5 C 7.625 -7.8125 7.015625 -8.1875 5.9375 -8.1875 C 4.390625 -8.1875 3.578125 -7.078125 3.265625 -6.375 L 3.265625 -12.84375 L 0.59375 -12.640625 L 0.59375 -12.078125 C 1.890625 -12.078125 2.03125 -11.9375 2.03125 -11.03125 Z M 2.03125 -1.40625 "/>
</symbol>
<symbol overflow="visible" id="glyph14-13">
<path style="stroke:none;" d="M 3.203125 -7.40625 L 5.84375 -7.40625 L 5.84375 -7.984375 L 3.203125 -7.984375 L 3.203125 -11.390625 L 2.734375 -11.390625 C 2.71875 -9.875 2.171875 -7.890625 0.359375 -7.8125 L 0.359375 -7.40625 L 1.921875 -7.40625 L 1.921875 -2.296875 C 1.921875 -0.015625 3.640625 0.203125 4.3125 0.203125 C 5.625 0.203125 6.140625 -1.109375 6.140625 -2.296875 L 6.140625 -3.34375 L 5.6875 -3.34375 L 5.6875 -2.328125 C 5.6875 -0.96875 5.125 -0.265625 4.4375 -0.265625 C 3.203125 -0.265625 3.203125 -1.9375 3.203125 -2.265625 Z M 3.203125 -7.40625 "/>
</symbol>
<symbol overflow="visible" id="glyph14-14">
<path style="stroke:none;" d="M 4.109375 -3.1875 C 2.5 -3.1875 2.5 -5.03125 2.5 -5.46875 C 2.5 -5.96875 2.515625 -6.546875 2.796875 -7.015625 C 2.9375 -7.234375 3.375 -7.765625 4.109375 -7.765625 C 5.71875 -7.765625 5.71875 -5.90625 5.71875 -5.484375 C 5.71875 -4.984375 5.703125 -4.390625 5.421875 -3.921875 C 5.28125 -3.703125 4.84375 -3.1875 4.109375 -3.1875 Z M 1.96875 -2.46875 C 1.96875 -2.53125 1.96875 -2.96875 2.28125 -3.328125 C 3 -2.8125 3.765625 -2.765625 4.109375 -2.765625 C 5.828125 -2.765625 7.109375 -4.03125 7.109375 -5.46875 C 7.109375 -6.140625 6.8125 -6.828125 6.34375 -7.265625 C 7.015625 -7.890625 7.6875 -7.984375 8.015625 -7.984375 C 8.046875 -7.984375 8.140625 -7.984375 8.203125 -7.96875 C 8 -7.890625 7.90625 -7.6875 7.90625 -7.46875 C 7.90625 -7.140625 8.140625 -6.921875 8.4375 -6.921875 C 8.625 -6.921875 8.984375 -7.046875 8.984375 -7.484375 C 8.984375 -7.796875 8.765625 -8.390625 8.03125 -8.390625 C 7.671875 -8.390625 6.84375 -8.28125 6.078125 -7.515625 C 5.296875 -8.125 4.515625 -8.1875 4.109375 -8.1875 C 2.390625 -8.1875 1.109375 -6.90625 1.109375 -5.484375 C 1.109375 -4.671875 1.515625 -3.96875 1.984375 -3.578125 C 1.734375 -3.296875 1.40625 -2.6875 1.40625 -2.03125 C 1.40625 -1.46875 1.640625 -0.765625 2.21875 -0.390625 C 1.109375 -0.078125 0.515625 0.71875 0.515625 1.46875 C 0.515625 2.796875 2.34375 3.8125 4.609375 3.8125 C 6.796875 3.8125 8.71875 2.875 8.71875 1.421875 C 8.71875 0.78125 8.46875 -0.171875 7.515625 -0.6875 C 6.53125 -1.203125 5.46875 -1.203125 4.328125 -1.203125 C 3.875 -1.203125 3.078125 -1.203125 2.9375 -1.21875 C 2.34375 -1.296875 1.96875 -1.875 1.96875 -2.46875 Z M 4.625 3.390625 C 2.765625 3.390625 1.484375 2.4375 1.484375 1.46875 C 1.484375 0.609375 2.1875 -0.078125 3 -0.125 L 4.09375 -0.125 C 5.6875 -0.125 7.765625 -0.125 7.765625 1.46875 C 7.765625 2.46875 6.4375 3.390625 4.625 3.390625 Z M 4.625 3.390625 "/>
</symbol>
<symbol overflow="visible" id="glyph15-0">
<path style="stroke:none;" d=""/>
</symbol>
<symbol overflow="visible" id="glyph15-1">
<path style="stroke:none;" d="M 5.265625 4.203125 C 5.265625 4.1875 5.265625 4.15625 5.21875 4.09375 C 4.421875 3.28125 2.3125 1.078125 2.3125 -4.28125 C 2.3125 -9.65625 4.390625 -11.84375 5.234375 -12.703125 C 5.234375 -12.71875 5.265625 -12.765625 5.265625 -12.8125 C 5.265625 -12.859375 5.21875 -12.890625 5.140625 -12.890625 C 4.953125 -12.890625 3.5 -11.625 2.65625 -9.734375 C 1.796875 -7.8125 1.546875 -5.953125 1.546875 -4.3125 C 1.546875 -3.0625 1.671875 -0.96875 2.703125 1.25 C 3.53125 3.046875 4.9375 4.3125 5.140625 4.3125 C 5.234375 4.3125 5.265625 4.265625 5.265625 4.203125 Z M 5.265625 4.203125 "/>
</symbol>
<symbol overflow="visible" id="glyph16-0">
<path style="stroke:none;" d=""/>
</symbol>
<symbol overflow="visible" id="glyph16-1">
<path style="stroke:none;" d="M 0.734375 2.1875 C 0.625 2.703125 0.546875 2.84375 -0.15625 2.84375 C -0.359375 2.84375 -0.53125 2.84375 -0.53125 3.171875 C -0.53125 3.203125 -0.515625 3.34375 -0.328125 3.34375 C -0.109375 3.34375 0.140625 3.3125 0.359375 3.3125 L 1.109375 3.3125 C 1.46875 3.3125 2.34375 3.34375 2.703125 3.34375 C 2.8125 3.34375 3.015625 3.34375 3.015625 3.03125 C 3.015625 2.84375 2.890625 2.84375 2.59375 2.84375 C 1.8125 2.84375 1.75 2.71875 1.75 2.578125 C 1.75 2.375 2.53125 -0.578125 2.640625 -0.984375 C 2.828125 -0.5 3.28125 0.171875 4.1875 0.171875 C 6.125 0.171875 8.234375 -2.359375 8.234375 -4.890625 C 8.234375 -6.46875 7.328125 -7.59375 6.046875 -7.59375 C 4.9375 -7.59375 4.015625 -6.53125 3.828125 -6.28125 C 3.6875 -7.140625 3.015625 -7.59375 2.328125 -7.59375 C 1.828125 -7.59375 1.421875 -7.359375 1.109375 -6.703125 C 0.796875 -6.078125 0.546875 -5.03125 0.546875 -4.953125 C 0.546875 -4.890625 0.625 -4.796875 0.734375 -4.796875 C 0.875 -4.796875 0.890625 -4.828125 1 -5.21875 C 1.25 -6.234375 1.578125 -7.25 2.265625 -7.25 C 2.671875 -7.25 2.8125 -6.96875 2.8125 -6.453125 C 2.8125 -6.046875 2.75 -5.875 2.6875 -5.5625 Z M 3.71875 -5.375 C 3.84375 -5.859375 4.328125 -6.359375 4.59375 -6.59375 C 4.78125 -6.765625 5.359375 -7.25 6.015625 -7.25 C 6.765625 -7.25 7.109375 -6.484375 7.109375 -5.59375 C 7.109375 -4.765625 6.625 -2.828125 6.203125 -1.921875 C 5.765625 -1 4.96875 -0.171875 4.1875 -0.171875 C 3.015625 -0.171875 2.828125 -1.65625 2.828125 -1.71875 C 2.828125 -1.78125 2.859375 -1.90625 2.875 -2 Z M 3.71875 -5.375 "/>
</symbol>
<symbol overflow="visible" id="glyph17-0">
<path style="stroke:none;" d=""/>
</symbol>
<symbol overflow="visible" id="glyph17-1">
<path style="stroke:none;" d="M 14.359375 -3.953125 C 13.40625 -3.234375 12.953125 -2.53125 12.8125 -2.3125 C 12.03125 -1.125 11.890625 -0.03125 11.890625 -0.015625 C 11.890625 0.1875 12.109375 0.1875 12.25 0.1875 C 12.53125 0.1875 12.546875 0.15625 12.625 -0.15625 C 13.015625 -1.84375 14.03125 -3.28125 15.984375 -4.078125 C 16.1875 -4.15625 16.234375 -4.1875 16.234375 -4.3125 C 16.234375 -4.421875 16.140625 -4.484375 16.09375 -4.5 C 15.34375 -4.78125 13.265625 -5.640625 12.609375 -8.546875 C 12.546875 -8.75 12.53125 -8.796875 12.25 -8.796875 C 12.109375 -8.796875 11.890625 -8.796875 11.890625 -8.59375 C 11.890625 -8.5625 12.046875 -7.46875 12.78125 -6.3125 C 13.125 -5.796875 13.625 -5.203125 14.359375 -4.65625 L 1.5625 -4.65625 C 1.25 -4.65625 0.953125 -4.65625 0.953125 -4.3125 C 0.953125 -3.953125 1.25 -3.953125 1.5625 -3.953125 Z M 14.359375 -3.953125 "/>
</symbol>
<symbol overflow="visible" id="glyph18-0">
<path style="stroke:none;" d=""/>
</symbol>
<symbol overflow="visible" id="glyph18-1">
<path style="stroke:none;" d="M 7.59375 -7.421875 C 7.59375 -7.5 7.53125 -7.578125 7.4375 -7.578125 C 7.296875 -7.578125 6.625 -6.953125 6.296875 -6.359375 C 5.984375 -7.125 5.453125 -7.59375 4.71875 -7.59375 C 2.765625 -7.59375 0.671875 -5.078125 0.671875 -2.53125 C 0.671875 -0.828125 1.671875 0.171875 2.84375 0.171875 C 3.75 0.171875 4.515625 -0.515625 4.875 -0.90625 L 4.890625 -0.890625 L 4.234375 1.6875 L 4.078125 2.3125 C 3.921875 2.828125 3.671875 2.828125 2.859375 2.84375 C 2.671875 2.84375 2.5 2.84375 2.5 3.171875 C 2.5 3.28125 2.59375 3.34375 2.71875 3.34375 C 2.96875 3.34375 3.265625 3.3125 3.515625 3.3125 L 5.265625 3.3125 C 5.53125 3.3125 5.8125 3.34375 6.078125 3.34375 C 6.1875 3.34375 6.390625 3.34375 6.390625 3.015625 C 6.390625 2.84375 6.25 2.84375 5.984375 2.84375 C 5.1875 2.84375 5.125 2.71875 5.125 2.578125 C 5.125 2.5 5.140625 2.484375 5.203125 2.25 Z M 5.171875 -2.046875 C 5.078125 -1.75 5.078125 -1.71875 4.84375 -1.390625 C 4.453125 -0.90625 3.703125 -0.171875 2.890625 -0.171875 C 2.1875 -0.171875 1.796875 -0.8125 1.796875 -1.828125 C 1.796875 -2.765625 2.328125 -4.703125 2.65625 -5.421875 C 3.234375 -6.625 4.046875 -7.25 4.71875 -7.25 C 5.859375 -7.25 6.078125 -5.84375 6.078125 -5.703125 C 6.078125 -5.6875 6.03125 -5.453125 6.015625 -5.421875 Z M 5.171875 -2.046875 "/>
</symbol>
<symbol overflow="visible" id="glyph19-0">
<path style="stroke:none;" d=""/>
</symbol>
<symbol overflow="visible" id="glyph19-1">
<path style="stroke:none;" d="M 4.53125 -4.28125 C 4.53125 -5.53125 4.40625 -7.625 3.375 -9.84375 C 2.546875 -11.640625 1.140625 -12.890625 0.9375 -12.890625 C 0.875 -12.890625 0.8125 -12.875 0.8125 -12.796875 C 0.8125 -12.765625 0.828125 -12.734375 0.84375 -12.703125 C 1.671875 -11.84375 3.765625 -9.65625 3.765625 -4.3125 C 3.765625 1.0625 1.6875 3.25 0.84375 4.109375 C 0.828125 4.15625 0.8125 4.171875 0.8125 4.203125 C 0.8125 4.28125 0.875 4.3125 0.9375 4.3125 C 1.125 4.3125 2.578125 3.03125 3.421875 1.140625 C 4.28125 -0.78125 4.53125 -2.640625 4.53125 -4.28125 Z M 4.53125 -4.28125 "/>
</symbol>
<symbol overflow="visible" id="glyph20-0">
<path style="stroke:none;" d=""/>
</symbol>
<symbol overflow="visible" id="glyph20-1">
<path style="stroke:none;" d="M 14.359375 -3.953125 C 13.40625 -3.234375 12.953125 -2.53125 12.8125 -2.3125 C 12.03125 -1.125 11.890625 -0.03125 11.890625 -0.015625 C 11.890625 0.1875 12.109375 0.1875 12.25 0.1875 C 12.53125 0.1875 12.546875 0.15625 12.625 -0.15625 C 13.015625 -1.84375 14.03125 -3.28125 15.984375 -4.078125 C 16.1875 -4.15625 16.234375 -4.1875 16.234375 -4.3125 C 16.234375 -4.421875 16.140625 -4.484375 16.09375 -4.5 C 15.34375 -4.78125 13.265625 -5.640625 12.609375 -8.546875 C 12.546875 -8.75 12.53125 -8.796875 12.25 -8.796875 C 12.109375 -8.796875 11.890625 -8.796875 11.890625 -8.59375 C 11.890625 -8.5625 12.046875 -7.46875 12.78125 -6.3125 C 13.125 -5.796875 13.625 -5.203125 14.359375 -4.65625 L 1.5625 -4.65625 C 1.25 -4.65625 0.953125 -4.65625 0.953125 -4.3125 C 0.953125 -3.953125 1.25 -3.953125 1.5625 -3.953125 Z M 14.359375 -3.953125 "/>
</symbol>
<symbol overflow="visible" id="glyph21-0">
<path style="stroke:none;" d=""/>
</symbol>
<symbol overflow="visible" id="glyph21-1">
<path style="stroke:none;" d="M 7.59375 -7.421875 C 7.59375 -7.5 7.53125 -7.578125 7.4375 -7.578125 C 7.296875 -7.578125 6.625 -6.953125 6.296875 -6.359375 C 5.984375 -7.125 5.453125 -7.59375 4.71875 -7.59375 C 2.765625 -7.59375 0.671875 -5.078125 0.671875 -2.53125 C 0.671875 -0.828125 1.671875 0.171875 2.84375 0.171875 C 3.75 0.171875 4.515625 -0.515625 4.875 -0.90625 L 4.890625 -0.890625 L 4.234375 1.6875 L 4.078125 2.3125 C 3.921875 2.828125 3.671875 2.828125 2.859375 2.84375 C 2.671875 2.84375 2.5 2.84375 2.5 3.171875 C 2.5 3.28125 2.59375 3.34375 2.71875 3.34375 C 2.96875 3.34375 3.265625 3.3125 3.515625 3.3125 L 5.265625 3.3125 C 5.53125 3.3125 5.8125 3.34375 6.078125 3.34375 C 6.1875 3.34375 6.390625 3.34375 6.390625 3.015625 C 6.390625 2.84375 6.25 2.84375 5.984375 2.84375 C 5.1875 2.84375 5.125 2.71875 5.125 2.578125 C 5.125 2.5 5.140625 2.484375 5.203125 2.25 Z M 5.171875 -2.046875 C 5.078125 -1.75 5.078125 -1.71875 4.84375 -1.390625 C 4.453125 -0.90625 3.703125 -0.171875 2.890625 -0.171875 C 2.1875 -0.171875 1.796875 -0.8125 1.796875 -1.828125 C 1.796875 -2.765625 2.328125 -4.703125 2.65625 -5.421875 C 3.234375 -6.625 4.046875 -7.25 4.71875 -7.25 C 5.859375 -7.25 6.078125 -5.84375 6.078125 -5.703125 C 6.078125 -5.6875 6.03125 -5.453125 6.015625 -5.421875 Z M 5.171875 -2.046875 "/>
</symbol>
<symbol overflow="visible" id="glyph22-0">
<path style="stroke:none;" d=""/>
</symbol>
<symbol overflow="visible" id="glyph22-1">
<path style="stroke:none;" d="M 4.109375 -3.1875 C 2.5 -3.1875 2.5 -5.03125 2.5 -5.46875 C 2.5 -5.96875 2.515625 -6.546875 2.796875 -7.015625 C 2.9375 -7.234375 3.375 -7.765625 4.109375 -7.765625 C 5.71875 -7.765625 5.71875 -5.90625 5.71875 -5.484375 C 5.71875 -4.984375 5.703125 -4.390625 5.421875 -3.921875 C 5.28125 -3.703125 4.84375 -3.1875 4.109375 -3.1875 Z M 1.96875 -2.46875 C 1.96875 -2.53125 1.96875 -2.96875 2.28125 -3.328125 C 3 -2.8125 3.765625 -2.765625 4.109375 -2.765625 C 5.828125 -2.765625 7.109375 -4.03125 7.109375 -5.46875 C 7.109375 -6.140625 6.8125 -6.828125 6.34375 -7.265625 C 7.015625 -7.890625 7.6875 -7.984375 8.015625 -7.984375 C 8.046875 -7.984375 8.140625 -7.984375 8.203125 -7.96875 C 8 -7.890625 7.90625 -7.6875 7.90625 -7.46875 C 7.90625 -7.140625 8.140625 -6.921875 8.4375 -6.921875 C 8.625 -6.921875 8.984375 -7.046875 8.984375 -7.484375 C 8.984375 -7.796875 8.765625 -8.390625 8.03125 -8.390625 C 7.671875 -8.390625 6.84375 -8.28125 6.078125 -7.515625 C 5.296875 -8.125 4.515625 -8.1875 4.109375 -8.1875 C 2.390625 -8.1875 1.109375 -6.90625 1.109375 -5.484375 C 1.109375 -4.671875 1.515625 -3.96875 1.984375 -3.578125 C 1.734375 -3.296875 1.40625 -2.6875 1.40625 -2.03125 C 1.40625 -1.46875 1.640625 -0.765625 2.21875 -0.390625 C 1.109375 -0.078125 0.515625 0.71875 0.515625 1.46875 C 0.515625 2.796875 2.34375 3.8125 4.609375 3.8125 C 6.796875 3.8125 8.71875 2.875 8.71875 1.421875 C 8.71875 0.78125 8.46875 -0.171875 7.515625 -0.6875 C 6.53125 -1.203125 5.46875 -1.203125 4.328125 -1.203125 C 3.875 -1.203125 3.078125 -1.203125 2.9375 -1.21875 C 2.34375 -1.296875 1.96875 -1.875 1.96875 -2.46875 Z M 4.625 3.390625 C 2.765625 3.390625 1.484375 2.4375 1.484375 1.46875 C 1.484375 0.609375 2.1875 -0.078125 3 -0.125 L 4.09375 -0.125 C 5.6875 -0.125 7.765625 -0.125 7.765625 1.46875 C 7.765625 2.46875 6.4375 3.390625 4.625 3.390625 Z M 4.625 3.390625 "/>
</symbol>
<symbol overflow="visible" id="glyph22-2">
<path style="stroke:none;" d="M 3.765625 -11.46875 C 3.765625 -11.90625 3.390625 -12.390625 2.828125 -12.390625 C 2.3125 -12.390625 1.90625 -11.984375 1.90625 -11.46875 C 1.90625 -10.9375 2.3125 -10.53125 2.828125 -10.53125 C 3.390625 -10.53125 3.765625 -11.015625 3.765625 -11.46875 Z M 7.328125 -11.46875 C 7.328125 -11.984375 6.921875 -12.390625 6.40625 -12.390625 C 5.84375 -12.390625 5.484375 -11.90625 5.484375 -11.46875 C 5.484375 -11.015625 5.84375 -10.53125 6.40625 -10.53125 C 6.921875 -10.53125 7.328125 -10.9375 7.328125 -11.46875 Z M 7.328125 -11.46875 "/>
</symbol>
<symbol overflow="visible" id="glyph22-3">
<path style="stroke:none;" d="M 7.234375 -1.46875 L 7.234375 0.203125 L 9.90625 0 L 9.90625 -0.578125 C 8.609375 -0.578125 8.46875 -0.703125 8.46875 -1.609375 L 8.46875 -8.1875 L 5.734375 -7.984375 L 5.734375 -7.40625 C 7.03125 -7.40625 7.1875 -7.28125 7.1875 -6.375 L 7.1875 -3.078125 C 7.1875 -1.46875 6.296875 -0.203125 4.9375 -0.203125 C 3.390625 -0.203125 3.3125 -1.078125 3.3125 -2.03125 L 3.3125 -8.1875 L 0.59375 -7.984375 L 0.59375 -7.40625 C 2.03125 -7.40625 2.03125 -7.34375 2.03125 -5.703125 L 2.03125 -2.921875 C 2.03125 -1.484375 2.03125 0.203125 4.84375 0.203125 C 5.890625 0.203125 6.703125 -0.3125 7.234375 -1.46875 Z M 7.234375 -1.46875 "/>
</symbol>
<symbol overflow="visible" id="glyph22-4">
<path style="stroke:none;" d="M 3.28125 -12.84375 L 0.609375 -12.640625 L 0.609375 -12.078125 C 1.90625 -12.078125 2.0625 -11.9375 2.0625 -11.03125 L 2.0625 -1.40625 C 2.0625 -0.578125 1.84375 -0.578125 0.609375 -0.578125 L 0.609375 0 C 1.21875 -0.015625 2.203125 -0.0625 2.671875 -0.0625 C 3.125 -0.0625 4.03125 -0.015625 4.71875 0 L 4.71875 -0.578125 C 3.484375 -0.578125 3.28125 -0.578125 3.28125 -1.40625 Z M 3.28125 -12.84375 "/>
</symbol>
<symbol overflow="visible" id="glyph22-5">
<path style="stroke:none;" d="M 3.203125 -7.40625 L 5.84375 -7.40625 L 5.84375 -7.984375 L 3.203125 -7.984375 L 3.203125 -11.390625 L 2.734375 -11.390625 C 2.71875 -9.875 2.171875 -7.890625 0.359375 -7.8125 L 0.359375 -7.40625 L 1.921875 -7.40625 L 1.921875 -2.296875 C 1.921875 -0.015625 3.640625 0.203125 4.3125 0.203125 C 5.625 0.203125 6.140625 -1.109375 6.140625 -2.296875 L 6.140625 -3.34375 L 5.6875 -3.34375 L 5.6875 -2.328125 C 5.6875 -0.96875 5.125 -0.265625 4.4375 -0.265625 C 3.203125 -0.265625 3.203125 -1.9375 3.203125 -2.265625 Z M 3.203125 -7.40625 "/>
</symbol>
<symbol overflow="visible" id="glyph22-6">
<path style="stroke:none;" d="M 3.28125 -8.1875 L 0.6875 -7.984375 L 0.6875 -7.40625 C 1.890625 -7.40625 2.0625 -7.296875 2.0625 -6.390625 L 2.0625 -1.40625 C 2.0625 -0.578125 1.84375 -0.578125 0.609375 -0.578125 L 0.609375 0 C 1.203125 -0.015625 2.203125 -0.0625 2.640625 -0.0625 C 3.296875 -0.0625 3.9375 -0.015625 4.578125 0 L 4.578125 -0.578125 C 3.34375 -0.578125 3.28125 -0.671875 3.28125 -1.390625 Z M 3.34375 -11.40625 C 3.34375 -12 2.890625 -12.390625 2.375 -12.390625 C 1.796875 -12.390625 1.390625 -11.890625 1.390625 -11.40625 C 1.390625 -10.90625 1.796875 -10.421875 2.375 -10.421875 C 2.890625 -10.421875 3.34375 -10.8125 3.34375 -11.40625 Z M 3.34375 -11.40625 "/>
</symbol>
<symbol overflow="visible" id="glyph22-7">
<path style="stroke:none;" d="M 2.03125 -6.375 L 2.03125 -1.40625 C 2.03125 -0.578125 1.828125 -0.578125 0.59375 -0.578125 L 0.59375 0 C 1.234375 -0.015625 2.1875 -0.0625 2.6875 -0.0625 C 3.171875 -0.0625 4.125 -0.015625 4.765625 0 L 4.765625 -0.578125 C 3.515625 -0.578125 3.3125 -0.578125 3.3125 -1.40625 L 3.3125 -4.8125 C 3.3125 -6.734375 4.625 -7.78125 5.8125 -7.78125 C 6.984375 -7.78125 7.1875 -6.78125 7.1875 -5.71875 L 7.1875 -1.40625 C 7.1875 -0.578125 6.984375 -0.578125 5.734375 -0.578125 L 5.734375 0 C 6.390625 -0.015625 7.328125 -0.0625 7.828125 -0.0625 C 8.3125 -0.0625 9.28125 -0.015625 9.90625 0 L 9.90625 -0.578125 C 8.9375 -0.578125 8.484375 -0.578125 8.46875 -1.125 L 8.46875 -4.671875 C 8.46875 -6.265625 8.46875 -6.828125 7.890625 -7.5 C 7.625 -7.8125 7.015625 -8.1875 5.9375 -8.1875 C 4.59375 -8.1875 3.71875 -7.390625 3.203125 -6.234375 L 3.203125 -8.1875 L 0.59375 -7.984375 L 0.59375 -7.40625 C 1.890625 -7.40625 2.03125 -7.28125 2.03125 -6.375 Z M 2.03125 -6.375 "/>
</symbol>
<symbol overflow="visible" id="glyph22-8">
<path style="stroke:none;" d="M 2.078125 -4.671875 C 2.1875 -7.421875 3.734375 -7.890625 4.375 -7.890625 C 6.28125 -7.890625 6.46875 -5.390625 6.46875 -4.671875 Z M 2.0625 -4.28125 L 7.21875 -4.28125 C 7.625 -4.28125 7.6875 -4.28125 7.6875 -4.671875 C 7.6875 -6.5 6.6875 -8.296875 4.375 -8.296875 C 2.21875 -8.296875 0.515625 -6.390625 0.515625 -4.078125 C 0.515625 -1.59375 2.46875 0.203125 4.59375 0.203125 C 6.84375 0.203125 7.6875 -1.84375 7.6875 -2.203125 C 7.6875 -2.390625 7.53125 -2.421875 7.4375 -2.421875 C 7.28125 -2.421875 7.234375 -2.3125 7.203125 -2.171875 C 6.546875 -0.265625 4.890625 -0.265625 4.703125 -0.265625 C 3.78125 -0.265625 3.03125 -0.8125 2.609375 -1.5 C 2.0625 -2.390625 2.0625 -3.609375 2.0625 -4.28125 Z M 2.0625 -4.28125 "/>
</symbol>
<symbol overflow="visible" id="glyph22-9">
<path style="stroke:none;" d="M 3.09375 -6.140625 L 3.09375 -8.1875 L 0.515625 -7.984375 L 0.515625 -7.40625 C 1.8125 -7.40625 1.96875 -7.28125 1.96875 -6.375 L 1.96875 -1.40625 C 1.96875 -0.578125 1.765625 -0.578125 0.515625 -0.578125 L 0.515625 0 C 1.234375 -0.015625 2.109375 -0.0625 2.625 -0.0625 C 3.375 -0.0625 4.234375 -0.0625 4.984375 0 L 4.984375 -0.578125 L 4.59375 -0.578125 C 3.21875 -0.578125 3.1875 -0.78125 3.1875 -1.4375 L 3.1875 -4.296875 C 3.1875 -6.125 3.96875 -7.78125 5.375 -7.78125 C 5.5 -7.78125 5.53125 -7.78125 5.578125 -7.765625 C 5.515625 -7.734375 5.140625 -7.515625 5.140625 -7.03125 C 5.140625 -6.515625 5.53125 -6.234375 5.9375 -6.234375 C 6.28125 -6.234375 6.734375 -6.46875 6.734375 -7.046875 C 6.734375 -7.640625 6.171875 -8.1875 5.375 -8.1875 C 4.015625 -8.1875 3.34375 -6.9375 3.09375 -6.140625 Z M 3.09375 -6.140625 "/>
</symbol>
<symbol overflow="visible" id="glyph22-10">
<path style="stroke:none;" d="M 3.234375 -7.984375 L 3.234375 -10.125 C 3.234375 -11.75 4.125 -12.640625 4.9375 -12.640625 C 5 -12.640625 5.28125 -12.640625 5.546875 -12.515625 C 5.328125 -12.4375 5 -12.203125 5 -11.734375 C 5 -11.3125 5.296875 -10.9375 5.796875 -10.9375 C 6.328125 -10.9375 6.609375 -11.3125 6.609375 -11.75 C 6.609375 -12.4375 5.921875 -13.046875 4.9375 -13.046875 C 3.640625 -13.046875 2.078125 -12.078125 2.078125 -10.109375 L 2.078125 -7.984375 L 0.609375 -7.984375 L 0.609375 -7.40625 L 2.078125 -7.40625 L 2.078125 -1.40625 C 2.078125 -0.578125 1.875 -0.578125 0.625 -0.578125 L 0.625 0 C 1.359375 -0.015625 2.21875 -0.0625 2.734375 -0.0625 C 3.484375 -0.0625 4.34375 -0.0625 5.09375 0 L 5.09375 -0.578125 L 4.703125 -0.578125 C 3.328125 -0.578125 3.296875 -0.78125 3.296875 -1.4375 L 3.296875 -7.40625 L 5.40625 -7.40625 L 5.40625 -7.984375 Z M 3.234375 -7.984375 "/>
</symbol>
<symbol overflow="visible" id="glyph22-11">
<path style="stroke:none;" d="M 3.1875 -6.984375 L 3.1875 -12.84375 L 0.515625 -12.640625 L 0.515625 -12.078125 C 1.8125 -12.078125 1.96875 -11.9375 1.96875 -11.03125 L 1.96875 0 L 2.421875 0 C 2.4375 -0.015625 2.59375 -0.28125 3.09375 -1.140625 C 3.375 -0.71875 4.140625 0.203125 5.515625 0.203125 C 7.71875 0.203125 9.640625 -1.609375 9.640625 -4 C 9.640625 -6.34375 7.828125 -8.1875 5.71875 -8.1875 C 4.28125 -8.1875 3.484375 -7.3125 3.1875 -6.984375 Z M 3.234375 -2.109375 L 3.234375 -5.921875 C 3.234375 -6.28125 3.234375 -6.296875 3.4375 -6.59375 C 4.171875 -7.625 5.1875 -7.78125 5.625 -7.78125 C 6.46875 -7.78125 7.125 -7.296875 7.578125 -6.59375 C 8.046875 -5.828125 8.109375 -4.78125 8.109375 -4.015625 C 8.109375 -3.328125 8.078125 -2.21875 7.53125 -1.390625 C 7.140625 -0.8125 6.4375 -0.203125 5.4375 -0.203125 C 4.609375 -0.203125 3.9375 -0.640625 3.5 -1.328125 C 3.234375 -1.71875 3.234375 -1.78125 3.234375 -2.109375 Z M 3.234375 -2.109375 "/>
</symbol>
<symbol overflow="visible" id="glyph22-12">
<path style="stroke:none;" d="M 6.171875 -1.40625 C 6.234375 -0.671875 6.734375 0.109375 7.609375 0.109375 C 8 0.109375 9.125 -0.140625 9.125 -1.640625 L 9.125 -2.6875 L 8.671875 -2.6875 L 8.671875 -1.640625 C 8.671875 -0.578125 8.203125 -0.46875 8 -0.46875 C 7.390625 -0.46875 7.3125 -1.296875 7.3125 -1.390625 L 7.3125 -5.09375 C 7.3125 -5.875 7.3125 -6.59375 6.640625 -7.28125 C 5.921875 -8 5 -8.296875 4.109375 -8.296875 C 2.59375 -8.296875 1.3125 -7.421875 1.3125 -6.203125 C 1.3125 -5.640625 1.6875 -5.328125 2.171875 -5.328125 C 2.6875 -5.328125 3.015625 -5.703125 3.015625 -6.1875 C 3.015625 -6.40625 2.921875 -7.015625 2.078125 -7.03125 C 2.578125 -7.6875 3.484375 -7.890625 4.078125 -7.890625 C 4.984375 -7.890625 6.03125 -7.171875 6.03125 -5.515625 L 6.03125 -4.828125 C 5.09375 -4.78125 3.796875 -4.71875 2.625 -4.171875 C 1.234375 -3.53125 0.78125 -2.578125 0.78125 -1.765625 C 0.78125 -0.265625 2.578125 0.203125 3.734375 0.203125 C 4.96875 0.203125 5.8125 -0.53125 6.171875 -1.40625 Z M 6.03125 -4.4375 L 6.03125 -2.59375 C 6.03125 -0.828125 4.703125 -0.203125 3.875 -0.203125 C 2.96875 -0.203125 2.203125 -0.859375 2.203125 -1.78125 C 2.203125 -2.796875 2.984375 -4.328125 6.03125 -4.4375 Z M 6.03125 -4.4375 "/>
</symbol>
<symbol overflow="visible" id="glyph23-0">
<path style="stroke:none;" d=""/>
</symbol>
<symbol overflow="visible" id="glyph23-1">
<path style="stroke:none;" d="M 7.59375 -7.421875 C 7.59375 -7.5 7.53125 -7.578125 7.4375 -7.578125 C 7.296875 -7.578125 6.625 -6.953125 6.296875 -6.359375 C 5.984375 -7.125 5.453125 -7.59375 4.71875 -7.59375 C 2.765625 -7.59375 0.671875 -5.078125 0.671875 -2.53125 C 0.671875 -0.828125 1.671875 0.171875 2.84375 0.171875 C 3.75 0.171875 4.515625 -0.515625 4.875 -0.90625 L 4.890625 -0.890625 L 4.234375 1.6875 L 4.078125 2.3125 C 3.921875 2.828125 3.671875 2.828125 2.859375 2.84375 C 2.671875 2.84375 2.5 2.84375 2.5 3.171875 C 2.5 3.28125 2.59375 3.34375 2.71875 3.34375 C 2.96875 3.34375 3.265625 3.3125 3.515625 3.3125 L 5.265625 3.3125 C 5.53125 3.3125 5.8125 3.34375 6.078125 3.34375 C 6.1875 3.34375 6.390625 3.34375 6.390625 3.015625 C 6.390625 2.84375 6.25 2.84375 5.984375 2.84375 C 5.1875 2.84375 5.125 2.71875 5.125 2.578125 C 5.125 2.5 5.140625 2.484375 5.203125 2.25 Z M 5.171875 -2.046875 C 5.078125 -1.75 5.078125 -1.71875 4.84375 -1.390625 C 4.453125 -0.90625 3.703125 -0.171875 2.890625 -0.171875 C 2.1875 -0.171875 1.796875 -0.8125 1.796875 -1.828125 C 1.796875 -2.765625 2.328125 -4.703125 2.65625 -5.421875 C 3.234375 -6.625 4.046875 -7.25 4.71875 -7.25 C 5.859375 -7.25 6.078125 -5.84375 6.078125 -5.703125 C 6.078125 -5.6875 6.03125 -5.453125 6.015625 -5.421875 Z M 5.171875 -2.046875 "/>
</symbol>
<symbol overflow="visible" id="glyph24-0">
<path style="stroke:none;" d=""/>
</symbol>
<symbol overflow="visible" id="glyph24-1">
<path style="stroke:none;" d="M 4.53125 -4.28125 C 4.53125 -5.53125 4.40625 -7.625 3.375 -9.84375 C 2.546875 -11.640625 1.140625 -12.890625 0.9375 -12.890625 C 0.875 -12.890625 0.8125 -12.875 0.8125 -12.796875 C 0.8125 -12.765625 0.828125 -12.734375 0.84375 -12.703125 C 1.671875 -11.84375 3.765625 -9.65625 3.765625 -4.3125 C 3.765625 1.0625 1.6875 3.25 0.84375 4.109375 C 0.828125 4.15625 0.8125 4.171875 0.8125 4.203125 C 0.8125 4.28125 0.875 4.3125 0.9375 4.3125 C 1.125 4.3125 2.578125 3.03125 3.421875 1.140625 C 4.28125 -0.78125 4.53125 -2.640625 4.53125 -4.28125 Z M 4.53125 -4.28125 "/>
</symbol>
<symbol overflow="visible" id="glyph25-0">
<path style="stroke:none;" d=""/>
</symbol>
<symbol overflow="visible" id="glyph25-1">
<path style="stroke:none;" d="M 6.125 -9.9375 C 5.984375 -10.234375 5.890625 -10.296875 5.734375 -10.296875 C 5.515625 -10.296875 5.453125 -10.171875 5.359375 -9.9375 L 1.0625 -0.3125 C 0.96875 -0.09375 0.953125 -0.046875 0.953125 0.03125 C 0.953125 0.21875 1.109375 0.375 1.296875 0.375 C 1.40625 0.375 1.546875 0.34375 1.6875 0.015625 L 5.734375 -9.109375 L 9.78125 0.015625 C 9.9375 0.375 10.109375 0.375 10.171875 0.375 C 10.359375 0.375 10.515625 0.21875 10.515625 0.03125 C 10.515625 0 10.515625 -0.03125 10.421875 -0.234375 Z M 6.125 -9.9375 "/>
</symbol>
<symbol overflow="visible" id="glyph25-2">
<path style="stroke:none;" d="M 10.515625 -5.515625 C 10.515625 -6.078125 10.46875 -6.125 9.921875 -6.125 L 1.546875 -6.125 C 1.25 -6.125 0.953125 -6.125 0.953125 -5.78125 C 0.953125 -5.4375 1.25 -5.4375 1.546875 -5.4375 L 9.828125 -5.4375 L 9.828125 -2.15625 C 9.828125 -1.84375 9.828125 -1.53125 10.171875 -1.53125 C 10.515625 -1.53125 10.515625 -1.84375 10.515625 -2.15625 Z M 10.515625 -5.515625 "/>
</symbol>
<symbol overflow="visible" id="glyph26-0">
<path style="stroke:none;" d=""/>
</symbol>
<symbol overflow="visible" id="glyph26-1">
<path style="stroke:none;" d="M 0.734375 2.1875 C 0.625 2.703125 0.546875 2.84375 -0.15625 2.84375 C -0.359375 2.84375 -0.53125 2.84375 -0.53125 3.171875 C -0.53125 3.203125 -0.515625 3.34375 -0.328125 3.34375 C -0.109375 3.34375 0.140625 3.3125 0.359375 3.3125 L 1.109375 3.3125 C 1.46875 3.3125 2.34375 3.34375 2.703125 3.34375 C 2.8125 3.34375 3.015625 3.34375 3.015625 3.03125 C 3.015625 2.84375 2.890625 2.84375 2.59375 2.84375 C 1.8125 2.84375 1.75 2.71875 1.75 2.578125 C 1.75 2.375 2.53125 -0.578125 2.640625 -0.984375 C 2.828125 -0.5 3.28125 0.171875 4.1875 0.171875 C 6.125 0.171875 8.234375 -2.359375 8.234375 -4.890625 C 8.234375 -6.46875 7.328125 -7.59375 6.046875 -7.59375 C 4.9375 -7.59375 4.015625 -6.53125 3.828125 -6.28125 C 3.6875 -7.140625 3.015625 -7.59375 2.328125 -7.59375 C 1.828125 -7.59375 1.421875 -7.359375 1.109375 -6.703125 C 0.796875 -6.078125 0.546875 -5.03125 0.546875 -4.953125 C 0.546875 -4.890625 0.625 -4.796875 0.734375 -4.796875 C 0.875 -4.796875 0.890625 -4.828125 1 -5.21875 C 1.25 -6.234375 1.578125 -7.25 2.265625 -7.25 C 2.671875 -7.25 2.8125 -6.96875 2.8125 -6.453125 C 2.8125 -6.046875 2.75 -5.875 2.6875 -5.5625 Z M 3.71875 -5.375 C 3.84375 -5.859375 4.328125 -6.359375 4.59375 -6.59375 C 4.78125 -6.765625 5.359375 -7.25 6.015625 -7.25 C 6.765625 -7.25 7.109375 -6.484375 7.109375 -5.59375 C 7.109375 -4.765625 6.625 -2.828125 6.203125 -1.921875 C 5.765625 -1 4.96875 -0.171875 4.1875 -0.171875 C 3.015625 -0.171875 2.828125 -1.65625 2.828125 -1.71875 C 2.828125 -1.78125 2.859375 -1.90625 2.875 -2 Z M 3.71875 -5.375 "/>
</symbol>
<symbol overflow="visible" id="glyph27-0">
<path style="stroke:none;" d=""/>
</symbol>
<symbol overflow="visible" id="glyph27-1">
<path style="stroke:none;" d="M 6.125 -9.9375 C 5.984375 -10.234375 5.890625 -10.296875 5.734375 -10.296875 C 5.515625 -10.296875 5.453125 -10.171875 5.359375 -9.9375 L 1.0625 -0.3125 C 0.96875 -0.09375 0.953125 -0.046875 0.953125 0.03125 C 0.953125 0.21875 1.109375 0.375 1.296875 0.375 C 1.40625 0.375 1.546875 0.34375 1.6875 0.015625 L 5.734375 -9.109375 L 9.78125 0.015625 C 9.9375 0.375 10.109375 0.375 10.171875 0.375 C 10.359375 0.375 10.515625 0.21875 10.515625 0.03125 C 10.515625 0 10.515625 -0.03125 10.421875 -0.234375 Z M 6.125 -9.9375 "/>
</symbol>
<symbol overflow="visible" id="glyph28-0">
<path style="stroke:none;" d=""/>
</symbol>
<symbol overflow="visible" id="glyph28-1">
<path style="stroke:none;" d="M 7.59375 -7.421875 C 7.59375 -7.5 7.53125 -7.578125 7.4375 -7.578125 C 7.296875 -7.578125 6.625 -6.953125 6.296875 -6.359375 C 5.984375 -7.125 5.453125 -7.59375 4.71875 -7.59375 C 2.765625 -7.59375 0.671875 -5.078125 0.671875 -2.53125 C 0.671875 -0.828125 1.671875 0.171875 2.84375 0.171875 C 3.75 0.171875 4.515625 -0.515625 4.875 -0.90625 L 4.890625 -0.890625 L 4.234375 1.6875 L 4.078125 2.3125 C 3.921875 2.828125 3.671875 2.828125 2.859375 2.84375 C 2.671875 2.84375 2.5 2.84375 2.5 3.171875 C 2.5 3.28125 2.59375 3.34375 2.71875 3.34375 C 2.96875 3.34375 3.265625 3.3125 3.515625 3.3125 L 5.265625 3.3125 C 5.53125 3.3125 5.8125 3.34375 6.078125 3.34375 C 6.1875 3.34375 6.390625 3.34375 6.390625 3.015625 C 6.390625 2.84375 6.25 2.84375 5.984375 2.84375 C 5.1875 2.84375 5.125 2.71875 5.125 2.578125 C 5.125 2.5 5.140625 2.484375 5.203125 2.25 Z M 5.171875 -2.046875 C 5.078125 -1.75 5.078125 -1.71875 4.84375 -1.390625 C 4.453125 -0.90625 3.703125 -0.171875 2.890625 -0.171875 C 2.1875 -0.171875 1.796875 -0.8125 1.796875 -1.828125 C 1.796875 -2.765625 2.328125 -4.703125 2.65625 -5.421875 C 3.234375 -6.625 4.046875 -7.25 4.71875 -7.25 C 5.859375 -7.25 6.078125 -5.84375 6.078125 -5.703125 C 6.078125 -5.6875 6.03125 -5.453125 6.015625 -5.421875 Z M 5.171875 -2.046875 "/>
</symbol>
</g>
</defs>
<g id="surface23481">
<path style="fill:none;stroke-width:0.4;stroke-linecap:round;stroke-linejoin:round;stroke:rgb(0%,0%,0%);stroke-opacity:1;stroke-miterlimit:10;" d="M 32 384 L 208 384 " transform="matrix(1,0,0,-1,-31,417)"/>
<path style="fill:none;stroke-width:0.4;stroke-linecap:round;stroke-linejoin:round;stroke:rgb(0%,0%,0%);stroke-opacity:1;stroke-miterlimit:10;" d="M 128 416 L 128 128 " transform="matrix(1,0,0,-1,-31,417)"/>
<g style="fill:rgb(0%,0%,0%);fill-opacity:1;">
  <use xlink:href="#glyph0-1" x="11.963525" y="18.838574"/>
</g>
<g style="fill:rgb(0%,0%,0%);fill-opacity:1;">
  <use xlink:href="#glyph0-2" x="43.9635" y="18.8386"/>
</g>
<g style="fill:rgb(0%,0%,0%);fill-opacity:1;">
  <use xlink:href="#glyph0-3" x="75.9635" y="18.8386"/>
</g>
<g style="fill:rgb(0%,0%,0%);fill-opacity:1;">
  <use xlink:href="#glyph1-1" x="113" y="17.001"/>
</g>
<g style="fill:rgb(0%,0%,0%);fill-opacity:1;">
  <use xlink:href="#glyph2-1" x="119.097" y="17.001"/>
</g>
<g style="fill:rgb(0%,0%,0%);fill-opacity:1;">
  <use xlink:href="#glyph3-1" x="131.382" y="17.001"/>
</g>
<g style="fill:rgb(0%,0%,0%);fill-opacity:1;">
  <use xlink:href="#glyph4-1" x="146.685" y="17.001"/>
</g>
<g style="fill:rgb(0%,0%,0%);fill-opacity:1;">
  <use xlink:href="#glyph5-1" x="154.777" y="17.001"/>
</g>
<g style="fill:rgb(0%,0%,0%);fill-opacity:1;">
  <use xlink:href="#glyph6-1" x="164.699" y="17.001"/>
</g>
<g style="fill:rgb(0%,0%,0%);fill-opacity:1;">
  <use xlink:href="#glyph7-1" x="180.001" y="17.001"/>
</g>
<g style="fill:rgb(0%,0%,0%);fill-opacity:1;">
  <use xlink:href="#glyph8-1" x="186.098" y="17.001"/>
</g>
<g style="fill:rgb(0%,0%,0%);fill-opacity:1;">
  <use xlink:href="#glyph9-1" x="197.575" y="17.001"/>
</g>
<g style="fill:rgb(0%,0%,0%);fill-opacity:1;">
  <use xlink:href="#glyph10-1" x="209.861" y="17.001"/>
</g>
<g style="fill:rgb(0%,0%,0%);fill-opacity:1;">
  <use xlink:href="#glyph11-1" x="225.163" y="17.001"/>
</g>
<g style="fill:rgb(0%,0%,0%);fill-opacity:1;">
  <use xlink:href="#glyph12-1" x="233.228" y="17.001"/>
</g>
<g style="fill:rgb(0%,0%,0%);fill-opacity:1;">
  <use xlink:href="#glyph13-1" x="12.905687" y="55.824342"/>
</g>
<g style="fill:rgb(0%,0%,0%);fill-opacity:1;">
  <use xlink:href="#glyph13-1" x="44.9057" y="55.824"/>
</g>
<g style="fill:rgb(0%,0%,0%);fill-opacity:1;">
  <use xlink:href="#glyph13-1" x="76.9057" y="55.824"/>
</g>
<g style="fill:rgb(0%,0%,0%);fill-opacity:1;">
  <use xlink:href="#glyph13-1" x="12.9057" y="87.824"/>
</g>
<g style="fill:rgb(0%,0%,0%);fill-opacity:1;">
  <use xlink:href="#glyph13-1" x="44.9057" y="87.824"/>
</g>
<g style="fill:rgb(0%,0%,0%);fill-opacity:1;">
  <use xlink:href="#glyph13-2" x="76.9057" y="87.824"/>
</g>
<g style="fill:rgb(0%,0%,0%);fill-opacity:1;">
  <use xlink:href="#glyph13-1" x="12.9057" y="119.824"/>
</g>
<g style="fill:rgb(0%,0%,0%);fill-opacity:1;">
  <use xlink:href="#glyph13-2" x="44.9057" y="119.824"/>
</g>
<g style="fill:rgb(0%,0%,0%);fill-opacity:1;">
  <use xlink:href="#glyph13-1" x="12.9057" y="151.824"/>
</g>
<g style="fill:rgb(0%,0%,0%);fill-opacity:1;">
  <use xlink:href="#glyph13-2" x="44.9057" y="151.824"/>
</g>
<g style="fill:rgb(0%,0%,0%);fill-opacity:1;">
  <use xlink:href="#glyph13-1" x="76.9057" y="119.824"/>
</g>
<g style="fill:rgb(0%,0%,0%);fill-opacity:1;">
  <use xlink:href="#glyph13-2" x="76.9057" y="151.824"/>
</g>
<g style="fill:rgb(0%,0%,0%);fill-opacity:1;">
  <use xlink:href="#glyph13-1" x="44.9057" y="183.824"/>
</g>
<g style="fill:rgb(0%,0%,0%);fill-opacity:1;">
  <use xlink:href="#glyph13-1" x="76.9057" y="183.824"/>
</g>
<g style="fill:rgb(0%,0%,0%);fill-opacity:1;">
  <use xlink:href="#glyph13-1" x="44.9057" y="215.824"/>
</g>
<g style="fill:rgb(0%,0%,0%);fill-opacity:1;">
  <use xlink:href="#glyph13-2" x="76.9057" y="215.824"/>
</g>
<g style="fill:rgb(0%,0%,0%);fill-opacity:1;">
  <use xlink:href="#glyph13-2" x="44.9057" y="247.824"/>
</g>
<g style="fill:rgb(0%,0%,0%);fill-opacity:1;">
  <use xlink:href="#glyph13-2" x="44.9057" y="279.824"/>
</g>
<g style="fill:rgb(0%,0%,0%);fill-opacity:1;">
  <use xlink:href="#glyph13-1" x="76.9057" y="247.824"/>
</g>
<g style="fill:rgb(0%,0%,0%);fill-opacity:1;">
  <use xlink:href="#glyph13-2" x="76.9057" y="279.824"/>
</g>
<g style="fill:rgb(0%,0%,0%);fill-opacity:1;">
  <use xlink:href="#glyph13-2" x="12.9057" y="183.824"/>
</g>
<g style="fill:rgb(0%,0%,0%);fill-opacity:1;">
  <use xlink:href="#glyph13-2" x="12.9057" y="215.824"/>
</g>
<g style="fill:rgb(0%,0%,0%);fill-opacity:1;">
  <use xlink:href="#glyph13-2" x="12.9057" y="247.824"/>
</g>
<g style="fill:rgb(0%,0%,0%);fill-opacity:1;">
  <use xlink:href="#glyph13-2" x="12.9057" y="279.824"/>
</g>
<path style="fill:none;stroke-width:0.4;stroke-linecap:round;stroke-linejoin:round;stroke:rgb(0%,0%,0%);stroke-opacity:1;stroke-dasharray:4;stroke-miterlimit:10;" d="M 32 256 L 208 256 " transform="matrix(1,0,0,-1,-31,417)"/>
<path style="fill:none;stroke-width:0.4;stroke-linecap:round;stroke-linejoin:round;stroke:rgb(0%,0%,0%);stroke-opacity:1;stroke-dasharray:1,3;stroke-miterlimit:10;" d="M 32 320 L 208 320 " transform="matrix(1,0,0,-1,-31,417)"/>
<path style="fill:none;stroke-width:0.4;stroke-linecap:round;stroke-linejoin:round;stroke:rgb(0%,0%,0%);stroke-opacity:1;stroke-dasharray:1,3;stroke-miterlimit:10;" d="M 32 192 L 208 192 " transform="matrix(1,0,0,-1,-31,417)"/>
<g style="fill:rgb(0%,0%,0%);fill-opacity:1;">
  <use xlink:href="#glyph13-1" x="124.9057" y="55.824"/>
</g>
<g style="fill:rgb(0%,0%,0%);fill-opacity:1;">
  <use xlink:href="#glyph13-2" x="124.9057" y="87.824"/>
</g>
<g style="fill:rgb(0%,0%,0%);fill-opacity:1;">
  <use xlink:href="#glyph13-1" x="124.9057" y="119.824"/>
</g>
<g style="fill:rgb(0%,0%,0%);fill-opacity:1;">
  <use xlink:href="#glyph13-2" x="124.9057" y="151.824"/>
</g>
<g style="fill:rgb(0%,0%,0%);fill-opacity:1;">
  <use xlink:href="#glyph13-1" x="124.9057" y="183.824"/>
</g>
<g style="fill:rgb(0%,0%,0%);fill-opacity:1;">
  <use xlink:href="#glyph13-1" x="124.9057" y="215.824"/>
</g>
<g style="fill:rgb(0%,0%,0%);fill-opacity:1;">
  <use xlink:href="#glyph13-2" x="124.9057" y="247.824"/>
</g>
<g style="fill:rgb(0%,0%,0%);fill-opacity:1;">
  <use xlink:href="#glyph13-2" x="124.9057" y="279.824"/>
</g>
<g style="fill:rgb(0%,0%,0%);fill-opacity:1;">
  <use xlink:href="#glyph14-1" x="1" y="326.936176"/>
  <use xlink:href="#glyph14-2" x="9.222933" y="326.936176"/>
  <use xlink:href="#glyph14-3" x="16.4643" y="326.936176"/>
  <use xlink:href="#glyph14-4" x="22.6315" y="326.936176"/>
  <use xlink:href="#glyph14-5" x="22.112937" y="326.936176"/>
  <use xlink:href="#glyph14-6" x="32.391604" y="326.936176"/>
  <use xlink:href="#glyph14-6" x="37.521677" y="326.936176"/>
  <use xlink:href="#glyph14-7" x="42.65175" y="326.936176"/>
  <use xlink:href="#glyph14-8" x="52.930417" y="326.936176"/>
  <use xlink:href="#glyph14-2" x="62.190477" y="326.936176"/>
  <use xlink:href="#glyph14-8" x="75.599044" y="326.936176"/>
  <use xlink:href="#glyph14-7" x="84.859104" y="326.936176"/>
  <use xlink:href="#glyph14-1" x="95.656334" y="326.936176"/>
  <use xlink:href="#glyph14-2" x="103.879268" y="326.936176"/>
  <use xlink:href="#glyph14-9" x="117.287835" y="326.936176"/>
  <use xlink:href="#glyph14-10" x="127.566501" y="326.936176"/>
  <use xlink:href="#glyph14-11" x="132.696575" y="326.936176"/>
  <use xlink:href="#glyph14-12" x="140.400945" y="326.936176"/>
  <use xlink:href="#glyph14-13" x="150.179568" y="326.936176"/>
  <use xlink:href="#glyph14-14" x="163.532575" y="326.936176"/>
  <use xlink:href="#glyph14-4" x="173.311198" y="326.936176"/>
  <use xlink:href="#glyph14-5" x="172.792635" y="326.936176"/>
  <use xlink:href="#glyph14-6" x="183.071301" y="326.936176"/>
  <use xlink:href="#glyph14-13" x="188.201375" y="326.936176"/>
  <use xlink:href="#glyph14-10" x="195.387181" y="326.936176"/>
  <use xlink:href="#glyph14-14" x="200.517255" y="326.936176"/>
</g>
<path style="fill:none;stroke-width:0.4;stroke-linecap:round;stroke-linejoin:round;stroke:rgb(0%,0%,0%);stroke-opacity:1;stroke-miterlimit:10;" d="M 304 320 L 480 320 " transform="matrix(1,0,0,-1,-31,417)"/>
<g style="fill:rgb(0%,0%,0%);fill-opacity:1;">
  <use xlink:href="#glyph0-1" x="283.9635" y="82.8386"/>
</g>
<g style="fill:rgb(0%,0%,0%);fill-opacity:1;">
  <use xlink:href="#glyph0-2" x="315.9635" y="82.8386"/>
</g>
<g style="fill:rgb(0%,0%,0%);fill-opacity:1;">
  <use xlink:href="#glyph1-1" x="353" y="81.001"/>
</g>
<g style="fill:rgb(0%,0%,0%);fill-opacity:1;">
  <use xlink:href="#glyph2-1" x="359.097" y="81.001"/>
</g>
<g style="fill:rgb(0%,0%,0%);fill-opacity:1;">
  <use xlink:href="#glyph3-1" x="371.382" y="81.001"/>
</g>
<g style="fill:rgb(0%,0%,0%);fill-opacity:1;">
  <use xlink:href="#glyph15-1" x="386.685" y="81.001"/>
</g>
<g style="fill:rgb(0%,0%,0%);fill-opacity:1;">
  <use xlink:href="#glyph16-1" x="392.781" y="81.001"/>
</g>
<g style="fill:rgb(0%,0%,0%);fill-opacity:1;">
  <use xlink:href="#glyph17-1" x="406.024" y="81.001"/>
</g>
<g style="fill:rgb(0%,0%,0%);fill-opacity:1;">
  <use xlink:href="#glyph18-1" x="428.021" y="81.001"/>
</g>
<g style="fill:rgb(0%,0%,0%);fill-opacity:1;">
  <use xlink:href="#glyph19-1" x="436.113" y="81.001"/>
  <use xlink:href="#glyph19-1" x="442.207252" y="81.001"/>
</g>
<g style="fill:rgb(0%,0%,0%);fill-opacity:1;">
  <use xlink:href="#glyph20-1" x="453.088" y="81.001"/>
</g>
<g style="fill:rgb(0%,0%,0%);fill-opacity:1;">
  <use xlink:href="#glyph21-1" x="475.085" y="81.001"/>
</g>
<g style="fill:rgb(0%,0%,0%);fill-opacity:1;">
  <use xlink:href="#glyph13-1" x="284.9057" y="119.824"/>
</g>
<g style="fill:rgb(0%,0%,0%);fill-opacity:1;">
  <use xlink:href="#glyph13-1" x="316.9057" y="119.824"/>
</g>
<g style="fill:rgb(0%,0%,0%);fill-opacity:1;">
  <use xlink:href="#glyph13-1" x="284.9057" y="151.824"/>
</g>
<g style="fill:rgb(0%,0%,0%);fill-opacity:1;">
  <use xlink:href="#glyph13-2" x="316.9057" y="151.824"/>
</g>
<g style="fill:rgb(0%,0%,0%);fill-opacity:1;">
  <use xlink:href="#glyph13-2" x="284.9057" y="183.824"/>
</g>
<g style="fill:rgb(0%,0%,0%);fill-opacity:1;">
  <use xlink:href="#glyph13-1" x="316.9057" y="183.824"/>
</g>
<g style="fill:rgb(0%,0%,0%);fill-opacity:1;">
  <use xlink:href="#glyph13-2" x="284.9057" y="215.824"/>
</g>
<g style="fill:rgb(0%,0%,0%);fill-opacity:1;">
  <use xlink:href="#glyph13-2" x="316.9057" y="215.824"/>
</g>
<path style="fill:none;stroke-width:0.4;stroke-linecap:round;stroke-linejoin:round;stroke:rgb(0%,0%,0%);stroke-opacity:1;stroke-dasharray:1,3;stroke-miterlimit:10;" d="M 304 256 L 448 256 " transform="matrix(1,0,0,-1,-31,417)"/>
<g style="fill:rgb(0%,0%,0%);fill-opacity:1;">
  <use xlink:href="#glyph13-2" x="364.9057" y="119.824"/>
</g>
<g style="fill:rgb(0%,0%,0%);fill-opacity:1;">
  <use xlink:href="#glyph13-2" x="364.9057" y="151.824"/>
</g>
<path style="fill:none;stroke-width:0.4;stroke-linecap:round;stroke-linejoin:round;stroke:rgb(0%,0%,0%);stroke-opacity:1;stroke-miterlimit:10;" d="M 368 351.996094 L 368 192 " transform="matrix(1,0,0,-1,-31,417)"/>
<g style="fill:rgb(0%,0%,0%);fill-opacity:1;">
  <use xlink:href="#glyph13-2" x="364.906" y="183.824"/>
</g>
<g style="fill:rgb(0%,0%,0%);fill-opacity:1;">
  <use xlink:href="#glyph13-2" x="364.906" y="215.824"/>
</g>
<g style="fill:rgb(0%,0%,0%);fill-opacity:1;">
  <use xlink:href="#glyph22-1" x="304.99982" y="326.936627"/>
  <use xlink:href="#glyph22-2" x="314.77842" y="326.936627"/>
  <use xlink:href="#glyph22-3" x="314.259857" y="326.936627"/>
  <use xlink:href="#glyph22-4" x="324.538499" y="326.936627"/>
  <use xlink:href="#glyph22-5" x="329.66856" y="326.936627"/>
  <use xlink:href="#glyph22-6" x="336.854349" y="326.936627"/>
  <use xlink:href="#glyph22-1" x="341.98441" y="326.936627"/>
</g>
<path style="fill:none;stroke-width:0.4;stroke-linecap:round;stroke-linejoin:round;stroke:rgb(0%,0%,0%);stroke-opacity:1;stroke-miterlimit:10;" d="M 544 320 L 720 320 " transform="matrix(1,0,0,-1,-31,417)"/>
<g style="fill:rgb(0%,0%,0%);fill-opacity:1;">
  <use xlink:href="#glyph0-1" x="523.964" y="82.839"/>
</g>
<g style="fill:rgb(0%,0%,0%);fill-opacity:1;">
  <use xlink:href="#glyph0-2" x="555.964" y="82.839"/>
</g>
<g style="fill:rgb(0%,0%,0%);fill-opacity:1;">
  <use xlink:href="#glyph1-1" x="593" y="81.001"/>
</g>
<g style="fill:rgb(0%,0%,0%);fill-opacity:1;">
  <use xlink:href="#glyph2-1" x="599.097" y="81.001"/>
</g>
<g style="fill:rgb(0%,0%,0%);fill-opacity:1;">
  <use xlink:href="#glyph3-2" x="611.382" y="81.001"/>
  <use xlink:href="#glyph3-3" x="626.669275" y="81.001"/>
</g>
<g style="fill:rgb(0%,0%,0%);fill-opacity:1;">
  <use xlink:href="#glyph23-1" x="638.162" y="81.001"/>
</g>
<g style="fill:rgb(0%,0%,0%);fill-opacity:1;">
  <use xlink:href="#glyph24-1" x="646.254" y="81.001"/>
</g>
<g style="fill:rgb(0%,0%,0%);fill-opacity:1;">
  <use xlink:href="#glyph25-1" x="656.176" y="81.001"/>
  <use xlink:href="#glyph25-2" x="671.463275" y="81.001"/>
</g>
<g style="fill:rgb(0%,0%,0%);fill-opacity:1;">
  <use xlink:href="#glyph26-1" x="682.955" y="81.001"/>
</g>
<g style="fill:rgb(0%,0%,0%);fill-opacity:1;">
  <use xlink:href="#glyph27-1" x="695.241" y="81.001"/>
</g>
<g style="fill:rgb(0%,0%,0%);fill-opacity:1;">
  <use xlink:href="#glyph28-1" x="710.544" y="81.001"/>
</g>
<g style="fill:rgb(0%,0%,0%);fill-opacity:1;">
  <use xlink:href="#glyph13-1" x="524.906" y="119.824"/>
</g>
<g style="fill:rgb(0%,0%,0%);fill-opacity:1;">
  <use xlink:href="#glyph13-1" x="556.906" y="119.824"/>
</g>
<g style="fill:rgb(0%,0%,0%);fill-opacity:1;">
  <use xlink:href="#glyph13-1" x="524.906" y="151.824"/>
</g>
<g style="fill:rgb(0%,0%,0%);fill-opacity:1;">
  <use xlink:href="#glyph13-2" x="556.906" y="151.824"/>
</g>
<g style="fill:rgb(0%,0%,0%);fill-opacity:1;">
  <use xlink:href="#glyph13-2" x="524.906" y="183.824"/>
</g>
<g style="fill:rgb(0%,0%,0%);fill-opacity:1;">
  <use xlink:href="#glyph13-1" x="556.906" y="183.824"/>
</g>
<g style="fill:rgb(0%,0%,0%);fill-opacity:1;">
  <use xlink:href="#glyph13-2" x="524.906" y="215.824"/>
</g>
<g style="fill:rgb(0%,0%,0%);fill-opacity:1;">
  <use xlink:href="#glyph13-2" x="556.906" y="215.824"/>
</g>
<path style="fill:none;stroke-width:0.4;stroke-linecap:round;stroke-linejoin:round;stroke:rgb(0%,0%,0%);stroke-opacity:1;stroke-dasharray:1,3;stroke-miterlimit:10;" d="M 544 256 L 688 256 " transform="matrix(1,0,0,-1,-31,417)"/>
<g style="fill:rgb(0%,0%,0%);fill-opacity:1;">
  <use xlink:href="#glyph13-1" x="604.906" y="119.824"/>
</g>
<g style="fill:rgb(0%,0%,0%);fill-opacity:1;">
  <use xlink:href="#glyph13-1" x="604.906" y="151.824"/>
</g>
<path style="fill:none;stroke-width:0.4;stroke-linecap:round;stroke-linejoin:round;stroke:rgb(0%,0%,0%);stroke-opacity:1;stroke-miterlimit:10;" d="M 608 352 L 608 192 " transform="matrix(1,0,0,-1,-31,417)"/>
<g style="fill:rgb(0%,0%,0%);fill-opacity:1;">
  <use xlink:href="#glyph13-1" x="604.906" y="183.824"/>
</g>
<g style="fill:rgb(0%,0%,0%);fill-opacity:1;">
  <use xlink:href="#glyph13-1" x="604.906" y="215.824"/>
</g>
<g style="fill:rgb(0%,0%,0%);fill-opacity:1;">
  <use xlink:href="#glyph22-3" x="512.99972" y="326.94964"/>
  <use xlink:href="#glyph22-7" x="523.278362" y="326.94964"/>
  <use xlink:href="#glyph22-8" x="533.557003" y="326.94964"/>
  <use xlink:href="#glyph22-9" x="541.779916" y="326.94964"/>
  <use xlink:href="#glyph22-10" x="549.021266" y="326.94964"/>
  <use xlink:href="#glyph22-2" x="555.188451" y="326.94964"/>
  <use xlink:href="#glyph22-3" x="554.669889" y="326.94964"/>
  <use xlink:href="#glyph22-4" x="564.94853" y="326.94964"/>
  <use xlink:href="#glyph22-4" x="570.078591" y="326.94964"/>
  <use xlink:href="#glyph22-11" x="575.208652" y="326.94964"/>
  <use xlink:href="#glyph22-12" x="585.487293" y="326.94964"/>
  <use xlink:href="#glyph22-9" x="594.747331" y="326.94964"/>
</g>
</g>
</svg>
