<?xml version="1.0" encoding="UTF-8"?>
<svg xmlns="http://www.w3.org/2000/svg" xmlns:xlink="http://www.w3.org/1999/xlink" width="337pt" height="226pt" viewBox="0 0 337 226" version="1.1">
<defs>
<g>
<symbol overflow="visible" id="glyph0-0">
<path style="stroke:none;" d=""/>
</symbol>
<symbol overflow="visible" id="glyph0-1">
<path style="stroke:none;" d="M 10.609375 1.40625 C 10.609375 1.09375 10.4375 0.984375 10.09375 0.75 C 6.671875 -1.609375 5.828125 -5.15625 5.828125 -7.5625 C 5.828125 -9.90625 6.609375 -13.484375 10.09375 -15.890625 C 10.4375 -16.125 10.609375 -16.234375 10.609375 -16.546875 C 10.609375 -16.796875 10.484375 -17.203125 9.890625 -17.203125 C 9.265625 -17.203125 7.4375 -15.765625 6.296875 -14.15625 C 4.90625 -12.21875 4.21875 -9.90625 4.21875 -7.5625 C 4.21875 -4.8125 5.203125 -2.5 6.25 -1.046875 C 7.390625 0.546875 9.1875 2.0625 9.890625 2.0625 C 10.484375 2.0625 10.609375 1.640625 10.609375 1.40625 Z M 10.609375 1.40625 "/>
</symbol>
<symbol overflow="visible" id="glyph0-2">
<path style="stroke:none;" d="M 8.53125 -7.5625 C 8.53125 -9.484375 8.046875 -12 6.265625 -14.390625 C 5.421875 -15.53125 3.59375 -17.203125 2.84375 -17.203125 C 2.28125 -17.203125 2.125 -16.78125 2.125 -16.546875 C 2.125 -16.25 2.296875 -16.125 2.75 -15.828125 C 5.78125 -13.703125 6.90625 -10.390625 6.90625 -7.578125 C 6.90625 -5.359375 6.1875 -1.703125 2.65625 0.75 C 2.328125 0.96875 2.125 1.09375 2.125 1.40625 C 2.125 1.640625 2.28125 2.0625 2.84375 2.0625 C 3.46875 2.0625 5.296875 0.625 6.4375 -0.984375 C 7.875 -3.015625 8.53125 -5.359375 8.53125 -7.5625 Z M 8.53125 -7.5625 "/>
</symbol>
<symbol overflow="visible" id="glyph1-0">
<path style="stroke:none;" d=""/>
</symbol>
<symbol overflow="visible" id="glyph1-1">
<path style="stroke:none;" d="M 6.984375 -5.5 L 9.84375 -9.25 L 10.703125 -9.25 C 11.046875 -9.25 11.703125 -9.25 11.703125 -9.96875 C 11.703125 -10.6875 11.046875 -10.6875 10.703125 -10.6875 L 7.953125 -10.6875 C 7.609375 -10.6875 6.96875 -10.6875 6.96875 -9.96875 C 6.96875 -9.25 7.5625 -9.25 8.15625 -9.25 L 6.296875 -6.6875 L 4.390625 -9.25 C 4.953125 -9.25 5.546875 -9.25 5.546875 -9.96875 C 5.546875 -10.6875 4.90625 -10.6875 4.5625 -10.6875 L 1.8125 -10.6875 C 1.46875 -10.6875 0.8125 -10.6875 0.8125 -9.96875 C 0.8125 -9.25 1.46875 -9.25 1.8125 -9.25 L 2.671875 -9.25 L 5.625 -5.5 L 2.53125 -1.4375 L 1.6875 -1.4375 C 1.34375 -1.4375 0.671875 -1.4375 0.671875 -0.71875 C 0.671875 0 1.34375 0 1.6875 0 L 4.40625 0 C 4.765625 0 5.40625 0 5.40625 -0.71875 C 5.40625 -1.4375 4.828125 -1.4375 4.15625 -1.4375 L 6.296875 -4.5625 L 8.53125 -1.4375 C 7.90625 -1.4375 7.3125 -1.4375 7.3125 -0.71875 C 7.3125 0 7.953125 0 8.296875 0 L 11.046875 0 C 11.40625 0 12.046875 0 12.046875 -0.71875 C 12.046875 -1.4375 11.40625 -1.4375 11.046875 -1.4375 L 10.1875 -1.4375 Z M 6.984375 -5.5 "/>
</symbol>
<symbol overflow="visible" id="glyph2-0">
<path style="stroke:none;" d=""/>
</symbol>
<symbol overflow="visible" id="glyph2-1">
<path style="stroke:none;" d="M 15.734375 -17.21875 C 15.734375 -17.453125 15.5625 -17.453125 15.515625 -17.453125 C 15.40625 -17.453125 15.390625 -17.421875 15.09375 -17.046875 C 14.9375 -16.875 13.921875 -15.59375 13.90625 -15.5625 C 13.078125 -17.171875 11.453125 -17.453125 10.40625 -17.453125 C 7.265625 -17.453125 4.40625 -14.578125 4.40625 -11.765625 C 4.40625 -9.90625 5.53125 -8.828125 6.734375 -8.40625 C 7.015625 -8.296875 8.46875 -7.90625 9.21875 -7.734375 C 10.484375 -7.390625 10.796875 -7.28125 11.328125 -6.734375 C 11.421875 -6.609375 11.921875 -6.046875 11.921875 -4.875 C 11.921875 -2.578125 9.78125 -0.203125 7.3125 -0.203125 C 5.28125 -0.203125 3.015625 -1.0625 3.015625 -3.84375 C 3.015625 -4.3125 3.125 -4.90625 3.203125 -5.15625 C 3.203125 -5.234375 3.21875 -5.359375 3.21875 -5.40625 C 3.21875 -5.5 3.171875 -5.625 2.96875 -5.625 C 2.75 -5.625 2.71875 -5.578125 2.625 -5.15625 L 1.359375 -0.078125 C 1.359375 -0.046875 1.265625 0.265625 1.265625 0.296875 C 1.265625 0.515625 1.46875 0.515625 1.515625 0.515625 C 1.609375 0.515625 1.640625 0.5 1.9375 0.125 L 3.078125 -1.359375 C 3.671875 -0.46875 4.953125 0.515625 7.265625 0.515625 C 10.453125 0.515625 13.375 -2.578125 13.375 -5.671875 C 13.375 -6.71875 13.140625 -7.625 12.1875 -8.546875 C 11.671875 -9.0625 11.21875 -9.1875 8.953125 -9.78125 C 7.28125 -10.234375 7.0625 -10.3125 6.609375 -10.703125 C 6.1875 -11.125 5.875 -11.71875 5.875 -12.5625 C 5.875 -14.640625 7.984375 -16.78125 10.328125 -16.78125 C 12.765625 -16.78125 13.90625 -15.296875 13.90625 -12.9375 C 13.90625 -12.296875 13.78125 -11.625 13.78125 -11.515625 C 13.78125 -11.296875 13.984375 -11.296875 14.046875 -11.296875 C 14.28125 -11.296875 14.296875 -11.375 14.390625 -11.765625 Z M 15.734375 -17.21875 "/>
</symbol>
<symbol overflow="visible" id="glyph3-0">
<path style="stroke:none;" d=""/>
</symbol>
<symbol overflow="visible" id="glyph3-1">
<path style="stroke:none;" d="M 20.671875 -5.703125 C 19.296875 -4.65625 18.640625 -3.640625 18.4375 -3.328125 C 17.328125 -1.609375 17.125 -0.046875 17.125 -0.03125 C 17.125 0.265625 17.421875 0.265625 17.625 0.265625 C 18.046875 0.265625 18.0625 0.21875 18.171875 -0.21875 C 18.734375 -2.65625 20.203125 -4.734375 23 -5.875 C 23.296875 -5.96875 23.375 -6.015625 23.375 -6.1875 C 23.375 -6.375 23.21875 -6.4375 23.171875 -6.46875 C 22.078125 -6.890625 19.078125 -8.125 18.140625 -12.296875 C 18.0625 -12.59375 18.046875 -12.65625 17.625 -12.65625 C 17.421875 -12.65625 17.125 -12.65625 17.125 -12.359375 C 17.125 -12.3125 17.34375 -10.75 18.390625 -9.09375 C 18.890625 -8.34375 19.609375 -7.484375 20.671875 -6.6875 L 2.25 -6.6875 C 1.8125 -6.6875 1.359375 -6.6875 1.359375 -6.1875 C 1.359375 -5.703125 1.8125 -5.703125 2.25 -5.703125 Z M 20.671875 -5.703125 "/>
</symbol>
<symbol overflow="visible" id="glyph4-0">
<path style="stroke:none;" d=""/>
</symbol>
<symbol overflow="visible" id="glyph4-1">
<path style="stroke:none;" d="M 11.75 -10.109375 C 10.953125 -9.96875 10.65625 -9.375 10.65625 -8.890625 C 10.65625 -8.296875 11.125 -8.109375 11.46875 -8.109375 C 12.21875 -8.109375 12.734375 -8.75 12.734375 -9.421875 C 12.734375 -10.453125 11.546875 -10.921875 10.5 -10.921875 C 9 -10.921875 8.15625 -9.4375 7.9375 -8.96875 C 7.359375 -10.828125 5.828125 -10.921875 5.375 -10.921875 C 2.84375 -10.921875 1.515625 -7.6875 1.515625 -7.140625 C 1.515625 -7.03125 1.609375 -6.90625 1.78125 -6.90625 C 1.984375 -6.90625 2.03125 -7.0625 2.078125 -7.15625 C 2.921875 -9.90625 4.578125 -10.4375 5.296875 -10.4375 C 6.421875 -10.4375 6.640625 -9.390625 6.640625 -8.796875 C 6.640625 -8.25 6.5 -7.6875 6.1875 -6.5 L 5.359375 -3.09375 C 4.984375 -1.609375 4.265625 -0.25 2.953125 -0.25 C 2.828125 -0.25 2.203125 -0.25 1.6875 -0.5625 C 2.578125 -0.75 2.78125 -1.484375 2.78125 -1.78125 C 2.78125 -2.28125 2.40625 -2.578125 1.9375 -2.578125 C 1.34375 -2.578125 0.6875 -2.0625 0.6875 -1.265625 C 0.6875 -0.21875 1.859375 0.25 2.921875 0.25 C 4.109375 0.25 4.953125 -0.6875 5.484375 -1.703125 C 5.875 -0.25 7.109375 0.25 8.03125 0.25 C 10.5625 0.25 11.890625 -3 11.890625 -3.546875 C 11.890625 -3.671875 11.796875 -3.765625 11.640625 -3.765625 C 11.421875 -3.765625 11.40625 -3.640625 11.328125 -3.4375 C 10.65625 -1.265625 9.21875 -0.25 8.109375 -0.25 C 7.234375 -0.25 6.765625 -0.890625 6.765625 -1.90625 C 6.765625 -2.453125 6.859375 -2.84375 7.265625 -4.484375 L 8.125 -7.859375 C 8.5 -9.34375 9.34375 -10.4375 10.484375 -10.4375 C 10.53125 -10.4375 11.21875 -10.4375 11.75 -10.109375 Z M 11.75 -10.109375 "/>
</symbol>
<symbol overflow="visible" id="glyph5-0">
<path style="stroke:none;" d=""/>
</symbol>
<symbol overflow="visible" id="glyph5-1">
<path style="stroke:none;" d="M 15.734375 -17.21875 C 15.734375 -17.453125 15.5625 -17.453125 15.515625 -17.453125 C 15.40625 -17.453125 15.390625 -17.421875 15.09375 -17.046875 C 14.9375 -16.875 13.921875 -15.59375 13.90625 -15.5625 C 13.078125 -17.171875 11.453125 -17.453125 10.40625 -17.453125 C 7.265625 -17.453125 4.40625 -14.578125 4.40625 -11.765625 C 4.40625 -9.90625 5.53125 -8.828125 6.734375 -8.40625 C 7.015625 -8.296875 8.46875 -7.90625 9.21875 -7.734375 C 10.484375 -7.390625 10.796875 -7.28125 11.328125 -6.734375 C 11.421875 -6.609375 11.921875 -6.046875 11.921875 -4.875 C 11.921875 -2.578125 9.78125 -0.203125 7.3125 -0.203125 C 5.28125 -0.203125 3.015625 -1.0625 3.015625 -3.84375 C 3.015625 -4.3125 3.125 -4.90625 3.203125 -5.15625 C 3.203125 -5.234375 3.21875 -5.359375 3.21875 -5.40625 C 3.21875 -5.5 3.171875 -5.625 2.96875 -5.625 C 2.75 -5.625 2.71875 -5.578125 2.625 -5.15625 L 1.359375 -0.078125 C 1.359375 -0.046875 1.265625 0.265625 1.265625 0.296875 C 1.265625 0.515625 1.46875 0.515625 1.515625 0.515625 C 1.609375 0.515625 1.640625 0.5 1.9375 0.125 L 3.078125 -1.359375 C 3.671875 -0.46875 4.953125 0.515625 7.265625 0.515625 C 10.453125 0.515625 13.375 -2.578125 13.375 -5.671875 C 13.375 -6.71875 13.140625 -7.625 12.1875 -8.546875 C 11.671875 -9.0625 11.21875 -9.1875 8.953125 -9.78125 C 7.28125 -10.234375 7.0625 -10.3125 6.609375 -10.703125 C 6.1875 -11.125 5.875 -11.71875 5.875 -12.5625 C 5.875 -14.640625 7.984375 -16.78125 10.328125 -16.78125 C 12.765625 -16.78125 13.90625 -15.296875 13.90625 -12.9375 C 13.90625 -12.296875 13.78125 -11.625 13.78125 -11.515625 C 13.78125 -11.296875 13.984375 -11.296875 14.046875 -11.296875 C 14.28125 -11.296875 14.296875 -11.375 14.390625 -11.765625 Z M 15.734375 -17.21875 "/>
</symbol>
<symbol overflow="visible" id="glyph6-0">
<path style="stroke:none;" d=""/>
</symbol>
<symbol overflow="visible" id="glyph6-1">
<path style="stroke:none;" d="M 20.671875 -5.703125 C 19.296875 -4.65625 18.640625 -3.640625 18.4375 -3.328125 C 17.328125 -1.609375 17.125 -0.046875 17.125 -0.03125 C 17.125 0.265625 17.421875 0.265625 17.625 0.265625 C 18.046875 0.265625 18.0625 0.21875 18.171875 -0.21875 C 18.734375 -2.65625 20.203125 -4.734375 23 -5.875 C 23.296875 -5.96875 23.375 -6.015625 23.375 -6.1875 C 23.375 -6.375 23.21875 -6.4375 23.171875 -6.46875 C 22.078125 -6.890625 19.078125 -8.125 18.140625 -12.296875 C 18.0625 -12.59375 18.046875 -12.65625 17.625 -12.65625 C 17.421875 -12.65625 17.125 -12.65625 17.125 -12.359375 C 17.125 -12.3125 17.34375 -10.75 18.390625 -9.09375 C 18.890625 -8.34375 19.609375 -7.484375 20.671875 -6.6875 L 2.25 -6.6875 C 1.8125 -6.6875 1.359375 -6.6875 1.359375 -6.1875 C 1.359375 -5.703125 1.8125 -5.703125 2.25 -5.703125 Z M 20.671875 -5.703125 "/>
</symbol>
<symbol overflow="visible" id="glyph7-0">
<path style="stroke:none;" d=""/>
</symbol>
<symbol overflow="visible" id="glyph7-1">
<path style="stroke:none;" d="M 7.578125 6.046875 C 7.578125 6.015625 7.578125 5.96875 7.515625 5.890625 C 6.375 4.734375 3.328125 1.5625 3.328125 -6.171875 C 3.328125 -13.90625 6.3125 -17.046875 7.53125 -18.28125 C 7.53125 -18.3125 7.578125 -18.359375 7.578125 -18.4375 C 7.578125 -18.515625 7.515625 -18.5625 7.40625 -18.5625 C 7.140625 -18.5625 5.03125 -16.734375 3.8125 -14 C 2.578125 -11.25 2.234375 -8.578125 2.234375 -6.1875 C 2.234375 -4.40625 2.40625 -1.390625 3.890625 1.8125 C 5.078125 4.390625 7.109375 6.1875 7.40625 6.1875 C 7.53125 6.1875 7.578125 6.140625 7.578125 6.046875 Z M 7.578125 6.046875 "/>
</symbol>
<symbol overflow="visible" id="glyph8-0">
<path style="stroke:none;" d=""/>
</symbol>
<symbol overflow="visible" id="glyph8-1">
<path style="stroke:none;" d="M 15.734375 -17.21875 C 15.734375 -17.453125 15.5625 -17.453125 15.515625 -17.453125 C 15.40625 -17.453125 15.390625 -17.421875 15.09375 -17.046875 C 14.9375 -16.875 13.921875 -15.59375 13.90625 -15.5625 C 13.078125 -17.171875 11.453125 -17.453125 10.40625 -17.453125 C 7.265625 -17.453125 4.40625 -14.578125 4.40625 -11.765625 C 4.40625 -9.90625 5.53125 -8.828125 6.734375 -8.40625 C 7.015625 -8.296875 8.46875 -7.90625 9.21875 -7.734375 C 10.484375 -7.390625 10.796875 -7.28125 11.328125 -6.734375 C 11.421875 -6.609375 11.921875 -6.046875 11.921875 -4.875 C 11.921875 -2.578125 9.78125 -0.203125 7.3125 -0.203125 C 5.28125 -0.203125 3.015625 -1.0625 3.015625 -3.84375 C 3.015625 -4.3125 3.125 -4.90625 3.203125 -5.15625 C 3.203125 -5.234375 3.21875 -5.359375 3.21875 -5.40625 C 3.21875 -5.5 3.171875 -5.625 2.96875 -5.625 C 2.75 -5.625 2.71875 -5.578125 2.625 -5.15625 L 1.359375 -0.078125 C 1.359375 -0.046875 1.265625 0.265625 1.265625 0.296875 C 1.265625 0.515625 1.46875 0.515625 1.515625 0.515625 C 1.609375 0.515625 1.640625 0.5 1.9375 0.125 L 3.078125 -1.359375 C 3.671875 -0.46875 4.953125 0.515625 7.265625 0.515625 C 10.453125 0.515625 13.375 -2.578125 13.375 -5.671875 C 13.375 -6.71875 13.140625 -7.625 12.1875 -8.546875 C 11.671875 -9.0625 11.21875 -9.1875 8.953125 -9.78125 C 7.28125 -10.234375 7.0625 -10.3125 6.609375 -10.703125 C 6.1875 -11.125 5.875 -11.71875 5.875 -12.5625 C 5.875 -14.640625 7.984375 -16.78125 10.328125 -16.78125 C 12.765625 -16.78125 13.90625 -15.296875 13.90625 -12.9375 C 13.90625 -12.296875 13.78125 -11.625 13.78125 -11.515625 C 13.78125 -11.296875 13.984375 -11.296875 14.046875 -11.296875 C 14.28125 -11.296875 14.296875 -11.375 14.390625 -11.765625 Z M 15.734375 -17.21875 "/>
</symbol>
<symbol overflow="visible" id="glyph9-0">
<path style="stroke:none;" d=""/>
</symbol>
<symbol overflow="visible" id="glyph9-1">
<path style="stroke:none;" d="M 6.515625 -6.171875 C 6.515625 -7.953125 6.34375 -10.984375 4.859375 -14.171875 C 3.671875 -16.75 1.640625 -18.5625 1.34375 -18.5625 C 1.265625 -18.5625 1.171875 -18.53125 1.171875 -18.40625 C 1.171875 -18.359375 1.1875 -18.34375 1.21875 -18.28125 C 2.40625 -17.046875 5.421875 -13.90625 5.421875 -6.1875 C 5.421875 1.53125 2.421875 4.6875 1.21875 5.921875 C 1.1875 5.96875 1.171875 6 1.171875 6.046875 C 1.171875 6.171875 1.265625 6.1875 1.34375 6.1875 C 1.609375 6.1875 3.71875 4.359375 4.9375 1.640625 C 6.171875 -1.109375 6.515625 -3.796875 6.515625 -6.171875 Z M 6.515625 -6.171875 "/>
</symbol>
<symbol overflow="visible" id="glyph10-0">
<path style="stroke:none;" d=""/>
</symbol>
<symbol overflow="visible" id="glyph10-1">
<path style="stroke:none;" d="M 15.734375 -17.21875 C 15.734375 -17.453125 15.5625 -17.453125 15.515625 -17.453125 C 15.40625 -17.453125 15.390625 -17.421875 15.09375 -17.046875 C 14.9375 -16.875 13.921875 -15.59375 13.90625 -15.5625 C 13.078125 -17.171875 11.453125 -17.453125 10.40625 -17.453125 C 7.265625 -17.453125 4.40625 -14.578125 4.40625 -11.765625 C 4.40625 -9.90625 5.53125 -8.828125 6.734375 -8.40625 C 7.015625 -8.296875 8.46875 -7.90625 9.21875 -7.734375 C 10.484375 -7.390625 10.796875 -7.28125 11.328125 -6.734375 C 11.421875 -6.609375 11.921875 -6.046875 11.921875 -4.875 C 11.921875 -2.578125 9.78125 -0.203125 7.3125 -0.203125 C 5.28125 -0.203125 3.015625 -1.0625 3.015625 -3.84375 C 3.015625 -4.3125 3.125 -4.90625 3.203125 -5.15625 C 3.203125 -5.234375 3.21875 -5.359375 3.21875 -5.40625 C 3.21875 -5.5 3.171875 -5.625 2.96875 -5.625 C 2.75 -5.625 2.71875 -5.578125 2.625 -5.15625 L 1.359375 -0.078125 C 1.359375 -0.046875 1.265625 0.265625 1.265625 0.296875 C 1.265625 0.515625 1.46875 0.515625 1.515625 0.515625 C 1.609375 0.515625 1.640625 0.5 1.9375 0.125 L 3.078125 -1.359375 C 3.671875 -0.46875 4.953125 0.515625 7.265625 0.515625 C 10.453125 0.515625 13.375 -2.578125 13.375 -5.671875 C 13.375 -6.71875 13.140625 -7.625 12.1875 -8.546875 C 11.671875 -9.0625 11.21875 -9.1875 8.953125 -9.78125 C 7.28125 -10.234375 7.0625 -10.3125 6.609375 -10.703125 C 6.1875 -11.125 5.875 -11.71875 5.875 -12.5625 C 5.875 -14.640625 7.984375 -16.78125 10.328125 -16.78125 C 12.765625 -16.78125 13.90625 -15.296875 13.90625 -12.9375 C 13.90625 -12.296875 13.78125 -11.625 13.78125 -11.515625 C 13.78125 -11.296875 13.984375 -11.296875 14.046875 -11.296875 C 14.28125 -11.296875 14.296875 -11.375 14.390625 -11.765625 Z M 15.734375 -17.21875 "/>
</symbol>
<symbol overflow="visible" id="glyph11-0">
<path style="stroke:none;" d=""/>
</symbol>
<symbol overflow="visible" id="glyph11-1">
<path style="stroke:none;" d="M 9.34375 -2.84375 C 9.34375 -3.40625 9.390625 -3.46875 10.3125 -3.46875 L 10.3125 -3.890625 C 9.9375 -3.859375 8.953125 -3.859375 8.515625 -3.859375 C 8.0625 -3.859375 6.8125 -3.859375 6.421875 -3.890625 L 6.421875 -3.46875 L 6.875 -3.46875 C 8.140625 -3.46875 8.171875 -3.296875 8.171875 -2.78125 L 8.171875 -1.859375 C 8.171875 -0.234375 6.296875 -0.109375 5.921875 -0.109375 C 4.796875 -0.109375 2.109375 -0.796875 2.109375 -4.90625 C 2.109375 -9.046875 4.8125 -9.6875 5.828125 -9.6875 C 7.078125 -9.6875 8.5625 -8.78125 8.9375 -6.234375 C 8.96875 -6.078125 8.96875 -6.03125 9.140625 -6.03125 C 9.34375 -6.03125 9.34375 -6.078125 9.34375 -6.375 L 9.34375 -9.765625 C 9.34375 -10.03125 9.34375 -10.09375 9.1875 -10.09375 C 9.109375 -10.09375 9.09375 -10.0625 9.015625 -9.921875 L 8.3125 -8.796875 C 7.890625 -9.3125 7.015625 -10.09375 5.65625 -10.09375 C 3.0625 -10.09375 0.78125 -7.84375 0.78125 -4.90625 C 0.78125 -1.9375 3.0625 0.296875 5.671875 0.296875 C 6.6875 0.296875 7.84375 -0.03125 8.375 -0.953125 C 8.640625 -0.484375 9.109375 -0.015625 9.21875 -0.015625 C 9.34375 -0.015625 9.34375 -0.09375 9.34375 -0.328125 Z M 9.34375 -2.84375 "/>
</symbol>
<symbol overflow="visible" id="glyph11-2">
<path style="stroke:none;" d="M 2.390625 -3.34375 C 2.390625 -4.734375 2.96875 -6.03125 4.078125 -6.03125 C 4.1875 -6.03125 4.21875 -6.03125 4.28125 -6.03125 C 4.15625 -5.96875 3.9375 -5.875 3.9375 -5.5 C 3.9375 -5.078125 4.265625 -4.921875 4.484375 -4.921875 C 4.78125 -4.921875 5.0625 -5.109375 5.0625 -5.5 C 5.0625 -5.921875 4.671875 -6.328125 4.0625 -6.328125 C 2.84375 -6.328125 2.421875 -5 2.34375 -4.734375 L 2.328125 -4.734375 L 2.328125 -6.328125 L 0.40625 -6.171875 L 0.40625 -5.75 C 1.375 -5.75 1.484375 -5.65625 1.484375 -4.953125 L 1.484375 -1.0625 C 1.484375 -0.421875 1.328125 -0.421875 0.40625 -0.421875 L 0.40625 0 C 0.796875 -0.03125 1.59375 -0.03125 2.015625 -0.03125 C 2.40625 -0.03125 3.421875 -0.03125 3.765625 0 L 3.765625 -0.421875 L 3.46875 -0.421875 C 2.421875 -0.421875 2.390625 -0.578125 2.390625 -1.09375 Z M 2.390625 -3.34375 "/>
</symbol>
<symbol overflow="visible" id="glyph11-3">
<path style="stroke:none;" d="M 5.53125 -3.828125 C 5.53125 -4.609375 5.53125 -5.171875 4.90625 -5.734375 C 4.40625 -6.203125 3.765625 -6.390625 3.125 -6.390625 C 1.953125 -6.390625 1.046875 -5.625 1.046875 -4.6875 C 1.046875 -4.28125 1.3125 -4.078125 1.65625 -4.078125 C 2 -4.078125 2.234375 -4.3125 2.234375 -4.65625 C 2.234375 -5.25 1.71875 -5.25 1.5 -5.25 C 1.84375 -5.859375 2.53125 -6.109375 3.09375 -6.109375 C 3.765625 -6.109375 4.609375 -5.5625 4.609375 -4.28125 L 4.609375 -3.703125 C 1.71875 -3.65625 0.625 -2.453125 0.625 -1.34375 C 0.625 -0.21875 1.953125 0.140625 2.828125 0.140625 C 3.765625 0.140625 4.421875 -0.4375 4.6875 -1.125 C 4.75 -0.4375 5.1875 0.078125 5.8125 0.078125 C 6.109375 0.078125 6.9375 -0.125 6.9375 -1.28125 L 6.9375 -2.078125 L 6.625 -2.078125 L 6.625 -1.28125 C 6.625 -0.453125 6.28125 -0.34375 6.078125 -0.34375 C 5.53125 -0.34375 5.53125 -1.109375 5.53125 -1.3125 Z M 4.609375 -2.015625 C 4.609375 -0.609375 3.5625 -0.140625 2.9375 -0.140625 C 2.234375 -0.140625 1.65625 -0.65625 1.65625 -1.34375 C 1.65625 -3.234375 4.09375 -3.40625 4.609375 -3.4375 Z M 4.609375 -2.015625 "/>
</symbol>
<symbol overflow="visible" id="glyph11-4">
<path style="stroke:none;" d="M 10.28125 -3.484375 C 10.28125 -4.8125 10.28125 -5.21875 9.953125 -5.6875 C 9.53125 -6.234375 8.859375 -6.328125 8.375 -6.328125 C 7.1875 -6.328125 6.578125 -5.46875 6.359375 -4.90625 C 6.15625 -6.015625 5.375 -6.328125 4.46875 -6.328125 C 3.078125 -6.328125 2.53125 -5.140625 2.421875 -4.84375 L 2.40625 -4.84375 L 2.40625 -6.328125 L 0.453125 -6.171875 L 0.453125 -5.75 C 1.4375 -5.75 1.546875 -5.65625 1.546875 -4.953125 L 1.546875 -1.0625 C 1.546875 -0.421875 1.390625 -0.421875 0.453125 -0.421875 L 0.453125 0 C 0.828125 -0.03125 1.609375 -0.03125 2.015625 -0.03125 C 2.421875 -0.03125 3.203125 -0.03125 3.578125 0 L 3.578125 -0.421875 C 2.65625 -0.421875 2.484375 -0.421875 2.484375 -1.0625 L 2.484375 -3.734375 C 2.484375 -5.234375 3.46875 -6.03125 4.359375 -6.03125 C 5.25 -6.03125 5.453125 -5.3125 5.453125 -4.4375 L 5.453125 -1.0625 C 5.453125 -0.421875 5.296875 -0.421875 4.359375 -0.421875 L 4.359375 0 C 4.734375 -0.03125 5.515625 -0.03125 5.90625 -0.03125 C 6.328125 -0.03125 7.09375 -0.03125 7.46875 0 L 7.46875 -0.421875 C 6.5625 -0.421875 6.390625 -0.421875 6.390625 -1.0625 L 6.390625 -3.734375 C 6.390625 -5.234375 7.375 -6.03125 8.265625 -6.03125 C 9.15625 -6.03125 9.359375 -5.3125 9.359375 -4.4375 L 9.359375 -1.0625 C 9.359375 -0.421875 9.1875 -0.421875 8.265625 -0.421875 L 8.265625 0 C 8.640625 -0.03125 9.40625 -0.03125 9.8125 -0.03125 C 10.234375 -0.03125 11 -0.03125 11.375 0 L 11.375 -0.421875 C 10.65625 -0.421875 10.296875 -0.421875 10.28125 -0.84375 Z M 10.28125 -3.484375 "/>
</symbol>
<symbol overflow="visible" id="glyph11-5">
<path style="stroke:none;" d="M 2.40625 -5.765625 L 4.4375 -5.765625 L 4.4375 -6.1875 L 2.40625 -6.1875 L 2.40625 -8.828125 L 2.09375 -8.828125 C 2.078125 -7.46875 1.5625 -6.09375 0.265625 -6.046875 L 0.265625 -5.765625 L 1.484375 -5.765625 L 1.484375 -1.78125 C 1.484375 -0.1875 2.53125 0.140625 3.296875 0.140625 C 4.203125 0.140625 4.671875 -0.75 4.671875 -1.78125 L 4.671875 -2.59375 L 4.359375 -2.59375 L 4.359375 -1.8125 C 4.359375 -0.78125 3.9375 -0.171875 3.390625 -0.171875 C 2.40625 -0.171875 2.40625 -1.5 2.40625 -1.75 Z M 2.40625 -5.765625 "/>
</symbol>
<symbol overflow="visible" id="glyph11-6">
<path style="stroke:none;" d="M 2.5 -8.828125 C 2.5 -9.203125 2.1875 -9.53125 1.796875 -9.53125 C 1.421875 -9.53125 1.109375 -9.234375 1.109375 -8.84375 C 1.109375 -8.421875 1.453125 -8.140625 1.796875 -8.140625 C 2.234375 -8.140625 2.5 -8.515625 2.5 -8.828125 Z M 0.515625 -6.171875 L 0.515625 -5.75 C 1.4375 -5.75 1.5625 -5.671875 1.5625 -4.96875 L 1.5625 -1.0625 C 1.5625 -0.421875 1.40625 -0.421875 0.46875 -0.421875 L 0.46875 0 C 0.875 -0.03125 1.5625 -0.03125 1.984375 -0.03125 C 2.140625 -0.03125 2.96875 -0.03125 3.453125 0 L 3.453125 -0.421875 C 2.53125 -0.421875 2.46875 -0.484375 2.46875 -1.046875 L 2.46875 -6.328125 Z M 0.515625 -6.171875 "/>
</symbol>
<symbol overflow="visible" id="glyph11-7">
<path style="stroke:none;" d="M 4.015625 -3.796875 C 4.015625 -3.8125 3.921875 -3.9375 3.921875 -3.9375 C 3.921875 -3.984375 4.8125 -4.765625 4.9375 -4.875 C 5.921875 -5.734375 6.5625 -5.75 6.859375 -5.765625 L 6.859375 -6.1875 C 6.5625 -6.15625 6.203125 -6.15625 5.765625 -6.15625 C 5.390625 -6.15625 4.65625 -6.15625 4.328125 -6.1875 L 4.328125 -5.765625 C 4.578125 -5.75 4.75 -5.625 4.75 -5.390625 C 4.75 -5.109375 4.453125 -4.84375 4.453125 -4.84375 L 2.390625 -3.046875 L 2.390625 -9.953125 L 0.40625 -9.796875 L 0.40625 -9.375 C 1.375 -9.375 1.484375 -9.28125 1.484375 -8.578125 L 1.484375 -1.0625 C 1.484375 -0.421875 1.328125 -0.421875 0.40625 -0.421875 L 0.40625 0 C 0.796875 -0.03125 1.484375 -0.03125 1.921875 -0.03125 C 2.359375 -0.03125 3.046875 -0.03125 3.4375 0 L 3.4375 -0.421875 C 2.53125 -0.421875 2.359375 -0.421875 2.359375 -1.0625 L 2.359375 -2.578125 L 3.265625 -3.390625 L 4.640625 -1.40625 C 4.859375 -1.109375 4.96875 -0.953125 4.96875 -0.75 C 4.96875 -0.484375 4.765625 -0.421875 4.453125 -0.421875 L 4.453125 0 C 4.8125 -0.03125 5.515625 -0.03125 5.90625 -0.03125 C 6.53125 -0.03125 6.5625 -0.03125 7.171875 0 L 7.171875 -0.421875 C 6.78125 -0.421875 6.34375 -0.421875 5.9375 -1 Z M 4.015625 -3.796875 "/>
</symbol>
<symbol overflow="visible" id="glyph11-8">
<path style="stroke:none;" d="M 2.984375 -5.984375 C 2.25 -6.171875 1.609375 -6.890625 1.609375 -7.796875 C 1.609375 -8.8125 2.40625 -9.703125 3.53125 -9.703125 C 5.875 -9.703125 6.203125 -7.390625 6.28125 -6.765625 C 6.3125 -6.59375 6.3125 -6.546875 6.453125 -6.546875 C 6.609375 -6.546875 6.609375 -6.609375 6.609375 -6.875 L 6.609375 -9.765625 C 6.609375 -10.03125 6.609375 -10.09375 6.46875 -10.09375 C 6.421875 -10.09375 6.375 -10.09375 6.265625 -9.90625 L 5.796875 -9.03125 C 5.109375 -9.921875 4.15625 -10.09375 3.53125 -10.09375 C 1.9375 -10.09375 0.78125 -8.828125 0.78125 -7.359375 C 0.78125 -6.671875 1.015625 -6.03125 1.546875 -5.46875 C 2.046875 -4.90625 2.546875 -4.78125 3.578125 -4.515625 C 4.078125 -4.40625 4.859375 -4.203125 5.0625 -4.109375 C 5.734375 -3.78125 6.1875 -3.015625 6.1875 -2.203125 C 6.1875 -1.140625 5.421875 -0.109375 4.234375 -0.109375 C 3.578125 -0.109375 2.703125 -0.265625 2 -0.890625 C 1.15625 -1.640625 1.109375 -2.671875 1.09375 -3.140625 C 1.078125 -3.25 0.96875 -3.25 0.9375 -3.25 C 0.78125 -3.25 0.78125 -3.1875 0.78125 -2.921875 L 0.78125 -0.03125 C 0.78125 0.234375 0.78125 0.296875 0.921875 0.296875 C 1 0.296875 1.015625 0.265625 1.125 0.09375 C 1.171875 -0.015625 1.484375 -0.546875 1.59375 -0.765625 C 2.109375 -0.1875 3.015625 0.296875 4.25 0.296875 C 5.859375 0.296875 7.015625 -1.0625 7.015625 -2.640625 C 7.015625 -3.515625 6.6875 -4.15625 6.296875 -4.640625 C 5.765625 -5.28125 5.125 -5.4375 4.5625 -5.578125 Z M 2.984375 -5.984375 "/>
</symbol>
<symbol overflow="visible" id="glyph11-9">
<path style="stroke:none;" d="M 5.1875 -5.3125 C 5.015625 -5.3125 4.484375 -5.3125 4.484375 -4.71875 C 4.484375 -4.375 4.734375 -4.125 5.078125 -4.125 C 5.40625 -4.125 5.6875 -4.328125 5.6875 -4.75 C 5.6875 -5.703125 4.671875 -6.390625 3.515625 -6.390625 C 1.84375 -6.390625 0.5 -4.90625 0.5 -3.09375 C 0.5 -1.265625 1.875 0.140625 3.5 0.140625 C 5.390625 0.140625 5.828125 -1.578125 5.828125 -1.703125 C 5.828125 -1.84375 5.71875 -1.84375 5.6875 -1.84375 C 5.546875 -1.84375 5.53125 -1.796875 5.5 -1.625 C 5.171875 -0.609375 4.40625 -0.171875 3.625 -0.171875 C 2.75 -0.171875 1.59375 -0.9375 1.59375 -3.109375 C 1.59375 -5.5 2.8125 -6.078125 3.53125 -6.078125 C 4.078125 -6.078125 4.859375 -5.859375 5.1875 -5.3125 Z M 5.1875 -5.3125 "/>
</symbol>
<symbol overflow="visible" id="glyph12-0">
<path style="stroke:none;" d=""/>
</symbol>
<symbol overflow="visible" id="glyph12-1">
<path style="stroke:none;" d="M 9.15625 -3.671875 L 8.828125 -3.671875 C 8.484375 -1.4375 8.140625 -0.421875 5.71875 -0.421875 L 3.765625 -0.421875 C 3.140625 -0.421875 3.109375 -0.515625 3.109375 -0.984375 L 3.109375 -4.859375 L 4.421875 -4.859375 C 5.796875 -4.859375 5.953125 -4.421875 5.953125 -3.1875 L 6.265625 -3.1875 L 6.265625 -6.953125 L 5.953125 -6.953125 C 5.953125 -5.71875 5.796875 -5.28125 4.421875 -5.28125 L 3.109375 -5.28125 L 3.109375 -8.78125 C 3.109375 -9.25 3.140625 -9.359375 3.765625 -9.359375 L 5.6875 -9.359375 C 7.78125 -9.359375 8.234375 -8.640625 8.453125 -6.5625 L 8.765625 -6.5625 L 8.390625 -9.765625 L 0.59375 -9.765625 L 0.59375 -9.359375 L 0.875 -9.359375 C 1.90625 -9.359375 1.953125 -9.203125 1.953125 -8.671875 L 1.953125 -1.09375 C 1.953125 -0.5625 1.90625 -0.421875 0.875 -0.421875 L 0.59375 -0.421875 L 0.59375 0 L 8.578125 0 Z M 9.15625 -3.671875 "/>
</symbol>
<symbol overflow="visible" id="glyph12-2">
<path style="stroke:none;" d="M 2.5 -8.828125 C 2.5 -9.203125 2.1875 -9.53125 1.796875 -9.53125 C 1.421875 -9.53125 1.109375 -9.234375 1.109375 -8.84375 C 1.109375 -8.421875 1.453125 -8.140625 1.796875 -8.140625 C 2.234375 -8.140625 2.5 -8.515625 2.5 -8.828125 Z M 0.515625 -6.171875 L 0.515625 -5.75 C 1.4375 -5.75 1.5625 -5.671875 1.5625 -4.96875 L 1.5625 -1.0625 C 1.5625 -0.421875 1.40625 -0.421875 0.46875 -0.421875 L 0.46875 0 C 0.875 -0.03125 1.5625 -0.03125 1.984375 -0.03125 C 2.140625 -0.03125 2.96875 -0.03125 3.453125 0 L 3.453125 -0.421875 C 2.53125 -0.421875 2.46875 -0.484375 2.46875 -1.046875 L 2.46875 -6.328125 Z M 0.515625 -6.171875 "/>
</symbol>
<symbol overflow="visible" id="glyph12-3">
<path style="stroke:none;" d="M 6.390625 -3.484375 C 6.390625 -4.8125 6.390625 -5.21875 6.046875 -5.6875 C 5.640625 -6.234375 4.96875 -6.328125 4.46875 -6.328125 C 3.078125 -6.328125 2.53125 -5.140625 2.421875 -4.84375 L 2.40625 -4.84375 L 2.40625 -6.328125 L 0.453125 -6.171875 L 0.453125 -5.75 C 1.4375 -5.75 1.546875 -5.65625 1.546875 -4.953125 L 1.546875 -1.0625 C 1.546875 -0.421875 1.390625 -0.421875 0.453125 -0.421875 L 0.453125 0 C 0.828125 -0.03125 1.609375 -0.03125 2.015625 -0.03125 C 2.421875 -0.03125 3.203125 -0.03125 3.578125 0 L 3.578125 -0.421875 C 2.65625 -0.421875 2.484375 -0.421875 2.484375 -1.0625 L 2.484375 -3.734375 C 2.484375 -5.234375 3.46875 -6.03125 4.359375 -6.03125 C 5.25 -6.03125 5.453125 -5.3125 5.453125 -4.4375 L 5.453125 -1.0625 C 5.453125 -0.421875 5.296875 -0.421875 4.359375 -0.421875 L 4.359375 0 C 4.734375 -0.03125 5.515625 -0.03125 5.90625 -0.03125 C 6.328125 -0.03125 7.09375 -0.03125 7.46875 0 L 7.46875 -0.421875 C 6.75 -0.421875 6.390625 -0.421875 6.390625 -0.84375 Z M 6.390625 -3.484375 "/>
</symbol>
<symbol overflow="visible" id="glyph12-4">
<path style="stroke:none;" d="M 1.703125 -2.59375 C 2.375 -2.15625 2.953125 -2.15625 3.109375 -2.15625 C 4.40625 -2.15625 5.359375 -3.125 5.359375 -4.234375 C 5.359375 -4.625 5.25 -5.15625 4.796875 -5.625 C 5.34375 -6.203125 6.03125 -6.203125 6.09375 -6.203125 C 6.15625 -6.203125 6.21875 -6.203125 6.28125 -6.171875 C 6.140625 -6.109375 6.0625 -5.96875 6.0625 -5.8125 C 6.0625 -5.609375 6.203125 -5.4375 6.4375 -5.4375 C 6.5625 -5.4375 6.8125 -5.515625 6.8125 -5.828125 C 6.8125 -6.078125 6.609375 -6.484375 6.109375 -6.484375 C 5.359375 -6.484375 4.8125 -6.03125 4.609375 -5.8125 C 4.171875 -6.140625 3.671875 -6.328125 3.125 -6.328125 C 1.84375 -6.328125 0.875 -5.34375 0.875 -4.25 C 0.875 -3.421875 1.375 -2.890625 1.515625 -2.765625 C 1.34375 -2.546875 1.09375 -2.140625 1.09375 -1.578125 C 1.09375 -0.75 1.59375 -0.390625 1.703125 -0.3125 C 1.046875 -0.125 0.390625 0.390625 0.390625 1.140625 C 0.390625 2.125 1.734375 2.9375 3.5 2.9375 C 5.203125 2.9375 6.625 2.1875 6.625 1.109375 C 6.625 0.75 6.53125 -0.09375 5.671875 -0.546875 C 4.9375 -0.921875 4.21875 -0.921875 2.984375 -0.921875 C 2.109375 -0.921875 2.015625 -0.921875 1.75 -1.1875 C 1.609375 -1.328125 1.484375 -1.609375 1.484375 -1.90625 C 1.484375 -2.15625 1.5625 -2.390625 1.703125 -2.59375 Z M 3.125 -2.453125 C 1.859375 -2.453125 1.859375 -3.90625 1.859375 -4.234375 C 1.859375 -4.484375 1.859375 -5.078125 2.109375 -5.46875 C 2.375 -5.875 2.8125 -6.03125 3.109375 -6.03125 C 4.375 -6.03125 4.375 -4.578125 4.375 -4.25 C 4.375 -3.984375 4.375 -3.40625 4.125 -3.015625 C 3.859375 -2.59375 3.421875 -2.453125 3.125 -2.453125 Z M 3.515625 2.640625 C 2.140625 2.640625 1.09375 1.9375 1.09375 1.125 C 1.09375 1 1.125 0.4375 1.65625 0.078125 C 1.984375 -0.125 2.109375 -0.125 3.109375 -0.125 C 4.296875 -0.125 5.921875 -0.125 5.921875 1.125 C 5.921875 1.96875 4.828125 2.640625 3.515625 2.640625 Z M 3.515625 2.640625 "/>
</symbol>
<symbol overflow="visible" id="glyph12-5">
<path style="stroke:none;" d="M 5.53125 -3.828125 C 5.53125 -4.609375 5.53125 -5.171875 4.90625 -5.734375 C 4.40625 -6.203125 3.765625 -6.390625 3.125 -6.390625 C 1.953125 -6.390625 1.046875 -5.625 1.046875 -4.6875 C 1.046875 -4.28125 1.3125 -4.078125 1.65625 -4.078125 C 2 -4.078125 2.234375 -4.3125 2.234375 -4.65625 C 2.234375 -5.25 1.71875 -5.25 1.5 -5.25 C 1.84375 -5.859375 2.53125 -6.109375 3.09375 -6.109375 C 3.765625 -6.109375 4.609375 -5.5625 4.609375 -4.28125 L 4.609375 -3.703125 C 1.71875 -3.65625 0.625 -2.453125 0.625 -1.34375 C 0.625 -0.21875 1.953125 0.140625 2.828125 0.140625 C 3.765625 0.140625 4.421875 -0.4375 4.6875 -1.125 C 4.75 -0.4375 5.1875 0.078125 5.8125 0.078125 C 6.109375 0.078125 6.9375 -0.125 6.9375 -1.28125 L 6.9375 -2.078125 L 6.625 -2.078125 L 6.625 -1.28125 C 6.625 -0.453125 6.28125 -0.34375 6.078125 -0.34375 C 5.53125 -0.34375 5.53125 -1.109375 5.53125 -1.3125 Z M 4.609375 -2.015625 C 4.609375 -0.609375 3.5625 -0.140625 2.9375 -0.140625 C 2.234375 -0.140625 1.65625 -0.65625 1.65625 -1.34375 C 1.65625 -3.234375 4.09375 -3.40625 4.609375 -3.4375 Z M 4.609375 -2.015625 "/>
</symbol>
<symbol overflow="visible" id="glyph12-6">
<path style="stroke:none;" d="M 2.390625 -9.953125 L 0.40625 -9.796875 L 0.40625 -9.375 C 1.375 -9.375 1.484375 -9.28125 1.484375 -8.578125 L 1.484375 0 L 1.8125 0 C 1.859375 -0.109375 2.265625 -0.828125 2.328125 -0.9375 C 2.65625 -0.40625 3.265625 0.140625 4.1875 0.140625 C 5.84375 0.140625 7.28125 -1.25 7.28125 -3.09375 C 7.28125 -4.921875 5.9375 -6.328125 4.34375 -6.328125 C 3.5625 -6.328125 2.890625 -5.96875 2.390625 -5.359375 Z M 2.421875 -4.59375 C 2.421875 -4.84375 2.421875 -4.875 2.578125 -5.109375 C 2.921875 -5.625 3.5625 -6.03125 4.265625 -6.03125 C 4.6875 -6.03125 6.203125 -5.859375 6.203125 -3.109375 C 6.203125 -2.15625 6.046875 -1.546875 5.703125 -1.03125 C 5.421875 -0.59375 4.84375 -0.140625 4.125 -0.140625 C 3.359375 -0.140625 2.859375 -0.640625 2.609375 -1.03125 C 2.421875 -1.328125 2.421875 -1.390625 2.421875 -1.640625 Z M 2.421875 -4.59375 "/>
</symbol>
<symbol overflow="visible" id="glyph12-7">
<path style="stroke:none;" d="M 5.5 -3.328125 C 5.8125 -3.328125 5.84375 -3.328125 5.84375 -3.59375 C 5.84375 -5.046875 5.0625 -6.390625 3.328125 -6.390625 C 1.6875 -6.390625 0.4375 -4.921875 0.4375 -3.140625 C 0.4375 -1.25 1.890625 0.140625 3.484375 0.140625 C 5.1875 0.140625 5.84375 -1.40625 5.84375 -1.703125 C 5.84375 -1.796875 5.765625 -1.84375 5.6875 -1.84375 C 5.5625 -1.84375 5.53125 -1.78125 5.515625 -1.703125 C 5.140625 -0.5 4.171875 -0.171875 3.578125 -0.171875 C 2.96875 -0.171875 1.515625 -0.578125 1.515625 -3.0625 L 1.515625 -3.328125 Z M 1.53125 -3.59375 C 1.65625 -5.859375 2.90625 -6.109375 3.3125 -6.109375 C 4.84375 -6.109375 4.9375 -4.09375 4.953125 -3.59375 Z M 1.53125 -3.59375 "/>
</symbol>
<symbol overflow="visible" id="glyph12-8">
<path style="stroke:none;" d="M 8.671875 -4.8125 C 9 -5.71875 9.625 -5.75 9.875 -5.765625 L 9.875 -6.1875 C 9.515625 -6.15625 9.25 -6.15625 8.8125 -6.15625 C 8.390625 -6.15625 8.359375 -6.15625 7.59375 -6.1875 L 7.59375 -5.765625 C 8.234375 -5.734375 8.40625 -5.34375 8.40625 -5.078125 C 8.40625 -5.0625 8.40625 -4.96875 8.34375 -4.8125 L 7.03125 -1.0625 L 5.59375 -5.125 C 5.515625 -5.296875 5.515625 -5.328125 5.515625 -5.359375 C 5.515625 -5.765625 6.046875 -5.765625 6.359375 -5.765625 L 6.359375 -6.1875 C 5.953125 -6.15625 5.359375 -6.15625 4.953125 -6.15625 C 4.484375 -6.15625 4.453125 -6.15625 3.65625 -6.1875 L 3.65625 -5.765625 C 4.203125 -5.765625 4.390625 -5.734375 4.546875 -5.546875 C 4.625 -5.46875 4.796875 -4.984375 4.890625 -4.703125 L 3.671875 -1.203125 L 2.296875 -5.109375 C 2.21875 -5.296875 2.21875 -5.328125 2.21875 -5.375 C 2.21875 -5.765625 2.78125 -5.765625 3.0625 -5.765625 L 3.0625 -6.1875 C 2.703125 -6.15625 1.984375 -6.15625 1.59375 -6.15625 C 1.1875 -6.15625 1.15625 -6.15625 0.265625 -6.1875 L 0.265625 -5.765625 C 0.984375 -5.765625 1.140625 -5.703125 1.296875 -5.25 L 3.09375 -0.109375 C 3.15625 0.046875 3.203125 0.140625 3.359375 0.140625 C 3.484375 0.140625 3.5625 0.09375 3.625 -0.125 L 5.0625 -4.21875 L 6.5 -0.125 C 6.5625 0.09375 6.640625 0.140625 6.765625 0.140625 C 6.921875 0.140625 6.96875 0.046875 7.03125 -0.109375 Z M 8.671875 -4.8125 "/>
</symbol>
<symbol overflow="visible" id="glyph12-9">
<path style="stroke:none;" d="M 6.578125 -3.0625 C 6.578125 -4.921875 5.171875 -6.390625 3.515625 -6.390625 C 1.796875 -6.390625 0.4375 -4.875 0.4375 -3.0625 C 0.4375 -1.234375 1.859375 0.140625 3.5 0.140625 C 5.1875 0.140625 6.578125 -1.265625 6.578125 -3.0625 Z M 3.515625 -0.171875 C 2.984375 -0.171875 2.34375 -0.40625 1.921875 -1.109375 C 1.53125 -1.75 1.515625 -2.59375 1.515625 -3.203125 C 1.515625 -3.75 1.515625 -4.625 1.96875 -5.265625 C 2.359375 -5.875 3 -6.109375 3.5 -6.109375 C 4.0625 -6.109375 4.65625 -5.859375 5.046875 -5.296875 C 5.5 -4.640625 5.5 -3.734375 5.5 -3.203125 C 5.5 -2.703125 5.5 -1.8125 5.125 -1.140625 C 4.71875 -0.4375 4.0625 -0.171875 3.515625 -0.171875 Z M 3.515625 -0.171875 "/>
</symbol>
<symbol overflow="visible" id="glyph12-10">
<path style="stroke:none;" d="M 2.390625 -3.34375 C 2.390625 -4.734375 2.96875 -6.03125 4.078125 -6.03125 C 4.1875 -6.03125 4.21875 -6.03125 4.28125 -6.03125 C 4.15625 -5.96875 3.9375 -5.875 3.9375 -5.5 C 3.9375 -5.078125 4.265625 -4.921875 4.484375 -4.921875 C 4.78125 -4.921875 5.0625 -5.109375 5.0625 -5.5 C 5.0625 -5.921875 4.671875 -6.328125 4.0625 -6.328125 C 2.84375 -6.328125 2.421875 -5 2.34375 -4.734375 L 2.328125 -4.734375 L 2.328125 -6.328125 L 0.40625 -6.171875 L 0.40625 -5.75 C 1.375 -5.75 1.484375 -5.65625 1.484375 -4.953125 L 1.484375 -1.0625 C 1.484375 -0.421875 1.328125 -0.421875 0.40625 -0.421875 L 0.40625 0 C 0.796875 -0.03125 1.59375 -0.03125 2.015625 -0.03125 C 2.40625 -0.03125 3.421875 -0.03125 3.765625 0 L 3.765625 -0.421875 L 3.46875 -0.421875 C 2.421875 -0.421875 2.390625 -0.578125 2.390625 -1.09375 Z M 2.390625 -3.34375 "/>
</symbol>
<symbol overflow="visible" id="glyph12-11">
<path style="stroke:none;" d="M 2.40625 -5.765625 L 4.4375 -5.765625 L 4.4375 -6.1875 L 2.40625 -6.1875 L 2.40625 -8.828125 L 2.09375 -8.828125 C 2.078125 -7.46875 1.5625 -6.09375 0.265625 -6.046875 L 0.265625 -5.765625 L 1.484375 -5.765625 L 1.484375 -1.78125 C 1.484375 -0.1875 2.53125 0.140625 3.296875 0.140625 C 4.203125 0.140625 4.671875 -0.75 4.671875 -1.78125 L 4.671875 -2.59375 L 4.359375 -2.59375 L 4.359375 -1.8125 C 4.359375 -0.78125 3.9375 -0.171875 3.390625 -0.171875 C 2.40625 -0.171875 2.40625 -1.5 2.40625 -1.75 Z M 2.40625 -5.765625 "/>
</symbol>
<symbol overflow="visible" id="glyph13-0">
<path style="stroke:none;" d=""/>
</symbol>
<symbol overflow="visible" id="glyph13-1">
<path style="stroke:none;" d="M 10.828125 -14.5 C 10.828125 -14.890625 10.828125 -15.4375 10.140625 -15.4375 C 9.609375 -15.4375 9.5625 -15.234375 9.265625 -14.203125 C 8.046875 -15.265625 6.640625 -15.4375 5.78125 -15.4375 C 3.140625 -15.4375 1.265625 -13.5625 1.265625 -11.375 C 1.265625 -9.90625 2.125 -8.953125 2.28125 -8.796875 C 3.328125 -7.75 3.734375 -7.65625 6.34375 -7.03125 C 8.203125 -6.609375 8.625 -6.515625 9.25 -5.828125 C 9.6875 -5.28125 9.9375 -4.65625 9.9375 -3.96875 C 9.9375 -2.625 8.875 -1.140625 6.90625 -1.140625 C 4.78125 -1.140625 3 -2.0625 2.875 -4.234375 C 2.84375 -4.609375 2.828125 -5.03125 2.078125 -5.03125 C 1.265625 -5.03125 1.265625 -4.5625 1.265625 -4.0625 L 1.265625 -0.640625 C 1.265625 -0.25 1.265625 0.296875 1.953125 0.296875 C 2.484375 0.296875 2.53125 0.09375 2.828125 -0.9375 C 4.1875 0.125 5.890625 0.296875 6.90625 0.296875 C 9.71875 0.296875 11.46875 -1.859375 11.46875 -4.0625 C 11.46875 -5.796875 10.40625 -6.890625 10.328125 -6.984375 C 9.34375 -8 8.875 -8.109375 6.375 -8.703125 C 5.796875 -8.84375 4.828125 -9.0625 4.640625 -9.125 C 3.625 -9.484375 2.796875 -10.359375 2.796875 -11.46875 C 2.796875 -12.78125 4.046875 -14 5.75 -14 C 7.609375 -14 8.875 -13.015625 9.1875 -10.90625 C 9.265625 -10.4375 9.3125 -10.109375 10.015625 -10.109375 C 10.828125 -10.109375 10.828125 -10.5625 10.828125 -11.046875 Z M 10.828125 -14.5 "/>
</symbol>
</g>
</defs>
<g id="surface42248">
<path style=" stroke:none;fill-rule:evenodd;fill:rgb(80.4%,20%,20%);fill-opacity:0.3;" d="M 106.175781 123.96875 C 108.902344 124.628906 110.929688 126.765625 111.410156 130.140625 C 111.890625 133.515625 110.820312 138.125 110.222656 141.761719 C 109.621094 145.398438 109.496094 148.058594 107.714844 149.621094 C 105.9375 151.1875 102.511719 151.652344 100.386719 147.355469 C 98.261719 143.058594 97.441406 134.003906 98.738281 129.066406 C 100.035156 124.128906 103.453125 123.308594 106.175781 123.96875 Z M 106.175781 123.96875 "/>
<g style="fill:rgb(0%,0%,0%);fill-opacity:1;">
  <use xlink:href="#glyph0-1" x="97" y="144.994"/>
</g>
<g style="fill:rgb(0%,0%,0%);fill-opacity:1;">
  <use xlink:href="#glyph1-1" x="113" y="145"/>
</g>
<g style="fill:rgb(0%,0%,0%);fill-opacity:1;">
  <use xlink:href="#glyph0-2" x="129" y="144.994"/>
</g>
<g style="fill:rgb(0%,0%,0%);fill-opacity:1;">
  <use xlink:href="#glyph0-1" x="161" y="144.994"/>
</g>
<g style="fill:rgb(0%,0%,0%);fill-opacity:1;">
  <use xlink:href="#glyph1-1" x="177" y="145"/>
</g>
<g style="fill:rgb(0%,0%,0%);fill-opacity:1;">
  <use xlink:href="#glyph0-2" x="193" y="144.994"/>
</g>
<g style="fill:rgb(0%,0%,0%);fill-opacity:1;">
  <use xlink:href="#glyph0-1" x="145" y="144.994"/>
</g>
<g style="fill:rgb(0%,0%,0%);fill-opacity:1;">
  <use xlink:href="#glyph1-1" x="209" y="145"/>
</g>
<g style="fill:rgb(0%,0%,0%);fill-opacity:1;">
  <use xlink:href="#glyph0-2" x="225" y="144.994"/>
</g>
<g style="fill:rgb(0%,0%,0%);fill-opacity:1;">
  <use xlink:href="#glyph1-1" x="241" y="145"/>
</g>
<g style="fill:rgb(0%,0%,0%);fill-opacity:1;">
  <use xlink:href="#glyph2-1" x="108.389" y="40.851"/>
</g>
<g style="fill:rgb(0%,0%,0%);fill-opacity:1;">
  <use xlink:href="#glyph3-1" x="131.644" y="40.851"/>
</g>
<g style="fill:rgb(0%,0%,0%);fill-opacity:1;">
  <use xlink:href="#glyph4-1" x="163.316" y="40.851"/>
</g>
<g style="fill:rgb(0%,0%,0%);fill-opacity:1;">
  <use xlink:href="#glyph5-1" x="108.389" y="73.728"/>
</g>
<g style="fill:rgb(0%,0%,0%);fill-opacity:1;">
  <use xlink:href="#glyph6-1" x="131.644" y="73.728"/>
</g>
<g style="fill:rgb(0%,0%,0%);fill-opacity:1;">
  <use xlink:href="#glyph7-1" x="163.316" y="73.728"/>
</g>
<g style="fill:rgb(0%,0%,0%);fill-opacity:1;">
  <use xlink:href="#glyph8-1" x="172.094" y="73.728"/>
</g>
<g style="fill:rgb(0%,0%,0%);fill-opacity:1;">
  <use xlink:href="#glyph9-1" x="188.464" y="73.728"/>
</g>
<g style="fill:rgb(0%,0%,0%);fill-opacity:1;">
  <use xlink:href="#glyph10-1" x="197.242" y="73.728"/>
</g>
<g style="fill:rgb(0%,0%,100%);fill-opacity:1;">
  <use xlink:href="#glyph11-1" x="14.038862" y="55.237262"/>
  <use xlink:href="#glyph11-2" x="25.056743" y="55.237262"/>
  <use xlink:href="#glyph11-3" x="30.508299" y="55.237262"/>
  <use xlink:href="#glyph11-4" x="37.523591" y="55.237262"/>
  <use xlink:href="#glyph11-4" x="49.23009" y="55.237262"/>
  <use xlink:href="#glyph11-3" x="60.93659" y="55.237262"/>
  <use xlink:href="#glyph11-5" x="67.951881" y="55.237262"/>
  <use xlink:href="#glyph11-6" x="73.403437" y="55.237262"/>
  <use xlink:href="#glyph11-7" x="77.305604" y="55.237262"/>
</g>
<g style="fill:rgb(33.3%,42%,18.4%);fill-opacity:1;">
  <use xlink:href="#glyph12-1" x="6.591509" y="137.722022"/>
  <use xlink:href="#glyph12-2" x="16.146078" y="137.722022"/>
  <use xlink:href="#glyph12-3" x="20.048244" y="137.722022"/>
  <use xlink:href="#glyph12-4" x="27.852577" y="137.722022"/>
  <use xlink:href="#glyph12-5" x="34.867869" y="137.722022"/>
  <use xlink:href="#glyph12-6" x="41.883161" y="137.722022"/>
  <use xlink:href="#glyph12-7" x="50.074841" y="137.722022"/>
  <use xlink:href="#glyph12-8" x="56.315438" y="137.722022"/>
  <use xlink:href="#glyph12-9" x="66.070854" y="137.722022"/>
  <use xlink:href="#glyph12-10" x="73.086146" y="137.722022"/>
  <use xlink:href="#glyph12-11" x="78.537702" y="137.722022"/>
</g>
<g style="fill:rgb(0%,0%,0%);fill-opacity:1;">
  <use xlink:href="#glyph11-8" x="51.501576" y="165.439282"/>
  <use xlink:href="#glyph11-5" x="59.305908" y="165.439282"/>
  <use xlink:href="#glyph11-3" x="64.757464" y="165.439282"/>
  <use xlink:href="#glyph11-9" x="71.772756" y="165.439282"/>
  <use xlink:href="#glyph11-7" x="77.626006" y="165.439282"/>
</g>
<path style=" stroke:none;fill-rule:evenodd;fill:rgb(80.4%,20%,20%);fill-opacity:0.3;" d="M 122.175781 123.96875 C 124.902344 124.628906 126.929688 126.765625 127.410156 130.140625 C 127.890625 133.511719 126.820312 138.125 126.222656 141.761719 C 125.621094 145.398438 125.496094 148.058594 123.714844 149.621094 C 121.9375 151.1875 118.511719 151.652344 116.386719 147.355469 C 114.261719 143.0625 113.441406 134.003906 114.738281 129.066406 C 116.035156 124.128906 119.453125 123.308594 122.175781 123.96875 Z M 122.175781 123.96875 "/>
<path style=" stroke:none;fill-rule:evenodd;fill:rgb(80.4%,20%,20%);fill-opacity:0.3;" d="M 138.175781 123.96875 C 140.902344 124.628906 142.929688 126.765625 143.410156 130.140625 C 143.890625 133.511719 142.820312 138.125 142.222656 141.761719 C 141.621094 145.398438 141.496094 148.058594 139.714844 149.621094 C 137.9375 151.1875 134.511719 151.652344 132.386719 147.355469 C 130.261719 143.0625 129.441406 134.003906 130.738281 129.066406 C 132.035156 124.128906 135.453125 123.308594 138.175781 123.96875 Z M 138.175781 123.96875 "/>
<path style=" stroke:none;fill-rule:evenodd;fill:rgb(80.4%,20%,20%);fill-opacity:0.3;" d="M 154.175781 123.96875 C 156.902344 124.628906 158.929688 126.765625 159.410156 130.140625 C 159.890625 133.511719 158.820312 138.125 158.222656 141.761719 C 157.621094 145.398438 157.496094 148.058594 155.714844 149.621094 C 153.9375 151.1875 150.511719 151.652344 148.386719 147.355469 C 146.261719 143.0625 145.441406 134.003906 146.738281 129.066406 C 148.035156 124.128906 151.453125 123.308594 154.175781 123.96875 Z M 154.175781 123.96875 "/>
<path style=" stroke:none;fill-rule:evenodd;fill:rgb(80.4%,20%,20%);fill-opacity:0.3;" d="M 170.175781 123.96875 C 172.902344 124.628906 174.929688 126.765625 175.410156 130.140625 C 175.890625 133.511719 174.820312 138.125 174.222656 141.761719 C 173.621094 145.398438 173.496094 148.058594 171.714844 149.621094 C 169.9375 151.1875 166.511719 151.652344 164.386719 147.355469 C 162.261719 143.0625 161.441406 134.003906 162.738281 129.066406 C 164.035156 124.128906 167.453125 123.308594 170.175781 123.96875 Z M 170.175781 123.96875 "/>
<path style=" stroke:none;fill-rule:evenodd;fill:rgb(80.4%,20%,20%);fill-opacity:0.3;" d="M 186.175781 123.96875 C 188.902344 124.628906 190.929688 126.765625 191.410156 130.140625 C 191.890625 133.511719 190.820312 138.125 190.222656 141.761719 C 189.621094 145.398438 189.496094 148.058594 187.714844 149.621094 C 185.9375 151.1875 182.511719 151.652344 180.386719 147.355469 C 178.261719 143.0625 177.441406 134.003906 178.738281 129.066406 C 180.035156 124.128906 183.453125 123.308594 186.175781 123.96875 Z M 186.175781 123.96875 "/>
<g style="fill:rgb(0%,0%,0%);fill-opacity:1;">
  <use xlink:href="#glyph0-1" x="97.250233" y="167.7239"/>
</g>
<g style="fill:rgb(0%,0%,0%);fill-opacity:1;">
  <use xlink:href="#glyph1-1" x="113.2502" y="167.7299"/>
</g>
<g style="fill:rgb(0%,0%,0%);fill-opacity:1;">
  <use xlink:href="#glyph0-2" x="129.2502" y="167.7239"/>
</g>
<g style="fill:rgb(0%,0%,0%);fill-opacity:1;">
  <use xlink:href="#glyph0-1" x="145.2502" y="167.7239"/>
</g>
<path style=" stroke:none;fill-rule:evenodd;fill:rgb(80.4%,20%,20%);fill-opacity:0.3;" d="M 106.367188 146.285156 C 109.089844 146.941406 111.121094 149.082031 111.597656 152.457031 C 112.078125 155.828125 111.011719 160.441406 110.410156 164.078125 C 109.8125 167.710938 109.683594 170.375 107.90625 171.9375 C 106.128906 173.503906 102.699219 173.96875 100.574219 169.671875 C 98.453125 165.375 97.628906 156.320312 98.929688 151.382812 C 100.226562 146.441406 103.644531 145.625 106.367188 146.285156 Z M 106.367188 146.285156 "/>
<path style=" stroke:none;fill-rule:evenodd;fill:rgb(80.4%,20%,20%);fill-opacity:0.3;" d="M 122.367188 146.285156 C 125.089844 146.941406 127.117188 149.082031 127.597656 152.457031 C 128.078125 155.828125 127.011719 160.441406 126.410156 164.078125 C 125.8125 167.710938 125.683594 170.375 123.90625 171.9375 C 122.128906 173.503906 118.699219 173.96875 116.574219 169.671875 C 114.453125 165.375 113.628906 156.320312 114.929688 151.382812 C 116.226562 146.441406 119.644531 145.625 122.367188 146.285156 Z M 122.367188 146.285156 "/>
<path style=" stroke:none;fill-rule:evenodd;fill:rgb(80.4%,20%,20%);fill-opacity:0.3;" d="M 138.367188 146.285156 C 141.089844 146.941406 143.117188 149.082031 143.597656 152.457031 C 144.078125 155.828125 143.011719 160.441406 142.410156 164.078125 C 141.8125 167.710938 141.683594 170.375 139.90625 171.9375 C 138.128906 173.503906 134.699219 173.96875 132.574219 169.671875 C 130.453125 165.375 129.628906 156.320312 130.929688 151.382812 C 132.226562 146.441406 135.644531 145.625 138.367188 146.285156 Z M 138.367188 146.285156 "/>
<g style="fill:rgb(0%,0%,0%);fill-opacity:1;">
  <use xlink:href="#glyph0-1" x="161.2502" y="167.7239"/>
</g>
<g style="fill:rgb(0%,0%,0%);fill-opacity:1;">
  <use xlink:href="#glyph0-2" x="225.25" y="167.7239"/>
</g>
<g style="fill:rgb(0%,0%,0%);fill-opacity:1;">
  <use xlink:href="#glyph13-1" x="241.25" y="167.7299"/>
</g>
<path style=" stroke:none;fill-rule:evenodd;fill:rgb(80.4%,20%,20%);fill-opacity:0.3;" d="M 154.367188 146.285156 C 157.089844 146.941406 159.117188 149.082031 159.597656 152.457031 C 160.078125 155.828125 159.011719 160.441406 158.410156 164.078125 C 157.8125 167.710938 157.683594 170.375 155.90625 171.9375 C 154.128906 173.503906 150.699219 173.96875 148.574219 169.671875 C 146.453125 165.375 145.628906 156.320312 146.929688 151.382812 C 148.226562 146.441406 151.644531 145.625 154.367188 146.285156 Z M 154.367188 146.285156 "/>
<g style="fill:rgb(0%,0%,0%);fill-opacity:1;">
  <use xlink:href="#glyph1-1" x="177.2502" y="167.7299"/>
</g>
<g style="fill:rgb(0%,0%,0%);fill-opacity:1;">
  <use xlink:href="#glyph0-2" x="193.2502" y="167.7239"/>
</g>
<path style=" stroke:none;fill-rule:evenodd;fill:rgb(80.4%,20%,20%);fill-opacity:0.3;" d="M 170.367188 146.285156 C 173.089844 146.941406 175.117188 149.082031 175.597656 152.457031 C 176.078125 155.828125 175.011719 160.441406 174.410156 164.078125 C 173.8125 167.710938 173.683594 170.375 171.90625 171.9375 C 170.128906 173.503906 166.699219 173.96875 164.574219 169.671875 C 162.453125 165.375 161.628906 156.320312 162.929688 151.382812 C 164.226562 146.441406 167.644531 145.625 170.367188 146.285156 Z M 170.367188 146.285156 "/>
<path style=" stroke:none;fill-rule:evenodd;fill:rgb(80.4%,20%,20%);fill-opacity:0.3;" d="M 186.367188 146.285156 C 189.089844 146.941406 191.117188 149.082031 191.597656 152.457031 C 192.078125 155.828125 191.011719 160.441406 190.410156 164.078125 C 189.8125 167.710938 189.683594 170.375 187.90625 171.9375 C 186.128906 173.503906 182.699219 173.96875 180.574219 169.671875 C 178.453125 165.375 177.628906 156.320312 178.929688 151.382812 C 180.226562 146.441406 183.644531 145.625 186.367188 146.285156 Z M 186.367188 146.285156 "/>
<path style=" stroke:none;fill-rule:evenodd;fill:rgb(80.4%,20%,20%);fill-opacity:0.3;" d="M 202.175781 123.96875 C 204.902344 124.628906 206.929688 126.765625 207.410156 130.140625 C 207.890625 133.511719 206.820312 138.125 206.222656 141.761719 C 205.621094 145.398438 205.496094 148.058594 203.714844 149.621094 C 201.9375 151.1875 198.511719 151.652344 196.386719 147.355469 C 194.261719 143.0625 193.441406 134.003906 194.738281 129.066406 C 196.035156 124.128906 199.453125 123.308594 202.175781 123.96875 Z M 202.175781 123.96875 "/>
<path style=" stroke:none;fill-rule:evenodd;fill:rgb(80.4%,20%,20%);fill-opacity:0.3;" d="M 202.367188 146.285156 C 205.089844 146.941406 207.117188 149.082031 207.597656 152.457031 C 208.078125 155.828125 207.011719 160.441406 206.410156 164.078125 C 205.8125 167.710938 205.683594 170.375 203.90625 171.9375 C 202.128906 173.503906 198.699219 173.96875 196.574219 169.671875 C 194.453125 165.375 193.628906 156.320312 194.929688 151.382812 C 196.226562 146.441406 199.644531 145.625 202.367188 146.285156 Z M 202.367188 146.285156 "/>
<path style=" stroke:none;fill-rule:evenodd;fill:rgb(80.4%,20%,20%);fill-opacity:0.3;" d="M 218.175781 123.96875 C 220.902344 124.628906 222.929688 126.765625 223.410156 130.140625 C 223.890625 133.511719 222.820312 138.125 222.222656 141.761719 C 221.621094 145.398438 221.496094 148.058594 219.714844 149.621094 C 217.9375 151.1875 214.511719 151.652344 212.386719 147.355469 C 210.261719 143.0625 209.441406 134.003906 210.738281 129.066406 C 212.035156 124.128906 215.453125 123.308594 218.175781 123.96875 Z M 218.175781 123.96875 "/>
<path style=" stroke:none;fill-rule:evenodd;fill:rgb(80.4%,20%,20%);fill-opacity:0.3;" d="M 172.570312 21.730469 C 175.292969 22.390625 177.324219 24.53125 177.800781 27.902344 C 178.28125 31.277344 177.214844 35.886719 176.613281 39.523438 C 176.015625 43.160156 175.886719 45.824219 174.109375 47.386719 C 172.332031 48.949219 168.902344 49.417969 166.777344 45.121094 C 164.65625 40.824219 163.832031 31.769531 165.132812 26.828125 C 166.429688 21.890625 169.847656 21.074219 172.570312 21.730469 Z M 172.570312 21.730469 "/>
<path style="fill:none;stroke-width:0.4;stroke-linecap:round;stroke-linejoin:round;stroke:rgb(80.4%,20%,20%);stroke-opacity:1;stroke-miterlimit:10;" d="M 187.445312 384.683594 L 230.367188 309.109375 " transform="matrix(1,0,0,-1,-15,433)"/>
<g style="fill:rgb(0%,0%,0%);fill-opacity:1;">
  <use xlink:href="#glyph1-1" x="209.2502" y="167.7299"/>
</g>
<path style=" stroke:none;fill-rule:evenodd;fill:rgb(80.4%,20%,20%);fill-opacity:0.3;" d="M 218.367188 146.285156 C 221.089844 146.941406 223.117188 149.082031 223.597656 152.457031 C 224.078125 155.828125 223.011719 160.441406 222.410156 164.078125 C 221.8125 167.710938 221.683594 170.375 219.90625 171.9375 C 218.128906 173.503906 214.699219 173.96875 212.574219 169.671875 C 210.453125 165.375 209.628906 156.320312 210.929688 151.382812 C 212.226562 146.441406 215.644531 145.625 218.367188 146.285156 Z M 218.367188 146.285156 "/>
<path style="fill:none;stroke-width:0.4;stroke-linecap:round;stroke-linejoin:round;stroke:rgb(94.1%,100%,100%);stroke-opacity:0.1;stroke-miterlimit:10;" d="M 16 432 L 16 208 L 352 208 L 352 432 Z M 16 432 " transform="matrix(1,0,0,-1,-15,433)"/>
</g>
</svg>
