<?xml version="1.0" encoding="UTF-8"?>
<svg xmlns="http://www.w3.org/2000/svg" xmlns:xlink="http://www.w3.org/1999/xlink" width="534" height="252" viewBox="0 0 534 252">
<defs>
<g>
<g id="glyph-0-0">
<path d="M 1.03125 -2.71875 C 0.421875 -2.71875 0.109375 -2.234375 0.109375 -1.28125 C 0.109375 -0.8125 0.203125 -0.421875 0.328125 -0.21875 C 0.46875 -0.03125 0.6875 0.078125 0.9375 0.078125 C 1.53125 0.078125 1.828125 -0.4375 1.828125 -1.4375 C 1.828125 -2.296875 1.578125 -2.71875 1.03125 -2.71875 Z M 0.96875 -2.578125 C 1.34375 -2.578125 1.5 -2.1875 1.5 -1.25 C 1.5 -0.40625 1.34375 -0.0625 0.984375 -0.0625 C 0.609375 -0.0625 0.4375 -0.453125 0.4375 -1.421875 C 0.4375 -2.25 0.59375 -2.578125 0.96875 -2.578125 Z M 0.96875 -2.578125 "/>
</g>
<g id="glyph-1-0">
<path d="M 0.484375 -1.53125 L 0.265625 -0.421875 C 0.265625 -0.390625 0.265625 -0.390625 0.25 -0.34375 C 0.234375 -0.234375 0.21875 -0.171875 0.21875 -0.125 C 0.21875 -0.03125 0.265625 0.03125 0.34375 0.03125 C 0.46875 0.03125 0.609375 -0.046875 0.921875 -0.296875 L 1.046875 -0.390625 L 1 -0.453125 L 0.828125 -0.34375 C 0.71875 -0.265625 0.640625 -0.21875 0.59375 -0.21875 C 0.5625 -0.21875 0.53125 -0.25 0.53125 -0.296875 C 0.53125 -0.40625 0.59375 -0.71875 0.703125 -1.296875 L 0.75 -1.53125 L 1.171875 -1.53125 L 1.21875 -1.734375 C 1.078125 -1.71875 0.9375 -1.703125 0.78125 -1.703125 C 0.84375 -2.078125 0.890625 -2.265625 0.96875 -2.484375 L 0.921875 -2.546875 C 0.84375 -2.5 0.734375 -2.453125 0.609375 -2.40625 L 0.515625 -1.734375 C 0.34375 -1.65625 0.234375 -1.609375 0.171875 -1.59375 L 0.15625 -1.53125 Z M 0.484375 -1.53125 "/>
</g>
<g id="glyph-2-0">
<path d="M 0.265625 -2.1875 L 0.296875 -2.1875 L 0.8125 -2.40625 C 0.8125 -2.421875 0.8125 -2.421875 0.828125 -2.421875 C 0.84375 -2.421875 0.859375 -2.375 0.859375 -2.28125 L 0.859375 -0.375 C 0.859375 -0.171875 0.8125 -0.125 0.59375 -0.125 L 0.375 -0.109375 L 0.375 0.015625 C 0.984375 0 0.984375 0 1.03125 0 C 1.078125 0 1.171875 0 1.296875 0 C 1.34375 0.015625 1.484375 0.015625 1.640625 0.015625 L 1.640625 -0.109375 L 1.4375 -0.125 C 1.21875 -0.125 1.1875 -0.171875 1.1875 -0.375 L 1.1875 -2.71875 L 1.125 -2.734375 C 0.875 -2.59375 0.59375 -2.484375 0.234375 -2.359375 Z M 0.265625 -2.1875 "/>
</g>
<g id="glyph-3-0">
<path d="M 2.421875 -3.765625 C 2.4375 -3.890625 2.4375 -4.09375 2.203125 -4.09375 C 2.0625 -4.09375 1.953125 -3.984375 1.96875 -3.875 L 1.96875 -3.75 L 2.09375 -2.390625 L 0.96875 -3.203125 C 0.890625 -3.25 0.875 -3.265625 0.8125 -3.265625 C 0.6875 -3.265625 0.578125 -3.140625 0.578125 -3.015625 C 0.578125 -2.875 0.65625 -2.84375 0.75 -2.796875 L 2 -2.203125 L 0.78125 -1.609375 C 0.640625 -1.546875 0.578125 -1.5 0.578125 -1.375 C 0.578125 -1.25 0.6875 -1.125 0.8125 -1.125 C 0.875 -1.125 0.890625 -1.125 1.109375 -1.296875 L 2.09375 -2.015625 L 1.96875 -0.53125 C 1.96875 -0.34375 2.125 -0.296875 2.1875 -0.296875 C 2.296875 -0.296875 2.4375 -0.359375 2.4375 -0.53125 L 2.296875 -2.015625 L 3.421875 -1.1875 C 3.5 -1.140625 3.53125 -1.125 3.59375 -1.125 C 3.703125 -1.125 3.828125 -1.25 3.828125 -1.375 C 3.828125 -1.5 3.75 -1.546875 3.640625 -1.609375 C 3.109375 -1.875 3.09375 -1.875 2.390625 -2.1875 L 3.609375 -2.78125 C 3.75 -2.859375 3.828125 -2.890625 3.828125 -3.015625 C 3.828125 -3.15625 3.703125 -3.265625 3.59375 -3.265625 C 3.53125 -3.265625 3.5 -3.265625 3.28125 -3.109375 L 2.296875 -2.390625 Z M 2.421875 -3.765625 "/>
</g>
<g id="glyph-4-0">
<path d="M 4.09375 -0.828125 C 3.78125 -0.5625 3.578125 -0.5 3.453125 -0.5 C 3.328125 -0.5 3.21875 -0.53125 3.140625 -0.6875 C 3.0625 -0.84375 2.953125 -1.203125 2.921875 -1.453125 C 2.890625 -1.59375 2.875 -1.71875 2.859375 -1.84375 C 3.109375 -2.1875 3.359375 -2.5625 3.484375 -2.75 C 3.59375 -2.921875 3.90625 -3.4375 3.96875 -3.59375 C 3.90625 -3.6875 3.875 -3.765625 3.828125 -3.890625 C 3.796875 -3.90625 3.734375 -3.9375 3.703125 -3.953125 C 3.515625 -3.25 3.390625 -3.015625 3.078125 -2.515625 C 3.046875 -2.46875 2.921875 -2.25 2.8125 -2.109375 C 2.65625 -3.125 2.625 -3.359375 2.578125 -3.65625 C 2.5 -4.046875 2.265625 -4.078125 2.09375 -4.078125 C 1.90625 -4.0625 1.625 -3.921875 1.34375 -3.65625 C 1.140625 -3.46875 0.984375 -3.25 0.828125 -3 C 0.453125 -2.234375 0.1875 -1.234375 0.1875 -0.5625 C 0.1875 -0.28125 0.3125 0.09375 0.5 0.09375 C 0.84375 0.09375 1.109375 -0.078125 1.375 -0.265625 C 1.71875 -0.578125 2.109375 -0.953125 2.359375 -1.25 C 2.453125 -0.375 2.71875 0.09375 3.03125 0.09375 C 3.21875 0.09375 3.484375 -0.046875 3.765625 -0.296875 L 4.171875 -0.671875 Z M 2.328125 -1.515625 C 2.09375 -1.21875 1.84375 -0.96875 1.625 -0.796875 C 1.375 -0.578125 1.125 -0.5 0.984375 -0.5 C 0.875 -0.5 0.828125 -0.609375 0.828125 -0.84375 C 0.828125 -1.375 0.96875 -2.296875 1.25 -3 C 1.359375 -3.265625 1.5625 -3.515625 1.75 -3.515625 C 2 -3.515625 2.09375 -3.359375 2.140625 -3 Z M 2.328125 -1.515625 "/>
</g>
<g id="glyph-5-0">
<path d="M 0.09375 2.34375 C 0.3125 2.28125 0.375 2.234375 0.609375 2.203125 C 0.6875 1.453125 0.75 0.484375 0.890625 -0.171875 C 1.21875 0.015625 1.53125 0.09375 1.96875 0.09375 C 3.265625 0.09375 4.3125 -0.84375 4.3125 -1.984375 C 4.3125 -2.421875 4.171875 -2.671875 3.875 -2.890625 C 3.671875 -3.046875 3.484375 -3.125 3.078125 -3.21875 L 3.078125 -3.265625 C 3.109375 -3.375 3.15625 -3.46875 3.296875 -3.65625 C 3.328125 -3.6875 3.359375 -3.734375 3.390625 -3.765625 C 3.953125 -4.421875 4.109375 -4.6875 4.109375 -5.15625 C 4.109375 -5.625 3.765625 -6.015625 3.328125 -6.015625 C 2.984375 -6.015625 2.375 -5.734375 1.890625 -5.375 C 1.390625 -5 1.28125 -4.703125 1.171875 -4.203125 L 0.9375 -3.15625 C 0.65625 -1.8125 0.359375 -0.03125 -0.03125 2.28125 Z M 1.734375 -2.9375 L 1.78125 -2.84375 C 2.09375 -2.953125 2.234375 -2.96875 2.4375 -2.96875 C 3.171875 -2.96875 3.578125 -2.640625 3.578125 -1.921875 C 3.578125 -1.40625 3.390625 -0.90625 3.046875 -0.5625 C 2.8125 -0.3125 2.515625 -0.1875 2.15625 -0.1875 C 1.515625 -0.1875 1.125 -0.546875 1.125 -1.09375 C 1.125 -1.1875 1.125 -1.265625 1.15625 -1.40625 L 1.546875 -3.203125 C 1.734375 -4.0625 1.875 -4.703125 1.9375 -4.890625 C 2.109375 -5.328125 2.453125 -5.59375 2.875 -5.59375 C 3.296875 -5.59375 3.578125 -5.296875 3.578125 -4.859375 C 3.578125 -4.484375 3.453125 -4.265625 2.984375 -3.609375 C 2.75 -3.390625 2.609375 -3.28125 2.25 -3.28125 C 2.1875 -3.28125 2.109375 -3.28125 2.078125 -3.296875 C 2.015625 -3.3125 1.96875 -3.3125 1.890625 -3.3125 Z M 1.734375 -2.9375 "/>
</g>
</g>
<clipPath id="clip-0">
<path clip-rule="nonzero" d="M 250.4375 31.699219 L 252.402344 31.699219 L 252.402344 34.449219 L 250.4375 34.449219 Z M 250.4375 31.699219 "/>
</clipPath>
<clipPath id="clip-1">
<path clip-rule="nonzero" d="M 250.28125 6.199219 L 252.246094 6.199219 L 252.246094 8.949219 L 250.28125 8.949219 Z M 250.28125 6.199219 "/>
</clipPath>
<clipPath id="clip-2">
<path clip-rule="nonzero" d="M 273 20.226562 L 274.230469 20.226562 L 274.230469 22.804688 L 273 22.804688 Z M 273 20.226562 "/>
</clipPath>
<clipPath id="clip-3">
<path clip-rule="nonzero" d="M 294.589844 20.429688 L 296.554688 20.429688 L 296.554688 23.199219 L 294.589844 23.199219 Z M 294.589844 20.429688 "/>
</clipPath>
<clipPath id="clip-4">
<path clip-rule="nonzero" d="M 316.226562 31.699219 L 318.191406 31.699219 L 318.191406 34.449219 L 316.226562 34.449219 Z M 316.226562 31.699219 "/>
</clipPath>
<clipPath id="clip-5">
<path clip-rule="nonzero" d="M 316.070312 6.199219 L 318 6.199219 L 318 8.949219 L 316.070312 8.949219 Z M 316.070312 6.199219 "/>
</clipPath>
<clipPath id="clip-6">
<path clip-rule="nonzero" d="M 272.367188 20.738281 L 274.332031 20.738281 L 274.332031 23.488281 L 272.367188 23.488281 Z M 272.367188 20.738281 "/>
</clipPath>
<clipPath id="clip-7">
<path clip-rule="nonzero" d="M 228 21.144531 L 229.894531 21.144531 L 229.894531 23.894531 L 228 23.894531 Z M 228 21.144531 "/>
</clipPath>
<clipPath id="clip-8">
<path clip-rule="nonzero" d="M 282 2.027344 L 286 2.027344 L 286 6 L 282 6 Z M 282 2.027344 "/>
</clipPath>
<clipPath id="clip-9">
<path clip-rule="nonzero" d="M 98.832031 89.914062 L 100.796875 89.914062 L 100.796875 92.664062 L 98.832031 92.664062 Z M 98.832031 89.914062 "/>
</clipPath>
<clipPath id="clip-10">
<path clip-rule="nonzero" d="M 98.675781 64.414062 L 100.640625 64.414062 L 100.640625 67.164062 L 98.675781 67.164062 Z M 98.675781 64.414062 "/>
</clipPath>
<clipPath id="clip-11">
<path clip-rule="nonzero" d="M 121.214844 78.4375 L 122.621094 78.4375 L 122.621094 81.015625 L 121.214844 81.015625 Z M 121.214844 78.4375 "/>
</clipPath>
<clipPath id="clip-12">
<path clip-rule="nonzero" d="M 143 78.640625 L 144.953125 78.640625 L 144.953125 81.410156 L 143 81.410156 Z M 143 78.640625 "/>
</clipPath>
<clipPath id="clip-13">
<path clip-rule="nonzero" d="M 164.621094 89.914062 L 166.585938 89.914062 L 166.585938 92.664062 L 164.621094 92.664062 Z M 164.621094 89.914062 "/>
</clipPath>
<clipPath id="clip-14">
<path clip-rule="nonzero" d="M 164.460938 64.414062 L 166.425781 64.414062 L 166.425781 67.164062 L 164.460938 67.164062 Z M 164.460938 64.414062 "/>
</clipPath>
<clipPath id="clip-15">
<path clip-rule="nonzero" d="M 120.761719 78.949219 L 122.726562 78.949219 L 122.726562 81.699219 L 120.761719 81.699219 Z M 120.761719 78.949219 "/>
</clipPath>
<clipPath id="clip-16">
<path clip-rule="nonzero" d="M 76.324219 79.355469 L 78.289062 79.355469 L 78.289062 82.105469 L 76.324219 82.105469 Z M 76.324219 79.355469 "/>
</clipPath>
<clipPath id="clip-17">
<path clip-rule="nonzero" d="M 399.296875 89.246094 L 401.261719 89.246094 L 401.261719 91.996094 L 399.296875 91.996094 Z M 399.296875 89.246094 "/>
</clipPath>
<clipPath id="clip-18">
<path clip-rule="nonzero" d="M 399.140625 63.6875 L 401 63.6875 L 401 66.457031 L 399.140625 66.457031 Z M 399.140625 63.6875 "/>
</clipPath>
<clipPath id="clip-19">
<path clip-rule="nonzero" d="M 421.683594 77.773438 L 423 77.773438 L 423 80.351562 L 421.683594 80.351562 Z M 421.683594 77.773438 "/>
</clipPath>
<clipPath id="clip-20">
<path clip-rule="nonzero" d="M 443.453125 77.972656 L 445.417969 77.972656 L 445.417969 80.742188 L 443.453125 80.742188 Z M 443.453125 77.972656 "/>
</clipPath>
<clipPath id="clip-21">
<path clip-rule="nonzero" d="M 465.085938 89.246094 L 467 89.246094 L 467 91.996094 L 465.085938 91.996094 Z M 465.085938 89.246094 "/>
</clipPath>
<clipPath id="clip-22">
<path clip-rule="nonzero" d="M 465 63.6875 L 466.894531 63.6875 L 466.894531 66.457031 L 465 66.457031 Z M 465 63.6875 "/>
</clipPath>
<clipPath id="clip-23">
<path clip-rule="nonzero" d="M 421.226562 78.28125 L 423.191406 78.28125 L 423.191406 81.03125 L 421.226562 81.03125 Z M 421.226562 78.28125 "/>
</clipPath>
<clipPath id="clip-24">
<path clip-rule="nonzero" d="M 376.789062 78.691406 L 378.753906 78.691406 L 378.753906 81.441406 L 376.789062 81.441406 Z M 376.789062 78.691406 "/>
</clipPath>
<clipPath id="clip-25">
<path clip-rule="nonzero" d="M 43.050781 152.152344 L 45 152.152344 L 45 154.902344 L 43.050781 154.902344 Z M 43.050781 152.152344 "/>
</clipPath>
<clipPath id="clip-26">
<path clip-rule="nonzero" d="M 43 126.648438 L 44.859375 126.648438 L 44.859375 129.398438 L 43 129.398438 Z M 43 126.648438 "/>
</clipPath>
<clipPath id="clip-27">
<path clip-rule="nonzero" d="M 65.4375 140.675781 L 66.84375 140.675781 L 66.84375 143.253906 L 65.4375 143.253906 Z M 65.4375 140.675781 "/>
</clipPath>
<clipPath id="clip-28">
<path clip-rule="nonzero" d="M 87.207031 140.878906 L 89 140.878906 L 89 143.648438 L 87.207031 143.648438 Z M 87.207031 140.878906 "/>
</clipPath>
<clipPath id="clip-29">
<path clip-rule="nonzero" d="M 108.839844 152.152344 L 110.804688 152.152344 L 110.804688 154.902344 L 108.839844 154.902344 Z M 108.839844 152.152344 "/>
</clipPath>
<clipPath id="clip-30">
<path clip-rule="nonzero" d="M 108.683594 126.648438 L 110.648438 126.648438 L 110.648438 129.398438 L 108.683594 129.398438 Z M 108.683594 126.648438 "/>
</clipPath>
<clipPath id="clip-31">
<path clip-rule="nonzero" d="M 65 141.1875 L 66.945312 141.1875 L 66.945312 143.9375 L 65 143.9375 Z M 65 141.1875 "/>
</clipPath>
<clipPath id="clip-32">
<path clip-rule="nonzero" d="M 20.542969 141.59375 L 22.507812 141.59375 L 22.507812 144.34375 L 20.542969 144.34375 Z M 20.542969 141.59375 "/>
</clipPath>
<clipPath id="clip-33">
<path clip-rule="nonzero" d="M 152.046875 151.863281 L 154 151.863281 L 154 154.632812 L 152.046875 154.632812 Z M 152.046875 151.863281 "/>
</clipPath>
<clipPath id="clip-34">
<path clip-rule="nonzero" d="M 152 126.421875 L 153.855469 126.421875 L 153.855469 129.171875 L 152 129.171875 Z M 152 126.421875 "/>
</clipPath>
<clipPath id="clip-35">
<path clip-rule="nonzero" d="M 174.433594 140.445312 L 175.839844 140.445312 L 175.839844 143.023438 L 174.433594 143.023438 Z M 174.433594 140.445312 "/>
</clipPath>
<clipPath id="clip-36">
<path clip-rule="nonzero" d="M 196.203125 140.648438 L 198 140.648438 L 198 143.417969 L 196.203125 143.417969 Z M 196.203125 140.648438 "/>
</clipPath>
<clipPath id="clip-37">
<path clip-rule="nonzero" d="M 218 151.863281 L 219.800781 151.863281 L 219.800781 154.632812 L 218 154.632812 Z M 218 151.863281 "/>
</clipPath>
<clipPath id="clip-38">
<path clip-rule="nonzero" d="M 217.679688 126.421875 L 219.644531 126.421875 L 219.644531 129.171875 L 217.679688 129.171875 Z M 217.679688 126.421875 "/>
</clipPath>
<clipPath id="clip-39">
<path clip-rule="nonzero" d="M 174 140.957031 L 175.941406 140.957031 L 175.941406 143.707031 L 174 143.707031 Z M 174 140.957031 "/>
</clipPath>
<clipPath id="clip-40">
<path clip-rule="nonzero" d="M 129.539062 141.367188 L 131.503906 141.367188 L 131.503906 144.117188 L 129.539062 144.117188 Z M 129.539062 141.367188 "/>
</clipPath>
<clipPath id="clip-41">
<path clip-rule="nonzero" d="M 343.515625 151.484375 L 345.480469 151.484375 L 345.480469 154.234375 L 343.515625 154.234375 Z M 343.515625 151.484375 "/>
</clipPath>
<clipPath id="clip-42">
<path clip-rule="nonzero" d="M 343.363281 125.929688 L 345.328125 125.929688 L 345.328125 128.699219 L 343.363281 128.699219 Z M 343.363281 125.929688 "/>
</clipPath>
<clipPath id="clip-43">
<path clip-rule="nonzero" d="M 366 140.011719 L 367.308594 140.011719 L 367.308594 142.589844 L 366 142.589844 Z M 366 140.011719 "/>
</clipPath>
<clipPath id="clip-44">
<path clip-rule="nonzero" d="M 387.671875 140.210938 L 389.636719 140.210938 L 389.636719 142.980469 L 387.671875 142.980469 Z M 387.671875 140.210938 "/>
</clipPath>
<clipPath id="clip-45">
<path clip-rule="nonzero" d="M 409.304688 151.484375 L 411.269531 151.484375 L 411.269531 154.234375 L 409.304688 154.234375 Z M 409.304688 151.484375 "/>
</clipPath>
<clipPath id="clip-46">
<path clip-rule="nonzero" d="M 409.148438 125.929688 L 411 125.929688 L 411 128.699219 L 409.148438 128.699219 Z M 409.148438 125.929688 "/>
</clipPath>
<clipPath id="clip-47">
<path clip-rule="nonzero" d="M 365.445312 140.523438 L 367.410156 140.523438 L 367.410156 143.273438 L 365.445312 143.273438 Z M 365.445312 140.523438 "/>
</clipPath>
<clipPath id="clip-48">
<path clip-rule="nonzero" d="M 321.007812 140.929688 L 322.972656 140.929688 L 322.972656 143.679688 L 321.007812 143.679688 Z M 321.007812 140.929688 "/>
</clipPath>
<clipPath id="clip-49">
<path clip-rule="nonzero" d="M 452.511719 151.257812 L 454.476562 151.257812 L 454.476562 154.007812 L 452.511719 154.007812 Z M 452.511719 151.257812 "/>
</clipPath>
<clipPath id="clip-50">
<path clip-rule="nonzero" d="M 452.355469 125.699219 L 454 125.699219 L 454 128.46875 L 452.355469 128.46875 Z M 452.355469 125.699219 "/>
</clipPath>
<clipPath id="clip-51">
<path clip-rule="nonzero" d="M 475 139.78125 L 476.304688 139.78125 L 476.304688 142.359375 L 475 142.359375 Z M 475 139.78125 "/>
</clipPath>
<clipPath id="clip-52">
<path clip-rule="nonzero" d="M 496.667969 140.042969 L 498.632812 140.042969 L 498.632812 142.792969 L 496.667969 142.792969 Z M 496.667969 140.042969 "/>
</clipPath>
<clipPath id="clip-53">
<path clip-rule="nonzero" d="M 518.300781 151.257812 L 520.265625 151.257812 L 520.265625 154.007812 L 518.300781 154.007812 Z M 518.300781 151.257812 "/>
</clipPath>
<clipPath id="clip-54">
<path clip-rule="nonzero" d="M 518.144531 125.757812 L 520 125.757812 L 520 128.507812 L 518.144531 128.507812 Z M 518.144531 125.757812 "/>
</clipPath>
<clipPath id="clip-55">
<path clip-rule="nonzero" d="M 474.441406 140.292969 L 476.40625 140.292969 L 476.40625 143.042969 L 474.441406 143.042969 Z M 474.441406 140.292969 "/>
</clipPath>
<clipPath id="clip-56">
<path clip-rule="nonzero" d="M 430.003906 140.703125 L 431.96875 140.703125 L 431.96875 143.453125 L 430.003906 143.453125 Z M 430.003906 140.703125 "/>
</clipPath>
<clipPath id="clip-57">
<path clip-rule="nonzero" d="M 129 85.195312 L 133 85.195312 L 133 89 L 129 89 Z M 129 85.195312 "/>
</clipPath>
<clipPath id="clip-58">
<path clip-rule="nonzero" d="M 451 66.039062 L 455 66.039062 L 455 70 L 451 70 Z M 451 66.039062 "/>
</clipPath>
<clipPath id="clip-59">
<path clip-rule="nonzero" d="M 405 136.800781 L 409 136.800781 L 409 140.890625 L 405 140.890625 Z M 405 136.800781 "/>
</clipPath>
<clipPath id="clip-60">
<path clip-rule="nonzero" d="M 403.714844 218.011719 L 405.679688 218.011719 L 405.679688 220.761719 L 403.714844 220.761719 Z M 403.714844 218.011719 "/>
</clipPath>
<clipPath id="clip-61">
<path clip-rule="nonzero" d="M 403.558594 192.453125 L 405.523438 192.453125 L 405.523438 195.222656 L 403.558594 195.222656 Z M 403.558594 192.453125 "/>
</clipPath>
<clipPath id="clip-62">
<path clip-rule="nonzero" d="M 426.101562 206.535156 L 427.507812 206.535156 L 427.507812 209.113281 L 426.101562 209.113281 Z M 426.101562 206.535156 "/>
</clipPath>
<clipPath id="clip-63">
<path clip-rule="nonzero" d="M 448 206.738281 L 449.835938 206.738281 L 449.835938 209.507812 L 448 209.507812 Z M 448 206.738281 "/>
</clipPath>
<clipPath id="clip-64">
<path clip-rule="nonzero" d="M 469.503906 217.953125 L 471.46875 217.953125 L 471.46875 220.722656 L 469.503906 220.722656 Z M 469.503906 217.953125 "/>
</clipPath>
<clipPath id="clip-65">
<path clip-rule="nonzero" d="M 469.347656 192.511719 L 471.3125 192.511719 L 471.3125 195.261719 L 469.347656 195.261719 Z M 469.347656 192.511719 "/>
</clipPath>
<clipPath id="clip-66">
<path clip-rule="nonzero" d="M 425.644531 207.046875 L 427.609375 207.046875 L 427.609375 209.796875 L 425.644531 209.796875 Z M 425.644531 207.046875 "/>
</clipPath>
<clipPath id="clip-67">
<path clip-rule="nonzero" d="M 381.207031 207.457031 L 383.171875 207.457031 L 383.171875 210.207031 L 381.207031 210.207031 Z M 381.207031 207.457031 "/>
</clipPath>
<clipPath id="clip-68">
<path clip-rule="nonzero" d="M 184 136.242188 L 188 136.242188 L 188 140.332031 L 184 140.332031 Z M 184 136.242188 "/>
</clipPath>
<clipPath id="clip-69">
<path clip-rule="nonzero" d="M 76.628906 218.429688 L 78.59375 218.429688 L 78.59375 221.199219 L 76.628906 221.199219 Z M 76.628906 218.429688 "/>
</clipPath>
<clipPath id="clip-70">
<path clip-rule="nonzero" d="M 76.472656 192.988281 L 78.4375 192.988281 L 78.4375 195.738281 L 76.472656 195.738281 Z M 76.472656 192.988281 "/>
</clipPath>
<clipPath id="clip-71">
<path clip-rule="nonzero" d="M 99.011719 207.015625 L 100.417969 207.015625 L 100.417969 209.59375 L 99.011719 209.59375 Z M 99.011719 207.015625 "/>
</clipPath>
<clipPath id="clip-72">
<path clip-rule="nonzero" d="M 121 207.214844 L 122.746094 207.214844 L 122.746094 209.984375 L 121 209.984375 Z M 121 207.214844 "/>
</clipPath>
<clipPath id="clip-73">
<path clip-rule="nonzero" d="M 142.414062 218.429688 L 144.378906 218.429688 L 144.378906 221.199219 L 142.414062 221.199219 Z M 142.414062 218.429688 "/>
</clipPath>
<clipPath id="clip-74">
<path clip-rule="nonzero" d="M 142.257812 192.988281 L 144.222656 192.988281 L 144.222656 195.738281 L 142.257812 195.738281 Z M 142.257812 192.988281 "/>
</clipPath>
<clipPath id="clip-75">
<path clip-rule="nonzero" d="M 98.558594 207.523438 L 100.523438 207.523438 L 100.523438 210.273438 L 98.558594 210.273438 Z M 98.558594 207.523438 "/>
</clipPath>
<clipPath id="clip-76">
<path clip-rule="nonzero" d="M 54.121094 207.933594 L 56 207.933594 L 56 210.683594 L 54.121094 210.683594 Z M 54.121094 207.933594 "/>
</clipPath>
<clipPath id="clip-77">
<path clip-rule="nonzero" d="M 128 124.796875 L 132.570312 124.796875 L 132.570312 128.964844 L 128 128.964844 Z M 128 124.796875 "/>
</clipPath>
<clipPath id="clip-78">
<path clip-rule="nonzero" d="M 52.625 190.488281 L 57.632812 190.488281 L 57.632812 198.84375 L 52.625 198.84375 Z M 52.625 190.488281 "/>
</clipPath>
</defs>
<path fill-rule="evenodd" fill="rgb(100%, 51.4%, 98%)" fill-opacity="0.3" stroke-width="0.4" stroke-linecap="round" stroke-linejoin="round" stroke="rgb(0%, 0%, 0%)" stroke-opacity="1" stroke-miterlimit="10" d="M 442.78125 748.769531 L 442.78125 717.242188 C 442.78125 715.535156 441.074219 713.832031 439.371094 713.832031 L 345.710938 713.832031 C 344.003906 713.832031 342.296875 715.535156 342.296875 717.242188 L 342.296875 748.769531 C 342.296875 750.476562 344.003906 752.183594 345.710938 752.183594 L 439.371094 752.183594 C 441.074219 752.183594 442.78125 750.476562 442.78125 748.769531 Z M 442.78125 748.769531 " transform="matrix(1, 0, 0, -1, -119, 753)"/>
<path fill="none" stroke-width="0.4" stroke-linecap="round" stroke-linejoin="round" stroke="rgb(0%, 0%, 0%)" stroke-opacity="1" stroke-miterlimit="10" d="M 370.609375 720.214844 L 436.398438 720.214844 " transform="matrix(1, 0, 0, -1, -119, 753)"/>
<path fill="none" stroke-width="0.4" stroke-linecap="round" stroke-linejoin="round" stroke="rgb(0%, 0%, 0%)" stroke-opacity="1" stroke-miterlimit="10" d="M 370.609375 745.800781 L 436.398438 745.800781 " transform="matrix(1, 0, 0, -1, -119, 753)"/>
<path fill="none" stroke-width="0.4" stroke-linecap="round" stroke-linejoin="round" stroke="rgb(0%, 0%, 0%)" stroke-opacity="1" stroke-miterlimit="10" d="M 392.402344 730.929688 L 414.332031 730.929688 " transform="matrix(1, 0, 0, -1, -119, 753)"/>
<path fill-rule="evenodd" fill="rgb(74.5%, 74.5%, 74.5%)" fill-opacity="1" stroke-width="0.4" stroke-linecap="round" stroke-linejoin="round" stroke="rgb(0%, 0%, 0%)" stroke-opacity="1" stroke-miterlimit="10" d="M 374.265625 745.800781 C 374.265625 750.671875 366.957031 750.671875 366.957031 745.800781 C 366.957031 740.925781 374.265625 740.925781 374.265625 745.800781 Z M 374.265625 745.800781 " transform="matrix(1, 0, 0, -1, -119, 753)"/>
<path fill-rule="evenodd" fill="rgb(74.5%, 74.5%, 74.5%)" fill-opacity="1" stroke-width="0.4" stroke-linecap="round" stroke-linejoin="round" stroke="rgb(0%, 0%, 0%)" stroke-opacity="1" stroke-miterlimit="10" d="M 374.265625 720.214844 C 374.265625 725.089844 366.957031 725.089844 366.957031 720.214844 C 366.957031 715.34375 374.265625 715.34375 374.265625 720.214844 Z M 374.265625 720.214844 " transform="matrix(1, 0, 0, -1, -119, 753)"/>
<path fill="none" stroke-width="0.4" stroke-linecap="round" stroke-linejoin="round" stroke="rgb(0%, 0%, 0%)" stroke-opacity="1" stroke-miterlimit="10" d="M 370.609375 723.871094 L 370.609375 742.144531 " transform="matrix(1, 0, 0, -1, -119, 753)"/>
<path fill-rule="evenodd" fill="rgb(74.5%, 74.5%, 74.5%)" fill-opacity="1" stroke-width="0.4" stroke-linecap="round" stroke-linejoin="round" stroke="rgb(0%, 0%, 0%)" stroke-opacity="1" stroke-miterlimit="10" d="M 373.652344 743.769531 L 389.5 733.207031 " transform="matrix(1, 0, 0, -1, -119, 753)"/>
<path fill-rule="evenodd" fill="rgb(74.5%, 74.5%, 74.5%)" fill-opacity="1" stroke-width="0.4" stroke-linecap="round" stroke-linejoin="round" stroke="rgb(0%, 0%, 0%)" stroke-opacity="1" stroke-miterlimit="10" d="M 389.269531 729.546875 L 373.878906 721.847656 " transform="matrix(1, 0, 0, -1, -119, 753)"/>
<g clip-path="url(#clip-0)">
<g fill="rgb(0%, 0%, 0%)" fill-opacity="1">
<use xlink:href="#glyph-0-0" x="250.43837" y="34.388333"/>
</g>
</g>
<g clip-path="url(#clip-1)">
<g fill="rgb(0%, 0%, 0%)" fill-opacity="1">
<use xlink:href="#glyph-0-0" x="250.28237" y="8.887333"/>
</g>
</g>
<g clip-path="url(#clip-2)">
<g fill="rgb(0%, 0%, 0%)" fill-opacity="1">
<use xlink:href="#glyph-1-0" x="272.871482" y="22.767561"/>
</g>
</g>
<path fill-rule="evenodd" fill="rgb(74.5%, 74.5%, 74.5%)" fill-opacity="1" stroke-width="0.4" stroke-linecap="round" stroke-linejoin="round" stroke="rgb(0%, 0%, 0%)" stroke-opacity="1" stroke-miterlimit="10" d="M 418.125 731.179688 C 418.125 736.050781 410.8125 736.050781 410.8125 731.179688 C 410.8125 726.304688 418.125 726.304688 418.125 731.179688 Z M 418.125 731.179688 " transform="matrix(1, 0, 0, -1, -119, 753)"/>
<path fill-rule="evenodd" fill="rgb(74.5%, 74.5%, 74.5%)" fill-opacity="1" stroke-width="0.4" stroke-linecap="round" stroke-linejoin="round" stroke="rgb(0%, 0%, 0%)" stroke-opacity="1" stroke-miterlimit="10" d="M 440.050781 745.800781 C 440.050781 750.671875 432.742188 750.671875 432.742188 745.800781 C 432.742188 740.925781 440.050781 740.925781 440.050781 745.800781 Z M 440.050781 745.800781 " transform="matrix(1, 0, 0, -1, -119, 753)"/>
<path fill-rule="evenodd" fill="rgb(74.5%, 74.5%, 74.5%)" fill-opacity="1" stroke-width="0.4" stroke-linecap="round" stroke-linejoin="round" stroke="rgb(0%, 0%, 0%)" stroke-opacity="1" stroke-miterlimit="10" d="M 440.050781 720.214844 C 440.050781 725.089844 432.742188 725.089844 432.742188 720.214844 C 432.742188 715.34375 440.050781 715.34375 440.050781 720.214844 Z M 440.050781 720.214844 " transform="matrix(1, 0, 0, -1, -119, 753)"/>
<path fill-rule="evenodd" fill="rgb(74.5%, 74.5%, 74.5%)" fill-opacity="1" stroke-width="0.4" stroke-linecap="round" stroke-linejoin="round" stroke="rgb(0%, 0%, 0%)" stroke-opacity="1" stroke-miterlimit="10" d="M 417.511719 733.207031 L 433.355469 743.769531 " transform="matrix(1, 0, 0, -1, -119, 753)"/>
<path fill-rule="evenodd" fill="rgb(74.5%, 74.5%, 74.5%)" fill-opacity="1" stroke-width="0.4" stroke-linecap="round" stroke-linejoin="round" stroke="rgb(0%, 0%, 0%)" stroke-opacity="1" stroke-miterlimit="10" d="M 417.738281 729.546875 L 433.128906 721.847656 " transform="matrix(1, 0, 0, -1, -119, 753)"/>
<path fill="none" stroke-width="0.4" stroke-linecap="round" stroke-linejoin="round" stroke="rgb(0%, 0%, 0%)" stroke-opacity="1" stroke-miterlimit="10" d="M 436.398438 723.871094 L 436.398438 742.144531 " transform="matrix(1, 0, 0, -1, -119, 753)"/>
<g clip-path="url(#clip-3)">
<g fill="rgb(0%, 0%, 0%)" fill-opacity="1">
<use xlink:href="#glyph-2-0" x="294.59137" y="23.173789"/>
</g>
</g>
<g clip-path="url(#clip-4)">
<g fill="rgb(0%, 0%, 0%)" fill-opacity="1">
<use xlink:href="#glyph-0-0" x="316.22537" y="34.388333"/>
</g>
</g>
<g clip-path="url(#clip-5)">
<g fill="rgb(0%, 0%, 0%)" fill-opacity="1">
<use xlink:href="#glyph-0-0" x="316.06837" y="8.887333"/>
</g>
</g>
<path fill-rule="evenodd" fill="rgb(74.5%, 74.5%, 74.5%)" fill-opacity="1" stroke-width="0.4" stroke-linecap="round" stroke-linejoin="round" stroke="rgb(0%, 0%, 0%)" stroke-opacity="1" stroke-miterlimit="10" d="M 396.195312 731.179688 C 396.195312 736.050781 388.886719 736.050781 388.886719 731.179688 C 388.886719 726.304688 396.195312 726.304688 396.195312 731.179688 Z M 396.195312 731.179688 " transform="matrix(1, 0, 0, -1, -119, 753)"/>
<g clip-path="url(#clip-6)">
<g fill="rgb(0%, 0%, 0%)" fill-opacity="1">
<use xlink:href="#glyph-0-0" x="272.36737" y="23.424333"/>
</g>
</g>
<path fill-rule="evenodd" fill="rgb(74.5%, 74.5%, 74.5%)" fill-opacity="1" stroke-width="0.4" stroke-linecap="round" stroke-linejoin="round" stroke="rgb(0%, 0%, 0%)" stroke-opacity="1" stroke-miterlimit="10" d="M 352.335938 731.179688 C 352.335938 736.050781 345.027344 736.050781 345.027344 731.179688 C 345.027344 726.304688 352.335938 726.304688 352.335938 731.179688 Z M 352.335938 731.179688 " transform="matrix(1, 0, 0, -1, -119, 753)"/>
<path fill-rule="evenodd" fill="rgb(74.5%, 74.5%, 74.5%)" fill-opacity="1" stroke-width="0.4" stroke-linecap="round" stroke-linejoin="round" stroke="rgb(0%, 0%, 0%)" stroke-opacity="1" stroke-miterlimit="10" d="M 351.722656 733.207031 L 367.570312 743.769531 " transform="matrix(1, 0, 0, -1, -119, 753)"/>
<path fill-rule="evenodd" fill="rgb(74.5%, 74.5%, 74.5%)" fill-opacity="1" stroke-width="0.4" stroke-linecap="round" stroke-linejoin="round" stroke="rgb(0%, 0%, 0%)" stroke-opacity="1" stroke-miterlimit="10" d="M 351.949219 729.546875 L 367.339844 721.847656 " transform="matrix(1, 0, 0, -1, -119, 753)"/>
<g clip-path="url(#clip-7)">
<g fill="rgb(0%, 0%, 0%)" fill-opacity="1">
<use xlink:href="#glyph-0-0" x="227.93037" y="23.833333"/>
</g>
</g>
<g clip-path="url(#clip-8)">
<g fill="rgb(0%, 0%, 0%)" fill-opacity="1">
<use xlink:href="#glyph-3-0" x="282.062326" y="6.117381"/>
</g>
</g>
<path fill-rule="evenodd" fill="rgb(100%, 51.4%, 98%)" fill-opacity="0.3" stroke-width="0.4" stroke-linecap="round" stroke-linejoin="round" stroke="rgb(0%, 0%, 0%)" stroke-opacity="1" stroke-miterlimit="10" d="M 291.175781 690.558594 L 291.175781 659.03125 C 291.175781 657.324219 289.46875 655.621094 287.761719 655.621094 L 194.101562 655.621094 C 192.398438 655.621094 190.691406 657.324219 190.691406 659.03125 L 190.691406 690.558594 C 190.691406 692.265625 192.398438 693.972656 194.101562 693.972656 L 287.761719 693.972656 C 289.46875 693.972656 291.175781 692.265625 291.175781 690.558594 Z M 291.175781 690.558594 " transform="matrix(1, 0, 0, -1, -119, 753)"/>
<path fill="none" stroke-width="0.4" stroke-linecap="round" stroke-linejoin="round" stroke="rgb(0%, 0%, 0%)" stroke-opacity="1" stroke-miterlimit="10" d="M 219.003906 662.003906 L 284.792969 662.003906 " transform="matrix(1, 0, 0, -1, -119, 753)"/>
<path fill="none" stroke-width="0.4" stroke-linecap="round" stroke-linejoin="round" stroke="rgb(0%, 0%, 0%)" stroke-opacity="1" stroke-miterlimit="10" d="M 240.796875 672.71875 L 262.726562 672.71875 " transform="matrix(1, 0, 0, -1, -119, 753)"/>
<path fill-rule="evenodd" fill="rgb(74.5%, 74.5%, 74.5%)" fill-opacity="1" stroke-width="0.4" stroke-linecap="round" stroke-linejoin="round" stroke="rgb(0%, 0%, 0%)" stroke-opacity="1" stroke-miterlimit="10" d="M 222.660156 687.585938 C 222.660156 692.460938 215.351562 692.460938 215.351562 687.585938 C 215.351562 682.714844 222.660156 682.714844 222.660156 687.585938 Z M 222.660156 687.585938 " transform="matrix(1, 0, 0, -1, -119, 753)"/>
<path fill-rule="evenodd" fill="rgb(74.5%, 74.5%, 74.5%)" fill-opacity="1" stroke-width="0.4" stroke-linecap="round" stroke-linejoin="round" stroke="rgb(0%, 0%, 0%)" stroke-opacity="1" stroke-miterlimit="10" d="M 222.660156 662.003906 C 222.660156 666.878906 215.351562 666.878906 215.351562 662.003906 C 215.351562 657.132812 222.660156 657.132812 222.660156 662.003906 Z M 222.660156 662.003906 " transform="matrix(1, 0, 0, -1, -119, 753)"/>
<path fill="none" stroke-width="0.4" stroke-linecap="round" stroke-linejoin="round" stroke="rgb(0%, 0%, 0%)" stroke-opacity="1" stroke-miterlimit="10" d="M 219.003906 665.660156 L 219.003906 683.933594 " transform="matrix(1, 0, 0, -1, -119, 753)"/>
<path fill-rule="evenodd" fill="rgb(74.5%, 74.5%, 74.5%)" fill-opacity="1" stroke-width="0.4" stroke-linecap="round" stroke-linejoin="round" stroke="rgb(0%, 0%, 0%)" stroke-opacity="1" stroke-miterlimit="10" d="M 222.046875 685.558594 L 237.894531 674.996094 " transform="matrix(1, 0, 0, -1, -119, 753)"/>
<path fill-rule="evenodd" fill="rgb(74.5%, 74.5%, 74.5%)" fill-opacity="1" stroke-width="0.4" stroke-linecap="round" stroke-linejoin="round" stroke="rgb(0%, 0%, 0%)" stroke-opacity="1" stroke-miterlimit="10" d="M 237.664062 671.335938 L 222.273438 663.636719 " transform="matrix(1, 0, 0, -1, -119, 753)"/>
<g clip-path="url(#clip-9)">
<g fill="rgb(0%, 0%, 0%)" fill-opacity="1">
<use xlink:href="#glyph-0-0" x="98.83237" y="92.599333"/>
</g>
</g>
<g clip-path="url(#clip-10)">
<g fill="rgb(0%, 0%, 0%)" fill-opacity="1">
<use xlink:href="#glyph-0-0" x="98.67637" y="67.099333"/>
</g>
</g>
<g clip-path="url(#clip-11)">
<g fill="rgb(0%, 0%, 0%)" fill-opacity="1">
<use xlink:href="#glyph-1-0" x="121.265482" y="80.978561"/>
</g>
</g>
<path fill-rule="evenodd" fill="rgb(74.5%, 74.5%, 74.5%)" fill-opacity="1" stroke-width="0.4" stroke-linecap="round" stroke-linejoin="round" stroke="rgb(0%, 0%, 0%)" stroke-opacity="1" stroke-miterlimit="10" d="M 266.519531 672.96875 C 266.519531 677.839844 259.207031 677.839844 259.207031 672.96875 C 259.207031 668.09375 266.519531 668.09375 266.519531 672.96875 Z M 266.519531 672.96875 " transform="matrix(1, 0, 0, -1, -119, 753)"/>
<path fill-rule="evenodd" fill="rgb(74.5%, 74.5%, 74.5%)" fill-opacity="1" stroke-width="0.4" stroke-linecap="round" stroke-linejoin="round" stroke="rgb(0%, 0%, 0%)" stroke-opacity="1" stroke-miterlimit="10" d="M 288.445312 687.585938 C 288.445312 692.460938 281.136719 692.460938 281.136719 687.585938 C 281.136719 682.714844 288.445312 682.714844 288.445312 687.585938 Z M 288.445312 687.585938 " transform="matrix(1, 0, 0, -1, -119, 753)"/>
<path fill-rule="evenodd" fill="rgb(74.5%, 74.5%, 74.5%)" fill-opacity="1" stroke-width="0.4" stroke-linecap="round" stroke-linejoin="round" stroke="rgb(0%, 0%, 0%)" stroke-opacity="1" stroke-miterlimit="10" d="M 288.445312 662.003906 C 288.445312 666.878906 281.136719 666.878906 281.136719 662.003906 C 281.136719 657.132812 288.445312 657.132812 288.445312 662.003906 Z M 288.445312 662.003906 " transform="matrix(1, 0, 0, -1, -119, 753)"/>
<path fill-rule="evenodd" fill="rgb(74.5%, 74.5%, 74.5%)" fill-opacity="1" stroke-width="0.4" stroke-linecap="round" stroke-linejoin="round" stroke="rgb(0%, 0%, 0%)" stroke-opacity="1" stroke-miterlimit="10" d="M 265.902344 674.996094 L 281.75 685.558594 " transform="matrix(1, 0, 0, -1, -119, 753)"/>
<path fill-rule="evenodd" fill="rgb(74.5%, 74.5%, 74.5%)" fill-opacity="1" stroke-width="0.4" stroke-linecap="round" stroke-linejoin="round" stroke="rgb(0%, 0%, 0%)" stroke-opacity="1" stroke-miterlimit="10" d="M 266.132812 671.335938 L 281.523438 663.636719 " transform="matrix(1, 0, 0, -1, -119, 753)"/>
<path fill="none" stroke-width="0.4" stroke-linecap="round" stroke-linejoin="round" stroke="rgb(0%, 0%, 0%)" stroke-opacity="1" stroke-miterlimit="10" d="M 284.792969 665.660156 L 284.792969 683.933594 " transform="matrix(1, 0, 0, -1, -119, 753)"/>
<g clip-path="url(#clip-12)">
<g fill="rgb(0%, 0%, 0%)" fill-opacity="1">
<use xlink:href="#glyph-2-0" x="142.98637" y="81.384789"/>
</g>
</g>
<g clip-path="url(#clip-13)">
<g fill="rgb(0%, 0%, 0%)" fill-opacity="1">
<use xlink:href="#glyph-0-0" x="164.61937" y="92.599333"/>
</g>
</g>
<g clip-path="url(#clip-14)">
<g fill="rgb(0%, 0%, 0%)" fill-opacity="1">
<use xlink:href="#glyph-0-0" x="164.46237" y="67.099333"/>
</g>
</g>
<path fill-rule="evenodd" fill="rgb(74.5%, 74.5%, 74.5%)" fill-opacity="1" stroke-width="0.4" stroke-linecap="round" stroke-linejoin="round" stroke="rgb(0%, 0%, 0%)" stroke-opacity="1" stroke-miterlimit="10" d="M 244.589844 672.96875 C 244.589844 677.839844 237.277344 677.839844 237.277344 672.96875 C 237.277344 668.09375 244.589844 668.09375 244.589844 672.96875 Z M 244.589844 672.96875 " transform="matrix(1, 0, 0, -1, -119, 753)"/>
<g clip-path="url(#clip-15)">
<g fill="rgb(0%, 0%, 0%)" fill-opacity="1">
<use xlink:href="#glyph-0-0" x="120.76137" y="81.635333"/>
</g>
</g>
<path fill-rule="evenodd" fill="rgb(74.5%, 74.5%, 74.5%)" fill-opacity="1" stroke-width="0.4" stroke-linecap="round" stroke-linejoin="round" stroke="rgb(0%, 0%, 0%)" stroke-opacity="1" stroke-miterlimit="10" d="M 200.730469 672.96875 C 200.730469 677.839844 193.421875 677.839844 193.421875 672.96875 C 193.421875 668.09375 200.730469 668.09375 200.730469 672.96875 Z M 200.730469 672.96875 " transform="matrix(1, 0, 0, -1, -119, 753)"/>
<path fill-rule="evenodd" fill="rgb(74.5%, 74.5%, 74.5%)" fill-opacity="1" stroke-width="0.4" stroke-linecap="round" stroke-linejoin="round" stroke="rgb(0%, 0%, 0%)" stroke-opacity="1" stroke-miterlimit="10" d="M 200.117188 674.996094 L 215.964844 685.558594 " transform="matrix(1, 0, 0, -1, -119, 753)"/>
<path fill-rule="evenodd" fill="rgb(74.5%, 74.5%, 74.5%)" fill-opacity="1" stroke-width="0.4" stroke-linecap="round" stroke-linejoin="round" stroke="rgb(0%, 0%, 0%)" stroke-opacity="1" stroke-miterlimit="10" d="M 200.34375 671.335938 L 215.734375 663.636719 " transform="matrix(1, 0, 0, -1, -119, 753)"/>
<g clip-path="url(#clip-16)">
<g fill="rgb(0%, 0%, 0%)" fill-opacity="1">
<use xlink:href="#glyph-0-0" x="76.32437" y="82.044333"/>
</g>
</g>
<path fill-rule="evenodd" fill="rgb(100%, 51.4%, 98%)" fill-opacity="0.3" stroke-width="0.4" stroke-linecap="round" stroke-linejoin="round" stroke="rgb(0%, 0%, 0%)" stroke-opacity="1" stroke-miterlimit="10" d="M 591.640625 691.226562 L 591.640625 659.695312 C 591.640625 657.992188 589.933594 656.285156 588.230469 656.285156 L 494.570312 656.285156 C 492.863281 656.285156 491.15625 657.992188 491.15625 659.695312 L 491.15625 691.226562 C 491.15625 692.929688 492.863281 694.636719 494.570312 694.636719 L 588.230469 694.636719 C 589.933594 694.636719 591.640625 692.929688 591.640625 691.226562 Z M 591.640625 691.226562 " transform="matrix(1, 0, 0, -1, -119, 753)"/>
<path fill="none" stroke-width="0.4" stroke-linecap="round" stroke-linejoin="round" stroke="rgb(0%, 0%, 0%)" stroke-opacity="1" stroke-miterlimit="10" d="M 519.46875 662.667969 L 585.257812 662.667969 " transform="matrix(1, 0, 0, -1, -119, 753)"/>
<path fill="none" stroke-width="0.4" stroke-linecap="round" stroke-linejoin="round" stroke="rgb(0%, 0%, 0%)" stroke-opacity="1" stroke-miterlimit="10" d="M 541.261719 673.382812 L 563.191406 673.382812 " transform="matrix(1, 0, 0, -1, -119, 753)"/>
<path fill-rule="evenodd" fill="rgb(74.5%, 74.5%, 74.5%)" fill-opacity="1" stroke-width="0.4" stroke-linecap="round" stroke-linejoin="round" stroke="rgb(0%, 0%, 0%)" stroke-opacity="1" stroke-miterlimit="10" d="M 523.125 688.253906 C 523.125 693.125 515.816406 693.125 515.816406 688.253906 C 515.816406 683.378906 523.125 683.378906 523.125 688.253906 Z M 523.125 688.253906 " transform="matrix(1, 0, 0, -1, -119, 753)"/>
<path fill-rule="evenodd" fill="rgb(74.5%, 74.5%, 74.5%)" fill-opacity="1" stroke-width="0.4" stroke-linecap="round" stroke-linejoin="round" stroke="rgb(0%, 0%, 0%)" stroke-opacity="1" stroke-miterlimit="10" d="M 523.125 662.667969 C 523.125 667.542969 515.816406 667.542969 515.816406 662.667969 C 515.816406 657.796875 523.125 657.796875 523.125 662.667969 Z M 523.125 662.667969 " transform="matrix(1, 0, 0, -1, -119, 753)"/>
<path fill="none" stroke-width="0.4" stroke-linecap="round" stroke-linejoin="round" stroke="rgb(0%, 0%, 0%)" stroke-opacity="1" stroke-miterlimit="10" d="M 519.472656 666.324219 L 519.472656 684.597656 " transform="matrix(1, 0, 0, -1, -119, 753)"/>
<path fill-rule="evenodd" fill="rgb(74.5%, 74.5%, 74.5%)" fill-opacity="1" stroke-width="0.4" stroke-linecap="round" stroke-linejoin="round" stroke="rgb(0%, 0%, 0%)" stroke-opacity="1" stroke-miterlimit="10" d="M 522.511719 686.226562 L 538.359375 675.660156 " transform="matrix(1, 0, 0, -1, -119, 753)"/>
<path fill-rule="evenodd" fill="rgb(74.5%, 74.5%, 74.5%)" fill-opacity="1" stroke-width="0.4" stroke-linecap="round" stroke-linejoin="round" stroke="rgb(0%, 0%, 0%)" stroke-opacity="1" stroke-miterlimit="10" d="M 538.128906 672 L 522.738281 664.304688 " transform="matrix(1, 0, 0, -1, -119, 753)"/>
<g clip-path="url(#clip-17)">
<g fill="rgb(0%, 0%, 0%)" fill-opacity="1">
<use xlink:href="#glyph-0-0" x="399.29837" y="91.934333"/>
</g>
</g>
<g clip-path="url(#clip-18)">
<g fill="rgb(0%, 0%, 0%)" fill-opacity="1">
<use xlink:href="#glyph-2-0" x="399.14237" y="66.434789"/>
</g>
</g>
<g clip-path="url(#clip-19)">
<g fill="rgb(0%, 0%, 0%)" fill-opacity="1">
<use xlink:href="#glyph-1-0" x="421.731482" y="80.313561"/>
</g>
</g>
<path fill-rule="evenodd" fill="rgb(74.5%, 74.5%, 74.5%)" fill-opacity="1" stroke-width="0.4" stroke-linecap="round" stroke-linejoin="round" stroke="rgb(0%, 0%, 0%)" stroke-opacity="1" stroke-miterlimit="10" d="M 566.984375 673.632812 C 566.984375 678.507812 559.671875 678.507812 559.671875 673.632812 C 559.671875 668.761719 566.984375 668.761719 566.984375 673.632812 Z M 566.984375 673.632812 " transform="matrix(1, 0, 0, -1, -119, 753)"/>
<path fill-rule="evenodd" fill="rgb(74.5%, 74.5%, 74.5%)" fill-opacity="1" stroke-width="0.4" stroke-linecap="round" stroke-linejoin="round" stroke="rgb(0%, 0%, 0%)" stroke-opacity="1" stroke-miterlimit="10" d="M 588.910156 688.253906 C 588.910156 693.125 581.601562 693.125 581.601562 688.253906 C 581.601562 683.378906 588.910156 683.378906 588.910156 688.253906 Z M 588.910156 688.253906 " transform="matrix(1, 0, 0, -1, -119, 753)"/>
<path fill-rule="evenodd" fill="rgb(74.5%, 74.5%, 74.5%)" fill-opacity="1" stroke-width="0.4" stroke-linecap="round" stroke-linejoin="round" stroke="rgb(0%, 0%, 0%)" stroke-opacity="1" stroke-miterlimit="10" d="M 588.910156 662.667969 C 588.910156 667.542969 581.601562 667.542969 581.601562 662.667969 C 581.601562 657.796875 588.910156 657.796875 588.910156 662.667969 Z M 588.910156 662.667969 " transform="matrix(1, 0, 0, -1, -119, 753)"/>
<path fill-rule="evenodd" fill="rgb(74.5%, 74.5%, 74.5%)" fill-opacity="1" stroke-width="0.4" stroke-linecap="round" stroke-linejoin="round" stroke="rgb(0%, 0%, 0%)" stroke-opacity="1" stroke-miterlimit="10" d="M 566.367188 675.660156 L 582.214844 686.226562 " transform="matrix(1, 0, 0, -1, -119, 753)"/>
<path fill-rule="evenodd" fill="rgb(74.5%, 74.5%, 74.5%)" fill-opacity="1" stroke-width="0.4" stroke-linecap="round" stroke-linejoin="round" stroke="rgb(0%, 0%, 0%)" stroke-opacity="1" stroke-miterlimit="10" d="M 566.597656 672 L 581.988281 664.304688 " transform="matrix(1, 0, 0, -1, -119, 753)"/>
<path fill="none" stroke-width="0.4" stroke-linecap="round" stroke-linejoin="round" stroke="rgb(0%, 0%, 0%)" stroke-opacity="1" stroke-miterlimit="10" d="M 585.257812 666.324219 L 585.257812 684.597656 " transform="matrix(1, 0, 0, -1, -119, 753)"/>
<g clip-path="url(#clip-20)">
<g fill="rgb(0%, 0%, 0%)" fill-opacity="1">
<use xlink:href="#glyph-2-0" x="443.45137" y="80.719789"/>
</g>
</g>
<g clip-path="url(#clip-21)">
<g fill="rgb(0%, 0%, 0%)" fill-opacity="1">
<use xlink:href="#glyph-0-0" x="465.08537" y="91.934333"/>
</g>
</g>
<g clip-path="url(#clip-22)">
<g fill="rgb(0%, 0%, 0%)" fill-opacity="1">
<use xlink:href="#glyph-2-0" x="464.92837" y="66.434789"/>
</g>
</g>
<path fill-rule="evenodd" fill="rgb(74.5%, 74.5%, 74.5%)" fill-opacity="1" stroke-width="0.4" stroke-linecap="round" stroke-linejoin="round" stroke="rgb(0%, 0%, 0%)" stroke-opacity="1" stroke-miterlimit="10" d="M 545.054688 673.632812 C 545.054688 678.507812 537.746094 678.507812 537.746094 673.632812 C 537.746094 668.761719 545.054688 668.761719 545.054688 673.632812 Z M 545.054688 673.632812 " transform="matrix(1, 0, 0, -1, -119, 753)"/>
<g clip-path="url(#clip-23)">
<g fill="rgb(0%, 0%, 0%)" fill-opacity="1">
<use xlink:href="#glyph-0-0" x="421.22737" y="80.970333"/>
</g>
</g>
<path fill-rule="evenodd" fill="rgb(74.5%, 74.5%, 74.5%)" fill-opacity="1" stroke-width="0.4" stroke-linecap="round" stroke-linejoin="round" stroke="rgb(0%, 0%, 0%)" stroke-opacity="1" stroke-miterlimit="10" d="M 501.195312 673.632812 C 501.195312 678.507812 493.886719 678.507812 493.886719 673.632812 C 493.886719 668.761719 501.195312 668.761719 501.195312 673.632812 Z M 501.195312 673.632812 " transform="matrix(1, 0, 0, -1, -119, 753)"/>
<path fill-rule="evenodd" fill="rgb(74.5%, 74.5%, 74.5%)" fill-opacity="1" stroke-width="0.4" stroke-linecap="round" stroke-linejoin="round" stroke="rgb(0%, 0%, 0%)" stroke-opacity="1" stroke-miterlimit="10" d="M 500.582031 675.660156 L 516.429688 686.226562 " transform="matrix(1, 0, 0, -1, -119, 753)"/>
<path fill-rule="evenodd" fill="rgb(74.5%, 74.5%, 74.5%)" fill-opacity="1" stroke-width="0.4" stroke-linecap="round" stroke-linejoin="round" stroke="rgb(0%, 0%, 0%)" stroke-opacity="1" stroke-miterlimit="10" d="M 500.8125 672 L 516.203125 664.304688 " transform="matrix(1, 0, 0, -1, -119, 753)"/>
<g clip-path="url(#clip-24)">
<g fill="rgb(0%, 0%, 0%)" fill-opacity="1">
<use xlink:href="#glyph-0-0" x="376.79037" y="81.379333"/>
</g>
</g>
<path fill-rule="evenodd" fill="rgb(100%, 51.4%, 98%)" fill-opacity="0.3" stroke-width="0.4" stroke-linecap="round" stroke-linejoin="round" stroke="rgb(0%, 0%, 0%)" stroke-opacity="1" stroke-miterlimit="10" d="M 235.394531 628.320312 L 235.394531 596.792969 C 235.394531 595.085938 233.691406 593.382812 231.984375 593.382812 L 138.324219 593.382812 C 136.617188 593.382812 134.910156 595.085938 134.910156 596.792969 L 134.910156 628.320312 C 134.910156 630.027344 136.617188 631.734375 138.324219 631.734375 L 231.984375 631.734375 C 233.691406 631.734375 235.394531 630.027344 235.394531 628.320312 Z M 235.394531 628.320312 " transform="matrix(1, 0, 0, -1, -119, 753)"/>
<path fill="none" stroke-width="0.4" stroke-linecap="round" stroke-linejoin="round" stroke="rgb(0%, 0%, 0%)" stroke-opacity="1" stroke-miterlimit="10" d="M 185.015625 610.480469 L 206.945312 610.480469 " transform="matrix(1, 0, 0, -1, -119, 753)"/>
<path fill-rule="evenodd" fill="rgb(74.5%, 74.5%, 74.5%)" fill-opacity="1" stroke-width="0.4" stroke-linecap="round" stroke-linejoin="round" stroke="rgb(0%, 0%, 0%)" stroke-opacity="1" stroke-miterlimit="10" d="M 166.878906 625.347656 C 166.878906 630.222656 159.570312 630.222656 159.570312 625.347656 C 159.570312 620.476562 166.878906 620.476562 166.878906 625.347656 Z M 166.878906 625.347656 " transform="matrix(1, 0, 0, -1, -119, 753)"/>
<path fill-rule="evenodd" fill="rgb(74.5%, 74.5%, 74.5%)" fill-opacity="1" stroke-width="0.4" stroke-linecap="round" stroke-linejoin="round" stroke="rgb(0%, 0%, 0%)" stroke-opacity="1" stroke-miterlimit="10" d="M 166.878906 599.765625 C 166.878906 604.640625 159.570312 604.640625 159.570312 599.765625 C 159.570312 594.894531 166.878906 594.894531 166.878906 599.765625 Z M 166.878906 599.765625 " transform="matrix(1, 0, 0, -1, -119, 753)"/>
<path fill="none" stroke-width="0.4" stroke-linecap="round" stroke-linejoin="round" stroke="rgb(0%, 0%, 0%)" stroke-opacity="1" stroke-miterlimit="10" d="M 163.222656 603.421875 L 163.222656 621.695312 " transform="matrix(1, 0, 0, -1, -119, 753)"/>
<path fill-rule="evenodd" fill="rgb(74.5%, 74.5%, 74.5%)" fill-opacity="1" stroke-width="0.4" stroke-linecap="round" stroke-linejoin="round" stroke="rgb(0%, 0%, 0%)" stroke-opacity="1" stroke-miterlimit="10" d="M 166.265625 623.324219 L 182.113281 612.757812 " transform="matrix(1, 0, 0, -1, -119, 753)"/>
<path fill-rule="evenodd" fill="rgb(74.5%, 74.5%, 74.5%)" fill-opacity="1" stroke-width="0.4" stroke-linecap="round" stroke-linejoin="round" stroke="rgb(0%, 0%, 0%)" stroke-opacity="1" stroke-miterlimit="10" d="M 181.882812 609.097656 L 166.492188 601.398438 " transform="matrix(1, 0, 0, -1, -119, 753)"/>
<g clip-path="url(#clip-25)">
<g fill="rgb(0%, 0%, 0%)" fill-opacity="1">
<use xlink:href="#glyph-0-0" x="43.05237" y="154.838333"/>
</g>
</g>
<g clip-path="url(#clip-26)">
<g fill="rgb(0%, 0%, 0%)" fill-opacity="1">
<use xlink:href="#glyph-0-0" x="42.89637" y="129.337333"/>
</g>
</g>
<g clip-path="url(#clip-27)">
<g fill="rgb(0%, 0%, 0%)" fill-opacity="1">
<use xlink:href="#glyph-1-0" x="65.485482" y="143.216561"/>
</g>
</g>
<path fill-rule="evenodd" fill="rgb(74.5%, 74.5%, 74.5%)" fill-opacity="1" stroke-width="0.4" stroke-linecap="round" stroke-linejoin="round" stroke="rgb(0%, 0%, 0%)" stroke-opacity="1" stroke-miterlimit="10" d="M 210.738281 610.730469 C 210.738281 615.601562 203.425781 615.601562 203.425781 610.730469 C 203.425781 605.855469 210.738281 605.855469 210.738281 610.730469 Z M 210.738281 610.730469 " transform="matrix(1, 0, 0, -1, -119, 753)"/>
<path fill-rule="evenodd" fill="rgb(74.5%, 74.5%, 74.5%)" fill-opacity="1" stroke-width="0.4" stroke-linecap="round" stroke-linejoin="round" stroke="rgb(0%, 0%, 0%)" stroke-opacity="1" stroke-miterlimit="10" d="M 232.664062 625.347656 C 232.664062 630.222656 225.355469 630.222656 225.355469 625.347656 C 225.355469 620.476562 232.664062 620.476562 232.664062 625.347656 Z M 232.664062 625.347656 " transform="matrix(1, 0, 0, -1, -119, 753)"/>
<path fill-rule="evenodd" fill="rgb(74.5%, 74.5%, 74.5%)" fill-opacity="1" stroke-width="0.4" stroke-linecap="round" stroke-linejoin="round" stroke="rgb(0%, 0%, 0%)" stroke-opacity="1" stroke-miterlimit="10" d="M 232.664062 599.765625 C 232.664062 604.640625 225.355469 604.640625 225.355469 599.765625 C 225.355469 594.894531 232.664062 594.894531 232.664062 599.765625 Z M 232.664062 599.765625 " transform="matrix(1, 0, 0, -1, -119, 753)"/>
<path fill-rule="evenodd" fill="rgb(74.5%, 74.5%, 74.5%)" fill-opacity="1" stroke-width="0.4" stroke-linecap="round" stroke-linejoin="round" stroke="rgb(0%, 0%, 0%)" stroke-opacity="1" stroke-miterlimit="10" d="M 210.121094 612.757812 L 225.96875 623.324219 " transform="matrix(1, 0, 0, -1, -119, 753)"/>
<path fill-rule="evenodd" fill="rgb(74.5%, 74.5%, 74.5%)" fill-opacity="1" stroke-width="0.4" stroke-linecap="round" stroke-linejoin="round" stroke="rgb(0%, 0%, 0%)" stroke-opacity="1" stroke-miterlimit="10" d="M 210.351562 609.097656 L 225.742188 601.398438 " transform="matrix(1, 0, 0, -1, -119, 753)"/>
<path fill="none" stroke-width="0.4" stroke-linecap="round" stroke-linejoin="round" stroke="rgb(0%, 0%, 0%)" stroke-opacity="1" stroke-miterlimit="10" d="M 229.011719 603.421875 L 229.011719 621.695312 " transform="matrix(1, 0, 0, -1, -119, 753)"/>
<g clip-path="url(#clip-28)">
<g fill="rgb(0%, 0%, 0%)" fill-opacity="1">
<use xlink:href="#glyph-2-0" x="87.20537" y="143.623789"/>
</g>
</g>
<g clip-path="url(#clip-29)">
<g fill="rgb(0%, 0%, 0%)" fill-opacity="1">
<use xlink:href="#glyph-0-0" x="108.83937" y="154.838333"/>
</g>
</g>
<g clip-path="url(#clip-30)">
<g fill="rgb(0%, 0%, 0%)" fill-opacity="1">
<use xlink:href="#glyph-0-0" x="108.68237" y="129.337333"/>
</g>
</g>
<path fill-rule="evenodd" fill="rgb(74.5%, 74.5%, 74.5%)" fill-opacity="1" stroke-width="0.4" stroke-linecap="round" stroke-linejoin="round" stroke="rgb(0%, 0%, 0%)" stroke-opacity="1" stroke-miterlimit="10" d="M 188.808594 610.730469 C 188.808594 615.601562 181.5 615.601562 181.5 610.730469 C 181.5 605.855469 188.808594 605.855469 188.808594 610.730469 Z M 188.808594 610.730469 " transform="matrix(1, 0, 0, -1, -119, 753)"/>
<g clip-path="url(#clip-31)">
<g fill="rgb(0%, 0%, 0%)" fill-opacity="1">
<use xlink:href="#glyph-0-0" x="64.98137" y="143.874333"/>
</g>
</g>
<path fill-rule="evenodd" fill="rgb(74.5%, 74.5%, 74.5%)" fill-opacity="1" stroke-width="0.4" stroke-linecap="round" stroke-linejoin="round" stroke="rgb(0%, 0%, 0%)" stroke-opacity="1" stroke-miterlimit="10" d="M 144.949219 610.730469 C 144.949219 615.601562 137.640625 615.601562 137.640625 610.730469 C 137.640625 605.855469 144.949219 605.855469 144.949219 610.730469 Z M 144.949219 610.730469 " transform="matrix(1, 0, 0, -1, -119, 753)"/>
<path fill-rule="evenodd" fill="rgb(74.5%, 74.5%, 74.5%)" fill-opacity="1" stroke-width="0.4" stroke-linecap="round" stroke-linejoin="round" stroke="rgb(0%, 0%, 0%)" stroke-opacity="1" stroke-miterlimit="10" d="M 144.335938 612.757812 L 160.183594 623.324219 " transform="matrix(1, 0, 0, -1, -119, 753)"/>
<path fill-rule="evenodd" fill="rgb(74.5%, 74.5%, 74.5%)" fill-opacity="1" stroke-width="0.4" stroke-linecap="round" stroke-linejoin="round" stroke="rgb(0%, 0%, 0%)" stroke-opacity="1" stroke-miterlimit="10" d="M 144.566406 609.097656 L 159.957031 601.398438 " transform="matrix(1, 0, 0, -1, -119, 753)"/>
<g clip-path="url(#clip-32)">
<g fill="rgb(0%, 0%, 0%)" fill-opacity="1">
<use xlink:href="#glyph-0-0" x="20.54447" y="144.282333"/>
</g>
</g>
<path fill-rule="evenodd" fill="rgb(100%, 51.4%, 98%)" fill-opacity="0.3" stroke-width="0.4" stroke-linecap="round" stroke-linejoin="round" stroke="rgb(0%, 0%, 0%)" stroke-opacity="1" stroke-miterlimit="10" d="M 344.390625 628.550781 L 344.390625 597.023438 C 344.390625 595.316406 342.683594 593.609375 340.980469 593.609375 L 247.320312 593.609375 C 245.613281 593.609375 243.90625 595.316406 243.90625 597.023438 L 243.90625 628.550781 C 243.90625 630.257812 245.613281 631.960938 247.320312 631.960938 L 340.980469 631.960938 C 342.683594 631.960938 344.390625 630.257812 344.390625 628.550781 Z M 344.390625 628.550781 " transform="matrix(1, 0, 0, -1, -119, 753)"/>
<path fill="none" stroke-width="0.4" stroke-linecap="round" stroke-linejoin="round" stroke="rgb(0%, 0%, 0%)" stroke-opacity="1" stroke-miterlimit="10" d="M 294.011719 610.707031 L 315.941406 610.707031 " transform="matrix(1, 0, 0, -1, -119, 753)"/>
<path fill-rule="evenodd" fill="rgb(74.5%, 74.5%, 74.5%)" fill-opacity="1" stroke-width="0.4" stroke-linecap="round" stroke-linejoin="round" stroke="rgb(0%, 0%, 0%)" stroke-opacity="1" stroke-miterlimit="10" d="M 275.875 625.578125 C 275.875 630.453125 268.566406 630.453125 268.566406 625.578125 C 268.566406 620.707031 275.875 620.707031 275.875 625.578125 Z M 275.875 625.578125 " transform="matrix(1, 0, 0, -1, -119, 753)"/>
<path fill-rule="evenodd" fill="rgb(74.5%, 74.5%, 74.5%)" fill-opacity="1" stroke-width="0.4" stroke-linecap="round" stroke-linejoin="round" stroke="rgb(0%, 0%, 0%)" stroke-opacity="1" stroke-miterlimit="10" d="M 275.875 599.996094 C 275.875 604.867188 268.566406 604.867188 268.566406 599.996094 C 268.566406 595.121094 275.875 595.121094 275.875 599.996094 Z M 275.875 599.996094 " transform="matrix(1, 0, 0, -1, -119, 753)"/>
<path fill="none" stroke-width="0.4" stroke-linecap="round" stroke-linejoin="round" stroke="rgb(0%, 0%, 0%)" stroke-opacity="1" stroke-miterlimit="10" d="M 272.222656 603.648438 L 272.222656 621.921875 " transform="matrix(1, 0, 0, -1, -119, 753)"/>
<path fill-rule="evenodd" fill="rgb(74.5%, 74.5%, 74.5%)" fill-opacity="1" stroke-width="0.4" stroke-linecap="round" stroke-linejoin="round" stroke="rgb(0%, 0%, 0%)" stroke-opacity="1" stroke-miterlimit="10" d="M 275.261719 623.550781 L 291.109375 612.988281 " transform="matrix(1, 0, 0, -1, -119, 753)"/>
<path fill-rule="evenodd" fill="rgb(74.5%, 74.5%, 74.5%)" fill-opacity="1" stroke-width="0.4" stroke-linecap="round" stroke-linejoin="round" stroke="rgb(0%, 0%, 0%)" stroke-opacity="1" stroke-miterlimit="10" d="M 290.878906 609.324219 L 275.488281 601.628906 " transform="matrix(1, 0, 0, -1, -119, 753)"/>
<g clip-path="url(#clip-33)">
<g fill="rgb(0%, 0%, 0%)" fill-opacity="1">
<use xlink:href="#glyph-2-0" x="152.04837" y="154.609789"/>
</g>
</g>
<g clip-path="url(#clip-34)">
<g fill="rgb(0%, 0%, 0%)" fill-opacity="1">
<use xlink:href="#glyph-0-0" x="151.89237" y="129.108333"/>
</g>
</g>
<g clip-path="url(#clip-35)">
<g fill="rgb(0%, 0%, 0%)" fill-opacity="1">
<use xlink:href="#glyph-1-0" x="174.481482" y="142.987561"/>
</g>
</g>
<path fill-rule="evenodd" fill="rgb(74.5%, 74.5%, 74.5%)" fill-opacity="1" stroke-width="0.4" stroke-linecap="round" stroke-linejoin="round" stroke="rgb(0%, 0%, 0%)" stroke-opacity="1" stroke-miterlimit="10" d="M 319.734375 610.960938 C 319.734375 615.832031 312.421875 615.832031 312.421875 610.960938 C 312.421875 606.085938 319.734375 606.085938 319.734375 610.960938 Z M 319.734375 610.960938 " transform="matrix(1, 0, 0, -1, -119, 753)"/>
<path fill-rule="evenodd" fill="rgb(74.5%, 74.5%, 74.5%)" fill-opacity="1" stroke-width="0.4" stroke-linecap="round" stroke-linejoin="round" stroke="rgb(0%, 0%, 0%)" stroke-opacity="1" stroke-miterlimit="10" d="M 341.660156 625.578125 C 341.660156 630.453125 334.351562 630.453125 334.351562 625.578125 C 334.351562 620.707031 341.660156 620.707031 341.660156 625.578125 Z M 341.660156 625.578125 " transform="matrix(1, 0, 0, -1, -119, 753)"/>
<path fill-rule="evenodd" fill="rgb(74.5%, 74.5%, 74.5%)" fill-opacity="1" stroke-width="0.4" stroke-linecap="round" stroke-linejoin="round" stroke="rgb(0%, 0%, 0%)" stroke-opacity="1" stroke-miterlimit="10" d="M 341.660156 599.996094 C 341.660156 604.867188 334.351562 604.867188 334.351562 599.996094 C 334.351562 595.121094 341.660156 595.121094 341.660156 599.996094 Z M 341.660156 599.996094 " transform="matrix(1, 0, 0, -1, -119, 753)"/>
<path fill-rule="evenodd" fill="rgb(74.5%, 74.5%, 74.5%)" fill-opacity="1" stroke-width="0.4" stroke-linecap="round" stroke-linejoin="round" stroke="rgb(0%, 0%, 0%)" stroke-opacity="1" stroke-miterlimit="10" d="M 319.117188 612.988281 L 334.964844 623.550781 " transform="matrix(1, 0, 0, -1, -119, 753)"/>
<path fill-rule="evenodd" fill="rgb(74.5%, 74.5%, 74.5%)" fill-opacity="1" stroke-width="0.4" stroke-linecap="round" stroke-linejoin="round" stroke="rgb(0%, 0%, 0%)" stroke-opacity="1" stroke-miterlimit="10" d="M 319.347656 609.324219 L 334.738281 601.628906 " transform="matrix(1, 0, 0, -1, -119, 753)"/>
<path fill="none" stroke-width="0.4" stroke-linecap="round" stroke-linejoin="round" stroke="rgb(0%, 0%, 0%)" stroke-opacity="1" stroke-miterlimit="10" d="M 338.007812 603.648438 L 338.007812 621.921875 " transform="matrix(1, 0, 0, -1, -119, 753)"/>
<g clip-path="url(#clip-36)">
<g fill="rgb(0%, 0%, 0%)" fill-opacity="1">
<use xlink:href="#glyph-2-0" x="196.20137" y="143.394789"/>
</g>
</g>
<g clip-path="url(#clip-37)">
<g fill="rgb(0%, 0%, 0%)" fill-opacity="1">
<use xlink:href="#glyph-2-0" x="217.83537" y="154.609789"/>
</g>
</g>
<g clip-path="url(#clip-38)">
<g fill="rgb(0%, 0%, 0%)" fill-opacity="1">
<use xlink:href="#glyph-0-0" x="217.67837" y="129.108333"/>
</g>
</g>
<path fill-rule="evenodd" fill="rgb(74.5%, 74.5%, 74.5%)" fill-opacity="1" stroke-width="0.4" stroke-linecap="round" stroke-linejoin="round" stroke="rgb(0%, 0%, 0%)" stroke-opacity="1" stroke-miterlimit="10" d="M 297.804688 610.960938 C 297.804688 615.832031 290.492188 615.832031 290.492188 610.960938 C 290.492188 606.085938 297.804688 606.085938 297.804688 610.960938 Z M 297.804688 610.960938 " transform="matrix(1, 0, 0, -1, -119, 753)"/>
<g clip-path="url(#clip-39)">
<g fill="rgb(0%, 0%, 0%)" fill-opacity="1">
<use xlink:href="#glyph-0-0" x="173.97737" y="143.645333"/>
</g>
</g>
<path fill-rule="evenodd" fill="rgb(74.5%, 74.5%, 74.5%)" fill-opacity="1" stroke-width="0.4" stroke-linecap="round" stroke-linejoin="round" stroke="rgb(0%, 0%, 0%)" stroke-opacity="1" stroke-miterlimit="10" d="M 253.945312 610.960938 C 253.945312 615.832031 246.636719 615.832031 246.636719 610.960938 C 246.636719 606.085938 253.945312 606.085938 253.945312 610.960938 Z M 253.945312 610.960938 " transform="matrix(1, 0, 0, -1, -119, 753)"/>
<path fill-rule="evenodd" fill="rgb(74.5%, 74.5%, 74.5%)" fill-opacity="1" stroke-width="0.4" stroke-linecap="round" stroke-linejoin="round" stroke="rgb(0%, 0%, 0%)" stroke-opacity="1" stroke-miterlimit="10" d="M 253.332031 612.988281 L 269.179688 623.550781 " transform="matrix(1, 0, 0, -1, -119, 753)"/>
<path fill-rule="evenodd" fill="rgb(74.5%, 74.5%, 74.5%)" fill-opacity="1" stroke-width="0.4" stroke-linecap="round" stroke-linejoin="round" stroke="rgb(0%, 0%, 0%)" stroke-opacity="1" stroke-miterlimit="10" d="M 253.5625 609.324219 L 268.953125 601.628906 " transform="matrix(1, 0, 0, -1, -119, 753)"/>
<g clip-path="url(#clip-40)">
<g fill="rgb(0%, 0%, 0%)" fill-opacity="1">
<use xlink:href="#glyph-0-0" x="129.54037" y="144.053333"/>
</g>
</g>
<path fill-rule="evenodd" fill="rgb(100%, 51.4%, 98%)" fill-opacity="0.3" stroke-width="0.4" stroke-linecap="round" stroke-linejoin="round" stroke="rgb(0%, 0%, 0%)" stroke-opacity="1" stroke-miterlimit="10" d="M 535.859375 628.984375 L 535.859375 597.457031 C 535.859375 595.753906 534.15625 594.046875 532.449219 594.046875 L 438.789062 594.046875 C 437.082031 594.046875 435.375 595.753906 435.375 597.457031 L 435.375 628.984375 C 435.375 630.691406 437.082031 632.398438 438.789062 632.398438 L 532.449219 632.398438 C 534.15625 632.398438 535.859375 630.691406 535.859375 628.984375 Z M 535.859375 628.984375 " transform="matrix(1, 0, 0, -1, -119, 753)"/>
<path fill="none" stroke-width="0.4" stroke-linecap="round" stroke-linejoin="round" stroke="rgb(0%, 0%, 0%)" stroke-opacity="1" stroke-miterlimit="10" d="M 463.691406 600.429688 L 529.476562 600.429688 " transform="matrix(1, 0, 0, -1, -119, 753)"/>
<path fill="none" stroke-width="0.4" stroke-linecap="round" stroke-linejoin="round" stroke="rgb(0%, 0%, 0%)" stroke-opacity="1" stroke-miterlimit="10" d="M 485.480469 611.144531 L 507.410156 611.144531 " transform="matrix(1, 0, 0, -1, -119, 753)"/>
<path fill-rule="evenodd" fill="rgb(74.5%, 74.5%, 74.5%)" fill-opacity="1" stroke-width="0.4" stroke-linecap="round" stroke-linejoin="round" stroke="rgb(0%, 0%, 0%)" stroke-opacity="1" stroke-miterlimit="10" d="M 467.34375 626.015625 C 467.34375 630.886719 460.035156 630.886719 460.035156 626.015625 C 460.035156 621.140625 467.34375 621.140625 467.34375 626.015625 Z M 467.34375 626.015625 " transform="matrix(1, 0, 0, -1, -119, 753)"/>
<path fill-rule="evenodd" fill="rgb(74.5%, 74.5%, 74.5%)" fill-opacity="1" stroke-width="0.4" stroke-linecap="round" stroke-linejoin="round" stroke="rgb(0%, 0%, 0%)" stroke-opacity="1" stroke-miterlimit="10" d="M 467.34375 600.429688 C 467.34375 605.304688 460.035156 605.304688 460.035156 600.429688 C 460.035156 595.558594 467.34375 595.558594 467.34375 600.429688 Z M 467.34375 600.429688 " transform="matrix(1, 0, 0, -1, -119, 753)"/>
<path fill="none" stroke-width="0.4" stroke-linecap="round" stroke-linejoin="round" stroke="rgb(0%, 0%, 0%)" stroke-opacity="1" stroke-miterlimit="10" d="M 463.691406 604.085938 L 463.691406 622.359375 " transform="matrix(1, 0, 0, -1, -119, 753)"/>
<path fill-rule="evenodd" fill="rgb(74.5%, 74.5%, 74.5%)" fill-opacity="1" stroke-width="0.4" stroke-linecap="round" stroke-linejoin="round" stroke="rgb(0%, 0%, 0%)" stroke-opacity="1" stroke-miterlimit="10" d="M 466.730469 623.988281 L 482.578125 613.421875 " transform="matrix(1, 0, 0, -1, -119, 753)"/>
<path fill-rule="evenodd" fill="rgb(74.5%, 74.5%, 74.5%)" fill-opacity="1" stroke-width="0.4" stroke-linecap="round" stroke-linejoin="round" stroke="rgb(0%, 0%, 0%)" stroke-opacity="1" stroke-miterlimit="10" d="M 482.351562 609.761719 L 466.957031 602.0625 " transform="matrix(1, 0, 0, -1, -119, 753)"/>
<g clip-path="url(#clip-41)">
<g fill="rgb(0%, 0%, 0%)" fill-opacity="1">
<use xlink:href="#glyph-0-0" x="343.51737" y="154.173333"/>
</g>
</g>
<g clip-path="url(#clip-42)">
<g fill="rgb(0%, 0%, 0%)" fill-opacity="1">
<use xlink:href="#glyph-2-0" x="343.36137" y="128.673789"/>
</g>
</g>
<g clip-path="url(#clip-43)">
<g fill="rgb(0%, 0%, 0%)" fill-opacity="1">
<use xlink:href="#glyph-1-0" x="365.950482" y="142.552561"/>
</g>
</g>
<path fill-rule="evenodd" fill="rgb(74.5%, 74.5%, 74.5%)" fill-opacity="1" stroke-width="0.4" stroke-linecap="round" stroke-linejoin="round" stroke="rgb(0%, 0%, 0%)" stroke-opacity="1" stroke-miterlimit="10" d="M 511.203125 611.394531 C 511.203125 616.265625 503.890625 616.265625 503.890625 611.394531 C 503.890625 606.519531 511.203125 606.519531 511.203125 611.394531 Z M 511.203125 611.394531 " transform="matrix(1, 0, 0, -1, -119, 753)"/>
<path fill-rule="evenodd" fill="rgb(74.5%, 74.5%, 74.5%)" fill-opacity="1" stroke-width="0.4" stroke-linecap="round" stroke-linejoin="round" stroke="rgb(0%, 0%, 0%)" stroke-opacity="1" stroke-miterlimit="10" d="M 533.128906 626.015625 C 533.128906 630.886719 525.820312 630.886719 525.820312 626.015625 C 525.820312 621.140625 533.128906 621.140625 533.128906 626.015625 Z M 533.128906 626.015625 " transform="matrix(1, 0, 0, -1, -119, 753)"/>
<path fill-rule="evenodd" fill="rgb(74.5%, 74.5%, 74.5%)" fill-opacity="1" stroke-width="0.4" stroke-linecap="round" stroke-linejoin="round" stroke="rgb(0%, 0%, 0%)" stroke-opacity="1" stroke-miterlimit="10" d="M 533.128906 600.429688 C 533.128906 605.304688 525.820312 605.304688 525.820312 600.429688 C 525.820312 595.558594 533.128906 595.558594 533.128906 600.429688 Z M 533.128906 600.429688 " transform="matrix(1, 0, 0, -1, -119, 753)"/>
<path fill-rule="evenodd" fill="rgb(74.5%, 74.5%, 74.5%)" fill-opacity="1" stroke-width="0.4" stroke-linecap="round" stroke-linejoin="round" stroke="rgb(0%, 0%, 0%)" stroke-opacity="1" stroke-miterlimit="10" d="M 510.816406 609.761719 L 526.207031 602.0625 " transform="matrix(1, 0, 0, -1, -119, 753)"/>
<path fill="none" stroke-width="0.4" stroke-linecap="round" stroke-linejoin="round" stroke="rgb(0%, 0%, 0%)" stroke-opacity="1" stroke-miterlimit="10" d="M 529.476562 604.085938 L 529.476562 622.359375 " transform="matrix(1, 0, 0, -1, -119, 753)"/>
<g clip-path="url(#clip-44)">
<g fill="rgb(0%, 0%, 0%)" fill-opacity="1">
<use xlink:href="#glyph-2-0" x="387.67037" y="142.958789"/>
</g>
</g>
<g clip-path="url(#clip-45)">
<g fill="rgb(0%, 0%, 0%)" fill-opacity="1">
<use xlink:href="#glyph-0-0" x="409.30437" y="154.173333"/>
</g>
</g>
<g clip-path="url(#clip-46)">
<g fill="rgb(0%, 0%, 0%)" fill-opacity="1">
<use xlink:href="#glyph-2-0" x="409.14737" y="128.673789"/>
</g>
</g>
<path fill-rule="evenodd" fill="rgb(74.5%, 74.5%, 74.5%)" fill-opacity="1" stroke-width="0.4" stroke-linecap="round" stroke-linejoin="round" stroke="rgb(0%, 0%, 0%)" stroke-opacity="1" stroke-miterlimit="10" d="M 489.273438 611.394531 C 489.273438 616.265625 481.964844 616.265625 481.964844 611.394531 C 481.964844 606.519531 489.273438 606.519531 489.273438 611.394531 Z M 489.273438 611.394531 " transform="matrix(1, 0, 0, -1, -119, 753)"/>
<g clip-path="url(#clip-47)">
<g fill="rgb(0%, 0%, 0%)" fill-opacity="1">
<use xlink:href="#glyph-0-0" x="365.44637" y="143.209333"/>
</g>
</g>
<path fill-rule="evenodd" fill="rgb(74.5%, 74.5%, 74.5%)" fill-opacity="1" stroke-width="0.4" stroke-linecap="round" stroke-linejoin="round" stroke="rgb(0%, 0%, 0%)" stroke-opacity="1" stroke-miterlimit="10" d="M 445.414062 611.394531 C 445.414062 616.265625 438.105469 616.265625 438.105469 611.394531 C 438.105469 606.519531 445.414062 606.519531 445.414062 611.394531 Z M 445.414062 611.394531 " transform="matrix(1, 0, 0, -1, -119, 753)"/>
<path fill-rule="evenodd" fill="rgb(74.5%, 74.5%, 74.5%)" fill-opacity="1" stroke-width="0.4" stroke-linecap="round" stroke-linejoin="round" stroke="rgb(0%, 0%, 0%)" stroke-opacity="1" stroke-miterlimit="10" d="M 444.800781 613.421875 L 460.648438 623.988281 " transform="matrix(1, 0, 0, -1, -119, 753)"/>
<path fill-rule="evenodd" fill="rgb(74.5%, 74.5%, 74.5%)" fill-opacity="1" stroke-width="0.4" stroke-linecap="round" stroke-linejoin="round" stroke="rgb(0%, 0%, 0%)" stroke-opacity="1" stroke-miterlimit="10" d="M 445.03125 609.761719 L 460.421875 602.0625 " transform="matrix(1, 0, 0, -1, -119, 753)"/>
<g clip-path="url(#clip-48)">
<g fill="rgb(0%, 0%, 0%)" fill-opacity="1">
<use xlink:href="#glyph-0-0" x="321.00937" y="143.618333"/>
</g>
</g>
<path fill-rule="evenodd" fill="rgb(100%, 51.4%, 98%)" fill-opacity="0.3" stroke-width="0.4" stroke-linecap="round" stroke-linejoin="round" stroke="rgb(0%, 0%, 0%)" stroke-opacity="1" stroke-miterlimit="10" d="M 644.855469 629.214844 L 644.855469 597.6875 C 644.855469 595.980469 643.152344 594.273438 641.445312 594.273438 L 547.785156 594.273438 C 546.078125 594.273438 544.371094 595.980469 544.371094 597.6875 L 544.371094 629.214844 C 544.371094 630.921875 546.078125 632.628906 547.785156 632.628906 L 641.445312 632.628906 C 643.152344 632.628906 644.855469 630.921875 644.855469 629.214844 Z M 644.855469 629.214844 " transform="matrix(1, 0, 0, -1, -119, 753)"/>
<path fill="none" stroke-width="0.4" stroke-linecap="round" stroke-linejoin="round" stroke="rgb(0%, 0%, 0%)" stroke-opacity="1" stroke-miterlimit="10" d="M 572.683594 600.660156 L 638.472656 600.660156 " transform="matrix(1, 0, 0, -1, -119, 753)"/>
<path fill="none" stroke-width="0.4" stroke-linecap="round" stroke-linejoin="round" stroke="rgb(0%, 0%, 0%)" stroke-opacity="1" stroke-miterlimit="10" d="M 594.476562 611.371094 L 616.40625 611.371094 " transform="matrix(1, 0, 0, -1, -119, 753)"/>
<path fill-rule="evenodd" fill="rgb(74.5%, 74.5%, 74.5%)" fill-opacity="1" stroke-width="0.4" stroke-linecap="round" stroke-linejoin="round" stroke="rgb(0%, 0%, 0%)" stroke-opacity="1" stroke-miterlimit="10" d="M 576.339844 626.242188 C 576.339844 631.117188 569.03125 631.117188 569.03125 626.242188 C 569.03125 621.371094 576.339844 621.371094 576.339844 626.242188 Z M 576.339844 626.242188 " transform="matrix(1, 0, 0, -1, -119, 753)"/>
<path fill-rule="evenodd" fill="rgb(74.5%, 74.5%, 74.5%)" fill-opacity="1" stroke-width="0.4" stroke-linecap="round" stroke-linejoin="round" stroke="rgb(0%, 0%, 0%)" stroke-opacity="1" stroke-miterlimit="10" d="M 576.339844 600.660156 C 576.339844 605.53125 569.03125 605.53125 569.03125 600.660156 C 569.03125 595.785156 576.339844 595.785156 576.339844 600.660156 Z M 576.339844 600.660156 " transform="matrix(1, 0, 0, -1, -119, 753)"/>
<path fill="none" stroke-width="0.4" stroke-linecap="round" stroke-linejoin="round" stroke="rgb(0%, 0%, 0%)" stroke-opacity="1" stroke-miterlimit="10" d="M 572.6875 604.3125 L 572.6875 622.585938 " transform="matrix(1, 0, 0, -1, -119, 753)"/>
<path fill-rule="evenodd" fill="rgb(74.5%, 74.5%, 74.5%)" fill-opacity="1" stroke-width="0.4" stroke-linecap="round" stroke-linejoin="round" stroke="rgb(0%, 0%, 0%)" stroke-opacity="1" stroke-miterlimit="10" d="M 575.726562 624.214844 L 591.574219 613.652344 " transform="matrix(1, 0, 0, -1, -119, 753)"/>
<path fill-rule="evenodd" fill="rgb(74.5%, 74.5%, 74.5%)" fill-opacity="1" stroke-width="0.4" stroke-linecap="round" stroke-linejoin="round" stroke="rgb(0%, 0%, 0%)" stroke-opacity="1" stroke-miterlimit="10" d="M 591.34375 609.988281 L 575.953125 602.292969 " transform="matrix(1, 0, 0, -1, -119, 753)"/>
<g clip-path="url(#clip-49)">
<g fill="rgb(0%, 0%, 0%)" fill-opacity="1">
<use xlink:href="#glyph-0-0" x="452.51337" y="153.944333"/>
</g>
</g>
<g clip-path="url(#clip-50)">
<g fill="rgb(0%, 0%, 0%)" fill-opacity="1">
<use xlink:href="#glyph-2-0" x="452.35737" y="128.444789"/>
</g>
</g>
<g clip-path="url(#clip-51)">
<g fill="rgb(0%, 0%, 0%)" fill-opacity="1">
<use xlink:href="#glyph-1-0" x="474.946482" y="142.323561"/>
</g>
</g>
<path fill-rule="evenodd" fill="rgb(74.5%, 74.5%, 74.5%)" fill-opacity="1" stroke-width="0.4" stroke-linecap="round" stroke-linejoin="round" stroke="rgb(0%, 0%, 0%)" stroke-opacity="1" stroke-miterlimit="10" d="M 620.199219 611.625 C 620.199219 616.496094 612.886719 616.496094 612.886719 611.625 C 612.886719 606.75 620.199219 606.75 620.199219 611.625 Z M 620.199219 611.625 " transform="matrix(1, 0, 0, -1, -119, 753)"/>
<path fill-rule="evenodd" fill="rgb(74.5%, 74.5%, 74.5%)" fill-opacity="1" stroke-width="0.4" stroke-linecap="round" stroke-linejoin="round" stroke="rgb(0%, 0%, 0%)" stroke-opacity="1" stroke-miterlimit="10" d="M 642.125 626.242188 C 642.125 631.117188 634.816406 631.117188 634.816406 626.242188 C 634.816406 621.371094 642.125 621.371094 642.125 626.242188 Z M 642.125 626.242188 " transform="matrix(1, 0, 0, -1, -119, 753)"/>
<path fill-rule="evenodd" fill="rgb(74.5%, 74.5%, 74.5%)" fill-opacity="1" stroke-width="0.4" stroke-linecap="round" stroke-linejoin="round" stroke="rgb(0%, 0%, 0%)" stroke-opacity="1" stroke-miterlimit="10" d="M 642.125 600.660156 C 642.125 605.53125 634.816406 605.53125 634.816406 600.660156 C 634.816406 595.785156 642.125 595.785156 642.125 600.660156 Z M 642.125 600.660156 " transform="matrix(1, 0, 0, -1, -119, 753)"/>
<path fill-rule="evenodd" fill="rgb(74.5%, 74.5%, 74.5%)" fill-opacity="1" stroke-width="0.4" stroke-linecap="round" stroke-linejoin="round" stroke="rgb(0%, 0%, 0%)" stroke-opacity="1" stroke-miterlimit="10" d="M 619.8125 609.988281 L 635.203125 602.292969 " transform="matrix(1, 0, 0, -1, -119, 753)"/>
<path fill="none" stroke-width="0.4" stroke-linecap="round" stroke-linejoin="round" stroke="rgb(0%, 0%, 0%)" stroke-opacity="1" stroke-miterlimit="10" d="M 638.472656 604.3125 L 638.472656 622.585938 " transform="matrix(1, 0, 0, -1, -119, 753)"/>
<g clip-path="url(#clip-52)">
<g fill="rgb(0%, 0%, 0%)" fill-opacity="1">
<use xlink:href="#glyph-0-0" x="496.66637" y="142.729333"/>
</g>
</g>
<g clip-path="url(#clip-53)">
<g fill="rgb(0%, 0%, 0%)" fill-opacity="1">
<use xlink:href="#glyph-0-0" x="518.30037" y="153.944333"/>
</g>
</g>
<g clip-path="url(#clip-54)">
<g fill="rgb(0%, 0%, 0%)" fill-opacity="1">
<use xlink:href="#glyph-0-0" x="518.14337" y="128.444333"/>
</g>
</g>
<path fill-rule="evenodd" fill="rgb(74.5%, 74.5%, 74.5%)" fill-opacity="1" stroke-width="0.4" stroke-linecap="round" stroke-linejoin="round" stroke="rgb(0%, 0%, 0%)" stroke-opacity="1" stroke-miterlimit="10" d="M 598.269531 611.625 C 598.269531 616.496094 590.960938 616.496094 590.960938 611.625 C 590.960938 606.75 598.269531 606.75 598.269531 611.625 Z M 598.269531 611.625 " transform="matrix(1, 0, 0, -1, -119, 753)"/>
<g clip-path="url(#clip-55)">
<g fill="rgb(0%, 0%, 0%)" fill-opacity="1">
<use xlink:href="#glyph-0-0" x="474.44237" y="142.980333"/>
</g>
</g>
<path fill-rule="evenodd" fill="rgb(74.5%, 74.5%, 74.5%)" fill-opacity="1" stroke-width="0.4" stroke-linecap="round" stroke-linejoin="round" stroke="rgb(0%, 0%, 0%)" stroke-opacity="1" stroke-miterlimit="10" d="M 554.410156 611.625 C 554.410156 616.496094 547.101562 616.496094 547.101562 611.625 C 547.101562 606.75 554.410156 606.75 554.410156 611.625 Z M 554.410156 611.625 " transform="matrix(1, 0, 0, -1, -119, 753)"/>
<path fill-rule="evenodd" fill="rgb(74.5%, 74.5%, 74.5%)" fill-opacity="1" stroke-width="0.4" stroke-linecap="round" stroke-linejoin="round" stroke="rgb(0%, 0%, 0%)" stroke-opacity="1" stroke-miterlimit="10" d="M 553.796875 613.652344 L 569.644531 624.214844 " transform="matrix(1, 0, 0, -1, -119, 753)"/>
<path fill-rule="evenodd" fill="rgb(74.5%, 74.5%, 74.5%)" fill-opacity="1" stroke-width="0.4" stroke-linecap="round" stroke-linejoin="round" stroke="rgb(0%, 0%, 0%)" stroke-opacity="1" stroke-miterlimit="10" d="M 554.027344 609.988281 L 569.417969 602.292969 " transform="matrix(1, 0, 0, -1, -119, 753)"/>
<g clip-path="url(#clip-56)">
<g fill="rgb(0%, 0%, 0%)" fill-opacity="1">
<use xlink:href="#glyph-0-0" x="430.00537" y="143.389333"/>
</g>
</g>
<g clip-path="url(#clip-57)">
<g fill="rgb(0%, 0%, 0%)" fill-opacity="1">
<use xlink:href="#glyph-3-0" x="128.832326" y="89.286381"/>
</g>
</g>
<g clip-path="url(#clip-58)">
<g fill="rgb(0%, 0%, 0%)" fill-opacity="1">
<use xlink:href="#glyph-3-0" x="450.620326" y="70.129381"/>
</g>
</g>
<g clip-path="url(#clip-59)">
<g fill="rgb(0%, 0%, 0%)" fill-opacity="1">
<use xlink:href="#glyph-3-0" x="404.567326" y="140.890381"/>
</g>
</g>
<path fill-rule="evenodd" fill="rgb(100%, 51.4%, 98%)" fill-opacity="0.3" stroke-width="0.4" stroke-linecap="round" stroke-linejoin="round" stroke="rgb(0%, 0%, 0%)" stroke-opacity="1" stroke-miterlimit="10" d="M 596.058594 562.460938 L 596.058594 530.933594 C 596.058594 529.226562 594.355469 527.519531 592.648438 527.519531 L 498.988281 527.519531 C 497.28125 527.519531 495.574219 529.226562 495.574219 530.933594 L 495.574219 562.460938 C 495.574219 564.167969 497.28125 565.875 498.988281 565.875 L 592.648438 565.875 C 594.355469 565.875 596.058594 564.167969 596.058594 562.460938 Z M 596.058594 562.460938 " transform="matrix(1, 0, 0, -1, -119, 753)"/>
<path fill="none" stroke-width="0.4" stroke-linecap="round" stroke-linejoin="round" stroke="rgb(0%, 0%, 0%)" stroke-opacity="1" stroke-miterlimit="10" d="M 523.886719 533.90625 L 589.675781 533.90625 " transform="matrix(1, 0, 0, -1, -119, 753)"/>
<path fill="none" stroke-width="0.4" stroke-linecap="round" stroke-linejoin="round" stroke="rgb(0%, 0%, 0%)" stroke-opacity="1" stroke-miterlimit="10" d="M 545.679688 544.617188 L 567.609375 544.617188 " transform="matrix(1, 0, 0, -1, -119, 753)"/>
<path fill-rule="evenodd" fill="rgb(74.5%, 74.5%, 74.5%)" fill-opacity="1" stroke-width="0.4" stroke-linecap="round" stroke-linejoin="round" stroke="rgb(0%, 0%, 0%)" stroke-opacity="1" stroke-miterlimit="10" d="M 527.542969 559.488281 C 527.542969 564.363281 520.234375 564.363281 520.234375 559.488281 C 520.234375 554.617188 527.542969 554.617188 527.542969 559.488281 Z M 527.542969 559.488281 " transform="matrix(1, 0, 0, -1, -119, 753)"/>
<path fill-rule="evenodd" fill="rgb(74.5%, 74.5%, 74.5%)" fill-opacity="1" stroke-width="0.4" stroke-linecap="round" stroke-linejoin="round" stroke="rgb(0%, 0%, 0%)" stroke-opacity="1" stroke-miterlimit="10" d="M 527.542969 533.90625 C 527.542969 538.777344 520.234375 538.777344 520.234375 533.90625 C 520.234375 529.03125 527.542969 529.03125 527.542969 533.90625 Z M 527.542969 533.90625 " transform="matrix(1, 0, 0, -1, -119, 753)"/>
<path fill="none" stroke-width="0.4" stroke-linecap="round" stroke-linejoin="round" stroke="rgb(0%, 0%, 0%)" stroke-opacity="1" stroke-miterlimit="10" d="M 523.890625 537.558594 L 523.890625 555.832031 " transform="matrix(1, 0, 0, -1, -119, 753)"/>
<path fill-rule="evenodd" fill="rgb(74.5%, 74.5%, 74.5%)" fill-opacity="1" stroke-width="0.4" stroke-linecap="round" stroke-linejoin="round" stroke="rgb(0%, 0%, 0%)" stroke-opacity="1" stroke-miterlimit="10" d="M 526.929688 557.460938 L 542.777344 546.898438 " transform="matrix(1, 0, 0, -1, -119, 753)"/>
<path fill-rule="evenodd" fill="rgb(74.5%, 74.5%, 74.5%)" fill-opacity="1" stroke-width="0.4" stroke-linecap="round" stroke-linejoin="round" stroke="rgb(0%, 0%, 0%)" stroke-opacity="1" stroke-miterlimit="10" d="M 542.546875 543.234375 L 527.15625 535.539062 " transform="matrix(1, 0, 0, -1, -119, 753)"/>
<g clip-path="url(#clip-60)">
<g fill="rgb(0%, 0%, 0%)" fill-opacity="1">
<use xlink:href="#glyph-0-0" x="403.71637" y="220.698333"/>
</g>
</g>
<g clip-path="url(#clip-61)">
<g fill="rgb(0%, 0%, 0%)" fill-opacity="1">
<use xlink:href="#glyph-2-0" x="403.56037" y="195.198789"/>
</g>
</g>
<g clip-path="url(#clip-62)">
<g fill="rgb(0%, 0%, 0%)" fill-opacity="1">
<use xlink:href="#glyph-1-0" x="426.149482" y="209.077561"/>
</g>
</g>
<path fill-rule="evenodd" fill="rgb(74.5%, 74.5%, 74.5%)" fill-opacity="1" stroke-width="0.4" stroke-linecap="round" stroke-linejoin="round" stroke="rgb(0%, 0%, 0%)" stroke-opacity="1" stroke-miterlimit="10" d="M 571.402344 544.871094 C 571.402344 549.742188 564.089844 549.742188 564.089844 544.871094 C 564.089844 539.996094 571.402344 539.996094 571.402344 544.871094 Z M 571.402344 544.871094 " transform="matrix(1, 0, 0, -1, -119, 753)"/>
<path fill-rule="evenodd" fill="rgb(74.5%, 74.5%, 74.5%)" fill-opacity="1" stroke-width="0.4" stroke-linecap="round" stroke-linejoin="round" stroke="rgb(0%, 0%, 0%)" stroke-opacity="1" stroke-miterlimit="10" d="M 593.328125 559.488281 C 593.328125 564.363281 586.019531 564.363281 586.019531 559.488281 C 586.019531 554.617188 593.328125 554.617188 593.328125 559.488281 Z M 593.328125 559.488281 " transform="matrix(1, 0, 0, -1, -119, 753)"/>
<path fill-rule="evenodd" fill="rgb(74.5%, 74.5%, 74.5%)" fill-opacity="1" stroke-width="0.4" stroke-linecap="round" stroke-linejoin="round" stroke="rgb(0%, 0%, 0%)" stroke-opacity="1" stroke-miterlimit="10" d="M 593.328125 533.90625 C 593.328125 538.777344 586.019531 538.777344 586.019531 533.90625 C 586.019531 529.03125 593.328125 529.03125 593.328125 533.90625 Z M 593.328125 533.90625 " transform="matrix(1, 0, 0, -1, -119, 753)"/>
<path fill-rule="evenodd" fill="rgb(74.5%, 74.5%, 74.5%)" fill-opacity="1" stroke-width="0.4" stroke-linecap="round" stroke-linejoin="round" stroke="rgb(0%, 0%, 0%)" stroke-opacity="1" stroke-miterlimit="10" d="M 571.015625 543.234375 L 586.40625 535.539062 " transform="matrix(1, 0, 0, -1, -119, 753)"/>
<g clip-path="url(#clip-63)">
<g fill="rgb(0%, 0%, 0%)" fill-opacity="1">
<use xlink:href="#glyph-2-0" x="447.86937" y="209.483789"/>
</g>
</g>
<g clip-path="url(#clip-64)">
<g fill="rgb(0%, 0%, 0%)" fill-opacity="1">
<use xlink:href="#glyph-2-0" x="469.50337" y="220.698789"/>
</g>
</g>
<g clip-path="url(#clip-65)">
<g fill="rgb(0%, 0%, 0%)" fill-opacity="1">
<use xlink:href="#glyph-0-0" x="469.34637" y="195.198333"/>
</g>
</g>
<path fill-rule="evenodd" fill="rgb(74.5%, 74.5%, 74.5%)" fill-opacity="1" stroke-width="0.4" stroke-linecap="round" stroke-linejoin="round" stroke="rgb(0%, 0%, 0%)" stroke-opacity="1" stroke-miterlimit="10" d="M 549.472656 544.871094 C 549.472656 549.742188 542.164062 549.742188 542.164062 544.871094 C 542.164062 539.996094 549.472656 539.996094 549.472656 544.871094 Z M 549.472656 544.871094 " transform="matrix(1, 0, 0, -1, -119, 753)"/>
<g clip-path="url(#clip-66)">
<g fill="rgb(0%, 0%, 0%)" fill-opacity="1">
<use xlink:href="#glyph-0-0" x="425.64537" y="209.734333"/>
</g>
</g>
<path fill-rule="evenodd" fill="rgb(74.5%, 74.5%, 74.5%)" fill-opacity="1" stroke-width="0.4" stroke-linecap="round" stroke-linejoin="round" stroke="rgb(0%, 0%, 0%)" stroke-opacity="1" stroke-miterlimit="10" d="M 505.613281 544.871094 C 505.613281 549.742188 498.304688 549.742188 498.304688 544.871094 C 498.304688 539.996094 505.613281 539.996094 505.613281 544.871094 Z M 505.613281 544.871094 " transform="matrix(1, 0, 0, -1, -119, 753)"/>
<path fill-rule="evenodd" fill="rgb(74.5%, 74.5%, 74.5%)" fill-opacity="1" stroke-width="0.4" stroke-linecap="round" stroke-linejoin="round" stroke="rgb(0%, 0%, 0%)" stroke-opacity="1" stroke-miterlimit="10" d="M 505 546.898438 L 520.847656 557.460938 " transform="matrix(1, 0, 0, -1, -119, 753)"/>
<path fill-rule="evenodd" fill="rgb(74.5%, 74.5%, 74.5%)" fill-opacity="1" stroke-width="0.4" stroke-linecap="round" stroke-linejoin="round" stroke="rgb(0%, 0%, 0%)" stroke-opacity="1" stroke-miterlimit="10" d="M 505.230469 543.234375 L 520.621094 535.539062 " transform="matrix(1, 0, 0, -1, -119, 753)"/>
<g clip-path="url(#clip-67)">
<g fill="rgb(0%, 0%, 0%)" fill-opacity="1">
<use xlink:href="#glyph-0-0" x="381.20837" y="210.143333"/>
</g>
</g>
<g clip-path="url(#clip-68)">
<g fill="rgb(0%, 0%, 0%)" fill-opacity="1">
<use xlink:href="#glyph-3-0" x="183.640326" y="140.333381"/>
</g>
</g>
<path fill-rule="evenodd" fill="rgb(100%, 51.4%, 98%)" fill-opacity="0.3" stroke-width="0.4" stroke-linecap="round" stroke-linejoin="round" stroke="rgb(0%, 0%, 0%)" stroke-opacity="1" stroke-miterlimit="10" d="M 268.972656 561.984375 L 268.972656 530.453125 C 268.972656 528.75 267.265625 527.042969 265.558594 527.042969 L 171.898438 527.042969 C 170.195312 527.042969 168.488281 528.75 168.488281 530.453125 L 168.488281 561.984375 C 168.488281 563.6875 170.195312 565.394531 171.898438 565.394531 L 265.558594 565.394531 C 267.265625 565.394531 268.972656 563.6875 268.972656 561.984375 Z M 268.972656 561.984375 " transform="matrix(1, 0, 0, -1, -119, 753)"/>
<path fill-rule="evenodd" fill="rgb(74.5%, 74.5%, 74.5%)" fill-opacity="1" stroke-width="0.4" stroke-linecap="round" stroke-linejoin="round" stroke="rgb(0%, 0%, 0%)" stroke-opacity="1" stroke-miterlimit="10" d="M 200.453125 559.011719 C 200.453125 563.882812 193.144531 563.882812 193.144531 559.011719 C 193.144531 554.136719 200.453125 554.136719 200.453125 559.011719 Z M 200.453125 559.011719 " transform="matrix(1, 0, 0, -1, -119, 753)"/>
<path fill-rule="evenodd" fill="rgb(74.5%, 74.5%, 74.5%)" fill-opacity="1" stroke-width="0.4" stroke-linecap="round" stroke-linejoin="round" stroke="rgb(0%, 0%, 0%)" stroke-opacity="1" stroke-miterlimit="10" d="M 200.453125 533.429688 C 200.453125 538.300781 193.144531 538.300781 193.144531 533.429688 C 193.144531 528.554688 200.453125 528.554688 200.453125 533.429688 Z M 200.453125 533.429688 " transform="matrix(1, 0, 0, -1, -119, 753)"/>
<path fill="none" stroke-width="0.4" stroke-linecap="round" stroke-linejoin="round" stroke="rgb(0%, 0%, 0%)" stroke-opacity="1" stroke-miterlimit="10" d="M 196.800781 537.082031 L 196.800781 555.355469 " transform="matrix(1, 0, 0, -1, -119, 753)"/>
<path fill-rule="evenodd" fill="rgb(74.5%, 74.5%, 74.5%)" fill-opacity="1" stroke-width="0.4" stroke-linecap="round" stroke-linejoin="round" stroke="rgb(0%, 0%, 0%)" stroke-opacity="1" stroke-miterlimit="10" d="M 199.84375 556.984375 L 215.6875 546.417969 " transform="matrix(1, 0, 0, -1, -119, 753)"/>
<path fill-rule="evenodd" fill="rgb(74.5%, 74.5%, 74.5%)" fill-opacity="1" stroke-width="0.4" stroke-linecap="round" stroke-linejoin="round" stroke="rgb(0%, 0%, 0%)" stroke-opacity="1" stroke-miterlimit="10" d="M 215.460938 542.757812 L 200.070312 535.0625 " transform="matrix(1, 0, 0, -1, -119, 753)"/>
<g clip-path="url(#clip-69)">
<g fill="rgb(0%, 0%, 0%)" fill-opacity="1">
<use xlink:href="#glyph-2-0" x="76.62837" y="221.176789"/>
</g>
</g>
<g clip-path="url(#clip-70)">
<g fill="rgb(0%, 0%, 0%)" fill-opacity="1">
<use xlink:href="#glyph-0-0" x="76.47237" y="195.675333"/>
</g>
</g>
<g clip-path="url(#clip-71)">
<g fill="rgb(0%, 0%, 0%)" fill-opacity="1">
<use xlink:href="#glyph-1-0" x="99.061482" y="209.554561"/>
</g>
</g>
<path fill-rule="evenodd" fill="rgb(74.5%, 74.5%, 74.5%)" fill-opacity="1" stroke-width="0.4" stroke-linecap="round" stroke-linejoin="round" stroke="rgb(0%, 0%, 0%)" stroke-opacity="1" stroke-miterlimit="10" d="M 244.3125 544.390625 C 244.3125 549.265625 237.003906 549.265625 237.003906 544.390625 C 237.003906 539.519531 244.3125 539.519531 244.3125 544.390625 Z M 244.3125 544.390625 " transform="matrix(1, 0, 0, -1, -119, 753)"/>
<path fill-rule="evenodd" fill="rgb(74.5%, 74.5%, 74.5%)" fill-opacity="1" stroke-width="0.4" stroke-linecap="round" stroke-linejoin="round" stroke="rgb(0%, 0%, 0%)" stroke-opacity="1" stroke-miterlimit="10" d="M 266.242188 559.011719 C 266.242188 563.882812 258.933594 563.882812 258.933594 559.011719 C 258.933594 554.136719 266.242188 554.136719 266.242188 559.011719 Z M 266.242188 559.011719 " transform="matrix(1, 0, 0, -1, -119, 753)"/>
<path fill-rule="evenodd" fill="rgb(74.5%, 74.5%, 74.5%)" fill-opacity="1" stroke-width="0.4" stroke-linecap="round" stroke-linejoin="round" stroke="rgb(0%, 0%, 0%)" stroke-opacity="1" stroke-miterlimit="10" d="M 266.242188 533.429688 C 266.242188 538.300781 258.933594 538.300781 258.933594 533.429688 C 258.933594 528.554688 266.242188 528.554688 266.242188 533.429688 Z M 266.242188 533.429688 " transform="matrix(1, 0, 0, -1, -119, 753)"/>
<path fill-rule="evenodd" fill="rgb(74.5%, 74.5%, 74.5%)" fill-opacity="1" stroke-width="0.4" stroke-linecap="round" stroke-linejoin="round" stroke="rgb(0%, 0%, 0%)" stroke-opacity="1" stroke-miterlimit="10" d="M 243.699219 546.417969 L 259.546875 556.984375 " transform="matrix(1, 0, 0, -1, -119, 753)"/>
<path fill-rule="evenodd" fill="rgb(74.5%, 74.5%, 74.5%)" fill-opacity="1" stroke-width="0.4" stroke-linecap="round" stroke-linejoin="round" stroke="rgb(0%, 0%, 0%)" stroke-opacity="1" stroke-miterlimit="10" d="M 243.925781 542.757812 L 259.316406 535.0625 " transform="matrix(1, 0, 0, -1, -119, 753)"/>
<path fill="none" stroke-width="0.4" stroke-linecap="round" stroke-linejoin="round" stroke="rgb(0%, 0%, 0%)" stroke-opacity="1" stroke-miterlimit="10" d="M 262.585938 537.082031 L 262.585938 555.355469 " transform="matrix(1, 0, 0, -1, -119, 753)"/>
<g clip-path="url(#clip-72)">
<g fill="rgb(0%, 0%, 0%)" fill-opacity="1">
<use xlink:href="#glyph-2-0" x="120.78137" y="209.961789"/>
</g>
</g>
<g clip-path="url(#clip-73)">
<g fill="rgb(0%, 0%, 0%)" fill-opacity="1">
<use xlink:href="#glyph-2-0" x="142.41537" y="221.176789"/>
</g>
</g>
<g clip-path="url(#clip-74)">
<g fill="rgb(0%, 0%, 0%)" fill-opacity="1">
<use xlink:href="#glyph-0-0" x="142.25837" y="195.675333"/>
</g>
</g>
<path fill-rule="evenodd" fill="rgb(74.5%, 74.5%, 74.5%)" fill-opacity="1" stroke-width="0.4" stroke-linecap="round" stroke-linejoin="round" stroke="rgb(0%, 0%, 0%)" stroke-opacity="1" stroke-miterlimit="10" d="M 222.382812 544.390625 C 222.382812 549.265625 215.074219 549.265625 215.074219 544.390625 C 215.074219 539.519531 222.382812 539.519531 222.382812 544.390625 Z M 222.382812 544.390625 " transform="matrix(1, 0, 0, -1, -119, 753)"/>
<g clip-path="url(#clip-75)">
<g fill="rgb(0%, 0%, 0%)" fill-opacity="1">
<use xlink:href="#glyph-0-0" x="98.55737" y="210.212333"/>
</g>
</g>
<path fill-rule="evenodd" fill="rgb(74.5%, 74.5%, 74.5%)" fill-opacity="1" stroke-width="0.4" stroke-linecap="round" stroke-linejoin="round" stroke="rgb(0%, 0%, 0%)" stroke-opacity="1" stroke-miterlimit="10" d="M 178.527344 544.390625 C 178.527344 549.265625 171.21875 549.265625 171.21875 544.390625 C 171.21875 539.519531 178.527344 539.519531 178.527344 544.390625 Z M 178.527344 544.390625 " transform="matrix(1, 0, 0, -1, -119, 753)"/>
<path fill-rule="evenodd" fill="rgb(74.5%, 74.5%, 74.5%)" fill-opacity="1" stroke-width="0.4" stroke-linecap="round" stroke-linejoin="round" stroke="rgb(0%, 0%, 0%)" stroke-opacity="1" stroke-miterlimit="10" d="M 177.914062 546.417969 L 193.761719 556.984375 " transform="matrix(1, 0, 0, -1, -119, 753)"/>
<path fill-rule="evenodd" fill="rgb(74.5%, 74.5%, 74.5%)" fill-opacity="1" stroke-width="0.4" stroke-linecap="round" stroke-linejoin="round" stroke="rgb(0%, 0%, 0%)" stroke-opacity="1" stroke-miterlimit="10" d="M 178.140625 542.757812 L 193.53125 535.0625 " transform="matrix(1, 0, 0, -1, -119, 753)"/>
<g clip-path="url(#clip-76)">
<g fill="rgb(0%, 0%, 0%)" fill-opacity="1">
<use xlink:href="#glyph-0-0" x="54.12037" y="210.620333"/>
</g>
</g>
<path fill="none" stroke-width="0.4" stroke-linecap="round" stroke-linejoin="round" stroke="rgb(0%, 0%, 0%)" stroke-opacity="1" stroke-miterlimit="10" d="M 368.839844 713.832031 L 291.175781 688.75 " transform="matrix(1, 0, 0, -1, -119, 753)"/>
<path fill-rule="evenodd" fill="rgb(0%, 0%, 0%)" fill-opacity="1" stroke-width="0.4" stroke-linecap="round" stroke-linejoin="round" stroke="rgb(0%, 0%, 0%)" stroke-opacity="1" stroke-miterlimit="10" d="M 291.175781 688.75 L 296.445312 688.703125 L 295.421875 691.871094 Z M 291.175781 688.75 " transform="matrix(1, 0, 0, -1, -119, 753)"/>
<path fill="none" stroke-width="0.4" stroke-linecap="round" stroke-linejoin="round" stroke="rgb(0%, 0%, 0%)" stroke-opacity="1" stroke-miterlimit="10" d="M 435.550781 713.832031 L 491.15625 688.277344 " transform="matrix(1, 0, 0, -1, -119, 753)"/>
<path fill-rule="evenodd" fill="rgb(0%, 0%, 0%)" fill-opacity="1" stroke-width="0.4" stroke-linecap="round" stroke-linejoin="round" stroke="rgb(0%, 0%, 0%)" stroke-opacity="1" stroke-miterlimit="10" d="M 491.15625 688.277344 L 487.308594 691.878906 L 485.917969 688.851562 Z M 491.15625 688.277344 " transform="matrix(1, 0, 0, -1, -119, 753)"/>
<path fill="none" stroke-width="0.4" stroke-linecap="round" stroke-linejoin="round" stroke="rgb(0%, 0%, 0%)" stroke-opacity="1" stroke-miterlimit="10" d="M 231.707031 655.621094 L 197.089844 631.734375 " transform="matrix(1, 0, 0, -1, -119, 753)"/>
<path fill-rule="evenodd" fill="rgb(0%, 0%, 0%)" fill-opacity="1" stroke-width="0.4" stroke-linecap="round" stroke-linejoin="round" stroke="rgb(0%, 0%, 0%)" stroke-opacity="1" stroke-miterlimit="10" d="M 197.089844 631.734375 L 202.148438 633.203125 L 200.257812 635.941406 Z M 197.089844 631.734375 " transform="matrix(1, 0, 0, -1, -119, 753)"/>
<path fill="none" stroke-width="0.4" stroke-linecap="round" stroke-linejoin="round" stroke="rgb(0%, 0%, 0%)" stroke-opacity="1" stroke-miterlimit="10" d="M 262.101562 655.621094 L 290.648438 631.960938 " transform="matrix(1, 0, 0, -1, -119, 753)"/>
<path fill-rule="evenodd" fill="rgb(0%, 0%, 0%)" fill-opacity="1" stroke-width="0.4" stroke-linecap="round" stroke-linejoin="round" stroke="rgb(0%, 0%, 0%)" stroke-opacity="1" stroke-miterlimit="10" d="M 290.648438 631.960938 L 287.863281 636.433594 L 285.738281 633.871094 Z M 290.648438 631.960938 " transform="matrix(1, 0, 0, -1, -119, 753)"/>
<path fill="none" stroke-width="0.4" stroke-linecap="round" stroke-linejoin="round" stroke="rgb(0%, 0%, 0%)" stroke-opacity="1" stroke-miterlimit="10" d="M 281.757812 593.609375 L 231.820312 565.394531 " transform="matrix(1, 0, 0, -1, -119, 753)"/>
<path fill-rule="evenodd" fill="rgb(0%, 0%, 0%)" fill-opacity="1" stroke-width="0.4" stroke-linecap="round" stroke-linejoin="round" stroke="rgb(0%, 0%, 0%)" stroke-opacity="1" stroke-miterlimit="10" d="M 231.820312 565.394531 L 236.992188 566.40625 L 235.355469 569.304688 Z M 231.820312 565.394531 " transform="matrix(1, 0, 0, -1, -119, 753)"/>
<path fill="none" stroke-width="0.4" stroke-linecap="round" stroke-linejoin="round" stroke="rgb(0%, 0%, 0%)" stroke-opacity="1" stroke-miterlimit="10" d="M 504.925781 594.046875 L 543.496094 565.871094 " transform="matrix(1, 0, 0, -1, -119, 753)"/>
<path fill-rule="evenodd" fill="rgb(0%, 0%, 0%)" fill-opacity="1" stroke-width="0.4" stroke-linecap="round" stroke-linejoin="round" stroke="rgb(0%, 0%, 0%)" stroke-opacity="1" stroke-miterlimit="10" d="M 543.496094 565.871094 L 540.441406 570.167969 L 538.476562 567.476562 Z M 543.496094 565.871094 " transform="matrix(1, 0, 0, -1, -119, 753)"/>
<path fill="none" stroke-width="0.4" stroke-linecap="round" stroke-linejoin="round" stroke="rgb(0%, 0%, 0%)" stroke-opacity="1" stroke-miterlimit="10" d="M 533.390625 656.285156 L 499.632812 632.398438 " transform="matrix(1, 0, 0, -1, -119, 753)"/>
<path fill-rule="evenodd" fill="rgb(0%, 0%, 0%)" fill-opacity="1" stroke-width="0.4" stroke-linecap="round" stroke-linejoin="round" stroke="rgb(0%, 0%, 0%)" stroke-opacity="1" stroke-miterlimit="10" d="M 499.632812 632.398438 L 504.675781 633.925781 L 502.75 636.644531 Z M 499.632812 632.398438 " transform="matrix(1, 0, 0, -1, -119, 753)"/>
<path fill="none" stroke-width="0.4" stroke-linecap="round" stroke-linejoin="round" stroke="rgb(0%, 0%, 0%)" stroke-opacity="1" stroke-miterlimit="10" d="M 554.191406 656.285156 L 600.144531 632.628906 " transform="matrix(1, 0, 0, -1, -119, 753)"/>
<path fill-rule="evenodd" fill="rgb(0%, 0%, 0%)" fill-opacity="1" stroke-width="0.4" stroke-linecap="round" stroke-linejoin="round" stroke="rgb(0%, 0%, 0%)" stroke-opacity="1" stroke-miterlimit="10" d="M 600.144531 632.628906 L 596.460938 636.394531 L 594.9375 633.433594 Z M 600.144531 632.628906 " transform="matrix(1, 0, 0, -1, -119, 753)"/>
<g clip-path="url(#clip-77)">
<g fill="rgb(0%, 0%, 0%)" fill-opacity="1">
<use xlink:href="#glyph-4-0" x="128.001326" y="128.885675"/>
</g>
</g>
<g clip-path="url(#clip-78)">
<g fill="rgb(0%, 0%, 0%)" fill-opacity="1">
<use xlink:href="#glyph-5-0" x="52.943512" y="196.505428"/>
</g>
</g>
<path fill-rule="evenodd" fill="rgb(68.2%, 93.3%, 93.3%)" fill-opacity="0.3" stroke-width="0.4" stroke-linecap="round" stroke-linejoin="round" stroke="rgb(0%, 0%, 0%)" stroke-opacity="1" stroke-miterlimit="10" d="M 144.484375 593.382812 L 119.714844 568.296875 L 240.183594 579.605469 L 226.105469 593.382812 " transform="matrix(1, 0, 0, -1, -119, 753)"/>
<path fill-rule="evenodd" fill="rgb(68.2%, 93.3%, 93.3%)" fill-opacity="0.3" stroke-width="0.4" stroke-linecap="round" stroke-linejoin="round" stroke="rgb(0%, 0%, 0%)" stroke-opacity="1" stroke-miterlimit="10" d="M 179.476562 527.042969 L 154.707031 501.960938 L 275.175781 513.269531 L 261.101562 527.042969 " transform="matrix(1, 0, 0, -1, -119, 753)"/>
<path fill-rule="evenodd" fill="rgb(68.2%, 93.3%, 93.3%)" fill-opacity="0.3" stroke-width="0.4" stroke-linecap="round" stroke-linejoin="round" stroke="rgb(0%, 0%, 0%)" stroke-opacity="1" stroke-miterlimit="10" d="M 503.929688 527.519531 L 479.160156 502.4375 L 599.628906 513.746094 L 585.550781 527.519531 " transform="matrix(1, 0, 0, -1, -119, 753)"/>
<path fill-rule="evenodd" fill="rgb(68.2%, 93.3%, 93.3%)" fill-opacity="0.3" stroke-width="0.4" stroke-linecap="round" stroke-linejoin="round" stroke="rgb(0%, 0%, 0%)" stroke-opacity="1" stroke-miterlimit="10" d="M 560.0625 594.277344 L 548.023438 576.769531 L 652.34375 567.136719 L 634.613281 594.277344 " transform="matrix(1, 0, 0, -1, -119, 753)"/>
</svg>
