<?xml version="1.0" encoding="UTF-8"?>
<svg xmlns="http://www.w3.org/2000/svg" xmlns:xlink="http://www.w3.org/1999/xlink" width="682pt" height="407pt" viewBox="0 0 682 407" version="1.1">
<defs>
<g>
<symbol overflow="visible" id="glyph0-0">
<path style="stroke:none;" d=""/>
</symbol>
<symbol overflow="visible" id="glyph0-1">
<path style="stroke:none;" d="M 6.6875 -10.3125 L 6.6875 -1.734375 L 3.234375 -1.734375 C 2.53125 -1.734375 2.171875 -1.421875 2.171875 -0.890625 C 2.171875 -0.5 2.421875 -0.078125 2.875 -0.03125 L 11.765625 -0.03125 C 12.359375 -0.03125 12.6875 -0.328125 12.6875 -0.859375 C 12.6875 -1.421875 12.328125 -1.75 11.6875 -1.75 C 11.46875 -1.75 11.234375 -1.734375 11.046875 -1.734375 L 8.640625 -1.734375 L 8.640625 -11.078125 C 8.640625 -11.875 8.140625 -12.015625 7.609375 -12.015625 L 3.453125 -12.015625 C 2.984375 -12.015625 2.40625 -11.90625 2.40625 -11.15625 C 2.40625 -10.546875 2.8125 -10.3125 3.484375 -10.3125 Z M 7.0625 -17.0625 C 6.296875 -16.953125 5.859375 -16.3125 5.859375 -15.703125 C 5.859375 -15.09375 6.359375 -14.3125 7.171875 -14.3125 C 8.03125 -14.3125 8.640625 -14.984375 8.640625 -15.703125 C 8.640625 -16.3125 8.140625 -17.09375 7.3125 -17.09375 C 7.21875 -17.09375 7.140625 -17.0625 7.0625 -17.0625 Z M 7.0625 -17.0625 "/>
</symbol>
<symbol overflow="visible" id="glyph0-2">
<path style="stroke:none;" d="M 4.625 -10.734375 L 4.625 -11.046875 C 4.625 -11.609375 4.375 -12.015625 3.65625 -12.015625 L 1.234375 -12.015625 C 0.71875 -12.015625 0.3125 -11.71875 0.3125 -11.15625 C 0.3125 -10.578125 0.75 -10.3125 1.28125 -10.3125 L 2.671875 -10.3125 L 2.671875 -1.734375 L 1.234375 -1.734375 C 0.671875 -1.734375 0.3125 -1.359375 0.3125 -0.890625 C 0.3125 -0.3125 0.71875 -0.03125 1.34375 -0.03125 L 5.90625 -0.03125 C 6.546875 -0.03125 7 -0.25 7 -0.859375 C 7 -1.421875 6.609375 -1.734375 6.078125 -1.734375 L 4.625 -1.734375 L 4.625 -6.390625 C 4.625 -8.5625 5.90625 -10.484375 8.171875 -10.484375 C 9.625 -10.484375 9.984375 -9.40625 9.984375 -8.171875 L 9.984375 -1.734375 L 8.640625 -1.734375 C 8.0625 -1.734375 7.75 -1.3125 7.75 -0.859375 C 7.75 -0.21875 8.25 -0.03125 8.8125 -0.03125 L 13.28125 -0.03125 C 13.890625 -0.03125 14.3125 -0.3125 14.3125 -0.890625 C 14.3125 -1.359375 13.953125 -1.734375 13.390625 -1.734375 L 11.9375 -1.734375 L 11.9375 -7.84375 C 11.9375 -9.734375 11.4375 -12.1875 8.3125 -12.1875 C 6.96875 -12.1875 5.609375 -11.65625 4.625 -10.734375 Z M 4.625 -10.734375 "/>
</symbol>
<symbol overflow="visible" id="glyph0-3">
<path style="stroke:none;" d="M 3.875 -0.921875 C 4.90625 -0.140625 6.15625 0.140625 7.453125 0.140625 C 9.8125 0.140625 12.796875 -0.703125 12.796875 -3.515625 C 12.796875 -7.171875 7.53125 -7.171875 5.65625 -7.59375 C 4.875 -7.78125 3.703125 -8.171875 3.703125 -9.015625 C 3.703125 -10.265625 5.75 -10.484375 6.609375 -10.546875 C 6.859375 -10.546875 7.109375 -10.578125 7.390625 -10.578125 C 8.25 -10.578125 9.765625 -10.375 9.953125 -9.265625 C 10.15625 -8.53125 10.125 -8.09375 11.046875 -8.09375 C 11.859375 -8.09375 11.96875 -8.625 11.96875 -9.140625 L 11.96875 -11.34375 C 11.96875 -11.90625 11.65625 -12.265625 11.125 -12.265625 C 10.734375 -12.265625 10.4375 -12.015625 10.296875 -11.6875 C 9.34375 -12.078125 8.5 -12.265625 7.453125 -12.265625 C 5.15625 -12.265625 2.015625 -11.65625 2.015625 -8.953125 C 2.015625 -4.4375 11.09375 -6.53125 11.09375 -3.546875 L 11.09375 -3.453125 C 11.09375 -1.671875 8.234375 -1.5625 7.609375 -1.5625 L 7.5 -1.5625 C 6.046875 -1.5625 4.71875 -2.140625 4.125 -3.6875 C 3.796875 -4.40625 3.796875 -4.828125 2.953125 -4.828125 C 2.125 -4.828125 2.015625 -4.328125 2.015625 -3.828125 L 2.015625 -1.390625 C 2.015625 -1.234375 1.984375 -1.03125 1.984375 -0.84375 C 1.984375 -0.21875 2.3125 0.140625 2.84375 0.140625 C 3.515625 0.140625 3.6875 -0.421875 3.875 -0.921875 Z M 3.875 -0.921875 "/>
</symbol>
<symbol overflow="visible" id="glyph0-4">
<path style="stroke:none;" d="M 3.546875 -5.359375 L 11.859375 -5.359375 C 12.4375 -5.359375 12.9375 -5.5 12.9375 -6.328125 C 12.9375 -7.84375 12.515625 -9.421875 11.609375 -10.546875 C 10.59375 -11.71875 9.09375 -12.265625 7.59375 -12.265625 C 4.4375 -12.265625 1.53125 -9.765625 1.53125 -6 L 1.53125 -5.75 C 1.671875 -2.421875 4.625 0.140625 7.984375 0.140625 L 8.25 0.140625 C 9.796875 0.078125 11.4375 -0.5 12.390625 -1.78125 C 12.609375 -2.125 12.9375 -2.625 12.9375 -3.0625 C 12.9375 -3.65625 12.4375 -3.84375 11.9375 -3.84375 C 11.09375 -3.84375 11.078125 -3.3125 10.796875 -2.84375 C 10.203125 -1.953125 9.140625 -1.5625 8.109375 -1.5625 C 5.859375 -1.5625 4.125 -3.09375 3.546875 -5.359375 Z M 3.5625 -7.03125 C 4.09375 -8.84375 5.296875 -10.578125 7.59375 -10.578125 C 9.625 -10.578125 10.828125 -8.953125 10.9375 -7.03125 Z M 3.5625 -7.03125 "/>
</symbol>
<symbol overflow="visible" id="glyph0-5">
<path style="stroke:none;" d="M 6.1875 -9.953125 L 6.1875 -10.96875 C 6.1875 -11.65625 5.90625 -12.015625 5.1875 -12.015625 L 1.8125 -12.015625 C 1.28125 -12.015625 0.859375 -11.765625 0.859375 -11.1875 C 0.859375 -10.59375 1.234375 -10.3125 1.890625 -10.3125 L 4.234375 -10.3125 L 4.234375 -1.734375 L 1.84375 -1.734375 C 1.203125 -1.734375 0.859375 -1.390625 0.859375 -0.890625 C 0.859375 -0.421875 1.203125 0 1.78125 0 C 1.921875 0 2.09375 -0.03125 2.234375 -0.03125 L 7.71875 -0.03125 C 8.140625 -0.03125 8.59375 0 9.03125 0 C 9.875 0 10.40625 -0.140625 10.40625 -0.890625 C 10.40625 -1.390625 10.09375 -1.734375 9.40625 -1.734375 L 6.1875 -1.734375 L 6.1875 -4.9375 C 6.1875 -7.453125 7.5625 -10.515625 10.96875 -10.515625 C 11.34375 -10.515625 11.328125 -9.265625 12.40625 -9.265625 C 13.03125 -9.265625 13.578125 -9.734375 13.578125 -10.453125 C 13.578125 -11.796875 12 -12.21875 10.9375 -12.21875 C 9.0625 -12.21875 7.453125 -11.296875 6.1875 -9.953125 Z M 6.1875 -9.953125 "/>
</symbol>
<symbol overflow="visible" id="glyph0-6">
<path style="stroke:none;" d="M 4.234375 -12.015625 L 1.703125 -12.015625 C 1.03125 -12.015625 0.703125 -11.6875 0.703125 -11.15625 C 0.703125 -10.59375 1.140625 -10.3125 1.671875 -10.3125 L 4.234375 -10.3125 L 4.234375 -3.0625 C 4.4375 -1.03125 6.03125 0.140625 8.203125 0.140625 C 10.265625 0.140625 12.515625 -1.140625 12.515625 -3.4375 L 12.515625 -3.765625 C 12.515625 -4.515625 12.015625 -4.625 11.515625 -4.625 C 10.90625 -4.625 10.578125 -4.296875 10.578125 -3.65625 L 10.578125 -3.453125 C 10.578125 -2.171875 9.3125 -1.5625 8.3125 -1.5625 C 6.75 -1.5625 6.1875 -2.515625 6.1875 -3.796875 L 6.1875 -10.3125 L 10.796875 -10.3125 C 11.296875 -10.3125 11.90625 -10.40625 11.90625 -11.15625 C 11.90625 -11.6875 11.578125 -12.015625 10.96875 -12.015625 L 6.1875 -12.015625 L 6.1875 -14.46875 C 6.1875 -15.28125 5.75 -15.453125 5.21875 -15.453125 C 4.6875 -15.453125 4.234375 -15.25 4.234375 -14.453125 Z M 4.234375 -12.015625 "/>
</symbol>
<symbol overflow="visible" id="glyph1-0">
<path style="stroke:none;" d=""/>
</symbol>
<symbol overflow="visible" id="glyph1-1">
<path style="stroke:none;" d="M 9.234375 6.6875 C 9.234375 6.609375 9.234375 6.546875 8.75 6.078125 C 5.265625 2.5625 4.375 -2.703125 4.375 -6.96875 C 4.375 -11.828125 5.4375 -16.671875 8.875 -20.171875 C 9.234375 -20.5 9.234375 -20.5625 9.234375 -20.640625 C 9.234375 -20.828125 9.125 -20.921875 8.953125 -20.921875 C 8.671875 -20.921875 6.15625 -19.015625 4.515625 -15.484375 C 3.09375 -12.40625 2.765625 -9.3125 2.765625 -6.96875 C 2.765625 -4.796875 3.0625 -1.421875 4.609375 1.734375 C 6.28125 5.15625 8.671875 6.96875 8.953125 6.96875 C 9.125 6.96875 9.234375 6.890625 9.234375 6.6875 Z M 9.234375 6.6875 "/>
</symbol>
<symbol overflow="visible" id="glyph2-0">
<path style="stroke:none;" d=""/>
</symbol>
<symbol overflow="visible" id="glyph2-1">
<path style="stroke:none;" d="M 9.3125 -8.421875 C 9.484375 -9.140625 10.125 -11.71875 12.078125 -11.71875 C 12.21875 -11.71875 12.890625 -11.71875 13.46875 -11.34375 C 12.6875 -11.21875 12.125 -10.515625 12.125 -9.84375 C 12.125 -9.40625 12.4375 -8.875 13.1875 -8.875 C 13.8125 -8.875 14.703125 -9.375 14.703125 -10.484375 C 14.703125 -11.9375 13.046875 -12.328125 12.109375 -12.328125 C 10.484375 -12.328125 9.515625 -10.84375 9.171875 -10.203125 C 8.484375 -12.046875 6.96875 -12.328125 6.15625 -12.328125 C 3.265625 -12.328125 1.671875 -8.734375 1.671875 -8.03125 C 1.671875 -7.75 1.953125 -7.75 2.015625 -7.75 C 2.234375 -7.75 2.3125 -7.8125 2.375 -8.0625 C 3.3125 -11.015625 5.15625 -11.71875 6.109375 -11.71875 C 6.640625 -11.71875 7.609375 -11.46875 7.609375 -9.84375 C 7.609375 -8.984375 7.140625 -7.109375 6.109375 -3.203125 C 5.65625 -1.484375 4.6875 -0.3125 3.453125 -0.3125 C 3.296875 -0.3125 2.65625 -0.3125 2.0625 -0.671875 C 2.765625 -0.8125 3.375 -1.390625 3.375 -2.171875 C 3.375 -2.921875 2.765625 -3.15625 2.34375 -3.15625 C 1.5 -3.15625 0.8125 -2.421875 0.8125 -1.53125 C 0.8125 -0.25 2.203125 0.3125 3.4375 0.3125 C 5.265625 0.3125 6.28125 -1.640625 6.359375 -1.8125 C 6.6875 -0.78125 7.703125 0.3125 9.375 0.3125 C 12.25 0.3125 13.828125 -3.296875 13.828125 -3.984375 C 13.828125 -4.265625 13.578125 -4.265625 13.5 -4.265625 C 13.25 -4.265625 13.1875 -4.15625 13.140625 -3.953125 C 12.21875 -0.96875 10.3125 -0.3125 9.421875 -0.3125 C 8.34375 -0.3125 7.890625 -1.203125 7.890625 -2.140625 C 7.890625 -2.765625 8.0625 -3.375 8.375 -4.609375 Z M 9.3125 -8.421875 "/>
</symbol>
<symbol overflow="visible" id="glyph2-2">
<path style="stroke:none;" d="M 5.65625 -0.03125 C 5.65625 -1.875 4.96875 -2.953125 3.875 -2.953125 C 2.953125 -2.953125 2.40625 -2.265625 2.40625 -1.484375 C 2.40625 -0.71875 2.953125 0 3.875 0 C 4.21875 0 4.578125 -0.109375 4.859375 -0.359375 C 4.9375 -0.421875 4.96875 -0.453125 5 -0.453125 C 5.015625 -0.453125 5.046875 -0.421875 5.046875 -0.03125 C 5.046875 2.03125 4.078125 3.703125 3.15625 4.625 C 2.84375 4.9375 2.84375 5 2.84375 5.078125 C 2.84375 5.265625 2.984375 5.390625 3.125 5.390625 C 3.4375 5.390625 5.65625 3.234375 5.65625 -0.03125 Z M 5.65625 -0.03125 "/>
</symbol>
<symbol overflow="visible" id="glyph3-0">
<path style="stroke:none;" d=""/>
</symbol>
<symbol overflow="visible" id="glyph3-1">
<path style="stroke:none;" d="M 20.109375 -18.1875 C 20.109375 -19.046875 20.03125 -19.15625 19.140625 -19.15625 L 2.53125 -19.15625 C 1.671875 -19.15625 1.5625 -19.078125 1.5625 -18.1875 L 1.5625 -1 C 1.5625 -0.109375 1.640625 0 2.5625 0 L 19.109375 0 C 20.03125 0 20.109375 -0.078125 20.109375 -0.96875 Z M 2.671875 -18.046875 L 19 -18.046875 L 19 -1.109375 L 2.671875 -1.109375 Z M 2.671875 -18.046875 "/>
</symbol>
<symbol overflow="visible" id="glyph4-0">
<path style="stroke:none;" d=""/>
</symbol>
<symbol overflow="visible" id="glyph4-1">
<path style="stroke:none;" d="M 8.0625 -6.96875 C 8.0625 -9.140625 7.75 -12.515625 6.21875 -15.671875 C 4.546875 -19.109375 2.140625 -20.921875 1.875 -20.921875 C 1.703125 -20.921875 1.59375 -20.8125 1.59375 -20.640625 C 1.59375 -20.5625 1.59375 -20.5 2.125 -20 C 4.859375 -17.234375 6.4375 -12.796875 6.4375 -6.96875 C 6.4375 -2.203125 5.40625 2.703125 1.953125 6.21875 C 1.59375 6.546875 1.59375 6.609375 1.59375 6.6875 C 1.59375 6.859375 1.703125 6.96875 1.875 6.96875 C 2.140625 6.96875 4.65625 5.078125 6.296875 1.53125 C 7.71875 -1.53125 8.0625 -4.625 8.0625 -6.96875 Z M 8.0625 -6.96875 "/>
</symbol>
<symbol overflow="visible" id="glyph4-2">
<path style="stroke:none;" d="M 19.15625 -9.125 C 19.578125 -9.125 20.109375 -9.125 20.109375 -9.671875 C 20.109375 -10.234375 19.578125 -10.234375 19.1875 -10.234375 L 2.484375 -10.234375 C 2.09375 -10.234375 1.5625 -10.234375 1.5625 -9.671875 C 1.5625 -9.125 2.09375 -9.125 2.515625 -9.125 Z M 19.1875 -3.703125 C 19.578125 -3.703125 20.109375 -3.703125 20.109375 -4.265625 C 20.109375 -4.828125 19.578125 -4.828125 19.15625 -4.828125 L 2.515625 -4.828125 C 2.09375 -4.828125 1.5625 -4.828125 1.5625 -4.265625 C 1.5625 -3.703125 2.09375 -3.703125 2.484375 -3.703125 Z M 19.1875 -3.703125 "/>
</symbol>
<symbol overflow="visible" id="glyph5-0">
<path style="stroke:none;" d=""/>
</symbol>
<symbol overflow="visible" id="glyph5-1">
<path style="stroke:none;" d="M 6.6875 -10.3125 L 6.6875 -1.734375 L 3.234375 -1.734375 C 2.53125 -1.734375 2.171875 -1.421875 2.171875 -0.890625 C 2.171875 -0.5 2.421875 -0.078125 2.875 -0.03125 L 11.765625 -0.03125 C 12.359375 -0.03125 12.6875 -0.328125 12.6875 -0.859375 C 12.6875 -1.421875 12.328125 -1.75 11.6875 -1.75 C 11.46875 -1.75 11.234375 -1.734375 11.046875 -1.734375 L 8.640625 -1.734375 L 8.640625 -11.078125 C 8.640625 -11.875 8.140625 -12.015625 7.609375 -12.015625 L 3.453125 -12.015625 C 2.984375 -12.015625 2.40625 -11.90625 2.40625 -11.15625 C 2.40625 -10.546875 2.8125 -10.3125 3.484375 -10.3125 Z M 7.0625 -17.0625 C 6.296875 -16.953125 5.859375 -16.3125 5.859375 -15.703125 C 5.859375 -15.09375 6.359375 -14.3125 7.171875 -14.3125 C 8.03125 -14.3125 8.640625 -14.984375 8.640625 -15.703125 C 8.640625 -16.3125 8.140625 -17.09375 7.3125 -17.09375 C 7.21875 -17.09375 7.140625 -17.0625 7.0625 -17.0625 Z M 7.0625 -17.0625 "/>
</symbol>
<symbol overflow="visible" id="glyph5-2">
<path style="stroke:none;" d="M 4.625 -10.734375 L 4.625 -11.046875 C 4.625 -11.609375 4.375 -12.015625 3.65625 -12.015625 L 1.234375 -12.015625 C 0.71875 -12.015625 0.3125 -11.71875 0.3125 -11.15625 C 0.3125 -10.578125 0.75 -10.3125 1.28125 -10.3125 L 2.671875 -10.3125 L 2.671875 -1.734375 L 1.234375 -1.734375 C 0.671875 -1.734375 0.3125 -1.359375 0.3125 -0.890625 C 0.3125 -0.3125 0.71875 -0.03125 1.34375 -0.03125 L 5.90625 -0.03125 C 6.546875 -0.03125 7 -0.25 7 -0.859375 C 7 -1.421875 6.609375 -1.734375 6.078125 -1.734375 L 4.625 -1.734375 L 4.625 -6.390625 C 4.625 -8.5625 5.90625 -10.484375 8.171875 -10.484375 C 9.625 -10.484375 9.984375 -9.40625 9.984375 -8.171875 L 9.984375 -1.734375 L 8.640625 -1.734375 C 8.0625 -1.734375 7.75 -1.3125 7.75 -0.859375 C 7.75 -0.21875 8.25 -0.03125 8.8125 -0.03125 L 13.28125 -0.03125 C 13.890625 -0.03125 14.3125 -0.3125 14.3125 -0.890625 C 14.3125 -1.359375 13.953125 -1.734375 13.390625 -1.734375 L 11.9375 -1.734375 L 11.9375 -7.84375 C 11.9375 -9.734375 11.4375 -12.1875 8.3125 -12.1875 C 6.96875 -12.1875 5.609375 -11.65625 4.625 -10.734375 Z M 4.625 -10.734375 "/>
</symbol>
<symbol overflow="visible" id="glyph5-3">
<path style="stroke:none;" d="M 3.875 -0.921875 C 4.90625 -0.140625 6.15625 0.140625 7.453125 0.140625 C 9.8125 0.140625 12.796875 -0.703125 12.796875 -3.515625 C 12.796875 -7.171875 7.53125 -7.171875 5.65625 -7.59375 C 4.875 -7.78125 3.703125 -8.171875 3.703125 -9.015625 C 3.703125 -10.265625 5.75 -10.484375 6.609375 -10.546875 C 6.859375 -10.546875 7.109375 -10.578125 7.390625 -10.578125 C 8.25 -10.578125 9.765625 -10.375 9.953125 -9.265625 C 10.15625 -8.53125 10.125 -8.09375 11.046875 -8.09375 C 11.859375 -8.09375 11.96875 -8.625 11.96875 -9.140625 L 11.96875 -11.34375 C 11.96875 -11.90625 11.65625 -12.265625 11.125 -12.265625 C 10.734375 -12.265625 10.4375 -12.015625 10.296875 -11.6875 C 9.34375 -12.078125 8.5 -12.265625 7.453125 -12.265625 C 5.15625 -12.265625 2.015625 -11.65625 2.015625 -8.953125 C 2.015625 -4.4375 11.09375 -6.53125 11.09375 -3.546875 L 11.09375 -3.453125 C 11.09375 -1.671875 8.234375 -1.5625 7.609375 -1.5625 L 7.5 -1.5625 C 6.046875 -1.5625 4.71875 -2.140625 4.125 -3.6875 C 3.796875 -4.40625 3.796875 -4.828125 2.953125 -4.828125 C 2.125 -4.828125 2.015625 -4.328125 2.015625 -3.828125 L 2.015625 -1.390625 C 2.015625 -1.234375 1.984375 -1.03125 1.984375 -0.84375 C 1.984375 -0.21875 2.3125 0.140625 2.84375 0.140625 C 3.515625 0.140625 3.6875 -0.421875 3.875 -0.921875 Z M 3.875 -0.921875 "/>
</symbol>
<symbol overflow="visible" id="glyph5-4">
<path style="stroke:none;" d="M 3.546875 -5.359375 L 11.859375 -5.359375 C 12.4375 -5.359375 12.9375 -5.5 12.9375 -6.328125 C 12.9375 -7.84375 12.515625 -9.421875 11.609375 -10.546875 C 10.59375 -11.71875 9.09375 -12.265625 7.59375 -12.265625 C 4.4375 -12.265625 1.53125 -9.765625 1.53125 -6 L 1.53125 -5.75 C 1.671875 -2.421875 4.625 0.140625 7.984375 0.140625 L 8.25 0.140625 C 9.796875 0.078125 11.4375 -0.5 12.390625 -1.78125 C 12.609375 -2.125 12.9375 -2.625 12.9375 -3.0625 C 12.9375 -3.65625 12.4375 -3.84375 11.9375 -3.84375 C 11.09375 -3.84375 11.078125 -3.3125 10.796875 -2.84375 C 10.203125 -1.953125 9.140625 -1.5625 8.109375 -1.5625 C 5.859375 -1.5625 4.125 -3.09375 3.546875 -5.359375 Z M 3.5625 -7.03125 C 4.09375 -8.84375 5.296875 -10.578125 7.59375 -10.578125 C 9.625 -10.578125 10.828125 -8.953125 10.9375 -7.03125 Z M 3.5625 -7.03125 "/>
</symbol>
<symbol overflow="visible" id="glyph5-5">
<path style="stroke:none;" d="M 6.1875 -9.953125 L 6.1875 -10.96875 C 6.1875 -11.65625 5.90625 -12.015625 5.1875 -12.015625 L 1.8125 -12.015625 C 1.28125 -12.015625 0.859375 -11.765625 0.859375 -11.1875 C 0.859375 -10.59375 1.234375 -10.3125 1.890625 -10.3125 L 4.234375 -10.3125 L 4.234375 -1.734375 L 1.84375 -1.734375 C 1.203125 -1.734375 0.859375 -1.390625 0.859375 -0.890625 C 0.859375 -0.421875 1.203125 0 1.78125 0 C 1.921875 0 2.09375 -0.03125 2.234375 -0.03125 L 7.71875 -0.03125 C 8.140625 -0.03125 8.59375 0 9.03125 0 C 9.875 0 10.40625 -0.140625 10.40625 -0.890625 C 10.40625 -1.390625 10.09375 -1.734375 9.40625 -1.734375 L 6.1875 -1.734375 L 6.1875 -4.9375 C 6.1875 -7.453125 7.5625 -10.515625 10.96875 -10.515625 C 11.34375 -10.515625 11.328125 -9.265625 12.40625 -9.265625 C 13.03125 -9.265625 13.578125 -9.734375 13.578125 -10.453125 C 13.578125 -11.796875 12 -12.21875 10.9375 -12.21875 C 9.0625 -12.21875 7.453125 -11.296875 6.1875 -9.953125 Z M 6.1875 -9.953125 "/>
</symbol>
<symbol overflow="visible" id="glyph5-6">
<path style="stroke:none;" d="M 4.234375 -12.015625 L 1.703125 -12.015625 C 1.03125 -12.015625 0.703125 -11.6875 0.703125 -11.15625 C 0.703125 -10.59375 1.140625 -10.3125 1.671875 -10.3125 L 4.234375 -10.3125 L 4.234375 -3.0625 C 4.4375 -1.03125 6.03125 0.140625 8.203125 0.140625 C 10.265625 0.140625 12.515625 -1.140625 12.515625 -3.4375 L 12.515625 -3.765625 C 12.515625 -4.515625 12.015625 -4.625 11.515625 -4.625 C 10.90625 -4.625 10.578125 -4.296875 10.578125 -3.65625 L 10.578125 -3.453125 C 10.578125 -2.171875 9.3125 -1.5625 8.3125 -1.5625 C 6.75 -1.5625 6.1875 -2.515625 6.1875 -3.796875 L 6.1875 -10.3125 L 10.796875 -10.3125 C 11.296875 -10.3125 11.90625 -10.40625 11.90625 -11.15625 C 11.90625 -11.6875 11.578125 -12.015625 10.96875 -12.015625 L 6.1875 -12.015625 L 6.1875 -14.46875 C 6.1875 -15.28125 5.75 -15.453125 5.21875 -15.453125 C 4.6875 -15.453125 4.234375 -15.25 4.234375 -14.453125 Z M 4.234375 -12.015625 "/>
</symbol>
<symbol overflow="visible" id="glyph6-0">
<path style="stroke:none;" d=""/>
</symbol>
<symbol overflow="visible" id="glyph6-1">
<path style="stroke:none;" d="M 9.3125 -8.421875 C 9.484375 -9.140625 10.125 -11.71875 12.078125 -11.71875 C 12.21875 -11.71875 12.890625 -11.71875 13.46875 -11.34375 C 12.6875 -11.21875 12.125 -10.515625 12.125 -9.84375 C 12.125 -9.40625 12.4375 -8.875 13.1875 -8.875 C 13.8125 -8.875 14.703125 -9.375 14.703125 -10.484375 C 14.703125 -11.9375 13.046875 -12.328125 12.109375 -12.328125 C 10.484375 -12.328125 9.515625 -10.84375 9.171875 -10.203125 C 8.484375 -12.046875 6.96875 -12.328125 6.15625 -12.328125 C 3.265625 -12.328125 1.671875 -8.734375 1.671875 -8.03125 C 1.671875 -7.75 1.953125 -7.75 2.015625 -7.75 C 2.234375 -7.75 2.3125 -7.8125 2.375 -8.0625 C 3.3125 -11.015625 5.15625 -11.71875 6.109375 -11.71875 C 6.640625 -11.71875 7.609375 -11.46875 7.609375 -9.84375 C 7.609375 -8.984375 7.140625 -7.109375 6.109375 -3.203125 C 5.65625 -1.484375 4.6875 -0.3125 3.453125 -0.3125 C 3.296875 -0.3125 2.65625 -0.3125 2.0625 -0.671875 C 2.765625 -0.8125 3.375 -1.390625 3.375 -2.171875 C 3.375 -2.921875 2.765625 -3.15625 2.34375 -3.15625 C 1.5 -3.15625 0.8125 -2.421875 0.8125 -1.53125 C 0.8125 -0.25 2.203125 0.3125 3.4375 0.3125 C 5.265625 0.3125 6.28125 -1.640625 6.359375 -1.8125 C 6.6875 -0.78125 7.703125 0.3125 9.375 0.3125 C 12.25 0.3125 13.828125 -3.296875 13.828125 -3.984375 C 13.828125 -4.265625 13.578125 -4.265625 13.5 -4.265625 C 13.25 -4.265625 13.1875 -4.15625 13.140625 -3.953125 C 12.21875 -0.96875 10.3125 -0.3125 9.421875 -0.3125 C 8.34375 -0.3125 7.890625 -1.203125 7.890625 -2.140625 C 7.890625 -2.765625 8.0625 -3.375 8.375 -4.609375 Z M 9.3125 -8.421875 "/>
</symbol>
<symbol overflow="visible" id="glyph7-0">
<path style="stroke:none;" d=""/>
</symbol>
<symbol overflow="visible" id="glyph7-1">
<path style="stroke:none;" d="M 2.703125 -2.375 L 2.703125 -0.03125 L 3.4375 -0.03125 L 2.671875 3.453125 L 3.875 3.453125 L 5.015625 0 L 5.015625 -2.375 Z M 2.703125 -2.375 "/>
</symbol>
<symbol overflow="visible" id="glyph8-0">
<path style="stroke:none;" d=""/>
</symbol>
<symbol overflow="visible" id="glyph8-1">
<path style="stroke:none;" d="M 3.703125 -2.3125 C 5.21875 -3.9375 6.03125 -4.625 7.03125 -5.5 C 7.03125 -5.515625 8.75 -7 9.765625 -8 C 12.40625 -10.59375 13.03125 -11.9375 13.03125 -12.046875 C 13.03125 -12.328125 12.78125 -12.328125 12.71875 -12.328125 C 12.515625 -12.328125 12.4375 -12.265625 12.296875 -12.015625 C 11.46875 -10.6875 10.875 -10.234375 10.203125 -10.234375 C 9.53125 -10.234375 9.203125 -10.65625 8.78125 -11.125 C 8.25 -11.765625 7.78125 -12.328125 6.859375 -12.328125 C 4.765625 -12.328125 3.484375 -9.734375 3.484375 -9.140625 C 3.484375 -9.015625 3.5625 -8.84375 3.828125 -8.84375 C 4.078125 -8.84375 4.125 -8.984375 4.1875 -9.140625 C 4.71875 -10.4375 6.328125 -10.453125 6.546875 -10.453125 C 7.140625 -10.453125 7.671875 -10.265625 8.3125 -10.046875 C 9.421875 -9.625 9.734375 -9.625 10.453125 -9.625 C 9.453125 -8.421875 7.109375 -6.421875 6.578125 -5.96875 L 4.078125 -3.625 C 2.171875 -1.75 1.203125 -0.171875 1.203125 0.03125 C 1.203125 0.3125 1.484375 0.3125 1.53125 0.3125 C 1.75 0.3125 1.8125 0.25 1.984375 -0.0625 C 2.625 -1.03125 3.453125 -1.78125 4.34375 -1.78125 C 5 -1.78125 5.265625 -1.53125 5.96875 -0.71875 C 6.4375 -0.140625 6.9375 0.3125 7.75 0.3125 C 10.515625 0.3125 12.125 -3.234375 12.125 -3.984375 C 12.125 -4.125 12.015625 -4.265625 11.796875 -4.265625 C 11.546875 -4.265625 11.484375 -4.09375 11.40625 -3.90625 C 10.765625 -2.09375 8.984375 -1.5625 8.0625 -1.5625 C 7.5 -1.5625 7 -1.734375 6.421875 -1.921875 C 5.46875 -2.28125 5.046875 -2.40625 4.46875 -2.40625 C 4.40625 -2.40625 3.953125 -2.40625 3.703125 -2.3125 Z M 3.703125 -2.3125 "/>
</symbol>
<symbol overflow="visible" id="glyph8-2">
<path style="stroke:none;" d="M 9.3125 -8.421875 C 9.484375 -9.140625 10.125 -11.71875 12.078125 -11.71875 C 12.21875 -11.71875 12.890625 -11.71875 13.46875 -11.34375 C 12.6875 -11.21875 12.125 -10.515625 12.125 -9.84375 C 12.125 -9.40625 12.4375 -8.875 13.1875 -8.875 C 13.8125 -8.875 14.703125 -9.375 14.703125 -10.484375 C 14.703125 -11.9375 13.046875 -12.328125 12.109375 -12.328125 C 10.484375 -12.328125 9.515625 -10.84375 9.171875 -10.203125 C 8.484375 -12.046875 6.96875 -12.328125 6.15625 -12.328125 C 3.265625 -12.328125 1.671875 -8.734375 1.671875 -8.03125 C 1.671875 -7.75 1.953125 -7.75 2.015625 -7.75 C 2.234375 -7.75 2.3125 -7.8125 2.375 -8.0625 C 3.3125 -11.015625 5.15625 -11.71875 6.109375 -11.71875 C 6.640625 -11.71875 7.609375 -11.46875 7.609375 -9.84375 C 7.609375 -8.984375 7.140625 -7.109375 6.109375 -3.203125 C 5.65625 -1.484375 4.6875 -0.3125 3.453125 -0.3125 C 3.296875 -0.3125 2.65625 -0.3125 2.0625 -0.671875 C 2.765625 -0.8125 3.375 -1.390625 3.375 -2.171875 C 3.375 -2.921875 2.765625 -3.15625 2.34375 -3.15625 C 1.5 -3.15625 0.8125 -2.421875 0.8125 -1.53125 C 0.8125 -0.25 2.203125 0.3125 3.4375 0.3125 C 5.265625 0.3125 6.28125 -1.640625 6.359375 -1.8125 C 6.6875 -0.78125 7.703125 0.3125 9.375 0.3125 C 12.25 0.3125 13.828125 -3.296875 13.828125 -3.984375 C 13.828125 -4.265625 13.578125 -4.265625 13.5 -4.265625 C 13.25 -4.265625 13.1875 -4.15625 13.140625 -3.953125 C 12.21875 -0.96875 10.3125 -0.3125 9.421875 -0.3125 C 8.34375 -0.3125 7.890625 -1.203125 7.890625 -2.140625 C 7.890625 -2.765625 8.0625 -3.375 8.375 -4.609375 Z M 9.3125 -8.421875 "/>
</symbol>
<symbol overflow="visible" id="glyph9-0">
<path style="stroke:none;" d=""/>
</symbol>
<symbol overflow="visible" id="glyph9-1">
<path style="stroke:none;" d="M 10.4375 -16.875 C 10.6875 -17.875 10.765625 -18.1875 13.390625 -18.1875 C 14.21875 -18.1875 14.453125 -18.1875 14.453125 -18.71875 C 14.453125 -19.046875 14.140625 -19.046875 14 -19.046875 C 13.078125 -19.046875 10.796875 -18.96875 9.875 -18.96875 C 9.03125 -18.96875 7 -19.046875 6.15625 -19.046875 C 5.96875 -19.046875 5.640625 -19.046875 5.640625 -18.484375 C 5.640625 -18.1875 5.890625 -18.1875 6.421875 -18.1875 C 6.46875 -18.1875 7 -18.1875 7.46875 -18.125 C 7.984375 -18.078125 8.234375 -18.046875 8.234375 -17.6875 C 8.234375 -17.578125 8.203125 -17.484375 8.109375 -17.15625 L 4.375 -2.171875 C 4.09375 -1.09375 4.046875 -0.859375 1.84375 -0.859375 C 1.359375 -0.859375 1.09375 -0.859375 1.09375 -0.3125 C 1.09375 0 1.34375 0 1.84375 0 L 14.75 0 C 15.421875 0 15.453125 0 15.625 -0.46875 L 17.828125 -6.5 C 17.9375 -6.8125 17.9375 -6.859375 17.9375 -6.890625 C 17.9375 -7 17.84375 -7.203125 17.59375 -7.203125 C 17.34375 -7.203125 17.3125 -7.0625 17.125 -6.609375 C 16.171875 -4.046875 14.953125 -0.859375 10.125 -0.859375 L 7.5 -0.859375 C 7.109375 -0.859375 7.0625 -0.859375 6.890625 -0.890625 C 6.609375 -0.921875 6.53125 -0.953125 6.53125 -1.171875 C 6.53125 -1.25 6.53125 -1.3125 6.671875 -1.8125 Z M 10.4375 -16.875 "/>
</symbol>
<symbol overflow="visible" id="glyph9-2">
<path style="stroke:none;" d="M 10.453125 -17.125 C 10.625 -17.796875 10.703125 -18.078125 11.234375 -18.15625 C 11.484375 -18.1875 12.390625 -18.1875 12.9375 -18.1875 C 14.921875 -18.1875 18.015625 -18.1875 18.015625 -15.421875 C 18.015625 -14.46875 17.578125 -12.546875 16.484375 -11.46875 C 15.765625 -10.734375 14.28125 -9.84375 11.765625 -9.84375 L 8.640625 -9.84375 Z M 14.46875 -9.484375 C 17.296875 -10.09375 20.609375 -12.046875 20.609375 -14.859375 C 20.609375 -17.265625 18.09375 -19.046875 14.453125 -19.046875 L 6.5 -19.046875 C 5.9375 -19.046875 5.6875 -19.046875 5.6875 -18.484375 C 5.6875 -18.1875 5.9375 -18.1875 6.46875 -18.1875 C 6.53125 -18.1875 7.0625 -18.1875 7.53125 -18.125 C 8.03125 -18.078125 8.28125 -18.046875 8.28125 -17.6875 C 8.28125 -17.578125 8.25 -17.484375 8.171875 -17.15625 L 4.4375 -2.171875 C 4.15625 -1.09375 4.09375 -0.859375 1.890625 -0.859375 C 1.390625 -0.859375 1.140625 -0.859375 1.140625 -0.3125 C 1.140625 0 1.484375 0 1.53125 0 C 2.3125 0 4.265625 -0.078125 5.046875 -0.078125 C 5.828125 -0.078125 7.8125 0 8.59375 0 C 8.8125 0 9.140625 0 9.140625 -0.5625 C 9.140625 -0.859375 8.890625 -0.859375 8.375 -0.859375 C 7.328125 -0.859375 6.546875 -0.859375 6.546875 -1.359375 C 6.546875 -1.53125 6.609375 -1.671875 6.640625 -1.84375 L 8.484375 -9.234375 L 11.796875 -9.234375 C 14.328125 -9.234375 14.84375 -7.671875 14.84375 -6.6875 C 14.84375 -6.28125 14.609375 -5.40625 14.453125 -4.765625 C 14.25 -3.984375 14 -2.953125 14 -2.40625 C 14 0.609375 17.34375 0.609375 17.703125 0.609375 C 20.078125 0.609375 21.0625 -2.203125 21.0625 -2.59375 C 21.0625 -2.921875 20.75 -2.921875 20.71875 -2.921875 C 20.46875 -2.921875 20.421875 -2.734375 20.359375 -2.53125 C 19.65625 -0.46875 18.46875 0 17.828125 0 C 16.90625 0 16.703125 -0.609375 16.703125 -1.703125 C 16.703125 -2.5625 16.875 -3.984375 16.984375 -4.875 C 17.046875 -5.265625 17.09375 -5.796875 17.09375 -6.1875 C 17.09375 -8.34375 15.234375 -9.203125 14.46875 -9.484375 Z M 14.46875 -9.484375 "/>
</symbol>
<symbol overflow="visible" id="glyph10-0">
<path style="stroke:none;" d=""/>
</symbol>
<symbol overflow="visible" id="glyph10-1">
<path style="stroke:none;" d="M 8.0625 -28.3125 C 8.0625 -37.140625 7.75 -50.828125 6.21875 -63.625 C 4.546875 -77.5625 2.140625 -84.921875 1.875 -84.921875 C 1.703125 -84.921875 1.59375 -84.46875 1.59375 -83.78125 C 1.59375 -83.4375 1.59375 -83.21875 2.125 -81.171875 C 4.859375 -69.96875 6.4375 -51.96875 6.4375 -28.3125 C 6.4375 -8.9375 5.40625 10.984375 1.953125 25.25 C 1.59375 26.609375 1.59375 26.828125 1.59375 27.171875 C 1.59375 27.859375 1.703125 28.3125 1.875 28.3125 C 2.140625 28.3125 4.65625 20.609375 6.296875 6.234375 C 7.71875 -6.234375 8.0625 -18.796875 8.0625 -28.3125 Z M 8.0625 -28.3125 "/>
</symbol>
<symbol overflow="visible" id="glyph10-2">
<path style="stroke:none;" d="M 9.234375 27.171875 C 9.234375 26.828125 9.234375 26.609375 8.75 24.6875 C 5.265625 10.421875 4.375 -10.984375 4.375 -28.3125 C 4.375 -48 5.4375 -67.703125 8.875 -81.859375 C 9.234375 -83.21875 9.234375 -83.4375 9.234375 -83.78125 C 9.234375 -84.578125 9.125 -84.921875 8.953125 -84.921875 C 8.671875 -84.921875 6.15625 -77.21875 4.515625 -62.84375 C 3.09375 -50.375 2.765625 -37.8125 2.765625 -28.3125 C 2.765625 -19.46875 3.0625 -5.78125 4.609375 7.015625 C 6.28125 20.953125 8.671875 28.3125 8.953125 28.3125 C 9.125 28.3125 9.234375 27.96875 9.234375 27.171875 Z M 9.234375 27.171875 "/>
</symbol>
<symbol overflow="visible" id="glyph11-0">
<path style="stroke:none;" d=""/>
</symbol>
<symbol overflow="visible" id="glyph11-1">
<path style="stroke:none;" d="M 19.15625 -9.125 C 19.578125 -9.125 20.109375 -9.125 20.109375 -9.671875 C 20.109375 -10.234375 19.578125 -10.234375 19.1875 -10.234375 L 2.484375 -10.234375 C 2.09375 -10.234375 1.5625 -10.234375 1.5625 -9.671875 C 1.5625 -9.125 2.09375 -9.125 2.515625 -9.125 Z M 19.1875 -3.703125 C 19.578125 -3.703125 20.109375 -3.703125 20.109375 -4.265625 C 20.109375 -4.828125 19.578125 -4.828125 19.15625 -4.828125 L 2.515625 -4.828125 C 2.09375 -4.828125 1.5625 -4.828125 1.5625 -4.265625 C 1.5625 -3.703125 2.09375 -3.703125 2.484375 -3.703125 Z M 19.1875 -3.703125 "/>
</symbol>
<symbol overflow="visible" id="glyph12-0">
<path style="stroke:none;" d=""/>
</symbol>
<symbol overflow="visible" id="glyph12-1">
<path style="stroke:none;" d="M 14.90625 -213.015625 C 14.90625 -226.828125 16.28125 -248.921875 22.015625 -251.34375 C 22.28125 -251.6875 22.484375 -253.0625 22.484375 -255.140625 C 22.484375 -258.9375 22.0625 -258.9375 21.484375 -258.9375 C 16.21875 -258.9375 11.4375 -241.328125 11.375 -215.78125 L 11.375 -137.0625 C 11.375 -123.59375 11.375 -112.546875 9.265625 -101.15625 C 7.421875 -91.140625 5.421875 -90.453125 4.265625 -90.109375 C 4 -89.765625 3.796875 -88.390625 3.796875 -86.3125 C 3.796875 -82.859375 4.109375 -82.859375 4.640625 -82.515625 C 8.109375 -81.140625 10.640625 -68.703125 11.21875 -51.78125 C 11.375 -47.984375 11.375 -47.296875 11.375 -34.875 L 11.375 33.484375 C 11.375 47.984375 11.375 59.03125 13.90625 72.15625 C 15.953125 82.515625 19.4375 86.3125 21.484375 86.3125 C 22.0625 86.3125 22.484375 86.3125 22.484375 82.515625 C 22.484375 79.0625 22.171875 79.0625 21.640625 78.71875 C 18.328125 77.34375 15.75 66.28125 15.0625 48.6875 C 14.90625 45.578125 14.90625 44.875 14.90625 32.453125 L 14.90625 -40.046875 C 14.90625 -55.9375 14.484375 -61.796875 12.796875 -72.84375 C 11.6875 -80.09375 10.171875 -83.546875 8.6875 -86.3125 C 13.015625 -94.25 14.90625 -110.140625 14.90625 -130.15625 Z M 14.90625 -213.015625 "/>
</symbol>
<symbol overflow="visible" id="glyph13-0">
<path style="stroke:none;" d=""/>
</symbol>
<symbol overflow="visible" id="glyph13-1">
<path style="stroke:none;" d="M 2.265625 -12.40625 L 2.265625 -0.03125 L 4.34375 -0.03125 L 4.34375 -12.40625 Z M 2.0625 -19 L 2.0625 -16.515625 L 4.546875 -16.515625 L 4.546875 -19 Z M 2.0625 -19 "/>
</symbol>
<symbol overflow="visible" id="glyph13-2">
<path style="stroke:none;" d="M 2.8125 -12.40625 L 0.75 -12.40625 L 0.75 -10.765625 L 2.8125 -10.765625 L 2.8125 -0.03125 L 4.90625 -0.03125 L 4.90625 -10.765625 L 7.984375 -10.765625 L 7.984375 -12.40625 L 4.828125 -12.40625 L 4.828125 -15.25 C 4.828125 -15.5625 4.796875 -15.890625 4.796875 -16.203125 C 4.796875 -17.515625 5.5 -18.765625 7.59375 -18.765625 C 8.3125 -18.71875 8.921875 -18.484375 9.625 -18.296875 L 9.625 -19.890625 C 9.625 -20.4375 8.09375 -20.46875 7.5 -20.46875 L 7.359375 -20.46875 C 5.15625 -20.46875 3.453125 -18.828125 2.953125 -16.765625 C 2.8125 -16.0625 2.8125 -15.375 2.8125 -14.671875 Z M 2.8125 -12.40625 "/>
</symbol>
<symbol overflow="visible" id="glyph14-0">
<path style="stroke:none;" d=""/>
</symbol>
<symbol overflow="visible" id="glyph14-1">
<path style="stroke:none;" d="M 9.3125 -8.421875 C 9.484375 -9.140625 10.125 -11.71875 12.078125 -11.71875 C 12.21875 -11.71875 12.890625 -11.71875 13.46875 -11.34375 C 12.6875 -11.21875 12.125 -10.515625 12.125 -9.84375 C 12.125 -9.40625 12.4375 -8.875 13.1875 -8.875 C 13.8125 -8.875 14.703125 -9.375 14.703125 -10.484375 C 14.703125 -11.9375 13.046875 -12.328125 12.109375 -12.328125 C 10.484375 -12.328125 9.515625 -10.84375 9.171875 -10.203125 C 8.484375 -12.046875 6.96875 -12.328125 6.15625 -12.328125 C 3.265625 -12.328125 1.671875 -8.734375 1.671875 -8.03125 C 1.671875 -7.75 1.953125 -7.75 2.015625 -7.75 C 2.234375 -7.75 2.3125 -7.8125 2.375 -8.0625 C 3.3125 -11.015625 5.15625 -11.71875 6.109375 -11.71875 C 6.640625 -11.71875 7.609375 -11.46875 7.609375 -9.84375 C 7.609375 -8.984375 7.140625 -7.109375 6.109375 -3.203125 C 5.65625 -1.484375 4.6875 -0.3125 3.453125 -0.3125 C 3.296875 -0.3125 2.65625 -0.3125 2.0625 -0.671875 C 2.765625 -0.8125 3.375 -1.390625 3.375 -2.171875 C 3.375 -2.921875 2.765625 -3.15625 2.34375 -3.15625 C 1.5 -3.15625 0.8125 -2.421875 0.8125 -1.53125 C 0.8125 -0.25 2.203125 0.3125 3.4375 0.3125 C 5.265625 0.3125 6.28125 -1.640625 6.359375 -1.8125 C 6.6875 -0.78125 7.703125 0.3125 9.375 0.3125 C 12.25 0.3125 13.828125 -3.296875 13.828125 -3.984375 C 13.828125 -4.265625 13.578125 -4.265625 13.5 -4.265625 C 13.25 -4.265625 13.1875 -4.15625 13.140625 -3.953125 C 12.21875 -0.96875 10.3125 -0.3125 9.421875 -0.3125 C 8.34375 -0.3125 7.890625 -1.203125 7.890625 -2.140625 C 7.890625 -2.765625 8.0625 -3.375 8.375 -4.609375 Z M 9.3125 -8.421875 "/>
</symbol>
<symbol overflow="visible" id="glyph14-2">
<path style="stroke:none;" d="M 18.828125 -6.359375 C 19.140625 -6.5 19.359375 -6.640625 19.359375 -6.96875 C 19.359375 -7.3125 19.140625 -7.453125 18.828125 -7.59375 L 3.375 -14.859375 C 3.015625 -15.0625 2.953125 -15.0625 2.875 -15.0625 C 2.5625 -15.0625 2.3125 -14.8125 2.3125 -14.5 C 2.3125 -14.25 2.453125 -14.078125 2.84375 -13.890625 L 17.484375 -6.96875 L 2.84375 -0.0625 C 2.453125 0.140625 2.3125 0.3125 2.3125 0.5625 C 2.3125 0.859375 2.5625 1.109375 2.875 1.109375 C 2.953125 1.109375 3.015625 1.109375 3.375 0.921875 Z M 18.828125 -6.359375 "/>
</symbol>
<symbol overflow="visible" id="glyph14-3">
<path style="stroke:none;" d="M 3.703125 -2.3125 C 5.21875 -3.9375 6.03125 -4.625 7.03125 -5.5 C 7.03125 -5.515625 8.75 -7 9.765625 -8 C 12.40625 -10.59375 13.03125 -11.9375 13.03125 -12.046875 C 13.03125 -12.328125 12.78125 -12.328125 12.71875 -12.328125 C 12.515625 -12.328125 12.4375 -12.265625 12.296875 -12.015625 C 11.46875 -10.6875 10.875 -10.234375 10.203125 -10.234375 C 9.53125 -10.234375 9.203125 -10.65625 8.78125 -11.125 C 8.25 -11.765625 7.78125 -12.328125 6.859375 -12.328125 C 4.765625 -12.328125 3.484375 -9.734375 3.484375 -9.140625 C 3.484375 -9.015625 3.5625 -8.84375 3.828125 -8.84375 C 4.078125 -8.84375 4.125 -8.984375 4.1875 -9.140625 C 4.71875 -10.4375 6.328125 -10.453125 6.546875 -10.453125 C 7.140625 -10.453125 7.671875 -10.265625 8.3125 -10.046875 C 9.421875 -9.625 9.734375 -9.625 10.453125 -9.625 C 9.453125 -8.421875 7.109375 -6.421875 6.578125 -5.96875 L 4.078125 -3.625 C 2.171875 -1.75 1.203125 -0.171875 1.203125 0.03125 C 1.203125 0.3125 1.484375 0.3125 1.53125 0.3125 C 1.75 0.3125 1.8125 0.25 1.984375 -0.0625 C 2.625 -1.03125 3.453125 -1.78125 4.34375 -1.78125 C 5 -1.78125 5.265625 -1.53125 5.96875 -0.71875 C 6.4375 -0.140625 6.9375 0.3125 7.75 0.3125 C 10.515625 0.3125 12.125 -3.234375 12.125 -3.984375 C 12.125 -4.125 12.015625 -4.265625 11.796875 -4.265625 C 11.546875 -4.265625 11.484375 -4.09375 11.40625 -3.90625 C 10.765625 -2.09375 8.984375 -1.5625 8.0625 -1.5625 C 7.5 -1.5625 7 -1.734375 6.421875 -1.921875 C 5.46875 -2.28125 5.046875 -2.40625 4.46875 -2.40625 C 4.40625 -2.40625 3.953125 -2.40625 3.703125 -2.3125 Z M 3.703125 -2.3125 "/>
</symbol>
<symbol overflow="visible" id="glyph14-4">
<path style="stroke:none;" d="M 18.828125 -13.890625 C 19.15625 -14.0625 19.359375 -14.203125 19.359375 -14.5 C 19.359375 -14.8125 19.109375 -15.0625 18.796875 -15.0625 C 18.71875 -15.0625 18.65625 -15.0625 18.296875 -14.859375 L 2.84375 -7.59375 C 2.53125 -7.453125 2.3125 -7.3125 2.3125 -6.96875 C 2.3125 -6.640625 2.53125 -6.5 2.84375 -6.359375 L 18.296875 0.921875 C 18.65625 1.109375 18.71875 1.109375 18.796875 1.109375 C 19.109375 1.109375 19.359375 0.859375 19.359375 0.5625 C 19.359375 0.25 19.15625 0.109375 18.828125 -0.0625 L 4.1875 -6.96875 Z M 18.828125 -13.890625 "/>
</symbol>
<symbol overflow="visible" id="glyph15-0">
<path style="stroke:none;" d=""/>
</symbol>
<symbol overflow="visible" id="glyph15-1">
<path style="stroke:none;" d="M 19.15625 -9.125 C 19.578125 -9.125 20.109375 -9.125 20.109375 -9.671875 C 20.109375 -10.234375 19.578125 -10.234375 19.1875 -10.234375 L 2.484375 -10.234375 C 2.09375 -10.234375 1.5625 -10.234375 1.5625 -9.671875 C 1.5625 -9.125 2.09375 -9.125 2.515625 -9.125 Z M 19.1875 -3.703125 C 19.578125 -3.703125 20.109375 -3.703125 20.109375 -4.265625 C 20.109375 -4.828125 19.578125 -4.828125 19.15625 -4.828125 L 2.515625 -4.828125 C 2.09375 -4.828125 1.5625 -4.828125 1.5625 -4.265625 C 1.5625 -3.703125 2.09375 -3.703125 2.484375 -3.703125 Z M 19.1875 -3.703125 "/>
</symbol>
<symbol overflow="visible" id="glyph16-0">
<path style="stroke:none;" d=""/>
</symbol>
<symbol overflow="visible" id="glyph16-1">
<path style="stroke:none;" d="M 3.703125 -2.3125 C 5.21875 -3.9375 6.03125 -4.625 7.03125 -5.5 C 7.03125 -5.515625 8.75 -7 9.765625 -8 C 12.40625 -10.59375 13.03125 -11.9375 13.03125 -12.046875 C 13.03125 -12.328125 12.78125 -12.328125 12.71875 -12.328125 C 12.515625 -12.328125 12.4375 -12.265625 12.296875 -12.015625 C 11.46875 -10.6875 10.875 -10.234375 10.203125 -10.234375 C 9.53125 -10.234375 9.203125 -10.65625 8.78125 -11.125 C 8.25 -11.765625 7.78125 -12.328125 6.859375 -12.328125 C 4.765625 -12.328125 3.484375 -9.734375 3.484375 -9.140625 C 3.484375 -9.015625 3.5625 -8.84375 3.828125 -8.84375 C 4.078125 -8.84375 4.125 -8.984375 4.1875 -9.140625 C 4.71875 -10.4375 6.328125 -10.453125 6.546875 -10.453125 C 7.140625 -10.453125 7.671875 -10.265625 8.3125 -10.046875 C 9.421875 -9.625 9.734375 -9.625 10.453125 -9.625 C 9.453125 -8.421875 7.109375 -6.421875 6.578125 -5.96875 L 4.078125 -3.625 C 2.171875 -1.75 1.203125 -0.171875 1.203125 0.03125 C 1.203125 0.3125 1.484375 0.3125 1.53125 0.3125 C 1.75 0.3125 1.8125 0.25 1.984375 -0.0625 C 2.625 -1.03125 3.453125 -1.78125 4.34375 -1.78125 C 5 -1.78125 5.265625 -1.53125 5.96875 -0.71875 C 6.4375 -0.140625 6.9375 0.3125 7.75 0.3125 C 10.515625 0.3125 12.125 -3.234375 12.125 -3.984375 C 12.125 -4.125 12.015625 -4.265625 11.796875 -4.265625 C 11.546875 -4.265625 11.484375 -4.09375 11.40625 -3.90625 C 10.765625 -2.09375 8.984375 -1.5625 8.0625 -1.5625 C 7.5 -1.5625 7 -1.734375 6.421875 -1.921875 C 5.46875 -2.28125 5.046875 -2.40625 4.46875 -2.40625 C 4.40625 -2.40625 3.953125 -2.40625 3.703125 -2.3125 Z M 3.703125 -2.3125 "/>
</symbol>
<symbol overflow="visible" id="glyph17-0">
<path style="stroke:none;" d=""/>
</symbol>
<symbol overflow="visible" id="glyph17-1">
<path style="stroke:none;" d="M 4.421875 -6.8125 L 4.421875 -1.140625 L 2.140625 -1.140625 C 1.671875 -1.140625 1.4375 -0.9375 1.4375 -0.59375 C 1.4375 -0.328125 1.59375 -0.0625 1.890625 -0.015625 L 7.765625 -0.015625 C 8.15625 -0.015625 8.375 -0.21875 8.375 -0.578125 C 8.375 -0.9375 8.140625 -1.15625 7.71875 -1.15625 C 7.5625 -1.15625 7.421875 -1.140625 7.28125 -1.140625 L 5.703125 -1.140625 L 5.703125 -7.3125 C 5.703125 -7.84375 5.375 -7.9375 5.03125 -7.9375 L 2.28125 -7.9375 C 1.96875 -7.9375 1.578125 -7.859375 1.578125 -7.359375 C 1.578125 -6.953125 1.859375 -6.8125 2.296875 -6.8125 Z M 4.65625 -11.265625 C 4.15625 -11.1875 3.859375 -10.765625 3.859375 -10.359375 C 3.859375 -9.953125 4.203125 -9.4375 4.734375 -9.4375 C 5.296875 -9.4375 5.703125 -9.890625 5.703125 -10.359375 C 5.703125 -10.765625 5.375 -11.28125 4.828125 -11.28125 C 4.765625 -11.28125 4.71875 -11.265625 4.65625 -11.265625 Z M 4.65625 -11.265625 "/>
</symbol>
<symbol overflow="visible" id="glyph17-2">
<path style="stroke:none;" d="M 3.0625 -7.09375 L 3.0625 -7.28125 C 3.0625 -7.65625 2.890625 -7.9375 2.40625 -7.9375 L 0.8125 -7.9375 C 0.484375 -7.9375 0.203125 -7.734375 0.203125 -7.359375 C 0.203125 -6.96875 0.5 -6.8125 0.84375 -6.8125 L 1.765625 -6.8125 L 1.765625 -1.140625 L 0.8125 -1.140625 C 0.4375 -1.140625 0.203125 -0.90625 0.203125 -0.59375 C 0.203125 -0.203125 0.484375 -0.015625 0.890625 -0.015625 L 3.90625 -0.015625 C 4.328125 -0.015625 4.625 -0.171875 4.625 -0.578125 C 4.625 -0.9375 4.359375 -1.140625 4.015625 -1.140625 L 3.0625 -1.140625 L 3.0625 -4.21875 C 3.0625 -5.65625 3.90625 -6.921875 5.390625 -6.921875 C 6.34375 -6.921875 6.59375 -6.203125 6.59375 -5.390625 L 6.59375 -1.140625 L 5.703125 -1.140625 C 5.3125 -1.140625 5.109375 -0.859375 5.109375 -0.578125 C 5.109375 -0.140625 5.453125 -0.015625 5.8125 -0.015625 L 8.765625 -0.015625 C 9.171875 -0.015625 9.4375 -0.203125 9.4375 -0.59375 C 9.4375 -0.90625 9.203125 -1.140625 8.828125 -1.140625 L 7.875 -1.140625 L 7.875 -5.171875 C 7.875 -6.421875 7.546875 -8.046875 5.484375 -8.046875 C 4.59375 -8.046875 3.703125 -7.6875 3.0625 -7.09375 Z M 3.0625 -7.09375 "/>
</symbol>
<symbol overflow="visible" id="glyph17-3">
<path style="stroke:none;" d="M 2.5625 -0.609375 C 3.234375 -0.09375 4.0625 0.09375 4.921875 0.09375 C 6.484375 0.09375 8.453125 -0.453125 8.453125 -2.3125 C 8.453125 -4.734375 4.96875 -4.734375 3.734375 -5 C 3.21875 -5.140625 2.453125 -5.390625 2.453125 -5.9375 C 2.453125 -6.78125 3.796875 -6.921875 4.359375 -6.953125 C 4.53125 -6.953125 4.6875 -6.96875 4.875 -6.96875 C 5.453125 -6.96875 6.4375 -6.84375 6.578125 -6.109375 C 6.703125 -5.625 6.6875 -5.34375 7.28125 -5.34375 C 7.828125 -5.34375 7.890625 -5.6875 7.890625 -6.03125 L 7.890625 -7.484375 C 7.890625 -7.859375 7.6875 -8.09375 7.34375 -8.09375 C 7.09375 -8.09375 6.890625 -7.9375 6.796875 -7.71875 C 6.171875 -7.96875 5.609375 -8.09375 4.921875 -8.09375 C 3.40625 -8.09375 1.328125 -7.6875 1.328125 -5.90625 C 1.328125 -2.921875 7.328125 -4.3125 7.328125 -2.34375 L 7.328125 -2.28125 C 7.328125 -1.109375 5.4375 -1.03125 5.03125 -1.03125 L 4.953125 -1.03125 C 4 -1.03125 3.109375 -1.421875 2.71875 -2.421875 C 2.5 -2.90625 2.5 -3.1875 1.953125 -3.1875 C 1.40625 -3.1875 1.328125 -2.859375 1.328125 -2.515625 L 1.328125 -0.921875 C 1.328125 -0.8125 1.3125 -0.6875 1.3125 -0.546875 C 1.3125 -0.140625 1.53125 0.09375 1.875 0.09375 C 2.3125 0.09375 2.421875 -0.28125 2.5625 -0.609375 Z M 2.5625 -0.609375 "/>
</symbol>
<symbol overflow="visible" id="glyph17-4">
<path style="stroke:none;" d="M 2.34375 -3.53125 L 7.828125 -3.53125 C 8.203125 -3.53125 8.546875 -3.625 8.546875 -4.171875 C 8.546875 -5.171875 8.265625 -6.21875 7.65625 -6.953125 C 7 -7.734375 6 -8.09375 5 -8.09375 C 2.921875 -8.09375 1.015625 -6.4375 1.015625 -3.953125 L 1.015625 -3.796875 C 1.109375 -1.59375 3.0625 0.09375 5.265625 0.09375 L 5.453125 0.09375 C 6.453125 0.0625 7.546875 -0.328125 8.171875 -1.171875 C 8.3125 -1.40625 8.546875 -1.734375 8.546875 -2.03125 C 8.546875 -2.40625 8.203125 -2.546875 7.875 -2.546875 C 7.328125 -2.546875 7.3125 -2.1875 7.125 -1.875 C 6.734375 -1.28125 6.03125 -1.03125 5.359375 -1.03125 C 3.859375 -1.03125 2.71875 -2.046875 2.34375 -3.53125 Z M 2.359375 -4.640625 C 2.703125 -5.828125 3.5 -6.96875 5 -6.96875 C 6.34375 -6.96875 7.140625 -5.90625 7.21875 -4.640625 Z M 2.359375 -4.640625 "/>
</symbol>
<symbol overflow="visible" id="glyph17-5">
<path style="stroke:none;" d="M 4.09375 -6.578125 L 4.09375 -7.234375 C 4.09375 -7.6875 3.90625 -7.9375 3.421875 -7.9375 L 1.203125 -7.9375 C 0.84375 -7.9375 0.578125 -7.765625 0.578125 -7.375 C 0.578125 -7 0.8125 -6.8125 1.25 -6.8125 L 2.796875 -6.8125 L 2.796875 -1.140625 L 1.21875 -1.140625 C 0.796875 -1.140625 0.578125 -0.921875 0.578125 -0.59375 C 0.578125 -0.28125 0.796875 0 1.171875 0 C 1.265625 0 1.375 -0.015625 1.46875 -0.015625 L 5.09375 -0.015625 C 5.375 -0.015625 5.671875 0 5.96875 0 C 6.515625 0 6.859375 -0.09375 6.859375 -0.59375 C 6.859375 -0.921875 6.65625 -1.140625 6.203125 -1.140625 L 4.09375 -1.140625 L 4.09375 -3.265625 C 4.09375 -4.921875 4.984375 -6.9375 7.234375 -6.9375 C 7.484375 -6.9375 7.46875 -6.109375 8.1875 -6.109375 C 8.59375 -6.109375 8.96875 -6.421875 8.96875 -6.90625 C 8.96875 -7.78125 7.921875 -8.0625 7.21875 -8.0625 C 5.984375 -8.0625 4.921875 -7.453125 4.09375 -6.578125 Z M 4.09375 -6.578125 "/>
</symbol>
<symbol overflow="visible" id="glyph17-6">
<path style="stroke:none;" d="M 2.796875 -7.9375 L 1.125 -7.9375 C 0.6875 -7.9375 0.453125 -7.71875 0.453125 -7.359375 C 0.453125 -7 0.75 -6.8125 1.109375 -6.8125 L 2.796875 -6.8125 L 2.796875 -2.03125 C 2.921875 -0.6875 3.96875 0.09375 5.40625 0.09375 C 6.78125 0.09375 8.265625 -0.75 8.265625 -2.265625 L 8.265625 -2.484375 C 8.265625 -2.984375 7.9375 -3.0625 7.609375 -3.0625 C 7.203125 -3.0625 6.96875 -2.828125 6.96875 -2.40625 L 6.96875 -2.28125 C 6.96875 -1.4375 6.140625 -1.03125 5.484375 -1.03125 C 4.453125 -1.03125 4.09375 -1.65625 4.09375 -2.5 L 4.09375 -6.8125 L 7.125 -6.8125 C 7.453125 -6.8125 7.859375 -6.859375 7.859375 -7.359375 C 7.859375 -7.71875 7.640625 -7.9375 7.234375 -7.9375 L 4.09375 -7.9375 L 4.09375 -9.546875 C 4.09375 -10.09375 3.796875 -10.203125 3.4375 -10.203125 C 3.09375 -10.203125 2.796875 -10.0625 2.796875 -9.53125 Z M 2.796875 -7.9375 "/>
</symbol>
<symbol overflow="visible" id="glyph18-0">
<path style="stroke:none;" d=""/>
</symbol>
<symbol overflow="visible" id="glyph18-1">
<path style="stroke:none;" d="M 6.09375 4.421875 C 6.09375 4.359375 6.09375 4.328125 5.78125 4.015625 C 3.484375 1.6875 2.890625 -1.78125 2.890625 -4.59375 C 2.890625 -7.796875 3.59375 -11 5.859375 -13.3125 C 6.09375 -13.53125 6.09375 -13.5625 6.09375 -13.625 C 6.09375 -13.75 6.015625 -13.796875 5.90625 -13.796875 C 5.71875 -13.796875 4.0625 -12.546875 2.984375 -10.21875 C 2.046875 -8.1875 1.828125 -6.140625 1.828125 -4.59375 C 1.828125 -3.171875 2.03125 -0.9375 3.03125 1.140625 C 4.140625 3.40625 5.71875 4.59375 5.90625 4.59375 C 6.015625 4.59375 6.09375 4.546875 6.09375 4.421875 Z M 6.09375 4.421875 "/>
</symbol>
<symbol overflow="visible" id="glyph19-0">
<path style="stroke:none;" d=""/>
</symbol>
<symbol overflow="visible" id="glyph19-1">
<path style="stroke:none;" d="M 6.140625 -5.5625 C 6.265625 -6.03125 6.6875 -7.734375 7.96875 -7.734375 C 8.0625 -7.734375 8.5 -7.734375 8.890625 -7.484375 C 8.375 -7.40625 8 -6.9375 8 -6.5 C 8 -6.203125 8.203125 -5.859375 8.703125 -5.859375 C 9.109375 -5.859375 9.703125 -6.1875 9.703125 -6.921875 C 9.703125 -7.875 8.609375 -8.140625 7.984375 -8.140625 C 6.921875 -8.140625 6.28125 -7.15625 6.0625 -6.734375 C 5.59375 -7.953125 4.59375 -8.140625 4.0625 -8.140625 C 2.15625 -8.140625 1.109375 -5.765625 1.109375 -5.296875 C 1.109375 -5.109375 1.28125 -5.109375 1.328125 -5.109375 C 1.46875 -5.109375 1.53125 -5.15625 1.5625 -5.3125 C 2.1875 -7.265625 3.40625 -7.734375 4.03125 -7.734375 C 4.375 -7.734375 5.03125 -7.5625 5.03125 -6.5 C 5.03125 -5.921875 4.71875 -4.6875 4.03125 -2.109375 C 3.734375 -0.96875 3.09375 -0.203125 2.28125 -0.203125 C 2.171875 -0.203125 1.75 -0.203125 1.359375 -0.4375 C 1.828125 -0.53125 2.234375 -0.921875 2.234375 -1.4375 C 2.234375 -1.9375 1.828125 -2.078125 1.546875 -2.078125 C 1 -2.078125 0.53125 -1.59375 0.53125 -1.015625 C 0.53125 -0.171875 1.453125 0.203125 2.265625 0.203125 C 3.484375 0.203125 4.140625 -1.09375 4.203125 -1.203125 C 4.421875 -0.515625 5.078125 0.203125 6.1875 0.203125 C 8.078125 0.203125 9.125 -2.171875 9.125 -2.625 C 9.125 -2.8125 8.96875 -2.8125 8.90625 -2.8125 C 8.75 -2.8125 8.703125 -2.75 8.671875 -2.609375 C 8.0625 -0.640625 6.8125 -0.203125 6.21875 -0.203125 C 5.5 -0.203125 5.203125 -0.796875 5.203125 -1.421875 C 5.203125 -1.828125 5.3125 -2.234375 5.515625 -3.03125 Z M 6.140625 -5.5625 "/>
</symbol>
<symbol overflow="visible" id="glyph19-2">
<path style="stroke:none;" d="M 3.734375 -0.015625 C 3.734375 -1.234375 3.28125 -1.953125 2.5625 -1.953125 C 1.953125 -1.953125 1.578125 -1.484375 1.578125 -0.96875 C 1.578125 -0.484375 1.953125 0 2.5625 0 C 2.78125 0 3.015625 -0.078125 3.203125 -0.234375 C 3.265625 -0.28125 3.28125 -0.296875 3.296875 -0.296875 C 3.3125 -0.296875 3.328125 -0.28125 3.328125 -0.015625 C 3.328125 1.34375 2.6875 2.453125 2.078125 3.0625 C 1.875 3.265625 1.875 3.296875 1.875 3.34375 C 1.875 3.484375 1.96875 3.546875 2.0625 3.546875 C 2.265625 3.546875 3.734375 2.140625 3.734375 -0.015625 Z M 3.734375 -0.015625 "/>
</symbol>
<symbol overflow="visible" id="glyph19-3">
<path style="stroke:none;" d="M 6.890625 -11.140625 C 7.046875 -11.796875 7.109375 -12 8.828125 -12 C 9.390625 -12 9.53125 -12 9.53125 -12.34375 C 9.53125 -12.578125 9.328125 -12.578125 9.234375 -12.578125 C 8.625 -12.578125 7.125 -12.515625 6.515625 -12.515625 C 5.96875 -12.515625 4.625 -12.578125 4.0625 -12.578125 C 3.9375 -12.578125 3.71875 -12.578125 3.71875 -12.203125 C 3.71875 -12 3.890625 -12 4.234375 -12 C 4.265625 -12 4.625 -12 4.9375 -11.96875 C 5.265625 -11.921875 5.4375 -11.90625 5.4375 -11.671875 C 5.4375 -11.59375 5.40625 -11.546875 5.359375 -11.3125 L 2.890625 -1.4375 C 2.703125 -0.71875 2.671875 -0.578125 1.21875 -0.578125 C 0.90625 -0.578125 0.71875 -0.578125 0.71875 -0.203125 C 0.71875 0 0.890625 0 1.21875 0 L 9.734375 0 C 10.171875 0 10.203125 0 10.3125 -0.3125 L 11.765625 -4.28125 C 11.828125 -4.484375 11.828125 -4.53125 11.828125 -4.546875 C 11.828125 -4.625 11.78125 -4.75 11.609375 -4.75 C 11.453125 -4.75 11.4375 -4.65625 11.296875 -4.359375 C 10.671875 -2.671875 9.859375 -0.578125 6.6875 -0.578125 L 4.953125 -0.578125 C 4.6875 -0.578125 4.65625 -0.578125 4.546875 -0.59375 C 4.359375 -0.609375 4.3125 -0.625 4.3125 -0.765625 C 4.3125 -0.828125 4.3125 -0.859375 4.40625 -1.203125 Z M 6.890625 -11.140625 "/>
</symbol>
<symbol overflow="visible" id="glyph19-4">
<path style="stroke:none;" d="M 6.90625 -11.296875 C 7.015625 -11.75 7.0625 -11.921875 7.421875 -11.984375 C 7.578125 -12 8.171875 -12 8.546875 -12 C 9.84375 -12 11.890625 -12 11.890625 -10.171875 C 11.890625 -9.546875 11.59375 -8.28125 10.875 -7.5625 C 10.40625 -7.09375 9.421875 -6.5 7.765625 -6.5 L 5.703125 -6.5 Z M 9.546875 -6.265625 C 11.40625 -6.65625 13.609375 -7.953125 13.609375 -9.8125 C 13.609375 -11.390625 11.953125 -12.578125 9.53125 -12.578125 L 4.28125 -12.578125 C 3.921875 -12.578125 3.75 -12.578125 3.75 -12.203125 C 3.75 -12 3.921875 -12 4.265625 -12 C 4.3125 -12 4.65625 -12 4.96875 -11.96875 C 5.296875 -11.921875 5.46875 -11.90625 5.46875 -11.671875 C 5.46875 -11.59375 5.453125 -11.546875 5.390625 -11.3125 L 2.921875 -1.4375 C 2.75 -0.71875 2.703125 -0.578125 1.25 -0.578125 C 0.921875 -0.578125 0.75 -0.578125 0.75 -0.203125 C 0.75 0 0.96875 0 1.015625 0 C 1.53125 0 2.8125 -0.0625 3.328125 -0.0625 C 3.84375 -0.0625 5.15625 0 5.671875 0 C 5.8125 0 6.03125 0 6.03125 -0.375 C 6.03125 -0.578125 5.875 -0.578125 5.515625 -0.578125 C 4.84375 -0.578125 4.328125 -0.578125 4.328125 -0.90625 C 4.328125 -1.015625 4.359375 -1.109375 4.375 -1.21875 L 5.59375 -6.09375 L 7.78125 -6.09375 C 9.453125 -6.09375 9.796875 -5.0625 9.796875 -4.421875 C 9.796875 -4.140625 9.640625 -3.578125 9.53125 -3.140625 C 9.40625 -2.625 9.234375 -1.953125 9.234375 -1.578125 C 9.234375 0.40625 11.453125 0.40625 11.6875 0.40625 C 13.25 0.40625 13.890625 -1.453125 13.890625 -1.71875 C 13.890625 -1.9375 13.6875 -1.9375 13.671875 -1.9375 C 13.515625 -1.9375 13.46875 -1.796875 13.4375 -1.671875 C 12.96875 -0.3125 12.1875 0 11.765625 0 C 11.15625 0 11.03125 -0.40625 11.03125 -1.125 C 11.03125 -1.6875 11.140625 -2.625 11.203125 -3.21875 C 11.25 -3.484375 11.28125 -3.828125 11.28125 -4.09375 C 11.28125 -5.5 10.046875 -6.078125 9.546875 -6.265625 Z M 9.546875 -6.265625 "/>
</symbol>
<symbol overflow="visible" id="glyph20-0">
<path style="stroke:none;" d=""/>
</symbol>
<symbol overflow="visible" id="glyph20-1">
<path style="stroke:none;" d="M 5.3125 -4.59375 C 5.3125 -6.03125 5.109375 -8.265625 4.109375 -10.34375 C 3 -12.609375 1.421875 -13.796875 1.234375 -13.796875 C 1.125 -13.796875 1.046875 -13.734375 1.046875 -13.625 C 1.046875 -13.5625 1.046875 -13.53125 1.40625 -13.203125 C 3.203125 -11.375 4.25 -8.453125 4.25 -4.59375 C 4.25 -1.453125 3.578125 1.78125 1.28125 4.109375 C 1.046875 4.328125 1.046875 4.359375 1.046875 4.421875 C 1.046875 4.53125 1.125 4.59375 1.234375 4.59375 C 1.421875 4.59375 3.078125 3.34375 4.15625 1.015625 C 5.09375 -1.015625 5.3125 -3.0625 5.3125 -4.59375 Z M 5.3125 -4.59375 "/>
</symbol>
<symbol overflow="visible" id="glyph21-0">
<path style="stroke:none;" d=""/>
</symbol>
<symbol overflow="visible" id="glyph21-1">
<path style="stroke:none;" d="M 5.3125 -4.59375 C 5.3125 -6.03125 5.109375 -8.265625 4.109375 -10.34375 C 3 -12.609375 1.421875 -13.796875 1.234375 -13.796875 C 1.125 -13.796875 1.046875 -13.734375 1.046875 -13.625 C 1.046875 -13.5625 1.046875 -13.53125 1.40625 -13.203125 C 3.203125 -11.375 4.25 -8.453125 4.25 -4.59375 C 4.25 -1.453125 3.578125 1.78125 1.28125 4.109375 C 1.046875 4.328125 1.046875 4.359375 1.046875 4.421875 C 1.046875 4.53125 1.125 4.59375 1.234375 4.59375 C 1.421875 4.59375 3.078125 3.34375 4.15625 1.015625 C 5.09375 -1.015625 5.3125 -3.0625 5.3125 -4.59375 Z M 5.3125 -4.59375 "/>
</symbol>
</g>
</defs>
<g id="surface30809">
<g style="fill:rgb(0%,0%,0%);fill-opacity:1;">
  <use xlink:href="#glyph0-1" x="1" y="51.9972"/>
  <use xlink:href="#glyph0-2" x="15.617126" y="51.9972"/>
  <use xlink:href="#glyph0-3" x="30.234253" y="51.9972"/>
  <use xlink:href="#glyph0-4" x="44.851379" y="51.9972"/>
  <use xlink:href="#glyph0-5" x="59.468506" y="51.9972"/>
  <use xlink:href="#glyph0-6" x="74.085632" y="51.9972"/>
</g>
<g style="fill:rgb(0%,0%,0%);fill-opacity:1;">
  <use xlink:href="#glyph1-1" x="88.849999" y="51.9972"/>
</g>
<g style="fill:rgb(0%,0%,0%);fill-opacity:1;">
  <use xlink:href="#glyph2-1" x="99.697198" y="51.9972"/>
  <use xlink:href="#glyph2-2" x="115.625403" y="51.9972"/>
</g>
<g style="fill:rgb(0%,0%,0%);fill-opacity:1;">
  <use xlink:href="#glyph3-1" x="128.038798" y="51.9972"/>
</g>
<g style="fill:rgb(0%,0%,0%);fill-opacity:1;">
  <use xlink:href="#glyph4-1" x="149.735997" y="51.9972"/>
  <use xlink:href="#glyph4-2" x="168.314254" y="51.9972"/>
</g>
<g style="fill:rgb(0%,0%,0%);fill-opacity:1;">
  <use xlink:href="#glyph5-1" x="1" y="211.986"/>
  <use xlink:href="#glyph5-2" x="15.617126" y="211.986"/>
  <use xlink:href="#glyph5-3" x="30.234253" y="211.986"/>
  <use xlink:href="#glyph5-4" x="44.851379" y="211.986"/>
  <use xlink:href="#glyph5-5" x="59.468506" y="211.986"/>
  <use xlink:href="#glyph5-6" x="74.085632" y="211.986"/>
</g>
<g style="fill:rgb(0%,0%,0%);fill-opacity:1;">
  <use xlink:href="#glyph6-1" x="116.737998" y="211.986"/>
</g>
<g style="fill:rgb(0%,0%,0%);fill-opacity:1;">
  <use xlink:href="#glyph7-1" x="132.681198" y="211.986"/>
</g>
<g style="fill:rgb(0%,0%,0%);fill-opacity:1;">
  <use xlink:href="#glyph8-1" x="193" y="164"/>
</g>
<path style="fill:none;stroke-width:1.2;stroke-linecap:round;stroke-linejoin:round;stroke:rgb(0%,0%,0%);stroke-opacity:1;stroke-miterlimit:10;" d="M 212.304688 325.179688 C 212.304688 332.585938 206.300781 338.589844 198.894531 338.589844 C 191.484375 338.589844 185.480469 332.585938 185.480469 325.179688 C 185.480469 317.773438 191.484375 311.765625 198.894531 311.765625 C 206.300781 311.765625 212.304688 317.773438 212.304688 325.179688 Z M 212.304688 325.179688 " transform="matrix(1,0,0,-1,1,484)"/>
<g style="fill:rgb(0%,0%,0%);fill-opacity:1;">
  <use xlink:href="#glyph9-1" x="154.762" y="236.3338"/>
</g>
<g style="fill:rgb(0%,0%,0%);fill-opacity:1;">
  <use xlink:href="#glyph9-2" x="223.5059" y="236.6273"/>
</g>
<path style="fill:none;stroke-width:1.2;stroke-linecap:round;stroke-linejoin:round;stroke:rgb(0%,0%,0%);stroke-opacity:1;stroke-miterlimit:10;" d="M 163.636719 284.15625 L 141.589844 230.652344 L 189.0625 232.269531 L 163.636719 284.15625 " transform="matrix(1,0,0,-1,1,484)"/>
<path style="fill:none;stroke-width:1.2;stroke-linecap:round;stroke-linejoin:round;stroke:rgb(0%,0%,0%);stroke-opacity:1;stroke-miterlimit:10;" d="M 232.664062 288.449219 L 209.722656 228.601562 L 266.527344 233.101562 Z M 232.664062 288.449219 " transform="matrix(1,0,0,-1,1,484)"/>
<path style="fill:none;stroke-width:1.2;stroke-linecap:round;stroke-linejoin:round;stroke:rgb(0%,0%,0%);stroke-opacity:1;stroke-miterlimit:10;" d="M 191.257812 314.152344 L 163.636719 284.15625 " transform="matrix(1,0,0,-1,1,484)"/>
<path style="fill:none;stroke-width:1.2;stroke-linecap:round;stroke-linejoin:round;stroke:rgb(0%,0%,0%);stroke-opacity:1;stroke-miterlimit:10;" d="M 204.644531 313.0625 L 232.664062 288.449219 " transform="matrix(1,0,0,-1,1,484)"/>
<g style="fill:rgb(0%,0%,0%);fill-opacity:1;">
  <use xlink:href="#glyph10-1" x="273" y="227.990477"/>
</g>
<g style="fill:rgb(0%,0%,0%);fill-opacity:1;">
  <use xlink:href="#glyph10-2" x="97" y="227.990477"/>
</g>
<path style="fill:none;stroke-width:1.2;stroke-linecap:round;stroke-linejoin:round;stroke:rgb(0%,0%,0%);stroke-opacity:1;stroke-miterlimit:10;" d="M 212.304688 325.179688 C 212.304688 332.585938 206.300781 338.589844 198.894531 338.589844 C 191.484375 338.589844 185.480469 332.585938 185.480469 325.179688 C 185.480469 317.773438 191.484375 311.765625 198.894531 311.765625 C 206.300781 311.765625 212.304688 317.773438 212.304688 325.179688 Z M 212.304688 325.179688 " transform="matrix(1,0,0,-1,1,484)"/>
<g style="fill:rgb(0%,0%,0%);fill-opacity:1;">
  <use xlink:href="#glyph9-1" x="154.762" y="236.3338"/>
</g>
<g style="fill:rgb(0%,0%,0%);fill-opacity:1;">
  <use xlink:href="#glyph9-2" x="223.5059" y="236.6273"/>
</g>
<path style="fill:none;stroke-width:1.2;stroke-linecap:round;stroke-linejoin:round;stroke:rgb(0%,0%,0%);stroke-opacity:1;stroke-miterlimit:10;" d="M 163.636719 284.15625 L 141.589844 230.652344 L 189.0625 232.269531 L 163.636719 284.15625 " transform="matrix(1,0,0,-1,1,484)"/>
<path style="fill:none;stroke-width:1.2;stroke-linecap:round;stroke-linejoin:round;stroke:rgb(0%,0%,0%);stroke-opacity:1;stroke-miterlimit:10;" d="M 232.664062 288.449219 L 209.722656 228.601562 L 266.527344 233.101562 Z M 232.664062 288.449219 " transform="matrix(1,0,0,-1,1,484)"/>
<path style="fill:none;stroke-width:1.2;stroke-linecap:round;stroke-linejoin:round;stroke:rgb(0%,0%,0%);stroke-opacity:1;stroke-miterlimit:10;" d="M 191.257812 314.152344 L 163.636719 284.15625 " transform="matrix(1,0,0,-1,1,484)"/>
<path style="fill:none;stroke-width:1.2;stroke-linecap:round;stroke-linejoin:round;stroke:rgb(0%,0%,0%);stroke-opacity:1;stroke-miterlimit:10;" d="M 204.644531 313.0625 L 232.664062 288.449219 " transform="matrix(1,0,0,-1,1,484)"/>
<g style="fill:rgb(0%,0%,0%);fill-opacity:1;">
  <use xlink:href="#glyph11-1" x="289" y="212"/>
</g>
<g style="fill:rgb(0%,0%,0%);fill-opacity:1;">
  <use xlink:href="#glyph12-1" x="313.64728" y="305.230948"/>
</g>
<g style="fill:rgb(0%,0%,0%);fill-opacity:1;">
  <use xlink:href="#glyph13-1" x="587.37" y="372.246"/>
  <use xlink:href="#glyph13-2" x="594.009077" y="372.246"/>
</g>
<g style="fill:rgb(0%,0%,0%);fill-opacity:1;">
  <use xlink:href="#glyph14-1" x="611.8504" y="372.246"/>
</g>
<g style="fill:rgb(0%,0%,0%);fill-opacity:1;">
  <use xlink:href="#glyph15-1" x="635.541199" y="372.246"/>
</g>
<g style="fill:rgb(0%,0%,0%);fill-opacity:1;">
  <use xlink:href="#glyph16-1" x="664.985999" y="372.246"/>
</g>
<g style="fill:rgb(0%,0%,0%);fill-opacity:1;">
  <use xlink:href="#glyph13-1" x="589.121" y="247.256"/>
  <use xlink:href="#glyph13-2" x="595.760077" y="247.256"/>
</g>
<g style="fill:rgb(0%,0%,0%);fill-opacity:1;">
  <use xlink:href="#glyph14-1" x="613.6014" y="247.256"/>
  <use xlink:href="#glyph14-2" x="637.284492" y="247.256"/>
  <use xlink:href="#glyph14-3" x="666.714012" y="247.256"/>
</g>
<g style="fill:rgb(0%,0%,0%);fill-opacity:1;">
  <use xlink:href="#glyph13-1" x="569.232" y="121.5342"/>
  <use xlink:href="#glyph13-2" x="575.871077" y="121.5342"/>
</g>
<g style="fill:rgb(0%,0%,0%);fill-opacity:1;">
  <use xlink:href="#glyph14-1" x="593.7124" y="121.5342"/>
  <use xlink:href="#glyph14-4" x="617.395492" y="121.5342"/>
  <use xlink:href="#glyph14-3" x="646.825012" y="121.5342"/>
</g>
<g style="fill:rgb(0%,0%,0%);fill-opacity:1;">
  <use xlink:href="#glyph8-2" x="241" y="20"/>
</g>
<path style="fill:none;stroke-width:1.2;stroke-linecap:round;stroke-linejoin:round;stroke:rgb(0%,0%,0%);stroke-opacity:1;stroke-miterlimit:10;" d="M 260.304688 469.179688 C 260.304688 476.585938 254.300781 482.589844 246.894531 482.589844 C 239.484375 482.589844 233.480469 476.585938 233.480469 469.179688 C 233.480469 461.773438 239.484375 455.765625 246.894531 455.765625 C 254.300781 455.765625 260.304688 461.773438 260.304688 469.179688 Z M 260.304688 469.179688 " transform="matrix(1,0,0,-1,1,484)"/>
<path style="fill:none;stroke-width:1.2;stroke-linecap:round;stroke-linejoin:round;stroke:rgb(0%,0%,0%);stroke-opacity:1;stroke-miterlimit:10;" d="M 260.304688 469.179688 C 260.304688 476.585938 254.300781 482.589844 246.894531 482.589844 C 239.484375 482.589844 233.480469 476.585938 233.480469 469.179688 C 233.480469 461.773438 239.484375 455.765625 246.894531 455.765625 C 254.300781 455.765625 260.304688 461.773438 260.304688 469.179688 Z M 260.304688 469.179688 " transform="matrix(1,0,0,-1,1,484)"/>
<path style="fill:none;stroke-width:1.2;stroke-linecap:round;stroke-linejoin:round;stroke:rgb(0%,0%,0%);stroke-opacity:1;stroke-miterlimit:10;" d="M 208 432 L 208 416 L 224 416 L 224 432 Z M 208 432 " transform="matrix(1,0,0,-1,1,484)"/>
<path style="fill:none;stroke-width:1.2;stroke-linecap:round;stroke-linejoin:round;stroke:rgb(0%,0%,0%);stroke-opacity:1;stroke-miterlimit:10;" d="M 272 432 L 272 416 L 288 416 L 288 432 Z M 272 432 " transform="matrix(1,0,0,-1,1,484)"/>
<path style="fill:none;stroke-width:1.2;stroke-linecap:round;stroke-linejoin:round;stroke:rgb(0%,0%,0%);stroke-opacity:1;stroke-miterlimit:10;" d="M 240.09375 457.617188 L 215.9375 432 " transform="matrix(1,0,0,-1,1,484)"/>
<path style="fill:none;stroke-width:1.2;stroke-linecap:round;stroke-linejoin:round;stroke:rgb(0%,0%,0%);stroke-opacity:1;stroke-miterlimit:10;" d="M 254.621094 458.21875 L 281.128906 432 " transform="matrix(1,0,0,-1,1,484)"/>
<g style="fill:rgb(0%,0%,0%);fill-opacity:1;">
  <use xlink:href="#glyph8-1" x="442.261" y="184.0146"/>
</g>
<path style="fill:none;stroke-width:1.2;stroke-linecap:round;stroke-linejoin:round;stroke:rgb(0%,0%,0%);stroke-opacity:1;stroke-miterlimit:10;" d="M 461.566406 305.164062 C 461.566406 312.570312 455.5625 318.574219 448.152344 318.574219 C 440.746094 318.574219 434.742188 312.570312 434.742188 305.164062 C 434.742188 297.757812 440.746094 291.753906 448.152344 291.753906 C 455.5625 291.753906 461.566406 297.757812 461.566406 305.164062 Z M 461.566406 305.164062 " transform="matrix(1,0,0,-1,1,484)"/>
<g style="fill:rgb(0%,0%,0%);fill-opacity:1;">
  <use xlink:href="#glyph9-1" x="404.023" y="256.348"/>
</g>
<path style="fill:none;stroke-width:1.2;stroke-linecap:round;stroke-linejoin:round;stroke:rgb(0%,0%,0%);stroke-opacity:1;stroke-miterlimit:10;" d="M 412.894531 264.144531 L 390.847656 210.636719 L 438.324219 212.257812 L 412.894531 264.144531 " transform="matrix(1,0,0,-1,1,484)"/>
<path style="fill:none;stroke-width:1.2;stroke-linecap:round;stroke-linejoin:round;stroke:rgb(0%,0%,0%);stroke-opacity:1;stroke-miterlimit:10;" d="M 440.519531 294.136719 L 412.894531 264.144531 " transform="matrix(1,0,0,-1,1,484)"/>
<path style="fill:none;stroke-width:1.2;stroke-linecap:round;stroke-linejoin:round;stroke:rgb(0%,0%,0%);stroke-opacity:1;stroke-miterlimit:10;" d="M 453.90625 293.050781 L 481.925781 268.433594 " transform="matrix(1,0,0,-1,1,484)"/>
<path style="fill:none;stroke-width:1.2;stroke-linecap:round;stroke-linejoin:round;stroke:rgb(0%,0%,0%);stroke-opacity:1;stroke-miterlimit:10;" d="M 461.566406 305.164062 C 461.566406 312.570312 455.5625 318.574219 448.152344 318.574219 C 440.746094 318.574219 434.742188 312.570312 434.742188 305.164062 C 434.742188 297.757812 440.746094 291.753906 448.152344 291.753906 C 455.5625 291.753906 461.566406 297.757812 461.566406 305.164062 Z M 461.566406 305.164062 " transform="matrix(1,0,0,-1,1,484)"/>
<g style="fill:rgb(0%,0%,0%);fill-opacity:1;">
  <use xlink:href="#glyph9-1" x="404.023" y="256.348"/>
</g>
<path style="fill:none;stroke-width:1.2;stroke-linecap:round;stroke-linejoin:round;stroke:rgb(0%,0%,0%);stroke-opacity:1;stroke-miterlimit:10;" d="M 412.894531 264.144531 L 390.847656 210.636719 L 438.324219 212.257812 L 412.894531 264.144531 " transform="matrix(1,0,0,-1,1,484)"/>
<path style="fill:none;stroke-width:1.2;stroke-linecap:round;stroke-linejoin:round;stroke:rgb(0%,0%,0%);stroke-opacity:1;stroke-miterlimit:10;" d="M 440.519531 294.136719 L 412.894531 264.144531 " transform="matrix(1,0,0,-1,1,484)"/>
<path style="fill:none;stroke-width:1.2;stroke-linecap:round;stroke-linejoin:round;stroke:rgb(0%,0%,0%);stroke-opacity:1;stroke-miterlimit:10;" d="M 453.90625 293.050781 L 481.925781 268.433594 " transform="matrix(1,0,0,-1,1,484)"/>
<g style="fill:rgb(0%,0%,0%);fill-opacity:1;">
  <use xlink:href="#glyph8-1" x="483.194" y="51.2235"/>
</g>
<path style="fill:none;stroke-width:1.2;stroke-linecap:round;stroke-linejoin:round;stroke:rgb(0%,0%,0%);stroke-opacity:1;stroke-miterlimit:10;" d="M 502.5 437.957031 C 502.5 445.363281 496.492188 451.367188 489.085938 451.367188 C 481.679688 451.367188 475.675781 445.363281 475.675781 437.957031 C 475.675781 430.546875 481.679688 424.542969 489.085938 424.542969 C 496.492188 424.542969 502.5 430.546875 502.5 437.957031 Z M 502.5 437.957031 " transform="matrix(1,0,0,-1,1,484)"/>
<g style="fill:rgb(0%,0%,0%);fill-opacity:1;">
  <use xlink:href="#glyph9-2" x="513.7" y="123.8508"/>
</g>
<path style="fill:none;stroke-width:1.2;stroke-linecap:round;stroke-linejoin:round;stroke:rgb(0%,0%,0%);stroke-opacity:1;stroke-miterlimit:10;" d="M 522.859375 401.226562 L 499.914062 341.375 L 556.722656 345.878906 Z M 522.859375 401.226562 " transform="matrix(1,0,0,-1,1,484)"/>
<path style="fill:none;stroke-width:1.2;stroke-linecap:round;stroke-linejoin:round;stroke:rgb(0%,0%,0%);stroke-opacity:1;stroke-miterlimit:10;" d="M 481.453125 426.929688 L 453.828125 396.933594 " transform="matrix(1,0,0,-1,1,484)"/>
<path style="fill:none;stroke-width:1.2;stroke-linecap:round;stroke-linejoin:round;stroke:rgb(0%,0%,0%);stroke-opacity:1;stroke-miterlimit:10;" d="M 494.839844 425.839844 L 522.859375 401.226562 " transform="matrix(1,0,0,-1,1,484)"/>
<path style="fill:none;stroke-width:1.2;stroke-linecap:round;stroke-linejoin:round;stroke:rgb(0%,0%,0%);stroke-opacity:1;stroke-miterlimit:10;" d="M 502.5 437.957031 C 502.5 445.363281 496.492188 451.367188 489.085938 451.367188 C 481.679688 451.367188 475.675781 445.363281 475.675781 437.957031 C 475.675781 430.546875 481.679688 424.542969 489.085938 424.542969 C 496.492188 424.542969 502.5 430.546875 502.5 437.957031 Z M 502.5 437.957031 " transform="matrix(1,0,0,-1,1,484)"/>
<g style="fill:rgb(0%,0%,0%);fill-opacity:1;">
  <use xlink:href="#glyph9-2" x="513.7" y="123.8508"/>
</g>
<path style="fill:none;stroke-width:1.2;stroke-linecap:round;stroke-linejoin:round;stroke:rgb(0%,0%,0%);stroke-opacity:1;stroke-miterlimit:10;" d="M 522.859375 401.226562 L 499.914062 341.375 L 556.722656 345.878906 Z M 522.859375 401.226562 " transform="matrix(1,0,0,-1,1,484)"/>
<path style="fill:none;stroke-width:1.2;stroke-linecap:round;stroke-linejoin:round;stroke:rgb(0%,0%,0%);stroke-opacity:1;stroke-miterlimit:10;" d="M 481.453125 426.929688 L 453.828125 396.933594 " transform="matrix(1,0,0,-1,1,484)"/>
<path style="fill:none;stroke-width:1.2;stroke-linecap:round;stroke-linejoin:round;stroke:rgb(0%,0%,0%);stroke-opacity:1;stroke-miterlimit:10;" d="M 494.839844 425.839844 L 522.859375 401.226562 " transform="matrix(1,0,0,-1,1,484)"/>
<g style="fill:rgb(0%,0%,0%);fill-opacity:1;">
  <use xlink:href="#glyph17-1" x="371.194864" y="117.59162"/>
  <use xlink:href="#glyph17-2" x="380.843278" y="117.59162"/>
  <use xlink:href="#glyph17-3" x="390.491693" y="117.59162"/>
  <use xlink:href="#glyph17-4" x="400.140107" y="117.59162"/>
  <use xlink:href="#glyph17-5" x="409.788521" y="117.59162"/>
  <use xlink:href="#glyph17-6" x="419.436936" y="117.59162"/>
</g>
<g style="fill:rgb(0%,0%,0%);fill-opacity:1;">
  <use xlink:href="#glyph18-1" x="429.18254" y="117.59162"/>
</g>
<g style="fill:rgb(0%,0%,0%);fill-opacity:1;">
  <use xlink:href="#glyph19-1" x="436.342516" y="117.59162"/>
  <use xlink:href="#glyph19-2" x="446.856341" y="117.59162"/>
  <use xlink:href="#glyph19-3" x="455.031715" y="117.59162"/>
</g>
<g style="fill:rgb(0%,0%,0%);fill-opacity:1;">
  <use xlink:href="#glyph20-1" x="467.581008" y="117.59162"/>
</g>
<path style="fill:none;stroke-width:1.2;stroke-linecap:round;stroke-linejoin:round;stroke:rgb(0%,0%,0%);stroke-opacity:1;stroke-miterlimit:10;" d="M 453.828125 396.933594 L 361.710938 379.03125 L 352.542969 353.851562 L 492.601562 354.347656 L 478.84375 381.390625 Z M 453.828125 396.933594 " transform="matrix(1,0,0,-1,1,484)"/>
<g style="fill:rgb(0%,0%,0%);fill-opacity:1;">
  <use xlink:href="#glyph17-1" x="461.701864" y="252.03082"/>
  <use xlink:href="#glyph17-2" x="471.350278" y="252.03082"/>
  <use xlink:href="#glyph17-3" x="480.998693" y="252.03082"/>
  <use xlink:href="#glyph17-4" x="490.647107" y="252.03082"/>
  <use xlink:href="#glyph17-5" x="500.295521" y="252.03082"/>
  <use xlink:href="#glyph17-6" x="509.943936" y="252.03082"/>
</g>
<g style="fill:rgb(0%,0%,0%);fill-opacity:1;">
  <use xlink:href="#glyph18-1" x="519.68954" y="252.03082"/>
</g>
<g style="fill:rgb(0%,0%,0%);fill-opacity:1;">
  <use xlink:href="#glyph19-1" x="526.849516" y="252.03082"/>
  <use xlink:href="#glyph19-2" x="537.363341" y="252.03082"/>
  <use xlink:href="#glyph19-4" x="545.538715" y="252.03082"/>
</g>
<g style="fill:rgb(0%,0%,0%);fill-opacity:1;">
  <use xlink:href="#glyph21-1" x="559.679319" y="252.03082"/>
</g>
<path style="fill:none;stroke-width:1.2;stroke-linecap:round;stroke-linejoin:round;stroke:rgb(0%,0%,0%);stroke-opacity:1;stroke-miterlimit:10;" d="M 481.925781 268.4375 L 454.410156 247.992188 L 451.503906 211.734375 L 580.800781 217.082031 L 568.039062 254.484375 Z M 481.925781 268.4375 " transform="matrix(1,0,0,-1,1,484)"/>
<g style="fill:rgb(0%,0%,0%);fill-opacity:1;">
  <use xlink:href="#glyph8-2" x="442.245" y="314.826"/>
</g>
<path style="fill:none;stroke-width:1.2;stroke-linecap:round;stroke-linejoin:round;stroke:rgb(0%,0%,0%);stroke-opacity:1;stroke-miterlimit:10;" d="M 461.550781 174.351562 C 461.550781 181.761719 455.546875 187.765625 448.136719 187.765625 C 440.730469 187.765625 434.726562 181.761719 434.726562 174.351562 C 434.726562 166.945312 440.730469 160.941406 448.136719 160.941406 C 455.546875 160.941406 461.550781 166.945312 461.550781 174.351562 Z M 461.550781 174.351562 " transform="matrix(1,0,0,-1,1,484)"/>
<g style="fill:rgb(0%,0%,0%);fill-opacity:1;">
  <use xlink:href="#glyph9-1" x="404.007" y="387.16"/>
</g>
<g style="fill:rgb(0%,0%,0%);fill-opacity:1;">
  <use xlink:href="#glyph9-2" x="472.751" y="387.453"/>
</g>
<path style="fill:none;stroke-width:1.2;stroke-linecap:round;stroke-linejoin:round;stroke:rgb(0%,0%,0%);stroke-opacity:1;stroke-miterlimit:10;" d="M 412.878906 133.332031 L 390.832031 79.824219 L 438.308594 81.445312 L 412.878906 133.332031 " transform="matrix(1,0,0,-1,1,484)"/>
<path style="fill:none;stroke-width:1.2;stroke-linecap:round;stroke-linejoin:round;stroke:rgb(0%,0%,0%);stroke-opacity:1;stroke-miterlimit:10;" d="M 481.910156 137.625 L 458.96875 77.773438 L 515.773438 82.277344 Z M 481.910156 137.625 " transform="matrix(1,0,0,-1,1,484)"/>
<path style="fill:none;stroke-width:1.2;stroke-linecap:round;stroke-linejoin:round;stroke:rgb(0%,0%,0%);stroke-opacity:1;stroke-miterlimit:10;" d="M 440.503906 163.324219 L 412.878906 133.332031 " transform="matrix(1,0,0,-1,1,484)"/>
<path style="fill:none;stroke-width:1.2;stroke-linecap:round;stroke-linejoin:round;stroke:rgb(0%,0%,0%);stroke-opacity:1;stroke-miterlimit:10;" d="M 453.890625 162.238281 L 481.910156 137.625 " transform="matrix(1,0,0,-1,1,484)"/>
<path style="fill:none;stroke-width:1.2;stroke-linecap:round;stroke-linejoin:round;stroke:rgb(0%,0%,0%);stroke-opacity:1;stroke-miterlimit:10;" d="M 461.550781 174.351562 C 461.550781 181.761719 455.546875 187.765625 448.136719 187.765625 C 440.730469 187.765625 434.726562 181.761719 434.726562 174.351562 C 434.726562 166.945312 440.730469 160.941406 448.136719 160.941406 C 455.546875 160.941406 461.550781 166.945312 461.550781 174.351562 Z M 461.550781 174.351562 " transform="matrix(1,0,0,-1,1,484)"/>
<g style="fill:rgb(0%,0%,0%);fill-opacity:1;">
  <use xlink:href="#glyph9-1" x="404.007" y="387.16"/>
</g>
<g style="fill:rgb(0%,0%,0%);fill-opacity:1;">
  <use xlink:href="#glyph9-2" x="472.751" y="387.453"/>
</g>
<path style="fill:none;stroke-width:1.2;stroke-linecap:round;stroke-linejoin:round;stroke:rgb(0%,0%,0%);stroke-opacity:1;stroke-miterlimit:10;" d="M 412.878906 133.332031 L 390.832031 79.824219 L 438.308594 81.445312 L 412.878906 133.332031 " transform="matrix(1,0,0,-1,1,484)"/>
<path style="fill:none;stroke-width:1.2;stroke-linecap:round;stroke-linejoin:round;stroke:rgb(0%,0%,0%);stroke-opacity:1;stroke-miterlimit:10;" d="M 481.910156 137.625 L 458.96875 77.773438 L 515.773438 82.277344 Z M 481.910156 137.625 " transform="matrix(1,0,0,-1,1,484)"/>
<path style="fill:none;stroke-width:1.2;stroke-linecap:round;stroke-linejoin:round;stroke:rgb(0%,0%,0%);stroke-opacity:1;stroke-miterlimit:10;" d="M 440.503906 163.324219 L 412.878906 133.332031 " transform="matrix(1,0,0,-1,1,484)"/>
<path style="fill:none;stroke-width:1.2;stroke-linecap:round;stroke-linejoin:round;stroke:rgb(0%,0%,0%);stroke-opacity:1;stroke-miterlimit:10;" d="M 453.890625 162.238281 L 481.910156 137.625 " transform="matrix(1,0,0,-1,1,484)"/>
</g>
</svg>
