<?xml version="1.0" encoding="UTF-8"?>
<svg xmlns="http://www.w3.org/2000/svg" xmlns:xlink="http://www.w3.org/1999/xlink" width="348pt" height="175pt" viewBox="0 0 348 175" version="1.1">
<defs>
<g>
<symbol overflow="visible" id="glyph0-0">
<path style="stroke:none;" d=""/>
</symbol>
<symbol overflow="visible" id="glyph0-1">
<path style="stroke:none;" d="M 11.625 -9.109375 C 11.71875 -9.4375 11.71875 -9.484375 11.71875 -9.65625 C 11.71875 -10.09375 11.375 -10.296875 11.015625 -10.296875 C 10.78125 -10.296875 10.40625 -10.15625 10.1875 -9.796875 C 10.140625 -9.6875 9.9375 -8.9375 9.84375 -8.515625 C 9.6875 -7.890625 9.515625 -7.25 9.375 -6.59375 L 8.296875 -2.296875 C 8.203125 -1.9375 7.171875 -0.265625 5.59375 -0.265625 C 4.375 -0.265625 4.109375 -1.3125 4.109375 -2.203125 C 4.109375 -3.296875 4.515625 -4.78125 5.328125 -6.890625 C 5.71875 -7.859375 5.8125 -8.125 5.8125 -8.609375 C 5.8125 -9.6875 5.046875 -10.5625 3.84375 -10.5625 C 1.578125 -10.5625 0.6875 -7.09375 0.6875 -6.890625 C 0.6875 -6.640625 0.9375 -6.640625 0.984375 -6.640625 C 1.21875 -6.640625 1.25 -6.6875 1.359375 -7.078125 C 2.015625 -9.328125 2.96875 -10.046875 3.78125 -10.046875 C 3.96875 -10.046875 4.375 -10.046875 4.375 -9.28125 C 4.375 -8.671875 4.140625 -8.0625 3.96875 -7.609375 C 3.015625 -5.0625 2.578125 -3.703125 2.578125 -2.578125 C 2.578125 -0.453125 4.09375 0.265625 5.5 0.265625 C 6.4375 0.265625 7.25 -0.140625 7.90625 -0.8125 C 7.609375 0.4375 7.3125 1.609375 6.359375 2.875 C 5.734375 3.6875 4.828125 4.375 3.734375 4.375 C 3.390625 4.375 2.3125 4.296875 1.90625 3.375 C 2.296875 3.375 2.609375 3.375 2.9375 3.078125 C 3.171875 2.875 3.421875 2.5625 3.421875 2.109375 C 3.421875 1.359375 2.765625 1.265625 2.53125 1.265625 C 1.984375 1.265625 1.1875 1.65625 1.1875 2.828125 C 1.1875 4.015625 2.25 4.90625 3.734375 4.90625 C 6.1875 4.90625 8.65625 2.71875 9.328125 0.03125 Z M 11.625 -9.109375 "/>
</symbol>
<symbol overflow="visible" id="glyph1-0">
<path style="stroke:none;" d=""/>
</symbol>
<symbol overflow="visible" id="glyph1-1">
<path style="stroke:none;" d="M 11.1875 -8.890625 C 11.1875 -10.1875 10.5625 -10.5625 10.140625 -10.5625 C 9.53125 -10.5625 8.96875 -9.9375 8.96875 -9.421875 C 8.96875 -9.109375 9.078125 -8.96875 9.34375 -8.703125 C 9.84375 -8.21875 10.15625 -7.609375 10.15625 -6.734375 C 10.15625 -5.734375 8.703125 -0.265625 5.90625 -0.265625 C 4.6875 -0.265625 4.140625 -1.09375 4.140625 -2.34375 C 4.140625 -3.6875 4.78125 -5.421875 5.515625 -7.40625 C 5.6875 -7.8125 5.8125 -8.15625 5.8125 -8.609375 C 5.8125 -9.6875 5.046875 -10.5625 3.84375 -10.5625 C 1.609375 -10.5625 0.6875 -7.09375 0.6875 -6.890625 C 0.6875 -6.640625 0.9375 -6.640625 0.984375 -6.640625 C 1.21875 -6.640625 1.25 -6.6875 1.359375 -7.078125 C 2.0625 -9.484375 3.078125 -10.046875 3.78125 -10.046875 C 3.96875 -10.046875 4.375 -10.046875 4.375 -9.28125 C 4.375 -8.671875 4.140625 -8.03125 3.96875 -7.609375 C 2.921875 -4.828125 2.609375 -3.734375 2.609375 -2.703125 C 2.609375 -0.125 4.703125 0.265625 5.8125 0.265625 C 9.828125 0.265625 11.1875 -7.65625 11.1875 -8.890625 Z M 11.1875 -8.890625 "/>
</symbol>
<symbol overflow="visible" id="glyph2-0">
<path style="stroke:none;" d=""/>
</symbol>
<symbol overflow="visible" id="glyph2-1">
<path style="stroke:none;" d="M 3.171875 -1.984375 C 4.46875 -3.375 5.15625 -3.96875 6.03125 -4.703125 C 6.03125 -4.734375 7.5 -6 8.359375 -6.859375 C 10.640625 -9.078125 11.171875 -10.234375 11.171875 -10.328125 C 11.171875 -10.5625 10.953125 -10.5625 10.90625 -10.5625 C 10.734375 -10.5625 10.65625 -10.515625 10.546875 -10.296875 C 9.828125 -9.15625 9.328125 -8.78125 8.75 -8.78125 C 8.171875 -8.78125 7.890625 -9.125 7.53125 -9.53125 C 7.078125 -10.09375 6.671875 -10.5625 5.875 -10.5625 C 4.09375 -10.5625 2.984375 -8.34375 2.984375 -7.84375 C 2.984375 -7.71875 3.0625 -7.578125 3.28125 -7.578125 C 3.484375 -7.578125 3.53125 -7.703125 3.578125 -7.84375 C 4.046875 -8.9375 5.421875 -8.96875 5.625 -8.96875 C 6.125 -8.96875 6.578125 -8.796875 7.125 -8.609375 C 8.078125 -8.25 8.34375 -8.25 8.96875 -8.25 C 8.109375 -7.21875 6.09375 -5.5 5.640625 -5.109375 L 3.484375 -3.109375 C 1.859375 -1.5 1.03125 -0.140625 1.03125 0.03125 C 1.03125 0.265625 1.265625 0.265625 1.3125 0.265625 C 1.5 0.265625 1.546875 0.21875 1.703125 -0.046875 C 2.25 -0.890625 2.96875 -1.53125 3.734375 -1.53125 C 4.28125 -1.53125 4.515625 -1.3125 5.109375 -0.625 C 5.515625 -0.125 5.953125 0.265625 6.640625 0.265625 C 9.015625 0.265625 10.40625 -2.765625 10.40625 -3.421875 C 10.40625 -3.53125 10.296875 -3.65625 10.109375 -3.65625 C 9.890625 -3.65625 9.84375 -3.515625 9.78125 -3.34375 C 9.234375 -1.796875 7.703125 -1.34375 6.90625 -1.34375 C 6.4375 -1.34375 6 -1.484375 5.5 -1.65625 C 4.6875 -1.953125 4.328125 -2.0625 3.828125 -2.0625 C 3.78125 -2.0625 3.390625 -2.0625 3.171875 -1.984375 Z M 3.171875 -1.984375 "/>
</symbol>
<symbol overflow="visible" id="glyph3-0">
<path style="stroke:none;" d=""/>
</symbol>
<symbol overflow="visible" id="glyph3-1">
<path style="stroke:none;" d="M 11.046875 -8.109375 C 11.171875 -8.625 11.40625 -9.515625 11.40625 -9.65625 C 11.40625 -10.09375 11.0625 -10.296875 10.703125 -10.296875 C 10.421875 -10.296875 10 -10.109375 9.828125 -9.640625 C 9.75 -9.46875 8.625 -4.90625 8.46875 -4.28125 C 8.296875 -3.5625 8.25 -3.125 8.25 -2.703125 C 8.25 -2.4375 8.25 -2.390625 8.265625 -2.265625 C 7.71875 -1 7 -0.265625 6.078125 -0.265625 C 4.15625 -0.265625 4.15625 -2.03125 4.15625 -2.4375 C 4.15625 -3.203125 4.28125 -4.140625 5.40625 -7.078125 C 5.671875 -7.796875 5.8125 -8.125 5.8125 -8.609375 C 5.8125 -9.6875 5.015625 -10.5625 3.84375 -10.5625 C 1.578125 -10.5625 0.6875 -7.09375 0.6875 -6.890625 C 0.6875 -6.640625 0.9375 -6.640625 0.984375 -6.640625 C 1.21875 -6.640625 1.25 -6.6875 1.359375 -7.078125 C 2.015625 -9.296875 2.9375 -10.046875 3.78125 -10.046875 C 4 -10.046875 4.375 -10.015625 4.375 -9.25 C 4.375 -8.65625 4.109375 -7.984375 3.9375 -7.578125 C 2.890625 -4.75 2.609375 -3.65625 2.609375 -2.75 C 2.609375 -0.578125 4.203125 0.265625 6 0.265625 C 6.40625 0.265625 7.53125 0.265625 8.484375 -1.40625 C 9.109375 0.125 10.75 0.265625 11.46875 0.265625 C 13.265625 0.265625 14.3125 -1.25 14.9375 -2.671875 C 15.75 -4.546875 16.515625 -7.75 16.515625 -8.890625 C 16.515625 -10.203125 15.875 -10.5625 15.46875 -10.5625 C 14.875 -10.5625 14.265625 -9.9375 14.265625 -9.421875 C 14.265625 -9.109375 14.421875 -8.96875 14.625 -8.78125 C 14.890625 -8.515625 15.484375 -7.890625 15.484375 -6.734375 C 15.484375 -5.921875 14.796875 -3.578125 14.171875 -2.359375 C 13.5625 -1.09375 12.71875 -0.265625 11.546875 -0.265625 C 10.421875 -0.265625 9.78125 -0.984375 9.78125 -2.34375 C 9.78125 -3.015625 9.9375 -3.75 10.046875 -4.09375 Z M 11.046875 -8.109375 "/>
</symbol>
<symbol overflow="visible" id="glyph4-0">
<path style="stroke:none;" d=""/>
</symbol>
<symbol overflow="visible" id="glyph4-1">
<path style="stroke:none;" d="M 11.90625 -16.921875 C 12.109375 -17.703125 12.21875 -17.875 12.546875 -17.96875 C 12.796875 -18.015625 13.71875 -18.015625 14.3125 -18.015625 C 17.125 -18.015625 18.375 -17.90625 18.375 -15.734375 C 18.375 -15.3125 18.265625 -14.21875 18.15625 -13.5 C 18.125 -13.390625 18.078125 -13.046875 18.078125 -12.96875 C 18.078125 -12.796875 18.15625 -12.609375 18.40625 -12.609375 C 18.71875 -12.609375 18.765625 -12.828125 18.828125 -13.25 L 19.578125 -18.09375 C 19.609375 -18.21875 19.640625 -18.484375 19.640625 -18.578125 C 19.640625 -18.875 19.359375 -18.875 18.875 -18.875 L 3.40625 -18.875 C 2.734375 -18.875 2.703125 -18.859375 2.515625 -18.328125 L 0.84375 -13.421875 C 0.8125 -13.359375 0.671875 -12.96875 0.671875 -12.90625 C 0.671875 -12.75 0.8125 -12.609375 1 -12.609375 C 1.28125 -12.609375 1.3125 -12.75 1.484375 -13.1875 C 2.984375 -17.515625 3.703125 -18.015625 7.84375 -18.015625 L 8.921875 -18.015625 C 9.703125 -18.015625 9.703125 -17.90625 9.703125 -17.6875 C 9.703125 -17.515625 9.625 -17.1875 9.59375 -17.09375 L 5.859375 -2.203125 C 5.609375 -1.171875 5.515625 -0.859375 2.53125 -0.859375 C 1.53125 -0.859375 1.359375 -0.859375 1.359375 -0.328125 C 1.359375 0 1.671875 0 1.84375 0 C 2.59375 0 3.375 -0.0625 4.125 -0.0625 C 4.90625 -0.0625 5.71875 -0.078125 6.5 -0.078125 C 7.28125 -0.078125 8.0625 -0.0625 8.8125 -0.0625 C 9.625 -0.0625 10.453125 0 11.234375 0 C 11.515625 0 11.859375 0 11.859375 -0.5625 C 11.859375 -0.859375 11.625 -0.859375 10.90625 -0.859375 C 10.203125 -0.859375 9.84375 -0.859375 9.125 -0.921875 C 8.3125 -1 8.09375 -1.09375 8.09375 -1.53125 C 8.09375 -1.5625 8.09375 -1.703125 8.203125 -2.125 Z M 11.90625 -16.921875 "/>
</symbol>
<symbol overflow="visible" id="glyph5-0">
<path style="stroke:none;" d=""/>
</symbol>
<symbol overflow="visible" id="glyph5-1">
<path style="stroke:none;" d="M 6.546875 -12.421875 C 6.546875 -12.953125 6.5 -12.96875 5.953125 -12.96875 C 4.703125 -11.734375 2.9375 -11.71875 2.125 -11.71875 L 2.125 -11.015625 C 2.59375 -11.015625 3.890625 -11.015625 4.96875 -11.5625 L 4.96875 -1.609375 C 4.96875 -0.953125 4.96875 -0.703125 3.015625 -0.703125 L 2.265625 -0.703125 L 2.265625 0 C 2.625 -0.015625 5.015625 -0.078125 5.75 -0.078125 C 6.34375 -0.078125 8.8125 -0.015625 9.234375 0 L 9.234375 -0.703125 L 8.5 -0.703125 C 6.546875 -0.703125 6.546875 -0.953125 6.546875 -1.609375 Z M 6.546875 -12.421875 "/>
</symbol>
<symbol overflow="visible" id="glyph5-2">
<path style="stroke:none;" d="M 10.328125 -3.203125 L 10.328125 -3.90625 L 8.171875 -3.90625 L 8.171875 -12.625 C 8.171875 -13.03125 8.171875 -13.171875 7.734375 -13.171875 C 7.5 -13.171875 7.421875 -13.171875 7.234375 -12.890625 L 0.765625 -3.90625 L 0.765625 -3.203125 L 6.5 -3.203125 L 6.5 -1.609375 C 6.5 -0.9375 6.5 -0.703125 4.921875 -0.703125 L 4.390625 -0.703125 L 4.390625 0 C 5.375 -0.046875 6.625 -0.078125 7.328125 -0.078125 C 8.046875 -0.078125 9.296875 -0.046875 10.28125 0 L 10.28125 -0.703125 L 9.75 -0.703125 C 8.171875 -0.703125 8.171875 -0.9375 8.171875 -1.609375 L 8.171875 -3.203125 Z M 6.640625 -11.0625 L 6.640625 -3.90625 L 1.484375 -3.90625 Z M 6.640625 -11.0625 "/>
</symbol>
<symbol overflow="visible" id="glyph6-0">
<path style="stroke:none;" d=""/>
</symbol>
<symbol overflow="visible" id="glyph6-1">
<path style="stroke:none;" d="M 10.203125 -14.515625 C 10.375 -15.1875 10.46875 -15.328125 10.75 -15.390625 C 10.96875 -15.4375 11.765625 -15.4375 12.265625 -15.4375 C 14.671875 -15.4375 15.75 -15.34375 15.75 -13.484375 C 15.75 -13.125 15.65625 -12.1875 15.5625 -11.578125 C 15.53125 -11.46875 15.484375 -11.1875 15.484375 -11.109375 C 15.484375 -10.96875 15.5625 -10.8125 15.78125 -10.8125 C 16.046875 -10.8125 16.09375 -11 16.140625 -11.359375 L 16.78125 -15.515625 C 16.8125 -15.609375 16.828125 -15.84375 16.828125 -15.921875 C 16.828125 -16.1875 16.59375 -16.1875 16.1875 -16.1875 L 2.921875 -16.1875 C 2.34375 -16.1875 2.3125 -16.15625 2.15625 -15.703125 L 0.71875 -11.5 C 0.6875 -11.453125 0.578125 -11.109375 0.578125 -11.0625 C 0.578125 -10.921875 0.6875 -10.8125 0.859375 -10.8125 C 1.09375 -10.8125 1.125 -10.921875 1.265625 -11.3125 C 2.5625 -15.015625 3.171875 -15.4375 6.71875 -15.4375 L 7.65625 -15.4375 C 8.3125 -15.4375 8.3125 -15.34375 8.3125 -15.15625 C 8.3125 -15.015625 8.25 -14.71875 8.21875 -14.65625 L 5.015625 -1.890625 C 4.8125 -1 4.734375 -0.734375 2.171875 -0.734375 C 1.3125 -0.734375 1.171875 -0.734375 1.171875 -0.28125 C 1.171875 0 1.4375 0 1.578125 0 C 2.21875 0 2.890625 -0.046875 3.53125 -0.046875 C 4.203125 -0.046875 4.90625 -0.078125 5.5625 -0.078125 C 6.234375 -0.078125 6.90625 -0.046875 7.546875 -0.046875 C 8.25 -0.046875 8.96875 0 9.640625 0 C 9.875 0 10.15625 0 10.15625 -0.484375 C 10.15625 -0.734375 9.96875 -0.734375 9.34375 -0.734375 C 8.75 -0.734375 8.4375 -0.734375 7.8125 -0.78125 C 7.125 -0.859375 6.9375 -0.9375 6.9375 -1.3125 C 6.9375 -1.34375 6.9375 -1.453125 7.03125 -1.8125 Z M 10.203125 -14.515625 "/>
</symbol>
<symbol overflow="visible" id="glyph7-0">
<path style="stroke:none;" d=""/>
</symbol>
<symbol overflow="visible" id="glyph7-1">
<path style="stroke:none;" d="M 8.453125 -3.046875 L 7.875 -3.046875 C 7.828125 -2.671875 7.671875 -1.6875 7.453125 -1.515625 C 7.3125 -1.421875 6.03125 -1.421875 5.796875 -1.421875 L 2.71875 -1.421875 C 4.46875 -2.984375 5.046875 -3.453125 6.0625 -4.234375 C 7.296875 -5.21875 8.453125 -6.265625 8.453125 -7.84375 C 8.453125 -9.875 6.671875 -11.109375 4.53125 -11.109375 C 2.453125 -11.109375 1.046875 -9.65625 1.046875 -8.109375 C 1.046875 -7.265625 1.78125 -7.171875 1.9375 -7.171875 C 2.34375 -7.171875 2.828125 -7.46875 2.828125 -8.0625 C 2.828125 -8.359375 2.71875 -8.953125 1.84375 -8.953125 C 2.359375 -10.140625 3.5 -10.515625 4.28125 -10.515625 C 5.953125 -10.515625 6.828125 -9.203125 6.828125 -7.84375 C 6.828125 -6.390625 5.796875 -5.234375 5.25 -4.640625 L 1.21875 -0.65625 C 1.046875 -0.5 1.046875 -0.46875 1.046875 0 L 7.953125 0 Z M 8.453125 -3.046875 "/>
</symbol>
<symbol overflow="visible" id="glyph7-2">
<path style="stroke:none;" d="M 4.5625 -5.59375 C 5.875 -5.59375 6.8125 -4.6875 6.8125 -2.890625 C 6.8125 -0.8125 5.609375 -0.203125 4.640625 -0.203125 C 3.96875 -0.203125 2.5 -0.390625 1.796875 -1.375 C 2.578125 -1.40625 2.765625 -1.953125 2.765625 -2.3125 C 2.765625 -2.84375 2.359375 -3.234375 1.84375 -3.234375 C 1.375 -3.234375 0.90625 -2.9375 0.90625 -2.265625 C 0.90625 -0.6875 2.640625 0.328125 4.671875 0.328125 C 7 0.328125 8.59375 -1.21875 8.59375 -2.890625 C 8.59375 -4.203125 7.53125 -5.5 5.6875 -5.890625 C 7.453125 -6.53125 8.078125 -7.78125 8.078125 -8.796875 C 8.078125 -10.125 6.5625 -11.109375 4.703125 -11.109375 C 2.84375 -11.109375 1.421875 -10.203125 1.421875 -8.875 C 1.421875 -8.296875 1.796875 -7.984375 2.296875 -7.984375 C 2.8125 -7.984375 3.140625 -8.359375 3.140625 -8.828125 C 3.140625 -9.328125 2.8125 -9.671875 2.296875 -9.703125 C 2.875 -10.4375 4.03125 -10.625 4.65625 -10.625 C 5.40625 -10.625 6.453125 -10.265625 6.453125 -8.796875 C 6.453125 -8.09375 6.21875 -7.328125 5.796875 -6.8125 C 5.234375 -6.171875 4.765625 -6.140625 3.9375 -6.09375 C 3.515625 -6.0625 3.484375 -6.0625 3.390625 -6.046875 C 3.359375 -6.046875 3.234375 -6 3.234375 -5.828125 C 3.234375 -5.59375 3.375 -5.59375 3.671875 -5.59375 Z M 4.5625 -5.59375 "/>
</symbol>
</g>
</defs>
<g id="surface828">
<path style="fill:none;stroke-width:1.2;stroke-linecap:round;stroke-linejoin:round;stroke:rgb(0%,0%,0%);stroke-opacity:1;stroke-miterlimit:10;" d="M 318.890625 495.363281 C 308.574219 495.773438 299.648438 493.511719 294.148438 489.179688 C 288.648438 484.847656 286.574219 478.449219 288.535156 472.429688 C 290.492188 466.40625 296.484375 460.761719 307.183594 458.898438 C 317.878906 457.035156 333.28125 458.953125 341.640625 464.5625 C 350.003906 470.171875 351.320312 479.46875 346.125 485.664062 C 340.925781 491.855469 329.210938 494.949219 318.890625 495.363281 Z M 318.890625 495.363281 " transform="matrix(1,0,0,-1,-132,497)"/>
<g style="fill:rgb(0%,0%,100%);fill-opacity:1;">
  <use xlink:href="#glyph0-1" x="68.79" y="76.2442"/>
</g>
<g style="fill:rgb(100%,0%,0%);fill-opacity:1;">
  <use xlink:href="#glyph1-1" x="89.328897" y="76.2442"/>
</g>
<path style="fill:none;stroke-width:1.2;stroke-linecap:round;stroke-linejoin:round;stroke:rgb(0%,0%,0%);stroke-opacity:1;stroke-miterlimit:10;" d="M 222.890625 447.363281 C 212.574219 447.773438 203.648438 445.511719 198.148438 441.179688 C 192.648438 436.847656 190.574219 430.449219 192.535156 424.429688 C 194.492188 418.40625 200.484375 412.761719 211.183594 410.898438 C 221.878906 409.035156 237.28125 410.953125 245.640625 416.5625 C 254.003906 422.171875 255.320312 431.46875 250.125 437.664062 C 244.925781 443.855469 233.210938 446.949219 222.890625 447.363281 Z M 222.890625 447.363281 " transform="matrix(1,0,0,-1,-132,497)"/>
<g style="fill:rgb(0%,0%,100%);fill-opacity:1;">
  <use xlink:href="#glyph2-1" x="260.7901" y="76.261"/>
</g>
<g style="fill:rgb(100%,0%,0%);fill-opacity:1;">
  <use xlink:href="#glyph3-1" x="280.922523" y="76.261"/>
</g>
<path style="fill:none;stroke-width:1.2;stroke-linecap:round;stroke-linejoin:round;stroke:rgb(0%,0%,0%);stroke-opacity:1;stroke-miterlimit:10;" d="M 414.890625 447.363281 C 404.574219 447.773438 395.648438 445.511719 390.148438 441.179688 C 384.648438 436.847656 382.574219 430.449219 384.535156 424.429688 C 386.492188 418.40625 392.484375 412.761719 403.183594 410.898438 C 413.878906 409.035156 429.28125 410.953125 437.640625 416.5625 C 446.003906 422.171875 447.320312 431.46875 442.125 437.664062 C 436.925781 443.855469 425.210938 446.949219 414.890625 447.363281 Z M 414.890625 447.363281 " transform="matrix(1,0,0,-1,-132,497)"/>
<path style="fill:none;stroke-width:1.2;stroke-linecap:round;stroke-linejoin:round;stroke:rgb(0%,0%,0%);stroke-opacity:1;stroke-miterlimit:10;" d="M 290.769531 468.035156 L 229.097656 446.800781 " transform="matrix(1,0,0,-1,-132,497)"/>
<path style="fill:none;stroke-width:1.2;stroke-linecap:round;stroke-linejoin:round;stroke:rgb(0%,0%,0%);stroke-opacity:1;stroke-miterlimit:10;" d="M 344.796875 467.171875 L 412.570312 447.410156 " transform="matrix(1,0,0,-1,-132,497)"/>
<path style="fill:none;stroke-width:1.2;stroke-linecap:round;stroke-linejoin:round;stroke:rgb(0%,0%,0%);stroke-opacity:1;stroke-miterlimit:10;" d="M 166.722656 394.015625 L 133.082031 329.25 L 200.648438 338.015625 Z M 166.722656 394.015625 " transform="matrix(1,0,0,-1,-132,497)"/>
<path style="fill:none;stroke-width:1.2;stroke-linecap:round;stroke-linejoin:round;stroke:rgb(0%,0%,0%);stroke-opacity:1;stroke-miterlimit:10;" d="M 256.46875 385.363281 L 310.664062 322.878906 L 224.3125 329.597656 Z M 256.46875 385.363281 " transform="matrix(1,0,0,-1,-132,497)"/>
<path style="fill:none;stroke-width:1.2;stroke-linecap:round;stroke-linejoin:round;stroke:rgb(0%,0%,0%);stroke-opacity:1;stroke-miterlimit:10;" d="M 365.746094 386.085938 L 325.480469 326.953125 L 403.753906 336.515625 Z M 365.746094 386.085938 " transform="matrix(1,0,0,-1,-132,497)"/>
<path style="fill:none;stroke-width:1.2;stroke-linecap:round;stroke-linejoin:round;stroke:rgb(0%,0%,0%);stroke-opacity:1;stroke-miterlimit:10;" d="M 445.046875 388.164062 L 419.792969 328.054688 L 479.175781 328.734375 Z M 445.046875 388.164062 " transform="matrix(1,0,0,-1,-132,497)"/>
<g style="fill:rgb(0%,0%,0%);fill-opacity:1;">
  <use xlink:href="#glyph4-1" x="23.54374" y="151.27643"/>
</g>
<g style="fill:rgb(0%,0%,0%);fill-opacity:1;">
  <use xlink:href="#glyph5-1" x="39.84534" y="155.45963"/>
</g>
<g style="fill:rgb(0%,0%,0%);fill-opacity:1;">
  <use xlink:href="#glyph6-1" x="115.0672" y="156.19458"/>
</g>
<g style="fill:rgb(0%,0%,0%);fill-opacity:1;">
  <use xlink:href="#glyph7-1" x="129.040001" y="159.78018"/>
</g>
<g style="fill:rgb(0%,0%,0%);fill-opacity:1;">
  <use xlink:href="#glyph6-1" x="216.96" y="157.02181"/>
</g>
<g style="fill:rgb(0%,0%,0%);fill-opacity:1;">
  <use xlink:href="#glyph7-2" x="230.932801" y="160.60741"/>
</g>
<g style="fill:rgb(0%,0%,0%);fill-opacity:1;">
  <use xlink:href="#glyph4-1" x="300.674" y="161.5907"/>
</g>
<g style="fill:rgb(0%,0%,0%);fill-opacity:1;">
  <use xlink:href="#glyph5-2" x="316.9756" y="165.7739"/>
</g>
<path style="fill:none;stroke-width:1.2;stroke-linecap:round;stroke-linejoin:round;stroke:rgb(0%,0%,0%);stroke-opacity:1;stroke-miterlimit:10;" d="M 200.195312 414.960938 L 166.722656 394.015625 " transform="matrix(1,0,0,-1,-132,497)"/>
<path style="fill:none;stroke-width:1.2;stroke-linecap:round;stroke-linejoin:round;stroke:rgb(0%,0%,0%);stroke-opacity:1;stroke-miterlimit:10;" d="M 241.066406 414.125 L 256.46875 385.363281 " transform="matrix(1,0,0,-1,-132,497)"/>
<path style="fill:none;stroke-width:1.2;stroke-linecap:round;stroke-linejoin:round;stroke:rgb(0%,0%,0%);stroke-opacity:1;stroke-miterlimit:10;" d="M 384.964844 423.269531 L 365.746094 386.085938 " transform="matrix(1,0,0,-1,-132,497)"/>
<path style="fill:none;stroke-width:1.2;stroke-linecap:round;stroke-linejoin:round;stroke:rgb(0%,0%,0%);stroke-opacity:1;stroke-miterlimit:10;" d="M 445.046875 388.164062 L 437.382812 416.390625 " transform="matrix(1,0,0,-1,-132,497)"/>
</g>
</svg>
