<?xml version="1.0" encoding="UTF-8"?>
<svg xmlns="http://www.w3.org/2000/svg" xmlns:xlink="http://www.w3.org/1999/xlink" width="270pt" height="131pt" viewBox="0 0 270 131" version="1.1">
<defs>
<g>
<symbol overflow="visible" id="glyph0-0">
<path style="stroke:none;" d=""/>
</symbol>
<symbol overflow="visible" id="glyph0-1">
<path style="stroke:none;" d="M 6.4375 -6.921875 C 6.4375 -6.953125 6.40625 -7.03125 6.3125 -7.03125 C 6.265625 -7.03125 6.265625 -7.015625 6.140625 -6.875 L 5.65625 -6.3125 C 5.40625 -6.78125 4.890625 -7.03125 4.234375 -7.03125 C 2.96875 -7.03125 1.78125 -5.875 1.78125 -4.671875 C 1.78125 -3.875 2.296875 -3.40625 2.8125 -3.265625 L 3.875 -2.984375 C 4.25 -2.890625 4.796875 -2.734375 4.796875 -1.921875 C 4.796875 -1.03125 3.984375 -0.09375 3 -0.09375 C 2.359375 -0.09375 1.25 -0.3125 1.25 -1.546875 C 1.25 -1.78125 1.3125 -2.03125 1.3125 -2.078125 C 1.328125 -2.125 1.328125 -2.140625 1.328125 -2.15625 C 1.328125 -2.25 1.265625 -2.265625 1.21875 -2.265625 C 1.171875 -2.265625 1.140625 -2.25 1.109375 -2.21875 C 1.078125 -2.1875 0.515625 0.09375 0.515625 0.125 C 0.515625 0.171875 0.5625 0.21875 0.625 0.21875 C 0.671875 0.21875 0.6875 0.203125 0.8125 0.0625 L 1.296875 -0.5 C 1.71875 0.078125 2.40625 0.21875 2.984375 0.21875 C 4.34375 0.21875 5.515625 -1.109375 5.515625 -2.34375 C 5.515625 -3.03125 5.171875 -3.375 5.03125 -3.515625 C 4.796875 -3.734375 4.640625 -3.78125 3.765625 -4 C 3.53125 -4.0625 3.1875 -4.171875 3.09375 -4.1875 C 2.828125 -4.28125 2.484375 -4.5625 2.484375 -5.09375 C 2.484375 -5.90625 3.28125 -6.75 4.234375 -6.75 C 5.046875 -6.75 5.65625 -6.3125 5.65625 -5.203125 C 5.65625 -4.890625 5.625 -4.703125 5.625 -4.640625 C 5.625 -4.640625 5.625 -4.546875 5.734375 -4.546875 C 5.84375 -4.546875 5.859375 -4.578125 5.890625 -4.75 Z M 6.4375 -6.921875 "/>
</symbol>
<symbol overflow="visible" id="glyph1-0">
<path style="stroke:none;" d=""/>
</symbol>
<symbol overflow="visible" id="glyph1-1">
<path style="stroke:none;" d="M 2.375 -6.8125 C 2.375 -6.8125 2.375 -6.921875 2.25 -6.921875 C 2.03125 -6.921875 1.296875 -6.84375 1.03125 -6.8125 C 0.953125 -6.8125 0.84375 -6.796875 0.84375 -6.625 C 0.84375 -6.5 0.9375 -6.5 1.09375 -6.5 C 1.5625 -6.5 1.578125 -6.4375 1.578125 -6.328125 C 1.578125 -6.265625 1.5 -5.921875 1.453125 -5.71875 L 0.625 -2.46875 C 0.515625 -1.96875 0.46875 -1.796875 0.46875 -1.453125 C 0.46875 -0.515625 1 0.109375 1.734375 0.109375 C 2.90625 0.109375 4.140625 -1.375 4.140625 -2.8125 C 4.140625 -3.71875 3.609375 -4.40625 2.8125 -4.40625 C 2.359375 -4.40625 1.9375 -4.109375 1.640625 -3.8125 Z M 1.453125 -3.046875 C 1.5 -3.265625 1.5 -3.28125 1.59375 -3.390625 C 2.078125 -4.03125 2.53125 -4.1875 2.796875 -4.1875 C 3.15625 -4.1875 3.421875 -3.890625 3.421875 -3.25 C 3.421875 -2.65625 3.09375 -1.515625 2.90625 -1.140625 C 2.578125 -0.46875 2.125 -0.109375 1.734375 -0.109375 C 1.390625 -0.109375 1.0625 -0.375 1.0625 -1.109375 C 1.0625 -1.3125 1.0625 -1.5 1.21875 -2.125 Z M 1.453125 -3.046875 "/>
</symbol>
<symbol overflow="visible" id="glyph2-0">
<path style="stroke:none;" d=""/>
</symbol>
<symbol overflow="visible" id="glyph2-1">
<path style="stroke:none;" d="M 3.71875 -3.765625 C 3.53125 -4.140625 3.25 -4.40625 2.796875 -4.40625 C 1.640625 -4.40625 0.40625 -2.9375 0.40625 -1.484375 C 0.40625 -0.546875 0.953125 0.109375 1.71875 0.109375 C 1.921875 0.109375 2.421875 0.0625 3.015625 -0.640625 C 3.09375 -0.21875 3.453125 0.109375 3.921875 0.109375 C 4.28125 0.109375 4.5 -0.125 4.671875 -0.4375 C 4.828125 -0.796875 4.96875 -1.40625 4.96875 -1.421875 C 4.96875 -1.53125 4.875 -1.53125 4.84375 -1.53125 C 4.75 -1.53125 4.734375 -1.484375 4.703125 -1.34375 C 4.53125 -0.703125 4.359375 -0.109375 3.953125 -0.109375 C 3.671875 -0.109375 3.65625 -0.375 3.65625 -0.5625 C 3.65625 -0.78125 3.671875 -0.875 3.78125 -1.3125 C 3.890625 -1.71875 3.90625 -1.828125 4 -2.203125 L 4.359375 -3.59375 C 4.421875 -3.875 4.421875 -3.890625 4.421875 -3.9375 C 4.421875 -4.109375 4.3125 -4.203125 4.140625 -4.203125 C 3.890625 -4.203125 3.75 -3.984375 3.71875 -3.765625 Z M 3.078125 -1.1875 C 3.015625 -1 3.015625 -0.984375 2.875 -0.8125 C 2.4375 -0.265625 2.03125 -0.109375 1.75 -0.109375 C 1.25 -0.109375 1.109375 -0.65625 1.109375 -1.046875 C 1.109375 -1.546875 1.421875 -2.765625 1.65625 -3.234375 C 1.96875 -3.8125 2.40625 -4.1875 2.8125 -4.1875 C 3.453125 -4.1875 3.59375 -3.375 3.59375 -3.3125 C 3.59375 -3.25 3.578125 -3.1875 3.5625 -3.140625 Z M 3.078125 -1.1875 "/>
</symbol>
<symbol overflow="visible" id="glyph2-2">
<path style="stroke:none;" d="M 2.96875 -2.25 C 3.125 -2.25 3.3125 -2.25 3.3125 -2.421875 C 3.3125 -2.5625 3.1875 -2.5625 3.015625 -2.5625 L 1.40625 -2.5625 C 1.640625 -3.40625 2.203125 -3.984375 3.109375 -3.984375 L 3.421875 -3.984375 C 3.59375 -3.984375 3.75 -3.984375 3.75 -4.15625 C 3.75 -4.296875 3.625 -4.296875 3.453125 -4.296875 L 3.09375 -4.296875 C 1.796875 -4.296875 0.46875 -3.296875 0.46875 -1.78125 C 0.46875 -0.671875 1.21875 0.109375 2.265625 0.109375 C 2.921875 0.109375 3.5625 -0.296875 3.5625 -0.40625 C 3.5625 -0.421875 3.5625 -0.53125 3.46875 -0.53125 C 3.453125 -0.53125 3.421875 -0.53125 3.34375 -0.484375 C 3.03125 -0.28125 2.65625 -0.109375 2.296875 -0.109375 C 1.71875 -0.109375 1.21875 -0.53125 1.21875 -1.40625 C 1.21875 -1.75 1.296875 -2.140625 1.328125 -2.25 Z M 2.96875 -2.25 "/>
</symbol>
</g>
</defs>
<g id="surface17005">
<g style="fill:rgb(0%,0%,0%);fill-opacity:1;">
  <use xlink:href="#glyph0-1" x="52.509491" y="9.87891"/>
</g>
<path style="fill:none;stroke-width:0.4;stroke-linecap:round;stroke-linejoin:round;stroke:rgb(0%,0%,0%);stroke-opacity:1;stroke-miterlimit:10;" d="M 343.007812 186.117188 C 343.007812 189.402344 340.347656 192.066406 337.0625 192.066406 C 333.777344 192.066406 331.117188 189.402344 331.117188 186.117188 C 331.117188 182.835938 333.777344 180.171875 337.0625 180.171875 C 340.347656 180.171875 343.007812 182.835938 343.007812 186.117188 Z M 343.007812 186.117188 " transform="matrix(1,0,0,-1,-281,193)"/>
<g style="fill:rgb(0%,0%,0%);fill-opacity:1;">
  <use xlink:href="#glyph0-1" x="36.509" y="41.879"/>
</g>
<path style="fill:none;stroke-width:0.4;stroke-linecap:round;stroke-linejoin:round;stroke:rgb(0%,0%,0%);stroke-opacity:1;stroke-miterlimit:10;" d="M 327.007812 154.117188 C 327.007812 157.402344 324.347656 160.0625 321.0625 160.0625 C 317.777344 160.0625 315.117188 157.402344 315.117188 154.117188 C 315.117188 150.832031 317.777344 148.171875 321.0625 148.171875 C 324.347656 148.171875 327.007812 150.832031 327.007812 154.117188 Z M 327.007812 154.117188 " transform="matrix(1,0,0,-1,-281,193)"/>
<g style="fill:rgb(0%,0%,0%);fill-opacity:1;">
  <use xlink:href="#glyph1-1" x="68.509" y="41.879"/>
</g>
<g style="fill:rgb(0%,0%,0%);fill-opacity:1;">
  <use xlink:href="#glyph0-1" x="100.509" y="41.879"/>
</g>
<path style="fill:none;stroke-width:0.4;stroke-linecap:round;stroke-linejoin:round;stroke:rgb(0%,0%,0%);stroke-opacity:1;stroke-miterlimit:10;" d="M 391.007812 154.117188 C 391.007812 157.402344 388.347656 160.0625 385.0625 160.0625 C 381.777344 160.0625 379.117188 157.402344 379.117188 154.117188 C 379.117188 150.832031 381.777344 148.171875 385.0625 148.171875 C 388.347656 148.171875 391.007812 150.832031 391.007812 154.117188 Z M 391.007812 154.117188 " transform="matrix(1,0,0,-1,-281,193)"/>
<g style="fill:rgb(0%,0%,0%);fill-opacity:1;">
  <use xlink:href="#glyph2-1" x="4.509" y="41.879"/>
</g>
<g style="fill:rgb(0%,0%,0%);fill-opacity:1;">
  <use xlink:href="#glyph0-1" x="116.509" y="73.879"/>
</g>
<path style="fill:none;stroke-width:0.4;stroke-linecap:round;stroke-linejoin:round;stroke:rgb(0%,0%,0%);stroke-opacity:1;stroke-miterlimit:10;" d="M 407.007812 122.117188 C 407.007812 125.402344 404.347656 128.0625 401.0625 128.0625 C 397.777344 128.0625 395.117188 125.402344 395.117188 122.117188 C 395.117188 118.832031 397.777344 116.171875 401.0625 116.171875 C 404.347656 116.171875 407.007812 118.832031 407.007812 122.117188 Z M 407.007812 122.117188 " transform="matrix(1,0,0,-1,-281,193)"/>
<g style="fill:rgb(0%,0%,0%);fill-opacity:1;">
  <use xlink:href="#glyph2-1" x="148.509" y="73.879"/>
</g>
<g style="fill:rgb(0%,0%,0%);fill-opacity:1;">
  <use xlink:href="#glyph0-1" x="180.509" y="73.879"/>
</g>
<path style="fill:none;stroke-width:0.4;stroke-linecap:round;stroke-linejoin:round;stroke:rgb(0%,0%,0%);stroke-opacity:1;stroke-miterlimit:10;" d="M 471.007812 122.117188 C 471.007812 125.402344 468.347656 128.0625 465.0625 128.0625 C 461.777344 128.0625 459.117188 125.402344 459.117188 122.117188 C 459.117188 118.832031 461.777344 116.171875 465.0625 116.171875 C 468.347656 116.171875 471.007812 118.832031 471.007812 122.117188 Z M 471.007812 122.117188 " transform="matrix(1,0,0,-1,-281,193)"/>
<g style="fill:rgb(0%,0%,0%);fill-opacity:1;">
  <use xlink:href="#glyph1-1" x="84.509" y="73.879"/>
</g>
<g style="fill:rgb(0%,0%,0%);fill-opacity:1;">
  <use xlink:href="#glyph0-1" x="196.509" y="105.879"/>
</g>
<path style="fill:none;stroke-width:0.4;stroke-linecap:round;stroke-linejoin:round;stroke:rgb(0%,0%,0%);stroke-opacity:1;stroke-miterlimit:10;" d="M 487.007812 90.117188 C 487.007812 93.402344 484.347656 96.0625 481.0625 96.0625 C 477.777344 96.0625 475.117188 93.402344 475.117188 90.117188 C 475.117188 86.832031 477.777344 84.171875 481.0625 84.171875 C 484.347656 84.171875 487.007812 86.832031 487.007812 90.117188 Z M 487.007812 90.117188 " transform="matrix(1,0,0,-1,-281,193)"/>
<g style="fill:rgb(0%,0%,0%);fill-opacity:1;">
  <use xlink:href="#glyph1-1" x="228.509" y="105.879"/>
</g>
<g style="fill:rgb(0%,0%,0%);fill-opacity:1;">
  <use xlink:href="#glyph0-1" x="260.509" y="105.879"/>
</g>
<path style="fill:none;stroke-width:0.4;stroke-linecap:round;stroke-linejoin:round;stroke:rgb(0%,0%,0%);stroke-opacity:1;stroke-miterlimit:10;" d="M 551.007812 90.117188 C 551.007812 93.402344 548.347656 96.0625 545.0625 96.0625 C 541.777344 96.0625 539.117188 93.402344 539.117188 90.117188 C 539.117188 86.832031 541.777344 84.171875 545.0625 84.171875 C 548.347656 84.171875 551.007812 86.832031 551.007812 90.117188 Z M 551.007812 90.117188 " transform="matrix(1,0,0,-1,-281,193)"/>
<g style="fill:rgb(0%,0%,0%);fill-opacity:1;">
  <use xlink:href="#glyph2-1" x="164.509" y="105.879"/>
</g>
<path style="fill:none;stroke-width:0.4;stroke-linecap:round;stroke-linejoin:round;stroke:rgb(0%,0%,0%);stroke-opacity:1;stroke-miterlimit:10;" d="M 282.09375 158.925781 L 282.09375 147.789062 L 293.09375 147.789062 L 293.09375 158.925781 Z M 282.09375 158.925781 " transform="matrix(1,0,0,-1,-281,193)"/>
<path style="fill:none;stroke-width:0.4;stroke-linecap:round;stroke-linejoin:round;stroke:rgb(0%,0%,0%);stroke-opacity:1;stroke-miterlimit:10;" d="M 346.09375 158.925781 L 346.09375 147.789062 L 357.09375 147.789062 L 357.09375 158.925781 Z M 346.09375 158.925781 " transform="matrix(1,0,0,-1,-281,193)"/>
<path style="fill:none;stroke-width:0.4;stroke-linecap:round;stroke-linejoin:round;stroke:rgb(0%,0%,0%);stroke-opacity:1;stroke-miterlimit:10;" d="M 362.09375 126.925781 L 362.09375 115.789062 L 373.09375 115.789062 L 373.09375 126.925781 Z M 362.09375 126.925781 " transform="matrix(1,0,0,-1,-281,193)"/>
<path style="fill:none;stroke-width:0.4;stroke-linecap:round;stroke-linejoin:round;stroke:rgb(0%,0%,0%);stroke-opacity:1;stroke-miterlimit:10;" d="M 426.09375 126.925781 L 426.09375 115.789062 L 437.09375 115.789062 L 437.09375 126.925781 Z M 426.09375 126.925781 " transform="matrix(1,0,0,-1,-281,193)"/>
<path style="fill:none;stroke-width:0.4;stroke-linecap:round;stroke-linejoin:round;stroke:rgb(0%,0%,0%);stroke-opacity:1;stroke-miterlimit:10;" d="M 442.09375 94.925781 L 442.09375 83.789062 L 453.09375 83.789062 L 453.09375 94.925781 Z M 442.09375 94.925781 " transform="matrix(1,0,0,-1,-281,193)"/>
<path style="fill:none;stroke-width:0.4;stroke-linecap:round;stroke-linejoin:round;stroke:rgb(0%,0%,0%);stroke-opacity:1;stroke-miterlimit:10;" d="M 506.09375 94.925781 L 506.09375 83.789062 L 517.09375 83.789062 L 517.09375 94.925781 Z M 506.09375 94.925781 " transform="matrix(1,0,0,-1,-281,193)"/>
<g style="fill:rgb(0%,0%,0%);fill-opacity:1;">
  <use xlink:href="#glyph2-2" x="196.329162" y="130.032448"/>
</g>
<g style="fill:rgb(0%,0%,0%);fill-opacity:1;">
  <use xlink:href="#glyph2-2" x="260.329" y="130.032"/>
</g>
<g style="fill:rgb(0%,0%,0%);fill-opacity:1;">
  <use xlink:href="#glyph2-2" x="116.329" y="98.032"/>
</g>
<g style="fill:rgb(0%,0%,0%);fill-opacity:1;">
  <use xlink:href="#glyph2-2" x="36.329" y="66.032"/>
</g>
<path style="fill:none;stroke-width:0.4;stroke-linecap:round;stroke-linejoin:round;stroke:rgb(0%,0%,0%);stroke-opacity:1;stroke-miterlimit:10;" d="M 332.5 182.304688 L 287.648438 158.925781 " transform="matrix(1,0,0,-1,-281,193)"/>
<path style="fill:none;stroke-width:0.4;stroke-linecap:round;stroke-linejoin:round;stroke:rgb(0%,0%,0%);stroke-opacity:1;stroke-miterlimit:10;" d="M 334.484375 180.761719 L 321.480469 160.050781 " transform="matrix(1,0,0,-1,-281,193)"/>
<path style="fill:none;stroke-width:0.4;stroke-linecap:round;stroke-linejoin:round;stroke:rgb(0%,0%,0%);stroke-opacity:1;stroke-miterlimit:10;" d="M 337.933594 180.234375 L 351.414062 158.925781 " transform="matrix(1,0,0,-1,-281,193)"/>
<path style="fill:none;stroke-width:0.4;stroke-linecap:round;stroke-linejoin:round;stroke:rgb(0%,0%,0%);stroke-opacity:1;stroke-miterlimit:10;" d="M 340.929688 181.601562 L 381.832031 159.109375 " transform="matrix(1,0,0,-1,-281,193)"/>
<path style="fill:none;stroke-width:0.4;stroke-linecap:round;stroke-linejoin:round;stroke:rgb(0%,0%,0%);stroke-opacity:1;stroke-miterlimit:10;" d="M 388.328125 149.148438 L 430.378906 126.925781 " transform="matrix(1,0,0,-1,-281,193)"/>
<path style="fill:none;stroke-width:0.4;stroke-linecap:round;stroke-linejoin:round;stroke:rgb(0%,0%,0%);stroke-opacity:1;stroke-miterlimit:10;" d="M 390.761719 152.417969 L 464.6875 128.050781 " transform="matrix(1,0,0,-1,-281,193)"/>
<path style="fill:none;stroke-width:0.4;stroke-linecap:round;stroke-linejoin:round;stroke:rgb(0%,0%,0%);stroke-opacity:1;stroke-miterlimit:10;" d="M 398.605469 127.53125 L 386.652344 148.386719 " transform="matrix(1,0,0,-1,-281,193)"/>
<path style="fill:none;stroke-width:0.4;stroke-linecap:round;stroke-linejoin:round;stroke:rgb(0%,0%,0%);stroke-opacity:1;stroke-miterlimit:10;" d="M 366.789062 126.925781 L 382.472656 148.765625 " transform="matrix(1,0,0,-1,-281,193)"/>
<path style="fill:none;stroke-width:0.4;stroke-linecap:round;stroke-linejoin:round;stroke:rgb(0%,0%,0%);stroke-opacity:1;stroke-miterlimit:10;" d="M 468.328125 117.148438 L 510.378906 94.925781 " transform="matrix(1,0,0,-1,-281,193)"/>
<path style="fill:none;stroke-width:0.4;stroke-linecap:round;stroke-linejoin:round;stroke:rgb(0%,0%,0%);stroke-opacity:1;stroke-miterlimit:10;" d="M 470.761719 120.417969 L 544.6875 96.054688 " transform="matrix(1,0,0,-1,-281,193)"/>
<path style="fill:none;stroke-width:0.4;stroke-linecap:round;stroke-linejoin:round;stroke:rgb(0%,0%,0%);stroke-opacity:1;stroke-miterlimit:10;" d="M 478.605469 95.53125 L 466.652344 116.386719 " transform="matrix(1,0,0,-1,-281,193)"/>
<path style="fill:none;stroke-width:0.4;stroke-linecap:round;stroke-linejoin:round;stroke:rgb(0%,0%,0%);stroke-opacity:1;stroke-miterlimit:10;" d="M 446.789062 94.925781 L 462.476562 116.765625 " transform="matrix(1,0,0,-1,-281,193)"/>
<path style="fill:none;stroke-width:0.4;stroke-linecap:round;stroke-linejoin:round;stroke:rgb(0%,0%,0%);stroke-opacity:1;stroke-miterlimit:10;" d="M 320.292969 148.222656 L 319.792969 133.917969 " transform="matrix(1,0,0,-1,-281,193)"/>
<path style="fill:none;stroke-width:0.4;stroke-linecap:round;stroke-linejoin:round;stroke:rgb(0%,0%,0%);stroke-opacity:1;stroke-miterlimit:10;" d="M 400.292969 116.222656 L 399.792969 101.917969 " transform="matrix(1,0,0,-1,-281,193)"/>
<path style="fill:none;stroke-width:0.4;stroke-linecap:round;stroke-linejoin:round;stroke:rgb(0%,0%,0%);stroke-opacity:1;stroke-miterlimit:10;" d="M 480.292969 84.222656 L 479.792969 69.917969 " transform="matrix(1,0,0,-1,-281,193)"/>
<path style="fill:none;stroke-width:0.4;stroke-linecap:round;stroke-linejoin:round;stroke:rgb(0%,0%,0%);stroke-opacity:1;stroke-miterlimit:10;" d="M 544.292969 84.222656 L 543.792969 69.917969 " transform="matrix(1,0,0,-1,-281,193)"/>
</g>
</svg>
