<?xml version="1.0" encoding="UTF-8"?>
<svg xmlns="http://www.w3.org/2000/svg" xmlns:xlink="http://www.w3.org/1999/xlink" width="241pt" height="129pt" viewBox="0 0 241 129" version="1.1">
<defs>
<g>
<symbol overflow="visible" id="glyph0-0">
<path style="stroke:none;" d=""/>
</symbol>
<symbol overflow="visible" id="glyph0-1">
<path style="stroke:none;" d="M 10.40625 -9.96875 C 10.40625 -10.359375 10.40625 -10.90625 9.71875 -10.90625 C 9.125 -10.90625 8.96875 -10.328125 8.96875 -10.3125 C 7.984375 -10.90625 6.84375 -10.90625 6.34375 -10.90625 C 2.296875 -10.90625 1.765625 -8.84375 1.765625 -8 C 1.765625 -6.984375 2.359375 -6.296875 3.203125 -5.828125 C 3.984375 -5.375 4.703125 -5.25 6.734375 -4.9375 C 7.703125 -4.765625 9.6875 -4.4375 9.6875 -3.078125 C 9.6875 -2.15625 8.84375 -1.28125 6.546875 -1.28125 C 4.953125 -1.28125 3.921875 -1.90625 3.390625 -3.6875 C 3.265625 -4.046875 3.203125 -4.3125 2.578125 -4.3125 C 1.765625 -4.3125 1.765625 -3.84375 1.765625 -3.34375 L 1.765625 -0.796875 C 1.765625 -0.390625 1.765625 0.15625 2.453125 0.15625 C 2.75 0.15625 2.96875 0.15625 3.34375 -0.875 C 4.484375 0.078125 5.78125 0.15625 6.546875 0.15625 C 11.125 0.15625 11.125 -2.828125 11.125 -3.078125 C 11.125 -5.65625 8.046875 -6.171875 6.859375 -6.34375 C 4.6875 -6.71875 3.203125 -6.96875 3.203125 -8 C 3.203125 -8.671875 3.96875 -9.46875 6.296875 -9.46875 C 8.65625 -9.46875 8.75 -8.34375 8.796875 -7.703125 C 8.84375 -7.21875 9.296875 -7.140625 9.59375 -7.140625 C 10.40625 -7.140625 10.40625 -7.578125 10.40625 -8.078125 Z M 10.40625 -9.96875 "/>
</symbol>
<symbol overflow="visible" id="glyph0-2">
<path style="stroke:none;" d="M 10.265625 -7.03125 C 10.265625 -8.921875 8.84375 -10.90625 5.5 -10.90625 C 4.453125 -10.90625 2.0625 -10.90625 2.0625 -9.1875 C 2.0625 -8.53125 2.53125 -8.15625 3.078125 -8.15625 C 3.21875 -8.15625 4.046875 -8.203125 4.0625 -9.25 C 4.0625 -9.375 4.09375 -9.390625 4.609375 -9.4375 C 4.90625 -9.46875 5.234375 -9.46875 5.53125 -9.46875 C 6.09375 -9.46875 6.9375 -9.46875 7.75 -8.84375 C 8.65625 -8.15625 8.65625 -7.453125 8.65625 -6.734375 C 7.1875 -6.6875 5.75 -6.59375 4.21875 -6.09375 C 2.96875 -5.671875 1.390625 -4.78125 1.390625 -3.09375 C 1.390625 -1.34375 2.953125 0.15625 5.25 0.15625 C 6.046875 0.15625 7.578125 0.03125 8.875 -0.875 C 9.375 -0.046875 10.609375 0 11.546875 0 C 12.140625 0 12.734375 0 12.734375 -0.71875 C 12.734375 -1.4375 12.09375 -1.4375 11.75 -1.4375 C 11.109375 -1.4375 10.609375 -1.484375 10.265625 -1.640625 Z M 8.65625 -3.265625 C 8.65625 -2.703125 8.65625 -2.1875 7.625 -1.703125 C 6.765625 -1.28125 5.59375 -1.28125 5.53125 -1.28125 C 4.0625 -1.28125 3 -2.078125 3 -3.09375 C 3 -4.5625 5.65625 -5.40625 8.65625 -5.40625 Z M 8.65625 -3.265625 "/>
</symbol>
<symbol overflow="visible" id="glyph0-3">
<path style="stroke:none;" d="M 4.703125 -1.515625 C 4.40625 -1.515625 3.265625 -1.515625 3.265625 -2.84375 C 3.265625 -3.328125 3.34375 -3.421875 3.4375 -3.625 C 3.9375 -3.265625 4.765625 -2.953125 5.65625 -2.953125 C 7.90625 -2.953125 9.640625 -4.765625 9.640625 -6.890625 C 9.640625 -7.515625 9.484375 -8.28125 8.96875 -9.09375 C 9.609375 -9.4375 10.203125 -9.515625 10.578125 -9.546875 C 10.734375 -8.765625 11.453125 -8.75 11.46875 -8.75 C 11.765625 -8.75 12.390625 -8.953125 12.390625 -9.6875 C 12.390625 -10.15625 12.015625 -10.984375 10.625 -10.984375 C 10.1875 -10.984375 9.0625 -10.875 8.03125 -10.0625 C 7.21875 -10.625 6.375 -10.828125 5.671875 -10.828125 C 3.421875 -10.828125 1.6875 -9.015625 1.6875 -6.890625 C 1.6875 -6.34375 1.8125 -5.40625 2.5 -4.515625 C 2.03125 -3.8125 1.953125 -3.078125 1.953125 -2.78125 C 1.953125 -1.90625 2.375 -1.21875 2.578125 -0.984375 C 1.21875 -0.25 0.71875 1.09375 0.71875 2.0625 C 0.71875 4.109375 3.21875 5.671875 6.375 5.671875 C 9.515625 5.671875 12.015625 4.140625 12.015625 2.0625 C 12.015625 -1.515625 7.625 -1.515625 6.8125 -1.515625 Z M 5.65625 -4.34375 C 4.40625 -4.34375 3.296875 -5.421875 3.296875 -6.890625 C 3.296875 -8.34375 4.4375 -9.4375 5.65625 -9.4375 C 6.96875 -9.4375 8.03125 -8.296875 8.03125 -6.890625 C 8.03125 -5.484375 6.96875 -4.34375 5.65625 -4.34375 Z M 6.375 4.28125 C 3.9375 4.28125 2.125 3.203125 2.125 2.0625 C 2.125 1.6875 2.25 0.8125 3.171875 0.25 C 3.734375 -0.125 3.984375 -0.125 5.703125 -0.125 C 7.875 -0.125 10.609375 -0.125 10.609375 2.0625 C 10.609375 3.203125 8.796875 4.28125 6.375 4.28125 Z M 6.375 4.28125 "/>
</symbol>
<symbol overflow="visible" id="glyph0-4">
<path style="stroke:none;" d="M 10.3125 -4.765625 C 10.828125 -4.765625 11.296875 -4.765625 11.296875 -5.671875 C 11.296875 -8.578125 9.671875 -10.90625 6.5625 -10.90625 C 3.6875 -10.90625 1.390625 -8.421875 1.390625 -5.40625 C 1.390625 -2.28125 3.890625 0.15625 6.9375 0.15625 C 10.140625 0.15625 11.296875 -2.0625 11.296875 -2.703125 C 11.296875 -2.84375 11.25 -3.390625 10.484375 -3.390625 C 10.015625 -3.390625 9.859375 -3.21875 9.71875 -2.84375 C 9.09375 -1.40625 7.484375 -1.28125 7.015625 -1.28125 C 4.953125 -1.28125 3.328125 -2.84375 3.046875 -4.765625 Z M 3.078125 -6.125 C 3.390625 -8.234375 5 -9.46875 6.5625 -9.46875 C 9.046875 -9.46875 9.5625 -7.359375 9.671875 -6.125 Z M 3.078125 -6.125 "/>
</symbol>
<symbol overflow="visible" id="glyph1-0">
<path style="stroke:none;" d=""/>
</symbol>
<symbol overflow="visible" id="glyph1-1">
<path style="stroke:none;" d="M 6.234375 -11.71875 C 6.234375 -12.234375 5.828125 -12.640625 5.3125 -12.640625 C 4.796875 -12.640625 4.375 -12.234375 4.375 -11.71875 C 4.375 -11.203125 4.796875 -10.78125 5.3125 -10.78125 C 5.828125 -10.78125 6.234375 -11.203125 6.234375 -11.71875 Z M 2.6875 -8.90625 C 2.390625 -8.90625 1.859375 -8.90625 1.859375 -8.296875 C 1.859375 -7.703125 2.390625 -7.703125 2.6875 -7.703125 L 4.890625 -7.703125 L 4.890625 -1.203125 L 2.546875 -1.203125 C 2.25 -1.203125 1.6875 -1.203125 1.6875 -0.59375 C 1.6875 0 2.25 0 2.546875 0 L 8.28125 0 C 8.578125 0 9.109375 0 9.109375 -0.59375 C 9.109375 -1.203125 8.578125 -1.203125 8.28125 -1.203125 L 6.234375 -1.203125 L 6.234375 -8.0625 C 6.234375 -8.703125 6.109375 -8.90625 5.40625 -8.90625 Z M 2.6875 -8.90625 "/>
</symbol>
<symbol overflow="visible" id="glyph1-2">
<path style="stroke:none;" d="M 8.640625 -6.046875 C 8.640625 -8.078125 7.6875 -9.03125 5.984375 -9.03125 C 4.578125 -9.03125 3.671875 -8.234375 3.328125 -7.84375 C 3.328125 -8.609375 3.328125 -8.90625 2.5 -8.90625 L 1.140625 -8.90625 C 0.84375 -8.90625 0.3125 -8.90625 0.3125 -8.296875 C 0.3125 -7.703125 0.84375 -7.703125 1.140625 -7.703125 L 1.984375 -7.703125 L 1.984375 -1.203125 L 1.140625 -1.203125 C 0.84375 -1.203125 0.3125 -1.203125 0.3125 -0.59375 C 0.3125 0 0.84375 0 1.140625 0 L 4.171875 0 C 4.46875 0 5 0 5 -0.59375 C 5 -1.203125 4.46875 -1.203125 4.171875 -1.203125 L 3.328125 -1.203125 L 3.328125 -4.9375 C 3.328125 -6.9375 4.734375 -7.828125 5.84375 -7.828125 C 7.046875 -7.828125 7.296875 -7.140625 7.296875 -5.96875 L 7.296875 -1.203125 L 6.4375 -1.203125 C 6.15625 -1.203125 5.625 -1.203125 5.625 -0.59375 C 5.625 0 6.15625 0 6.4375 0 L 9.484375 0 C 9.765625 0 10.3125 0 10.3125 -0.59375 C 10.3125 -1.203125 9.765625 -1.203125 9.484375 -1.203125 L 8.640625 -1.203125 Z M 8.640625 -6.046875 "/>
</symbol>
<symbol overflow="visible" id="glyph1-3">
<path style="stroke:none;" d="M 8.671875 -8.296875 C 8.671875 -8.640625 8.671875 -9.09375 8.09375 -9.09375 C 7.59375 -9.09375 7.484375 -8.609375 7.484375 -8.59375 C 6.65625 -9.09375 5.703125 -9.09375 5.28125 -9.09375 C 1.921875 -9.09375 1.46875 -7.375 1.46875 -6.671875 C 1.46875 -5.828125 1.96875 -5.25 2.671875 -4.859375 C 3.328125 -4.484375 3.921875 -4.375 5.625 -4.109375 C 6.421875 -3.96875 8.078125 -3.703125 8.078125 -2.5625 C 8.078125 -1.796875 7.375 -1.078125 5.453125 -1.078125 C 4.125 -1.078125 3.265625 -1.59375 2.828125 -3.078125 C 2.734375 -3.359375 2.671875 -3.59375 2.140625 -3.59375 C 1.46875 -3.59375 1.46875 -3.203125 1.46875 -2.78125 L 1.46875 -0.65625 C 1.46875 -0.328125 1.46875 0.125 2.046875 0.125 C 2.296875 0.125 2.484375 0.125 2.78125 -0.71875 C 3.734375 0.0625 4.8125 0.125 5.453125 0.125 C 9.28125 0.125 9.28125 -2.359375 9.28125 -2.5625 C 9.28125 -4.703125 6.71875 -5.140625 5.71875 -5.28125 C 3.90625 -5.59375 2.671875 -5.796875 2.671875 -6.671875 C 2.671875 -7.234375 3.3125 -7.890625 5.25 -7.890625 C 7.203125 -7.890625 7.296875 -6.96875 7.328125 -6.421875 C 7.375 -6.015625 7.75 -5.953125 8 -5.953125 C 8.671875 -5.953125 8.671875 -6.328125 8.671875 -6.734375 Z M 8.671875 -8.296875 "/>
</symbol>
<symbol overflow="visible" id="glyph1-4">
<path style="stroke:none;" d="M 8.59375 -3.96875 C 9.03125 -3.96875 9.421875 -3.96875 9.421875 -4.734375 C 9.421875 -7.140625 8.0625 -9.09375 5.46875 -9.09375 C 3.078125 -9.09375 1.15625 -7.015625 1.15625 -4.5 C 1.15625 -1.90625 3.25 0.125 5.78125 0.125 C 8.453125 0.125 9.421875 -1.71875 9.421875 -2.25 C 9.421875 -2.375 9.375 -2.828125 8.734375 -2.828125 C 8.34375 -2.828125 8.21875 -2.6875 8.09375 -2.375 C 7.578125 -1.171875 6.234375 -1.078125 5.84375 -1.078125 C 4.125 -1.078125 2.765625 -2.375 2.546875 -3.96875 Z M 2.5625 -5.109375 C 2.828125 -6.859375 4.171875 -7.890625 5.46875 -7.890625 C 7.546875 -7.890625 7.96875 -6.140625 8.0625 -5.109375 Z M 2.5625 -5.109375 "/>
</symbol>
<symbol overflow="visible" id="glyph1-5">
<path style="stroke:none;" d="M 4.46875 -3.90625 C 4.46875 -6.359375 6.203125 -7.828125 7.953125 -7.828125 C 8.0625 -7.828125 8.1875 -7.828125 8.28125 -7.8125 C 8.34375 -7.0625 8.921875 -7 9.0625 -7 C 9.546875 -7 9.875 -7.359375 9.875 -7.8125 C 9.875 -8.703125 9 -9.03125 7.96875 -9.03125 C 6.59375 -9.03125 5.40625 -8.40625 4.46875 -7.25 L 4.46875 -8.0625 C 4.46875 -8.703125 4.34375 -8.90625 3.640625 -8.90625 L 1.546875 -8.90625 C 1.265625 -8.90625 0.71875 -8.90625 0.71875 -8.296875 C 0.71875 -7.703125 1.265625 -7.703125 1.546875 -7.703125 L 3.125 -7.703125 L 3.125 -1.203125 L 1.546875 -1.203125 C 1.265625 -1.203125 0.71875 -1.203125 0.71875 -0.59375 C 0.71875 0 1.265625 0 1.546875 0 L 6.625 0 C 6.921875 0 7.453125 0 7.453125 -0.59375 C 7.453125 -1.203125 6.921875 -1.203125 6.625 -1.203125 L 4.46875 -1.203125 Z M 4.46875 -3.90625 "/>
</symbol>
<symbol overflow="visible" id="glyph1-6">
<path style="stroke:none;" d="M 4.46875 -7.703125 L 7.8125 -7.703125 C 8.09375 -7.703125 8.640625 -7.703125 8.640625 -8.296875 C 8.640625 -8.90625 8.09375 -8.90625 7.8125 -8.90625 L 4.46875 -8.90625 L 4.46875 -10.59375 C 4.46875 -10.96875 4.46875 -11.4375 3.796875 -11.4375 C 3.125 -11.4375 3.125 -10.96875 3.125 -10.59375 L 3.125 -8.90625 L 1.359375 -8.90625 C 1.078125 -8.90625 0.515625 -8.90625 0.515625 -8.296875 C 0.515625 -7.703125 1.046875 -7.703125 1.34375 -7.703125 L 3.125 -7.703125 L 3.125 -2.5 C 3.125 -0.578125 4.4375 0.125 5.921875 0.125 C 7.046875 0.125 9.09375 -0.4375 9.09375 -2.546875 C 9.09375 -2.953125 9.09375 -3.40625 8.40625 -3.40625 C 7.75 -3.40625 7.75 -2.953125 7.75 -2.515625 C 7.71875 -1.28125 6.546875 -1.078125 6.078125 -1.078125 C 4.46875 -1.078125 4.46875 -2.109375 4.46875 -2.609375 Z M 4.46875 -7.703125 "/>
</symbol>
<symbol overflow="visible" id="glyph1-7">
<path style="stroke:none;" d="M 7.015625 -6.28125 C 8.15625 -6.9375 8.78125 -8.0625 8.78125 -9.171875 C 8.78125 -10.890625 7.265625 -12.625 4.828125 -12.625 L 1.328125 -12.625 C 1.015625 -12.625 0.5 -12.625 0.5 -12.015625 C 0.5 -11.421875 1.03125 -11.421875 1.328125 -11.421875 L 1.78125 -11.421875 L 1.78125 -1.203125 L 1.328125 -1.203125 C 1.03125 -1.203125 0.5 -1.203125 0.5 -0.59375 C 0.5 0 1.015625 0 1.328125 0 L 3.578125 0 C 3.859375 0 4.421875 0 4.421875 -0.59375 C 4.421875 -1.203125 3.859375 -1.203125 3.578125 -1.203125 L 3.125 -1.203125 L 3.125 -5.71875 L 4.75 -5.71875 C 5.125 -5.71875 5.765625 -5.71875 6.421875 -5.140625 C 6.90625 -4.703125 6.90625 -4.234375 6.90625 -3.34375 C 6.90625 -1.90625 6.90625 -1.296875 7.296875 -0.59375 C 7.625 -0.0625 8.15625 0.25 8.796875 0.25 C 10.15625 0.25 10.578125 -1.171875 10.578125 -1.921875 C 10.578125 -2.328125 10.390625 -2.609375 9.890625 -2.609375 C 9.28125 -2.609375 9.234375 -2.109375 9.234375 -1.921875 C 9.234375 -1.78125 9.171875 -0.953125 8.796875 -0.953125 C 8.234375 -0.953125 8.234375 -1.859375 8.234375 -3.03125 C 8.234375 -4.4375 8.234375 -4.5625 8.03125 -5.078125 C 7.765625 -5.6875 7.265625 -6.09375 7.015625 -6.28125 Z M 4.625 -6.921875 L 3.125 -6.921875 L 3.125 -11.421875 L 4.625 -11.421875 C 6.53125 -11.421875 7.4375 -10.1875 7.4375 -9.171875 C 7.4375 -8.15625 6.53125 -6.921875 4.625 -6.921875 Z M 4.625 -6.921875 "/>
</symbol>
<symbol overflow="visible" id="glyph1-8">
<path style="stroke:none;" d="M 3.921875 -1.265625 C 3.671875 -1.265625 2.734375 -1.265625 2.734375 -2.375 C 2.734375 -2.765625 2.78125 -2.84375 2.875 -3.015625 C 3.28125 -2.734375 3.96875 -2.453125 4.703125 -2.453125 C 6.59375 -2.453125 8.03125 -3.96875 8.03125 -5.75 C 8.03125 -6.265625 7.90625 -6.90625 7.484375 -7.578125 C 8.015625 -7.875 8.515625 -7.9375 8.8125 -7.953125 C 8.9375 -7.3125 9.546875 -7.296875 9.5625 -7.296875 C 9.8125 -7.296875 10.328125 -7.453125 10.328125 -8.078125 C 10.328125 -8.46875 10.015625 -9.15625 8.859375 -9.15625 C 8.484375 -9.15625 7.5625 -9.0625 6.6875 -8.390625 C 6.015625 -8.859375 5.3125 -9.03125 4.734375 -9.03125 C 2.84375 -9.03125 1.40625 -7.515625 1.40625 -5.75 C 1.40625 -5.28125 1.515625 -4.5 2.09375 -3.765625 C 1.6875 -3.1875 1.625 -2.5625 1.625 -2.3125 C 1.625 -1.59375 1.984375 -1.015625 2.140625 -0.828125 C 1.015625 -0.203125 0.59375 0.90625 0.59375 1.71875 C 0.59375 3.421875 2.6875 4.734375 5.3125 4.734375 C 7.9375 4.734375 10.015625 3.453125 10.015625 1.71875 C 10.015625 -1.265625 6.359375 -1.265625 5.6875 -1.265625 Z M 4.703125 -3.609375 C 3.671875 -3.609375 2.75 -4.53125 2.75 -5.75 C 2.75 -6.96875 3.703125 -7.875 4.703125 -7.875 C 5.796875 -7.875 6.6875 -6.921875 6.6875 -5.75 C 6.6875 -4.5625 5.796875 -3.609375 4.703125 -3.609375 Z M 5.3125 3.578125 C 3.28125 3.578125 1.78125 2.671875 1.78125 1.71875 C 1.78125 1.40625 1.875 0.6875 2.640625 0.203125 C 3.125 -0.109375 3.328125 -0.109375 4.75 -0.109375 C 6.5625 -0.109375 8.84375 -0.109375 8.84375 1.71875 C 8.84375 2.671875 7.328125 3.578125 5.3125 3.578125 Z M 5.3125 3.578125 "/>
</symbol>
<symbol overflow="visible" id="glyph1-9">
<path style="stroke:none;" d="M 8.640625 -6.046875 C 8.640625 -8.078125 7.6875 -9.03125 5.984375 -9.03125 C 4.578125 -9.03125 3.671875 -8.234375 3.328125 -7.84375 L 3.328125 -11.78125 C 3.328125 -12.421875 3.203125 -12.625 2.5 -12.625 L 1.140625 -12.625 C 0.84375 -12.625 0.3125 -12.625 0.3125 -12.015625 C 0.3125 -11.421875 0.84375 -11.421875 1.140625 -11.421875 L 1.984375 -11.421875 L 1.984375 -1.203125 L 1.140625 -1.203125 C 0.84375 -1.203125 0.3125 -1.203125 0.3125 -0.59375 C 0.3125 0 0.84375 0 1.140625 0 L 4.171875 0 C 4.46875 0 5 0 5 -0.59375 C 5 -1.203125 4.46875 -1.203125 4.171875 -1.203125 L 3.328125 -1.203125 L 3.328125 -4.9375 C 3.328125 -6.9375 4.734375 -7.828125 5.84375 -7.828125 C 7.046875 -7.828125 7.296875 -7.140625 7.296875 -5.96875 L 7.296875 -1.203125 L 6.4375 -1.203125 C 6.15625 -1.203125 5.625 -1.203125 5.625 -0.59375 C 5.625 0 6.15625 0 6.4375 0 L 9.484375 0 C 9.765625 0 10.3125 0 10.3125 -0.59375 C 10.3125 -1.203125 9.765625 -1.203125 9.484375 -1.203125 L 8.640625 -1.203125 Z M 8.640625 -6.046875 "/>
</symbol>
<symbol overflow="visible" id="glyph1-10">
<path style="stroke:none;" d="M 8.84375 1.171875 C 8.84375 0.90625 8.703125 0.828125 8.40625 0.625 C 5.5625 -1.34375 4.859375 -4.296875 4.859375 -6.296875 C 4.859375 -8.265625 5.515625 -11.234375 8.40625 -13.234375 C 8.703125 -13.453125 8.84375 -13.53125 8.84375 -13.796875 C 8.84375 -14 8.734375 -14.328125 8.234375 -14.328125 C 7.71875 -14.328125 6.203125 -13.140625 5.25 -11.796875 C 4.09375 -10.1875 3.515625 -8.265625 3.515625 -6.296875 C 3.515625 -4 4.34375 -2.09375 5.203125 -0.875 C 6.15625 0.453125 7.65625 1.71875 8.234375 1.71875 C 8.734375 1.71875 8.84375 1.359375 8.84375 1.171875 Z M 8.84375 1.171875 "/>
</symbol>
<symbol overflow="visible" id="glyph1-11">
<path style="stroke:none;" d="M 4.34375 -11.734375 C 4.359375 -12.203125 4.21875 -12.8125 3.515625 -12.8125 C 3.453125 -12.8125 2.625 -12.78125 2.6875 -11.78125 L 2.90625 -7.5 C 2.9375 -7.265625 2.953125 -6.734375 3.515625 -6.734375 C 4.09375 -6.734375 4.109375 -7.265625 4.125 -7.546875 Z M 7.9375 -11.75 C 8 -12.75 7.265625 -12.8125 7.109375 -12.8125 C 6.375 -12.8125 6.21875 -12.046875 6.265625 -11.953125 L 6.484375 -7.5625 C 6.5 -7.265625 6.53125 -6.734375 7.109375 -6.734375 C 7.65625 -6.734375 7.6875 -7.265625 7.703125 -7.5 Z M 7.9375 -11.75 "/>
</symbol>
<symbol overflow="visible" id="glyph1-12">
<path style="stroke:none;" d="M 7.109375 -6.296875 C 7.109375 -7.90625 6.71875 -10 5.21875 -12 C 4.53125 -12.953125 3 -14.328125 2.375 -14.328125 C 1.90625 -14.328125 1.78125 -13.984375 1.78125 -13.796875 C 1.78125 -13.546875 1.921875 -13.453125 2.296875 -13.203125 C 4.8125 -11.421875 5.765625 -8.65625 5.765625 -6.328125 C 5.765625 -4.46875 5.171875 -1.421875 2.203125 0.625 C 1.9375 0.8125 1.78125 0.90625 1.78125 1.171875 C 1.78125 1.359375 1.90625 1.71875 2.375 1.71875 C 2.890625 1.71875 4.421875 0.515625 5.375 -0.828125 C 6.5625 -2.515625 7.109375 -4.46875 7.109375 -6.296875 Z M 7.109375 -6.296875 "/>
</symbol>
</g>
</defs>
<g id="surface15931">
<path style="fill-rule:evenodd;fill:rgb(74.5%,74.5%,74.5%);fill-opacity:0.3;stroke-width:0.4;stroke-linecap:round;stroke-linejoin:round;stroke:rgb(0%,0%,0%);stroke-opacity:1;stroke-miterlimit:10;" d="M 192 512 L 192 480 L 224 480 L 224 512 Z M 192 512 " transform="matrix(1,0,0,-1,-175,545)"/>
<path style="fill:none;stroke-width:0.4;stroke-linecap:round;stroke-linejoin:round;stroke:rgb(0%,0%,0%);stroke-opacity:1;stroke-miterlimit:10;" d="M 192 512 L 192 480 L 320 480 L 320 512 Z M 192 512 " transform="matrix(1,0,0,-1,-175,545)"/>
<path style="fill:none;stroke-width:0.4;stroke-linecap:round;stroke-linejoin:round;stroke:rgb(0%,0%,0%);stroke-opacity:1;stroke-miterlimit:10;" d="M 224 512 L 224 480 " transform="matrix(1,0,0,-1,-175,545)"/>
<path style="fill:none;stroke-width:0.4;stroke-linecap:round;stroke-linejoin:round;stroke:rgb(0%,0%,0%);stroke-opacity:1;stroke-miterlimit:10;" d="M 256 512 L 256 480 " transform="matrix(1,0,0,-1,-175,545)"/>
<path style="fill:none;stroke-width:0.4;stroke-linecap:round;stroke-linejoin:round;stroke:rgb(0%,0%,0%);stroke-opacity:1;stroke-miterlimit:10;" d="M 288 512 L 288 480 " transform="matrix(1,0,0,-1,-175,545)"/>
<path style="fill:none;stroke-width:0.4;stroke-linecap:round;stroke-linejoin:round;stroke:rgb(0%,0%,0%);stroke-opacity:1;stroke-miterlimit:10;" d="M 272 448 L 272 480 " transform="matrix(1,0,0,-1,-175,545)"/>
<path style="fill-rule:evenodd;fill:rgb(0%,0%,0%);fill-opacity:1;stroke-width:0.4;stroke-linecap:round;stroke-linejoin:round;stroke:rgb(0%,0%,0%);stroke-opacity:1;stroke-miterlimit:10;" d="M 272 480 L 269.667969 473 L 274.332031 473 Z M 272 480 " transform="matrix(1,0,0,-1,-175,545)"/>
<g style="fill:rgb(0%,0%,0%);fill-opacity:1;">
  <use xlink:href="#glyph0-1" x="25.383" y="54.6302"/>
</g>
<path style="fill-rule:evenodd;fill:rgb(74.5%,74.5%,74.5%);fill-opacity:0.3;stroke-width:0.4;stroke-linecap:round;stroke-linejoin:round;stroke:rgb(0%,0%,0%);stroke-opacity:1;stroke-miterlimit:10;" d="M 224 512 L 224 480 L 256 480 L 256 512 Z M 224 512 " transform="matrix(1,0,0,-1,-175,545)"/>
<path style="fill-rule:evenodd;fill:rgb(74.5%,74.5%,74.5%);fill-opacity:0.3;stroke-width:0.4;stroke-linecap:round;stroke-linejoin:round;stroke:rgb(0%,0%,0%);stroke-opacity:1;stroke-miterlimit:10;" d="M 256 512 L 256 480 L 288 480 L 288 512 Z M 256 512 " transform="matrix(1,0,0,-1,-175,545)"/>
<path style="fill-rule:evenodd;fill:rgb(74.5%,74.5%,74.5%);fill-opacity:0.3;stroke-width:0.4;stroke-linecap:round;stroke-linejoin:round;stroke:rgb(0%,0%,0%);stroke-opacity:1;stroke-miterlimit:10;" d="M 288 512 L 288 480 L 320 480 L 320 512 Z M 288 512 " transform="matrix(1,0,0,-1,-175,545)"/>
<g style="fill:rgb(0%,0%,0%);fill-opacity:1;">
  <use xlink:href="#glyph0-2" x="57.383" y="54.6302"/>
</g>
<g style="fill:rgb(0%,0%,0%);fill-opacity:1;">
  <use xlink:href="#glyph0-3" x="89.383" y="54.6322"/>
</g>
<g style="fill:rgb(0%,0%,0%);fill-opacity:1;">
  <use xlink:href="#glyph0-4" x="121.383" y="54.6302"/>
</g>
<g style="fill:rgb(0%,0%,0%);fill-opacity:1;">
  <use xlink:href="#glyph1-1" x="49" y="112.998"/>
  <use xlink:href="#glyph1-2" x="59.620525" y="112.998"/>
  <use xlink:href="#glyph1-3" x="70.24105" y="112.998"/>
  <use xlink:href="#glyph1-4" x="80.861575" y="112.998"/>
  <use xlink:href="#glyph1-5" x="91.4821" y="112.998"/>
  <use xlink:href="#glyph1-6" x="102.102625" y="112.998"/>
  <use xlink:href="#glyph1-7" x="112.72315" y="112.998"/>
  <use xlink:href="#glyph1-1" x="123.343675" y="112.998"/>
  <use xlink:href="#glyph1-8" x="133.9642" y="112.998"/>
  <use xlink:href="#glyph1-9" x="144.584725" y="112.998"/>
  <use xlink:href="#glyph1-6" x="155.20525" y="112.998"/>
  <use xlink:href="#glyph1-10" x="165.825775" y="112.998"/>
  <use xlink:href="#glyph1-11" x="176.4463" y="112.998"/>
  <use xlink:href="#glyph1-6" x="187.066825" y="112.998"/>
  <use xlink:href="#glyph1-11" x="197.68735" y="112.998"/>
  <use xlink:href="#glyph1-12" x="208.307875" y="112.998"/>
</g>
<path style="fill:none;stroke-width:0.4;stroke-linecap:round;stroke-linejoin:round;stroke:rgb(82.7%,82.7%,82.7%);stroke-opacity:1;stroke-miterlimit:10;" d="M 176 544 L 176 416 L 416 416 L 416 544 Z M 176 544 " transform="matrix(1,0,0,-1,-175,545)"/>
<path style="fill:none;stroke-width:0.4;stroke-linecap:round;stroke-linejoin:round;stroke:rgb(82.7%,82.7%,82.7%);stroke-opacity:1;stroke-miterlimit:10;" d="M 176 544 L 176 416 L 416 416 L 416 544 Z M 176 544 " transform="matrix(1,0,0,-1,-175,545)"/>
</g>
</svg>
