<?xml version="1.0" encoding="UTF-8"?>
<svg xmlns="http://www.w3.org/2000/svg" xmlns:xlink="http://www.w3.org/1999/xlink" width="130pt" height="160pt" viewBox="0 0 130 160" version="1.1">
<defs>
<g>
<symbol overflow="visible" id="glyph0-0">
<path style="stroke:none;" d=""/>
</symbol>
<symbol overflow="visible" id="glyph0-1">
<path style="stroke:none;" d="M 4.25 -2.71875 C 5.6875 -4.34375 6.859375 -5.390625 8.53125 -6.890625 C 10.546875 -8.640625 11.40625 -9.46875 11.875 -9.96875 C 14.21875 -12.28125 15.390625 -14.21875 15.390625 -14.484375 C 15.390625 -14.765625 15.125 -14.765625 15.0625 -14.765625 C 14.828125 -14.765625 14.765625 -14.625 14.59375 -14.390625 C 13.75 -12.953125 12.953125 -12.25 12.078125 -12.25 C 11.375 -12.25 11.015625 -12.546875 10.375 -13.359375 C 9.671875 -14.1875 9.109375 -14.765625 8.140625 -14.765625 C 5.6875 -14.765625 4.21875 -11.71875 4.21875 -11.015625 C 4.21875 -10.90625 4.25 -10.703125 4.546875 -10.703125 C 4.8125 -10.703125 4.859375 -10.84375 4.953125 -11.078125 C 5.515625 -12.421875 7.125 -12.65625 7.765625 -12.65625 C 8.46875 -12.65625 9.140625 -12.421875 9.84375 -12.109375 C 11.109375 -11.578125 11.640625 -11.578125 11.984375 -11.578125 C 12.21875 -11.578125 12.34375 -11.578125 12.515625 -11.609375 C 11.40625 -10.3125 9.609375 -8.703125 8.09375 -7.328125 L 4.71875 -4.21875 C 2.671875 -2.140625 1.4375 -0.171875 1.4375 0.0625 C 1.4375 0.265625 1.609375 0.328125 1.8125 0.328125 C 2.015625 0.328125 2.046875 0.296875 2.28125 -0.09375 C 2.8125 -0.9375 3.875 -2.171875 5.125 -2.171875 C 5.828125 -2.171875 6.15625 -1.9375 6.828125 -1.109375 C 7.46875 -0.375 8.03125 0.328125 9.109375 0.328125 C 12.390625 0.328125 14.25 -3.921875 14.25 -4.6875 C 14.25 -4.8125 14.21875 -5.015625 13.890625 -5.015625 C 13.625 -5.015625 13.59375 -4.890625 13.484375 -4.546875 C 12.75 -2.578125 10.78125 -1.78125 9.46875 -1.78125 C 8.765625 -1.78125 8.09375 -2.015625 7.390625 -2.3125 C 6.0625 -2.84375 5.6875 -2.84375 5.25 -2.84375 C 4.921875 -2.84375 4.546875 -2.84375 4.25 -2.71875 Z M 4.25 -2.71875 "/>
</symbol>
<symbol overflow="visible" id="glyph0-2">
<path style="stroke:none;" d="M 5.984375 -7.765625 C 6.890625 -7.765625 9.171875 -7.828125 10.78125 -8.4375 C 13.328125 -9.40625 13.5625 -11.34375 13.5625 -11.953125 C 13.5625 -13.421875 12.28125 -14.765625 10.078125 -14.765625 C 6.5625 -14.765625 1.5 -11.578125 1.5 -5.625 C 1.5 -2.109375 3.515625 0.328125 6.5625 0.328125 C 11.109375 0.328125 13.984375 -3.21875 13.984375 -3.640625 C 13.984375 -3.84375 13.796875 -4.015625 13.65625 -4.015625 C 13.5625 -4.015625 13.515625 -3.984375 13.21875 -3.6875 C 11.078125 -0.84375 7.90625 -0.328125 6.625 -0.328125 C 4.71875 -0.328125 3.71875 -1.84375 3.71875 -4.3125 C 3.71875 -4.78125 3.71875 -5.625 4.21875 -7.765625 Z M 4.390625 -8.4375 C 5.828125 -13.59375 9 -14.09375 10.078125 -14.09375 C 11.546875 -14.09375 12.546875 -13.21875 12.546875 -11.953125 C 12.546875 -8.4375 7.203125 -8.4375 5.796875 -8.4375 Z M 4.390625 -8.4375 "/>
</symbol>
<symbol overflow="visible" id="glyph0-3">
<path style="stroke:none;" d="M 10.078125 -3.984375 C 9.90625 -3.40625 9.90625 -3.34375 9.4375 -2.71875 C 8.703125 -1.78125 7.234375 -0.328125 5.65625 -0.328125 C 4.28125 -0.328125 3.515625 -1.578125 3.515625 -3.546875 C 3.515625 -5.390625 4.546875 -9.140625 5.1875 -10.546875 C 6.328125 -12.890625 7.90625 -14.09375 9.203125 -14.09375 C 11.40625 -14.09375 11.84375 -11.34375 11.84375 -11.078125 C 11.84375 -11.046875 11.75 -10.609375 11.71875 -10.546875 Z M 12.21875 -12.546875 C 11.84375 -13.421875 10.9375 -14.765625 9.203125 -14.765625 C 5.421875 -14.765625 1.34375 -9.875 1.34375 -4.921875 C 1.34375 -1.609375 3.28125 0.328125 5.5625 0.328125 C 7.390625 0.328125 8.96875 -1.109375 9.90625 -2.203125 C 10.234375 -0.234375 11.8125 0.328125 12.8125 0.328125 C 13.828125 0.328125 14.625 -0.265625 15.234375 -1.46875 C 15.765625 -2.609375 16.234375 -4.65625 16.234375 -4.78125 C 16.234375 -4.953125 16.09375 -5.09375 15.890625 -5.09375 C 15.59375 -5.09375 15.5625 -4.921875 15.421875 -4.421875 C 14.921875 -2.4375 14.296875 -0.328125 12.921875 -0.328125 C 11.953125 -0.328125 11.875 -1.203125 11.875 -1.875 C 11.875 -2.640625 11.984375 -3.015625 12.28125 -4.3125 C 12.515625 -5.15625 12.6875 -5.890625 12.953125 -6.859375 C 14.1875 -11.875 14.484375 -13.09375 14.484375 -13.28125 C 14.484375 -13.75 14.125 -14.125 13.625 -14.125 C 12.546875 -14.125 12.28125 -12.953125 12.21875 -12.546875 Z M 12.21875 -12.546875 "/>
</symbol>
</g>
</defs>
<g id="surface23165">
<path style="fill:none;stroke-width:1.2;stroke-linecap:round;stroke-linejoin:round;stroke:rgb(0%,0%,0%);stroke-opacity:1;stroke-miterlimit:10;" d="M 252.605469 367.640625 L 234.40625 346.148438 " transform="matrix(1,0,0,-1,-191,399)"/>
<path style="fill:none;stroke-width:1.2;stroke-linecap:round;stroke-linejoin:round;stroke:rgb(0%,0%,0%);stroke-opacity:1;stroke-miterlimit:10;" d="M 281.878906 380.222656 C 281.878906 389.800781 274.117188 397.566406 264.539062 397.566406 C 254.960938 397.566406 247.195312 389.800781 247.195312 380.222656 C 247.195312 370.644531 254.960938 362.882812 264.539062 362.882812 C 274.117188 362.882812 281.878906 370.644531 281.878906 380.222656 Z M 281.878906 380.222656 " transform="matrix(1,0,0,-1,-191,399)"/>
<path style="fill:none;stroke-width:1.2;stroke-linecap:round;stroke-linejoin:round;stroke:rgb(0%,0%,0%);stroke-opacity:1;stroke-miterlimit:10;" d="M 242.074219 331.753906 C 242.074219 341.332031 234.3125 349.09375 224.734375 349.09375 C 215.15625 349.09375 207.394531 341.332031 207.394531 331.753906 C 207.394531 322.175781 215.15625 314.410156 224.734375 314.410156 C 234.3125 314.410156 242.074219 322.175781 242.074219 331.753906 Z M 242.074219 331.753906 " transform="matrix(1,0,0,-1,-191,399)"/>
<path style="fill:none;stroke-width:1.2;stroke-linecap:round;stroke-linejoin:round;stroke:rgb(0%,0%,0%);stroke-opacity:1;stroke-miterlimit:10;" d="M 239.261719 322.285156 L 284.117188 301.648438 " transform="matrix(1,0,0,-1,-191,399)"/>
<path style="fill:none;stroke-width:1.2;stroke-linecap:round;stroke-linejoin:round;stroke:rgb(0%,0%,0%);stroke-opacity:1;stroke-miterlimit:10;" d="M 314.164062 289.839844 C 314.164062 299.417969 306.398438 307.183594 296.820312 307.183594 C 287.242188 307.183594 279.480469 299.417969 279.480469 289.839844 C 279.480469 280.265625 287.242188 272.5 296.820312 272.5 C 306.398438 272.5 314.164062 280.265625 314.164062 289.839844 Z M 314.164062 289.839844 " transform="matrix(1,0,0,-1,-191,399)"/>
<path style="fill:none;stroke-width:1.2;stroke-linecap:round;stroke-linejoin:round;stroke:rgb(0%,0%,0%);stroke-opacity:1;stroke-miterlimit:10;" d="M 272 256 L 272 240 L 288 240 L 288 256 Z M 272 256 " transform="matrix(1,0,0,-1,-191,399)"/>
<path style="fill:none;stroke-width:1.2;stroke-linecap:round;stroke-linejoin:round;stroke:rgb(0%,0%,0%);stroke-opacity:1;stroke-miterlimit:10;" d="M 304 256 L 304 240 L 320 240 L 320 256 Z M 304 256 " transform="matrix(1,0,0,-1,-191,399)"/>
<path style="fill:none;stroke-width:1.2;stroke-linecap:round;stroke-linejoin:round;stroke:rgb(0%,0%,0%);stroke-opacity:1;stroke-miterlimit:10;" d="M 192 288 L 192 272 L 208 272 L 208 288 Z M 192 288 " transform="matrix(1,0,0,-1,-191,399)"/>
<path style="fill:none;stroke-width:1.2;stroke-linecap:round;stroke-linejoin:round;stroke:rgb(0%,0%,0%);stroke-opacity:1;stroke-miterlimit:10;" d="M 288 336 L 288 320 L 304 320 L 304 336 Z M 288 336 " transform="matrix(1,0,0,-1,-191,399)"/>
<path style="fill:none;stroke-width:1.2;stroke-linecap:round;stroke-linejoin:round;stroke:rgb(0%,0%,0%);stroke-opacity:1;stroke-miterlimit:10;" d="M 295.167969 336 L 274.238281 365.847656 " transform="matrix(1,0,0,-1,-191,399)"/>
<path style="fill:none;stroke-width:1.2;stroke-linecap:round;stroke-linejoin:round;stroke:rgb(0%,0%,0%);stroke-opacity:1;stroke-miterlimit:10;" d="M 216.785156 316.339844 L 199.269531 288 " transform="matrix(1,0,0,-1,-191,399)"/>
<path style="fill:none;stroke-width:1.2;stroke-linecap:round;stroke-linejoin:round;stroke:rgb(0%,0%,0%);stroke-opacity:1;stroke-miterlimit:10;" d="M 290.8125 273.574219 L 279.421875 256 " transform="matrix(1,0,0,-1,-191,399)"/>
<path style="fill:none;stroke-width:1.2;stroke-linecap:round;stroke-linejoin:round;stroke:rgb(0%,0%,0%);stroke-opacity:1;stroke-miterlimit:10;" d="M 304.320312 274.207031 L 312.988281 256 " transform="matrix(1,0,0,-1,-191,399)"/>
<g style="fill:rgb(0%,0%,0%);fill-opacity:1;">
  <use xlink:href="#glyph0-1" x="63.967" y="26.9755"/>
</g>
<g style="fill:rgb(0%,0%,0%);fill-opacity:1;">
  <use xlink:href="#glyph0-2" x="24.078" y="75.504"/>
</g>
<g style="fill:rgb(0%,0%,0%);fill-opacity:1;">
  <use xlink:href="#glyph0-3" x="98.4017" y="116.723"/>
</g>
</g>
</svg>
