<?xml version="1.0" encoding="UTF-8"?>
<svg xmlns="http://www.w3.org/2000/svg" xmlns:xlink="http://www.w3.org/1999/xlink" width="393pt" height="226pt" viewBox="0 0 393 226" version="1.1">
<defs>
<g>
<symbol overflow="visible" id="glyph0-0">
<path style="stroke:none;" d=""/>
</symbol>
<symbol overflow="visible" id="glyph0-1">
<path style="stroke:none;" d="M 2.921875 -1.90625 C 2.328125 -0.890625 1.734375 -0.546875 0.90625 -0.5 C 0.71875 -0.484375 0.578125 -0.484375 0.578125 -0.171875 C 0.578125 -0.0625 0.671875 0 0.796875 0 C 1.109375 0 1.875 -0.03125 2.1875 -0.03125 C 2.6875 -0.03125 3.234375 0 3.71875 0 C 3.828125 0 4.03125 0 4.03125 -0.328125 C 4.03125 -0.484375 3.890625 -0.5 3.78125 -0.5 C 3.390625 -0.53125 3.0625 -0.671875 3.0625 -1.078125 C 3.0625 -1.328125 3.171875 -1.515625 3.390625 -1.890625 L 4.703125 -4.0625 L 9.09375 -4.0625 C 9.109375 -3.90625 9.109375 -3.765625 9.125 -3.609375 C 9.171875 -3.171875 9.390625 -1.375 9.390625 -1.046875 C 9.390625 -0.53125 8.5 -0.5 8.234375 -0.5 C 8.046875 -0.5 7.859375 -0.5 7.859375 -0.1875 C 7.859375 0 8 0 8.109375 0 C 8.40625 0 8.75 -0.03125 9.046875 -0.03125 L 10.015625 -0.03125 C 11.078125 -0.03125 11.828125 0 11.84375 0 C 11.96875 0 12.15625 0 12.15625 -0.328125 C 12.15625 -0.5 12 -0.5 11.75 -0.5 C 10.796875 -0.5 10.78125 -0.65625 10.734375 -1.171875 L 9.671875 -11.921875 C 9.640625 -12.265625 9.578125 -12.296875 9.390625 -12.296875 C 9.21875 -12.296875 9.109375 -12.265625 8.953125 -12 Z M 5 -4.5625 L 8.453125 -10.34375 L 9.046875 -4.5625 Z M 5 -4.5625 "/>
</symbol>
<symbol overflow="visible" id="glyph0-2">
<path style="stroke:none;" d="M 10.9375 -11.96875 C 10.9375 -12.125 10.8125 -12.125 10.78125 -12.125 C 10.703125 -12.125 10.6875 -12.109375 10.484375 -11.84375 C 10.390625 -11.71875 9.671875 -10.828125 9.65625 -10.8125 C 9.09375 -11.9375 7.953125 -12.125 7.234375 -12.125 C 5.046875 -12.125 3.0625 -10.125 3.0625 -8.171875 C 3.0625 -6.890625 3.84375 -6.125 4.6875 -5.84375 C 4.875 -5.765625 5.890625 -5.5 6.40625 -5.375 C 7.28125 -5.125 7.5 -5.0625 7.875 -4.6875 C 7.9375 -4.59375 8.28125 -4.203125 8.28125 -3.390625 C 8.28125 -1.796875 6.796875 -0.140625 5.078125 -0.140625 C 3.671875 -0.140625 2.09375 -0.734375 2.09375 -2.671875 C 2.09375 -3 2.171875 -3.40625 2.21875 -3.578125 C 2.21875 -3.640625 2.234375 -3.71875 2.234375 -3.75 C 2.234375 -3.828125 2.203125 -3.90625 2.0625 -3.90625 C 1.90625 -3.90625 1.890625 -3.875 1.828125 -3.578125 L 0.953125 -0.046875 C 0.953125 -0.03125 0.875 0.1875 0.875 0.203125 C 0.875 0.359375 1.015625 0.359375 1.046875 0.359375 C 1.125 0.359375 1.140625 0.34375 1.34375 0.09375 L 2.140625 -0.953125 C 2.546875 -0.328125 3.4375 0.359375 5.046875 0.359375 C 7.265625 0.359375 9.296875 -1.796875 9.296875 -3.9375 C 9.296875 -4.671875 9.125 -5.296875 8.46875 -5.9375 C 8.109375 -6.296875 7.796875 -6.390625 6.21875 -6.796875 C 5.0625 -7.109375 4.90625 -7.15625 4.59375 -7.4375 C 4.3125 -7.734375 4.078125 -8.140625 4.078125 -8.734375 C 4.078125 -10.171875 5.546875 -11.65625 7.1875 -11.65625 C 8.875 -11.65625 9.65625 -10.625 9.65625 -8.984375 C 9.65625 -8.546875 9.578125 -8.078125 9.578125 -8 C 9.578125 -7.859375 9.71875 -7.859375 9.765625 -7.859375 C 9.921875 -7.859375 9.9375 -7.90625 10 -8.171875 Z M 10.9375 -11.96875 "/>
</symbol>
<symbol overflow="visible" id="glyph1-0">
<path style="stroke:none;" d=""/>
</symbol>
<symbol overflow="visible" id="glyph1-1">
<path style="stroke:none;" d="M 3.4375 -7.65625 C 3.4375 -7.9375 3.4375 -7.953125 3.203125 -7.953125 C 2.921875 -7.625 2.3125 -7.1875 1.09375 -7.1875 L 1.09375 -6.84375 C 1.359375 -6.84375 1.953125 -6.84375 2.625 -7.140625 L 2.625 -0.921875 C 2.625 -0.484375 2.578125 -0.34375 1.53125 -0.34375 L 1.15625 -0.34375 L 1.15625 0 C 1.484375 -0.03125 2.640625 -0.03125 3.03125 -0.03125 C 3.4375 -0.03125 4.578125 -0.03125 4.90625 0 L 4.90625 -0.34375 L 4.53125 -0.34375 C 3.484375 -0.34375 3.4375 -0.484375 3.4375 -0.921875 Z M 3.4375 -7.65625 "/>
</symbol>
<symbol overflow="visible" id="glyph1-2">
<path style="stroke:none;" d="M 5.265625 -2.015625 L 5 -2.015625 C 4.953125 -1.8125 4.859375 -1.140625 4.75 -0.953125 C 4.65625 -0.84375 3.984375 -0.84375 3.625 -0.84375 L 1.40625 -0.84375 C 1.734375 -1.125 2.46875 -1.890625 2.765625 -2.171875 C 4.59375 -3.84375 5.265625 -4.46875 5.265625 -5.65625 C 5.265625 -7.03125 4.171875 -7.953125 2.78125 -7.953125 C 1.40625 -7.953125 0.578125 -6.765625 0.578125 -5.734375 C 0.578125 -5.125 1.109375 -5.125 1.140625 -5.125 C 1.40625 -5.125 1.703125 -5.3125 1.703125 -5.6875 C 1.703125 -6.03125 1.484375 -6.25 1.140625 -6.25 C 1.046875 -6.25 1.015625 -6.25 0.984375 -6.234375 C 1.203125 -7.046875 1.859375 -7.609375 2.625 -7.609375 C 3.640625 -7.609375 4.265625 -6.75 4.265625 -5.65625 C 4.265625 -4.640625 3.6875 -3.75 3 -2.984375 L 0.578125 -0.28125 L 0.578125 0 L 4.953125 0 Z M 5.265625 -2.015625 "/>
</symbol>
<symbol overflow="visible" id="glyph1-3">
<path style="stroke:none;" d="M 2.203125 -4.296875 C 2 -4.28125 1.953125 -4.265625 1.953125 -4.15625 C 1.953125 -4.046875 2.015625 -4.046875 2.21875 -4.046875 L 2.765625 -4.046875 C 3.796875 -4.046875 4.25 -3.203125 4.25 -2.0625 C 4.25 -0.484375 3.4375 -0.078125 2.84375 -0.078125 C 2.265625 -0.078125 1.296875 -0.34375 0.9375 -1.140625 C 1.328125 -1.078125 1.671875 -1.296875 1.671875 -1.71875 C 1.671875 -2.0625 1.421875 -2.3125 1.09375 -2.3125 C 0.796875 -2.3125 0.484375 -2.140625 0.484375 -1.6875 C 0.484375 -0.625 1.546875 0.25 2.875 0.25 C 4.296875 0.25 5.359375 -0.84375 5.359375 -2.046875 C 5.359375 -3.140625 4.46875 -4 3.328125 -4.203125 C 4.359375 -4.5 5.03125 -5.375 5.03125 -6.3125 C 5.03125 -7.25 4.046875 -7.953125 2.890625 -7.953125 C 1.703125 -7.953125 0.8125 -7.21875 0.8125 -6.34375 C 0.8125 -5.875 1.1875 -5.765625 1.359375 -5.765625 C 1.609375 -5.765625 1.90625 -5.953125 1.90625 -6.3125 C 1.90625 -6.6875 1.609375 -6.859375 1.34375 -6.859375 C 1.28125 -6.859375 1.25 -6.859375 1.21875 -6.84375 C 1.671875 -7.65625 2.796875 -7.65625 2.859375 -7.65625 C 3.25 -7.65625 4.03125 -7.484375 4.03125 -6.3125 C 4.03125 -6.078125 4 -5.421875 3.640625 -4.90625 C 3.28125 -4.375 2.875 -4.34375 2.5625 -4.328125 Z M 2.203125 -4.296875 "/>
</symbol>
<symbol overflow="visible" id="glyph2-0">
<path style="stroke:none;" d=""/>
</symbol>
<symbol overflow="visible" id="glyph2-1">
<path style="stroke:none;" d="M 3.359375 -8 C 3.375 -8.046875 3.390625 -8.109375 3.390625 -8.171875 C 3.390625 -8.296875 3.28125 -8.296875 3.25 -8.296875 C 3.234375 -8.296875 2.8125 -8.265625 2.59375 -8.234375 C 2.390625 -8.21875 2.21875 -8.203125 2 -8.1875 C 1.703125 -8.15625 1.625 -8.15625 1.625 -7.9375 C 1.625 -7.8125 1.75 -7.8125 1.859375 -7.8125 C 2.46875 -7.8125 2.46875 -7.703125 2.46875 -7.59375 C 2.46875 -7.546875 2.46875 -7.515625 2.421875 -7.296875 L 0.703125 -0.46875 C 0.65625 -0.28125 0.65625 -0.265625 0.65625 -0.1875 C 0.65625 0.078125 0.859375 0.125 0.984375 0.125 C 1.3125 0.125 1.390625 -0.140625 1.484375 -0.515625 L 2.046875 -2.75 C 2.90625 -2.65625 3.421875 -2.296875 3.421875 -1.71875 C 3.421875 -1.65625 3.421875 -1.609375 3.375 -1.421875 C 3.328125 -1.25 3.328125 -1.09375 3.328125 -1.046875 C 3.328125 -0.34375 3.796875 0.125 4.40625 0.125 C 4.953125 0.125 5.234375 -0.375 5.328125 -0.546875 C 5.578125 -0.984375 5.734375 -1.65625 5.734375 -1.703125 C 5.734375 -1.765625 5.6875 -1.8125 5.625 -1.8125 C 5.515625 -1.8125 5.5 -1.765625 5.453125 -1.578125 C 5.28125 -0.953125 5.03125 -0.125 4.421875 -0.125 C 4.1875 -0.125 4.03125 -0.234375 4.03125 -0.6875 C 4.03125 -0.921875 4.078125 -1.1875 4.125 -1.359375 C 4.171875 -1.578125 4.171875 -1.59375 4.171875 -1.734375 C 4.171875 -2.4375 3.53125 -2.828125 2.4375 -2.96875 C 2.875 -3.234375 3.296875 -3.703125 3.46875 -3.890625 C 4.140625 -4.65625 4.609375 -5.03125 5.15625 -5.03125 C 5.4375 -5.03125 5.515625 -4.953125 5.59375 -4.890625 C 5.15625 -4.84375 4.984375 -4.53125 4.984375 -4.296875 C 4.984375 -4 5.21875 -3.90625 5.375 -3.90625 C 5.703125 -3.90625 5.984375 -4.1875 5.984375 -4.5625 C 5.984375 -4.90625 5.71875 -5.265625 5.171875 -5.265625 C 4.515625 -5.265625 3.984375 -4.8125 3.125 -3.84375 C 3.015625 -3.703125 2.5625 -3.25 2.125 -3.078125 Z M 3.359375 -8 "/>
</symbol>
<symbol overflow="visible" id="glyph3-0">
<path style="stroke:none;" d=""/>
</symbol>
<symbol overflow="visible" id="glyph3-1">
<path style="stroke:none;" d="M 5.265625 -2.015625 L 5 -2.015625 C 4.953125 -1.8125 4.859375 -1.140625 4.75 -0.953125 C 4.65625 -0.84375 3.984375 -0.84375 3.625 -0.84375 L 1.40625 -0.84375 C 1.734375 -1.125 2.46875 -1.890625 2.765625 -2.171875 C 4.59375 -3.84375 5.265625 -4.46875 5.265625 -5.65625 C 5.265625 -7.03125 4.171875 -7.953125 2.78125 -7.953125 C 1.40625 -7.953125 0.578125 -6.765625 0.578125 -5.734375 C 0.578125 -5.125 1.109375 -5.125 1.140625 -5.125 C 1.40625 -5.125 1.703125 -5.3125 1.703125 -5.6875 C 1.703125 -6.03125 1.484375 -6.25 1.140625 -6.25 C 1.046875 -6.25 1.015625 -6.25 0.984375 -6.234375 C 1.203125 -7.046875 1.859375 -7.609375 2.625 -7.609375 C 3.640625 -7.609375 4.265625 -6.75 4.265625 -5.65625 C 4.265625 -4.640625 3.6875 -3.75 3 -2.984375 L 0.578125 -0.28125 L 0.578125 0 L 4.953125 0 Z M 5.265625 -2.015625 "/>
</symbol>
<symbol overflow="visible" id="glyph3-2">
<path style="stroke:none;" d="M 3.4375 -7.65625 C 3.4375 -7.9375 3.4375 -7.953125 3.203125 -7.953125 C 2.921875 -7.625 2.3125 -7.1875 1.09375 -7.1875 L 1.09375 -6.84375 C 1.359375 -6.84375 1.953125 -6.84375 2.625 -7.140625 L 2.625 -0.921875 C 2.625 -0.484375 2.578125 -0.34375 1.53125 -0.34375 L 1.15625 -0.34375 L 1.15625 0 C 1.484375 -0.03125 2.640625 -0.03125 3.03125 -0.03125 C 3.4375 -0.03125 4.578125 -0.03125 4.90625 0 L 4.90625 -0.34375 L 4.53125 -0.34375 C 3.484375 -0.34375 3.4375 -0.484375 3.4375 -0.921875 Z M 3.4375 -7.65625 "/>
</symbol>
<symbol overflow="visible" id="glyph4-0">
<path style="stroke:none;" d=""/>
</symbol>
<symbol overflow="visible" id="glyph4-1">
<path style="stroke:none;" d="M 2.328125 0.046875 C 2.328125 -0.640625 2.109375 -1.15625 1.609375 -1.15625 C 1.234375 -1.15625 1.046875 -0.84375 1.046875 -0.578125 C 1.046875 -0.328125 1.21875 0 1.625 0 C 1.78125 0 1.90625 -0.046875 2.015625 -0.15625 C 2.046875 -0.171875 2.0625 -0.171875 2.0625 -0.171875 C 2.09375 -0.171875 2.09375 -0.015625 2.09375 0.046875 C 2.09375 0.4375 2.015625 1.21875 1.328125 2 C 1.1875 2.140625 1.1875 2.15625 1.1875 2.1875 C 1.1875 2.25 1.25 2.3125 1.3125 2.3125 C 1.40625 2.3125 2.328125 1.421875 2.328125 0.046875 Z M 2.328125 0.046875 "/>
</symbol>
<symbol overflow="visible" id="glyph5-0">
<path style="stroke:none;" d=""/>
</symbol>
<symbol overflow="visible" id="glyph5-1">
<path style="stroke:none;" d="M 2.203125 -4.296875 C 2 -4.28125 1.953125 -4.265625 1.953125 -4.15625 C 1.953125 -4.046875 2.015625 -4.046875 2.21875 -4.046875 L 2.765625 -4.046875 C 3.796875 -4.046875 4.25 -3.203125 4.25 -2.0625 C 4.25 -0.484375 3.4375 -0.078125 2.84375 -0.078125 C 2.265625 -0.078125 1.296875 -0.34375 0.9375 -1.140625 C 1.328125 -1.078125 1.671875 -1.296875 1.671875 -1.71875 C 1.671875 -2.0625 1.421875 -2.3125 1.09375 -2.3125 C 0.796875 -2.3125 0.484375 -2.140625 0.484375 -1.6875 C 0.484375 -0.625 1.546875 0.25 2.875 0.25 C 4.296875 0.25 5.359375 -0.84375 5.359375 -2.046875 C 5.359375 -3.140625 4.46875 -4 3.328125 -4.203125 C 4.359375 -4.5 5.03125 -5.375 5.03125 -6.3125 C 5.03125 -7.25 4.046875 -7.953125 2.890625 -7.953125 C 1.703125 -7.953125 0.8125 -7.21875 0.8125 -6.34375 C 0.8125 -5.875 1.1875 -5.765625 1.359375 -5.765625 C 1.609375 -5.765625 1.90625 -5.953125 1.90625 -6.3125 C 1.90625 -6.6875 1.609375 -6.859375 1.34375 -6.859375 C 1.28125 -6.859375 1.25 -6.859375 1.21875 -6.84375 C 1.671875 -7.65625 2.796875 -7.65625 2.859375 -7.65625 C 3.25 -7.65625 4.03125 -7.484375 4.03125 -6.3125 C 4.03125 -6.078125 4 -5.421875 3.640625 -4.90625 C 3.28125 -4.375 2.875 -4.34375 2.5625 -4.328125 Z M 2.203125 -4.296875 "/>
</symbol>
<symbol overflow="visible" id="glyph5-2">
<path style="stroke:none;" d="M 5.265625 -2.015625 L 5 -2.015625 C 4.953125 -1.8125 4.859375 -1.140625 4.75 -0.953125 C 4.65625 -0.84375 3.984375 -0.84375 3.625 -0.84375 L 1.40625 -0.84375 C 1.734375 -1.125 2.46875 -1.890625 2.765625 -2.171875 C 4.59375 -3.84375 5.265625 -4.46875 5.265625 -5.65625 C 5.265625 -7.03125 4.171875 -7.953125 2.78125 -7.953125 C 1.40625 -7.953125 0.578125 -6.765625 0.578125 -5.734375 C 0.578125 -5.125 1.109375 -5.125 1.140625 -5.125 C 1.40625 -5.125 1.703125 -5.3125 1.703125 -5.6875 C 1.703125 -6.03125 1.484375 -6.25 1.140625 -6.25 C 1.046875 -6.25 1.015625 -6.25 0.984375 -6.234375 C 1.203125 -7.046875 1.859375 -7.609375 2.625 -7.609375 C 3.640625 -7.609375 4.265625 -6.75 4.265625 -5.65625 C 4.265625 -4.640625 3.6875 -3.75 3 -2.984375 L 0.578125 -0.28125 L 0.578125 0 L 4.953125 0 Z M 5.265625 -2.015625 "/>
</symbol>
<symbol overflow="visible" id="glyph6-0">
<path style="stroke:none;" d=""/>
</symbol>
<symbol overflow="visible" id="glyph6-1">
<path style="stroke:none;" d="M 2.328125 0.046875 C 2.328125 -0.640625 2.109375 -1.15625 1.609375 -1.15625 C 1.234375 -1.15625 1.046875 -0.84375 1.046875 -0.578125 C 1.046875 -0.328125 1.21875 0 1.625 0 C 1.78125 0 1.90625 -0.046875 2.015625 -0.15625 C 2.046875 -0.171875 2.0625 -0.171875 2.0625 -0.171875 C 2.09375 -0.171875 2.09375 -0.015625 2.09375 0.046875 C 2.09375 0.4375 2.015625 1.21875 1.328125 2 C 1.1875 2.140625 1.1875 2.15625 1.1875 2.1875 C 1.1875 2.25 1.25 2.3125 1.3125 2.3125 C 1.40625 2.3125 2.328125 1.421875 2.328125 0.046875 Z M 2.328125 0.046875 "/>
</symbol>
<symbol overflow="visible" id="glyph6-2">
<path style="stroke:none;" d="M 2.203125 -0.578125 C 2.203125 -0.921875 1.90625 -1.15625 1.625 -1.15625 C 1.28125 -1.15625 1.046875 -0.875 1.046875 -0.578125 C 1.046875 -0.234375 1.328125 0 1.609375 0 C 1.953125 0 2.203125 -0.28125 2.203125 -0.578125 Z M 2.203125 -0.578125 "/>
</symbol>
<symbol overflow="visible" id="glyph6-3">
<path style="stroke:none;" d="M 3.359375 -8 C 3.375 -8.046875 3.390625 -8.109375 3.390625 -8.171875 C 3.390625 -8.296875 3.28125 -8.296875 3.25 -8.296875 C 3.234375 -8.296875 2.8125 -8.265625 2.59375 -8.234375 C 2.390625 -8.21875 2.21875 -8.203125 2 -8.1875 C 1.703125 -8.15625 1.625 -8.15625 1.625 -7.9375 C 1.625 -7.8125 1.75 -7.8125 1.859375 -7.8125 C 2.46875 -7.8125 2.46875 -7.703125 2.46875 -7.59375 C 2.46875 -7.546875 2.46875 -7.515625 2.421875 -7.296875 L 0.703125 -0.46875 C 0.65625 -0.28125 0.65625 -0.265625 0.65625 -0.1875 C 0.65625 0.078125 0.859375 0.125 0.984375 0.125 C 1.3125 0.125 1.390625 -0.140625 1.484375 -0.515625 L 2.046875 -2.75 C 2.90625 -2.65625 3.421875 -2.296875 3.421875 -1.71875 C 3.421875 -1.65625 3.421875 -1.609375 3.375 -1.421875 C 3.328125 -1.25 3.328125 -1.09375 3.328125 -1.046875 C 3.328125 -0.34375 3.796875 0.125 4.40625 0.125 C 4.953125 0.125 5.234375 -0.375 5.328125 -0.546875 C 5.578125 -0.984375 5.734375 -1.65625 5.734375 -1.703125 C 5.734375 -1.765625 5.6875 -1.8125 5.625 -1.8125 C 5.515625 -1.8125 5.5 -1.765625 5.453125 -1.578125 C 5.28125 -0.953125 5.03125 -0.125 4.421875 -0.125 C 4.1875 -0.125 4.03125 -0.234375 4.03125 -0.6875 C 4.03125 -0.921875 4.078125 -1.1875 4.125 -1.359375 C 4.171875 -1.578125 4.171875 -1.59375 4.171875 -1.734375 C 4.171875 -2.4375 3.53125 -2.828125 2.4375 -2.96875 C 2.875 -3.234375 3.296875 -3.703125 3.46875 -3.890625 C 4.140625 -4.65625 4.609375 -5.03125 5.15625 -5.03125 C 5.4375 -5.03125 5.515625 -4.953125 5.59375 -4.890625 C 5.15625 -4.84375 4.984375 -4.53125 4.984375 -4.296875 C 4.984375 -4 5.21875 -3.90625 5.375 -3.90625 C 5.703125 -3.90625 5.984375 -4.1875 5.984375 -4.5625 C 5.984375 -4.90625 5.71875 -5.265625 5.171875 -5.265625 C 4.515625 -5.265625 3.984375 -4.8125 3.125 -3.84375 C 3.015625 -3.703125 2.5625 -3.25 2.125 -3.078125 Z M 3.359375 -8 "/>
</symbol>
<symbol overflow="visible" id="glyph7-0">
<path style="stroke:none;" d=""/>
</symbol>
<symbol overflow="visible" id="glyph7-1">
<path style="stroke:none;" d="M 4.3125 -7.78125 C 4.3125 -8.015625 4.3125 -8.0625 4.140625 -8.0625 C 4.046875 -8.0625 4.015625 -8.0625 3.921875 -7.921875 L 0.328125 -2.34375 L 0.328125 -2 L 3.46875 -2 L 3.46875 -0.90625 C 3.46875 -0.46875 3.4375 -0.34375 2.5625 -0.34375 L 2.328125 -0.34375 L 2.328125 0 C 2.609375 -0.03125 3.546875 -0.03125 3.890625 -0.03125 C 4.21875 -0.03125 5.171875 -0.03125 5.453125 0 L 5.453125 -0.34375 L 5.21875 -0.34375 C 4.34375 -0.34375 4.3125 -0.46875 4.3125 -0.90625 L 4.3125 -2 L 5.515625 -2 L 5.515625 -2.34375 L 4.3125 -2.34375 Z M 3.53125 -6.84375 L 3.53125 -2.34375 L 0.625 -2.34375 Z M 3.53125 -6.84375 "/>
</symbol>
<symbol overflow="visible" id="glyph8-0">
<path style="stroke:none;" d=""/>
</symbol>
<symbol overflow="visible" id="glyph8-1">
<path style="stroke:none;" d="M 2.328125 0.046875 C 2.328125 -0.640625 2.109375 -1.15625 1.609375 -1.15625 C 1.234375 -1.15625 1.046875 -0.84375 1.046875 -0.578125 C 1.046875 -0.328125 1.21875 0 1.625 0 C 1.78125 0 1.90625 -0.046875 2.015625 -0.15625 C 2.046875 -0.171875 2.0625 -0.171875 2.0625 -0.171875 C 2.09375 -0.171875 2.09375 -0.015625 2.09375 0.046875 C 2.09375 0.4375 2.015625 1.21875 1.328125 2 C 1.1875 2.140625 1.1875 2.15625 1.1875 2.1875 C 1.1875 2.25 1.25 2.3125 1.3125 2.3125 C 1.40625 2.3125 2.328125 1.421875 2.328125 0.046875 Z M 2.328125 0.046875 "/>
</symbol>
<symbol overflow="visible" id="glyph8-2">
<path style="stroke:none;" d="M 2.203125 -0.578125 C 2.203125 -0.921875 1.90625 -1.15625 1.625 -1.15625 C 1.28125 -1.15625 1.046875 -0.875 1.046875 -0.578125 C 1.046875 -0.234375 1.328125 0 1.609375 0 C 1.953125 0 2.203125 -0.28125 2.203125 -0.578125 Z M 2.203125 -0.578125 "/>
</symbol>
<symbol overflow="visible" id="glyph8-3">
<path style="stroke:none;" d="M 3.359375 -8 C 3.375 -8.046875 3.390625 -8.109375 3.390625 -8.171875 C 3.390625 -8.296875 3.28125 -8.296875 3.25 -8.296875 C 3.234375 -8.296875 2.8125 -8.265625 2.59375 -8.234375 C 2.390625 -8.21875 2.21875 -8.203125 2 -8.1875 C 1.703125 -8.15625 1.625 -8.15625 1.625 -7.9375 C 1.625 -7.8125 1.75 -7.8125 1.859375 -7.8125 C 2.46875 -7.8125 2.46875 -7.703125 2.46875 -7.59375 C 2.46875 -7.546875 2.46875 -7.515625 2.421875 -7.296875 L 0.703125 -0.46875 C 0.65625 -0.28125 0.65625 -0.265625 0.65625 -0.1875 C 0.65625 0.078125 0.859375 0.125 0.984375 0.125 C 1.3125 0.125 1.390625 -0.140625 1.484375 -0.515625 L 2.046875 -2.75 C 2.90625 -2.65625 3.421875 -2.296875 3.421875 -1.71875 C 3.421875 -1.65625 3.421875 -1.609375 3.375 -1.421875 C 3.328125 -1.25 3.328125 -1.09375 3.328125 -1.046875 C 3.328125 -0.34375 3.796875 0.125 4.40625 0.125 C 4.953125 0.125 5.234375 -0.375 5.328125 -0.546875 C 5.578125 -0.984375 5.734375 -1.65625 5.734375 -1.703125 C 5.734375 -1.765625 5.6875 -1.8125 5.625 -1.8125 C 5.515625 -1.8125 5.5 -1.765625 5.453125 -1.578125 C 5.28125 -0.953125 5.03125 -0.125 4.421875 -0.125 C 4.1875 -0.125 4.03125 -0.234375 4.03125 -0.6875 C 4.03125 -0.921875 4.078125 -1.1875 4.125 -1.359375 C 4.171875 -1.578125 4.171875 -1.59375 4.171875 -1.734375 C 4.171875 -2.4375 3.53125 -2.828125 2.4375 -2.96875 C 2.875 -3.234375 3.296875 -3.703125 3.46875 -3.890625 C 4.140625 -4.65625 4.609375 -5.03125 5.15625 -5.03125 C 5.4375 -5.03125 5.515625 -4.953125 5.59375 -4.890625 C 5.15625 -4.84375 4.984375 -4.53125 4.984375 -4.296875 C 4.984375 -4 5.21875 -3.90625 5.375 -3.90625 C 5.703125 -3.90625 5.984375 -4.1875 5.984375 -4.5625 C 5.984375 -4.90625 5.71875 -5.265625 5.171875 -5.265625 C 4.515625 -5.265625 3.984375 -4.8125 3.125 -3.84375 C 3.015625 -3.703125 2.5625 -3.25 2.125 -3.078125 Z M 3.359375 -8 "/>
</symbol>
<symbol overflow="visible" id="glyph9-0">
<path style="stroke:none;" d=""/>
</symbol>
<symbol overflow="visible" id="glyph9-1">
<path style="stroke:none;" d="M 1.53125 -6.84375 C 2.046875 -6.6875 2.46875 -6.671875 2.59375 -6.671875 C 3.9375 -6.671875 4.8125 -7.65625 4.8125 -7.828125 C 4.8125 -7.875 4.78125 -7.9375 4.703125 -7.9375 C 4.6875 -7.9375 4.65625 -7.9375 4.546875 -7.890625 C 3.890625 -7.609375 3.3125 -7.5625 3 -7.5625 C 2.21875 -7.5625 1.65625 -7.8125 1.421875 -7.90625 C 1.34375 -7.9375 1.3125 -7.9375 1.296875 -7.9375 C 1.203125 -7.9375 1.203125 -7.859375 1.203125 -7.671875 L 1.203125 -4.125 C 1.203125 -3.90625 1.203125 -3.84375 1.34375 -3.84375 C 1.40625 -3.84375 1.421875 -3.84375 1.546875 -4 C 1.875 -4.484375 2.4375 -4.765625 3.03125 -4.765625 C 3.671875 -4.765625 3.984375 -4.1875 4.078125 -3.984375 C 4.28125 -3.515625 4.296875 -2.921875 4.296875 -2.46875 C 4.296875 -2.015625 4.296875 -1.34375 3.953125 -0.796875 C 3.6875 -0.375 3.234375 -0.078125 2.703125 -0.078125 C 1.90625 -0.078125 1.140625 -0.609375 0.921875 -1.484375 C 0.984375 -1.453125 1.046875 -1.453125 1.109375 -1.453125 C 1.3125 -1.453125 1.640625 -1.5625 1.640625 -1.96875 C 1.640625 -2.3125 1.40625 -2.5 1.109375 -2.5 C 0.890625 -2.5 0.578125 -2.390625 0.578125 -1.921875 C 0.578125 -0.90625 1.40625 0.25 2.71875 0.25 C 4.078125 0.25 5.265625 -0.890625 5.265625 -2.40625 C 5.265625 -3.828125 4.296875 -5.015625 3.046875 -5.015625 C 2.359375 -5.015625 1.84375 -4.703125 1.53125 -4.375 Z M 1.53125 -6.84375 "/>
</symbol>
<symbol overflow="visible" id="glyph10-0">
<path style="stroke:none;" d=""/>
</symbol>
<symbol overflow="visible" id="glyph10-1">
<path style="stroke:none;" d="M 2.328125 0.046875 C 2.328125 -0.640625 2.109375 -1.15625 1.609375 -1.15625 C 1.234375 -1.15625 1.046875 -0.84375 1.046875 -0.578125 C 1.046875 -0.328125 1.21875 0 1.625 0 C 1.78125 0 1.90625 -0.046875 2.015625 -0.15625 C 2.046875 -0.171875 2.0625 -0.171875 2.0625 -0.171875 C 2.09375 -0.171875 2.09375 -0.015625 2.09375 0.046875 C 2.09375 0.4375 2.015625 1.21875 1.328125 2 C 1.1875 2.140625 1.1875 2.15625 1.1875 2.1875 C 1.1875 2.25 1.25 2.3125 1.3125 2.3125 C 1.40625 2.3125 2.328125 1.421875 2.328125 0.046875 Z M 2.328125 0.046875 "/>
</symbol>
<symbol overflow="visible" id="glyph10-2">
<path style="stroke:none;" d="M 2.203125 -0.578125 C 2.203125 -0.921875 1.90625 -1.15625 1.625 -1.15625 C 1.28125 -1.15625 1.046875 -0.875 1.046875 -0.578125 C 1.046875 -0.234375 1.328125 0 1.609375 0 C 1.953125 0 2.203125 -0.28125 2.203125 -0.578125 Z M 2.203125 -0.578125 "/>
</symbol>
<symbol overflow="visible" id="glyph10-3">
<path style="stroke:none;" d="M 3.359375 -8 C 3.375 -8.046875 3.390625 -8.109375 3.390625 -8.171875 C 3.390625 -8.296875 3.28125 -8.296875 3.25 -8.296875 C 3.234375 -8.296875 2.8125 -8.265625 2.59375 -8.234375 C 2.390625 -8.21875 2.21875 -8.203125 2 -8.1875 C 1.703125 -8.15625 1.625 -8.15625 1.625 -7.9375 C 1.625 -7.8125 1.75 -7.8125 1.859375 -7.8125 C 2.46875 -7.8125 2.46875 -7.703125 2.46875 -7.59375 C 2.46875 -7.546875 2.46875 -7.515625 2.421875 -7.296875 L 0.703125 -0.46875 C 0.65625 -0.28125 0.65625 -0.265625 0.65625 -0.1875 C 0.65625 0.078125 0.859375 0.125 0.984375 0.125 C 1.3125 0.125 1.390625 -0.140625 1.484375 -0.515625 L 2.046875 -2.75 C 2.90625 -2.65625 3.421875 -2.296875 3.421875 -1.71875 C 3.421875 -1.65625 3.421875 -1.609375 3.375 -1.421875 C 3.328125 -1.25 3.328125 -1.09375 3.328125 -1.046875 C 3.328125 -0.34375 3.796875 0.125 4.40625 0.125 C 4.953125 0.125 5.234375 -0.375 5.328125 -0.546875 C 5.578125 -0.984375 5.734375 -1.65625 5.734375 -1.703125 C 5.734375 -1.765625 5.6875 -1.8125 5.625 -1.8125 C 5.515625 -1.8125 5.5 -1.765625 5.453125 -1.578125 C 5.28125 -0.953125 5.03125 -0.125 4.421875 -0.125 C 4.1875 -0.125 4.03125 -0.234375 4.03125 -0.6875 C 4.03125 -0.921875 4.078125 -1.1875 4.125 -1.359375 C 4.171875 -1.578125 4.171875 -1.59375 4.171875 -1.734375 C 4.171875 -2.4375 3.53125 -2.828125 2.4375 -2.96875 C 2.875 -3.234375 3.296875 -3.703125 3.46875 -3.890625 C 4.140625 -4.65625 4.609375 -5.03125 5.15625 -5.03125 C 5.4375 -5.03125 5.515625 -4.953125 5.59375 -4.890625 C 5.15625 -4.84375 4.984375 -4.53125 4.984375 -4.296875 C 4.984375 -4 5.21875 -3.90625 5.375 -3.90625 C 5.703125 -3.90625 5.984375 -4.1875 5.984375 -4.5625 C 5.984375 -4.90625 5.71875 -5.265625 5.171875 -5.265625 C 4.515625 -5.265625 3.984375 -4.8125 3.125 -3.84375 C 3.015625 -3.703125 2.5625 -3.25 2.125 -3.078125 Z M 3.359375 -8 "/>
</symbol>
<symbol overflow="visible" id="glyph11-0">
<path style="stroke:none;" d=""/>
</symbol>
<symbol overflow="visible" id="glyph11-1">
<path style="stroke:none;" d="M 7.875 -2.75 C 8.078125 -2.75 8.296875 -2.75 8.296875 -2.984375 C 8.296875 -3.234375 8.078125 -3.234375 7.875 -3.234375 L 1.40625 -3.234375 C 1.203125 -3.234375 0.984375 -3.234375 0.984375 -2.984375 C 0.984375 -2.75 1.203125 -2.75 1.40625 -2.75 Z M 7.875 -2.75 "/>
</symbol>
<symbol overflow="visible" id="glyph12-0">
<path style="stroke:none;" d=""/>
</symbol>
<symbol overflow="visible" id="glyph12-1">
<path style="stroke:none;" d="M 3.4375 -7.65625 C 3.4375 -7.9375 3.4375 -7.953125 3.203125 -7.953125 C 2.921875 -7.625 2.3125 -7.1875 1.09375 -7.1875 L 1.09375 -6.84375 C 1.359375 -6.84375 1.953125 -6.84375 2.625 -7.140625 L 2.625 -0.921875 C 2.625 -0.484375 2.578125 -0.34375 1.53125 -0.34375 L 1.15625 -0.34375 L 1.15625 0 C 1.484375 -0.03125 2.640625 -0.03125 3.03125 -0.03125 C 3.4375 -0.03125 4.578125 -0.03125 4.90625 0 L 4.90625 -0.34375 L 4.53125 -0.34375 C 3.484375 -0.34375 3.4375 -0.484375 3.4375 -0.921875 Z M 3.4375 -7.65625 "/>
</symbol>
<symbol overflow="visible" id="glyph13-0">
<path style="stroke:none;" d=""/>
</symbol>
<symbol overflow="visible" id="glyph13-1">
<path style="stroke:none;" d="M 5.46875 1.375 L 5.25 1.21875 C 5.09375 1.359375 4.640625 1.859375 4.4375 1.953125 C 4.296875 1.984375 3.75 1.59375 3.453125 1.390625 L 1.640625 0.125 C 2.0625 0.078125 3.109375 -0.125 3.515625 -0.1875 C 5.96875 -0.5 6.875 -0.625 7.5625 -1.59375 C 8.359375 -2.71875 7.984375 -4.125 6.84375 -4.921875 C 5.71875 -5.703125 4.359375 -5.203125 3.765625 -4.359375 C 3.40625 -3.859375 3.84375 -3.546875 3.875 -3.53125 C 4.09375 -3.375 4.4375 -3.359375 4.65625 -3.671875 C 4.859375 -3.953125 4.8125 -4.25 4.53125 -4.453125 C 4.453125 -4.515625 4.421875 -4.53125 4.390625 -4.546875 C 5.03125 -5.078125 5.890625 -5.171875 6.53125 -4.71875 C 7.359375 -4.140625 7.359375 -3.078125 6.734375 -2.171875 C 6.15625 -1.34375 5.171875 -0.9375 4.171875 -0.71875 L 0.625 0.09375 L 0.46875 0.328125 L 4.046875 2.84375 Z M 5.46875 1.375 "/>
</symbol>
<symbol overflow="visible" id="glyph14-0">
<path style="stroke:none;" d=""/>
</symbol>
<symbol overflow="visible" id="glyph14-1">
<path style="stroke:none;" d="M 1.875 1.375 C 2.28125 0.8125 2.390625 0.265625 1.984375 -0.03125 C 1.6875 -0.25 1.34375 -0.09375 1.1875 0.125 C 1.046875 0.328125 1 0.703125 1.328125 0.9375 C 1.453125 1.015625 1.59375 1.0625 1.75 1.03125 C 1.765625 1.03125 1.78125 1.046875 1.78125 1.046875 C 1.8125 1.0625 1.734375 1.1875 1.6875 1.234375 C 1.46875 1.5625 0.953125 2.15625 -0.0625 2.40625 C -0.265625 2.4375 -0.265625 2.453125 -0.28125 2.484375 C -0.328125 2.53125 -0.3125 2.609375 -0.25 2.640625 C -0.171875 2.703125 1.09375 2.5 1.875 1.375 Z M 1.875 1.375 "/>
</symbol>
<symbol overflow="visible" id="glyph15-0">
<path style="stroke:none;" d=""/>
</symbol>
<symbol overflow="visible" id="glyph15-1">
<path style="stroke:none;" d="M 4.265625 -2.25 C 4.09375 -2.34375 4.046875 -2.359375 3.984375 -2.28125 C 3.921875 -2.1875 3.984375 -2.15625 4.140625 -2.03125 L 4.59375 -1.71875 C 5.4375 -1.125 5.328125 -0.1875 4.671875 0.75 C 3.765625 2.046875 2.859375 1.90625 2.375 1.578125 C 1.90625 1.234375 1.265625 0.46875 1.421875 -0.40625 C 1.71875 -0.109375 2.125 -0.109375 2.359375 -0.453125 C 2.5625 -0.734375 2.484375 -1.078125 2.21875 -1.265625 C 1.984375 -1.4375 1.625 -1.46875 1.359375 -1.09375 C 0.75 -0.234375 1.125 1.09375 2.21875 1.859375 C 3.375 2.671875 4.875 2.390625 5.5625 1.40625 C 6.1875 0.5 5.953125 -0.71875 5.140625 -1.53125 C 6.140625 -1.1875 7.21875 -1.515625 7.75 -2.28125 C 8.296875 -3.046875 7.875 -4.1875 6.921875 -4.859375 C 5.953125 -5.53125 4.8125 -5.4375 4.3125 -4.71875 C 4.046875 -4.34375 4.28125 -4.03125 4.421875 -3.9375 C 4.625 -3.796875 4.984375 -3.78125 5.1875 -4.078125 C 5.40625 -4.375 5.25 -4.6875 5.03125 -4.84375 C 4.984375 -4.875 4.953125 -4.890625 4.9375 -4.90625 C 5.765625 -5.3125 6.6875 -4.65625 6.734375 -4.625 C 7.046875 -4.40625 7.59375 -3.8125 6.921875 -2.859375 C 6.78125 -2.65625 6.390625 -2.140625 5.796875 -1.921875 C 5.203125 -1.6875 4.859375 -1.90625 4.578125 -2.078125 Z M 4.265625 -2.25 "/>
</symbol>
<symbol overflow="visible" id="glyph16-0">
<path style="stroke:none;" d=""/>
</symbol>
<symbol overflow="visible" id="glyph16-1">
<path style="stroke:none;" d="M 1.875 1.375 C 2.28125 0.8125 2.390625 0.265625 1.984375 -0.03125 C 1.6875 -0.25 1.34375 -0.09375 1.1875 0.125 C 1.046875 0.328125 1 0.703125 1.328125 0.9375 C 1.453125 1.015625 1.59375 1.0625 1.75 1.03125 C 1.765625 1.03125 1.78125 1.046875 1.78125 1.046875 C 1.8125 1.0625 1.734375 1.1875 1.6875 1.234375 C 1.46875 1.5625 0.953125 2.15625 -0.0625 2.40625 C -0.265625 2.4375 -0.265625 2.453125 -0.28125 2.484375 C -0.328125 2.53125 -0.3125 2.609375 -0.25 2.640625 C -0.171875 2.703125 1.09375 2.5 1.875 1.375 Z M 1.875 1.375 "/>
</symbol>
<symbol overflow="visible" id="glyph16-2">
<path style="stroke:none;" d="M 2.125 0.796875 C 2.328125 0.515625 2.234375 0.140625 2 -0.015625 C 1.71875 -0.21875 1.359375 -0.125 1.1875 0.125 C 1 0.40625 1.09375 0.765625 1.3125 0.921875 C 1.59375 1.125 1.953125 1.03125 2.125 0.796875 Z M 2.125 0.796875 "/>
</symbol>
<symbol overflow="visible" id="glyph16-3">
<path style="stroke:none;" d="M 7.34375 -4.609375 C 7.390625 -4.65625 7.4375 -4.6875 7.46875 -4.734375 C 7.546875 -4.84375 7.453125 -4.90625 7.421875 -4.9375 C 7.40625 -4.9375 7.046875 -5.15625 6.859375 -5.25 C 6.671875 -5.359375 6.53125 -5.4375 6.34375 -5.546875 C 6.078125 -5.6875 6.015625 -5.734375 5.890625 -5.5625 C 5.8125 -5.453125 5.921875 -5.390625 6 -5.328125 C 6.5 -4.96875 6.4375 -4.890625 6.375 -4.796875 C 6.34375 -4.75 6.328125 -4.734375 6.171875 -4.578125 L 0.84375 0.015625 C 0.6875 0.140625 0.6875 0.15625 0.640625 0.21875 C 0.484375 0.4375 0.625 0.609375 0.734375 0.671875 C 1 0.859375 1.21875 0.6875 1.515625 0.4375 L 3.25 -1.078125 C 3.90625 -0.5 4.109375 0.09375 3.78125 0.5625 C 3.75 0.609375 3.71875 0.65625 3.578125 0.78125 C 3.4375 0.890625 3.34375 1.015625 3.3125 1.046875 C 2.921875 1.625 3.03125 2.296875 3.53125 2.640625 C 3.96875 2.953125 4.5 2.6875 4.671875 2.609375 C 5.125 2.390625 5.640625 1.9375 5.671875 1.90625 C 5.703125 1.859375 5.703125 1.78125 5.65625 1.75 C 5.5625 1.6875 5.515625 1.71875 5.375 1.828125 C 4.875 2.25 4.203125 2.78125 3.703125 2.4375 C 3.5 2.296875 3.4375 2.125 3.6875 1.75 C 3.828125 1.5625 4.03125 1.375 4.15625 1.265625 C 4.328125 1.09375 4.34375 1.09375 4.421875 0.96875 C 4.828125 0.390625 4.515625 -0.28125 3.703125 -1.03125 C 4.21875 -0.984375 4.828125 -1.140625 5.078125 -1.1875 C 6.0625 -1.4375 6.65625 -1.484375 7.109375 -1.15625 C 7.34375 -1 7.359375 -0.875 7.390625 -0.78125 C 7 -1 6.6875 -0.84375 6.546875 -0.65625 C 6.375 -0.421875 6.515625 -0.203125 6.65625 -0.109375 C 6.921875 0.078125 7.296875 0.015625 7.515625 -0.296875 C 7.703125 -0.578125 7.71875 -1.03125 7.265625 -1.34375 C 6.734375 -1.71875 6.03125 -1.65625 4.765625 -1.34375 C 4.59375 -1.296875 3.953125 -1.1875 3.5 -1.296875 Z M 7.34375 -4.609375 "/>
</symbol>
<symbol overflow="visible" id="glyph17-0">
<path style="stroke:none;" d=""/>
</symbol>
<symbol overflow="visible" id="glyph17-1">
<path style="stroke:none;" d="M 8.125 -2.09375 C 8.34375 -2.265625 8.359375 -2.28125 8.21875 -2.46875 C 7.78125 -2.46875 7.046875 -2.671875 6.296875 -3.625 L 6.03125 -3.40625 C 6.1875 -3.203125 6.5625 -2.734375 7.21875 -2.40625 L 2.359375 1.46875 C 2.015625 1.75 1.875 1.796875 1.21875 0.984375 L 0.984375 0.6875 L 0.71875 0.90625 C 0.953125 1.140625 1.671875 2.046875 1.921875 2.359375 C 2.171875 2.671875 2.890625 3.5625 3.0625 3.828125 L 3.328125 3.609375 L 3.09375 3.328125 C 2.4375 2.5 2.515625 2.390625 2.859375 2.109375 Z M 8.125 -2.09375 "/>
</symbol>
<symbol overflow="visible" id="glyph18-0">
<path style="stroke:none;" d=""/>
</symbol>
<symbol overflow="visible" id="glyph18-1">
<path style="stroke:none;" d="M 1.421875 1.84375 C 1.953125 1.40625 2.21875 0.921875 1.90625 0.53125 C 1.671875 0.25 1.3125 0.28125 1.109375 0.453125 C 0.90625 0.609375 0.765625 0.953125 1.015625 1.265625 C 1.109375 1.390625 1.21875 1.453125 1.375 1.484375 C 1.421875 1.484375 1.421875 1.5 1.421875 1.5 C 1.453125 1.53125 1.328125 1.625 1.28125 1.671875 C 0.96875 1.90625 0.296875 2.34375 -0.734375 2.28125 C -0.9375 2.25 -0.953125 2.265625 -0.96875 2.28125 C -1.03125 2.328125 -1.03125 2.421875 -1 2.46875 C -0.9375 2.53125 0.34375 2.703125 1.421875 1.84375 Z M 1.421875 1.84375 "/>
</symbol>
<symbol overflow="visible" id="glyph19-0">
<path style="stroke:none;" d=""/>
</symbol>
<symbol overflow="visible" id="glyph19-1">
<path style="stroke:none;" d="M 4.734375 -0.96875 C 4.59375 -1.109375 4.546875 -1.125 4.46875 -1.0625 C 4.375 -1 4.40625 -0.953125 4.546875 -0.796875 L 4.875 -0.375 C 5.53125 0.4375 5.15625 1.328125 4.265625 2.046875 C 3.03125 3.03125 2.203125 2.640625 1.84375 2.171875 C 1.46875 1.71875 1.078125 0.796875 1.46875 0.015625 C 1.671875 0.359375 2.0625 0.5 2.390625 0.234375 C 2.65625 0.03125 2.703125 -0.328125 2.5 -0.578125 C 2.3125 -0.8125 1.96875 -0.953125 1.609375 -0.671875 C 0.78125 -0.015625 0.765625 1.359375 1.59375 2.40625 C 2.484375 3.515625 4 3.65625 4.9375 2.90625 C 5.796875 2.234375 5.90625 0.984375 5.359375 -0.03125 C 6.234375 0.59375 7.34375 0.578125 8.078125 0 C 8.8125 -0.59375 8.75 -1.8125 8.015625 -2.703125 C 7.28125 -3.640625 6.140625 -3.859375 5.453125 -3.3125 C 5.09375 -3.03125 5.234375 -2.671875 5.34375 -2.53125 C 5.5 -2.34375 5.84375 -2.234375 6.125 -2.453125 C 6.40625 -2.6875 6.359375 -3.03125 6.203125 -3.234375 C 6.15625 -3.28125 6.140625 -3.296875 6.109375 -3.3125 C 7.03125 -3.46875 7.734375 -2.59375 7.765625 -2.546875 C 8.015625 -2.234375 8.359375 -1.515625 7.453125 -0.78125 C 7.265625 -0.640625 6.734375 -0.265625 6.09375 -0.21875 C 5.46875 -0.171875 5.1875 -0.453125 4.96875 -0.703125 Z M 4.734375 -0.96875 "/>
</symbol>
<symbol overflow="visible" id="glyph20-0">
<path style="stroke:none;" d=""/>
</symbol>
<symbol overflow="visible" id="glyph20-1">
<path style="stroke:none;" d="M 1.421875 1.84375 C 1.953125 1.40625 2.21875 0.921875 1.90625 0.53125 C 1.671875 0.25 1.3125 0.28125 1.109375 0.453125 C 0.90625 0.609375 0.765625 0.953125 1.015625 1.265625 C 1.109375 1.390625 1.21875 1.453125 1.375 1.484375 C 1.421875 1.484375 1.421875 1.5 1.421875 1.5 C 1.453125 1.53125 1.328125 1.625 1.28125 1.671875 C 0.96875 1.90625 0.296875 2.34375 -0.734375 2.28125 C -0.9375 2.25 -0.953125 2.265625 -0.96875 2.28125 C -1.03125 2.328125 -1.03125 2.421875 -1 2.46875 C -0.9375 2.53125 0.34375 2.703125 1.421875 1.84375 Z M 1.421875 1.84375 "/>
</symbol>
<symbol overflow="visible" id="glyph21-0">
<path style="stroke:none;" d=""/>
</symbol>
<symbol overflow="visible" id="glyph21-1">
<path style="stroke:none;" d="M 8.765625 -1.484375 C 8.953125 -1.625 8.984375 -1.65625 8.875 -1.796875 C 8.828125 -1.875 8.796875 -1.890625 8.640625 -1.875 L 2.03125 -1.21875 L 1.765625 -1 L 3.734375 1.453125 L 2.875 2.140625 C 2.53125 2.40625 2.40625 2.46875 1.859375 1.78125 L 1.71875 1.59375 L 1.453125 1.8125 C 1.65625 2.03125 2.25 2.75 2.453125 3.03125 C 2.65625 3.28125 3.265625 4.03125 3.40625 4.265625 L 3.671875 4.046875 L 3.515625 3.859375 C 2.96875 3.171875 3.046875 3.078125 3.390625 2.8125 L 4.25 2.125 L 5 3.0625 L 5.265625 2.84375 L 4.515625 1.90625 Z M 7.546875 -1.5 L 4.03125 1.296875 L 2.21875 -0.984375 Z M 7.546875 -1.5 "/>
</symbol>
<symbol overflow="visible" id="glyph22-0">
<path style="stroke:none;" d=""/>
</symbol>
<symbol overflow="visible" id="glyph22-1">
<path style="stroke:none;" d="M 1.421875 1.84375 C 1.953125 1.40625 2.21875 0.921875 1.90625 0.53125 C 1.671875 0.25 1.3125 0.28125 1.109375 0.453125 C 0.90625 0.609375 0.765625 0.953125 1.015625 1.265625 C 1.109375 1.390625 1.21875 1.453125 1.375 1.484375 C 1.421875 1.484375 1.421875 1.5 1.421875 1.5 C 1.453125 1.53125 1.328125 1.625 1.28125 1.671875 C 0.96875 1.90625 0.296875 2.34375 -0.734375 2.28125 C -0.9375 2.25 -0.953125 2.265625 -0.96875 2.28125 C -1.03125 2.328125 -1.03125 2.421875 -1 2.46875 C -0.9375 2.53125 0.34375 2.703125 1.421875 1.84375 Z M 1.421875 1.84375 "/>
</symbol>
<symbol overflow="visible" id="glyph22-2">
<path style="stroke:none;" d="M 1.828125 1.359375 C 2.09375 1.140625 2.09375 0.765625 1.921875 0.546875 C 1.703125 0.28125 1.34375 0.265625 1.109375 0.453125 C 0.84375 0.671875 0.828125 1.03125 1 1.25 C 1.21875 1.53125 1.59375 1.546875 1.828125 1.359375 Z M 1.828125 1.359375 "/>
</symbol>
<symbol overflow="visible" id="glyph22-3">
<path style="stroke:none;" d="M 8.34375 -2.359375 C 8.390625 -2.375 8.453125 -2.40625 8.5 -2.4375 C 8.59375 -2.515625 8.53125 -2.609375 8.515625 -2.625 C 8.5 -2.640625 8.203125 -2.953125 8.0625 -3.109375 C 7.90625 -3.25 7.796875 -3.390625 7.640625 -3.546875 C 7.4375 -3.765625 7.390625 -3.828125 7.21875 -3.6875 C 7.125 -3.609375 7.203125 -3.5 7.265625 -3.421875 C 7.65625 -2.953125 7.5625 -2.890625 7.484375 -2.8125 C 7.4375 -2.78125 7.421875 -2.765625 7.21875 -2.65625 L 0.796875 0.25 C 0.625 0.34375 0.609375 0.34375 0.546875 0.40625 C 0.34375 0.5625 0.4375 0.75 0.515625 0.84375 C 0.71875 1.109375 0.984375 1 1.328125 0.828125 L 3.4375 -0.125 C 3.890625 0.609375 3.9375 1.234375 3.484375 1.59375 C 3.4375 1.640625 3.390625 1.671875 3.21875 1.75 C 3.0625 1.8125 2.9375 1.90625 2.890625 1.9375 C 2.34375 2.375 2.28125 3.046875 2.65625 3.515625 C 3 3.953125 3.5625 3.859375 3.75 3.8125 C 4.25 3.75 4.875 3.453125 4.90625 3.421875 C 4.953125 3.375 4.96875 3.3125 4.9375 3.265625 C 4.859375 3.1875 4.8125 3.1875 4.640625 3.28125 C 4.046875 3.53125 3.234375 3.859375 2.859375 3.375 C 2.703125 3.1875 2.703125 3.015625 3.046875 2.734375 C 3.234375 2.578125 3.46875 2.453125 3.640625 2.375 C 3.84375 2.28125 3.859375 2.265625 3.96875 2.1875 C 4.515625 1.75 4.40625 1 3.828125 0.046875 C 4.328125 0.234375 4.953125 0.265625 5.21875 0.28125 C 6.21875 0.328125 6.8125 0.46875 7.15625 0.890625 C 7.328125 1.109375 7.3125 1.21875 7.3125 1.328125 C 7 1.015625 6.65625 1.0625 6.46875 1.203125 C 6.234375 1.390625 6.296875 1.640625 6.40625 1.765625 C 6.609375 2.015625 7 2.0625 7.296875 1.828125 C 7.5625 1.609375 7.671875 1.1875 7.34375 0.765625 C 6.921875 0.25 6.25 0.109375 4.953125 0.046875 C 4.765625 0.046875 4.140625 -0.03125 3.734375 -0.265625 Z M 8.34375 -2.359375 "/>
</symbol>
<symbol overflow="visible" id="glyph23-0">
<path style="stroke:none;" d=""/>
</symbol>
<symbol overflow="visible" id="glyph23-1">
<path style="stroke:none;" d="M 6.53125 1.640625 C 6.75 1.59375 6.765625 1.59375 6.734375 1.390625 C 6.421875 1.234375 5.984375 0.8125 5.8125 -0.15625 L 5.546875 -0.109375 C 5.578125 0.109375 5.671875 0.578125 6.015625 1.046875 L 1.09375 1.9375 C 0.765625 2 0.640625 1.984375 0.5 1.15625 L 0.4375 0.859375 L 0.15625 0.90625 C 0.21875 1.171875 0.390625 2.078125 0.453125 2.40625 C 0.5 2.703125 0.65625 3.609375 0.6875 3.859375 L 0.96875 3.8125 L 0.921875 3.515625 C 0.765625 2.6875 0.875 2.65625 1.203125 2.59375 Z M 6.53125 1.640625 "/>
</symbol>
<symbol overflow="visible" id="glyph24-0">
<path style="stroke:none;" d=""/>
</symbol>
<symbol overflow="visible" id="glyph24-1">
<path style="stroke:none;" d="M 0.296875 1.84375 C 0.828125 1.75 1.203125 1.5 1.140625 1.125 C 1.078125 0.8125 0.8125 0.6875 0.609375 0.734375 C 0.40625 0.765625 0.171875 0.96875 0.234375 1.28125 C 0.25 1.40625 0.296875 1.5 0.40625 1.578125 C 0.4375 1.578125 0.4375 1.578125 0.4375 1.59375 C 0.4375 1.609375 0.3125 1.640625 0.265625 1.640625 C -0.0625 1.703125 -0.6875 1.765625 -1.375 1.328125 C -1.515625 1.234375 -1.53125 1.25 -1.546875 1.25 C -1.59375 1.25 -1.640625 1.3125 -1.625 1.359375 C -1.609375 1.4375 -0.796875 2.046875 0.296875 1.84375 Z M 0.296875 1.84375 "/>
</symbol>
<symbol overflow="visible" id="glyph25-0">
<path style="stroke:none;" d=""/>
</symbol>
<symbol overflow="visible" id="glyph25-1">
<path style="stroke:none;" d="M 2.328125 3.875 L 2.28125 3.65625 C 2.140625 3.65625 1.59375 3.671875 1.421875 3.59375 C 1.328125 3.546875 1.234375 3.015625 1.1875 2.734375 L 0.875 0.984375 C 1.140625 1.21875 1.828125 1.671875 2.109375 1.875 C 3.671875 3.0625 4.265625 3.53125 5.203125 3.359375 C 6.28125 3.15625 6.875 2.171875 6.671875 1.078125 C 6.484375 -0.015625 5.421875 -0.484375 4.59375 -0.34375 C 4.125 -0.25 4.203125 0.15625 4.203125 0.1875 C 4.25 0.390625 4.4375 0.609375 4.734375 0.546875 C 5 0.5 5.140625 0.28125 5.09375 0.015625 C 5.078125 -0.078125 5.078125 -0.09375 5.0625 -0.109375 C 5.734375 -0.046875 6.265625 0.390625 6.375 1 C 6.515625 1.796875 5.9375 2.421875 5.0625 2.578125 C 4.265625 2.71875 3.46875 2.375 2.78125 1.953125 L 0.3125 0.421875 L 0.078125 0.46875 L 0.703125 3.90625 Z M 2.328125 3.875 "/>
</symbol>
<symbol overflow="visible" id="glyph26-0">
<path style="stroke:none;" d=""/>
</symbol>
<symbol overflow="visible" id="glyph26-1">
<path style="stroke:none;" d="M 0.296875 1.84375 C 0.828125 1.75 1.203125 1.5 1.140625 1.125 C 1.078125 0.8125 0.8125 0.6875 0.609375 0.734375 C 0.40625 0.765625 0.171875 0.96875 0.234375 1.28125 C 0.25 1.40625 0.296875 1.5 0.40625 1.578125 C 0.4375 1.578125 0.4375 1.578125 0.4375 1.59375 C 0.4375 1.609375 0.3125 1.640625 0.265625 1.640625 C -0.0625 1.703125 -0.6875 1.765625 -1.375 1.328125 C -1.515625 1.234375 -1.53125 1.25 -1.546875 1.25 C -1.59375 1.25 -1.640625 1.3125 -1.625 1.359375 C -1.609375 1.4375 -0.796875 2.046875 0.296875 1.84375 Z M 0.296875 1.84375 "/>
</symbol>
<symbol overflow="visible" id="glyph27-0">
<path style="stroke:none;" d=""/>
</symbol>
<symbol overflow="visible" id="glyph27-1">
<path style="stroke:none;" d="M 6.75 2.3125 C 6.9375 2.265625 6.96875 2.265625 6.953125 2.140625 C 6.9375 2.0625 6.921875 2.03125 6.796875 1.96875 L 1.890625 -0.0625 L 1.609375 -0.015625 L 2.046875 2.453125 L 1.203125 2.609375 C 0.859375 2.671875 0.765625 2.671875 0.640625 1.984375 L 0.609375 1.796875 L 0.328125 1.84375 C 0.390625 2.0625 0.515625 2.796875 0.5625 3.0625 C 0.609375 3.328125 0.75 4.078125 0.765625 4.3125 L 1.046875 4.265625 L 1.015625 4.0625 C 0.890625 3.375 0.984375 3.34375 1.328125 3.28125 L 2.171875 3.125 L 2.34375 4.078125 L 2.625 4.03125 L 2.453125 3.078125 Z M 5.890625 1.8125 L 2.34375 2.453125 L 1.9375 0.15625 Z M 5.890625 1.8125 "/>
</symbol>
<symbol overflow="visible" id="glyph28-0">
<path style="stroke:none;" d=""/>
</symbol>
<symbol overflow="visible" id="glyph28-1">
<path style="stroke:none;" d="M 0.296875 1.84375 C 0.828125 1.75 1.203125 1.5 1.140625 1.125 C 1.078125 0.8125 0.8125 0.6875 0.609375 0.734375 C 0.40625 0.765625 0.171875 0.96875 0.234375 1.28125 C 0.25 1.40625 0.296875 1.5 0.40625 1.578125 C 0.4375 1.578125 0.4375 1.578125 0.4375 1.59375 C 0.4375 1.609375 0.3125 1.640625 0.265625 1.640625 C -0.0625 1.703125 -0.6875 1.765625 -1.375 1.328125 C -1.515625 1.234375 -1.53125 1.25 -1.546875 1.25 C -1.59375 1.25 -1.640625 1.3125 -1.625 1.359375 C -1.609375 1.4375 -0.796875 2.046875 0.296875 1.84375 Z M 0.296875 1.84375 "/>
</symbol>
<symbol overflow="visible" id="glyph29-0">
<path style="stroke:none;" d=""/>
</symbol>
<symbol overflow="visible" id="glyph29-1">
<path style="stroke:none;" d="M 5.609375 0.234375 C 5.578125 0.65625 5.609375 1 5.625 1.109375 C 5.828125 2.171875 6.71875 2.703125 6.859375 2.671875 C 6.890625 2.671875 6.9375 2.640625 6.9375 2.59375 C 6.921875 2.5625 6.921875 2.546875 6.875 2.484375 C 6.546875 1.984375 6.4375 1.546875 6.390625 1.3125 C 6.28125 0.671875 6.390625 0.203125 6.4375 0.015625 C 6.453125 -0.0625 6.453125 -0.09375 6.453125 -0.09375 C 6.4375 -0.171875 6.375 -0.15625 6.234375 -0.140625 L 3.421875 0.375 C 3.25 0.40625 3.203125 0.40625 3.21875 0.515625 C 3.234375 0.5625 3.234375 0.578125 3.375 0.65625 C 3.796875 0.828125 4.109375 1.25 4.203125 1.734375 C 4.28125 2.21875 3.875 2.546875 3.71875 2.65625 C 3.375 2.875 2.921875 2.984375 2.5625 3.046875 C 2.203125 3.109375 1.671875 3.203125 1.1875 3.015625 C 0.8125 2.859375 0.515625 2.53125 0.453125 2.125 C 0.328125 1.484375 0.640625 0.8125 1.296875 0.515625 C 1.296875 0.5625 1.296875 0.625 1.296875 0.671875 C 1.328125 0.828125 1.46875 1.078125 1.78125 1.015625 C 2.046875 0.96875 2.171875 0.75 2.125 0.515625 C 2.09375 0.34375 1.96875 0.125 1.59375 0.203125 C 0.796875 0.34375 0 1.140625 0.1875 2.1875 C 0.375 3.25 1.4375 4.03125 2.640625 3.8125 C 3.765625 3.609375 4.5625 2.703125 4.390625 1.703125 C 4.28125 1.15625 3.984375 0.78125 3.65625 0.578125 Z M 5.609375 0.234375 "/>
</symbol>
<symbol overflow="visible" id="glyph30-0">
<path style="stroke:none;" d=""/>
</symbol>
<symbol overflow="visible" id="glyph30-1">
<path style="stroke:none;" d="M 0.296875 1.84375 C 0.828125 1.75 1.203125 1.5 1.140625 1.125 C 1.078125 0.8125 0.8125 0.6875 0.609375 0.734375 C 0.40625 0.765625 0.171875 0.96875 0.234375 1.28125 C 0.25 1.40625 0.296875 1.5 0.40625 1.578125 C 0.4375 1.578125 0.4375 1.578125 0.4375 1.59375 C 0.4375 1.609375 0.3125 1.640625 0.265625 1.640625 C -0.0625 1.703125 -0.6875 1.765625 -1.375 1.328125 C -1.515625 1.234375 -1.53125 1.25 -1.546875 1.25 C -1.59375 1.25 -1.640625 1.3125 -1.625 1.359375 C -1.609375 1.4375 -0.796875 2.046875 0.296875 1.84375 Z M 0.296875 1.84375 "/>
</symbol>
<symbol overflow="visible" id="glyph30-2">
<path style="stroke:none;" d="M 0.765625 1.65625 C 1.03125 1.609375 1.171875 1.34375 1.140625 1.125 C 1.09375 0.859375 0.828125 0.6875 0.609375 0.734375 C 0.328125 0.78125 0.1875 1.046875 0.234375 1.28125 C 0.28125 1.546875 0.546875 1.6875 0.765625 1.65625 Z M 0.765625 1.65625 "/>
</symbol>
<symbol overflow="visible" id="glyph30-3">
<path style="stroke:none;" d="M 6.78125 1.515625 C 6.84375 1.515625 6.875 1.53125 6.921875 1.515625 C 7.015625 1.5 7 1.40625 6.984375 1.390625 C 6.984375 1.375 6.90625 1.046875 6.84375 0.890625 C 6.828125 0.734375 6.78125 0.578125 6.734375 0.40625 C 6.6875 0.203125 6.65625 0.125 6.5 0.15625 C 6.40625 0.171875 6.421875 0.265625 6.4375 0.359375 C 6.515625 0.84375 6.421875 0.859375 6.328125 0.875 C 6.296875 0.890625 6.28125 0.890625 6.109375 0.875 L 0.46875 0.484375 C 0.328125 0.46875 0.296875 0.484375 0.25 0.484375 C 0.03125 0.53125 0.03125 0.6875 0.046875 0.78125 C 0.09375 1.046875 0.3125 1.078125 0.609375 1.09375 L 2.46875 1.21875 C 2.5 1.921875 2.296875 2.359375 1.84375 2.4375 C 1.796875 2.453125 1.75 2.46875 1.609375 2.453125 C 1.453125 2.453125 1.328125 2.46875 1.28125 2.484375 C 0.75 2.578125 0.4375 3 0.53125 3.484375 C 0.609375 3.921875 1.046875 4.0625 1.1875 4.125 C 1.5625 4.265625 2.125 4.28125 2.171875 4.265625 C 2.21875 4.265625 2.25 4.234375 2.234375 4.171875 C 2.21875 4.109375 2.1875 4.09375 2.015625 4.09375 C 1.5 4.03125 0.8125 3.953125 0.71875 3.46875 C 0.6875 3.296875 0.765625 3.15625 1.125 3.09375 C 1.296875 3.0625 1.515625 3.046875 1.65625 3.0625 C 1.84375 3.078125 1.859375 3.078125 1.96875 3.046875 C 2.515625 2.953125 2.734375 2.375 2.703125 1.5 C 2.953125 1.8125 3.390625 2.0625 3.546875 2.1875 C 4.25 2.625 4.625 2.921875 4.703125 3.359375 C 4.734375 3.578125 4.6875 3.65625 4.65625 3.71875 C 4.546875 3.375 4.265625 3.296875 4.09375 3.328125 C 3.859375 3.375 3.8125 3.5625 3.84375 3.703125 C 3.890625 3.9375 4.15625 4.125 4.4375 4.078125 C 4.71875 4.03125 4.96875 3.75 4.890625 3.328125 C 4.796875 2.8125 4.34375 2.46875 3.46875 1.921875 C 3.34375 1.84375 2.921875 1.578125 2.734375 1.234375 Z M 6.78125 1.515625 "/>
</symbol>
<symbol overflow="visible" id="glyph31-0">
<path style="stroke:none;" d=""/>
</symbol>
<symbol overflow="visible" id="glyph31-1">
<path style="stroke:none;" d="M -1.046875 -8.328125 C -1.1875 -8.578125 -1.203125 -8.59375 -1.40625 -8.46875 C -1.46875 -8.03125 -1.765625 -7.34375 -2.796875 -6.703125 L -2.625 -6.40625 C -2.40625 -6.546875 -1.890625 -6.859375 -1.484375 -7.453125 L 1.75 -2.140625 C 1.984375 -1.765625 2.03125 -1.640625 1.140625 -1.09375 L 0.8125 -0.90625 L 0.984375 -0.609375 C 1.25 -0.796875 2.234375 -1.40625 2.578125 -1.609375 C 2.921875 -1.828125 3.890625 -2.421875 4.1875 -2.546875 L 4.015625 -2.84375 L 3.703125 -2.65625 C 2.796875 -2.109375 2.6875 -2.203125 2.453125 -2.578125 Z M -1.046875 -8.328125 "/>
</symbol>
<symbol overflow="visible" id="glyph32-0">
<path style="stroke:none;" d=""/>
</symbol>
<symbol overflow="visible" id="glyph32-1">
<path style="stroke:none;" d="M 2.015625 -1.171875 C 1.65625 -1.765625 1.1875 -2.078125 0.765625 -1.828125 C 0.4375 -1.625 0.453125 -1.265625 0.59375 -1.046875 C 0.71875 -0.828125 1.046875 -0.640625 1.390625 -0.84375 C 1.515625 -0.921875 1.59375 -1.046875 1.640625 -1.1875 C 1.65625 -1.203125 1.671875 -1.21875 1.671875 -1.21875 C 1.6875 -1.234375 1.765625 -1.109375 1.8125 -1.046875 C 2.015625 -0.71875 2.359375 0 2.1875 1.015625 C 2.125 1.203125 2.140625 1.21875 2.15625 1.25 C 2.1875 1.296875 2.265625 1.3125 2.328125 1.28125 C 2.40625 1.234375 2.71875 0 2.015625 -1.171875 Z M 2.015625 -1.171875 "/>
</symbol>
<symbol overflow="visible" id="glyph33-0">
<path style="stroke:none;" d=""/>
</symbol>
<symbol overflow="visible" id="glyph33-1">
<path style="stroke:none;" d="M 3.453125 -4.453125 L 3.21875 -4.328125 C 3.296875 -4.125 3.5625 -3.5 3.5625 -3.28125 C 3.53125 -3.140625 2.96875 -2.796875 2.65625 -2.609375 L 0.765625 -1.453125 C 0.90625 -1.859375 1.125 -2.890625 1.234375 -3.296875 C 1.921875 -5.671875 2.171875 -6.546875 1.5625 -7.5625 C 0.84375 -8.734375 -0.578125 -8.96875 -1.765625 -8.25 C -2.9375 -7.53125 -3.015625 -6.078125 -2.484375 -5.1875 C -2.171875 -4.671875 -1.71875 -4.953125 -1.703125 -4.96875 C -1.46875 -5.109375 -1.3125 -5.421875 -1.5 -5.75 C -1.6875 -6.046875 -1.984375 -6.109375 -2.28125 -5.9375 C -2.359375 -5.890625 -2.390625 -5.875 -2.40625 -5.84375 C -2.640625 -6.640625 -2.375 -7.46875 -1.734375 -7.859375 C -0.859375 -8.390625 0.125 -7.984375 0.703125 -7.046875 C 1.21875 -6.1875 1.203125 -5.125 1.015625 -4.109375 L 0.359375 -0.53125 L 0.5 -0.296875 L 4.234375 -2.578125 Z M 3.453125 -4.453125 "/>
</symbol>
<symbol overflow="visible" id="glyph34-0">
<path style="stroke:none;" d=""/>
</symbol>
<symbol overflow="visible" id="glyph34-1">
<path style="stroke:none;" d="M 2.015625 -1.171875 C 1.65625 -1.765625 1.1875 -2.078125 0.765625 -1.828125 C 0.4375 -1.625 0.453125 -1.265625 0.59375 -1.046875 C 0.71875 -0.828125 1.046875 -0.640625 1.390625 -0.84375 C 1.515625 -0.921875 1.59375 -1.046875 1.640625 -1.1875 C 1.65625 -1.203125 1.671875 -1.21875 1.671875 -1.21875 C 1.6875 -1.234375 1.765625 -1.109375 1.8125 -1.046875 C 2.015625 -0.71875 2.359375 0 2.1875 1.015625 C 2.125 1.203125 2.140625 1.21875 2.15625 1.25 C 2.1875 1.296875 2.265625 1.3125 2.328125 1.28125 C 2.40625 1.234375 2.71875 0 2.015625 -1.171875 Z M 2.015625 -1.171875 "/>
</symbol>
<symbol overflow="visible" id="glyph34-2">
<path style="stroke:none;" d="M 1.578125 -1.640625 C 1.390625 -1.921875 1.015625 -1.984375 0.78125 -1.828125 C 0.484375 -1.65625 0.4375 -1.296875 0.59375 -1.046875 C 0.765625 -0.75 1.140625 -0.6875 1.375 -0.84375 C 1.671875 -1.015625 1.734375 -1.375 1.578125 -1.640625 Z M 1.578125 -1.640625 "/>
</symbol>
<symbol overflow="visible" id="glyph34-3">
<path style="stroke:none;" d="M -1.296875 -8.578125 C -1.3125 -8.625 -1.328125 -8.6875 -1.359375 -8.75 C -1.421875 -8.84375 -1.515625 -8.78125 -1.53125 -8.765625 C -1.546875 -8.765625 -1.890625 -8.53125 -2.0625 -8.375 C -2.234375 -8.265625 -2.375 -8.15625 -2.5625 -8.03125 C -2.796875 -7.859375 -2.859375 -7.8125 -2.734375 -7.625 C -2.671875 -7.515625 -2.5625 -7.578125 -2.46875 -7.640625 C -1.953125 -7.953125 -1.90625 -7.859375 -1.84375 -7.765625 C -1.8125 -7.71875 -1.796875 -7.703125 -1.734375 -7.5 L 0.34375 -0.765625 C 0.421875 -0.578125 0.421875 -0.578125 0.46875 -0.5 C 0.609375 -0.28125 0.796875 -0.34375 0.90625 -0.40625 C 1.1875 -0.578125 1.109375 -0.84375 1 -1.203125 L 0.3125 -3.40625 C 1.109375 -3.78125 1.71875 -3.75 2.03125 -3.25 C 2.0625 -3.203125 2.078125 -3.15625 2.140625 -2.96875 C 2.1875 -2.796875 2.28125 -2.671875 2.296875 -2.625 C 2.671875 -2.03125 3.296875 -1.859375 3.828125 -2.1875 C 4.296875 -2.46875 4.28125 -3.03125 4.265625 -3.25 C 4.25 -3.75 4.03125 -4.40625 4 -4.4375 C 3.96875 -4.484375 3.921875 -4.5 3.859375 -4.46875 C 3.765625 -4.421875 3.78125 -4.359375 3.828125 -4.1875 C 4.015625 -3.5625 4.234375 -2.734375 3.71875 -2.40625 C 3.515625 -2.296875 3.3125 -2.296875 3.078125 -2.6875 C 2.953125 -2.875 2.859375 -3.140625 2.8125 -3.296875 C 2.734375 -3.515625 2.734375 -3.53125 2.65625 -3.65625 C 2.296875 -4.25 1.546875 -4.265625 0.53125 -3.796875 C 0.765625 -4.265625 0.890625 -4.875 0.9375 -5.140625 C 1.109375 -6.125 1.3125 -6.703125 1.78125 -6.984375 C 2.015625 -7.125 2.125 -7.109375 2.234375 -7.078125 C 1.890625 -6.828125 1.890625 -6.46875 2.015625 -6.265625 C 2.171875 -6.015625 2.421875 -6.046875 2.5625 -6.125 C 2.84375 -6.296875 2.921875 -6.6875 2.734375 -7 C 2.5625 -7.296875 2.140625 -7.484375 1.6875 -7.1875 C 1.125 -6.84375 0.90625 -6.1875 0.671875 -4.90625 C 0.65625 -4.71875 0.5 -4.109375 0.203125 -3.734375 Z M -1.296875 -8.578125 "/>
</symbol>
<symbol overflow="visible" id="glyph35-0">
<path style="stroke:none;" d=""/>
</symbol>
<symbol overflow="visible" id="glyph35-1">
<path style="stroke:none;" d="M 5.28125 -6.4375 C 5.453125 -6.546875 5.640625 -6.65625 5.53125 -6.859375 C 5.390625 -7.078125 5.203125 -6.96875 5.03125 -6.859375 L -0.484375 -3.5 C -0.65625 -3.390625 -0.84375 -3.28125 -0.703125 -3.0625 C -0.59375 -2.859375 -0.40625 -2.96875 -0.234375 -3.078125 Z M 5.28125 -6.4375 "/>
</symbol>
<symbol overflow="visible" id="glyph36-0">
<path style="stroke:none;" d=""/>
</symbol>
<symbol overflow="visible" id="glyph36-1">
<path style="stroke:none;" d="M -1.046875 -8.328125 C -1.1875 -8.578125 -1.203125 -8.59375 -1.40625 -8.46875 C -1.46875 -8.03125 -1.765625 -7.34375 -2.796875 -6.703125 L -2.625 -6.40625 C -2.40625 -6.546875 -1.890625 -6.859375 -1.484375 -7.453125 L 1.75 -2.140625 C 1.984375 -1.765625 2.03125 -1.640625 1.140625 -1.09375 L 0.8125 -0.90625 L 0.984375 -0.609375 C 1.25 -0.796875 2.234375 -1.40625 2.578125 -1.609375 C 2.921875 -1.828125 3.890625 -2.421875 4.1875 -2.546875 L 4.015625 -2.84375 L 3.703125 -2.65625 C 2.796875 -2.109375 2.6875 -2.203125 2.453125 -2.578125 Z M -1.046875 -8.328125 "/>
</symbol>
</g>
</defs>
<g id="surface146314">
<g style="fill:rgb(0%,0%,0%);fill-opacity:1;">
  <use xlink:href="#glyph0-1" x="20.2272" y="77.3352"/>
</g>
<g style="fill:rgb(0%,0%,0%);fill-opacity:1;">
  <use xlink:href="#glyph1-1" x="32.8632" y="79.9172"/>
</g>
<path style="fill:none;stroke-width:0.4;stroke-linecap:round;stroke-linejoin:round;stroke:rgb(0%,0%,0%);stroke-opacity:1;stroke-miterlimit:10;" d="M 149.523438 573.21875 C 149.523438 583.191406 141.4375 591.277344 131.464844 591.277344 C 121.492188 591.277344 113.40625 583.191406 113.40625 573.21875 C 113.40625 563.246094 121.492188 555.160156 131.464844 555.160156 C 141.4375 555.160156 149.523438 563.246094 149.523438 573.21875 Z M 149.523438 573.21875 " transform="matrix(1,0,0,-1,-103,649)"/>
<path style="fill:none;stroke-width:0.4;stroke-linecap:round;stroke-linejoin:round;stroke:rgb(0%,0%,0%);stroke-opacity:1;stroke-miterlimit:10;" d="M 213.523438 573.21875 C 213.523438 583.191406 205.4375 591.277344 195.464844 591.277344 C 185.492188 591.277344 177.40625 583.191406 177.40625 573.21875 C 177.40625 563.246094 185.492188 555.160156 195.464844 555.160156 C 205.4375 555.160156 213.523438 563.246094 213.523438 573.21875 Z M 213.523438 573.21875 " transform="matrix(1,0,0,-1,-103,649)"/>
<path style="fill:none;stroke-width:0.4;stroke-linecap:round;stroke-linejoin:round;stroke:rgb(0%,0%,0%);stroke-opacity:1;stroke-miterlimit:10;" d="M 277.523438 573.21875 C 277.523438 583.191406 269.4375 591.277344 259.464844 591.277344 C 249.492188 591.277344 241.40625 583.191406 241.40625 573.21875 C 241.40625 563.246094 249.492188 555.160156 259.464844 555.160156 C 269.4375 555.160156 277.523438 563.246094 277.523438 573.21875 Z M 277.523438 573.21875 " transform="matrix(1,0,0,-1,-103,649)"/>
<path style="fill:none;stroke-width:0.4;stroke-linecap:round;stroke-linejoin:round;stroke:rgb(0%,0%,0%);stroke-opacity:1;stroke-miterlimit:10;" d="M 469.523438 573.21875 C 469.523438 583.191406 461.4375 591.277344 451.464844 591.277344 C 441.492188 591.277344 433.40625 583.191406 433.40625 573.21875 C 433.40625 563.246094 441.492188 555.160156 451.464844 555.160156 C 461.4375 555.160156 469.523438 563.246094 469.523438 573.21875 Z M 469.523438 573.21875 " transform="matrix(1,0,0,-1,-103,649)"/>
<path style="fill:none;stroke-width:0.8;stroke-linecap:round;stroke-linejoin:round;stroke:rgb(0%,0%,0%);stroke-opacity:1;stroke-miterlimit:10;" d="M 153.359375 573.21875 C 153.359375 585.308594 143.554688 595.113281 131.464844 595.113281 C 119.375 595.113281 109.570312 585.308594 109.570312 573.21875 C 109.570312 561.128906 119.375 551.324219 131.464844 551.324219 C 143.554688 551.324219 153.359375 561.128906 153.359375 573.21875 Z M 153.359375 573.21875 " transform="matrix(1,0,0,-1,-103,649)"/>
<path style="fill:none;stroke-width:0.8;stroke-linecap:round;stroke-linejoin:round;stroke:rgb(0%,0%,0%);stroke-opacity:1;stroke-miterlimit:10;" d="M 217.359375 573.21875 C 217.359375 585.308594 207.554688 595.113281 195.464844 595.113281 C 183.375 595.113281 173.570312 585.308594 173.570312 573.21875 C 173.570312 561.128906 183.375 551.324219 195.464844 551.324219 C 207.554688 551.324219 217.359375 561.128906 217.359375 573.21875 Z M 217.359375 573.21875 " transform="matrix(1,0,0,-1,-103,649)"/>
<path style="fill:none;stroke-width:0.8;stroke-linecap:round;stroke-linejoin:round;stroke:rgb(0%,0%,0%);stroke-opacity:1;stroke-miterlimit:10;" d="M 281.359375 573.21875 C 281.359375 585.308594 271.554688 595.113281 259.464844 595.113281 C 247.375 595.113281 237.570312 585.308594 237.570312 573.21875 C 237.570312 561.128906 247.375 551.324219 259.464844 551.324219 C 271.554688 551.324219 281.359375 561.128906 281.359375 573.21875 Z M 281.359375 573.21875 " transform="matrix(1,0,0,-1,-103,649)"/>
<path style="fill:none;stroke-width:0.8;stroke-linecap:round;stroke-linejoin:round;stroke:rgb(0%,0%,0%);stroke-opacity:1;stroke-miterlimit:10;" d="M 473.359375 573.21875 C 473.359375 585.308594 463.554688 595.113281 451.464844 595.113281 C 439.375 595.113281 429.570312 585.308594 429.570312 573.21875 C 429.570312 561.128906 439.375 551.324219 451.464844 551.324219 C 463.554688 551.324219 473.359375 561.128906 473.359375 573.21875 Z M 473.359375 573.21875 " transform="matrix(1,0,0,-1,-103,649)"/>
<g style="fill:rgb(0%,0%,0%);fill-opacity:1;">
  <use xlink:href="#glyph0-1" x="84.2272" y="77.3352"/>
</g>
<g style="fill:rgb(0%,0%,0%);fill-opacity:1;">
  <use xlink:href="#glyph1-2" x="96.8632" y="79.9172"/>
</g>
<g style="fill:rgb(0%,0%,0%);fill-opacity:1;">
  <use xlink:href="#glyph0-1" x="148.227" y="77.3352"/>
</g>
<g style="fill:rgb(0%,0%,0%);fill-opacity:1;">
  <use xlink:href="#glyph1-3" x="160.863" y="79.9172"/>
</g>
<g style="fill:rgb(0%,0%,0%);fill-opacity:1;">
  <use xlink:href="#glyph0-1" x="340.227" y="77.3352"/>
</g>
<g style="fill:rgb(0%,0%,0%);fill-opacity:1;">
  <use xlink:href="#glyph2-1" x="352.863" y="79.9172"/>
</g>
<path style="fill:none;stroke-width:0.8;stroke-linecap:round;stroke-linejoin:round;stroke:rgb(0%,0%,0%);stroke-opacity:1;stroke-miterlimit:10;" d="M 120.984375 592.441406 C 93.210938 623.746094 107.230469 630.1875 118.527344 633.0625 C 129.828125 635.941406 138.402344 635.257812 144.957031 632.074219 C 151.515625 628.890625 156.050781 623.207031 157.242188 618.96875 C 158.433594 614.734375 156.277344 611.945312 142.527344 592.113281 " transform="matrix(1,0,0,-1,-103,649)"/>
<path style="fill-rule:evenodd;fill:rgb(0%,0%,0%);fill-opacity:1;stroke-width:0.8;stroke-linecap:round;stroke-linejoin:round;stroke:rgb(0%,0%,0%);stroke-opacity:1;stroke-miterlimit:10;" d="M 142.527344 592.113281 L 148.433594 596.535156 L 144.601562 599.191406 Z M 142.527344 592.113281 " transform="matrix(1,0,0,-1,-103,649)"/>
<g style="fill:rgb(0%,0%,0%);fill-opacity:1;">
  <use xlink:href="#glyph3-1" x="1.2777" y="9.86828"/>
</g>
<g style="fill:rgb(0%,0%,0%);fill-opacity:1;">
  <use xlink:href="#glyph4-1" x="7.1307" y="9.86828"/>
</g>
<g style="fill:rgb(0%,0%,0%);fill-opacity:1;">
  <use xlink:href="#glyph5-1" x="12.3747" y="9.86828"/>
</g>
<g style="fill:rgb(0%,0%,0%);fill-opacity:1;">
  <use xlink:href="#glyph6-1" x="18.2277" y="9.86828"/>
  <use xlink:href="#glyph6-2" x="23.476033" y="9.86828"/>
  <use xlink:href="#glyph6-2" x="28.71241" y="9.86828"/>
  <use xlink:href="#glyph6-2" x="33.960743" y="9.86828"/>
  <use xlink:href="#glyph6-1" x="39.209076" y="9.86828"/>
  <use xlink:href="#glyph6-3" x="44.445454" y="9.86828"/>
</g>
<path style="fill:none;stroke-width:0.8;stroke-linecap:round;stroke-linejoin:round;stroke:rgb(0%,0%,0%);stroke-opacity:1;stroke-miterlimit:10;" d="M 184.984375 592.441406 C 157.210938 623.746094 171.230469 630.1875 182.527344 633.0625 C 193.828125 635.941406 202.402344 635.257812 208.957031 632.074219 C 215.515625 628.890625 220.050781 623.207031 221.242188 618.96875 C 222.433594 614.734375 220.277344 611.945312 206.527344 592.113281 " transform="matrix(1,0,0,-1,-103,649)"/>
<path style="fill-rule:evenodd;fill:rgb(0%,0%,0%);fill-opacity:1;stroke-width:0.8;stroke-linecap:round;stroke-linejoin:round;stroke:rgb(0%,0%,0%);stroke-opacity:1;stroke-miterlimit:10;" d="M 206.527344 592.113281 L 212.433594 596.535156 L 208.601562 599.191406 Z M 206.527344 592.113281 " transform="matrix(1,0,0,-1,-103,649)"/>
<g style="fill:rgb(0%,0%,0%);fill-opacity:1;">
  <use xlink:href="#glyph3-2" x="65.2777" y="9.86828"/>
</g>
<g style="fill:rgb(0%,0%,0%);fill-opacity:1;">
  <use xlink:href="#glyph4-1" x="71.1307" y="9.86828"/>
</g>
<g style="fill:rgb(0%,0%,0%);fill-opacity:1;">
  <use xlink:href="#glyph5-1" x="76.3747" y="9.86828"/>
</g>
<g style="fill:rgb(0%,0%,0%);fill-opacity:1;">
  <use xlink:href="#glyph6-1" x="82.2277" y="9.86828"/>
</g>
<g style="fill:rgb(0%,0%,0%);fill-opacity:1;">
  <use xlink:href="#glyph7-1" x="87.4717" y="9.86828"/>
</g>
<g style="fill:rgb(0%,0%,0%);fill-opacity:1;">
  <use xlink:href="#glyph8-1" x="93.3247" y="9.86828"/>
  <use xlink:href="#glyph8-2" x="98.573033" y="9.86828"/>
  <use xlink:href="#glyph8-2" x="103.80941" y="9.86828"/>
  <use xlink:href="#glyph8-2" x="109.057743" y="9.86828"/>
  <use xlink:href="#glyph8-1" x="114.306076" y="9.86828"/>
  <use xlink:href="#glyph8-3" x="119.542454" y="9.86828"/>
</g>
<path style="fill:none;stroke-width:0.8;stroke-linecap:round;stroke-linejoin:round;stroke:rgb(0%,0%,0%);stroke-opacity:1;stroke-miterlimit:10;" d="M 248.984375 592.441406 C 221.210938 623.746094 235.230469 630.1875 246.527344 633.0625 C 257.828125 635.941406 266.402344 635.257812 272.957031 632.074219 C 279.515625 628.890625 284.050781 623.207031 285.242188 618.96875 C 286.433594 614.734375 284.277344 611.945312 270.527344 592.113281 " transform="matrix(1,0,0,-1,-103,649)"/>
<path style="fill-rule:evenodd;fill:rgb(0%,0%,0%);fill-opacity:1;stroke-width:0.8;stroke-linecap:round;stroke-linejoin:round;stroke:rgb(0%,0%,0%);stroke-opacity:1;stroke-miterlimit:10;" d="M 270.527344 592.113281 L 276.433594 596.535156 L 272.601562 599.191406 Z M 270.527344 592.113281 " transform="matrix(1,0,0,-1,-103,649)"/>
<g style="fill:rgb(0%,0%,0%);fill-opacity:1;">
  <use xlink:href="#glyph3-2" x="129.278" y="9.86828"/>
</g>
<g style="fill:rgb(0%,0%,0%);fill-opacity:1;">
  <use xlink:href="#glyph4-1" x="135.131" y="9.86828"/>
</g>
<g style="fill:rgb(0%,0%,0%);fill-opacity:1;">
  <use xlink:href="#glyph5-2" x="140.375" y="9.86828"/>
</g>
<g style="fill:rgb(0%,0%,0%);fill-opacity:1;">
  <use xlink:href="#glyph6-1" x="146.228" y="9.86828"/>
</g>
<g style="fill:rgb(0%,0%,0%);fill-opacity:1;">
  <use xlink:href="#glyph7-1" x="151.472" y="9.86828"/>
</g>
<g style="fill:rgb(0%,0%,0%);fill-opacity:1;">
  <use xlink:href="#glyph8-1" x="157.325" y="9.86828"/>
</g>
<g style="fill:rgb(0%,0%,0%);fill-opacity:1;">
  <use xlink:href="#glyph9-1" x="162.569" y="9.86828"/>
</g>
<g style="fill:rgb(0%,0%,0%);fill-opacity:1;">
  <use xlink:href="#glyph10-1" x="168.422" y="9.86828"/>
  <use xlink:href="#glyph10-2" x="173.670333" y="9.86828"/>
  <use xlink:href="#glyph10-2" x="178.90671" y="9.86828"/>
  <use xlink:href="#glyph10-2" x="184.155043" y="9.86828"/>
  <use xlink:href="#glyph10-1" x="189.403376" y="9.86828"/>
  <use xlink:href="#glyph10-3" x="194.639754" y="9.86828"/>
</g>
<path style="fill:none;stroke-width:0.8;stroke-linecap:round;stroke-linejoin:round;stroke:rgb(0%,0%,0%);stroke-opacity:1;stroke-miterlimit:10;" d="M 440.984375 592.441406 C 413.210938 623.746094 427.230469 630.1875 438.527344 633.0625 C 449.828125 635.941406 458.402344 635.257812 464.957031 632.074219 C 471.515625 628.890625 476.050781 623.207031 477.242188 618.96875 C 478.433594 614.734375 476.277344 611.945312 462.527344 592.113281 " transform="matrix(1,0,0,-1,-103,649)"/>
<path style="fill-rule:evenodd;fill:rgb(0%,0%,0%);fill-opacity:1;stroke-width:0.8;stroke-linecap:round;stroke-linejoin:round;stroke:rgb(0%,0%,0%);stroke-opacity:1;stroke-miterlimit:10;" d="M 462.527344 592.113281 L 468.433594 596.535156 L 464.601562 599.191406 Z M 462.527344 592.113281 " transform="matrix(1,0,0,-1,-103,649)"/>
<g style="fill:rgb(0%,0%,0%);fill-opacity:1;">
  <use xlink:href="#glyph3-2" x="321.278" y="9.86828"/>
</g>
<g style="fill:rgb(0%,0%,0%);fill-opacity:1;">
  <use xlink:href="#glyph4-1" x="327.131" y="9.86828"/>
</g>
<g style="fill:rgb(0%,0%,0%);fill-opacity:1;">
  <use xlink:href="#glyph5-2" x="332.375" y="9.86828"/>
</g>
<g style="fill:rgb(0%,0%,0%);fill-opacity:1;">
  <use xlink:href="#glyph6-1" x="338.228" y="9.86828"/>
  <use xlink:href="#glyph6-2" x="343.476333" y="9.86828"/>
  <use xlink:href="#glyph6-2" x="348.71271" y="9.86828"/>
  <use xlink:href="#glyph6-2" x="353.961043" y="9.86828"/>
  <use xlink:href="#glyph6-1" x="359.209376" y="9.86828"/>
  <use xlink:href="#glyph6-3" x="364.445754" y="9.86828"/>
</g>
<g style="fill:rgb(0%,0%,0%);fill-opacity:1;">
  <use xlink:href="#glyph11-1" x="373.595" y="9.86828"/>
</g>
<g style="fill:rgb(0%,0%,0%);fill-opacity:1;">
  <use xlink:href="#glyph12-1" x="385.55" y="9.86828"/>
</g>
<path style="fill:none;stroke-width:0.4;stroke-linecap:round;stroke-linejoin:round;stroke:rgb(0%,0%,0%);stroke-opacity:1;stroke-miterlimit:10;" d="M 293.523438 461.21875 C 293.523438 471.191406 285.4375 479.277344 275.464844 479.277344 C 265.492188 479.277344 257.40625 471.191406 257.40625 461.21875 C 257.40625 451.246094 265.492188 443.160156 275.464844 443.160156 C 285.4375 443.160156 293.523438 451.246094 293.523438 461.21875 Z M 293.523438 461.21875 " transform="matrix(1,0,0,-1,-103,649)"/>
<path style="fill:none;stroke-width:0.8;stroke-linecap:round;stroke-linejoin:round;stroke:rgb(0%,0%,0%);stroke-opacity:1;stroke-miterlimit:10;" d="M 297.359375 461.21875 C 297.359375 473.308594 287.554688 483.113281 275.464844 483.113281 C 263.375 483.113281 253.570312 473.308594 253.570312 461.21875 C 253.570312 449.128906 263.375 439.324219 275.464844 439.324219 C 287.554688 439.324219 297.359375 449.128906 297.359375 461.21875 Z M 297.359375 461.21875 " transform="matrix(1,0,0,-1,-103,649)"/>
<g style="fill:rgb(0%,0%,0%);fill-opacity:1;">
  <use xlink:href="#glyph0-2" x="167.719991" y="191.801252"/>
</g>
<path style="fill:none;stroke-width:0.8;stroke-linecap:round;stroke-linejoin:round;stroke:rgb(0%,0%,0%);stroke-opacity:1;stroke-miterlimit:10;" d="M 255.464844 470.125 L 143.566406 554.976562 " transform="matrix(1,0,0,-1,-103,649)"/>
<path style="fill-rule:evenodd;fill:rgb(0%,0%,0%);fill-opacity:1;stroke-width:0.8;stroke-linecap:round;stroke-linejoin:round;stroke:rgb(0%,0%,0%);stroke-opacity:1;stroke-miterlimit:10;" d="M 143.566406 554.976562 L 147.734375 548.886719 L 150.554688 552.601562 Z M 143.566406 554.976562 " transform="matrix(1,0,0,-1,-103,649)"/>
<path style="fill:none;stroke-width:0.8;stroke-linecap:round;stroke-linejoin:round;stroke:rgb(0%,0%,0%);stroke-opacity:1;stroke-miterlimit:10;" d="M 262.273438 478.691406 L 203.261719 552.761719 " transform="matrix(1,0,0,-1,-103,649)"/>
<path style="fill-rule:evenodd;fill:rgb(0%,0%,0%);fill-opacity:1;stroke-width:0.8;stroke-linecap:round;stroke-linejoin:round;stroke:rgb(0%,0%,0%);stroke-opacity:1;stroke-miterlimit:10;" d="M 203.261719 552.761719 L 205.800781 545.832031 L 209.445312 548.738281 Z M 203.261719 552.761719 " transform="matrix(1,0,0,-1,-103,649)"/>
<path style="fill:none;stroke-width:0.8;stroke-linecap:round;stroke-linejoin:round;stroke:rgb(0%,0%,0%);stroke-opacity:1;stroke-miterlimit:10;" d="M 272.46875 482.90625 L 260.453125 551.347656 " transform="matrix(1,0,0,-1,-103,649)"/>
<path style="fill-rule:evenodd;fill:rgb(0%,0%,0%);fill-opacity:1;stroke-width:0.8;stroke-linecap:round;stroke-linejoin:round;stroke:rgb(0%,0%,0%);stroke-opacity:1;stroke-miterlimit:10;" d="M 260.453125 551.347656 L 259.367188 544.050781 L 263.957031 544.855469 Z M 260.453125 551.347656 " transform="matrix(1,0,0,-1,-103,649)"/>
<path style="fill:none;stroke-width:0.8;stroke-linecap:round;stroke-linejoin:round;stroke:rgb(0%,0%,0%);stroke-opacity:1;stroke-miterlimit:10;" d="M 292.71875 474.695312 L 434.921875 558.882812 " transform="matrix(1,0,0,-1,-103,649)"/>
<path style="fill-rule:evenodd;fill:rgb(0%,0%,0%);fill-opacity:1;stroke-width:0.8;stroke-linecap:round;stroke-linejoin:round;stroke:rgb(0%,0%,0%);stroke-opacity:1;stroke-miterlimit:10;" d="M 434.921875 558.882812 L 427.707031 557.320312 L 430.082031 553.308594 Z M 434.921875 558.882812 " transform="matrix(1,0,0,-1,-103,649)"/>
<g style="fill:rgb(0%,0%,0%);fill-opacity:1;">
  <use xlink:href="#glyph13-1" x="57.1482" y="123.293345"/>
</g>
<g style="fill:rgb(0%,0%,0%);fill-opacity:1;">
  <use xlink:href="#glyph14-1" x="61.939037" y="126.655707"/>
</g>
<g style="fill:rgb(0%,0%,0%);fill-opacity:1;">
  <use xlink:href="#glyph15-1" x="66.231392" y="129.668219"/>
</g>
<g style="fill:rgb(0%,0%,0%);fill-opacity:1;">
  <use xlink:href="#glyph16-1" x="71.02223" y="133.030581"/>
  <use xlink:href="#glyph16-2" x="75.318132" y="136.045581"/>
  <use xlink:href="#glyph16-2" x="79.604248" y="139.053714"/>
  <use xlink:href="#glyph16-2" x="83.900149" y="142.068714"/>
  <use xlink:href="#glyph16-1" x="88.196051" y="145.083715"/>
  <use xlink:href="#glyph16-3" x="92.482167" y="148.091847"/>
</g>
<g style="fill:rgb(0%,0%,0%);fill-opacity:1;">
  <use xlink:href="#glyph17-1" x="97.324219" y="108.711794"/>
</g>
<g style="fill:rgb(0%,0%,0%);fill-opacity:1;">
  <use xlink:href="#glyph18-1" x="100.976212" y="113.285693"/>
</g>
<g style="fill:rgb(0%,0%,0%);fill-opacity:1;">
  <use xlink:href="#glyph19-1" x="104.248218" y="117.383682"/>
</g>
<g style="fill:rgb(0%,0%,0%);fill-opacity:1;">
  <use xlink:href="#glyph20-1" x="107.900212" y="121.957581"/>
</g>
<g style="fill:rgb(0%,0%,0%);fill-opacity:1;">
  <use xlink:href="#glyph21-1" x="111.172218" y="126.05557"/>
</g>
<g style="fill:rgb(0%,0%,0%);fill-opacity:1;">
  <use xlink:href="#glyph22-1" x="114.824211" y="130.629469"/>
  <use xlink:href="#glyph22-2" x="118.098921" y="134.730843"/>
  <use xlink:href="#glyph22-2" x="121.366171" y="138.822875"/>
  <use xlink:href="#glyph22-2" x="124.640881" y="142.92425"/>
  <use xlink:href="#glyph22-1" x="127.915591" y="147.025624"/>
  <use xlink:href="#glyph22-3" x="131.182841" y="151.117657"/>
</g>
<g style="fill:rgb(0%,0%,0%);fill-opacity:1;">
  <use xlink:href="#glyph23-1" x="164.508253" y="106.539735"/>
</g>
<g style="fill:rgb(0%,0%,0%);fill-opacity:1;">
  <use xlink:href="#glyph24-1" x="165.335703" y="111.154051"/>
</g>
<g style="fill:rgb(0%,0%,0%);fill-opacity:1;">
  <use xlink:href="#glyph25-1" x="166.077058" y="115.28825"/>
</g>
<g style="fill:rgb(0%,0%,0%);fill-opacity:1;">
  <use xlink:href="#glyph26-1" x="166.904507" y="119.902566"/>
</g>
<g style="fill:rgb(0%,0%,0%);fill-opacity:1;">
  <use xlink:href="#glyph27-1" x="167.645862" y="124.036766"/>
</g>
<g style="fill:rgb(0%,0%,0%);fill-opacity:1;">
  <use xlink:href="#glyph28-1" x="168.473312" y="128.651081"/>
</g>
<g style="fill:rgb(0%,0%,0%);fill-opacity:1;">
  <use xlink:href="#glyph29-1" x="169.214666" y="132.785281"/>
</g>
<g style="fill:rgb(0%,0%,0%);fill-opacity:1;">
  <use xlink:href="#glyph30-1" x="170.042116" y="137.399597"/>
  <use xlink:href="#glyph30-2" x="170.784083" y="141.537212"/>
  <use xlink:href="#glyph30-2" x="171.524359" y="145.665403"/>
  <use xlink:href="#glyph30-2" x="172.266326" y="149.803019"/>
  <use xlink:href="#glyph30-1" x="173.008293" y="153.940634"/>
  <use xlink:href="#glyph30-3" x="173.74857" y="158.068825"/>
</g>
<g style="fill:rgb(0%,0%,0%);fill-opacity:1;">
  <use xlink:href="#glyph31-1" x="222.714401" y="149.507329"/>
</g>
<g style="fill:rgb(0%,0%,0%);fill-opacity:1;">
  <use xlink:href="#glyph32-1" x="227.711815" y="146.460453"/>
</g>
<g style="fill:rgb(0%,0%,0%);fill-opacity:1;">
  <use xlink:href="#glyph33-1" x="232.189253" y="143.730601"/>
</g>
<g style="fill:rgb(0%,0%,0%);fill-opacity:1;">
  <use xlink:href="#glyph34-1" x="237.186667" y="140.683725"/>
  <use xlink:href="#glyph34-2" x="241.667804" y="137.951618"/>
  <use xlink:href="#glyph34-2" x="246.138734" y="135.225734"/>
  <use xlink:href="#glyph34-2" x="250.619871" y="132.493627"/>
  <use xlink:href="#glyph34-1" x="255.101007" y="129.76152"/>
  <use xlink:href="#glyph34-3" x="259.571937" y="127.035636"/>
</g>
<g style="fill:rgb(0%,0%,0%);fill-opacity:1;">
  <use xlink:href="#glyph35-1" x="267.383756" y="122.272844"/>
</g>
<g style="fill:rgb(0%,0%,0%);fill-opacity:1;">
  <use xlink:href="#glyph36-1" x="277.591186" y="116.049469"/>
</g>
<path style="fill:none;stroke-width:0.8;stroke-linecap:round;stroke-linejoin:round;stroke:rgb(0%,0%,0%);stroke-opacity:1;stroke-miterlimit:10;" d="M 235.234375 424.277344 C 237.394531 434.132812 244.757812 442.355469 257.332031 448.953125 " transform="matrix(1,0,0,-1,-103,649)"/>
<path style="fill-rule:evenodd;fill:rgb(0%,0%,0%);fill-opacity:1;stroke-width:0.8;stroke-linecap:round;stroke-linejoin:round;stroke:rgb(0%,0%,0%);stroke-opacity:1;stroke-miterlimit:10;" d="M 257.332031 448.953125 L 250.050781 447.765625 L 252.214844 443.636719 Z M 257.332031 448.953125 " transform="matrix(1,0,0,-1,-103,649)"/>
</g>
</svg>
