<?xml version="1.0" encoding="UTF-8"?>
<svg xmlns="http://www.w3.org/2000/svg" xmlns:xlink="http://www.w3.org/1999/xlink" width="251pt" height="231pt" viewBox="0 0 251 231" version="1.1">
<g id="surface1765">
<path style="fill-rule:evenodd;fill:rgb(0%,0%,0%);fill-opacity:1;stroke-width:1.2;stroke-linecap:round;stroke-linejoin:round;stroke:rgb(0%,0%,0%);stroke-opacity:1;stroke-miterlimit:10;" d="M 404.855469 475.214844 C 404.855469 481.117188 400.070312 485.902344 394.167969 485.902344 C 388.261719 485.902344 383.476562 481.117188 383.476562 475.214844 C 383.476562 469.3125 388.261719 464.523438 394.167969 464.523438 C 400.070312 464.523438 404.855469 469.3125 404.855469 475.214844 Z M 404.855469 475.214844 " transform="matrix(1,0,0,-1,-244,488)"/>
<path style="fill-rule:evenodd;fill:rgb(0%,0%,0%);fill-opacity:1;stroke-width:1.2;stroke-linecap:round;stroke-linejoin:round;stroke:rgb(0%,0%,0%);stroke-opacity:1;stroke-miterlimit:10;" d="M 468.855469 427.214844 C 468.855469 433.117188 464.070312 437.902344 458.167969 437.902344 C 452.261719 437.902344 447.476562 433.117188 447.476562 427.214844 C 447.476562 421.3125 452.261719 416.523438 458.167969 416.523438 C 464.070312 416.523438 468.855469 421.3125 468.855469 427.214844 Z M 468.855469 427.214844 " transform="matrix(1,0,0,-1,-244,488)"/>
<path style="fill-rule:evenodd;fill:rgb(0%,0%,0%);fill-opacity:1;stroke-width:1.2;stroke-linecap:round;stroke-linejoin:round;stroke:rgb(0%,0%,0%);stroke-opacity:1;stroke-miterlimit:10;" d="M 340.855469 427.214844 C 340.855469 433.117188 336.070312 437.902344 330.167969 437.902344 C 324.261719 437.902344 319.476562 433.117188 319.476562 427.214844 C 319.476562 421.3125 324.261719 416.523438 330.167969 416.523438 C 336.070312 416.523438 340.855469 421.3125 340.855469 427.214844 Z M 340.855469 427.214844 " transform="matrix(1,0,0,-1,-244,488)"/>
<path style="fill-rule:evenodd;fill:rgb(100%,0%,0%);fill-opacity:1;stroke-width:1.2;stroke-linecap:round;stroke-linejoin:round;stroke:rgb(0%,0%,0%);stroke-opacity:1;stroke-miterlimit:10;" d="M 308.855469 363.214844 C 308.855469 369.117188 304.070312 373.902344 298.167969 373.902344 C 292.261719 373.902344 287.476562 369.117188 287.476562 363.214844 C 287.476562 357.3125 292.261719 352.523438 298.167969 352.523438 C 304.070312 352.523438 308.855469 357.3125 308.855469 363.214844 Z M 308.855469 363.214844 " transform="matrix(1,0,0,-1,-244,488)"/>
<path style="fill:none;stroke-width:1.2;stroke-linecap:round;stroke-linejoin:round;stroke:rgb(0%,0%,0%);stroke-opacity:1;stroke-miterlimit:10;" d="M 350.605469 370.511719 L 350.605469 354.511719 L 366.605469 354.511719 L 366.605469 370.511719 Z M 350.605469 370.511719 " transform="matrix(1,0,0,-1,-244,488)"/>
<path style="fill:none;stroke-width:1.2;stroke-linecap:round;stroke-linejoin:round;stroke:rgb(0%,0%,0%);stroke-opacity:1;stroke-miterlimit:10;" d="M 430.605469 370.511719 L 430.605469 354.511719 L 446.605469 354.511719 L 446.605469 370.511719 Z M 430.605469 370.511719 " transform="matrix(1,0,0,-1,-244,488)"/>
<path style="fill:none;stroke-width:1.2;stroke-linecap:round;stroke-linejoin:round;stroke:rgb(0%,0%,0%);stroke-opacity:1;stroke-miterlimit:10;" d="M 478.609375 370.511719 L 478.609375 354.511719 L 494.609375 354.511719 L 494.609375 370.511719 Z M 478.609375 370.511719 " transform="matrix(1,0,0,-1,-244,488)"/>
<path style="fill:none;stroke-width:1.2;stroke-linecap:round;stroke-linejoin:round;stroke:rgb(0%,0%,0%);stroke-opacity:1;stroke-miterlimit:10;" d="M 302.605469 322.511719 L 302.605469 306.511719 L 318.605469 306.511719 L 318.605469 322.511719 Z M 302.605469 322.511719 " transform="matrix(1,0,0,-1,-244,488)"/>
<path style="fill:none;stroke-width:1.2;stroke-linecap:round;stroke-linejoin:round;stroke:rgb(0%,0%,0%);stroke-opacity:1;stroke-miterlimit:10;" d="M 385.578125 468.851562 L 338.339844 434.101562 " transform="matrix(1,0,0,-1,-244,488)"/>
<path style="fill:none;stroke-width:1.2;stroke-linecap:round;stroke-linejoin:round;stroke:rgb(0%,0%,0%);stroke-opacity:1;stroke-miterlimit:10;" d="M 324.746094 418 L 303.632812 372.398438 " transform="matrix(1,0,0,-1,-244,488)"/>
<path style="fill:none;stroke-width:1.2;stroke-linecap:round;stroke-linejoin:round;stroke:rgb(0%,0%,0%);stroke-opacity:1;stroke-miterlimit:10;" d="M 402.929688 469.09375 L 450.351562 434.507812 " transform="matrix(1,0,0,-1,-244,488)"/>
<path style="fill:none;stroke-width:1.2;stroke-linecap:round;stroke-linejoin:round;stroke:rgb(0%,0%,0%);stroke-opacity:1;stroke-miterlimit:10;" d="M 454.46875 417.183594 L 437.808594 370.511719 " transform="matrix(1,0,0,-1,-244,488)"/>
<path style="fill:none;stroke-width:1.2;stroke-linecap:round;stroke-linejoin:round;stroke:rgb(0%,0%,0%);stroke-opacity:1;stroke-miterlimit:10;" d="M 465.195312 419.164062 L 485.921875 370.511719 " transform="matrix(1,0,0,-1,-244,488)"/>
<path style="fill:none;stroke-width:1.2;stroke-linecap:round;stroke-linejoin:round;stroke:rgb(0%,0%,0%);stroke-opacity:1;stroke-miterlimit:10;" d="M 335.128906 417.746094 L 358.496094 370.511719 " transform="matrix(1,0,0,-1,-244,488)"/>
<path style="fill:none;stroke-width:1.2;stroke-linecap:round;stroke-linejoin:round;stroke:rgb(0%,0%,0%);stroke-opacity:1;stroke-miterlimit:10;" d="M 293.210938 353.742188 L 278.855469 322.511719 " transform="matrix(1,0,0,-1,-244,488)"/>
<path style="fill:none;stroke-width:1.2;stroke-linecap:round;stroke-linejoin:round;stroke:rgb(0%,0%,0%);stroke-opacity:1;stroke-miterlimit:10;" d="M 300.65625 352.820312 L 309.824219 322.511719 " transform="matrix(1,0,0,-1,-244,488)"/>
<path style="fill-rule:evenodd;fill:rgb(0%,0%,0%);fill-opacity:1;stroke-width:1.2;stroke-linecap:round;stroke-linejoin:round;stroke:rgb(0%,0%,0%);stroke-opacity:1;stroke-miterlimit:10;" d="M 283.34375 313.804688 C 283.34375 319.707031 278.558594 324.492188 272.65625 324.492188 C 266.753906 324.492188 261.964844 319.707031 261.964844 313.804688 C 261.964844 307.902344 266.753906 303.113281 272.65625 303.113281 C 278.558594 303.113281 283.34375 307.902344 283.34375 313.804688 Z M 283.34375 313.804688 " transform="matrix(1,0,0,-1,-244,488)"/>
<path style="fill:none;stroke-width:1.2;stroke-linecap:round;stroke-linejoin:round;stroke:rgb(0%,0%,0%);stroke-opacity:1;stroke-miterlimit:10;" d="M 245.097656 273.101562 L 245.097656 257.101562 L 261.097656 257.101562 L 261.097656 273.101562 Z M 245.097656 273.101562 " transform="matrix(1,0,0,-1,-244,488)"/>
<path style="fill:none;stroke-width:1.2;stroke-linecap:round;stroke-linejoin:round;stroke:rgb(0%,0%,0%);stroke-opacity:1;stroke-miterlimit:10;" d="M 277.097656 273.101562 L 277.097656 257.101562 L 293.097656 257.101562 L 293.097656 273.101562 Z M 277.097656 273.101562 " transform="matrix(1,0,0,-1,-244,488)"/>
<path style="fill:none;stroke-width:1.2;stroke-linecap:round;stroke-linejoin:round;stroke:rgb(0%,0%,0%);stroke-opacity:1;stroke-miterlimit:10;" d="M 267.699219 304.332031 L 253.347656 273.101562 " transform="matrix(1,0,0,-1,-244,488)"/>
<path style="fill:none;stroke-width:1.2;stroke-linecap:round;stroke-linejoin:round;stroke:rgb(0%,0%,0%);stroke-opacity:1;stroke-miterlimit:10;" d="M 275.148438 303.410156 L 284.316406 273.101562 " transform="matrix(1,0,0,-1,-244,488)"/>
</g>
</svg>
