<?xml version="1.0" encoding="UTF-8"?>
<svg xmlns="http://www.w3.org/2000/svg" xmlns:xlink="http://www.w3.org/1999/xlink" width="226pt" height="182pt" viewBox="0 0 226 182" version="1.1">
<g id="surface1525">
<path style="fill-rule:evenodd;fill:rgb(0%,0%,0%);fill-opacity:1;stroke-width:1.2;stroke-linecap:round;stroke-linejoin:round;stroke:rgb(0%,0%,0%);stroke-opacity:1;stroke-miterlimit:10;" d="M 160.171875 450.925781 C 160.171875 456.832031 155.386719 461.617188 149.480469 461.617188 C 143.578125 461.617188 138.792969 456.832031 138.792969 450.925781 C 138.792969 445.023438 143.578125 440.238281 149.480469 440.238281 C 155.386719 440.238281 160.171875 445.023438 160.171875 450.925781 Z M 160.171875 450.925781 " transform="matrix(1,0,0,-1,-25,463)"/>
<path style="fill-rule:evenodd;fill:rgb(0%,0%,0%);fill-opacity:1;stroke-width:1.2;stroke-linecap:round;stroke-linejoin:round;stroke:rgb(0%,0%,0%);stroke-opacity:1;stroke-miterlimit:10;" d="M 224.171875 402.925781 C 224.171875 408.832031 219.386719 413.617188 213.480469 413.617188 C 207.578125 413.617188 202.792969 408.832031 202.792969 402.925781 C 202.792969 397.023438 207.578125 392.238281 213.480469 392.238281 C 219.386719 392.238281 224.171875 397.023438 224.171875 402.925781 Z M 224.171875 402.925781 " transform="matrix(1,0,0,-1,-25,463)"/>
<path style="fill-rule:evenodd;fill:rgb(0%,0%,0%);fill-opacity:1;stroke-width:1.2;stroke-linecap:round;stroke-linejoin:round;stroke:rgb(0%,0%,0%);stroke-opacity:1;stroke-miterlimit:10;" d="M 96.171875 402.925781 C 96.171875 408.832031 91.386719 413.617188 85.480469 413.617188 C 79.578125 413.617188 74.792969 408.832031 74.792969 402.925781 C 74.792969 397.023438 79.578125 392.238281 85.480469 392.238281 C 91.386719 392.238281 96.171875 397.023438 96.171875 402.925781 Z M 96.171875 402.925781 " transform="matrix(1,0,0,-1,-25,463)"/>
<path style="fill-rule:evenodd;fill:rgb(100%,0%,0%);fill-opacity:1;stroke-width:1.2;stroke-linecap:round;stroke-linejoin:round;stroke:rgb(0%,0%,0%);stroke-opacity:1;stroke-miterlimit:10;" d="M 64.171875 338.925781 C 64.171875 344.832031 59.386719 349.617188 53.480469 349.617188 C 47.578125 349.617188 42.792969 344.832031 42.792969 338.925781 C 42.792969 333.023438 47.578125 328.238281 53.480469 328.238281 C 59.386719 328.238281 64.171875 333.023438 64.171875 338.925781 Z M 64.171875 338.925781 " transform="matrix(1,0,0,-1,-25,463)"/>
<path style="fill:none;stroke-width:1.2;stroke-linecap:round;stroke-linejoin:round;stroke:rgb(0%,0%,0%);stroke-opacity:1;stroke-miterlimit:10;" d="M 105.921875 346.226562 L 105.921875 330.226562 L 121.921875 330.226562 L 121.921875 346.226562 Z M 105.921875 346.226562 " transform="matrix(1,0,0,-1,-25,463)"/>
<path style="fill:none;stroke-width:1.2;stroke-linecap:round;stroke-linejoin:round;stroke:rgb(0%,0%,0%);stroke-opacity:1;stroke-miterlimit:10;" d="M 185.921875 346.226562 L 185.921875 330.226562 L 201.921875 330.226562 L 201.921875 346.226562 Z M 185.921875 346.226562 " transform="matrix(1,0,0,-1,-25,463)"/>
<path style="fill:none;stroke-width:1.2;stroke-linecap:round;stroke-linejoin:round;stroke:rgb(0%,0%,0%);stroke-opacity:1;stroke-miterlimit:10;" d="M 233.921875 346.226562 L 233.921875 330.226562 L 249.921875 330.226562 L 249.921875 346.226562 Z M 233.921875 346.226562 " transform="matrix(1,0,0,-1,-25,463)"/>
<path style="fill:none;stroke-width:1.2;stroke-linecap:round;stroke-linejoin:round;stroke:rgb(0%,0%,0%);stroke-opacity:1;stroke-miterlimit:10;" d="M 25.921875 298.226562 L 25.921875 282.226562 L 41.921875 282.226562 L 41.921875 298.226562 Z M 25.921875 298.226562 " transform="matrix(1,0,0,-1,-25,463)"/>
<path style="fill:none;stroke-width:1.2;stroke-linecap:round;stroke-linejoin:round;stroke:rgb(0%,0%,0%);stroke-opacity:1;stroke-miterlimit:10;" d="M 57.921875 298.226562 L 57.921875 282.226562 L 73.921875 282.226562 L 73.921875 298.226562 Z M 57.921875 298.226562 " transform="matrix(1,0,0,-1,-25,463)"/>
<path style="fill:none;stroke-width:1.2;stroke-linecap:round;stroke-linejoin:round;stroke:rgb(0%,0%,0%);stroke-opacity:1;stroke-miterlimit:10;" d="M 140.890625 444.566406 L 93.65625 409.816406 " transform="matrix(1,0,0,-1,-25,463)"/>
<path style="fill:none;stroke-width:1.2;stroke-linecap:round;stroke-linejoin:round;stroke:rgb(0%,0%,0%);stroke-opacity:1;stroke-miterlimit:10;" d="M 80.0625 393.714844 L 58.949219 348.113281 " transform="matrix(1,0,0,-1,-25,463)"/>
<path style="fill:none;stroke-width:1.2;stroke-linecap:round;stroke-linejoin:round;stroke:rgb(0%,0%,0%);stroke-opacity:1;stroke-miterlimit:10;" d="M 158.246094 444.808594 L 205.667969 410.222656 " transform="matrix(1,0,0,-1,-25,463)"/>
<path style="fill:none;stroke-width:1.2;stroke-linecap:round;stroke-linejoin:round;stroke:rgb(0%,0%,0%);stroke-opacity:1;stroke-miterlimit:10;" d="M 209.785156 392.898438 L 193.125 346.226562 " transform="matrix(1,0,0,-1,-25,463)"/>
<path style="fill:none;stroke-width:1.2;stroke-linecap:round;stroke-linejoin:round;stroke:rgb(0%,0%,0%);stroke-opacity:1;stroke-miterlimit:10;" d="M 220.511719 394.875 L 241.238281 346.226562 " transform="matrix(1,0,0,-1,-25,463)"/>
<path style="fill:none;stroke-width:1.2;stroke-linecap:round;stroke-linejoin:round;stroke:rgb(0%,0%,0%);stroke-opacity:1;stroke-miterlimit:10;" d="M 90.445312 393.460938 L 113.8125 346.226562 " transform="matrix(1,0,0,-1,-25,463)"/>
<path style="fill:none;stroke-width:1.2;stroke-linecap:round;stroke-linejoin:round;stroke:rgb(0%,0%,0%);stroke-opacity:1;stroke-miterlimit:10;" d="M 48.527344 329.457031 L 34.171875 298.226562 " transform="matrix(1,0,0,-1,-25,463)"/>
<path style="fill:none;stroke-width:1.2;stroke-linecap:round;stroke-linejoin:round;stroke:rgb(0%,0%,0%);stroke-opacity:1;stroke-miterlimit:10;" d="M 55.972656 328.53125 L 65.140625 298.226562 " transform="matrix(1,0,0,-1,-25,463)"/>
</g>
</svg>
