<?xml version="1.0" encoding="UTF-8"?>
<svg xmlns="http://www.w3.org/2000/svg" xmlns:xlink="http://www.w3.org/1999/xlink" width="310pt" height="30pt" viewBox="0 0 310 30" version="1.1">
<defs>
<g>
<symbol overflow="visible" id="glyph0-0">
<path style="stroke:none;" d=""/>
</symbol>
<symbol overflow="visible" id="glyph0-1">
<path style="stroke:none;" d="M 6.4375 -6.921875 C 6.4375 -6.953125 6.40625 -7.03125 6.3125 -7.03125 C 6.265625 -7.03125 6.265625 -7.015625 6.140625 -6.875 L 5.65625 -6.3125 C 5.40625 -6.78125 4.890625 -7.03125 4.234375 -7.03125 C 2.96875 -7.03125 1.78125 -5.875 1.78125 -4.671875 C 1.78125 -3.875 2.296875 -3.40625 2.8125 -3.265625 L 3.875 -2.984375 C 4.25 -2.890625 4.796875 -2.734375 4.796875 -1.921875 C 4.796875 -1.03125 3.984375 -0.09375 3 -0.09375 C 2.359375 -0.09375 1.25 -0.3125 1.25 -1.546875 C 1.25 -1.78125 1.3125 -2.03125 1.3125 -2.078125 C 1.328125 -2.125 1.328125 -2.140625 1.328125 -2.15625 C 1.328125 -2.25 1.265625 -2.265625 1.21875 -2.265625 C 1.171875 -2.265625 1.140625 -2.25 1.109375 -2.21875 C 1.078125 -2.1875 0.515625 0.09375 0.515625 0.125 C 0.515625 0.171875 0.5625 0.21875 0.625 0.21875 C 0.671875 0.21875 0.6875 0.203125 0.8125 0.0625 L 1.296875 -0.5 C 1.71875 0.078125 2.40625 0.21875 2.984375 0.21875 C 4.34375 0.21875 5.515625 -1.109375 5.515625 -2.34375 C 5.515625 -3.03125 5.171875 -3.375 5.03125 -3.515625 C 4.796875 -3.734375 4.640625 -3.78125 3.765625 -4 C 3.53125 -4.0625 3.1875 -4.171875 3.09375 -4.1875 C 2.828125 -4.28125 2.484375 -4.5625 2.484375 -5.09375 C 2.484375 -5.90625 3.28125 -6.75 4.234375 -6.75 C 5.046875 -6.75 5.65625 -6.3125 5.65625 -5.203125 C 5.65625 -4.890625 5.625 -4.703125 5.625 -4.640625 C 5.625 -4.640625 5.625 -4.546875 5.734375 -4.546875 C 5.84375 -4.546875 5.859375 -4.578125 5.890625 -4.75 Z M 6.4375 -6.921875 "/>
</symbol>
<symbol overflow="visible" id="glyph1-0">
<path style="stroke:none;" d=""/>
</symbol>
<symbol overflow="visible" id="glyph1-1">
<path style="stroke:none;" d="M 2.328125 -4.4375 C 2.328125 -4.625 2.328125 -4.625 2.125 -4.625 C 1.671875 -4.1875 1.046875 -4.1875 0.765625 -4.1875 L 0.765625 -3.9375 C 0.921875 -3.9375 1.390625 -3.9375 1.765625 -4.125 L 1.765625 -0.578125 C 1.765625 -0.34375 1.765625 -0.25 1.078125 -0.25 L 0.8125 -0.25 L 0.8125 0 C 0.9375 0 1.796875 -0.03125 2.046875 -0.03125 C 2.265625 -0.03125 3.140625 0 3.296875 0 L 3.296875 -0.25 L 3.03125 -0.25 C 2.328125 -0.25 2.328125 -0.34375 2.328125 -0.578125 Z M 2.328125 -4.4375 "/>
</symbol>
<symbol overflow="visible" id="glyph2-0">
<path style="stroke:none;" d=""/>
</symbol>
<symbol overflow="visible" id="glyph2-1">
<path style="stroke:none;" d="M 7.234375 -3.265625 C 7.65625 -2.90625 8.171875 -2.640625 8.5 -2.5 C 8.140625 -2.328125 7.640625 -2.078125 7.234375 -1.71875 L 0.90625 -1.71875 C 0.734375 -1.71875 0.546875 -1.71875 0.546875 -1.53125 C 0.546875 -1.328125 0.734375 -1.328125 0.890625 -1.328125 L 6.78125 -1.328125 C 6.3125 -0.875 5.796875 0.015625 5.796875 0.140625 C 5.796875 0.25 5.921875 0.25 5.984375 0.25 C 6.0625 0.25 6.125 0.25 6.171875 0.171875 C 6.375 -0.203125 6.65625 -0.734375 7.3125 -1.3125 C 8 -1.921875 8.65625 -2.1875 9.1875 -2.34375 C 9.34375 -2.40625 9.359375 -2.40625 9.375 -2.4375 C 9.40625 -2.4375 9.40625 -2.46875 9.40625 -2.5 C 9.40625 -2.515625 9.40625 -2.53125 9.390625 -2.546875 L 9.359375 -2.578125 C 9.34375 -2.578125 9.328125 -2.59375 9.140625 -2.65625 C 7.796875 -3.046875 6.796875 -3.953125 6.234375 -5.03125 C 6.125 -5.21875 6.125 -5.234375 5.984375 -5.234375 C 5.921875 -5.234375 5.796875 -5.234375 5.796875 -5.125 C 5.796875 -5 6.296875 -4.125 6.78125 -3.65625 L 0.890625 -3.65625 C 0.734375 -3.65625 0.546875 -3.65625 0.546875 -3.453125 C 0.546875 -3.265625 0.734375 -3.265625 0.90625 -3.265625 Z M 7.234375 -3.265625 "/>
</symbol>
<symbol overflow="visible" id="glyph3-0">
<path style="stroke:none;" d=""/>
</symbol>
<symbol overflow="visible" id="glyph3-1">
<path style="stroke:none;" d="M 3.71875 -3.765625 C 3.53125 -4.140625 3.25 -4.40625 2.796875 -4.40625 C 1.640625 -4.40625 0.40625 -2.9375 0.40625 -1.484375 C 0.40625 -0.546875 0.953125 0.109375 1.71875 0.109375 C 1.921875 0.109375 2.421875 0.0625 3.015625 -0.640625 C 3.09375 -0.21875 3.453125 0.109375 3.921875 0.109375 C 4.28125 0.109375 4.5 -0.125 4.671875 -0.4375 C 4.828125 -0.796875 4.96875 -1.40625 4.96875 -1.421875 C 4.96875 -1.53125 4.875 -1.53125 4.84375 -1.53125 C 4.75 -1.53125 4.734375 -1.484375 4.703125 -1.34375 C 4.53125 -0.703125 4.359375 -0.109375 3.953125 -0.109375 C 3.671875 -0.109375 3.65625 -0.375 3.65625 -0.5625 C 3.65625 -0.78125 3.671875 -0.875 3.78125 -1.3125 C 3.890625 -1.71875 3.90625 -1.828125 4 -2.203125 L 4.359375 -3.59375 C 4.421875 -3.875 4.421875 -3.890625 4.421875 -3.9375 C 4.421875 -4.109375 4.3125 -4.203125 4.140625 -4.203125 C 3.890625 -4.203125 3.75 -3.984375 3.71875 -3.765625 Z M 3.078125 -1.1875 C 3.015625 -1 3.015625 -0.984375 2.875 -0.8125 C 2.4375 -0.265625 2.03125 -0.109375 1.75 -0.109375 C 1.25 -0.109375 1.109375 -0.65625 1.109375 -1.046875 C 1.109375 -1.546875 1.421875 -2.765625 1.65625 -3.234375 C 1.96875 -3.8125 2.40625 -4.1875 2.8125 -4.1875 C 3.453125 -4.1875 3.59375 -3.375 3.59375 -3.3125 C 3.59375 -3.25 3.578125 -3.1875 3.5625 -3.140625 Z M 3.078125 -1.1875 "/>
</symbol>
<symbol overflow="visible" id="glyph3-2">
<path style="stroke:none;" d="M 6.4375 -6.921875 C 6.4375 -6.953125 6.40625 -7.03125 6.3125 -7.03125 C 6.265625 -7.03125 6.265625 -7.015625 6.140625 -6.875 L 5.65625 -6.3125 C 5.40625 -6.78125 4.890625 -7.03125 4.234375 -7.03125 C 2.96875 -7.03125 1.78125 -5.875 1.78125 -4.671875 C 1.78125 -3.875 2.296875 -3.40625 2.8125 -3.265625 L 3.875 -2.984375 C 4.25 -2.890625 4.796875 -2.734375 4.796875 -1.921875 C 4.796875 -1.03125 3.984375 -0.09375 3 -0.09375 C 2.359375 -0.09375 1.25 -0.3125 1.25 -1.546875 C 1.25 -1.78125 1.3125 -2.03125 1.3125 -2.078125 C 1.328125 -2.125 1.328125 -2.140625 1.328125 -2.15625 C 1.328125 -2.25 1.265625 -2.265625 1.21875 -2.265625 C 1.171875 -2.265625 1.140625 -2.25 1.109375 -2.21875 C 1.078125 -2.1875 0.515625 0.09375 0.515625 0.125 C 0.515625 0.171875 0.5625 0.21875 0.625 0.21875 C 0.671875 0.21875 0.6875 0.203125 0.8125 0.0625 L 1.296875 -0.5 C 1.71875 0.078125 2.40625 0.21875 2.984375 0.21875 C 4.34375 0.21875 5.515625 -1.109375 5.515625 -2.34375 C 5.515625 -3.03125 5.171875 -3.375 5.03125 -3.515625 C 4.796875 -3.734375 4.640625 -3.78125 3.765625 -4 C 3.53125 -4.0625 3.1875 -4.171875 3.09375 -4.1875 C 2.828125 -4.28125 2.484375 -4.5625 2.484375 -5.09375 C 2.484375 -5.90625 3.28125 -6.75 4.234375 -6.75 C 5.046875 -6.75 5.65625 -6.3125 5.65625 -5.203125 C 5.65625 -4.890625 5.625 -4.703125 5.625 -4.640625 C 5.625 -4.640625 5.625 -4.546875 5.734375 -4.546875 C 5.84375 -4.546875 5.859375 -4.578125 5.890625 -4.75 Z M 6.4375 -6.921875 "/>
</symbol>
<symbol overflow="visible" id="glyph3-3">
<path style="stroke:none;" d="M 2.375 -6.8125 C 2.375 -6.8125 2.375 -6.921875 2.25 -6.921875 C 2.03125 -6.921875 1.296875 -6.84375 1.03125 -6.8125 C 0.953125 -6.8125 0.84375 -6.796875 0.84375 -6.625 C 0.84375 -6.5 0.9375 -6.5 1.09375 -6.5 C 1.5625 -6.5 1.578125 -6.4375 1.578125 -6.328125 C 1.578125 -6.265625 1.5 -5.921875 1.453125 -5.71875 L 0.625 -2.46875 C 0.515625 -1.96875 0.46875 -1.796875 0.46875 -1.453125 C 0.46875 -0.515625 1 0.109375 1.734375 0.109375 C 2.90625 0.109375 4.140625 -1.375 4.140625 -2.8125 C 4.140625 -3.71875 3.609375 -4.40625 2.8125 -4.40625 C 2.359375 -4.40625 1.9375 -4.109375 1.640625 -3.8125 Z M 1.453125 -3.046875 C 1.5 -3.265625 1.5 -3.28125 1.59375 -3.390625 C 2.078125 -4.03125 2.53125 -4.1875 2.796875 -4.1875 C 3.15625 -4.1875 3.421875 -3.890625 3.421875 -3.25 C 3.421875 -2.65625 3.09375 -1.515625 2.90625 -1.140625 C 2.578125 -0.46875 2.125 -0.109375 1.734375 -0.109375 C 1.390625 -0.109375 1.0625 -0.375 1.0625 -1.109375 C 1.0625 -1.3125 1.0625 -1.5 1.21875 -2.125 Z M 1.453125 -3.046875 "/>
</symbol>
<symbol overflow="visible" id="glyph4-0">
<path style="stroke:none;" d=""/>
</symbol>
<symbol overflow="visible" id="glyph4-1">
<path style="stroke:none;" d="M 1.90625 -2.328125 C 2.453125 -2.328125 2.84375 -1.953125 2.84375 -1.203125 C 2.84375 -0.34375 2.328125 -0.078125 1.9375 -0.078125 C 1.65625 -0.078125 1.03125 -0.15625 0.75 -0.578125 C 1.078125 -0.578125 1.15625 -0.8125 1.15625 -0.96875 C 1.15625 -1.1875 0.984375 -1.34375 0.765625 -1.34375 C 0.578125 -1.34375 0.375 -1.21875 0.375 -0.9375 C 0.375 -0.28125 1.09375 0.140625 1.9375 0.140625 C 2.90625 0.140625 3.578125 -0.515625 3.578125 -1.203125 C 3.578125 -1.75 3.140625 -2.296875 2.375 -2.453125 C 3.09375 -2.71875 3.359375 -3.234375 3.359375 -3.671875 C 3.359375 -4.21875 2.734375 -4.625 1.953125 -4.625 C 1.1875 -4.625 0.59375 -4.25 0.59375 -3.6875 C 0.59375 -3.453125 0.75 -3.328125 0.953125 -3.328125 C 1.171875 -3.328125 1.3125 -3.484375 1.3125 -3.671875 C 1.3125 -3.875 1.171875 -4.03125 0.953125 -4.046875 C 1.203125 -4.34375 1.671875 -4.421875 1.9375 -4.421875 C 2.25 -4.421875 2.6875 -4.265625 2.6875 -3.671875 C 2.6875 -3.375 2.59375 -3.046875 2.40625 -2.84375 C 2.1875 -2.578125 1.984375 -2.5625 1.640625 -2.53125 C 1.46875 -2.515625 1.453125 -2.515625 1.421875 -2.515625 C 1.40625 -2.515625 1.34375 -2.5 1.34375 -2.421875 C 1.34375 -2.328125 1.40625 -2.328125 1.53125 -2.328125 Z M 1.90625 -2.328125 "/>
</symbol>
<symbol overflow="visible" id="glyph5-0">
<path style="stroke:none;" d=""/>
</symbol>
<symbol overflow="visible" id="glyph5-1">
<path style="stroke:none;" d="M 7.234375 -3.265625 C 7.65625 -2.90625 8.171875 -2.640625 8.5 -2.5 C 8.140625 -2.328125 7.640625 -2.078125 7.234375 -1.71875 L 0.90625 -1.71875 C 0.734375 -1.71875 0.546875 -1.71875 0.546875 -1.53125 C 0.546875 -1.328125 0.734375 -1.328125 0.890625 -1.328125 L 6.78125 -1.328125 C 6.3125 -0.875 5.796875 0.015625 5.796875 0.140625 C 5.796875 0.25 5.921875 0.25 5.984375 0.25 C 6.0625 0.25 6.125 0.25 6.171875 0.171875 C 6.375 -0.203125 6.65625 -0.734375 7.3125 -1.3125 C 8 -1.921875 8.65625 -2.1875 9.1875 -2.34375 C 9.34375 -2.40625 9.359375 -2.40625 9.375 -2.4375 C 9.40625 -2.4375 9.40625 -2.46875 9.40625 -2.5 C 9.40625 -2.515625 9.40625 -2.53125 9.390625 -2.546875 L 9.359375 -2.578125 C 9.34375 -2.578125 9.328125 -2.59375 9.140625 -2.65625 C 7.796875 -3.046875 6.796875 -3.953125 6.234375 -5.03125 C 6.125 -5.21875 6.125 -5.234375 5.984375 -5.234375 C 5.921875 -5.234375 5.796875 -5.234375 5.796875 -5.125 C 5.796875 -5 6.296875 -4.125 6.78125 -3.65625 L 0.890625 -3.65625 C 0.734375 -3.65625 0.546875 -3.65625 0.546875 -3.453125 C 0.546875 -3.265625 0.734375 -3.265625 0.90625 -3.265625 Z M 7.234375 -3.265625 "/>
</symbol>
<symbol overflow="visible" id="glyph6-0">
<path style="stroke:none;" d=""/>
</symbol>
<symbol overflow="visible" id="glyph6-1">
<path style="stroke:none;" d="M 3.71875 -3.765625 C 3.53125 -4.140625 3.25 -4.40625 2.796875 -4.40625 C 1.640625 -4.40625 0.40625 -2.9375 0.40625 -1.484375 C 0.40625 -0.546875 0.953125 0.109375 1.71875 0.109375 C 1.921875 0.109375 2.421875 0.0625 3.015625 -0.640625 C 3.09375 -0.21875 3.453125 0.109375 3.921875 0.109375 C 4.28125 0.109375 4.5 -0.125 4.671875 -0.4375 C 4.828125 -0.796875 4.96875 -1.40625 4.96875 -1.421875 C 4.96875 -1.53125 4.875 -1.53125 4.84375 -1.53125 C 4.75 -1.53125 4.734375 -1.484375 4.703125 -1.34375 C 4.53125 -0.703125 4.359375 -0.109375 3.953125 -0.109375 C 3.671875 -0.109375 3.65625 -0.375 3.65625 -0.5625 C 3.65625 -0.78125 3.671875 -0.875 3.78125 -1.3125 C 3.890625 -1.71875 3.90625 -1.828125 4 -2.203125 L 4.359375 -3.59375 C 4.421875 -3.875 4.421875 -3.890625 4.421875 -3.9375 C 4.421875 -4.109375 4.3125 -4.203125 4.140625 -4.203125 C 3.890625 -4.203125 3.75 -3.984375 3.71875 -3.765625 Z M 3.078125 -1.1875 C 3.015625 -1 3.015625 -0.984375 2.875 -0.8125 C 2.4375 -0.265625 2.03125 -0.109375 1.75 -0.109375 C 1.25 -0.109375 1.109375 -0.65625 1.109375 -1.046875 C 1.109375 -1.546875 1.421875 -2.765625 1.65625 -3.234375 C 1.96875 -3.8125 2.40625 -4.1875 2.8125 -4.1875 C 3.453125 -4.1875 3.59375 -3.375 3.59375 -3.3125 C 3.59375 -3.25 3.578125 -3.1875 3.5625 -3.140625 Z M 3.078125 -1.1875 "/>
</symbol>
<symbol overflow="visible" id="glyph6-2">
<path style="stroke:none;" d="M 2.375 -6.8125 C 2.375 -6.8125 2.375 -6.921875 2.25 -6.921875 C 2.03125 -6.921875 1.296875 -6.84375 1.03125 -6.8125 C 0.953125 -6.8125 0.84375 -6.796875 0.84375 -6.625 C 0.84375 -6.5 0.9375 -6.5 1.09375 -6.5 C 1.5625 -6.5 1.578125 -6.4375 1.578125 -6.328125 C 1.578125 -6.265625 1.5 -5.921875 1.453125 -5.71875 L 0.625 -2.46875 C 0.515625 -1.96875 0.46875 -1.796875 0.46875 -1.453125 C 0.46875 -0.515625 1 0.109375 1.734375 0.109375 C 2.90625 0.109375 4.140625 -1.375 4.140625 -2.8125 C 4.140625 -3.71875 3.609375 -4.40625 2.8125 -4.40625 C 2.359375 -4.40625 1.9375 -4.109375 1.640625 -3.8125 Z M 1.453125 -3.046875 C 1.5 -3.265625 1.5 -3.28125 1.59375 -3.390625 C 2.078125 -4.03125 2.53125 -4.1875 2.796875 -4.1875 C 3.15625 -4.1875 3.421875 -3.890625 3.421875 -3.25 C 3.421875 -2.65625 3.09375 -1.515625 2.90625 -1.140625 C 2.578125 -0.46875 2.125 -0.109375 1.734375 -0.109375 C 1.390625 -0.109375 1.0625 -0.375 1.0625 -1.109375 C 1.0625 -1.3125 1.0625 -1.5 1.21875 -2.125 Z M 1.453125 -3.046875 "/>
</symbol>
<symbol overflow="visible" id="glyph6-3">
<path style="stroke:none;" d="M 6.4375 -6.921875 C 6.4375 -6.953125 6.40625 -7.03125 6.3125 -7.03125 C 6.265625 -7.03125 6.265625 -7.015625 6.140625 -6.875 L 5.65625 -6.3125 C 5.40625 -6.78125 4.890625 -7.03125 4.234375 -7.03125 C 2.96875 -7.03125 1.78125 -5.875 1.78125 -4.671875 C 1.78125 -3.875 2.296875 -3.40625 2.8125 -3.265625 L 3.875 -2.984375 C 4.25 -2.890625 4.796875 -2.734375 4.796875 -1.921875 C 4.796875 -1.03125 3.984375 -0.09375 3 -0.09375 C 2.359375 -0.09375 1.25 -0.3125 1.25 -1.546875 C 1.25 -1.78125 1.3125 -2.03125 1.3125 -2.078125 C 1.328125 -2.125 1.328125 -2.140625 1.328125 -2.15625 C 1.328125 -2.25 1.265625 -2.265625 1.21875 -2.265625 C 1.171875 -2.265625 1.140625 -2.25 1.109375 -2.21875 C 1.078125 -2.1875 0.515625 0.09375 0.515625 0.125 C 0.515625 0.171875 0.5625 0.21875 0.625 0.21875 C 0.671875 0.21875 0.6875 0.203125 0.8125 0.0625 L 1.296875 -0.5 C 1.71875 0.078125 2.40625 0.21875 2.984375 0.21875 C 4.34375 0.21875 5.515625 -1.109375 5.515625 -2.34375 C 5.515625 -3.03125 5.171875 -3.375 5.03125 -3.515625 C 4.796875 -3.734375 4.640625 -3.78125 3.765625 -4 C 3.53125 -4.0625 3.1875 -4.171875 3.09375 -4.1875 C 2.828125 -4.28125 2.484375 -4.5625 2.484375 -5.09375 C 2.484375 -5.90625 3.28125 -6.75 4.234375 -6.75 C 5.046875 -6.75 5.65625 -6.3125 5.65625 -5.203125 C 5.65625 -4.890625 5.625 -4.703125 5.625 -4.640625 C 5.625 -4.640625 5.625 -4.546875 5.734375 -4.546875 C 5.84375 -4.546875 5.859375 -4.578125 5.890625 -4.75 Z M 6.4375 -6.921875 "/>
</symbol>
<symbol overflow="visible" id="glyph7-0">
<path style="stroke:none;" d=""/>
</symbol>
<symbol overflow="visible" id="glyph7-1">
<path style="stroke:none;" d="M 3.515625 -1.265625 L 3.28125 -1.265625 C 3.265625 -1.109375 3.1875 -0.703125 3.09375 -0.640625 C 3.046875 -0.59375 2.515625 -0.59375 2.40625 -0.59375 L 1.125 -0.59375 C 1.859375 -1.234375 2.109375 -1.4375 2.515625 -1.765625 C 3.03125 -2.171875 3.515625 -2.609375 3.515625 -3.265625 C 3.515625 -4.109375 2.78125 -4.625 1.890625 -4.625 C 1.03125 -4.625 0.4375 -4.015625 0.4375 -3.375 C 0.4375 -3.03125 0.734375 -2.984375 0.8125 -2.984375 C 0.96875 -2.984375 1.171875 -3.109375 1.171875 -3.359375 C 1.171875 -3.484375 1.125 -3.734375 0.765625 -3.734375 C 0.984375 -4.21875 1.453125 -4.375 1.78125 -4.375 C 2.484375 -4.375 2.84375 -3.828125 2.84375 -3.265625 C 2.84375 -2.65625 2.40625 -2.1875 2.1875 -1.9375 L 0.515625 -0.265625 C 0.4375 -0.203125 0.4375 -0.1875 0.4375 0 L 3.3125 0 Z M 3.515625 -1.265625 "/>
</symbol>
<symbol overflow="visible" id="glyph8-0">
<path style="stroke:none;" d=""/>
</symbol>
<symbol overflow="visible" id="glyph8-1">
<path style="stroke:none;" d="M 7.234375 -3.265625 C 7.65625 -2.90625 8.171875 -2.640625 8.5 -2.5 C 8.140625 -2.328125 7.640625 -2.078125 7.234375 -1.71875 L 0.90625 -1.71875 C 0.734375 -1.71875 0.546875 -1.71875 0.546875 -1.53125 C 0.546875 -1.328125 0.734375 -1.328125 0.890625 -1.328125 L 6.78125 -1.328125 C 6.3125 -0.875 5.796875 0.015625 5.796875 0.140625 C 5.796875 0.25 5.921875 0.25 5.984375 0.25 C 6.0625 0.25 6.125 0.25 6.171875 0.171875 C 6.375 -0.203125 6.65625 -0.734375 7.3125 -1.3125 C 8 -1.921875 8.65625 -2.1875 9.1875 -2.34375 C 9.34375 -2.40625 9.359375 -2.40625 9.375 -2.4375 C 9.40625 -2.4375 9.40625 -2.46875 9.40625 -2.5 C 9.40625 -2.515625 9.40625 -2.53125 9.390625 -2.546875 L 9.359375 -2.578125 C 9.34375 -2.578125 9.328125 -2.59375 9.140625 -2.65625 C 7.796875 -3.046875 6.796875 -3.953125 6.234375 -5.03125 C 6.125 -5.21875 6.125 -5.234375 5.984375 -5.234375 C 5.921875 -5.234375 5.796875 -5.234375 5.796875 -5.125 C 5.796875 -5 6.296875 -4.125 6.78125 -3.65625 L 0.890625 -3.65625 C 0.734375 -3.65625 0.546875 -3.65625 0.546875 -3.453125 C 0.546875 -3.265625 0.734375 -3.265625 0.90625 -3.265625 Z M 7.234375 -3.265625 "/>
</symbol>
<symbol overflow="visible" id="glyph9-0">
<path style="stroke:none;" d=""/>
</symbol>
<symbol overflow="visible" id="glyph9-1">
<path style="stroke:none;" d="M 3.71875 -3.765625 C 3.53125 -4.140625 3.25 -4.40625 2.796875 -4.40625 C 1.640625 -4.40625 0.40625 -2.9375 0.40625 -1.484375 C 0.40625 -0.546875 0.953125 0.109375 1.71875 0.109375 C 1.921875 0.109375 2.421875 0.0625 3.015625 -0.640625 C 3.09375 -0.21875 3.453125 0.109375 3.921875 0.109375 C 4.28125 0.109375 4.5 -0.125 4.671875 -0.4375 C 4.828125 -0.796875 4.96875 -1.40625 4.96875 -1.421875 C 4.96875 -1.53125 4.875 -1.53125 4.84375 -1.53125 C 4.75 -1.53125 4.734375 -1.484375 4.703125 -1.34375 C 4.53125 -0.703125 4.359375 -0.109375 3.953125 -0.109375 C 3.671875 -0.109375 3.65625 -0.375 3.65625 -0.5625 C 3.65625 -0.78125 3.671875 -0.875 3.78125 -1.3125 C 3.890625 -1.71875 3.90625 -1.828125 4 -2.203125 L 4.359375 -3.59375 C 4.421875 -3.875 4.421875 -3.890625 4.421875 -3.9375 C 4.421875 -4.109375 4.3125 -4.203125 4.140625 -4.203125 C 3.890625 -4.203125 3.75 -3.984375 3.71875 -3.765625 Z M 3.078125 -1.1875 C 3.015625 -1 3.015625 -0.984375 2.875 -0.8125 C 2.4375 -0.265625 2.03125 -0.109375 1.75 -0.109375 C 1.25 -0.109375 1.109375 -0.65625 1.109375 -1.046875 C 1.109375 -1.546875 1.421875 -2.765625 1.65625 -3.234375 C 1.96875 -3.8125 2.40625 -4.1875 2.8125 -4.1875 C 3.453125 -4.1875 3.59375 -3.375 3.59375 -3.3125 C 3.59375 -3.25 3.578125 -3.1875 3.5625 -3.140625 Z M 3.078125 -1.1875 "/>
</symbol>
<symbol overflow="visible" id="glyph9-2">
<path style="stroke:none;" d="M 2.375 -6.8125 C 2.375 -6.8125 2.375 -6.921875 2.25 -6.921875 C 2.03125 -6.921875 1.296875 -6.84375 1.03125 -6.8125 C 0.953125 -6.8125 0.84375 -6.796875 0.84375 -6.625 C 0.84375 -6.5 0.9375 -6.5 1.09375 -6.5 C 1.5625 -6.5 1.578125 -6.4375 1.578125 -6.328125 C 1.578125 -6.265625 1.5 -5.921875 1.453125 -5.71875 L 0.625 -2.46875 C 0.515625 -1.96875 0.46875 -1.796875 0.46875 -1.453125 C 0.46875 -0.515625 1 0.109375 1.734375 0.109375 C 2.90625 0.109375 4.140625 -1.375 4.140625 -2.8125 C 4.140625 -3.71875 3.609375 -4.40625 2.8125 -4.40625 C 2.359375 -4.40625 1.9375 -4.109375 1.640625 -3.8125 Z M 1.453125 -3.046875 C 1.5 -3.265625 1.5 -3.28125 1.59375 -3.390625 C 2.078125 -4.03125 2.53125 -4.1875 2.796875 -4.1875 C 3.15625 -4.1875 3.421875 -3.890625 3.421875 -3.25 C 3.421875 -2.65625 3.09375 -1.515625 2.90625 -1.140625 C 2.578125 -0.46875 2.125 -0.109375 1.734375 -0.109375 C 1.390625 -0.109375 1.0625 -0.375 1.0625 -1.109375 C 1.0625 -1.3125 1.0625 -1.5 1.21875 -2.125 Z M 1.453125 -3.046875 "/>
</symbol>
<symbol overflow="visible" id="glyph9-3">
<path style="stroke:none;" d="M 6.4375 -6.921875 C 6.4375 -6.953125 6.40625 -7.03125 6.3125 -7.03125 C 6.265625 -7.03125 6.265625 -7.015625 6.140625 -6.875 L 5.65625 -6.3125 C 5.40625 -6.78125 4.890625 -7.03125 4.234375 -7.03125 C 2.96875 -7.03125 1.78125 -5.875 1.78125 -4.671875 C 1.78125 -3.875 2.296875 -3.40625 2.8125 -3.265625 L 3.875 -2.984375 C 4.25 -2.890625 4.796875 -2.734375 4.796875 -1.921875 C 4.796875 -1.03125 3.984375 -0.09375 3 -0.09375 C 2.359375 -0.09375 1.25 -0.3125 1.25 -1.546875 C 1.25 -1.78125 1.3125 -2.03125 1.3125 -2.078125 C 1.328125 -2.125 1.328125 -2.140625 1.328125 -2.15625 C 1.328125 -2.25 1.265625 -2.265625 1.21875 -2.265625 C 1.171875 -2.265625 1.140625 -2.25 1.109375 -2.21875 C 1.078125 -2.1875 0.515625 0.09375 0.515625 0.125 C 0.515625 0.171875 0.5625 0.21875 0.625 0.21875 C 0.671875 0.21875 0.6875 0.203125 0.8125 0.0625 L 1.296875 -0.5 C 1.71875 0.078125 2.40625 0.21875 2.984375 0.21875 C 4.34375 0.21875 5.515625 -1.109375 5.515625 -2.34375 C 5.515625 -3.03125 5.171875 -3.375 5.03125 -3.515625 C 4.796875 -3.734375 4.640625 -3.78125 3.765625 -4 C 3.53125 -4.0625 3.1875 -4.171875 3.09375 -4.1875 C 2.828125 -4.28125 2.484375 -4.5625 2.484375 -5.09375 C 2.484375 -5.90625 3.28125 -6.75 4.234375 -6.75 C 5.046875 -6.75 5.65625 -6.3125 5.65625 -5.203125 C 5.65625 -4.890625 5.625 -4.703125 5.625 -4.640625 C 5.625 -4.640625 5.625 -4.546875 5.734375 -4.546875 C 5.84375 -4.546875 5.859375 -4.578125 5.890625 -4.75 Z M 6.4375 -6.921875 "/>
</symbol>
<symbol overflow="visible" id="glyph10-0">
<path style="stroke:none;" d=""/>
</symbol>
<symbol overflow="visible" id="glyph10-1">
<path style="stroke:none;" d="M 1.90625 -2.328125 C 2.453125 -2.328125 2.84375 -1.953125 2.84375 -1.203125 C 2.84375 -0.34375 2.328125 -0.078125 1.9375 -0.078125 C 1.65625 -0.078125 1.03125 -0.15625 0.75 -0.578125 C 1.078125 -0.578125 1.15625 -0.8125 1.15625 -0.96875 C 1.15625 -1.1875 0.984375 -1.34375 0.765625 -1.34375 C 0.578125 -1.34375 0.375 -1.21875 0.375 -0.9375 C 0.375 -0.28125 1.09375 0.140625 1.9375 0.140625 C 2.90625 0.140625 3.578125 -0.515625 3.578125 -1.203125 C 3.578125 -1.75 3.140625 -2.296875 2.375 -2.453125 C 3.09375 -2.71875 3.359375 -3.234375 3.359375 -3.671875 C 3.359375 -4.21875 2.734375 -4.625 1.953125 -4.625 C 1.1875 -4.625 0.59375 -4.25 0.59375 -3.6875 C 0.59375 -3.453125 0.75 -3.328125 0.953125 -3.328125 C 1.171875 -3.328125 1.3125 -3.484375 1.3125 -3.671875 C 1.3125 -3.875 1.171875 -4.03125 0.953125 -4.046875 C 1.203125 -4.34375 1.671875 -4.421875 1.9375 -4.421875 C 2.25 -4.421875 2.6875 -4.265625 2.6875 -3.671875 C 2.6875 -3.375 2.59375 -3.046875 2.40625 -2.84375 C 2.1875 -2.578125 1.984375 -2.5625 1.640625 -2.53125 C 1.46875 -2.515625 1.453125 -2.515625 1.421875 -2.515625 C 1.40625 -2.515625 1.34375 -2.5 1.34375 -2.421875 C 1.34375 -2.328125 1.40625 -2.328125 1.53125 -2.328125 Z M 1.90625 -2.328125 "/>
</symbol>
<symbol overflow="visible" id="glyph11-0">
<path style="stroke:none;" d=""/>
</symbol>
<symbol overflow="visible" id="glyph11-1">
<path style="stroke:none;" d="M 7.234375 -3.265625 C 7.65625 -2.90625 8.171875 -2.640625 8.5 -2.5 C 8.140625 -2.328125 7.640625 -2.078125 7.234375 -1.71875 L 0.90625 -1.71875 C 0.734375 -1.71875 0.546875 -1.71875 0.546875 -1.53125 C 0.546875 -1.328125 0.734375 -1.328125 0.890625 -1.328125 L 6.78125 -1.328125 C 6.3125 -0.875 5.796875 0.015625 5.796875 0.140625 C 5.796875 0.25 5.921875 0.25 5.984375 0.25 C 6.0625 0.25 6.125 0.25 6.171875 0.171875 C 6.375 -0.203125 6.65625 -0.734375 7.3125 -1.3125 C 8 -1.921875 8.65625 -2.1875 9.1875 -2.34375 C 9.34375 -2.40625 9.359375 -2.40625 9.375 -2.4375 C 9.40625 -2.4375 9.40625 -2.46875 9.40625 -2.5 C 9.40625 -2.515625 9.40625 -2.53125 9.390625 -2.546875 L 9.359375 -2.578125 C 9.34375 -2.578125 9.328125 -2.59375 9.140625 -2.65625 C 7.796875 -3.046875 6.796875 -3.953125 6.234375 -5.03125 C 6.125 -5.21875 6.125 -5.234375 5.984375 -5.234375 C 5.921875 -5.234375 5.796875 -5.234375 5.796875 -5.125 C 5.796875 -5 6.296875 -4.125 6.78125 -3.65625 L 0.890625 -3.65625 C 0.734375 -3.65625 0.546875 -3.65625 0.546875 -3.453125 C 0.546875 -3.265625 0.734375 -3.265625 0.90625 -3.265625 Z M 7.234375 -3.265625 "/>
</symbol>
<symbol overflow="visible" id="glyph12-0">
<path style="stroke:none;" d=""/>
</symbol>
<symbol overflow="visible" id="glyph12-1">
<path style="stroke:none;" d="M 3.71875 -3.765625 C 3.53125 -4.140625 3.25 -4.40625 2.796875 -4.40625 C 1.640625 -4.40625 0.40625 -2.9375 0.40625 -1.484375 C 0.40625 -0.546875 0.953125 0.109375 1.71875 0.109375 C 1.921875 0.109375 2.421875 0.0625 3.015625 -0.640625 C 3.09375 -0.21875 3.453125 0.109375 3.921875 0.109375 C 4.28125 0.109375 4.5 -0.125 4.671875 -0.4375 C 4.828125 -0.796875 4.96875 -1.40625 4.96875 -1.421875 C 4.96875 -1.53125 4.875 -1.53125 4.84375 -1.53125 C 4.75 -1.53125 4.734375 -1.484375 4.703125 -1.34375 C 4.53125 -0.703125 4.359375 -0.109375 3.953125 -0.109375 C 3.671875 -0.109375 3.65625 -0.375 3.65625 -0.5625 C 3.65625 -0.78125 3.671875 -0.875 3.78125 -1.3125 C 3.890625 -1.71875 3.90625 -1.828125 4 -2.203125 L 4.359375 -3.59375 C 4.421875 -3.875 4.421875 -3.890625 4.421875 -3.9375 C 4.421875 -4.109375 4.3125 -4.203125 4.140625 -4.203125 C 3.890625 -4.203125 3.75 -3.984375 3.71875 -3.765625 Z M 3.078125 -1.1875 C 3.015625 -1 3.015625 -0.984375 2.875 -0.8125 C 2.4375 -0.265625 2.03125 -0.109375 1.75 -0.109375 C 1.25 -0.109375 1.109375 -0.65625 1.109375 -1.046875 C 1.109375 -1.546875 1.421875 -2.765625 1.65625 -3.234375 C 1.96875 -3.8125 2.40625 -4.1875 2.8125 -4.1875 C 3.453125 -4.1875 3.59375 -3.375 3.59375 -3.3125 C 3.59375 -3.25 3.578125 -3.1875 3.5625 -3.140625 Z M 3.078125 -1.1875 "/>
</symbol>
<symbol overflow="visible" id="glyph12-2">
<path style="stroke:none;" d="M 2.375 -6.8125 C 2.375 -6.8125 2.375 -6.921875 2.25 -6.921875 C 2.03125 -6.921875 1.296875 -6.84375 1.03125 -6.8125 C 0.953125 -6.8125 0.84375 -6.796875 0.84375 -6.625 C 0.84375 -6.5 0.9375 -6.5 1.09375 -6.5 C 1.5625 -6.5 1.578125 -6.4375 1.578125 -6.328125 C 1.578125 -6.265625 1.5 -5.921875 1.453125 -5.71875 L 0.625 -2.46875 C 0.515625 -1.96875 0.46875 -1.796875 0.46875 -1.453125 C 0.46875 -0.515625 1 0.109375 1.734375 0.109375 C 2.90625 0.109375 4.140625 -1.375 4.140625 -2.8125 C 4.140625 -3.71875 3.609375 -4.40625 2.8125 -4.40625 C 2.359375 -4.40625 1.9375 -4.109375 1.640625 -3.8125 Z M 1.453125 -3.046875 C 1.5 -3.265625 1.5 -3.28125 1.59375 -3.390625 C 2.078125 -4.03125 2.53125 -4.1875 2.796875 -4.1875 C 3.15625 -4.1875 3.421875 -3.890625 3.421875 -3.25 C 3.421875 -2.65625 3.09375 -1.515625 2.90625 -1.140625 C 2.578125 -0.46875 2.125 -0.109375 1.734375 -0.109375 C 1.390625 -0.109375 1.0625 -0.375 1.0625 -1.109375 C 1.0625 -1.3125 1.0625 -1.5 1.21875 -2.125 Z M 1.453125 -3.046875 "/>
</symbol>
<symbol overflow="visible" id="glyph12-3">
<path style="stroke:none;" d="M 6.4375 -6.921875 C 6.4375 -6.953125 6.40625 -7.03125 6.3125 -7.03125 C 6.265625 -7.03125 6.265625 -7.015625 6.140625 -6.875 L 5.65625 -6.3125 C 5.40625 -6.78125 4.890625 -7.03125 4.234375 -7.03125 C 2.96875 -7.03125 1.78125 -5.875 1.78125 -4.671875 C 1.78125 -3.875 2.296875 -3.40625 2.8125 -3.265625 L 3.875 -2.984375 C 4.25 -2.890625 4.796875 -2.734375 4.796875 -1.921875 C 4.796875 -1.03125 3.984375 -0.09375 3 -0.09375 C 2.359375 -0.09375 1.25 -0.3125 1.25 -1.546875 C 1.25 -1.78125 1.3125 -2.03125 1.3125 -2.078125 C 1.328125 -2.125 1.328125 -2.140625 1.328125 -2.15625 C 1.328125 -2.25 1.265625 -2.265625 1.21875 -2.265625 C 1.171875 -2.265625 1.140625 -2.25 1.109375 -2.21875 C 1.078125 -2.1875 0.515625 0.09375 0.515625 0.125 C 0.515625 0.171875 0.5625 0.21875 0.625 0.21875 C 0.671875 0.21875 0.6875 0.203125 0.8125 0.0625 L 1.296875 -0.5 C 1.71875 0.078125 2.40625 0.21875 2.984375 0.21875 C 4.34375 0.21875 5.515625 -1.109375 5.515625 -2.34375 C 5.515625 -3.03125 5.171875 -3.375 5.03125 -3.515625 C 4.796875 -3.734375 4.640625 -3.78125 3.765625 -4 C 3.53125 -4.0625 3.1875 -4.171875 3.09375 -4.1875 C 2.828125 -4.28125 2.484375 -4.5625 2.484375 -5.09375 C 2.484375 -5.90625 3.28125 -6.75 4.234375 -6.75 C 5.046875 -6.75 5.65625 -6.3125 5.65625 -5.203125 C 5.65625 -4.890625 5.625 -4.703125 5.625 -4.640625 C 5.625 -4.640625 5.625 -4.546875 5.734375 -4.546875 C 5.84375 -4.546875 5.859375 -4.578125 5.890625 -4.75 Z M 6.4375 -6.921875 "/>
</symbol>
<symbol overflow="visible" id="glyph13-0">
<path style="stroke:none;" d=""/>
</symbol>
<symbol overflow="visible" id="glyph13-1">
<path style="stroke:none;" d="M 2.328125 -4.4375 C 2.328125 -4.625 2.328125 -4.625 2.125 -4.625 C 1.671875 -4.1875 1.046875 -4.1875 0.765625 -4.1875 L 0.765625 -3.9375 C 0.921875 -3.9375 1.390625 -3.9375 1.765625 -4.125 L 1.765625 -0.578125 C 1.765625 -0.34375 1.765625 -0.25 1.078125 -0.25 L 0.8125 -0.25 L 0.8125 0 C 0.9375 0 1.796875 -0.03125 2.046875 -0.03125 C 2.265625 -0.03125 3.140625 0 3.296875 0 L 3.296875 -0.25 L 3.03125 -0.25 C 2.328125 -0.25 2.328125 -0.34375 2.328125 -0.578125 Z M 2.328125 -4.4375 "/>
</symbol>
<symbol overflow="visible" id="glyph14-0">
<path style="stroke:none;" d=""/>
</symbol>
<symbol overflow="visible" id="glyph14-1">
<path style="stroke:none;" d="M 7.234375 -3.265625 C 7.65625 -2.90625 8.171875 -2.640625 8.5 -2.5 C 8.140625 -2.328125 7.640625 -2.078125 7.234375 -1.71875 L 0.90625 -1.71875 C 0.734375 -1.71875 0.546875 -1.71875 0.546875 -1.53125 C 0.546875 -1.328125 0.734375 -1.328125 0.890625 -1.328125 L 6.78125 -1.328125 C 6.3125 -0.875 5.796875 0.015625 5.796875 0.140625 C 5.796875 0.25 5.921875 0.25 5.984375 0.25 C 6.0625 0.25 6.125 0.25 6.171875 0.171875 C 6.375 -0.203125 6.65625 -0.734375 7.3125 -1.3125 C 8 -1.921875 8.65625 -2.1875 9.1875 -2.34375 C 9.34375 -2.40625 9.359375 -2.40625 9.375 -2.4375 C 9.40625 -2.4375 9.40625 -2.46875 9.40625 -2.5 C 9.40625 -2.515625 9.40625 -2.53125 9.390625 -2.546875 L 9.359375 -2.578125 C 9.34375 -2.578125 9.328125 -2.59375 9.140625 -2.65625 C 7.796875 -3.046875 6.796875 -3.953125 6.234375 -5.03125 C 6.125 -5.21875 6.125 -5.234375 5.984375 -5.234375 C 5.921875 -5.234375 5.796875 -5.234375 5.796875 -5.125 C 5.796875 -5 6.296875 -4.125 6.78125 -3.65625 L 0.890625 -3.65625 C 0.734375 -3.65625 0.546875 -3.65625 0.546875 -3.453125 C 0.546875 -3.265625 0.734375 -3.265625 0.90625 -3.265625 Z M 7.234375 -3.265625 "/>
</symbol>
<symbol overflow="visible" id="glyph15-0">
<path style="stroke:none;" d=""/>
</symbol>
<symbol overflow="visible" id="glyph15-1">
<path style="stroke:none;" d="M 3.71875 -3.765625 C 3.53125 -4.140625 3.25 -4.40625 2.796875 -4.40625 C 1.640625 -4.40625 0.40625 -2.9375 0.40625 -1.484375 C 0.40625 -0.546875 0.953125 0.109375 1.71875 0.109375 C 1.921875 0.109375 2.421875 0.0625 3.015625 -0.640625 C 3.09375 -0.21875 3.453125 0.109375 3.921875 0.109375 C 4.28125 0.109375 4.5 -0.125 4.671875 -0.4375 C 4.828125 -0.796875 4.96875 -1.40625 4.96875 -1.421875 C 4.96875 -1.53125 4.875 -1.53125 4.84375 -1.53125 C 4.75 -1.53125 4.734375 -1.484375 4.703125 -1.34375 C 4.53125 -0.703125 4.359375 -0.109375 3.953125 -0.109375 C 3.671875 -0.109375 3.65625 -0.375 3.65625 -0.5625 C 3.65625 -0.78125 3.671875 -0.875 3.78125 -1.3125 C 3.890625 -1.71875 3.90625 -1.828125 4 -2.203125 L 4.359375 -3.59375 C 4.421875 -3.875 4.421875 -3.890625 4.421875 -3.9375 C 4.421875 -4.109375 4.3125 -4.203125 4.140625 -4.203125 C 3.890625 -4.203125 3.75 -3.984375 3.71875 -3.765625 Z M 3.078125 -1.1875 C 3.015625 -1 3.015625 -0.984375 2.875 -0.8125 C 2.4375 -0.265625 2.03125 -0.109375 1.75 -0.109375 C 1.25 -0.109375 1.109375 -0.65625 1.109375 -1.046875 C 1.109375 -1.546875 1.421875 -2.765625 1.65625 -3.234375 C 1.96875 -3.8125 2.40625 -4.1875 2.8125 -4.1875 C 3.453125 -4.1875 3.59375 -3.375 3.59375 -3.3125 C 3.59375 -3.25 3.578125 -3.1875 3.5625 -3.140625 Z M 3.078125 -1.1875 "/>
</symbol>
<symbol overflow="visible" id="glyph15-2">
<path style="stroke:none;" d="M 2.375 -6.8125 C 2.375 -6.8125 2.375 -6.921875 2.25 -6.921875 C 2.03125 -6.921875 1.296875 -6.84375 1.03125 -6.8125 C 0.953125 -6.8125 0.84375 -6.796875 0.84375 -6.625 C 0.84375 -6.5 0.9375 -6.5 1.09375 -6.5 C 1.5625 -6.5 1.578125 -6.4375 1.578125 -6.328125 C 1.578125 -6.265625 1.5 -5.921875 1.453125 -5.71875 L 0.625 -2.46875 C 0.515625 -1.96875 0.46875 -1.796875 0.46875 -1.453125 C 0.46875 -0.515625 1 0.109375 1.734375 0.109375 C 2.90625 0.109375 4.140625 -1.375 4.140625 -2.8125 C 4.140625 -3.71875 3.609375 -4.40625 2.8125 -4.40625 C 2.359375 -4.40625 1.9375 -4.109375 1.640625 -3.8125 Z M 1.453125 -3.046875 C 1.5 -3.265625 1.5 -3.28125 1.59375 -3.390625 C 2.078125 -4.03125 2.53125 -4.1875 2.796875 -4.1875 C 3.15625 -4.1875 3.421875 -3.890625 3.421875 -3.25 C 3.421875 -2.65625 3.09375 -1.515625 2.90625 -1.140625 C 2.578125 -0.46875 2.125 -0.109375 1.734375 -0.109375 C 1.390625 -0.109375 1.0625 -0.375 1.0625 -1.109375 C 1.0625 -1.3125 1.0625 -1.5 1.21875 -2.125 Z M 1.453125 -3.046875 "/>
</symbol>
<symbol overflow="visible" id="glyph15-3">
<path style="stroke:none;" d="M 6.4375 -6.921875 C 6.4375 -6.953125 6.40625 -7.03125 6.3125 -7.03125 C 6.265625 -7.03125 6.265625 -7.015625 6.140625 -6.875 L 5.65625 -6.3125 C 5.40625 -6.78125 4.890625 -7.03125 4.234375 -7.03125 C 2.96875 -7.03125 1.78125 -5.875 1.78125 -4.671875 C 1.78125 -3.875 2.296875 -3.40625 2.8125 -3.265625 L 3.875 -2.984375 C 4.25 -2.890625 4.796875 -2.734375 4.796875 -1.921875 C 4.796875 -1.03125 3.984375 -0.09375 3 -0.09375 C 2.359375 -0.09375 1.25 -0.3125 1.25 -1.546875 C 1.25 -1.78125 1.3125 -2.03125 1.3125 -2.078125 C 1.328125 -2.125 1.328125 -2.140625 1.328125 -2.15625 C 1.328125 -2.25 1.265625 -2.265625 1.21875 -2.265625 C 1.171875 -2.265625 1.140625 -2.25 1.109375 -2.21875 C 1.078125 -2.1875 0.515625 0.09375 0.515625 0.125 C 0.515625 0.171875 0.5625 0.21875 0.625 0.21875 C 0.671875 0.21875 0.6875 0.203125 0.8125 0.0625 L 1.296875 -0.5 C 1.71875 0.078125 2.40625 0.21875 2.984375 0.21875 C 4.34375 0.21875 5.515625 -1.109375 5.515625 -2.34375 C 5.515625 -3.03125 5.171875 -3.375 5.03125 -3.515625 C 4.796875 -3.734375 4.640625 -3.78125 3.765625 -4 C 3.53125 -4.0625 3.1875 -4.171875 3.09375 -4.1875 C 2.828125 -4.28125 2.484375 -4.5625 2.484375 -5.09375 C 2.484375 -5.90625 3.28125 -6.75 4.234375 -6.75 C 5.046875 -6.75 5.65625 -6.3125 5.65625 -5.203125 C 5.65625 -4.890625 5.625 -4.703125 5.625 -4.640625 C 5.625 -4.640625 5.625 -4.546875 5.734375 -4.546875 C 5.84375 -4.546875 5.859375 -4.578125 5.890625 -4.75 Z M 6.4375 -6.921875 "/>
</symbol>
<symbol overflow="visible" id="glyph16-0">
<path style="stroke:none;" d=""/>
</symbol>
<symbol overflow="visible" id="glyph16-1">
<path style="stroke:none;" d="M 1.90625 -2.328125 C 2.453125 -2.328125 2.84375 -1.953125 2.84375 -1.203125 C 2.84375 -0.34375 2.328125 -0.078125 1.9375 -0.078125 C 1.65625 -0.078125 1.03125 -0.15625 0.75 -0.578125 C 1.078125 -0.578125 1.15625 -0.8125 1.15625 -0.96875 C 1.15625 -1.1875 0.984375 -1.34375 0.765625 -1.34375 C 0.578125 -1.34375 0.375 -1.21875 0.375 -0.9375 C 0.375 -0.28125 1.09375 0.140625 1.9375 0.140625 C 2.90625 0.140625 3.578125 -0.515625 3.578125 -1.203125 C 3.578125 -1.75 3.140625 -2.296875 2.375 -2.453125 C 3.09375 -2.71875 3.359375 -3.234375 3.359375 -3.671875 C 3.359375 -4.21875 2.734375 -4.625 1.953125 -4.625 C 1.1875 -4.625 0.59375 -4.25 0.59375 -3.6875 C 0.59375 -3.453125 0.75 -3.328125 0.953125 -3.328125 C 1.171875 -3.328125 1.3125 -3.484375 1.3125 -3.671875 C 1.3125 -3.875 1.171875 -4.03125 0.953125 -4.046875 C 1.203125 -4.34375 1.671875 -4.421875 1.9375 -4.421875 C 2.25 -4.421875 2.6875 -4.265625 2.6875 -3.671875 C 2.6875 -3.375 2.59375 -3.046875 2.40625 -2.84375 C 2.1875 -2.578125 1.984375 -2.5625 1.640625 -2.53125 C 1.46875 -2.515625 1.453125 -2.515625 1.421875 -2.515625 C 1.40625 -2.515625 1.34375 -2.5 1.34375 -2.421875 C 1.34375 -2.328125 1.40625 -2.328125 1.53125 -2.328125 Z M 1.90625 -2.328125 "/>
</symbol>
<symbol overflow="visible" id="glyph17-0">
<path style="stroke:none;" d=""/>
</symbol>
<symbol overflow="visible" id="glyph17-1">
<path style="stroke:none;" d="M 7.234375 -3.265625 C 7.65625 -2.90625 8.171875 -2.640625 8.5 -2.5 C 8.140625 -2.328125 7.640625 -2.078125 7.234375 -1.71875 L 0.90625 -1.71875 C 0.734375 -1.71875 0.546875 -1.71875 0.546875 -1.53125 C 0.546875 -1.328125 0.734375 -1.328125 0.890625 -1.328125 L 6.78125 -1.328125 C 6.3125 -0.875 5.796875 0.015625 5.796875 0.140625 C 5.796875 0.25 5.921875 0.25 5.984375 0.25 C 6.0625 0.25 6.125 0.25 6.171875 0.171875 C 6.375 -0.203125 6.65625 -0.734375 7.3125 -1.3125 C 8 -1.921875 8.65625 -2.1875 9.1875 -2.34375 C 9.34375 -2.40625 9.359375 -2.40625 9.375 -2.4375 C 9.40625 -2.4375 9.40625 -2.46875 9.40625 -2.5 C 9.40625 -2.515625 9.40625 -2.53125 9.390625 -2.546875 L 9.359375 -2.578125 C 9.34375 -2.578125 9.328125 -2.59375 9.140625 -2.65625 C 7.796875 -3.046875 6.796875 -3.953125 6.234375 -5.03125 C 6.125 -5.21875 6.125 -5.234375 5.984375 -5.234375 C 5.921875 -5.234375 5.796875 -5.234375 5.796875 -5.125 C 5.796875 -5 6.296875 -4.125 6.78125 -3.65625 L 0.890625 -3.65625 C 0.734375 -3.65625 0.546875 -3.65625 0.546875 -3.453125 C 0.546875 -3.265625 0.734375 -3.265625 0.90625 -3.265625 Z M 7.234375 -3.265625 "/>
</symbol>
<symbol overflow="visible" id="glyph18-0">
<path style="stroke:none;" d=""/>
</symbol>
<symbol overflow="visible" id="glyph18-1">
<path style="stroke:none;" d="M 3.71875 -3.765625 C 3.53125 -4.140625 3.25 -4.40625 2.796875 -4.40625 C 1.640625 -4.40625 0.40625 -2.9375 0.40625 -1.484375 C 0.40625 -0.546875 0.953125 0.109375 1.71875 0.109375 C 1.921875 0.109375 2.421875 0.0625 3.015625 -0.640625 C 3.09375 -0.21875 3.453125 0.109375 3.921875 0.109375 C 4.28125 0.109375 4.5 -0.125 4.671875 -0.4375 C 4.828125 -0.796875 4.96875 -1.40625 4.96875 -1.421875 C 4.96875 -1.53125 4.875 -1.53125 4.84375 -1.53125 C 4.75 -1.53125 4.734375 -1.484375 4.703125 -1.34375 C 4.53125 -0.703125 4.359375 -0.109375 3.953125 -0.109375 C 3.671875 -0.109375 3.65625 -0.375 3.65625 -0.5625 C 3.65625 -0.78125 3.671875 -0.875 3.78125 -1.3125 C 3.890625 -1.71875 3.90625 -1.828125 4 -2.203125 L 4.359375 -3.59375 C 4.421875 -3.875 4.421875 -3.890625 4.421875 -3.9375 C 4.421875 -4.109375 4.3125 -4.203125 4.140625 -4.203125 C 3.890625 -4.203125 3.75 -3.984375 3.71875 -3.765625 Z M 3.078125 -1.1875 C 3.015625 -1 3.015625 -0.984375 2.875 -0.8125 C 2.4375 -0.265625 2.03125 -0.109375 1.75 -0.109375 C 1.25 -0.109375 1.109375 -0.65625 1.109375 -1.046875 C 1.109375 -1.546875 1.421875 -2.765625 1.65625 -3.234375 C 1.96875 -3.8125 2.40625 -4.1875 2.8125 -4.1875 C 3.453125 -4.1875 3.59375 -3.375 3.59375 -3.3125 C 3.59375 -3.25 3.578125 -3.1875 3.5625 -3.140625 Z M 3.078125 -1.1875 "/>
</symbol>
<symbol overflow="visible" id="glyph18-2">
<path style="stroke:none;" d="M 2.375 -6.8125 C 2.375 -6.8125 2.375 -6.921875 2.25 -6.921875 C 2.03125 -6.921875 1.296875 -6.84375 1.03125 -6.8125 C 0.953125 -6.8125 0.84375 -6.796875 0.84375 -6.625 C 0.84375 -6.5 0.9375 -6.5 1.09375 -6.5 C 1.5625 -6.5 1.578125 -6.4375 1.578125 -6.328125 C 1.578125 -6.265625 1.5 -5.921875 1.453125 -5.71875 L 0.625 -2.46875 C 0.515625 -1.96875 0.46875 -1.796875 0.46875 -1.453125 C 0.46875 -0.515625 1 0.109375 1.734375 0.109375 C 2.90625 0.109375 4.140625 -1.375 4.140625 -2.8125 C 4.140625 -3.71875 3.609375 -4.40625 2.8125 -4.40625 C 2.359375 -4.40625 1.9375 -4.109375 1.640625 -3.8125 Z M 1.453125 -3.046875 C 1.5 -3.265625 1.5 -3.28125 1.59375 -3.390625 C 2.078125 -4.03125 2.53125 -4.1875 2.796875 -4.1875 C 3.15625 -4.1875 3.421875 -3.890625 3.421875 -3.25 C 3.421875 -2.65625 3.09375 -1.515625 2.90625 -1.140625 C 2.578125 -0.46875 2.125 -0.109375 1.734375 -0.109375 C 1.390625 -0.109375 1.0625 -0.375 1.0625 -1.109375 C 1.0625 -1.3125 1.0625 -1.5 1.21875 -2.125 Z M 1.453125 -3.046875 "/>
</symbol>
<symbol overflow="visible" id="glyph18-3">
<path style="stroke:none;" d="M 6.4375 -6.921875 C 6.4375 -6.953125 6.40625 -7.03125 6.3125 -7.03125 C 6.265625 -7.03125 6.265625 -7.015625 6.140625 -6.875 L 5.65625 -6.3125 C 5.40625 -6.78125 4.890625 -7.03125 4.234375 -7.03125 C 2.96875 -7.03125 1.78125 -5.875 1.78125 -4.671875 C 1.78125 -3.875 2.296875 -3.40625 2.8125 -3.265625 L 3.875 -2.984375 C 4.25 -2.890625 4.796875 -2.734375 4.796875 -1.921875 C 4.796875 -1.03125 3.984375 -0.09375 3 -0.09375 C 2.359375 -0.09375 1.25 -0.3125 1.25 -1.546875 C 1.25 -1.78125 1.3125 -2.03125 1.3125 -2.078125 C 1.328125 -2.125 1.328125 -2.140625 1.328125 -2.15625 C 1.328125 -2.25 1.265625 -2.265625 1.21875 -2.265625 C 1.171875 -2.265625 1.140625 -2.25 1.109375 -2.21875 C 1.078125 -2.1875 0.515625 0.09375 0.515625 0.125 C 0.515625 0.171875 0.5625 0.21875 0.625 0.21875 C 0.671875 0.21875 0.6875 0.203125 0.8125 0.0625 L 1.296875 -0.5 C 1.71875 0.078125 2.40625 0.21875 2.984375 0.21875 C 4.34375 0.21875 5.515625 -1.109375 5.515625 -2.34375 C 5.515625 -3.03125 5.171875 -3.375 5.03125 -3.515625 C 4.796875 -3.734375 4.640625 -3.78125 3.765625 -4 C 3.53125 -4.0625 3.1875 -4.171875 3.09375 -4.1875 C 2.828125 -4.28125 2.484375 -4.5625 2.484375 -5.09375 C 2.484375 -5.90625 3.28125 -6.75 4.234375 -6.75 C 5.046875 -6.75 5.65625 -6.3125 5.65625 -5.203125 C 5.65625 -4.890625 5.625 -4.703125 5.625 -4.640625 C 5.625 -4.640625 5.625 -4.546875 5.734375 -4.546875 C 5.84375 -4.546875 5.859375 -4.578125 5.890625 -4.75 Z M 6.4375 -6.921875 "/>
</symbol>
<symbol overflow="visible" id="glyph19-0">
<path style="stroke:none;" d=""/>
</symbol>
<symbol overflow="visible" id="glyph19-1">
<path style="stroke:none;" d="M 1.90625 -2.328125 C 2.453125 -2.328125 2.84375 -1.953125 2.84375 -1.203125 C 2.84375 -0.34375 2.328125 -0.078125 1.9375 -0.078125 C 1.65625 -0.078125 1.03125 -0.15625 0.75 -0.578125 C 1.078125 -0.578125 1.15625 -0.8125 1.15625 -0.96875 C 1.15625 -1.1875 0.984375 -1.34375 0.765625 -1.34375 C 0.578125 -1.34375 0.375 -1.21875 0.375 -0.9375 C 0.375 -0.28125 1.09375 0.140625 1.9375 0.140625 C 2.90625 0.140625 3.578125 -0.515625 3.578125 -1.203125 C 3.578125 -1.75 3.140625 -2.296875 2.375 -2.453125 C 3.09375 -2.71875 3.359375 -3.234375 3.359375 -3.671875 C 3.359375 -4.21875 2.734375 -4.625 1.953125 -4.625 C 1.1875 -4.625 0.59375 -4.25 0.59375 -3.6875 C 0.59375 -3.453125 0.75 -3.328125 0.953125 -3.328125 C 1.171875 -3.328125 1.3125 -3.484375 1.3125 -3.671875 C 1.3125 -3.875 1.171875 -4.03125 0.953125 -4.046875 C 1.203125 -4.34375 1.671875 -4.421875 1.9375 -4.421875 C 2.25 -4.421875 2.6875 -4.265625 2.6875 -3.671875 C 2.6875 -3.375 2.59375 -3.046875 2.40625 -2.84375 C 2.1875 -2.578125 1.984375 -2.5625 1.640625 -2.53125 C 1.46875 -2.515625 1.453125 -2.515625 1.421875 -2.515625 C 1.40625 -2.515625 1.34375 -2.5 1.34375 -2.421875 C 1.34375 -2.328125 1.40625 -2.328125 1.53125 -2.328125 Z M 1.90625 -2.328125 "/>
</symbol>
<symbol overflow="visible" id="glyph20-0">
<path style="stroke:none;" d=""/>
</symbol>
<symbol overflow="visible" id="glyph20-1">
<path style="stroke:none;" d="M 7.234375 -3.265625 C 7.65625 -2.90625 8.171875 -2.640625 8.5 -2.5 C 8.140625 -2.328125 7.640625 -2.078125 7.234375 -1.71875 L 0.90625 -1.71875 C 0.734375 -1.71875 0.546875 -1.71875 0.546875 -1.53125 C 0.546875 -1.328125 0.734375 -1.328125 0.890625 -1.328125 L 6.78125 -1.328125 C 6.3125 -0.875 5.796875 0.015625 5.796875 0.140625 C 5.796875 0.25 5.921875 0.25 5.984375 0.25 C 6.0625 0.25 6.125 0.25 6.171875 0.171875 C 6.375 -0.203125 6.65625 -0.734375 7.3125 -1.3125 C 8 -1.921875 8.65625 -2.1875 9.1875 -2.34375 C 9.34375 -2.40625 9.359375 -2.40625 9.375 -2.4375 C 9.40625 -2.4375 9.40625 -2.46875 9.40625 -2.5 C 9.40625 -2.515625 9.40625 -2.53125 9.390625 -2.546875 L 9.359375 -2.578125 C 9.34375 -2.578125 9.328125 -2.59375 9.140625 -2.65625 C 7.796875 -3.046875 6.796875 -3.953125 6.234375 -5.03125 C 6.125 -5.21875 6.125 -5.234375 5.984375 -5.234375 C 5.921875 -5.234375 5.796875 -5.234375 5.796875 -5.125 C 5.796875 -5 6.296875 -4.125 6.78125 -3.65625 L 0.890625 -3.65625 C 0.734375 -3.65625 0.546875 -3.65625 0.546875 -3.453125 C 0.546875 -3.265625 0.734375 -3.265625 0.90625 -3.265625 Z M 7.234375 -3.265625 "/>
</symbol>
<symbol overflow="visible" id="glyph21-0">
<path style="stroke:none;" d=""/>
</symbol>
<symbol overflow="visible" id="glyph21-1">
<path style="stroke:none;" d="M 3.71875 -3.765625 C 3.53125 -4.140625 3.25 -4.40625 2.796875 -4.40625 C 1.640625 -4.40625 0.40625 -2.9375 0.40625 -1.484375 C 0.40625 -0.546875 0.953125 0.109375 1.71875 0.109375 C 1.921875 0.109375 2.421875 0.0625 3.015625 -0.640625 C 3.09375 -0.21875 3.453125 0.109375 3.921875 0.109375 C 4.28125 0.109375 4.5 -0.125 4.671875 -0.4375 C 4.828125 -0.796875 4.96875 -1.40625 4.96875 -1.421875 C 4.96875 -1.53125 4.875 -1.53125 4.84375 -1.53125 C 4.75 -1.53125 4.734375 -1.484375 4.703125 -1.34375 C 4.53125 -0.703125 4.359375 -0.109375 3.953125 -0.109375 C 3.671875 -0.109375 3.65625 -0.375 3.65625 -0.5625 C 3.65625 -0.78125 3.671875 -0.875 3.78125 -1.3125 C 3.890625 -1.71875 3.90625 -1.828125 4 -2.203125 L 4.359375 -3.59375 C 4.421875 -3.875 4.421875 -3.890625 4.421875 -3.9375 C 4.421875 -4.109375 4.3125 -4.203125 4.140625 -4.203125 C 3.890625 -4.203125 3.75 -3.984375 3.71875 -3.765625 Z M 3.078125 -1.1875 C 3.015625 -1 3.015625 -0.984375 2.875 -0.8125 C 2.4375 -0.265625 2.03125 -0.109375 1.75 -0.109375 C 1.25 -0.109375 1.109375 -0.65625 1.109375 -1.046875 C 1.109375 -1.546875 1.421875 -2.765625 1.65625 -3.234375 C 1.96875 -3.8125 2.40625 -4.1875 2.8125 -4.1875 C 3.453125 -4.1875 3.59375 -3.375 3.59375 -3.3125 C 3.59375 -3.25 3.578125 -3.1875 3.5625 -3.140625 Z M 3.078125 -1.1875 "/>
</symbol>
<symbol overflow="visible" id="glyph21-2">
<path style="stroke:none;" d="M 2.375 -6.8125 C 2.375 -6.8125 2.375 -6.921875 2.25 -6.921875 C 2.03125 -6.921875 1.296875 -6.84375 1.03125 -6.8125 C 0.953125 -6.8125 0.84375 -6.796875 0.84375 -6.625 C 0.84375 -6.5 0.9375 -6.5 1.09375 -6.5 C 1.5625 -6.5 1.578125 -6.4375 1.578125 -6.328125 C 1.578125 -6.265625 1.5 -5.921875 1.453125 -5.71875 L 0.625 -2.46875 C 0.515625 -1.96875 0.46875 -1.796875 0.46875 -1.453125 C 0.46875 -0.515625 1 0.109375 1.734375 0.109375 C 2.90625 0.109375 4.140625 -1.375 4.140625 -2.8125 C 4.140625 -3.71875 3.609375 -4.40625 2.8125 -4.40625 C 2.359375 -4.40625 1.9375 -4.109375 1.640625 -3.8125 Z M 1.453125 -3.046875 C 1.5 -3.265625 1.5 -3.28125 1.59375 -3.390625 C 2.078125 -4.03125 2.53125 -4.1875 2.796875 -4.1875 C 3.15625 -4.1875 3.421875 -3.890625 3.421875 -3.25 C 3.421875 -2.65625 3.09375 -1.515625 2.90625 -1.140625 C 2.578125 -0.46875 2.125 -0.109375 1.734375 -0.109375 C 1.390625 -0.109375 1.0625 -0.375 1.0625 -1.109375 C 1.0625 -1.3125 1.0625 -1.5 1.21875 -2.125 Z M 1.453125 -3.046875 "/>
</symbol>
</g>
</defs>
<g id="surface16954">
<path style=" stroke:none;fill-rule:evenodd;fill:rgb(93.3%,77.3%,56.9%);fill-opacity:0.5;" d="M 197.402344 13.636719 L 197.402344 26.59375 L 221.996094 26.59375 L 221.996094 13.636719 Z M 197.402344 13.636719 "/>
<path style=" stroke:none;fill-rule:evenodd;fill:rgb(93.3%,77.3%,56.9%);fill-opacity:0.5;" d="M 104.195312 12.472656 L 104.195312 25.425781 L 128.789062 25.425781 L 128.789062 12.472656 Z M 104.195312 12.472656 "/>
<path style=" stroke:none;fill-rule:evenodd;fill:rgb(93.3%,77.3%,56.9%);fill-opacity:0.5;" d="M 22.898438 11.496094 L 22.898438 24.449219 L 47.488281 24.449219 L 47.488281 11.496094 Z M 22.898438 11.496094 "/>
<g style="fill:rgb(0%,0%,0%);fill-opacity:1;">
  <use xlink:href="#glyph0-1" x="1.999846" y="22.000297"/>
</g>
<g style="fill:rgb(0%,0%,0%);fill-opacity:1;">
  <use xlink:href="#glyph1-1" x="14.445846" y="16.352297"/>
</g>
<g style="fill:rgb(0%,0%,0%);fill-opacity:1;">
  <use xlink:href="#glyph2-1" x="11.450846" y="22.000297"/>
</g>
<g style="fill:rgb(0%,0%,0%);fill-opacity:1;">
  <use xlink:href="#glyph3-1" x="24.180846" y="22.000297"/>
  <use xlink:href="#glyph3-2" x="29.441099" y="22.000297"/>
  <use xlink:href="#glyph3-3" x="36.126003" y="22.000297"/>
  <use xlink:href="#glyph3-2" x="40.399959" y="22.000297"/>
</g>
<g style="fill:rgb(0%,0%,0%);fill-opacity:1;">
  <use xlink:href="#glyph4-1" x="52.851846" y="16.352297"/>
</g>
<g style="fill:rgb(0%,0%,0%);fill-opacity:1;">
  <use xlink:href="#glyph5-1" x="49.855846" y="22.000297"/>
</g>
<g style="fill:rgb(0%,0%,0%);fill-opacity:1;">
  <use xlink:href="#glyph6-1" x="62.585846" y="22.000297"/>
  <use xlink:href="#glyph6-2" x="67.846099" y="22.000297"/>
  <use xlink:href="#glyph6-3" x="72.120054" y="22.000297"/>
</g>
<g style="fill:rgb(0%,0%,0%);fill-opacity:1;">
  <use xlink:href="#glyph7-1" x="84.573846" y="16.352297"/>
</g>
<g style="fill:rgb(0%,0%,0%);fill-opacity:1;">
  <use xlink:href="#glyph8-1" x="81.578846" y="22.000297"/>
</g>
<g style="fill:rgb(0%,0%,0%);fill-opacity:1;">
  <use xlink:href="#glyph9-1" x="94.308846" y="22.000297"/>
  <use xlink:href="#glyph9-2" x="99.569099" y="22.000297"/>
  <use xlink:href="#glyph9-2" x="103.843054" y="22.000297"/>
  <use xlink:href="#glyph9-3" x="108.11701" y="22.000297"/>
  <use xlink:href="#glyph9-1" x="114.801914" y="22.000297"/>
  <use xlink:href="#glyph9-3" x="120.062167" y="22.000297"/>
</g>
<g style="fill:rgb(0%,0%,0%);fill-opacity:1;">
  <use xlink:href="#glyph10-1" x="132.521846" y="16.352297"/>
</g>
<g style="fill:rgb(0%,0%,0%);fill-opacity:1;">
  <use xlink:href="#glyph11-1" x="129.525846" y="22.000297"/>
</g>
<g style="fill:rgb(0%,0%,0%);fill-opacity:1;">
  <use xlink:href="#glyph12-1" x="142.255846" y="22.000297"/>
  <use xlink:href="#glyph12-2" x="147.516099" y="22.000297"/>
  <use xlink:href="#glyph12-2" x="151.790054" y="22.000297"/>
  <use xlink:href="#glyph12-1" x="156.06401" y="22.000297"/>
  <use xlink:href="#glyph12-3" x="161.324262" y="22.000297"/>
</g>
<g style="fill:rgb(0%,0%,0%);fill-opacity:1;">
  <use xlink:href="#glyph13-1" x="173.785846" y="16.352297"/>
</g>
<g style="fill:rgb(0%,0%,0%);fill-opacity:1;">
  <use xlink:href="#glyph14-1" x="170.789846" y="22.000297"/>
</g>
<g style="fill:rgb(0%,0%,0%);fill-opacity:1;">
  <use xlink:href="#glyph15-1" x="183.519846" y="22.000297"/>
  <use xlink:href="#glyph15-2" x="188.780099" y="22.000297"/>
  <use xlink:href="#glyph15-2" x="193.054054" y="22.000297"/>
  <use xlink:href="#glyph15-1" x="197.32801" y="22.000297"/>
  <use xlink:href="#glyph15-3" x="202.588262" y="22.000297"/>
  <use xlink:href="#glyph15-2" x="209.273167" y="22.000297"/>
  <use xlink:href="#glyph15-3" x="213.547122" y="22.000297"/>
</g>
<g style="fill:rgb(0%,0%,0%);fill-opacity:1;">
  <use xlink:href="#glyph16-1" x="226.008846" y="16.352297"/>
</g>
<g style="fill:rgb(0%,0%,0%);fill-opacity:1;">
  <use xlink:href="#glyph17-1" x="223.012846" y="22.000297"/>
</g>
<g style="fill:rgb(0%,0%,0%);fill-opacity:1;">
  <use xlink:href="#glyph18-1" x="235.742846" y="22.000297"/>
  <use xlink:href="#glyph18-2" x="241.003099" y="22.000297"/>
  <use xlink:href="#glyph18-2" x="245.277054" y="22.000297"/>
  <use xlink:href="#glyph18-1" x="249.55101" y="22.000297"/>
  <use xlink:href="#glyph18-2" x="254.811262" y="22.000297"/>
  <use xlink:href="#glyph18-3" x="259.085218" y="22.000297"/>
</g>
<g style="fill:rgb(0%,0%,0%);fill-opacity:1;">
  <use xlink:href="#glyph19-1" x="271.547846" y="16.352297"/>
</g>
<g style="fill:rgb(0%,0%,0%);fill-opacity:1;">
  <use xlink:href="#glyph20-1" x="268.552846" y="22.000297"/>
</g>
<g style="fill:rgb(0%,0%,0%);fill-opacity:1;">
  <use xlink:href="#glyph21-1" x="281.282846" y="22.000297"/>
  <use xlink:href="#glyph21-2" x="286.543099" y="22.000297"/>
  <use xlink:href="#glyph21-2" x="290.817054" y="22.000297"/>
  <use xlink:href="#glyph21-1" x="295.09101" y="22.000297"/>
  <use xlink:href="#glyph21-1" x="300.351262" y="22.000297"/>
  <use xlink:href="#glyph21-2" x="305.611515" y="22.000297"/>
</g>
<path style="fill:none;stroke-width:0.4;stroke-linecap:round;stroke-linejoin:round;stroke:rgb(0%,0%,0%);stroke-opacity:1;stroke-miterlimit:10;" d="M 148.773438 137.015625 C 155.246094 149.671875 163.785156 150.664062 174.394531 140.003906 " transform="matrix(1,0,0,-1,-142,150)"/>
<path style="fill-rule:evenodd;fill:rgb(0%,0%,0%);fill-opacity:1;stroke-width:0.4;stroke-linecap:round;stroke-linejoin:round;stroke:rgb(0%,0%,0%);stroke-opacity:1;stroke-miterlimit:10;" d="M 174.394531 140.003906 L 172.046875 144.722656 L 169.6875 142.371094 Z M 174.394531 140.003906 " transform="matrix(1,0,0,-1,-142,150)"/>
<path style="fill:none;stroke-width:0.4;stroke-linecap:round;stroke-linejoin:round;stroke:rgb(0%,0%,0%);stroke-opacity:1;stroke-miterlimit:10;" d="M 176.214844 127.414062 C 194.707031 117.875 202.984375 118.121094 209.335938 126.363281 " transform="matrix(1,0,0,-1,-142,150)"/>
<path style="fill-rule:evenodd;fill:rgb(0%,0%,0%);fill-opacity:1;stroke-width:0.4;stroke-linecap:round;stroke-linejoin:round;stroke:rgb(0%,0%,0%);stroke-opacity:1;stroke-miterlimit:10;" d="M 209.335938 126.363281 L 204.964844 123.417969 L 207.601562 121.386719 Z M 209.335938 126.363281 " transform="matrix(1,0,0,-1,-142,150)"/>
<path style="fill:none;stroke-width:0.4;stroke-linecap:round;stroke-linejoin:round;stroke:rgb(0%,0%,0%);stroke-opacity:1;stroke-miterlimit:10;" d="M 219.152344 137.199219 C 233.09375 148.675781 246.851562 149.382812 260.429688 139.324219 " transform="matrix(1,0,0,-1,-142,150)"/>
<path style="fill-rule:evenodd;fill:rgb(0%,0%,0%);fill-opacity:1;stroke-width:0.4;stroke-linecap:round;stroke-linejoin:round;stroke:rgb(0%,0%,0%);stroke-opacity:1;stroke-miterlimit:10;" d="M 260.429688 139.324219 L 257.40625 143.640625 L 255.421875 140.964844 Z M 260.429688 139.324219 " transform="matrix(1,0,0,-1,-142,150)"/>
<path style="fill:none;stroke-width:0.4;stroke-linecap:round;stroke-linejoin:round;stroke:rgb(0%,0%,0%);stroke-opacity:1;stroke-miterlimit:10;" d="M 254.265625 127.203125 C 275.550781 120.414062 289.859375 120.335938 297.195312 126.976562 " transform="matrix(1,0,0,-1,-142,150)"/>
<path style="fill-rule:evenodd;fill:rgb(0%,0%,0%);fill-opacity:1;stroke-width:0.4;stroke-linecap:round;stroke-linejoin:round;stroke:rgb(0%,0%,0%);stroke-opacity:1;stroke-miterlimit:10;" d="M 297.195312 126.976562 L 292.371094 124.855469 L 294.605469 122.386719 Z M 297.195312 126.976562 " transform="matrix(1,0,0,-1,-142,150)"/>
<path style="fill:none;stroke-width:0.4;stroke-linecap:round;stroke-linejoin:round;stroke:rgb(0%,0%,0%);stroke-opacity:1;stroke-miterlimit:10;" d="M 307.746094 137.824219 C 321.398438 151.726562 336.085938 152.28125 351.808594 139.484375 " transform="matrix(1,0,0,-1,-142,150)"/>
<path style="fill-rule:evenodd;fill:rgb(0%,0%,0%);fill-opacity:1;stroke-width:0.4;stroke-linecap:round;stroke-linejoin:round;stroke:rgb(0%,0%,0%);stroke-opacity:1;stroke-miterlimit:10;" d="M 351.808594 139.484375 L 348.980469 143.929688 L 346.878906 141.347656 Z M 351.808594 139.484375 " transform="matrix(1,0,0,-1,-142,150)"/>
<path style="fill:none;stroke-width:0.4;stroke-linecap:round;stroke-linejoin:round;stroke:rgb(0%,0%,0%);stroke-opacity:1;stroke-miterlimit:10;" d="M 348.476562 127.703125 C 369.050781 117.726562 389.28125 118.757812 396.414062 127.8125 " transform="matrix(1,0,0,-1,-142,150)"/>
<path style="fill-rule:evenodd;fill:rgb(0%,0%,0%);fill-opacity:1;stroke-width:0.4;stroke-linecap:round;stroke-linejoin:round;stroke:rgb(0%,0%,0%);stroke-opacity:1;stroke-miterlimit:10;" d="M 396.414062 127.8125 L 392.011719 124.917969 L 394.628906 122.855469 Z M 396.414062 127.8125 " transform="matrix(1,0,0,-1,-142,150)"/>
<path style="fill:none;stroke-width:0.4;stroke-linecap:round;stroke-linejoin:round;stroke:rgb(0%,0%,0%);stroke-opacity:1;stroke-miterlimit:10;" d="M 405.3125 136.558594 C 423.25 144.578125 438.816406 144.75 452.015625 137.066406 " transform="matrix(1,0,0,-1,-142,150)"/>
<path style="fill-rule:evenodd;fill:rgb(0%,0%,0%);fill-opacity:1;stroke-width:0.4;stroke-linecap:round;stroke-linejoin:round;stroke:rgb(0%,0%,0%);stroke-opacity:1;stroke-miterlimit:10;" d="M 452.015625 137.066406 L 448.53125 141.019531 L 446.859375 138.144531 Z M 452.015625 137.066406 " transform="matrix(1,0,0,-1,-142,150)"/>
</g>
</svg>
