<?xml version="1.0" encoding="UTF-8"?>
<svg xmlns="http://www.w3.org/2000/svg" xmlns:xlink="http://www.w3.org/1999/xlink" width="561pt" height="225pt" viewBox="0 0 561 225" version="1.1">
<defs>
<g>
<symbol overflow="visible" id="glyph0-0">
<path style="stroke:none;" d=""/>
</symbol>
<symbol overflow="visible" id="glyph0-1">
<path style="stroke:none;" d="M 5.71875 -16.578125 C 5.75 -16.671875 5.796875 -16.828125 5.796875 -16.953125 C 5.796875 -17.203125 5.546875 -17.203125 5.5 -17.203125 C 5.484375 -17.203125 4.578125 -17.125 4.140625 -17.078125 C 3.71875 -17.046875 3.34375 -17 2.90625 -16.96875 C 2.296875 -16.921875 2.125 -16.90625 2.125 -16.453125 C 2.125 -16.203125 2.375 -16.203125 2.625 -16.203125 C 3.890625 -16.203125 3.890625 -15.984375 3.890625 -15.734375 C 3.890625 -15.5625 3.6875 -14.84375 3.59375 -14.390625 L 3 -12.015625 C 2.75 -11.03125 1.34375 -5.40625 1.234375 -4.953125 C 1.109375 -4.34375 1.109375 -3.921875 1.109375 -3.59375 C 1.109375 -1.0625 2.53125 0.25 4.140625 0.25 C 7.015625 0.25 9.984375 -3.4375 9.984375 -7.03125 C 9.984375 -9.3125 8.703125 -10.921875 6.84375 -10.921875 C 5.546875 -10.921875 4.390625 -9.859375 3.921875 -9.375 Z M 4.15625 -0.25 C 3.375 -0.25 2.5 -0.84375 2.5 -2.78125 C 2.5 -3.59375 2.578125 -4.0625 3.015625 -5.796875 C 3.09375 -6.125 3.5 -7.703125 3.59375 -8.03125 C 3.640625 -8.234375 5.109375 -10.4375 6.796875 -10.4375 C 7.875 -10.4375 8.375 -9.34375 8.375 -8.046875 C 8.375 -6.859375 7.6875 -4.0625 7.0625 -2.78125 C 6.4375 -1.4375 5.296875 -0.25 4.15625 -0.25 Z M 4.15625 -0.25 "/>
</symbol>
<symbol overflow="visible" id="glyph0-2">
<path style="stroke:none;" d="M 12.46875 -16.578125 C 12.484375 -16.671875 12.546875 -16.828125 12.546875 -16.953125 C 12.546875 -17.203125 12.296875 -17.203125 12.234375 -17.203125 C 12.21875 -17.203125 11 -17.09375 10.875 -17.078125 C 10.453125 -17.046875 10.09375 -17 9.640625 -16.96875 C 9.015625 -16.921875 8.84375 -16.90625 8.84375 -16.453125 C 8.84375 -16.203125 9.046875 -16.203125 9.390625 -16.203125 C 10.609375 -16.203125 10.625 -15.984375 10.625 -15.734375 C 10.625 -15.59375 10.578125 -15.390625 10.5625 -15.3125 L 9.046875 -9.296875 C 8.765625 -9.9375 8.109375 -10.921875 6.8125 -10.921875 C 4.015625 -10.921875 0.984375 -7.3125 0.984375 -3.640625 C 0.984375 -1.1875 2.421875 0.25 4.109375 0.25 C 5.484375 0.25 6.640625 -0.8125 7.328125 -1.640625 C 7.578125 -0.171875 8.75 0.25 9.484375 0.25 C 10.234375 0.25 10.828125 -0.203125 11.28125 -1.09375 C 11.671875 -1.9375 12.015625 -3.4375 12.015625 -3.546875 C 12.015625 -3.671875 11.921875 -3.765625 11.765625 -3.765625 C 11.546875 -3.765625 11.515625 -3.640625 11.421875 -3.265625 C 11.046875 -1.8125 10.578125 -0.25 9.5625 -0.25 C 8.84375 -0.25 8.796875 -0.890625 8.796875 -1.390625 C 8.796875 -1.484375 8.796875 -2 8.96875 -2.703125 Z M 7.453125 -2.953125 C 7.328125 -2.53125 7.328125 -2.484375 6.984375 -2 C 6.4375 -1.3125 5.359375 -0.25 4.1875 -0.25 C 3.171875 -0.25 2.609375 -1.171875 2.609375 -2.625 C 2.609375 -3.984375 3.375 -6.765625 3.84375 -7.8125 C 4.6875 -9.546875 5.84375 -10.4375 6.8125 -10.4375 C 8.453125 -10.4375 8.765625 -8.40625 8.765625 -8.203125 C 8.765625 -8.171875 8.703125 -7.859375 8.671875 -7.8125 Z M 7.453125 -2.953125 "/>
</symbol>
<symbol overflow="visible" id="glyph1-0">
<path style="stroke:none;" d=""/>
</symbol>
<symbol overflow="visible" id="glyph1-1">
<path style="stroke:none;" d="M 9.6875 -9.3125 C 9.21875 -9.3125 9 -9.3125 8.65625 -9.015625 C 8.5 -8.890625 8.234375 -8.53125 8.234375 -8.125 C 8.234375 -7.625 8.59375 -7.328125 9.0625 -7.328125 C 9.671875 -7.328125 10.328125 -7.828125 10.328125 -8.828125 C 10.328125 -10.015625 9.1875 -10.921875 7.484375 -10.921875 C 4.234375 -10.921875 0.984375 -7.390625 0.984375 -3.859375 C 0.984375 -1.703125 2.328125 0.25 4.859375 0.25 C 8.234375 0.25 10.359375 -2.375 10.359375 -2.703125 C 10.359375 -2.84375 10.203125 -2.96875 10.109375 -2.96875 C 10.03125 -2.96875 10.015625 -2.953125 9.78125 -2.71875 C 8.203125 -0.625 5.84375 -0.25 4.90625 -0.25 C 3.203125 -0.25 2.65625 -1.734375 2.65625 -2.96875 C 2.65625 -3.84375 3.078125 -6.25 3.96875 -7.9375 C 4.609375 -9.09375 5.953125 -10.4375 7.515625 -10.4375 C 7.828125 -10.4375 9.1875 -10.390625 9.6875 -9.3125 Z M 9.6875 -9.3125 "/>
</symbol>
<symbol overflow="visible" id="glyph1-2">
<path style="stroke:none;" d="M 10.921875 -10.6875 C 10.921875 -10.796875 10.828125 -10.90625 10.703125 -10.90625 C 10.5 -10.90625 9.546875 -10.015625 9.0625 -9.140625 C 8.625 -10.265625 7.859375 -10.921875 6.796875 -10.921875 C 3.984375 -10.921875 0.96875 -7.3125 0.96875 -3.640625 C 0.96875 -1.1875 2.40625 0.25 4.09375 0.25 C 5.40625 0.25 6.5 -0.75 7.015625 -1.3125 L 7.03125 -1.28125 L 6.09375 2.421875 L 5.875 3.328125 C 5.65625 4.0625 5.28125 4.0625 4.109375 4.09375 C 3.84375 4.09375 3.59375 4.09375 3.59375 4.5625 C 3.59375 4.734375 3.734375 4.8125 3.921875 4.8125 C 4.265625 4.8125 4.703125 4.765625 5.0625 4.765625 L 7.578125 4.765625 C 7.953125 4.765625 8.375 4.8125 8.75 4.8125 C 8.890625 4.8125 9.1875 4.8125 9.1875 4.34375 C 9.1875 4.09375 9 4.09375 8.625 4.09375 C 7.453125 4.09375 7.390625 3.921875 7.390625 3.71875 C 7.390625 3.59375 7.40625 3.5625 7.484375 3.25 Z M 7.4375 -2.953125 C 7.3125 -2.53125 7.3125 -2.484375 6.96875 -2 C 6.421875 -1.3125 5.328125 -0.25 4.15625 -0.25 C 3.140625 -0.25 2.578125 -1.171875 2.578125 -2.625 C 2.578125 -3.984375 3.34375 -6.765625 3.8125 -7.8125 C 4.65625 -9.546875 5.828125 -10.4375 6.796875 -10.4375 C 8.421875 -10.4375 8.75 -8.40625 8.75 -8.203125 C 8.75 -8.171875 8.671875 -7.859375 8.65625 -7.8125 Z M 7.4375 -2.953125 "/>
</symbol>
<symbol overflow="visible" id="glyph2-0">
<path style="stroke:none;" d=""/>
</symbol>
<symbol overflow="visible" id="glyph2-1">
<path style="stroke:none;" d="M 17.875 -16.15625 C 17.875 -16.921875 17.796875 -17.03125 17 -17.03125 L 2.25 -17.03125 C 1.484375 -17.03125 1.390625 -16.953125 1.390625 -16.15625 L 1.390625 -0.890625 C 1.390625 -0.09375 1.46875 0 2.28125 0 L 16.96875 0 C 17.796875 0 17.875 -0.078125 17.875 -0.875 Z M 2.375 -16.03125 L 16.875 -16.03125 L 16.875 -0.984375 L 2.375 -0.984375 Z M 2.375 -16.03125 "/>
</symbol>
<symbol overflow="visible" id="glyph3-0">
<path style="stroke:none;" d=""/>
</symbol>
<symbol overflow="visible" id="glyph3-1">
<path style="stroke:none;" d="M 7.453125 -2.953125 C 7.328125 -2.53125 7.328125 -2.484375 6.984375 -2 C 6.4375 -1.3125 5.359375 -0.25 4.1875 -0.25 C 3.171875 -0.25 2.609375 -1.171875 2.609375 -2.625 C 2.609375 -3.984375 3.375 -6.765625 3.84375 -7.8125 C 4.6875 -9.546875 5.84375 -10.4375 6.8125 -10.4375 C 8.453125 -10.4375 8.765625 -8.40625 8.765625 -8.203125 C 8.765625 -8.171875 8.703125 -7.859375 8.671875 -7.8125 Z M 9.046875 -9.296875 C 8.765625 -9.9375 8.109375 -10.921875 6.8125 -10.921875 C 4.015625 -10.921875 0.984375 -7.3125 0.984375 -3.640625 C 0.984375 -1.1875 2.421875 0.25 4.109375 0.25 C 5.484375 0.25 6.640625 -0.8125 7.328125 -1.640625 C 7.578125 -0.171875 8.75 0.25 9.484375 0.25 C 10.234375 0.25 10.828125 -0.203125 11.28125 -1.09375 C 11.671875 -1.9375 12.015625 -3.4375 12.015625 -3.546875 C 12.015625 -3.671875 11.921875 -3.765625 11.765625 -3.765625 C 11.546875 -3.765625 11.515625 -3.640625 11.421875 -3.265625 C 11.046875 -1.8125 10.578125 -0.25 9.5625 -0.25 C 8.84375 -0.25 8.796875 -0.890625 8.796875 -1.390625 C 8.796875 -1.953125 8.875 -2.234375 9.09375 -3.203125 C 9.265625 -3.8125 9.390625 -4.359375 9.59375 -5.078125 C 10.5 -8.796875 10.734375 -9.6875 10.734375 -9.84375 C 10.734375 -10.1875 10.453125 -10.453125 10.09375 -10.453125 C 9.296875 -10.453125 9.09375 -9.59375 9.046875 -9.296875 Z M 9.046875 -9.296875 "/>
</symbol>
<symbol overflow="visible" id="glyph4-0">
<path style="stroke:none;" d=""/>
</symbol>
<symbol overflow="visible" id="glyph4-1">
<path style="stroke:none;" d="M 5.21875 -9.8125 C 5.328125 -10.0625 5.40625 -10.25 5.40625 -10.453125 C 5.40625 -11.046875 4.875 -11.546875 4.234375 -11.546875 C 3.65625 -11.546875 3.28125 -11.15625 3.140625 -10.625 L 0.6875 -1.59375 C 0.6875 -1.546875 0.59375 -1.328125 0.59375 -1.296875 C 0.59375 -1.078125 1.140625 -0.921875 1.296875 -0.921875 C 1.421875 -0.921875 1.453125 -0.984375 1.5625 -1.265625 Z M 5.21875 -9.8125 "/>
</symbol>
<symbol overflow="visible" id="glyph5-0">
<path style="stroke:none;" d=""/>
</symbol>
<symbol overflow="visible" id="glyph5-1">
<path style="stroke:none;" d="M 8.609375 -3.203125 L 8.234375 -3.203125 C 8.03125 -1.734375 7.875 -1.484375 7.78125 -1.359375 C 7.6875 -1.203125 6.203125 -1.203125 5.90625 -1.203125 L 1.9375 -1.203125 C 2.6875 -2 4.125 -3.46875 5.890625 -5.171875 C 7.140625 -6.359375 8.609375 -7.765625 8.609375 -9.8125 C 8.609375 -12.25 6.671875 -13.65625 4.5 -13.65625 C 2.234375 -13.65625 0.84375 -11.65625 0.84375 -9.796875 C 0.84375 -8.984375 1.453125 -8.875 1.6875 -8.875 C 1.90625 -8.875 2.515625 -9 2.515625 -9.734375 C 2.515625 -10.375 1.984375 -10.5625 1.6875 -10.5625 C 1.5625 -10.5625 1.453125 -10.53125 1.359375 -10.5 C 1.75 -12.25 2.953125 -13.109375 4.21875 -13.109375 C 6.015625 -13.109375 7.1875 -11.6875 7.1875 -9.8125 C 7.1875 -8.015625 6.140625 -6.46875 4.953125 -5.125 L 0.84375 -0.46875 L 0.84375 0 L 8.125 0 Z M 8.609375 -3.203125 "/>
</symbol>
<symbol overflow="visible" id="glyph6-0">
<path style="stroke:none;" d=""/>
</symbol>
<symbol overflow="visible" id="glyph6-1">
<path style="stroke:none;" d="M 4.5625 -1.1875 C 4.5625 -1.90625 3.96875 -2.40625 3.375 -2.40625 C 2.65625 -2.40625 2.15625 -1.8125 2.15625 -1.21875 C 2.15625 -0.5 2.75 0 3.34375 0 C 4.0625 0 4.5625 -0.59375 4.5625 -1.1875 Z M 4.5625 -1.1875 "/>
</symbol>
</g>
</defs>
<g id="surface6187">
<path style=" stroke:none;fill-rule:evenodd;fill:rgb(80.4%,60.8%,11.4%);fill-opacity:0.3;" d="M 65 33 L 65 65 L 513 65 L 513 33 Z M 65 33 "/>
<path style="fill:none;stroke-width:0.4;stroke-linecap:round;stroke-linejoin:round;stroke:rgb(0%,0%,0%);stroke-opacity:1;stroke-miterlimit:10;" d="M 128 384 L 512 384 " transform="matrix(1,0,0,-1,-31,417)"/>
<path style="fill:none;stroke-width:0.4;stroke-linecap:round;stroke-linejoin:round;stroke:rgb(0%,0%,0%);stroke-opacity:1;stroke-dasharray:1,3;stroke-miterlimit:10;" d="M 512 384 L 544 384 " transform="matrix(1,0,0,-1,-31,417)"/>
<path style="fill:none;stroke-width:0.4;stroke-linecap:round;stroke-linejoin:round;stroke:rgb(0%,0%,0%);stroke-opacity:1;stroke-dasharray:1,3;stroke-miterlimit:10;" d="M 96 384 L 128 384 " transform="matrix(1,0,0,-1,-31,417)"/>
<path style="fill:none;stroke-width:0.4;stroke-linecap:round;stroke-linejoin:round;stroke:rgb(0%,0%,0%);stroke-opacity:1;stroke-miterlimit:10;" d="M 128 352 L 512 352 " transform="matrix(1,0,0,-1,-31,417)"/>
<path style="fill:none;stroke-width:0.4;stroke-linecap:round;stroke-linejoin:round;stroke:rgb(0%,0%,0%);stroke-opacity:1;stroke-dasharray:1,3;stroke-miterlimit:10;" d="M 512 352 L 544 352 " transform="matrix(1,0,0,-1,-31,417)"/>
<path style="fill:none;stroke-width:0.4;stroke-linecap:round;stroke-linejoin:round;stroke:rgb(0%,0%,0%);stroke-opacity:1;stroke-dasharray:1,3;stroke-miterlimit:10;" d="M 96 352 L 128 352 " transform="matrix(1,0,0,-1,-31,417)"/>
<path style="fill:none;stroke-width:0.4;stroke-linecap:round;stroke-linejoin:round;stroke:rgb(0%,0%,0%);stroke-opacity:1;stroke-miterlimit:10;" d="M 128 384 L 128 352 " transform="matrix(1,0,0,-1,-31,417)"/>
<path style="fill:none;stroke-width:0.4;stroke-linecap:round;stroke-linejoin:round;stroke:rgb(0%,0%,0%);stroke-opacity:1;stroke-miterlimit:10;" d="M 160 384 L 160 352 " transform="matrix(1,0,0,-1,-31,417)"/>
<path style="fill:none;stroke-width:0.4;stroke-linecap:round;stroke-linejoin:round;stroke:rgb(0%,0%,0%);stroke-opacity:1;stroke-miterlimit:10;" d="M 192 384 L 192 352 " transform="matrix(1,0,0,-1,-31,417)"/>
<path style="fill:none;stroke-width:0.4;stroke-linecap:round;stroke-linejoin:round;stroke:rgb(0%,0%,0%);stroke-opacity:1;stroke-miterlimit:10;" d="M 224 384 L 224 352 " transform="matrix(1,0,0,-1,-31,417)"/>
<path style="fill:none;stroke-width:0.4;stroke-linecap:round;stroke-linejoin:round;stroke:rgb(0%,0%,0%);stroke-opacity:1;stroke-miterlimit:10;" d="M 256 384 L 256 352 " transform="matrix(1,0,0,-1,-31,417)"/>
<path style="fill:none;stroke-width:0.4;stroke-linecap:round;stroke-linejoin:round;stroke:rgb(0%,0%,0%);stroke-opacity:1;stroke-miterlimit:10;" d="M 288 384 L 288 352 " transform="matrix(1,0,0,-1,-31,417)"/>
<path style="fill:none;stroke-width:0.4;stroke-linecap:round;stroke-linejoin:round;stroke:rgb(0%,0%,0%);stroke-opacity:1;stroke-miterlimit:10;" d="M 320 384 L 320 352 " transform="matrix(1,0,0,-1,-31,417)"/>
<path style="fill:none;stroke-width:0.4;stroke-linecap:round;stroke-linejoin:round;stroke:rgb(0%,0%,0%);stroke-opacity:1;stroke-miterlimit:10;" d="M 352 384 L 352 352 " transform="matrix(1,0,0,-1,-31,417)"/>
<path style="fill:none;stroke-width:0.4;stroke-linecap:round;stroke-linejoin:round;stroke:rgb(0%,0%,0%);stroke-opacity:1;stroke-miterlimit:10;" d="M 384 384 L 384 352 " transform="matrix(1,0,0,-1,-31,417)"/>
<path style="fill:none;stroke-width:0.4;stroke-linecap:round;stroke-linejoin:round;stroke:rgb(0%,0%,0%);stroke-opacity:1;stroke-miterlimit:10;" d="M 416 384 L 416 352 " transform="matrix(1,0,0,-1,-31,417)"/>
<path style="fill:none;stroke-width:0.4;stroke-linecap:round;stroke-linejoin:round;stroke:rgb(0%,0%,0%);stroke-opacity:1;stroke-miterlimit:10;" d="M 448 384 L 448 352 " transform="matrix(1,0,0,-1,-31,417)"/>
<path style="fill:none;stroke-width:0.4;stroke-linecap:round;stroke-linejoin:round;stroke:rgb(0%,0%,0%);stroke-opacity:1;stroke-miterlimit:10;" d="M 480 384 L 480 352 " transform="matrix(1,0,0,-1,-31,417)"/>
<path style="fill:none;stroke-width:0.4;stroke-linecap:round;stroke-linejoin:round;stroke:rgb(0%,0%,0%);stroke-opacity:1;stroke-miterlimit:10;" d="M 512 384 L 512 352 " transform="matrix(1,0,0,-1,-31,417)"/>
<path style="fill:none;stroke-width:0.4;stroke-linecap:round;stroke-linejoin:round;stroke:rgb(0%,0%,0%);stroke-opacity:1;stroke-miterlimit:10;" d="M 192 336 L 192 320 L 176 304 L 176 272 L 192 256 L 224 256 L 240 272 L 240 304 L 224 320 L 224 336 " transform="matrix(1,0,0,-1,-31,417)"/>
<path style="fill-rule:evenodd;fill:rgb(46.3%,93.3%,77.6%);fill-opacity:0.3;stroke-width:0.4;stroke-linecap:round;stroke-linejoin:round;stroke:rgb(0%,0%,0%);stroke-opacity:1;stroke-miterlimit:10;" d="M 192 334.78125 C 192 338.894531 192 341.792969 193.015625 344.460938 C 194.027344 347.125 196.058594 349.5625 198.082031 350.78125 C 200.105469 352 202.121094 352 204.539062 352 C 206.957031 352 209.773438 352 212.214844 352 C 214.65625 352 216.722656 352 218.625 350.640625 C 220.527344 349.28125 222.265625 346.5625 223.132812 343.898438 C 224 341.230469 224 338.617188 224 335.832031 C 224 333.050781 224 330.097656 224 327.433594 C 224 324.765625 224 322.382812 224 321.191406 C 224 320 224 320 226.667969 317.332031 C 229.332031 314.667969 234.667969 309.332031 237.332031 306.667969 C 240 304 240 304 240 298.667969 C 240 293.332031 240 282.667969 240 277.332031 C 240 272 240 272 237.332031 269.332031 C 234.667969 266.667969 229.332031 261.332031 226.667969 258.667969 C 224 256 224 256 218.667969 256 C 213.332031 256 202.667969 256 197.332031 256 C 192 256 192 256 189.332031 258.667969 C 186.667969 261.332031 181.332031 266.667969 178.667969 269.332031 C 176 272 176 272 176 277.332031 C 176 282.667969 176 293.332031 176 298.667969 C 176 304 176 304 178.667969 306.667969 C 181.332031 309.332031 186.667969 314.667969 189.332031 317.332031 C 192 320 192 320 192 320 C 192 320 192 320 192 322.667969 C 192 325.332031 192 330.667969 192 334.78125 Z M 192 334.78125 " transform="matrix(1,0,0,-1,-31,417)"/>
<path style="fill-rule:evenodd;fill:rgb(46.3%,93.3%,77.6%);fill-opacity:0.3;stroke-width:0.4;stroke-linecap:round;stroke-linejoin:round;stroke:rgb(0%,0%,0%);stroke-opacity:1;stroke-miterlimit:10;" d="M 192 334.78125 C 192 338.894531 192 341.792969 193.015625 344.460938 C 194.027344 347.125 196.058594 349.5625 198.082031 350.78125 C 200.105469 352 202.121094 352 204.539062 352 C 206.957031 352 209.773438 352 212.214844 352 C 214.65625 352 216.722656 352 218.625 350.640625 C 220.527344 349.28125 222.265625 346.5625 223.132812 343.898438 C 224 341.230469 224 338.617188 224 335.832031 C 224 333.050781 224 330.097656 224 327.433594 C 224 324.765625 224 322.382812 224 321.191406 C 224 320 224 320 226.667969 317.332031 C 229.332031 314.667969 234.667969 309.332031 237.332031 306.667969 C 240 304 240 304 240 298.667969 C 240 293.332031 240 282.667969 240 277.332031 C 240 272 240 272 237.332031 269.332031 C 234.667969 266.667969 229.332031 261.332031 226.667969 258.667969 C 224 256 224 256 218.667969 256 C 213.332031 256 202.667969 256 197.332031 256 C 192 256 192 256 189.332031 258.667969 C 186.667969 261.332031 181.332031 266.667969 178.667969 269.332031 C 176 272 176 272 176 277.332031 C 176 282.667969 176 293.332031 176 298.667969 C 176 304 176 304 178.667969 306.667969 C 181.332031 309.332031 186.667969 314.667969 189.332031 317.332031 C 192 320 192 320 192 320 C 192 320 192 320 192 322.667969 C 192 325.332031 192 330.667969 192 334.78125 Z M 192 334.78125 " transform="matrix(1,0,0,-1,-31,417)"/>
<path style="fill:none;stroke-width:0.4;stroke-linecap:round;stroke-linejoin:round;stroke:rgb(100%,89.4%,76.9%);stroke-opacity:0.1;stroke-miterlimit:10;" d="M 32 416 L 32 192 L 592 192 L 592 416 Z M 32 416 " transform="matrix(1,0,0,-1,-31,417)"/>
<g style="fill:rgb(0%,0%,0%);fill-opacity:1;">
  <use xlink:href="#glyph0-1" x="170.2972" y="56.0485"/>
</g>
<g style="fill:rgb(0%,0%,0%);fill-opacity:1;">
  <use xlink:href="#glyph1-1" x="202.2972" y="56.0485"/>
</g>
<g style="fill:rgb(0%,0%,0%);fill-opacity:1;">
  <use xlink:href="#glyph0-2" x="234.2972" y="56.0485"/>
</g>
<g style="fill:rgb(0%,0%,0%);fill-opacity:1;">
  <use xlink:href="#glyph2-1" x="106.2973" y="56.0485"/>
</g>
<g style="fill:rgb(0%,0%,0%);fill-opacity:1;">
  <use xlink:href="#glyph2-1" x="266.297" y="56.0485"/>
</g>
<path style=" stroke:none;fill-rule:evenodd;fill:rgb(80.4%,60.8%,11.4%);fill-opacity:0.3;" d="M 65 33 L 65 65 L 513 65 L 513 33 Z M 65 33 "/>
<path style="fill:none;stroke-width:0.4;stroke-linecap:round;stroke-linejoin:round;stroke:rgb(0%,0%,0%);stroke-opacity:1;stroke-miterlimit:10;" d="M 128 384 L 512 384 " transform="matrix(1,0,0,-1,-31,417)"/>
<path style="fill:none;stroke-width:0.4;stroke-linecap:round;stroke-linejoin:round;stroke:rgb(0%,0%,0%);stroke-opacity:1;stroke-dasharray:1,3;stroke-miterlimit:10;" d="M 512 384 L 544 384 " transform="matrix(1,0,0,-1,-31,417)"/>
<path style="fill:none;stroke-width:0.4;stroke-linecap:round;stroke-linejoin:round;stroke:rgb(0%,0%,0%);stroke-opacity:1;stroke-dasharray:1,3;stroke-miterlimit:10;" d="M 96 384 L 128 384 " transform="matrix(1,0,0,-1,-31,417)"/>
<path style="fill:none;stroke-width:0.4;stroke-linecap:round;stroke-linejoin:round;stroke:rgb(0%,0%,0%);stroke-opacity:1;stroke-miterlimit:10;" d="M 128 352 L 512 352 " transform="matrix(1,0,0,-1,-31,417)"/>
<path style="fill:none;stroke-width:0.4;stroke-linecap:round;stroke-linejoin:round;stroke:rgb(0%,0%,0%);stroke-opacity:1;stroke-dasharray:1,3;stroke-miterlimit:10;" d="M 512 352 L 544 352 " transform="matrix(1,0,0,-1,-31,417)"/>
<path style="fill:none;stroke-width:0.4;stroke-linecap:round;stroke-linejoin:round;stroke:rgb(0%,0%,0%);stroke-opacity:1;stroke-dasharray:1,3;stroke-miterlimit:10;" d="M 96 352 L 128 352 " transform="matrix(1,0,0,-1,-31,417)"/>
<path style="fill:none;stroke-width:0.4;stroke-linecap:round;stroke-linejoin:round;stroke:rgb(0%,0%,0%);stroke-opacity:1;stroke-miterlimit:10;" d="M 128 384 L 128 352 " transform="matrix(1,0,0,-1,-31,417)"/>
<path style="fill:none;stroke-width:0.4;stroke-linecap:round;stroke-linejoin:round;stroke:rgb(0%,0%,0%);stroke-opacity:1;stroke-miterlimit:10;" d="M 160 384 L 160 352 " transform="matrix(1,0,0,-1,-31,417)"/>
<path style="fill:none;stroke-width:0.4;stroke-linecap:round;stroke-linejoin:round;stroke:rgb(0%,0%,0%);stroke-opacity:1;stroke-miterlimit:10;" d="M 192 384 L 192 352 " transform="matrix(1,0,0,-1,-31,417)"/>
<path style="fill:none;stroke-width:0.4;stroke-linecap:round;stroke-linejoin:round;stroke:rgb(0%,0%,0%);stroke-opacity:1;stroke-miterlimit:10;" d="M 224 384 L 224 352 " transform="matrix(1,0,0,-1,-31,417)"/>
<path style="fill:none;stroke-width:0.4;stroke-linecap:round;stroke-linejoin:round;stroke:rgb(0%,0%,0%);stroke-opacity:1;stroke-miterlimit:10;" d="M 256 384 L 256 352 " transform="matrix(1,0,0,-1,-31,417)"/>
<path style="fill:none;stroke-width:0.4;stroke-linecap:round;stroke-linejoin:round;stroke:rgb(0%,0%,0%);stroke-opacity:1;stroke-miterlimit:10;" d="M 288 384 L 288 352 " transform="matrix(1,0,0,-1,-31,417)"/>
<path style="fill:none;stroke-width:0.4;stroke-linecap:round;stroke-linejoin:round;stroke:rgb(0%,0%,0%);stroke-opacity:1;stroke-miterlimit:10;" d="M 320 384 L 320 352 " transform="matrix(1,0,0,-1,-31,417)"/>
<path style="fill:none;stroke-width:0.4;stroke-linecap:round;stroke-linejoin:round;stroke:rgb(0%,0%,0%);stroke-opacity:1;stroke-miterlimit:10;" d="M 352 384 L 352 352 " transform="matrix(1,0,0,-1,-31,417)"/>
<path style="fill:none;stroke-width:0.4;stroke-linecap:round;stroke-linejoin:round;stroke:rgb(0%,0%,0%);stroke-opacity:1;stroke-miterlimit:10;" d="M 384 384 L 384 352 " transform="matrix(1,0,0,-1,-31,417)"/>
<path style="fill:none;stroke-width:0.4;stroke-linecap:round;stroke-linejoin:round;stroke:rgb(0%,0%,0%);stroke-opacity:1;stroke-miterlimit:10;" d="M 416 384 L 416 352 " transform="matrix(1,0,0,-1,-31,417)"/>
<path style="fill:none;stroke-width:0.4;stroke-linecap:round;stroke-linejoin:round;stroke:rgb(0%,0%,0%);stroke-opacity:1;stroke-miterlimit:10;" d="M 448 384 L 448 352 " transform="matrix(1,0,0,-1,-31,417)"/>
<path style="fill:none;stroke-width:0.4;stroke-linecap:round;stroke-linejoin:round;stroke:rgb(0%,0%,0%);stroke-opacity:1;stroke-miterlimit:10;" d="M 480 384 L 480 352 " transform="matrix(1,0,0,-1,-31,417)"/>
<path style="fill:none;stroke-width:0.4;stroke-linecap:round;stroke-linejoin:round;stroke:rgb(0%,0%,0%);stroke-opacity:1;stroke-miterlimit:10;" d="M 512 384 L 512 352 " transform="matrix(1,0,0,-1,-31,417)"/>
<g style="fill:rgb(0%,0%,0%);fill-opacity:1;">
  <use xlink:href="#glyph3-1" x="138.29725" y="56.0485"/>
</g>
<g style="fill:rgb(0%,0%,0%);fill-opacity:1;">
  <use xlink:href="#glyph4-1" x="151.03825" y="47.0535"/>
</g>
<path style="fill:none;stroke-width:0.4;stroke-linecap:round;stroke-linejoin:round;stroke:rgb(0%,0%,0%);stroke-opacity:1;stroke-miterlimit:10;" d="M 192 336 L 192 320 L 176 304 L 176 272 L 192 256 L 224 256 L 240 272 L 240 304 L 224 320 L 224 336 " transform="matrix(1,0,0,-1,-31,417)"/>
<path style="fill-rule:evenodd;fill:rgb(46.3%,93.3%,77.6%);fill-opacity:0.3;stroke-width:0.4;stroke-linecap:round;stroke-linejoin:round;stroke:rgb(0%,0%,0%);stroke-opacity:1;stroke-miterlimit:10;" d="M 192 334.78125 C 192 338.894531 192 341.792969 193.015625 344.460938 C 194.027344 347.125 196.058594 349.5625 198.082031 350.78125 C 200.105469 352 202.121094 352 204.539062 352 C 206.957031 352 209.773438 352 212.214844 352 C 214.65625 352 216.722656 352 218.625 350.640625 C 220.527344 349.28125 222.265625 346.5625 223.132812 343.898438 C 224 341.230469 224 338.617188 224 335.832031 C 224 333.050781 224 330.097656 224 327.433594 C 224 324.765625 224 322.382812 224 321.191406 C 224 320 224 320 226.667969 317.332031 C 229.332031 314.667969 234.667969 309.332031 237.332031 306.667969 C 240 304 240 304 240 298.667969 C 240 293.332031 240 282.667969 240 277.332031 C 240 272 240 272 237.332031 269.332031 C 234.667969 266.667969 229.332031 261.332031 226.667969 258.667969 C 224 256 224 256 218.667969 256 C 213.332031 256 202.667969 256 197.332031 256 C 192 256 192 256 189.332031 258.667969 C 186.667969 261.332031 181.332031 266.667969 178.667969 269.332031 C 176 272 176 272 176 277.332031 C 176 282.667969 176 293.332031 176 298.667969 C 176 304 176 304 178.667969 306.667969 C 181.332031 309.332031 186.667969 314.667969 189.332031 317.332031 C 192 320 192 320 192 320 C 192 320 192 320 192 322.667969 C 192 325.332031 192 330.667969 192 334.78125 Z M 192 334.78125 " transform="matrix(1,0,0,-1,-31,417)"/>
<path style="fill-rule:evenodd;fill:rgb(46.3%,93.3%,77.6%);fill-opacity:0.3;stroke-width:0.4;stroke-linecap:round;stroke-linejoin:round;stroke:rgb(0%,0%,0%);stroke-opacity:1;stroke-miterlimit:10;" d="M 192 334.78125 C 192 338.894531 192 341.792969 193.015625 344.460938 C 194.027344 347.125 196.058594 349.5625 198.082031 350.78125 C 200.105469 352 202.121094 352 204.539062 352 C 206.957031 352 209.773438 352 212.214844 352 C 214.65625 352 216.722656 352 218.625 350.640625 C 220.527344 349.28125 222.265625 346.5625 223.132812 343.898438 C 224 341.230469 224 338.617188 224 335.832031 C 224 333.050781 224 330.097656 224 327.433594 C 224 324.765625 224 322.382812 224 321.191406 C 224 320 224 320 226.667969 317.332031 C 229.332031 314.667969 234.667969 309.332031 237.332031 306.667969 C 240 304 240 304 240 298.667969 C 240 293.332031 240 282.667969 240 277.332031 C 240 272 240 272 237.332031 269.332031 C 234.667969 266.667969 229.332031 261.332031 226.667969 258.667969 C 224 256 224 256 218.667969 256 C 213.332031 256 202.667969 256 197.332031 256 C 192 256 192 256 189.332031 258.667969 C 186.667969 261.332031 181.332031 266.667969 178.667969 269.332031 C 176 272 176 272 176 277.332031 C 176 282.667969 176 293.332031 176 298.667969 C 176 304 176 304 178.667969 306.667969 C 181.332031 309.332031 186.667969 314.667969 189.332031 317.332031 C 192 320 192 320 192 320 C 192 320 192 320 192 322.667969 C 192 325.332031 192 330.667969 192 334.78125 Z M 192 334.78125 " transform="matrix(1,0,0,-1,-31,417)"/>
<path style="fill:none;stroke-width:0.4;stroke-linecap:round;stroke-linejoin:round;stroke:rgb(100%,89.4%,76.9%);stroke-opacity:0.1;stroke-miterlimit:10;" d="M 32 416 L 32 192 L 592 192 L 592 416 Z M 32 416 " transform="matrix(1,0,0,-1,-31,417)"/>
<g style="fill:rgb(0%,0%,0%);fill-opacity:1;">
  <use xlink:href="#glyph0-1" x="170.2972" y="56.0485"/>
</g>
<g style="fill:rgb(0%,0%,0%);fill-opacity:1;">
  <use xlink:href="#glyph1-1" x="202.2972" y="56.0485"/>
</g>
<g style="fill:rgb(0%,0%,0%);fill-opacity:1;">
  <use xlink:href="#glyph0-2" x="234.2972" y="56.0485"/>
</g>
<g style="fill:rgb(0%,0%,0%);fill-opacity:1;">
  <use xlink:href="#glyph2-1" x="106.2973" y="56.0485"/>
</g>
<g style="fill:rgb(0%,0%,0%);fill-opacity:1;">
  <use xlink:href="#glyph2-1" x="266.297" y="56.0485"/>
</g>
<g style="fill:rgb(0%,0%,0%);fill-opacity:1;">
  <use xlink:href="#glyph1-2" x="164.123" y="122.97781"/>
</g>
<g style="fill:rgb(0%,0%,0%);fill-opacity:1;">
  <use xlink:href="#glyph5-1" x="174.884" y="127.75981"/>
</g>
<g style="fill:rgb(0%,0%,0%);fill-opacity:1;">
  <use xlink:href="#glyph2-1" x="298.297" y="56.0485"/>
</g>
<g style="fill:rgb(0%,0%,0%);fill-opacity:1;">
  <use xlink:href="#glyph2-1" x="330.297" y="56.0485"/>
</g>
<g style="fill:rgb(0%,0%,0%);fill-opacity:1;">
  <use xlink:href="#glyph2-1" x="362.297" y="56.0485"/>
</g>
<g style="fill:rgb(0%,0%,0%);fill-opacity:1;">
  <use xlink:href="#glyph6-1" x="394.297" y="56.0485"/>
  <use xlink:href="#glyph6-1" x="405.178537" y="56.0485"/>
  <use xlink:href="#glyph6-1" x="416.035287" y="56.0485"/>
</g>
</g>
</svg>
