<?xml version="1.0" encoding="UTF-8"?>
<svg xmlns="http://www.w3.org/2000/svg" xmlns:xlink="http://www.w3.org/1999/xlink" width="713pt" height="498pt" viewBox="0 0 713 498" version="1.1">
<defs>
<g>
<symbol overflow="visible" id="glyph0-0">
<path style="stroke:none;" d=""/>
</symbol>
<symbol overflow="visible" id="glyph0-1">
<path style="stroke:none;" d="M 5.125 -18.96875 L 2.65625 -18.96875 L 2.65625 -16.484375 L 5.125 -16.484375 Z M -1.703125 4.765625 C -0.359375 5.546875 0.921875 5.71875 1.640625 5.71875 C 3.40625 5.71875 5.125 4.265625 5.125 1.640625 L 5.125 -12.390625 L 3.046875 -12.390625 L 3.046875 1.890625 C 3.046875 3.6875 1.640625 3.9375 0.859375 3.9375 C 0.0625 3.9375 -0.671875 3.625 -1.28125 3.0625 Z M -1.703125 4.765625 "/>
</symbol>
<symbol overflow="visible" id="glyph0-2">
<path style="stroke:none;" d="M 13.078125 -6.140625 C 13.078125 -9.875 10.296875 -12.859375 6.96875 -12.859375 C 3.546875 -12.859375 0.84375 -9.796875 0.84375 -6.140625 C 0.84375 -2.453125 3.6875 0.3125 6.9375 0.3125 C 10.296875 0.3125 13.078125 -2.515625 13.078125 -6.140625 Z M 6.9375 -1.484375 C 5.015625 -1.484375 3.015625 -3.046875 3.015625 -6.421875 C 3.015625 -9.796875 5.125 -11.15625 6.9375 -11.15625 C 8.890625 -11.15625 10.90625 -9.703125 10.90625 -6.421875 C 10.90625 -3.125 9.015625 -1.484375 6.9375 -1.484375 Z M 6.9375 -1.484375 "/>
</symbol>
<symbol overflow="visible" id="glyph0-3">
<path style="stroke:none;" d="M 4.375 -19.359375 L 2.28125 -19.359375 L 2.28125 0 L 4.46875 0 L 4.46875 -1.28125 C 5.125 -0.671875 6.328125 0.3125 8.203125 0.3125 C 10.984375 0.3125 13.390625 -2.484375 13.390625 -6.21875 C 13.390625 -9.671875 11.484375 -12.6875 8.875 -12.6875 C 7.78125 -12.6875 6.046875 -12.40625 4.375 -11.046875 Z M 4.46875 -9.34375 C 4.90625 -10.015625 5.90625 -10.984375 7.453125 -10.984375 C 9.09375 -10.984375 11.21875 -9.796875 11.21875 -6.21875 C 11.21875 -2.59375 8.875 -1.390625 7.171875 -1.390625 C 6.078125 -1.390625 5.15625 -1.890625 4.46875 -3.171875 Z M 4.46875 -9.34375 "/>
</symbol>
<symbol overflow="visible" id="glyph0-4">
<path style="stroke:none;" d="M 4.34375 -19.359375 L 2.265625 -19.359375 L 2.265625 0 L 4.34375 0 Z M 4.34375 -19.359375 "/>
</symbol>
<symbol overflow="visible" id="glyph0-5">
<path style="stroke:none;" d="M 11.546875 -6.109375 C 11.546875 -7.0625 11.515625 -9.140625 10.4375 -10.828125 C 9.28125 -12.546875 7.59375 -12.859375 6.578125 -12.859375 C 3.484375 -12.859375 0.96875 -9.90625 0.96875 -6.296875 C 0.96875 -2.625 3.65625 0.3125 7 0.3125 C 8.75 0.3125 10.34375 -0.359375 11.4375 -1.140625 L 11.265625 -2.953125 C 9.515625 -1.5 7.671875 -1.390625 7.03125 -1.390625 C 4.796875 -1.390625 3.015625 -3.375 2.921875 -6.109375 Z M 3.0625 -7.640625 C 3.515625 -9.765625 5 -11.15625 6.578125 -11.15625 C 8.03125 -11.15625 9.59375 -10.203125 9.953125 -7.640625 Z M 3.0625 -7.640625 "/>
</symbol>
<symbol overflow="visible" id="glyph0-6">
<path style="stroke:none;" d="M 9.5625 -11.96875 C 8.109375 -12.640625 6.96875 -12.859375 5.546875 -12.859375 C 4.859375 -12.859375 0.921875 -12.859375 0.921875 -9.203125 C 0.921875 -7.84375 1.734375 -6.9375 2.421875 -6.421875 C 3.296875 -5.796875 3.90625 -5.6875 5.4375 -5.390625 C 6.4375 -5.1875 8.0625 -4.859375 8.0625 -3.375 C 8.0625 -1.453125 5.859375 -1.453125 5.4375 -1.453125 C 3.171875 -1.453125 1.625 -2.484375 1.109375 -2.8125 L 0.78125 -0.921875 C 1.671875 -0.46875 3.203125 0.3125 5.46875 0.3125 C 5.96875 0.3125 7.5 0.3125 8.703125 -0.578125 C 9.5625 -1.25 10.046875 -2.375 10.046875 -3.5625 C 10.046875 -5.109375 9.015625 -6.046875 8.953125 -6.140625 C 7.859375 -7.109375 7.109375 -7.28125 5.71875 -7.53125 C 4.1875 -7.84375 2.90625 -8.109375 2.90625 -9.484375 C 2.90625 -11.21875 4.90625 -11.21875 5.265625 -11.21875 C 6.15625 -11.21875 7.640625 -11.09375 9.234375 -10.15625 Z M 9.5625 -11.96875 "/>
</symbol>
<symbol overflow="visible" id="glyph0-7">
<path style="stroke:none;" d="M 12.125 -8.3125 C 12.125 -10.15625 11.71875 -12.6875 8.3125 -12.6875 C 5.796875 -12.6875 4.4375 -10.796875 4.265625 -10.578125 L 4.265625 -12.546875 L 2.265625 -12.546875 L 2.265625 0 L 4.4375 0 L 4.4375 -6.828125 C 4.4375 -8.671875 5.125 -10.984375 7.25 -10.984375 C 9.921875 -10.984375 9.953125 -9.015625 9.953125 -8.109375 L 9.953125 0 L 12.125 0 Z M 12.125 -8.3125 "/>
</symbol>
<symbol overflow="visible" id="glyph0-8">
<path style="stroke:none;" d="M 12.4375 -12.390625 L 10.34375 -12.390625 C 6.71875 -3.515625 6.671875 -2.234375 6.640625 -1.59375 L 6.609375 -1.59375 C 6.4375 -3.453125 4.21875 -8.640625 4.09375 -8.890625 L 2.59375 -12.390625 L 0.390625 -12.390625 L 5.796875 0 C 5.46875 0.859375 4.90625 2.265625 4.796875 2.515625 C 4.078125 4.125 3.59375 4.125 3.203125 4.125 C 2.765625 4.125 1.875 4.015625 1.03125 3.6875 L 1.203125 5.5 C 1.8125 5.640625 2.59375 5.71875 3.203125 5.71875 C 4.1875 5.71875 5.21875 5.390625 6.359375 2.53125 Z M 12.4375 -12.390625 "/>
</symbol>
<symbol overflow="visible" id="glyph0-9">
<path style="stroke:none;" d="M 11.125 -8.0625 C 11.125 -10.90625 9.09375 -12.859375 6.53125 -12.859375 C 4.71875 -12.859375 3.453125 -12.40625 2.140625 -11.65625 L 2.3125 -9.8125 C 3.765625 -10.84375 5.15625 -11.21875 6.53125 -11.21875 C 7.84375 -11.21875 8.953125 -10.09375 8.953125 -8.03125 L 8.953125 -6.828125 C 4.765625 -6.78125 1.234375 -5.609375 1.234375 -3.15625 C 1.234375 -1.953125 1.984375 0.3125 4.40625 0.3125 C 4.796875 0.3125 7.421875 0.25 9.03125 -1 L 9.03125 0 L 11.125 0 Z M 8.953125 -3.6875 C 8.953125 -3.15625 8.953125 -2.453125 8 -1.921875 C 7.203125 -1.421875 6.140625 -1.390625 5.828125 -1.390625 C 4.484375 -1.390625 3.234375 -2.03125 3.234375 -3.203125 C 3.234375 -5.15625 7.75 -5.359375 8.953125 -5.40625 Z M 8.953125 -3.6875 "/>
</symbol>
<symbol overflow="visible" id="glyph0-10">
<path style="stroke:none;" d="M 12.109375 -19.359375 L 10.015625 -19.359375 L 10.015625 -11.15625 C 8.53125 -12.390625 6.96875 -12.6875 5.9375 -12.6875 C 3.171875 -12.6875 1 -9.796875 1 -6.1875 C 1 -2.53125 3.15625 0.3125 5.796875 0.3125 C 6.71875 0.3125 8.375 0.0625 9.921875 -1.453125 L 9.921875 0 L 12.109375 0 Z M 9.921875 -3.875 C 9.921875 -3.484375 9.90625 -2.984375 9.015625 -2.171875 C 8.375 -1.625 7.671875 -1.390625 6.9375 -1.390625 C 5.21875 -1.390625 3.171875 -2.703125 3.171875 -6.15625 C 3.171875 -9.84375 5.578125 -10.984375 7.21875 -10.984375 C 8.484375 -10.984375 9.3125 -10.34375 9.921875 -9.453125 Z M 9.921875 -3.875 "/>
</symbol>
<symbol overflow="visible" id="glyph0-11">
<path style="stroke:none;" d="M 4.546875 -18.96875 L 2.0625 -18.96875 L 2.0625 -16.484375 L 4.546875 -16.484375 Z M 4.34375 -12.390625 L 2.265625 -12.390625 L 2.265625 0 L 4.34375 0 Z M 4.34375 -12.390625 "/>
</symbol>
<symbol overflow="visible" id="glyph0-12">
<path style="stroke:none;" d="M 4.375 -5.96875 C 4.375 -8.75 6.390625 -10.765625 9.125 -10.828125 L 9.125 -12.6875 C 6.640625 -12.65625 5.109375 -11.296875 4.234375 -10.015625 L 4.234375 -12.546875 L 2.28125 -12.546875 L 2.28125 0 L 4.375 0 Z M 4.375 -5.96875 "/>
</symbol>
<symbol overflow="visible" id="glyph0-13">
<path style="stroke:none;" d="M 4.90625 -10.765625 L 7.984375 -10.765625 L 7.984375 -12.390625 L 4.828125 -12.390625 L 4.828125 -15.703125 C 4.828125 -17.765625 6.6875 -17.96875 7.421875 -17.96875 C 7.984375 -17.96875 8.734375 -17.90625 9.671875 -17.484375 L 9.671875 -19.359375 C 9.34375 -19.4375 8.484375 -19.65625 7.453125 -19.65625 C 4.828125 -19.65625 2.8125 -17.6875 2.8125 -14.890625 L 2.8125 -12.390625 L 0.75 -12.390625 L 0.75 -10.765625 L 2.8125 -10.765625 L 2.8125 0 L 4.90625 0 Z M 4.90625 -10.765625 "/>
</symbol>
<symbol overflow="visible" id="glyph0-14">
<path style="stroke:none;" d="M 9.8125 -10.90625 C 10.4375 -10.90625 11.21875 -11.015625 11.875 -11.015625 C 12.390625 -11.015625 13.46875 -10.9375 13.53125 -10.9375 L 13.21875 -12.6875 C 11.265625 -12.6875 9.65625 -12.15625 8.8125 -11.796875 C 8.234375 -12.265625 7.28125 -12.6875 6.15625 -12.6875 C 3.765625 -12.6875 1.734375 -10.6875 1.734375 -8.140625 C 1.734375 -7.109375 2.09375 -6.109375 2.65625 -5.390625 C 1.84375 -4.234375 1.84375 -3.15625 1.84375 -3.015625 C 1.84375 -2.28125 2.09375 -1.484375 2.5625 -0.890625 C 1.109375 -0.03125 0.78125 1.25 0.78125 1.984375 C 0.78125 4.078125 3.546875 5.75 6.9375 5.75 C 10.375 5.75 13.140625 4.09375 13.140625 1.953125 C 13.140625 -1.921875 8.484375 -1.921875 7.390625 -1.921875 L 4.9375 -1.921875 C 4.578125 -1.921875 3.3125 -1.921875 3.3125 -3.40625 C 3.3125 -3.703125 3.4375 -4.15625 3.625 -4.40625 C 4.21875 -3.984375 5.125 -3.59375 6.15625 -3.59375 C 8.671875 -3.59375 10.625 -5.65625 10.625 -8.140625 C 10.625 -9.484375 10.015625 -10.515625 9.703125 -10.9375 Z M 6.15625 -5.1875 C 5.125 -5.1875 3.6875 -5.828125 3.6875 -8.140625 C 3.6875 -10.453125 5.125 -11.09375 6.15625 -11.09375 C 7.359375 -11.09375 8.671875 -10.3125 8.671875 -8.140625 C 8.671875 -5.96875 7.359375 -5.1875 6.15625 -5.1875 Z M 7.421875 0.078125 C 8.03125 0.078125 11.1875 0.078125 11.1875 2.015625 C 11.1875 3.234375 9.265625 4.15625 6.96875 4.15625 C 4.71875 4.15625 2.734375 3.296875 2.734375 1.984375 C 2.734375 1.890625 2.734375 0.078125 4.90625 0.078125 Z M 7.421875 0.078125 "/>
</symbol>
<symbol overflow="visible" id="glyph0-15">
<path style="stroke:none;" d="M 11.4375 -11.65625 C 9.796875 -12.609375 8.84375 -12.859375 7.140625 -12.859375 C 3.265625 -12.859375 1 -9.484375 1 -6.1875 C 1 -2.734375 3.546875 0.3125 7.03125 0.3125 C 8.53125 0.3125 10.0625 -0.078125 11.578125 -1.109375 L 11.40625 -2.984375 C 9.984375 -1.875 8.484375 -1.484375 7.0625 -1.484375 C 4.734375 -1.484375 3.171875 -3.484375 3.171875 -6.21875 C 3.171875 -8.390625 4.21875 -11.078125 7.171875 -11.078125 C 8.625 -11.078125 9.5625 -10.84375 11.09375 -9.84375 Z M 11.4375 -11.65625 "/>
</symbol>
<symbol overflow="visible" id="glyph0-16">
<path style="stroke:none;" d="M 4.46875 -1.28125 C 5.328125 -0.46875 6.546875 0.3125 8.234375 0.3125 C 10.9375 0.3125 13.390625 -2.421875 13.390625 -6.21875 C 13.390625 -9.5625 11.625 -12.6875 8.953125 -12.6875 C 7.28125 -12.6875 5.65625 -12.109375 4.375 -11.015625 L 4.375 -12.390625 L 2.28125 -12.390625 L 2.28125 5.40625 L 4.46875 5.40625 Z M 4.46875 -9.28125 C 5.125 -10.265625 6.21875 -10.90625 7.421875 -10.90625 C 9.53125 -10.90625 11.21875 -8.78125 11.21875 -6.21875 C 11.21875 -3.34375 9.234375 -1.390625 7.140625 -1.390625 C 6.046875 -1.390625 5.296875 -1.953125 4.734375 -2.703125 C 4.46875 -3.125 4.46875 -3.171875 4.46875 -3.6875 Z M 4.46875 -9.28125 "/>
</symbol>
<symbol overflow="visible" id="glyph0-17">
<path style="stroke:none;" d="M 12.125 -12.390625 L 9.953125 -12.390625 L 9.953125 -4.296875 C 9.953125 -2.203125 8.390625 -1.234375 6.609375 -1.234375 C 4.625 -1.234375 4.4375 -1.953125 4.4375 -3.15625 L 4.4375 -12.390625 L 2.265625 -12.390625 L 2.265625 -3.046875 C 2.265625 -1.03125 2.90625 0.3125 5.21875 0.3125 C 6.6875 0.3125 8.671875 -0.140625 10.046875 -1.34375 L 10.046875 0 L 12.125 0 Z M 12.125 -12.390625 "/>
</symbol>
<symbol overflow="visible" id="glyph0-18">
<path style="stroke:none;" d="M 4.875 -10.765625 L 8.8125 -10.765625 L 8.8125 -12.390625 L 4.875 -12.390625 L 4.875 -15.921875 L 2.953125 -15.921875 L 2.953125 -12.390625 L 0.53125 -12.390625 L 0.53125 -10.765625 L 2.875 -10.765625 L 2.875 -3.3125 C 2.875 -1.640625 3.265625 0.3125 5.1875 0.3125 C 7.140625 0.3125 8.5625 -0.390625 9.265625 -0.75 L 8.8125 -2.40625 C 8.09375 -1.8125 7.203125 -1.484375 6.296875 -1.484375 C 5.265625 -1.484375 4.875 -2.3125 4.875 -3.796875 Z M 4.875 -10.765625 "/>
</symbol>
<symbol overflow="visible" id="glyph0-19">
<path style="stroke:none;" d="M 12.125 -8.3125 C 12.125 -10.15625 11.71875 -12.6875 8.3125 -12.6875 C 6.578125 -12.6875 5.25 -11.828125 4.34375 -10.6875 L 4.34375 -19.359375 L 2.265625 -19.359375 L 2.265625 0 L 4.4375 0 L 4.4375 -6.828125 C 4.4375 -8.671875 5.125 -10.984375 7.25 -10.984375 C 9.921875 -10.984375 9.953125 -9.015625 9.953125 -8.109375 L 9.953125 0 L 12.125 0 Z M 12.125 -8.3125 "/>
</symbol>
<symbol overflow="visible" id="glyph0-20">
<path style="stroke:none;" d="M 18.625 -12.390625 L 16.59375 -12.390625 L 14.8125 -6.46875 C 14.5 -5.46875 13.671875 -2.703125 13.53125 -1.5 L 13.5 -1.5 C 13.390625 -2.375 12.6875 -4.859375 12.21875 -6.4375 L 10.40625 -12.390625 L 8.453125 -12.390625 L 6.859375 -7.140625 C 6.546875 -6.15625 5.609375 -2.953125 5.5 -1.53125 L 5.46875 -1.53125 C 5.328125 -2.875 4.40625 -6.03125 3.953125 -7.5625 L 2.515625 -12.390625 L 0.390625 -12.390625 L 4.21875 0 L 6.421875 0 C 6.546875 -0.453125 7.53125 -3.5625 8.140625 -5.75 C 8.53125 -7.03125 9.3125 -9.796875 9.40625 -10.828125 L 9.421875 -10.828125 C 9.484375 -10.046875 9.953125 -8.109375 10.3125 -6.921875 L 12.359375 0 L 14.8125 0 Z M 18.625 -12.390625 "/>
</symbol>
<symbol overflow="visible" id="glyph0-21">
<path style="stroke:none;" d="M 19.890625 -8.3125 C 19.890625 -10.1875 19.4375 -12.6875 16.0625 -12.6875 C 14.390625 -12.6875 12.9375 -11.90625 11.90625 -10.40625 C 11.1875 -12.515625 9.234375 -12.6875 8.34375 -12.6875 C 6.328125 -12.6875 5.015625 -11.546875 4.265625 -10.546875 L 4.265625 -12.546875 L 2.265625 -12.546875 L 2.265625 0 L 4.4375 0 L 4.4375 -6.828125 C 4.4375 -8.734375 5.1875 -10.984375 7.25 -10.984375 C 9.84375 -10.984375 9.984375 -9.171875 9.984375 -8.109375 L 9.984375 0 L 12.15625 0 L 12.15625 -6.828125 C 12.15625 -8.734375 12.90625 -10.984375 14.984375 -10.984375 C 17.578125 -10.984375 17.703125 -9.171875 17.703125 -8.109375 L 17.703125 0 L 19.890625 0 Z M 19.890625 -8.3125 "/>
</symbol>
<symbol overflow="visible" id="glyph0-22">
<path style="stroke:none;" d="M 7.84375 -7.59375 L 12.515625 -12.390625 L 10.015625 -12.390625 L 4.34375 -6.578125 L 4.34375 -19.359375 L 2.34375 -19.359375 L 2.34375 0 L 4.265625 0 L 4.265625 -3.9375 L 6.5 -6.25 L 10.84375 0 L 13.140625 0 Z M 7.84375 -7.59375 "/>
</symbol>
<symbol overflow="visible" id="glyph1-0">
<path style="stroke:none;" d=""/>
</symbol>
<symbol overflow="visible" id="glyph1-1">
<path style="stroke:none;" d="M 4.46875 -1.28125 C 5.328125 -0.46875 6.546875 0.3125 8.234375 0.3125 C 10.9375 0.3125 13.390625 -2.421875 13.390625 -6.21875 C 13.390625 -9.5625 11.625 -12.6875 8.953125 -12.6875 C 7.28125 -12.6875 5.65625 -12.109375 4.375 -11.015625 L 4.375 -12.390625 L 2.28125 -12.390625 L 2.28125 5.40625 L 4.46875 5.40625 Z M 4.46875 -9.28125 C 5.125 -10.265625 6.21875 -10.90625 7.421875 -10.90625 C 9.53125 -10.90625 11.21875 -8.78125 11.21875 -6.21875 C 11.21875 -3.34375 9.234375 -1.390625 7.140625 -1.390625 C 6.046875 -1.390625 5.296875 -1.953125 4.734375 -2.703125 C 4.46875 -3.125 4.46875 -3.171875 4.46875 -3.6875 Z M 4.46875 -9.28125 "/>
</symbol>
<symbol overflow="visible" id="glyph1-2">
<path style="stroke:none;" d="M 4.375 -5.96875 C 4.375 -8.75 6.390625 -10.765625 9.125 -10.828125 L 9.125 -12.6875 C 6.640625 -12.65625 5.109375 -11.296875 4.234375 -10.015625 L 4.234375 -12.546875 L 2.28125 -12.546875 L 2.28125 0 L 4.375 0 Z M 4.375 -5.96875 "/>
</symbol>
<symbol overflow="visible" id="glyph1-3">
<path style="stroke:none;" d="M 11.546875 -6.109375 C 11.546875 -7.0625 11.515625 -9.140625 10.4375 -10.828125 C 9.28125 -12.546875 7.59375 -12.859375 6.578125 -12.859375 C 3.484375 -12.859375 0.96875 -9.90625 0.96875 -6.296875 C 0.96875 -2.625 3.65625 0.3125 7 0.3125 C 8.75 0.3125 10.34375 -0.359375 11.4375 -1.140625 L 11.265625 -2.953125 C 9.515625 -1.5 7.671875 -1.390625 7.03125 -1.390625 C 4.796875 -1.390625 3.015625 -3.375 2.921875 -6.109375 Z M 3.0625 -7.640625 C 3.515625 -9.765625 5 -11.15625 6.578125 -11.15625 C 8.03125 -11.15625 9.59375 -10.203125 9.953125 -7.640625 Z M 3.0625 -7.640625 "/>
</symbol>
<symbol overflow="visible" id="glyph1-4">
<path style="stroke:none;" d="M 9.5625 -11.96875 C 8.109375 -12.640625 6.96875 -12.859375 5.546875 -12.859375 C 4.859375 -12.859375 0.921875 -12.859375 0.921875 -9.203125 C 0.921875 -7.84375 1.734375 -6.9375 2.421875 -6.421875 C 3.296875 -5.796875 3.90625 -5.6875 5.4375 -5.390625 C 6.4375 -5.1875 8.0625 -4.859375 8.0625 -3.375 C 8.0625 -1.453125 5.859375 -1.453125 5.4375 -1.453125 C 3.171875 -1.453125 1.625 -2.484375 1.109375 -2.8125 L 0.78125 -0.921875 C 1.671875 -0.46875 3.203125 0.3125 5.46875 0.3125 C 5.96875 0.3125 7.5 0.3125 8.703125 -0.578125 C 9.5625 -1.25 10.046875 -2.375 10.046875 -3.5625 C 10.046875 -5.109375 9.015625 -6.046875 8.953125 -6.140625 C 7.859375 -7.109375 7.109375 -7.28125 5.71875 -7.53125 C 4.1875 -7.84375 2.90625 -8.109375 2.90625 -9.484375 C 2.90625 -11.21875 4.90625 -11.21875 5.265625 -11.21875 C 6.15625 -11.21875 7.640625 -11.09375 9.234375 -10.15625 Z M 9.5625 -11.96875 "/>
</symbol>
<symbol overflow="visible" id="glyph1-5">
<path style="stroke:none;" d="M 4.875 -10.765625 L 8.8125 -10.765625 L 8.8125 -12.390625 L 4.875 -12.390625 L 4.875 -15.921875 L 2.953125 -15.921875 L 2.953125 -12.390625 L 0.53125 -12.390625 L 0.53125 -10.765625 L 2.875 -10.765625 L 2.875 -3.3125 C 2.875 -1.640625 3.265625 0.3125 5.1875 0.3125 C 7.140625 0.3125 8.5625 -0.390625 9.265625 -0.75 L 8.8125 -2.40625 C 8.09375 -1.8125 7.203125 -1.484375 6.296875 -1.484375 C 5.265625 -1.484375 4.875 -2.3125 4.875 -3.796875 Z M 4.875 -10.765625 "/>
</symbol>
<symbol overflow="visible" id="glyph1-6">
<path style="stroke:none;" d="M 11.4375 -11.65625 C 9.796875 -12.609375 8.84375 -12.859375 7.140625 -12.859375 C 3.265625 -12.859375 1 -9.484375 1 -6.1875 C 1 -2.734375 3.546875 0.3125 7.03125 0.3125 C 8.53125 0.3125 10.0625 -0.078125 11.578125 -1.109375 L 11.40625 -2.984375 C 9.984375 -1.875 8.484375 -1.484375 7.0625 -1.484375 C 4.734375 -1.484375 3.171875 -3.484375 3.171875 -6.21875 C 3.171875 -8.390625 4.21875 -11.078125 7.171875 -11.078125 C 8.625 -11.078125 9.5625 -10.84375 11.09375 -9.84375 Z M 11.4375 -11.65625 "/>
</symbol>
<symbol overflow="visible" id="glyph2-0">
<path style="stroke:none;" d=""/>
</symbol>
<symbol overflow="visible" id="glyph2-1">
<path style="stroke:none;" d="M 8.34375 -18.90625 L 7.78125 -18.90625 C 6.140625 -17.203125 3.828125 -17.125 2.484375 -17.0625 L 2.484375 -15.453125 C 3.40625 -15.484375 4.734375 -15.53125 6.140625 -16.125 L 6.140625 -1.625 L 2.65625 -1.625 L 2.65625 0 L 11.828125 0 L 11.828125 -1.625 L 8.34375 -1.625 Z M 8.34375 -18.90625 "/>
</symbol>
<symbol overflow="visible" id="glyph2-2">
<path style="stroke:none;" d="M 5.015625 -2.3125 L 2.703125 -2.3125 L 2.703125 0 L 5.015625 0 Z M 5.015625 -2.3125 "/>
</symbol>
<symbol overflow="visible" id="glyph2-3">
<path style="stroke:none;" d="M 10.734375 -17.40625 L 13.21875 -17.40625 C 13.5625 -17.40625 13.890625 -17.375 14.21875 -17.375 L 17.96875 -17.375 L 17.96875 -19.1875 L 1 -19.1875 L 1 -17.375 L 4.734375 -17.375 C 5.078125 -17.375 5.40625 -17.40625 5.75 -17.40625 L 8.25 -17.40625 L 8.25 0 L 10.734375 0 Z M 10.734375 -17.40625 "/>
</symbol>
<symbol overflow="visible" id="glyph2-4">
<path style="stroke:none;" d="M 11.546875 -6.109375 C 11.546875 -7.0625 11.515625 -9.140625 10.4375 -10.828125 C 9.28125 -12.546875 7.59375 -12.859375 6.578125 -12.859375 C 3.484375 -12.859375 0.96875 -9.90625 0.96875 -6.296875 C 0.96875 -2.625 3.65625 0.3125 7 0.3125 C 8.75 0.3125 10.34375 -0.359375 11.4375 -1.140625 L 11.265625 -2.953125 C 9.515625 -1.5 7.671875 -1.390625 7.03125 -1.390625 C 4.796875 -1.390625 3.015625 -3.375 2.921875 -6.109375 Z M 3.0625 -7.640625 C 3.515625 -9.765625 5 -11.15625 6.578125 -11.15625 C 8.03125 -11.15625 9.59375 -10.203125 9.953125 -7.640625 Z M 3.0625 -7.640625 "/>
</symbol>
<symbol overflow="visible" id="glyph2-5">
<path style="stroke:none;" d="M 4.546875 -18.96875 L 2.0625 -18.96875 L 2.0625 -16.484375 L 4.546875 -16.484375 Z M 4.34375 -12.390625 L 2.265625 -12.390625 L 2.265625 0 L 4.34375 0 Z M 4.34375 -12.390625 "/>
</symbol>
<symbol overflow="visible" id="glyph2-6">
<path style="stroke:none;" d="M 4.34375 -19.359375 L 2.265625 -19.359375 L 2.265625 0 L 4.34375 0 Z M 4.34375 -19.359375 "/>
</symbol>
<symbol overflow="visible" id="glyph3-0">
<path style="stroke:none;" d=""/>
</symbol>
<symbol overflow="visible" id="glyph3-1">
<path style="stroke:none;" d="M 10.203125 -0.890625 C 10.828125 -0.03125 12.15625 0 13.21875 0 C 14 0 14.609375 0 14.609375 -0.859375 C 14.609375 -1.703125 13.921875 -1.703125 13.5 -1.703125 C 12.328125 -1.703125 12.046875 -1.84375 11.828125 -1.921875 L 11.828125 -7.953125 C 11.828125 -9.921875 10.3125 -12.265625 6.296875 -12.265625 C 5.109375 -12.265625 2.265625 -12.265625 2.265625 -10.234375 C 2.265625 -9.40625 2.84375 -8.953125 3.515625 -8.953125 C 3.9375 -8.953125 4.71875 -9.203125 4.734375 -10.234375 C 4.734375 -10.453125 4.765625 -10.484375 5.328125 -10.546875 C 5.71875 -10.578125 6.078125 -10.578125 6.328125 -10.578125 C 8.453125 -10.578125 9.90625 -9.703125 9.90625 -7.71875 C 4.96875 -7.640625 1.53125 -6.25 1.53125 -3.5625 C 1.53125 -1.640625 3.296875 0.171875 6.140625 0.171875 C 7.171875 0.171875 8.890625 -0.03125 10.203125 -0.890625 Z M 9.90625 -6.078125 L 9.90625 -3.734375 C 9.90625 -3.09375 9.90625 -2.515625 8.8125 -2.015625 C 7.8125 -1.53125 6.546875 -1.53125 6.328125 -1.53125 C 4.609375 -1.53125 3.453125 -2.484375 3.453125 -3.5625 C 3.453125 -4.9375 5.859375 -5.96875 9.90625 -6.078125 Z M 9.90625 -6.078125 "/>
</symbol>
<symbol overflow="visible" id="glyph3-2">
<path style="stroke:none;" d="M 6.1875 -5.1875 C 6.1875 -7.8125 7.84375 -10.484375 11.21875 -10.484375 C 11.234375 -9.8125 11.71875 -9.265625 12.40625 -9.265625 C 13.03125 -9.265625 13.578125 -9.703125 13.578125 -10.453125 C 13.578125 -11.015625 13.25 -12.1875 10.9375 -12.1875 C 9.515625 -12.1875 7.71875 -11.6875 6.1875 -9.921875 L 6.1875 -10.875 C 6.1875 -11.734375 6.03125 -12.015625 5.078125 -12.015625 L 2.015625 -12.015625 C 1.59375 -12.015625 0.890625 -12.015625 0.890625 -11.1875 C 0.890625 -10.3125 1.5625 -10.3125 2.015625 -10.3125 L 4.265625 -10.3125 L 4.265625 -1.703125 L 2.015625 -1.703125 C 1.59375 -1.703125 0.890625 -1.703125 0.890625 -0.859375 C 0.890625 0 1.5625 0 2.015625 0 L 9.28125 0 C 9.703125 0 10.4375 0 10.4375 -0.84375 C 10.4375 -1.703125 9.703125 -1.703125 9.28125 -1.703125 L 6.1875 -1.703125 Z M 6.1875 -5.1875 "/>
</symbol>
<symbol overflow="visible" id="glyph3-3">
<path style="stroke:none;" d="M 12 -10.3125 L 12.828125 -10.3125 C 13.25 -10.3125 13.953125 -10.3125 13.953125 -11.15625 C 13.953125 -12.015625 13.28125 -12.015625 12.828125 -12.015625 L 9.5625 -12.015625 C 9.140625 -12.015625 8.453125 -12.015625 8.453125 -11.1875 C 8.453125 -10.3125 9.125 -10.3125 9.5625 -10.3125 L 10.34375 -10.3125 L 8.34375 -4.375 C 7.984375 -3.34375 7.8125 -2.84375 7.609375 -1.984375 L 7.59375 -1.984375 C 7.453125 -2.515625 7.203125 -3.09375 7 -3.625 L 4.40625 -10.3125 L 5.109375 -10.3125 C 5.515625 -10.3125 6.21875 -10.3125 6.21875 -11.15625 C 6.21875 -12.015625 5.546875 -12.015625 5.109375 -12.015625 L 1.84375 -12.015625 C 1.390625 -12.015625 0.71875 -12.015625 0.71875 -11.15625 C 0.71875 -10.3125 1.421875 -10.3125 1.84375 -10.3125 L 2.703125 -10.3125 L 6.671875 -0.359375 C 6.78125 -0.078125 6.78125 -0.03125 6.78125 0 C 6.78125 0.0625 6.078125 2.34375 5.71875 3.046875 C 4.90625 4.578125 3.90625 4.625 3.484375 4.65625 C 3.484375 4.625 3.625 4.40625 3.625 4.046875 C 3.625 3.34375 3.125 2.84375 2.421875 2.84375 C 1.671875 2.84375 1.203125 3.34375 1.203125 4.078125 C 1.203125 5.25 2.140625 6.359375 3.515625 6.359375 C 6.296875 6.359375 7.5625 2.671875 7.671875 2.375 Z M 12 -10.3125 "/>
</symbol>
<symbol overflow="visible" id="glyph4-0">
<path style="stroke:none;" d=""/>
</symbol>
<symbol overflow="visible" id="glyph4-1">
<path style="stroke:none;" d="M 4.546875 -18.96875 L 2.0625 -18.96875 L 2.0625 -16.484375 L 4.546875 -16.484375 Z M 4.34375 -12.390625 L 2.265625 -12.390625 L 2.265625 0 L 4.34375 0 Z M 4.34375 -12.390625 "/>
</symbol>
<symbol overflow="visible" id="glyph4-2">
<path style="stroke:none;" d="M 12.125 -8.3125 C 12.125 -10.15625 11.71875 -12.6875 8.3125 -12.6875 C 5.796875 -12.6875 4.4375 -10.796875 4.265625 -10.578125 L 4.265625 -12.546875 L 2.265625 -12.546875 L 2.265625 0 L 4.4375 0 L 4.4375 -6.828125 C 4.4375 -8.671875 5.125 -10.984375 7.25 -10.984375 C 9.921875 -10.984375 9.953125 -9.015625 9.953125 -8.109375 L 9.953125 0 L 12.125 0 Z M 12.125 -8.3125 "/>
</symbol>
<symbol overflow="visible" id="glyph4-3">
<path style="stroke:none;" d="M 11.15625 -11.296875 L 11.15625 -12.390625 L 1.171875 -12.390625 L 1.171875 -10.734375 L 5.046875 -10.734375 C 5.390625 -10.734375 5.71875 -10.765625 6.046875 -10.765625 L 8.234375 -10.765625 L 0.78125 -1.140625 L 0.78125 0 L 11.21875 0 L 11.21875 -1.734375 L 7.109375 -1.734375 C 6.78125 -1.734375 6.4375 -1.703125 6.109375 -1.703125 L 3.734375 -1.703125 Z M 11.15625 -11.296875 "/>
</symbol>
<symbol overflow="visible" id="glyph4-4">
<path style="stroke:none;" d="M 18.625 -12.390625 L 16.59375 -12.390625 L 14.8125 -6.46875 C 14.5 -5.46875 13.671875 -2.703125 13.53125 -1.5 L 13.5 -1.5 C 13.390625 -2.375 12.6875 -4.859375 12.21875 -6.4375 L 10.40625 -12.390625 L 8.453125 -12.390625 L 6.859375 -7.140625 C 6.546875 -6.15625 5.609375 -2.953125 5.5 -1.53125 L 5.46875 -1.53125 C 5.328125 -2.875 4.40625 -6.03125 3.953125 -7.5625 L 2.515625 -12.390625 L 0.390625 -12.390625 L 4.21875 0 L 6.421875 0 C 6.546875 -0.453125 7.53125 -3.5625 8.140625 -5.75 C 8.53125 -7.03125 9.3125 -9.796875 9.40625 -10.828125 L 9.421875 -10.828125 C 9.484375 -10.046875 9.953125 -8.109375 10.3125 -6.921875 L 12.359375 0 L 14.8125 0 Z M 18.625 -12.390625 "/>
</symbol>
<symbol overflow="visible" id="glyph4-5">
<path style="stroke:none;" d="M 11.546875 -6.109375 C 11.546875 -7.0625 11.515625 -9.140625 10.4375 -10.828125 C 9.28125 -12.546875 7.59375 -12.859375 6.578125 -12.859375 C 3.484375 -12.859375 0.96875 -9.90625 0.96875 -6.296875 C 0.96875 -2.625 3.65625 0.3125 7 0.3125 C 8.75 0.3125 10.34375 -0.359375 11.4375 -1.140625 L 11.265625 -2.953125 C 9.515625 -1.5 7.671875 -1.390625 7.03125 -1.390625 C 4.796875 -1.390625 3.015625 -3.375 2.921875 -6.109375 Z M 3.0625 -7.640625 C 3.515625 -9.765625 5 -11.15625 6.578125 -11.15625 C 8.03125 -11.15625 9.59375 -10.203125 9.953125 -7.640625 Z M 3.0625 -7.640625 "/>
</symbol>
<symbol overflow="visible" id="glyph4-6">
<path style="stroke:none;" d="M 9.8125 -10.90625 C 10.4375 -10.90625 11.21875 -11.015625 11.875 -11.015625 C 12.390625 -11.015625 13.46875 -10.9375 13.53125 -10.9375 L 13.21875 -12.6875 C 11.265625 -12.6875 9.65625 -12.15625 8.8125 -11.796875 C 8.234375 -12.265625 7.28125 -12.6875 6.15625 -12.6875 C 3.765625 -12.6875 1.734375 -10.6875 1.734375 -8.140625 C 1.734375 -7.109375 2.09375 -6.109375 2.65625 -5.390625 C 1.84375 -4.234375 1.84375 -3.15625 1.84375 -3.015625 C 1.84375 -2.28125 2.09375 -1.484375 2.5625 -0.890625 C 1.109375 -0.03125 0.78125 1.25 0.78125 1.984375 C 0.78125 4.078125 3.546875 5.75 6.9375 5.75 C 10.375 5.75 13.140625 4.09375 13.140625 1.953125 C 13.140625 -1.921875 8.484375 -1.921875 7.390625 -1.921875 L 4.9375 -1.921875 C 4.578125 -1.921875 3.3125 -1.921875 3.3125 -3.40625 C 3.3125 -3.703125 3.4375 -4.15625 3.625 -4.40625 C 4.21875 -3.984375 5.125 -3.59375 6.15625 -3.59375 C 8.671875 -3.59375 10.625 -5.65625 10.625 -8.140625 C 10.625 -9.484375 10.015625 -10.515625 9.703125 -10.9375 Z M 6.15625 -5.1875 C 5.125 -5.1875 3.6875 -5.828125 3.6875 -8.140625 C 3.6875 -10.453125 5.125 -11.09375 6.15625 -11.09375 C 7.359375 -11.09375 8.671875 -10.3125 8.671875 -8.140625 C 8.671875 -5.96875 7.359375 -5.1875 6.15625 -5.1875 Z M 7.421875 0.078125 C 8.03125 0.078125 11.1875 0.078125 11.1875 2.015625 C 11.1875 3.234375 9.265625 4.15625 6.96875 4.15625 C 4.71875 4.15625 2.734375 3.296875 2.734375 1.984375 C 2.734375 1.890625 2.734375 0.078125 4.90625 0.078125 Z M 7.421875 0.078125 "/>
</symbol>
<symbol overflow="visible" id="glyph4-7">
<path style="stroke:none;" d="M 4.34375 -19.359375 L 2.265625 -19.359375 L 2.265625 0 L 4.34375 0 Z M 4.34375 -19.359375 "/>
</symbol>
<symbol overflow="visible" id="glyph4-8">
<path style="stroke:none;" d="M 11.4375 -11.65625 C 9.796875 -12.609375 8.84375 -12.859375 7.140625 -12.859375 C 3.265625 -12.859375 1 -9.484375 1 -6.1875 C 1 -2.734375 3.546875 0.3125 7.03125 0.3125 C 8.53125 0.3125 10.0625 -0.078125 11.578125 -1.109375 L 11.40625 -2.984375 C 9.984375 -1.875 8.484375 -1.484375 7.0625 -1.484375 C 4.734375 -1.484375 3.171875 -3.484375 3.171875 -6.21875 C 3.171875 -8.390625 4.21875 -11.078125 7.171875 -11.078125 C 8.625 -11.078125 9.5625 -10.84375 11.09375 -9.84375 Z M 11.4375 -11.65625 "/>
</symbol>
<symbol overflow="visible" id="glyph4-9">
<path style="stroke:none;" d="M 12.125 -8.3125 C 12.125 -10.15625 11.71875 -12.6875 8.3125 -12.6875 C 6.578125 -12.6875 5.25 -11.828125 4.34375 -10.6875 L 4.34375 -19.359375 L 2.265625 -19.359375 L 2.265625 0 L 4.4375 0 L 4.4375 -6.828125 C 4.4375 -8.671875 5.125 -10.984375 7.25 -10.984375 C 9.921875 -10.984375 9.953125 -9.015625 9.953125 -8.109375 L 9.953125 0 L 12.125 0 Z M 12.125 -8.3125 "/>
</symbol>
<symbol overflow="visible" id="glyph4-10">
<path style="stroke:none;" d="M 4.375 -5.96875 C 4.375 -8.75 6.390625 -10.765625 9.125 -10.828125 L 9.125 -12.6875 C 6.640625 -12.65625 5.109375 -11.296875 4.234375 -10.015625 L 4.234375 -12.546875 L 2.28125 -12.546875 L 2.28125 0 L 4.375 0 Z M 4.375 -5.96875 "/>
</symbol>
<symbol overflow="visible" id="glyph4-11">
<path style="stroke:none;" d="M 13.078125 -6.140625 C 13.078125 -9.875 10.296875 -12.859375 6.96875 -12.859375 C 3.546875 -12.859375 0.84375 -9.796875 0.84375 -6.140625 C 0.84375 -2.453125 3.6875 0.3125 6.9375 0.3125 C 10.296875 0.3125 13.078125 -2.515625 13.078125 -6.140625 Z M 6.9375 -1.484375 C 5.015625 -1.484375 3.015625 -3.046875 3.015625 -6.421875 C 3.015625 -9.796875 5.125 -11.15625 6.9375 -11.15625 C 8.890625 -11.15625 10.90625 -9.703125 10.90625 -6.421875 C 10.90625 -3.125 9.015625 -1.484375 6.9375 -1.484375 Z M 6.9375 -1.484375 "/>
</symbol>
<symbol overflow="visible" id="glyph4-12">
<path style="stroke:none;" d="M 9.140625 -11.46875 C 10.984375 -12.5 11.828125 -14.109375 11.828125 -15.5625 C 11.828125 -17.875 9.65625 -19.65625 7.0625 -19.65625 C 4.828125 -19.65625 2.28125 -18.234375 2.28125 -15.390625 L 2.28125 0 L 4.375 0 L 4.375 -15.375 C 4.375 -17.796875 6.4375 -17.96875 7.03125 -17.96875 C 8.671875 -17.96875 9.671875 -16.921875 9.671875 -15.59375 C 9.671875 -14.078125 8.53125 -12.40625 5.9375 -12.390625 L 5.9375 -10.6875 C 8.8125 -10.59375 10.453125 -7.921875 10.453125 -5 C 10.453125 -2.703125 9.203125 -1.390625 7.671875 -1.390625 C 7.390625 -1.390625 6.609375 -1.453125 5.796875 -1.8125 L 5.328125 -0.5625 C 5.25 -0.328125 5.21875 -0.28125 5.21875 -0.25 C 5.21875 -0.109375 6.5 0.3125 7.703125 0.3125 C 10.34375 0.3125 12.609375 -1.953125 12.609375 -5 C 12.609375 -7.203125 11.625 -9.921875 9.140625 -11.46875 Z M 9.140625 -11.46875 "/>
</symbol>
<symbol overflow="visible" id="glyph4-13">
<path style="stroke:none;" d="M 17.09375 -19.359375 L 14.609375 -19.359375 L 14.609375 -10.90625 L 5.109375 -10.90625 L 5.109375 -19.359375 L 2.625 -19.359375 L 2.625 0 L 5.109375 0 L 5.109375 -9.203125 L 14.609375 -9.203125 L 14.609375 0 L 17.09375 0 Z M 17.09375 -19.359375 "/>
</symbol>
<symbol overflow="visible" id="glyph4-14">
<path style="stroke:none;" d="M 5.40625 -18.96875 L 3.09375 -18.96875 L 3.09375 -16.65625 L 5.40625 -16.65625 Z M 10.828125 -18.96875 L 8.5 -18.96875 L 8.5 -16.65625 L 10.828125 -16.65625 Z M 10.828125 -18.96875 "/>
</symbol>
<symbol overflow="visible" id="glyph4-15">
<path style="stroke:none;" d="M 11.125 -8.0625 C 11.125 -10.90625 9.09375 -12.859375 6.53125 -12.859375 C 4.71875 -12.859375 3.453125 -12.40625 2.140625 -11.65625 L 2.3125 -9.8125 C 3.765625 -10.84375 5.15625 -11.21875 6.53125 -11.21875 C 7.84375 -11.21875 8.953125 -10.09375 8.953125 -8.03125 L 8.953125 -6.828125 C 4.765625 -6.78125 1.234375 -5.609375 1.234375 -3.15625 C 1.234375 -1.953125 1.984375 0.3125 4.40625 0.3125 C 4.796875 0.3125 7.421875 0.25 9.03125 -1 L 9.03125 0 L 11.125 0 Z M 8.953125 -3.6875 C 8.953125 -3.15625 8.953125 -2.453125 8 -1.921875 C 7.203125 -1.421875 6.140625 -1.390625 5.828125 -1.390625 C 4.484375 -1.390625 3.234375 -2.03125 3.234375 -3.203125 C 3.234375 -5.15625 7.75 -5.359375 8.953125 -5.40625 Z M 8.953125 -3.6875 "/>
</symbol>
<symbol overflow="visible" id="glyph4-16">
<path style="stroke:none;" d="M 4.90625 -10.765625 L 7.984375 -10.765625 L 7.984375 -12.390625 L 4.828125 -12.390625 L 4.828125 -15.703125 C 4.828125 -17.765625 6.6875 -17.96875 7.421875 -17.96875 C 7.984375 -17.96875 8.734375 -17.90625 9.671875 -17.484375 L 9.671875 -19.359375 C 9.34375 -19.4375 8.484375 -19.65625 7.453125 -19.65625 C 4.828125 -19.65625 2.8125 -17.6875 2.8125 -14.890625 L 2.8125 -12.390625 L 0.75 -12.390625 L 0.75 -10.765625 L 2.8125 -10.765625 L 2.8125 0 L 4.90625 0 Z M 4.90625 -10.765625 "/>
</symbol>
<symbol overflow="visible" id="glyph4-17">
<path style="stroke:none;" d="M 4.875 -10.765625 L 8.8125 -10.765625 L 8.8125 -12.390625 L 4.875 -12.390625 L 4.875 -15.921875 L 2.953125 -15.921875 L 2.953125 -12.390625 L 0.53125 -12.390625 L 0.53125 -10.765625 L 2.875 -10.765625 L 2.875 -3.3125 C 2.875 -1.640625 3.265625 0.3125 5.1875 0.3125 C 7.140625 0.3125 8.5625 -0.390625 9.265625 -0.75 L 8.8125 -2.40625 C 8.09375 -1.8125 7.203125 -1.484375 6.296875 -1.484375 C 5.265625 -1.484375 4.875 -2.3125 4.875 -3.796875 Z M 4.875 -10.765625 "/>
</symbol>
</g>
</defs>
<g id="surface345">
<g style="fill:rgb(0%,0%,0%);fill-opacity:1;">
  <use xlink:href="#glyph0-1" x="17" y="32.9804"/>
  <use xlink:href="#glyph0-2" x="24.420144" y="32.9804"/>
  <use xlink:href="#glyph0-3" x="38.367784" y="32.9804"/>
  <use xlink:href="#glyph0-4" x="52.761748" y="32.9804"/>
  <use xlink:href="#glyph0-5" x="59.400825" y="32.9804"/>
  <use xlink:href="#glyph0-6" x="71.786329" y="32.9804"/>
  <use xlink:href="#glyph0-6" x="82.470221" y="32.9804"/>
  <use xlink:href="#glyph0-7" x="93.154113" y="32.9804"/>
  <use xlink:href="#glyph0-5" x="107.548077" y="32.9804"/>
  <use xlink:href="#glyph0-6" x="119.933581" y="32.9804"/>
  <use xlink:href="#glyph0-6" x="130.617474" y="32.9804"/>
</g>
<g style="fill:rgb(0%,0%,0%);fill-opacity:1;">
  <use xlink:href="#glyph1-1" x="17" y="64.9804"/>
  <use xlink:href="#glyph1-2" x="30.612896" y="64.9804"/>
  <use xlink:href="#glyph1-3" x="40.125187" y="64.9804"/>
  <use xlink:href="#glyph1-4" x="52.510691" y="64.9804"/>
  <use xlink:href="#glyph1-3" x="63.194583" y="64.9804"/>
  <use xlink:href="#glyph1-5" x="75.580087" y="64.9804"/>
  <use xlink:href="#glyph1-4" x="85.650283" y="64.9804"/>
</g>
<g style="fill:rgb(0%,0%,0%);fill-opacity:1;">
  <use xlink:href="#glyph0-8" x="17" y="96.9804"/>
  <use xlink:href="#glyph0-5" x="29.078656" y="96.9804"/>
  <use xlink:href="#glyph0-9" x="41.46416" y="96.9804"/>
  <use xlink:href="#glyph0-7" x="54.853894" y="96.9804"/>
  <use xlink:href="#glyph0-5" x="69.247859" y="96.9804"/>
  <use xlink:href="#glyph0-10" x="81.633363" y="96.9804"/>
</g>
<g style="fill:rgb(0%,0%,0%);fill-opacity:1;">
  <use xlink:href="#glyph0-3" x="17" y="128.9804"/>
  <use xlink:href="#glyph0-11" x="31.393964" y="128.9804"/>
  <use xlink:href="#glyph0-12" x="38.033041" y="128.9804"/>
  <use xlink:href="#glyph0-5" x="47.545331" y="128.9804"/>
  <use xlink:href="#glyph0-13" x="59.930835" y="128.9804"/>
  <use xlink:href="#glyph0-12" x="68.438895" y="128.9804"/>
  <use xlink:href="#glyph0-11" x="77.951186" y="128.9804"/>
  <use xlink:href="#glyph0-7" x="84.590262" y="128.9804"/>
  <use xlink:href="#glyph0-14" x="98.984227" y="128.9804"/>
  <use xlink:href="#glyph0-5" x="112.931866" y="128.9804"/>
  <use xlink:href="#glyph0-7" x="125.31737" y="128.9804"/>
  <use xlink:href="#glyph0-15" x="139.711335" y="128.9804"/>
  <use xlink:href="#glyph0-5" x="152.096839" y="128.9804"/>
</g>
<g style="fill:rgb(0%,0%,0%);fill-opacity:1;">
  <use xlink:href="#glyph0-6" x="17" y="160.9804"/>
  <use xlink:href="#glyph0-16" x="27.683892" y="160.9804"/>
  <use xlink:href="#glyph0-4" x="42.077856" y="160.9804"/>
  <use xlink:href="#glyph0-17" x="48.716933" y="160.9804"/>
  <use xlink:href="#glyph0-18" x="63.110897" y="160.9804"/>
  <use xlink:href="#glyph0-18" x="73.181093" y="160.9804"/>
  <use xlink:href="#glyph0-5" x="83.251289" y="160.9804"/>
  <use xlink:href="#glyph0-12" x="95.636793" y="160.9804"/>
</g>
<g style="fill:rgb(0%,0%,0%);fill-opacity:1;">
  <use xlink:href="#glyph0-10" x="17" y="193"/>
  <use xlink:href="#glyph0-5" x="31.393964" y="193"/>
  <use xlink:href="#glyph0-6" x="43.779468" y="193"/>
  <use xlink:href="#glyph0-18" x="54.46336" y="193"/>
  <use xlink:href="#glyph0-9" x="64.533556" y="193"/>
  <use xlink:href="#glyph0-3" x="77.92329" y="193"/>
  <use xlink:href="#glyph0-11" x="92.317255" y="193"/>
  <use xlink:href="#glyph0-4" x="98.956331" y="193"/>
  <use xlink:href="#glyph0-11" x="105.595408" y="193"/>
  <use xlink:href="#glyph0-6" x="112.234484" y="193"/>
  <use xlink:href="#glyph0-9" x="122.918376" y="193"/>
  <use xlink:href="#glyph0-18" x="136.308111" y="193"/>
  <use xlink:href="#glyph0-11" x="146.378306" y="193"/>
  <use xlink:href="#glyph0-2" x="153.017383" y="193"/>
  <use xlink:href="#glyph0-7" x="166.965023" y="193"/>
</g>
<g style="fill:rgb(0%,0%,0%);fill-opacity:1;">
  <use xlink:href="#glyph0-3" x="17" y="224.9804"/>
  <use xlink:href="#glyph0-12" x="30.612896" y="224.9804"/>
  <use xlink:href="#glyph0-9" x="40.125187" y="224.9804"/>
  <use xlink:href="#glyph0-14" x="53.514921" y="224.9804"/>
  <use xlink:href="#glyph0-6" x="67.462561" y="224.9804"/>
</g>
<g style="fill:rgb(0%,0%,0%);fill-opacity:1;">
  <use xlink:href="#glyph0-6" x="17" y="256.9804"/>
  <use xlink:href="#glyph0-17" x="27.683892" y="256.9804"/>
  <use xlink:href="#glyph0-16" x="42.077856" y="256.9804"/>
  <use xlink:href="#glyph0-16" x="56.471821" y="256.9804"/>
  <use xlink:href="#glyph0-4" x="70.865785" y="256.9804"/>
  <use xlink:href="#glyph0-11" x="77.504861" y="256.9804"/>
  <use xlink:href="#glyph0-5" x="84.143938" y="256.9804"/>
  <use xlink:href="#glyph0-6" x="96.529442" y="256.9804"/>
</g>
<g style="fill:rgb(0%,0%,0%);fill-opacity:1;">
  <use xlink:href="#glyph0-5" x="17" y="289"/>
  <use xlink:href="#glyph0-7" x="29.385504" y="289"/>
  <use xlink:href="#glyph0-18" x="43.779468" y="289"/>
  <use xlink:href="#glyph0-19" x="53.849664" y="289"/>
  <use xlink:href="#glyph0-12" x="68.243628" y="289"/>
  <use xlink:href="#glyph0-2" x="77.755919" y="289"/>
  <use xlink:href="#glyph0-7" x="91.703559" y="289"/>
  <use xlink:href="#glyph0-5" x="106.097523" y="289"/>
  <use xlink:href="#glyph0-10" x="118.483027" y="289"/>
</g>
<g style="fill:rgb(0%,0%,0%);fill-opacity:1;">
  <use xlink:href="#glyph1-6" x="17" y="321"/>
  <use xlink:href="#glyph1-2" x="29.385504" y="321"/>
  <use xlink:href="#glyph1-3" x="38.897794" y="321"/>
  <use xlink:href="#glyph1-4" x="51.283299" y="321"/>
  <use xlink:href="#glyph1-5" x="61.967191" y="321"/>
  <use xlink:href="#glyph1-4" x="72.037387" y="321"/>
</g>
<g style="fill:rgb(0%,0%,0%);fill-opacity:1;">
  <use xlink:href="#glyph0-18" x="17" y="353"/>
  <use xlink:href="#glyph0-17" x="27.070196" y="353"/>
  <use xlink:href="#glyph0-6" x="41.46416" y="353"/>
  <use xlink:href="#glyph0-6" x="52.148052" y="353"/>
  <use xlink:href="#glyph0-4" x="62.831944" y="353"/>
  <use xlink:href="#glyph0-5" x="69.471021" y="353"/>
</g>
<g style="fill:rgb(0%,0%,0%);fill-opacity:1;">
  <use xlink:href="#glyph0-20" x="17" y="385"/>
  <use xlink:href="#glyph0-9" x="35.271408" y="385"/>
  <use xlink:href="#glyph0-13" x="48.661142" y="385"/>
  <use xlink:href="#glyph0-18" x="57.169203" y="385"/>
</g>
<g style="fill:rgb(0%,0%,0%);fill-opacity:1;">
  <use xlink:href="#glyph0-21" x="17" y="417"/>
  <use xlink:href="#glyph0-9" x="39.148852" y="417"/>
  <use xlink:href="#glyph0-22" x="52.538586" y="417"/>
  <use xlink:href="#glyph0-5" x="65.370415" y="417"/>
</g>
<g style="fill:rgb(0%,0%,0%);fill-opacity:1;">
  <use xlink:href="#glyph0-15" x="17" y="449"/>
  <use xlink:href="#glyph0-2" x="29.385504" y="449"/>
  <use xlink:href="#glyph0-21" x="43.333144" y="449"/>
  <use xlink:href="#glyph0-21" x="65.481996" y="449"/>
  <use xlink:href="#glyph0-17" x="87.630848" y="449"/>
  <use xlink:href="#glyph0-18" x="102.024812" y="449"/>
  <use xlink:href="#glyph0-5" x="112.095008" y="449"/>
  <use xlink:href="#glyph0-10" x="124.480512" y="449"/>
</g>
<g style="fill:rgb(0%,0%,0%);fill-opacity:1;">
  <use xlink:href="#glyph0-3" x="17" y="481"/>
  <use xlink:href="#glyph0-4" x="31.393964" y="481"/>
  <use xlink:href="#glyph0-9" x="38.033041" y="481"/>
  <use xlink:href="#glyph0-15" x="51.422775" y="481"/>
  <use xlink:href="#glyph0-22" x="63.808279" y="481"/>
  <use xlink:href="#glyph0-15" x="76.640108" y="481"/>
  <use xlink:href="#glyph0-17" x="89.025612" y="481"/>
  <use xlink:href="#glyph0-12" x="103.419576" y="481"/>
  <use xlink:href="#glyph0-12" x="112.931866" y="481"/>
  <use xlink:href="#glyph0-9" x="122.444157" y="481"/>
  <use xlink:href="#glyph0-7" x="135.833891" y="481"/>
  <use xlink:href="#glyph0-18" x="150.227855" y="481"/>
  <use xlink:href="#glyph0-6" x="160.298051" y="481"/>
</g>
<path style="fill:none;stroke-width:1.2;stroke-linecap:round;stroke-linejoin:round;stroke:rgb(0%,0%,0%);stroke-opacity:1;stroke-miterlimit:10;" d="M 16 512 L 16 16 L 208 16 L 208 512 Z M 16 512 " transform="matrix(1,0,0,-1,-15,513)"/>
<path style="fill:none;stroke-width:1.2;stroke-linecap:round;stroke-linejoin:round;stroke:rgb(0%,0%,0%);stroke-opacity:1;stroke-miterlimit:10;" d="M 16 278.050781 L 208 278.050781 " transform="matrix(1,0,0,-1,-15,513)"/>
<g style="fill:rgb(0%,0%,0%);fill-opacity:1;">
  <use xlink:href="#glyph2-1" x="209" y="48.9888"/>
  <use xlink:href="#glyph2-2" x="222.94764" y="48.9888"/>
  <use xlink:href="#glyph2-3" x="243.060136" y="48.9888"/>
  <use xlink:href="#glyph2-4" x="259.713618" y="48.9888"/>
  <use xlink:href="#glyph2-5" x="272.099122" y="48.9888"/>
  <use xlink:href="#glyph2-6" x="278.738199" y="48.9888"/>
  <use xlink:href="#glyph2-4" x="285.377275" y="48.9888"/>
</g>
<g style="fill:rgb(0%,0%,0%);fill-opacity:1;">
  <use xlink:href="#glyph3-1" x="307.176398" y="48.9888"/>
  <use xlink:href="#glyph3-2" x="321.82142" y="48.9888"/>
  <use xlink:href="#glyph3-2" x="336.466442" y="48.9888"/>
  <use xlink:href="#glyph3-1" x="351.111464" y="48.9888"/>
  <use xlink:href="#glyph3-3" x="365.756485" y="48.9888"/>
</g>
<g style="fill:rgb(0%,0%,0%);fill-opacity:1;">
  <use xlink:href="#glyph4-1" x="389.700797" y="48.9888"/>
  <use xlink:href="#glyph4-2" x="396.339873" y="48.9888"/>
  <use xlink:href="#glyph4-3" x="420.022966" y="48.9888"/>
  <use xlink:href="#glyph4-4" x="432.129517" y="48.9888"/>
  <use xlink:href="#glyph4-5" x="450.42882" y="48.9888"/>
  <use xlink:href="#glyph4-1" x="462.814325" y="48.9888"/>
  <use xlink:href="#glyph4-6" x="478.742529" y="48.9888"/>
  <use xlink:href="#glyph4-7" x="492.690169" y="48.9888"/>
  <use xlink:href="#glyph4-5" x="499.329245" y="48.9888"/>
  <use xlink:href="#glyph4-1" x="511.71475" y="48.9888"/>
  <use xlink:href="#glyph4-8" x="518.353826" y="48.9888"/>
  <use xlink:href="#glyph4-9" x="530.73933" y="48.9888"/>
  <use xlink:href="#glyph4-6" x="554.422423" y="48.9888"/>
  <use xlink:href="#glyph4-10" x="568.370062" y="48.9888"/>
  <use xlink:href="#glyph4-11" x="577.882353" y="48.9888"/>
  <use xlink:href="#glyph4-12" x="591.829992" y="48.9888"/>
  <use xlink:href="#glyph4-5" x="605.219727" y="48.9888"/>
  <use xlink:href="#glyph4-13" x="626.922254" y="48.9888"/>
  <use xlink:href="#glyph4-14" x="646.393159" y="48.9888"/>
  <use xlink:href="#glyph4-15" x="646.672112" y="48.9888"/>
  <use xlink:href="#glyph4-7" x="660.061846" y="48.9888"/>
  <use xlink:href="#glyph4-16" x="666.700923" y="48.9888"/>
  <use xlink:href="#glyph4-17" x="675.208983" y="48.9888"/>
  <use xlink:href="#glyph4-5" x="685.279179" y="48.9888"/>
  <use xlink:href="#glyph4-2" x="697.664683" y="48.9888"/>
</g>
</g>
</svg>
