<?xml version="1.0" encoding="UTF-8"?>
<svg xmlns="http://www.w3.org/2000/svg" xmlns:xlink="http://www.w3.org/1999/xlink" width="548pt" height="146pt" viewBox="0 0 548 146" version="1.1">
<defs>
<g>
<symbol overflow="visible" id="glyph0-0">
<path style="stroke:none;" d=""/>
</symbol>
<symbol overflow="visible" id="glyph0-1">
<path style="stroke:none;" d="M 1.15625 -9.5625 L 1.328125 -9.5625 L 3.546875 -10.5625 C 3.5625 -10.578125 3.578125 -10.578125 3.59375 -10.578125 C 3.703125 -10.578125 3.734375 -10.421875 3.734375 -10 L 3.734375 -1.65625 C 3.734375 -0.75 3.546875 -0.5625 2.625 -0.515625 L 1.65625 -0.46875 L 1.65625 0.046875 C 4.3125 0 4.3125 0 4.5 0 C 4.71875 0 5.09375 0 5.6875 0.015625 C 5.890625 0.03125 6.484375 0.03125 7.203125 0.046875 L 7.203125 -0.46875 L 6.296875 -0.515625 C 5.359375 -0.5625 5.1875 -0.75 5.1875 -1.65625 L 5.1875 -11.859375 L 4.9375 -11.953125 C 3.828125 -11.359375 2.59375 -10.84375 1.03125 -10.296875 Z M 1.15625 -9.5625 "/>
</symbol>
<symbol overflow="visible" id="glyph1-0">
<path style="stroke:none;" d=""/>
</symbol>
<symbol overflow="visible" id="glyph1-1">
<path style="stroke:none;" d="M 6.921875 -8.125 L 6.75 -8.28125 L 6.1875 -7.96875 C 5.46875 -8.234375 5.1875 -8.296875 4.71875 -8.296875 C 4.234375 -8.296875 3.890625 -8.21875 3.421875 -7.984375 C 2.359375 -7.453125 1.796875 -6.9375 1.359375 -6.09375 C 0.609375 -4.5625 0.0625 -2.5 0.0625 -1.15625 C 0.0625 -0.390625 0.328125 0.1875 0.65625 0.1875 C 1.03125 0.1875 1.6875 -0.1875 2.34375 -0.78125 C 3.0625 -1.421875 3.734375 -2.203125 4.671875 -3.515625 L 4.171875 -1.328125 C 4.09375 -1.03125 4.0625 -0.71875 4.0625 -0.453125 C 4.0625 -0.0625 4.21875 0.15625 4.484375 0.15625 C 4.875 0.15625 5.578125 -0.296875 6.984375 -1.46875 L 6.875 -1.828125 C 6.765625 -1.734375 6.71875 -1.703125 6.640625 -1.640625 C 6.09375 -1.171875 5.84375 -1.015625 5.578125 -1.015625 C 5.421875 -1.015625 5.328125 -1.171875 5.328125 -1.40625 C 5.328125 -1.5 5.328125 -1.546875 5.34375 -1.59375 Z M 5.5 -7.125 C 5.109375 -5.25 4.78125 -4.359375 4.203125 -3.46875 C 3.21875 -2.015625 2.171875 -1.015625 1.625 -1.015625 C 1.40625 -1.015625 1.3125 -1.234375 1.3125 -1.703125 C 1.3125 -2.8125 1.796875 -4.828125 2.390625 -6.203125 C 2.8125 -7.140625 3.203125 -7.453125 4.03125 -7.453125 C 4.421875 -7.453125 4.734375 -7.390625 5.5 -7.125 Z M 5.5 -7.125 "/>
</symbol>
<symbol overflow="visible" id="glyph2-0">
<path style="stroke:none;" d=""/>
</symbol>
<symbol overflow="visible" id="glyph2-1">
<path style="stroke:none;" d="M 4.046875 -12.4375 L 3.84375 -12.625 C 2.9375 -12.171875 2.328125 -12.015625 1.078125 -11.890625 L 1.015625 -11.53125 L 1.84375 -11.53125 C 2.25 -11.53125 2.421875 -11.421875 2.421875 -11.125 C 2.421875 -11 2.40625 -10.8125 2.390625 -10.703125 L 0.65625 -1.21875 C 0.640625 -1.171875 0.640625 -1.109375 0.640625 -1.046875 C 0.640625 -0.375 1.46875 0.1875 2.40625 0.1875 C 3.046875 0.1875 3.921875 -0.140625 4.671875 -0.671875 C 6.3125 -1.84375 7.453125 -4.203125 7.453125 -6.46875 C 7.453125 -7.125 7.296875 -7.796875 7.09375 -8.0625 C 6.96875 -8.21875 6.75 -8.296875 6.484375 -8.296875 C 6.078125 -8.296875 5.5625 -8.15625 5.078125 -7.921875 C 4.203125 -7.453125 3.640625 -6.9375 2.5625 -5.578125 Z M 5.546875 -7.296875 C 5.984375 -7.296875 6.21875 -6.90625 6.21875 -6.0625 C 6.21875 -4.953125 5.859375 -3.484375 5.34375 -2.359375 C 4.765625 -1.171875 4.078125 -0.625 3.15625 -0.625 C 2.359375 -0.625 1.921875 -1.015625 1.921875 -1.734375 C 1.921875 -2.171875 2 -2.65625 2.15625 -3.28125 C 2.484375 -4.671875 2.890625 -5.5 3.578125 -6.21875 C 4.15625 -6.796875 5.046875 -7.296875 5.546875 -7.296875 Z M 5.546875 -7.296875 "/>
</symbol>
<symbol overflow="visible" id="glyph2-2">
<path style="stroke:none;" d="M 8.3125 -12.4375 L 8.109375 -12.625 C 7.21875 -12.171875 6.59375 -12.015625 5.359375 -11.890625 L 5.28125 -11.53125 L 6.109375 -11.53125 C 6.53125 -11.53125 6.703125 -11.421875 6.703125 -11.125 C 6.703125 -10.984375 6.6875 -10.828125 6.65625 -10.703125 L 6.1875 -8.0625 C 5.671875 -8.21875 5.203125 -8.296875 4.765625 -8.296875 C 3.578125 -8.296875 1.96875 -7.0625 1.171875 -5.5625 C 0.640625 -4.5625 0.296875 -2.921875 0.296875 -1.484375 C 0.296875 -0.359375 0.546875 0.1875 1.046875 0.1875 C 1.515625 0.1875 2.15625 -0.109375 2.734375 -0.5625 C 3.671875 -1.328125 4.234375 -2 5.390625 -3.734375 L 5 -2.171875 C 4.796875 -1.40625 4.71875 -0.859375 4.71875 -0.40625 C 4.71875 -0.046875 4.875 0.15625 5.171875 0.15625 C 5.453125 0.15625 5.875 -0.046875 6.453125 -0.484375 L 7.859375 -1.515625 L 7.671875 -1.84375 L 6.921875 -1.3125 C 6.6875 -1.140625 6.40625 -1.015625 6.25 -1.015625 C 6.109375 -1.015625 6.015625 -1.171875 6.015625 -1.40625 C 6.015625 -1.546875 6.03125 -1.703125 6.140625 -2.203125 Z M 5.796875 -6.046875 C 5.5 -4.53125 4.65625 -3.015625 3.578125 -2 C 2.984375 -1.421875 2.296875 -1.015625 1.96875 -1.015625 C 1.6875 -1.015625 1.53125 -1.25 1.53125 -1.6875 C 1.53125 -3.859375 2.328125 -6.546875 3.171875 -7.203125 C 3.390625 -7.375 3.71875 -7.453125 4.1875 -7.453125 C 4.9375 -7.453125 5.4375 -7.359375 6.015625 -7.0625 Z M 5.796875 -6.046875 "/>
</symbol>
<symbol overflow="visible" id="glyph3-0">
<path style="stroke:none;" d=""/>
</symbol>
<symbol overflow="visible" id="glyph3-1">
<path style="stroke:none;" d="M 5.890625 -5.6875 L 6.28125 -5.6875 C 6.421875 -6.796875 6.546875 -7.4375 6.703125 -7.890625 C 6.28125 -8.140625 5.6875 -8.296875 5.046875 -8.296875 C 4.265625 -8.296875 3 -7.671875 2.03125 -6.796875 C 1.078125 -5.953125 0.4375 -4.15625 0.4375 -2.34375 C 0.4375 -0.6875 1.15625 0.1875 2.53125 0.1875 C 3.46875 0.1875 4.28125 -0.15625 5.234375 -0.9375 L 6.09375 -1.640625 L 5.953125 -1.984375 L 5.703125 -1.8125 C 4.453125 -0.984375 3.8125 -0.6875 3.203125 -0.6875 C 2.234375 -0.6875 1.734375 -1.375 1.734375 -2.734375 C 1.734375 -4.59375 2.34375 -6.390625 3.1875 -7.046875 C 3.546875 -7.3125 3.953125 -7.453125 4.5 -7.453125 C 5.265625 -7.453125 5.890625 -7.125 5.890625 -6.71875 Z M 5.890625 -5.6875 "/>
</symbol>
<symbol overflow="visible" id="glyph3-2">
<path style="stroke:none;" d="M 5.734375 -1.671875 C 5.609375 -1.25 5.546875 -0.796875 5.546875 -0.53125 C 5.546875 -0.109375 5.734375 0.15625 6.0625 0.15625 C 6.515625 0.15625 7.125 -0.203125 8.8125 -1.46875 L 8.640625 -1.78125 L 8.203125 -1.484375 C 7.78125 -1.203125 7.328125 -1.015625 7.140625 -1.015625 C 7.015625 -1.015625 6.921875 -1.140625 6.921875 -1.3125 C 6.921875 -1.453125 6.953125 -1.640625 7.015625 -1.890625 L 7.03125 -2 C 7.421875 -3.875 7.953125 -6.171875 8.46875 -8.140625 L 8.34375 -8.296875 L 7.1875 -8 L 7.015625 -7.125 C 6.75 -5.78125 6.3125 -4.609375 5.78125 -3.8125 C 4.765625 -2.234375 3.421875 -1.015625 2.734375 -1.015625 C 2.59375 -1.015625 2.515625 -1.171875 2.515625 -1.46875 C 2.515625 -1.703125 2.546875 -1.921875 2.640625 -2.359375 L 3.609375 -7.03125 C 3.671875 -7.296875 3.703125 -7.546875 3.703125 -7.765625 C 3.703125 -8.09375 3.546875 -8.296875 3.3125 -8.296875 C 2.96875 -8.296875 2.3125 -7.9375 1.03125 -7.03125 L 0.546875 -6.6875 L 0.671875 -6.34375 L 1.21875 -6.703125 C 1.703125 -7.015625 1.890625 -7.09375 2.046875 -7.09375 C 2.203125 -7.09375 2.34375 -6.9375 2.34375 -6.75 C 2.34375 -6.6875 2.328125 -6.515625 2.3125 -6.4375 L 1.21875 -1.328125 C 1.1875 -1.171875 1.15625 -0.75 1.15625 -0.515625 C 1.15625 -0.125 1.40625 0.1875 1.75 0.1875 C 2.84375 0.1875 4.921875 -1.734375 6.375 -4.109375 Z M 5.734375 -1.671875 "/>
</symbol>
<symbol overflow="visible" id="glyph3-3">
<path style="stroke:none;" d="M 5.71875 -7.28125 L 5.90625 -6.953125 C 6.0625 -7.0625 6.21875 -7.109375 6.375 -7.109375 C 6.828125 -7.109375 7.109375 -6.71875 7.109375 -6.03125 C 7.109375 -3.484375 5.4375 -0.671875 3.921875 -0.671875 C 3.078125 -0.671875 2.546875 -1.390625 2.546875 -2.515625 C 2.546875 -4.328125 3.21875 -5.890625 4.90625 -7.984375 L 4.734375 -8.296875 C 4.390625 -8.140625 4.171875 -8.09375 3.6875 -8.09375 C 3.203125 -8.09375 2.484375 -8.125 1.984375 -8.171875 L 1.78125 -8.203125 C 1.671875 -8.21875 1.578125 -8.21875 1.5625 -8.21875 C 1.359375 -8.21875 1.203125 -8.171875 1.015625 -8.09375 C 0.78125 -7.625 0.578125 -7.015625 0.359375 -6.0625 L 0.734375 -6.0625 L 1.03125 -6.78125 C 1.15625 -7.078125 1.5 -7.265625 1.90625 -7.265625 C 2 -7.265625 2.15625 -7.265625 2.375 -7.25 C 2.515625 -7.234375 2.640625 -7.234375 2.859375 -7.234375 C 3.21875 -7.234375 3.5 -7.25 3.9375 -7.296875 C 2.03125 -5.234375 1.3125 -3.8125 1.3125 -2.078125 C 1.3125 -0.75 2.09375 0.1875 3.203125 0.1875 C 3.921875 0.1875 4.578125 -0.125 5.375 -0.828125 C 6.1875 -1.5625 7.015625 -2.71875 7.546875 -3.90625 C 7.921875 -4.765625 8.21875 -5.921875 8.21875 -6.609375 C 8.21875 -7.59375 7.765625 -8.296875 7.140625 -8.296875 C 6.921875 -8.296875 6.71875 -8.234375 6.578125 -8.09375 Z M 5.71875 -7.28125 "/>
</symbol>
<symbol overflow="visible" id="glyph3-4">
<path style="stroke:none;" d="M 9.546875 -7.28125 L 9.734375 -6.953125 C 9.890625 -7.0625 10.03125 -7.109375 10.1875 -7.109375 C 10.65625 -7.109375 10.9375 -6.71875 10.9375 -6.03125 C 10.9375 -3.53125 9.265625 -0.671875 7.796875 -0.671875 C 7.296875 -0.671875 6.9375 -1.359375 6.9375 -2.3125 C 6.9375 -3.109375 7.09375 -4.25 7.296875 -5 L 8.203125 -8.15625 L 8.078125 -8.296875 L 6.796875 -7.921875 L 6.296875 -5.359375 C 6.09375 -4.28125 5.859375 -3.59375 5.359375 -2.671875 C 4.671875 -1.375 4.015625 -0.671875 3.5 -0.671875 C 2.890625 -0.671875 2.5 -1.34375 2.5 -2.34375 C 2.5 -4.390625 3.203125 -6.0625 4.90625 -7.984375 L 4.734375 -8.296875 C 4.390625 -8.140625 4.171875 -8.09375 3.6875 -8.09375 C 3.203125 -8.09375 2.484375 -8.125 1.984375 -8.171875 L 1.78125 -8.203125 C 1.671875 -8.21875 1.578125 -8.21875 1.5625 -8.21875 C 1.359375 -8.21875 1.203125 -8.171875 1.015625 -8.09375 C 0.78125 -7.625 0.578125 -7.015625 0.359375 -6.0625 L 0.734375 -6.0625 L 1.03125 -6.78125 C 1.15625 -7.078125 1.5 -7.265625 1.90625 -7.265625 C 2 -7.265625 2.15625 -7.265625 2.375 -7.25 C 2.515625 -7.234375 2.65625 -7.234375 2.875 -7.234375 C 3.234375 -7.234375 3.46875 -7.25 3.890625 -7.296875 L 3.84375 -7.234375 C 3.734375 -7.09375 3.671875 -7.015625 3.375 -6.6875 C 1.828125 -4.875 1.234375 -3.640625 1.234375 -2.171875 C 1.234375 -0.75 1.84375 0.1875 2.75 0.1875 C 3.859375 0.1875 4.75 -0.75 6.03125 -3.21875 C 5.875 -2.46875 5.8125 -2.03125 5.8125 -1.640625 C 5.8125 -0.546875 6.3125 0.1875 7.09375 0.1875 C 8.484375 0.1875 10.296875 -1.546875 11.359375 -3.90625 C 11.75 -4.765625 12.03125 -5.921875 12.03125 -6.609375 C 12.03125 -7.59375 11.59375 -8.296875 10.96875 -8.296875 C 10.75 -8.296875 10.53125 -8.234375 10.40625 -8.09375 Z M 9.546875 -7.28125 "/>
</symbol>
<symbol overflow="visible" id="glyph4-0">
<path style="stroke:none;" d=""/>
</symbol>
<symbol overflow="visible" id="glyph4-1">
<path style="stroke:none;" d="M 2.15625 -6.71875 L 1.1875 -1.84375 C 1.171875 -1.71875 1.15625 -1.6875 1.109375 -1.484375 C 1 -1 0.96875 -0.734375 0.96875 -0.53125 C 0.96875 -0.109375 1.15625 0.15625 1.484375 0.15625 C 2.078125 0.15625 2.6875 -0.1875 4.03125 -1.28125 L 4.28125 -1.484375 L 4.5625 -1.703125 L 4.390625 -2.015625 L 3.609375 -1.484375 C 3.109375 -1.140625 2.765625 -0.96875 2.578125 -0.96875 C 2.421875 -0.96875 2.34375 -1.109375 2.34375 -1.3125 C 2.34375 -1.75 2.578125 -3.15625 3.078125 -5.640625 L 3.3125 -6.71875 L 5.140625 -6.71875 L 5.34375 -7.578125 C 4.6875 -7.5 4.09375 -7.46875 3.4375 -7.46875 C 3.71875 -9.09375 3.90625 -9.9375 4.21875 -10.859375 L 4.03125 -11.125 C 3.6875 -10.921875 3.21875 -10.703125 2.6875 -10.5 L 2.25 -7.578125 C 1.5 -7.21875 1.046875 -7.03125 0.734375 -6.9375 L 0.703125 -6.71875 Z M 2.15625 -6.71875 "/>
</symbol>
<symbol overflow="visible" id="glyph5-0">
<path style="stroke:none;" d=""/>
</symbol>
<symbol overflow="visible" id="glyph5-1">
<path style="stroke:none;" d="M 4.109375 -5.5 C 4.15625 -5.765625 4.265625 -6.09375 4.34375 -6.296875 L 4.28125 -6.390625 L 4.1875 -6.375 C 3.84375 -6.28125 3.6875 -6.265625 2.984375 -6.265625 L 2.75 -6.265625 L 3.0625 -7.875 C 3.28125 -9.109375 3.6875 -9.65625 4.34375 -9.65625 C 4.78125 -9.65625 5.15625 -9.4375 5.375 -9.09375 L 5.515625 -9.15625 C 5.59375 -9.375 5.734375 -9.828125 5.859375 -10.109375 L 5.921875 -10.328125 C 5.6875 -10.421875 5.25 -10.515625 4.921875 -10.515625 C 4.765625 -10.515625 4.53125 -10.46875 4.421875 -10.40625 C 4.078125 -10.25 2.890625 -9.375 2.5625 -9.03125 C 2.25 -8.71875 2.078125 -8.296875 1.921875 -7.46875 L 1.703125 -6.34375 C 1.125 -6.046875 0.828125 -5.9375 0.46875 -5.8125 L 0.40625 -5.5 L 1.5625 -5.5 L 1.4375 -4.6875 C 1 -1.890625 0.46875 0.78125 0.15625 1.765625 C -0.09375 2.609375 -0.53125 3.0625 -1.046875 3.0625 C -1.375 3.0625 -1.53125 2.953125 -1.796875 2.640625 L -2 2.703125 C -2.046875 3.03125 -2.25 3.71875 -2.328125 3.84375 C -2.1875 3.921875 -1.984375 3.953125 -1.828125 3.953125 C -1.234375 3.953125 -0.453125 3.515625 0.09375 2.84375 C 0.96875 1.8125 1.296875 0.796875 2.34375 -4.234375 C 2.375 -4.40625 2.5 -4.953125 2.609375 -5.5 Z M 4.109375 -5.5 "/>
</symbol>
</g>
</defs>
<g id="surface59902">
<path style="fill-rule:evenodd;fill:rgb(74.5%,74.5%,74.5%);fill-opacity:0.5;stroke-width:0.4;stroke-linecap:round;stroke-linejoin:round;stroke:rgb(0%,0%,0%);stroke-opacity:1;stroke-miterlimit:10;" d="M 466.542969 577.421875 C 466.542969 586.261719 459.378906 593.421875 450.542969 593.421875 C 441.703125 593.421875 434.542969 586.261719 434.542969 577.421875 C 434.542969 568.585938 441.703125 561.421875 450.542969 561.421875 C 459.378906 561.421875 466.542969 568.585938 466.542969 577.421875 Z M 466.542969 577.421875 " transform="matrix(1,0,0,-1,-113,659)"/>
<path style="fill-rule:evenodd;fill:rgb(74.5%,74.5%,74.5%);fill-opacity:0.5;stroke-width:0.4;stroke-linecap:round;stroke-linejoin:round;stroke:rgb(0%,0%,0%);stroke-opacity:1;stroke-miterlimit:10;" d="M 562.542969 641.421875 C 562.542969 650.261719 555.378906 657.421875 546.542969 657.421875 C 537.703125 657.421875 530.542969 650.261719 530.542969 641.421875 C 530.542969 632.585938 537.703125 625.421875 546.542969 625.421875 C 555.378906 625.421875 562.542969 632.585938 562.542969 641.421875 Z M 562.542969 641.421875 " transform="matrix(1,0,0,-1,-113,659)"/>
<path style="fill-rule:evenodd;fill:rgb(74.5%,74.5%,74.5%);fill-opacity:0.5;stroke-width:0.4;stroke-linecap:round;stroke-linejoin:round;stroke:rgb(0%,0%,0%);stroke-opacity:1;stroke-miterlimit:10;" d="M 562.542969 529.421875 C 562.542969 538.261719 555.378906 545.421875 546.542969 545.421875 C 537.703125 545.421875 530.542969 538.261719 530.542969 529.421875 C 530.542969 520.585938 537.703125 513.421875 546.542969 513.421875 C 555.378906 513.421875 562.542969 520.585938 562.542969 529.421875 Z M 562.542969 529.421875 " transform="matrix(1,0,0,-1,-113,659)"/>
<path style="fill-rule:evenodd;fill:rgb(74.5%,74.5%,74.5%);fill-opacity:0.5;stroke-width:0.4;stroke-linecap:round;stroke-linejoin:round;stroke:rgb(0%,0%,0%);stroke-opacity:1;stroke-miterlimit:10;" d="M 658.542969 577.421875 C 658.542969 586.261719 651.378906 593.421875 642.542969 593.421875 C 633.703125 593.421875 626.542969 586.261719 626.542969 577.421875 C 626.542969 568.585938 633.703125 561.421875 642.542969 561.421875 C 651.378906 561.421875 658.542969 568.585938 658.542969 577.421875 Z M 658.542969 577.421875 " transform="matrix(1,0,0,-1,-113,659)"/>
<path style="fill-rule:evenodd;fill:rgb(74.5%,74.5%,74.5%);fill-opacity:0.5;stroke-width:0.4;stroke-linecap:round;stroke-linejoin:round;stroke:rgb(0%,0%,0%);stroke-opacity:1;stroke-miterlimit:10;" d="M 306.542969 577.421875 C 306.542969 586.261719 299.378906 593.421875 290.542969 593.421875 C 281.703125 593.421875 274.542969 586.261719 274.542969 577.421875 C 274.542969 568.585938 281.703125 561.421875 290.542969 561.421875 C 299.378906 561.421875 306.542969 568.585938 306.542969 577.421875 Z M 306.542969 577.421875 " transform="matrix(1,0,0,-1,-113,659)"/>
<path style="fill-rule:evenodd;fill:rgb(74.5%,74.5%,74.5%);fill-opacity:0.5;stroke-width:0.4;stroke-linecap:round;stroke-linejoin:round;stroke:rgb(0%,0%,0%);stroke-opacity:1;stroke-miterlimit:10;" d="M 226.542969 625.421875 C 226.542969 634.261719 219.378906 641.421875 210.542969 641.421875 C 201.703125 641.421875 194.542969 634.261719 194.542969 625.421875 C 194.542969 616.585938 201.703125 609.421875 210.542969 609.421875 C 219.378906 609.421875 226.542969 616.585938 226.542969 625.421875 Z M 226.542969 625.421875 " transform="matrix(1,0,0,-1,-113,659)"/>
<path style="fill-rule:evenodd;fill:rgb(74.5%,74.5%,74.5%);fill-opacity:0.5;stroke-width:0.4;stroke-linecap:round;stroke-linejoin:round;stroke:rgb(0%,0%,0%);stroke-opacity:1;stroke-miterlimit:10;" d="M 226.542969 529.421875 C 226.542969 538.261719 219.378906 545.421875 210.542969 545.421875 C 201.703125 545.421875 194.542969 538.261719 194.542969 529.421875 C 194.542969 520.585938 201.703125 513.421875 210.542969 513.421875 C 219.378906 513.421875 226.542969 520.585938 226.542969 529.421875 Z M 226.542969 529.421875 " transform="matrix(1,0,0,-1,-113,659)"/>
<path style="fill-rule:evenodd;fill:rgb(74.5%,74.5%,74.5%);fill-opacity:0.5;stroke-width:0.4;stroke-linecap:round;stroke-linejoin:round;stroke:rgb(0%,0%,0%);stroke-opacity:1;stroke-miterlimit:10;" d="M 146.542969 577.421875 C 146.542969 586.261719 139.378906 593.421875 130.542969 593.421875 C 121.703125 593.421875 114.542969 586.261719 114.542969 577.421875 C 114.542969 568.585938 121.703125 561.421875 130.542969 561.421875 C 139.378906 561.421875 146.542969 568.585938 146.542969 577.421875 Z M 146.542969 577.421875 " transform="matrix(1,0,0,-1,-113,659)"/>
<path style="fill-rule:evenodd;fill:rgb(74.5%,74.5%,74.5%);fill-opacity:0.5;stroke-width:0.4;stroke-linecap:round;stroke-linejoin:round;stroke:rgb(0%,0%,0%);stroke-opacity:1;stroke-miterlimit:10;" d="M 144.261719 585.65625 L 196.820312 617.191406 " transform="matrix(1,0,0,-1,-113,659)"/>
<path style="fill:none;stroke-width:0.4;stroke-linecap:round;stroke-linejoin:round;stroke:rgb(0%,0%,0%);stroke-opacity:1;stroke-miterlimit:10;" d="M 146.542969 577.421875 L 274.542969 577.421875 " transform="matrix(1,0,0,-1,-113,659)"/>
<path style="fill-rule:evenodd;fill:rgb(74.5%,74.5%,74.5%);fill-opacity:0.5;stroke-width:0.4;stroke-linecap:round;stroke-linejoin:round;stroke:rgb(0%,0%,0%);stroke-opacity:1;stroke-miterlimit:10;" d="M 224.261719 617.191406 L 276.820312 585.65625 " transform="matrix(1,0,0,-1,-113,659)"/>
<path style="fill-rule:evenodd;fill:rgb(74.5%,74.5%,74.5%);fill-opacity:0.5;stroke-width:0.4;stroke-linecap:round;stroke-linejoin:round;stroke:rgb(0%,0%,0%);stroke-opacity:1;stroke-miterlimit:10;" d="M 144.261719 569.191406 L 196.820312 537.65625 " transform="matrix(1,0,0,-1,-113,659)"/>
<path style="fill-rule:evenodd;fill:rgb(74.5%,74.5%,74.5%);fill-opacity:0.5;stroke-width:0.4;stroke-linecap:round;stroke-linejoin:round;stroke:rgb(0%,0%,0%);stroke-opacity:1;stroke-miterlimit:10;" d="M 224.261719 537.65625 L 276.820312 569.191406 " transform="matrix(1,0,0,-1,-113,659)"/>
<path style="fill:none;stroke-width:0.4;stroke-linecap:round;stroke-linejoin:round;stroke:rgb(0%,0%,0%);stroke-opacity:1;stroke-miterlimit:10;" d="M 306.542969 577.421875 L 434.542969 577.421875 " transform="matrix(1,0,0,-1,-113,659)"/>
<path style="fill-rule:evenodd;fill:rgb(74.5%,74.5%,74.5%);fill-opacity:0.5;stroke-width:0.4;stroke-linecap:round;stroke-linejoin:round;stroke:rgb(0%,0%,0%);stroke-opacity:1;stroke-miterlimit:10;" d="M 463.855469 586.296875 L 533.226562 632.546875 " transform="matrix(1,0,0,-1,-113,659)"/>
<path style="fill-rule:evenodd;fill:rgb(74.5%,74.5%,74.5%);fill-opacity:0.5;stroke-width:0.4;stroke-linecap:round;stroke-linejoin:round;stroke:rgb(0%,0%,0%);stroke-opacity:1;stroke-miterlimit:10;" d="M 464.851562 570.269531 L 532.230469 536.578125 " transform="matrix(1,0,0,-1,-113,659)"/>
<path style="fill:none;stroke-width:0.4;stroke-linecap:round;stroke-linejoin:round;stroke:rgb(0%,0%,0%);stroke-opacity:1;stroke-miterlimit:10;" d="M 546.542969 545.421875 L 546.542969 625.421875 " transform="matrix(1,0,0,-1,-113,659)"/>
<path style="fill-rule:evenodd;fill:rgb(74.5%,74.5%,74.5%);fill-opacity:0.5;stroke-width:0.4;stroke-linecap:round;stroke-linejoin:round;stroke:rgb(0%,0%,0%);stroke-opacity:1;stroke-miterlimit:10;" d="M 559.855469 632.546875 L 629.226562 586.296875 " transform="matrix(1,0,0,-1,-113,659)"/>
<path style="fill-rule:evenodd;fill:rgb(74.5%,74.5%,74.5%);fill-opacity:0.5;stroke-width:0.4;stroke-linecap:round;stroke-linejoin:round;stroke:rgb(0%,0%,0%);stroke-opacity:1;stroke-miterlimit:10;" d="M 628.230469 570.269531 L 560.851562 536.578125 " transform="matrix(1,0,0,-1,-113,659)"/>
<g style="fill:rgb(0%,0%,0%);fill-opacity:1;">
  <use xlink:href="#glyph0-1" x="113.525085" y="25.305123"/>
</g>
<g style="fill:rgb(0%,0%,0%);fill-opacity:1;">
  <use xlink:href="#glyph0-1" x="539.156085" y="63.836223"/>
</g>
<g style="fill:rgb(0%,0%,0%);fill-opacity:1;">
  <use xlink:href="#glyph1-1" x="95.916085" y="35.644623"/>
</g>
<g style="fill:rgb(0%,0%,0%);fill-opacity:1;">
  <use xlink:href="#glyph2-1" x="12.861985" y="88.436823"/>
</g>
<g style="fill:rgb(0%,0%,0%);fill-opacity:1;">
  <use xlink:href="#glyph3-1" x="93.528425" y="136.646623"/>
</g>
<g style="fill:rgb(0%,0%,0%);fill-opacity:1;">
  <use xlink:href="#glyph2-2" x="174.659885" y="90.147823"/>
</g>
<g style="fill:rgb(0%,0%,0%);fill-opacity:1;">
  <use xlink:href="#glyph3-2" x="333.919085" y="87.501923"/>
</g>
<g style="fill:rgb(0%,0%,0%);fill-opacity:1;">
  <use xlink:href="#glyph3-3" x="428.624085" y="136.599623"/>
</g>
<g style="fill:rgb(0%,0%,0%);fill-opacity:1;">
  <use xlink:href="#glyph3-4" x="427.941085" y="24.961223"/>
</g>
<g style="fill:rgb(0%,0%,0%);fill-opacity:1;">
  <use xlink:href="#glyph4-1" x="526.618085" y="85.722623"/>
</g>
<g style="fill:rgb(0%,0%,0%);fill-opacity:1;">
  <use xlink:href="#glyph5-1" x="251.913916" y="69.879053"/>
</g>
</g>
</svg>
