<?xml version="1.0" encoding="UTF-8"?>
<svg xmlns="http://www.w3.org/2000/svg" xmlns:xlink="http://www.w3.org/1999/xlink" width="599pt" height="267pt" viewBox="0 0 599 267" version="1.1">
<g id="surface1786">
<path style=" stroke:none;fill-rule:evenodd;fill:rgb(0%,0%,100%);fill-opacity:1;" d="M 399.292969 7 C 399.292969 -0.199219 388.496094 -0.199219 388.496094 7 C 388.496094 14.199219 399.292969 14.199219 399.292969 7 Z M 399.292969 7 "/>
<path style=" stroke:none;fill-rule:evenodd;fill:rgb(0%,0%,100%);fill-opacity:1;" d="M 555.085938 39 C 555.085938 31.800781 544.285156 31.800781 544.285156 39 C 544.285156 46.199219 555.085938 46.199219 555.085938 39 Z M 555.085938 39 "/>
<path style=" stroke:none;fill-rule:evenodd;fill:rgb(0%,0%,100%);fill-opacity:1;" d="M 523.925781 87 C 523.925781 79.800781 513.125 79.800781 513.125 87 C 513.125 94.199219 523.925781 94.199219 523.925781 87 Z M 523.925781 87 "/>
<path style=" stroke:none;fill-rule:evenodd;fill:rgb(0%,0%,100%);fill-opacity:1;" d="M 586.242188 87 C 586.242188 79.800781 575.441406 79.800781 575.441406 87 C 575.441406 94.199219 586.242188 94.199219 586.242188 87 Z M 586.242188 87 "/>
<path style=" stroke:none;fill-rule:evenodd;fill:rgb(0%,0%,100%);fill-opacity:1;" d="M 212.347656 39 C 212.347656 31.800781 201.546875 31.800781 201.546875 39 C 201.546875 46.199219 212.347656 46.199219 212.347656 39 Z M 212.347656 39 "/>
<path style="fill:none;stroke-width:1.2;stroke-linecap:round;stroke-linejoin:round;stroke:rgb(0%,0%,100%);stroke-opacity:1;stroke-miterlimit:10;" d="M 501.894531 464 L 314.949219 432 " transform="matrix(1,0,0,-1,-108,471)"/>
<path style="fill:none;stroke-width:1.2;stroke-linecap:round;stroke-linejoin:round;stroke:rgb(0%,0%,100%);stroke-opacity:1;stroke-miterlimit:10;" d="M 501.894531 464 L 657.683594 432 " transform="matrix(1,0,0,-1,-108,471)"/>
<path style="fill:none;stroke-width:1.2;stroke-linecap:round;stroke-linejoin:round;stroke:rgb(0%,0%,100%);stroke-opacity:1;stroke-miterlimit:10;" d="M 657.683594 432 L 626.527344 384 " transform="matrix(1,0,0,-1,-108,471)"/>
<path style="fill:none;stroke-width:1.2;stroke-linecap:round;stroke-linejoin:round;stroke:rgb(0%,0%,100%);stroke-opacity:1;stroke-miterlimit:10;" d="M 657.683594 432 L 688.84375 384 " transform="matrix(1,0,0,-1,-108,471)"/>
<path style=" stroke:none;fill-rule:evenodd;fill:rgb(0%,0%,100%);fill-opacity:1;" d="M 274.664062 87 C 274.664062 79.800781 263.863281 79.800781 263.863281 87 C 263.863281 94.199219 274.664062 94.199219 274.664062 87 Z M 274.664062 87 "/>
<path style=" stroke:none;fill-rule:evenodd;fill:rgb(0%,0%,100%);fill-opacity:1;" d="M 243.503906 135 C 243.503906 127.800781 232.707031 127.800781 232.707031 135 C 232.707031 142.199219 243.503906 142.199219 243.503906 135 Z M 243.503906 135 "/>
<path style=" stroke:none;fill-rule:evenodd;fill:rgb(0%,0%,100%);fill-opacity:1;" d="M 305.820312 135 C 305.820312 127.800781 295.019531 127.800781 295.019531 135 C 295.019531 142.199219 305.820312 142.199219 305.820312 135 Z M 305.820312 135 "/>
<path style="fill:none;stroke-width:1.2;stroke-linecap:round;stroke-linejoin:round;stroke:rgb(0%,0%,100%);stroke-opacity:1;stroke-miterlimit:10;" d="M 377.261719 384 L 346.105469 336 " transform="matrix(1,0,0,-1,-108,471)"/>
<path style="fill:none;stroke-width:1.2;stroke-linecap:round;stroke-linejoin:round;stroke:rgb(0%,0%,100%);stroke-opacity:1;stroke-miterlimit:10;" d="M 377.261719 384 L 408.421875 336 " transform="matrix(1,0,0,-1,-108,471)"/>
<path style="fill:none;stroke-width:1.2;stroke-linecap:round;stroke-linejoin:round;stroke:rgb(0%,0%,100%);stroke-opacity:1;stroke-miterlimit:10;" d="M 314.949219 432 L 377.261719 384 " transform="matrix(1,0,0,-1,-108,471)"/>
<path style="fill:none;stroke-width:1.2;stroke-linecap:round;stroke-linejoin:round;stroke:rgb(0%,0%,100%);stroke-opacity:1;stroke-miterlimit:10;" d="M 314.949219 432 L 221.472656 384 " transform="matrix(1,0,0,-1,-108,471)"/>
<path style=" stroke:none;fill-rule:evenodd;fill:rgb(0%,0%,100%);fill-opacity:1;" d="M 118.875 87 C 118.875 79.800781 108.074219 79.800781 108.074219 87 C 108.074219 94.199219 118.875 94.199219 118.875 87 Z M 118.875 87 "/>
<path style=" stroke:none;fill-rule:evenodd;fill:rgb(0%,0%,100%);fill-opacity:1;" d="M 181.191406 135 C 181.191406 127.800781 170.390625 127.800781 170.390625 135 C 170.390625 142.199219 181.191406 142.199219 181.191406 135 Z M 181.191406 135 "/>
<path style=" stroke:none;fill-rule:evenodd;fill:rgb(0%,0%,100%);fill-opacity:1;" d="M 150.03125 183 C 150.03125 175.800781 139.230469 175.800781 139.230469 183 C 139.230469 190.199219 150.03125 190.199219 150.03125 183 Z M 150.03125 183 "/>
<path style=" stroke:none;fill-rule:evenodd;fill:rgb(0%,0%,100%);fill-opacity:1;" d="M 212.347656 183 C 212.347656 175.800781 201.546875 175.800781 201.546875 183 C 201.546875 190.199219 212.347656 190.199219 212.347656 183 Z M 212.347656 183 "/>
<path style="fill:none;stroke-width:1.2;stroke-linecap:round;stroke-linejoin:round;stroke:rgb(0%,0%,100%);stroke-opacity:1;stroke-miterlimit:10;" d="M 283.789062 336 L 252.632812 288 " transform="matrix(1,0,0,-1,-108,471)"/>
<path style="fill:none;stroke-width:1.2;stroke-linecap:round;stroke-linejoin:round;stroke:rgb(0%,0%,100%);stroke-opacity:1;stroke-miterlimit:10;" d="M 283.789062 336 L 314.949219 288 " transform="matrix(1,0,0,-1,-108,471)"/>
<path style="fill:none;stroke-width:1.2;stroke-linecap:round;stroke-linejoin:round;stroke:rgb(0%,0%,100%);stroke-opacity:1;stroke-miterlimit:10;" d="M 221.472656 384 L 283.789062 336 " transform="matrix(1,0,0,-1,-108,471)"/>
<path style="fill:none;stroke-width:1.2;stroke-linecap:round;stroke-linejoin:round;stroke:rgb(0%,0%,100%);stroke-opacity:1;stroke-miterlimit:10;" d="M 221.472656 384 L 159.15625 336 " transform="matrix(1,0,0,-1,-108,471)"/>
<path style=" stroke:none;fill-rule:evenodd;fill:rgb(0%,0%,100%);fill-opacity:1;" d="M 56.558594 135 C 56.558594 127.800781 45.757812 127.800781 45.757812 135 C 45.757812 142.199219 56.558594 142.199219 56.558594 135 Z M 56.558594 135 "/>
<path style=" stroke:none;fill-rule:evenodd;fill:rgb(0%,0%,100%);fill-opacity:1;" d="M 87.714844 183 C 87.714844 175.800781 76.914062 175.800781 76.914062 183 C 76.914062 190.199219 87.714844 190.199219 87.714844 183 Z M 87.714844 183 "/>
<path style=" stroke:none;fill-rule:evenodd;fill:rgb(0%,0%,100%);fill-opacity:1;" d="M 56.558594 231 C 56.558594 223.800781 45.757812 223.800781 45.757812 231 C 45.757812 238.199219 56.558594 238.199219 56.558594 231 Z M 56.558594 231 "/>
<path style=" stroke:none;fill-rule:evenodd;fill:rgb(0%,0%,100%);fill-opacity:1;" d="M 118.875 231 C 118.875 223.800781 108.074219 223.800781 108.074219 231 C 108.074219 238.199219 118.875 238.199219 118.875 231 Z M 118.875 231 "/>
<path style="fill:none;stroke-width:1.2;stroke-linecap:round;stroke-linejoin:round;stroke:rgb(0%,0%,100%);stroke-opacity:1;stroke-miterlimit:10;" d="M 190.316406 288 L 159.15625 240 " transform="matrix(1,0,0,-1,-108,471)"/>
<path style="fill:none;stroke-width:1.2;stroke-linecap:round;stroke-linejoin:round;stroke:rgb(0%,0%,100%);stroke-opacity:1;stroke-miterlimit:10;" d="M 190.316406 288 L 221.472656 240 " transform="matrix(1,0,0,-1,-108,471)"/>
<path style="fill:none;stroke-width:1.2;stroke-linecap:round;stroke-linejoin:round;stroke:rgb(0%,0%,100%);stroke-opacity:1;stroke-miterlimit:10;" d="M 159.15625 336 L 190.316406 288 " transform="matrix(1,0,0,-1,-108,471)"/>
<path style=" stroke:none;fill-rule:evenodd;fill:rgb(0%,0%,100%);fill-opacity:1;" d="M 25.398438 183 C 25.398438 175.800781 14.601562 175.800781 14.601562 183 C 14.601562 190.199219 25.398438 190.199219 25.398438 183 Z M 25.398438 183 "/>
<path style="fill:none;stroke-width:1.2;stroke-linecap:round;stroke-linejoin:round;stroke:rgb(0%,0%,100%);stroke-opacity:1;stroke-miterlimit:10;" d="M 128 288 L 159.15625 336 " transform="matrix(1,0,0,-1,-108,471)"/>
<path style=" stroke:none;fill-rule:evenodd;fill:rgb(0%,0%,0%);fill-opacity:1;" d="M 32.398438 266.601562 L 39.601562 266.601562 L 39.601562 259.398438 L 32.398438 259.398438 Z M 32.398438 266.601562 "/>
<path style=" stroke:none;fill-rule:evenodd;fill:rgb(0%,0%,0%);fill-opacity:1;" d="M 61.175781 266.601562 L 68.375 266.601562 L 68.375 259.398438 L 61.175781 259.398438 Z M 61.175781 266.601562 "/>
<path style="fill:none;stroke-width:1.2;stroke-linecap:round;stroke-linejoin:round;stroke:rgb(0%,0%,100%);stroke-opacity:1;stroke-miterlimit:10;" d="M 144 208 L 159.15625 240 L 172.773438 208 " transform="matrix(1,0,0,-1,-108,471)"/>
<path style=" stroke:none;fill-rule:evenodd;fill:rgb(0%,0%,100%);fill-opacity:1;" d="M 25.398438 183 C 25.398438 175.800781 14.601562 175.800781 14.601562 183 C 14.601562 190.199219 25.398438 190.199219 25.398438 183 Z M 25.398438 183 "/>
<path style=" stroke:none;fill-rule:evenodd;fill:rgb(0%,0%,0%);fill-opacity:1;" d="M 1.242188 218.601562 L 8.441406 218.601562 L 8.441406 211.398438 L 1.242188 211.398438 Z M 1.242188 218.601562 "/>
<path style=" stroke:none;fill-rule:evenodd;fill:rgb(0%,0%,0%);fill-opacity:1;" d="M 30.015625 218.601562 L 37.214844 218.601562 L 37.214844 211.398438 L 30.015625 211.398438 Z M 30.015625 218.601562 "/>
<path style="fill:none;stroke-width:1.2;stroke-linecap:round;stroke-linejoin:round;stroke:rgb(0%,0%,100%);stroke-opacity:1;stroke-miterlimit:10;" d="M 112.84375 256 L 128 288 L 141.617188 256 " transform="matrix(1,0,0,-1,-108,471)"/>
<path style=" stroke:none;fill-rule:evenodd;fill:rgb(0%,0%,100%);fill-opacity:1;" d="M 118.875 231 C 118.875 223.800781 108.074219 223.800781 108.074219 231 C 108.074219 238.199219 118.875 238.199219 118.875 231 Z M 118.875 231 "/>
<path style=" stroke:none;fill-rule:evenodd;fill:rgb(0%,0%,0%);fill-opacity:1;" d="M 94.714844 266.601562 L 101.917969 266.601562 L 101.917969 259.398438 L 94.714844 259.398438 Z M 94.714844 266.601562 "/>
<path style=" stroke:none;fill-rule:evenodd;fill:rgb(0%,0%,0%);fill-opacity:1;" d="M 123.492188 266.601562 L 130.691406 266.601562 L 130.691406 259.398438 L 123.492188 259.398438 Z M 123.492188 266.601562 "/>
<path style="fill:none;stroke-width:1.2;stroke-linecap:round;stroke-linejoin:round;stroke:rgb(0%,0%,100%);stroke-opacity:1;stroke-miterlimit:10;" d="M 206.316406 208 L 221.472656 240 L 235.089844 208 " transform="matrix(1,0,0,-1,-108,471)"/>
<path style=" stroke:none;fill-rule:evenodd;fill:rgb(0%,0%,100%);fill-opacity:1;" d="M 150.03125 183 C 150.03125 175.800781 139.230469 175.800781 139.230469 183 C 139.230469 190.199219 150.03125 190.199219 150.03125 183 Z M 150.03125 183 "/>
<path style=" stroke:none;fill-rule:evenodd;fill:rgb(0%,0%,0%);fill-opacity:1;" d="M 125.875 218.601562 L 133.074219 218.601562 L 133.074219 211.398438 L 125.875 211.398438 Z M 125.875 218.601562 "/>
<path style=" stroke:none;fill-rule:evenodd;fill:rgb(0%,0%,0%);fill-opacity:1;" d="M 154.648438 218.601562 L 161.847656 218.601562 L 161.847656 211.398438 L 154.648438 211.398438 Z M 154.648438 218.601562 "/>
<path style="fill:none;stroke-width:1.2;stroke-linecap:round;stroke-linejoin:round;stroke:rgb(0%,0%,100%);stroke-opacity:1;stroke-miterlimit:10;" d="M 237.472656 256 L 252.632812 288 L 266.25 256 " transform="matrix(1,0,0,-1,-108,471)"/>
<path style=" stroke:none;fill-rule:evenodd;fill:rgb(0%,0%,100%);fill-opacity:1;" d="M 212.347656 183 C 212.347656 175.800781 201.546875 175.800781 201.546875 183 C 201.546875 190.199219 212.347656 190.199219 212.347656 183 Z M 212.347656 183 "/>
<path style=" stroke:none;fill-rule:evenodd;fill:rgb(0%,0%,0%);fill-opacity:1;" d="M 188.191406 218.601562 L 195.390625 218.601562 L 195.390625 211.398438 L 188.191406 211.398438 Z M 188.191406 218.601562 "/>
<path style=" stroke:none;fill-rule:evenodd;fill:rgb(0%,0%,0%);fill-opacity:1;" d="M 216.964844 218.601562 L 224.164062 218.601562 L 224.164062 211.398438 L 216.964844 211.398438 Z M 216.964844 218.601562 "/>
<path style="fill:none;stroke-width:1.2;stroke-linecap:round;stroke-linejoin:round;stroke:rgb(0%,0%,100%);stroke-opacity:1;stroke-miterlimit:10;" d="M 299.789062 256 L 314.949219 288 L 328.5625 256 " transform="matrix(1,0,0,-1,-108,471)"/>
<path style=" stroke:none;fill-rule:evenodd;fill:rgb(0%,0%,100%);fill-opacity:1;" d="M 243.503906 135 C 243.503906 127.800781 232.707031 127.800781 232.707031 135 C 232.707031 142.199219 243.503906 142.199219 243.503906 135 Z M 243.503906 135 "/>
<path style=" stroke:none;fill-rule:evenodd;fill:rgb(0%,0%,0%);fill-opacity:1;" d="M 219.347656 170.601562 L 226.546875 170.601562 L 226.546875 163.398438 L 219.347656 163.398438 Z M 219.347656 170.601562 "/>
<path style=" stroke:none;fill-rule:evenodd;fill:rgb(0%,0%,0%);fill-opacity:1;" d="M 248.121094 170.601562 L 255.320312 170.601562 L 255.320312 163.398438 L 248.121094 163.398438 Z M 248.121094 170.601562 "/>
<path style="fill:none;stroke-width:1.2;stroke-linecap:round;stroke-linejoin:round;stroke:rgb(0%,0%,100%);stroke-opacity:1;stroke-miterlimit:10;" d="M 330.945312 304 L 346.105469 336 L 359.722656 304 " transform="matrix(1,0,0,-1,-108,471)"/>
<path style=" stroke:none;fill-rule:evenodd;fill:rgb(0%,0%,100%);fill-opacity:1;" d="M 305.820312 135 C 305.820312 127.800781 295.019531 127.800781 295.019531 135 C 295.019531 142.199219 305.820312 142.199219 305.820312 135 Z M 305.820312 135 "/>
<path style=" stroke:none;fill-rule:evenodd;fill:rgb(0%,0%,0%);fill-opacity:1;" d="M 281.664062 170.601562 L 288.863281 170.601562 L 288.863281 163.398438 L 281.664062 163.398438 Z M 281.664062 170.601562 "/>
<path style=" stroke:none;fill-rule:evenodd;fill:rgb(0%,0%,0%);fill-opacity:1;" d="M 310.4375 170.601562 L 317.636719 170.601562 L 317.636719 163.398438 L 310.4375 163.398438 Z M 310.4375 170.601562 "/>
<path style="fill:none;stroke-width:1.2;stroke-linecap:round;stroke-linejoin:round;stroke:rgb(0%,0%,100%);stroke-opacity:1;stroke-miterlimit:10;" d="M 393.261719 304 L 408.421875 336 L 422.039062 304 " transform="matrix(1,0,0,-1,-108,471)"/>
<path style=" stroke:none;fill-rule:evenodd;fill:rgb(0%,0%,100%);fill-opacity:1;" d="M 523.925781 87 C 523.925781 79.800781 513.125 79.800781 513.125 87 C 513.125 94.199219 523.925781 94.199219 523.925781 87 Z M 523.925781 87 "/>
<path style=" stroke:none;fill-rule:evenodd;fill:rgb(0%,0%,0%);fill-opacity:1;" d="M 499.769531 122.601562 L 506.96875 122.601562 L 506.96875 115.398438 L 499.769531 115.398438 Z M 499.769531 122.601562 "/>
<path style=" stroke:none;fill-rule:evenodd;fill:rgb(0%,0%,0%);fill-opacity:1;" d="M 528.542969 122.601562 L 535.742188 122.601562 L 535.742188 115.398438 L 528.542969 115.398438 Z M 528.542969 122.601562 "/>
<path style="fill:none;stroke-width:1.2;stroke-linecap:round;stroke-linejoin:round;stroke:rgb(0%,0%,100%);stroke-opacity:1;stroke-miterlimit:10;" d="M 611.367188 352 L 626.527344 384 L 640.144531 352 " transform="matrix(1,0,0,-1,-108,471)"/>
<path style=" stroke:none;fill-rule:evenodd;fill:rgb(0%,0%,100%);fill-opacity:1;" d="M 586.242188 87 C 586.242188 79.800781 575.441406 79.800781 575.441406 87 C 575.441406 94.199219 586.242188 94.199219 586.242188 87 Z M 586.242188 87 "/>
<path style=" stroke:none;fill-rule:evenodd;fill:rgb(0%,0%,0%);fill-opacity:1;" d="M 562.085938 122.601562 L 569.285156 122.601562 L 569.285156 115.398438 L 562.085938 115.398438 Z M 562.085938 122.601562 "/>
<path style=" stroke:none;fill-rule:evenodd;fill:rgb(0%,0%,0%);fill-opacity:1;" d="M 590.859375 122.601562 L 598.058594 122.601562 L 598.058594 115.398438 L 590.859375 115.398438 Z M 590.859375 122.601562 "/>
<path style="fill:none;stroke-width:1.2;stroke-linecap:round;stroke-linejoin:round;stroke:rgb(0%,0%,100%);stroke-opacity:1;stroke-miterlimit:10;" d="M 673.683594 352 L 688.84375 384 L 702.460938 352 " transform="matrix(1,0,0,-1,-108,471)"/>
</g>
</svg>
